<svg width="40" height="40" viewBox="0 0 40 40" fill="none" xmlns="http://www.w3.org/2000/svg">
    <rect width="40" height="40" rx="8" fill="#F2F4F7" />
    <path
        d="M20 10C14.5 10 10 14.5 10 20C10 25.5 14.5 30 20 30C25.5 30 30 25.5 30 20C30 14.5 25.5 10 20 10ZM20 28C15.6 28 12 24.4 12 20C12 15.6 15.6 12 20 12C24.4 12 28 15.6 28 20C28 24.4 24.4 28 20 28Z"
        fill="#FF9900" />
    <path d="M25 18C25 20.8 22.8 23 20 23C17.2 23 15 20.8 15 18C15 15.2 17.2 13 20 13C22.8 13 25 15.2 25 18Z"
        fill="#232F3E" />
    <path d="M16 25L24 25" stroke="#232F3E" strokeWidth="2" strokeLinecap="round" />
    <path d="M20 23V27" stroke="#232F3E" strokeWidth="2" strokeLinecap="round" />
</svg>