<svg width="260" height="160" viewBox="0 0 260 160" fill="none" xmlns="http://www.w3.org/2000/svg">
    <!-- Left Schema Box -->
    <rect x="20" y="20" width="100" height="120" rx="8" fill="#F9FAFB" stroke="#E5E7EB" strokeWidth="2" />
    <text x="70" y="40" text-anchor="middle" font-size="12" font-family="sans-serif" fill="#6B7280">Schema</text>

    <!-- Left Schema Fields -->
    <rect x="30" y="60" width="80" height="20" rx="4" fill="#EFF6FF" />
    <text x="40" y="74" font-size="10" font-family="sans-serif" fill="#3B82F6">id</text>
    <text x="85" y="74" text-anchor="end" font-size="10" font-family="monospace" fill="#6B7280">INT</text>

    <rect x="30" y="90" width="80" height="20" rx="4" fill="#EFF6FF" />
    <text x="40" y="104" font-size="10" font-family="sans-serif" fill="#3B82F6">Cost</text>
    <text x="85" y="104" text-anchor="end" font-size="10" font-family="monospace" fill="#6B7280">FLOAT</text>

    <rect x="30" y="120" width="80" height="20" rx="4" fill="#EFF6FF" />
    <text x="40" y="134" font-size="10" font-family="sans-serif" fill="#3B82F6">pay_date</text>
    <text x="85" y="134" text-anchor="end" font-size="10" font-family="monospace" fill="#6B7280">DATE</text>

    <!-- Arrow connecting schemas -->
    <line x1="130" y1="80" x2="150" y2="80" stroke="#3B82F6" strokeWidth="2" stroke-linecap="round" />
    <circle cx="140" cy="80" r="5" fill="#3B82F6" />

    <!-- Right Schema Box -->
    <rect x="160" y="20" width="100" height="120" rx="8" fill="#F9FAFB" stroke="#E5E7EB" strokeWidth="2" />
    <text x="210" y="40" text-anchor="middle" font-size="12" font-family="sans-serif" fill="#6B7280">Schema</text>

    <!-- Right Schema Fields -->
    <rect x="170" y="60" width="80" height="20" rx="4" fill="#EFF6FF" />
    <text x="180" y="74" font-size="10" font-family="sans-serif" fill="#3B82F6">id</text>
    <text x="225" y="74" text-anchor="end" font-size="10" font-family="monospace" fill="#6B7280">BIGINT</text>

    <rect x="170" y="90" width="80" height="20" rx="4" fill="#EFF6FF" />
    <text x="180" y="104" font-size="10" font-family="sans-serif" fill="#3B82F6">Cost</text>
    <text x="225" y="104" text-anchor="end" font-size="10" font-family="monospace" fill="#6B7280">DOUBLE</text>

    <rect x="170" y="120" width="80" height="20" rx="4" fill="#EFF6FF" />
    <text x="180" y="134" font-size="10" font-family="sans-serif" fill="#3B82F6">pay_date</text>
    <text x="225" y="134" text-anchor="end" font-size="10" font-family="monospace" fill="#6B7280">TIMESTAMP</text>
</svg>