<svg width="260" height="160" viewBox="0 0 260 160" fill="none" xmlns="http://www.w3.org/2000/svg">
    <!-- Schema box 1 -->
    <rect x="30" y="40" width="80" height="80" rx="8" fill="#F9FAFB" stroke="#E5E7EB" strokeWidth="2" />
    <text x="70" y="30" text-anchor="middle" font-size="12" font-family="sans-serif" fill="#6B7280">Schema</text>

    <!-- Schema content box 1 -->
    <rect x="40" y="55" width="60" height="15" rx="4" fill="#EFF6FF" />
    <rect x="40" y="80" width="60" height="15" rx="4" fill="#EFF6FF" />
    <rect x="40" y="105" width="60" height="15" rx="4" fill="#EFF6FF" />

    <!-- Arrow connecting -->
    <line x1="120" y1="80" x2="150" y2="80" stroke="#3B82F6" strokeWidth="2" stroke-linecap="round" />
    <circle cx="135" cy="80" r="5" fill="#3B82F6" />

    <!-- Schema box 2 -->
    <rect x="160" y="40" width="80" height="80" rx="8" fill="#F9FAFB" stroke="#E5E7EB" strokeWidth="2" />
    <text x="200" y="30" text-anchor="middle" font-size="12" font-family="sans-serif" fill="#6B7280">Schema</text>

    <!-- Schema content box 2 -->
    <rect x="170" y="55" width="60" height="15" rx="4" fill="#EFF6FF" />
    <rect x="170" y="80" width="60" height="15" rx="4" fill="#EFF6FF" />
    <rect x="170" y="105" width="60" height="15" rx="4" fill="#EFF6FF" />

    <!-- Vertical arrow -->
    <line x1="70" y1="130" x2="70" y2="150" stroke="#3B82F6" strokeWidth="2" stroke-linecap="round" />
    <circle cx="70" cy="140" r="5" fill="#3B82F6" />
</svg>