<svg width="280" height="120" viewBox="0 0 280 120" fill="none" xmlns="http://www.w3.org/2000/svg">
    <!-- MongoDB Icon -->
    <circle cx="60" cy="60" r="22" fill="#10AA50" />
    <path d="M60 82V38C66 44 69 52 69 60C69 68 66 76 60 82Z" fill="white" />
    <path d="M60 38C54 44 51 52 51 60C51 68 54 76 60 82" stroke="white" strokeWidth="2" />

    <!-- PostgreSQL Icon -->
    <circle cx="120" cy="60" r="22" fill="#336791" />
    <path d="M110 60C110 54.5 114.5 50 120 50C125.5 50 130 54.5 130 60C130 65.5 125.5 70 120 70" stroke="white"
        strokeWidth="2" />
    <path d="M120 70V78" stroke="white" strokeWidth="2" />
    <path d="M115 75H125" stroke="white" strokeWidth="2" />

    <!-- MySQL Icon -->
    <circle cx="180" cy="60" r="22" fill="#4479A1" />
    <rect x="170" y="50" width="20" height="20" rx="2" stroke="white" strokeWidth="2" />
    <path d="M175 55H185" stroke="white" strokeWidth="2" />
    <path d="M175 60H185" stroke="white" strokeWidth="2" />
    <path d="M175 65H185" stroke="white" strokeWidth="2" />

    <!-- Generic File Icon -->
    <circle cx="240" cy="60" r="22" fill="#F97316" />
    <path d="M230 50H240L250 60V70H230V50Z" stroke="white" strokeWidth="2" />
    <path d="M240 50V60H250" stroke="white" strokeWidth="2" />
</svg>