<svg width="40" height="40" viewBox="0 0 40 40" fill="none" xmlns="http://www.w3.org/2000/svg">
    <rect width="40" height="40" rx="8" fill="#F2F4F7" />
    <path
        d="M28 16C26.6667 17.3333 22.8 21.2 22 25C21.6 26.6 22.3333 28.3333 22.5 29L13 24.5C14.1667 23.1667 17.3 20.5 20.5 20.5C23.5 20.5 27.3333 18.1667 29 17L28 16Z"
        fill="#E25A1C" />
    <path
        d="M29 17C27.1667 18.1667 22.5 20.9 19.5 21.5C16.9 22 14 24.3333 13 25.5V11C14.8333 12 18.9 14.6 20.5 16C22.5 17.8 27.1667 16.6667 29 16V17Z"
        fill="#E25A1C" />
</svg>