<svg width="17" height="17" viewBox="0 0 17 17" fill="none" xmlns="http://www.w3.org/2000/svg">
<g clip-path="url(#clip0_51_141)">
<path d="M6.50084 7.96064C6.05583 7.96064 5.62081 8.0926 5.2508 8.33983C4.88079 8.58706 4.5924 8.93847 4.42211 9.3496C4.25181 9.76073 4.20725 10.2131 4.29407 10.6496C4.38089 11.086 4.59518 11.487 4.90985 11.8016C5.22451 12.1163 5.62543 12.3306 6.06188 12.4174C6.49834 12.5042 6.95074 12.4597 7.36187 12.2894C7.77301 12.1191 8.12441 11.8307 8.37164 11.4607C8.61888 11.0907 8.75084 10.6556 8.75084 10.2106C8.75084 9.6139 8.51378 9.0416 8.09183 8.61965C7.66987 8.19769 7.09757 7.96064 6.50084 7.96064ZM6.50084 10.9606C6.3525 10.9606 6.2075 10.9166 6.08416 10.8342C5.96082 10.7518 5.86469 10.6347 5.80793 10.4976C5.75116 10.3606 5.73631 10.2098 5.76525 10.0643C5.79419 9.91883 5.86562 9.7852 5.97051 9.68031C6.0754 9.57542 6.20903 9.50399 6.35452 9.47505C6.5 9.44611 6.6508 9.46096 6.78785 9.51773C6.92489 9.57449 7.04203 9.67062 7.12444 9.79396C7.20685 9.9173 7.25084 10.0623 7.25084 10.2106C7.25084 10.4095 7.17182 10.6003 7.03117 10.741C6.89051 10.8816 6.69975 10.9606 6.50084 10.9606ZM14.5315 7.68001C14.6014 7.74969 14.6569 7.83248 14.6947 7.92365C14.7326 8.01481 14.7521 8.11255 14.7521 8.21126C14.7521 8.30997 14.7326 8.40771 14.6947 8.49888C14.6569 8.59004 14.6014 8.67283 14.5315 8.74251L11.5315 11.7425C11.3906 11.8834 11.1995 11.9626 11.0002 11.9626C10.801 11.9626 10.6099 11.8834 10.469 11.7425C10.3281 11.6016 10.2489 11.4105 10.2489 11.2113C10.2489 11.012 10.3281 10.8209 10.469 10.68L13.469 7.68001C13.5386 7.61009 13.6214 7.55461 13.7126 7.51676C13.8038 7.47891 13.9015 7.45942 14.0002 7.45942C14.0989 7.45942 14.1967 7.47891 14.2878 7.51676C14.379 7.55461 14.4618 7.61009 14.5315 7.68001ZM12.2815 6.43001C12.3514 6.49969 12.4069 6.58248 12.4447 6.67365C12.4826 6.76481 12.5021 6.86255 12.5021 6.96126C12.5021 7.05997 12.4826 7.15771 12.4447 7.24888C12.4069 7.34004 12.3514 7.42283 12.2815 7.49251L11.0315 8.74251C10.8906 8.88341 10.6995 8.96256 10.5002 8.96256C10.301 8.96256 10.1099 8.88341 9.96896 8.74251C9.82807 8.60162 9.74891 8.41052 9.74891 8.21126C9.74891 8.012 9.82807 7.82091 9.96896 7.68001L11.219 6.43001C11.2886 6.36009 11.3714 6.30461 11.4626 6.26676C11.5538 6.22891 11.6515 6.20942 11.7502 6.20942C11.8489 6.20942 11.9467 6.22891 12.0378 6.26676C12.129 6.30461 12.2118 6.36009 12.2815 6.43001ZM15.0315 4.74251L14.0315 5.74251C13.8906 5.88341 13.6995 5.96256 13.5002 5.96256C13.301 5.96256 13.1099 5.88341 12.969 5.74251C12.8281 5.60162 12.7489 5.41052 12.7489 5.21126C12.7489 5.012 12.8281 4.82091 12.969 4.68001L13.969 3.68001C14.1099 3.53912 14.301 3.45996 14.5002 3.45996C14.6995 3.45996 14.8906 3.53912 15.0315 3.68001C15.1724 3.82091 15.2515 4.012 15.2515 4.21126C15.2515 4.41052 15.1724 4.60162 15.0315 4.74251ZM7.96896 5.68001L12.469 1.18001C12.6099 1.03912 12.801 0.959961 13.0002 0.959961C13.1995 0.959961 13.3906 1.03912 13.5315 1.18001C13.6724 1.32091 13.7515 1.512 13.7515 1.71126C13.7515 1.91052 13.6724 2.10162 13.5315 2.24251L9.03146 6.74251C8.9617 6.81228 8.87887 6.86762 8.78772 6.90537C8.69657 6.94313 8.59887 6.96256 8.50021 6.96256C8.40155 6.96256 8.30385 6.94313 8.2127 6.90537C8.12155 6.86762 8.03873 6.81228 7.96896 6.74251C7.8992 6.67275 7.84386 6.58992 7.8061 6.49877C7.76834 6.40762 7.74891 6.30992 7.74891 6.21126C7.74891 6.1126 7.76834 6.0149 7.8061 5.92375C7.84386 5.8326 7.8992 5.74978 7.96896 5.68001ZM9.85834 12.5088C9.92826 12.5784 9.98374 12.6612 10.0216 12.7524C10.0594 12.8436 10.0789 12.9413 10.0789 13.04C10.0789 13.1387 10.0594 13.2365 10.0216 13.3276C9.98374 13.4188 9.92826 13.5016 9.85834 13.5713C9.41714 14.0123 8.8934 14.362 8.31702 14.6006C7.74064 14.8392 7.12291 14.9619 6.49911 14.9618C5.8753 14.9616 5.25763 14.8386 4.68136 14.5998C4.1051 14.3609 3.58152 14.0109 3.14052 13.5697C2.69953 13.1285 2.34975 12.6048 2.11117 12.0284C1.87258 11.452 1.74986 10.8343 1.75 10.2105C1.75015 9.58666 1.87316 8.96899 2.11201 8.39273C2.35087 7.81646 2.70089 7.29288 3.14209 6.85189L8.31334 1.68001C8.45423 1.53912 8.64533 1.45996 8.84459 1.45996C9.04384 1.45996 9.23494 1.53912 9.37584 1.68001C9.51673 1.82091 9.59589 2.012 9.59589 2.21126C9.59589 2.41052 9.51673 2.60162 9.37584 2.74251L4.20271 7.91251C3.59321 8.52201 3.2508 9.34867 3.2508 10.2106C3.2508 11.0726 3.59321 11.8993 4.20271 12.5088C4.81221 13.1183 5.63887 13.4607 6.50084 13.4607C7.3628 13.4607 8.18946 13.1183 8.79896 12.5088C8.93961 12.3681 9.13037 12.2891 9.32927 12.2891C9.52818 12.2891 9.71894 12.3681 9.85959 12.5088H9.85834Z" fill="#407BFF"/>
</g>
<defs>
<clipPath id="clip0_51_141">
<rect width="16" height="16" fill="white" transform="translate(0.5 0.209961)"/>
</clipPath>
</defs>
</svg>
