<svg width="538" height="372" viewBox="0 0 538 372" fill="none" xmlns="http://www.w3.org/2000/svg">
<g clip-path="url(#clip0_1_1116)">
<rect width="538" height="372" rx="8" fill="#202020"/>
<line y1="60.5" x2="537" y2="60.5" stroke="#2B2B2B"/>
<line y1="140.5" x2="537" y2="140.5" stroke="#2B2B2B"/>
<line y1="220.5" x2="537" y2="220.5" stroke="#2B2B2B"/>
<line y1="300.5" x2="537" y2="300.5" stroke="#2B2B2B"/>
<rect y="1" width="229" height="377" fill="url(#paint0_linear_1_1116)"/>
<path d="M117.77 321.482C117.817 320.549 118.143 319.83 118.75 319.326C119.366 318.813 120.173 318.556 121.172 318.556C121.853 318.556 122.437 318.677 122.922 318.92C123.407 319.153 123.771 319.475 124.014 319.886C124.266 320.287 124.392 320.745 124.392 321.258C124.392 321.846 124.238 322.345 123.93 322.756C123.631 323.157 123.272 323.428 122.852 323.568V323.624C123.393 323.792 123.813 324.091 124.112 324.52C124.42 324.949 124.574 325.5 124.574 326.172C124.574 326.732 124.443 327.231 124.182 327.67C123.93 328.109 123.552 328.454 123.048 328.706C122.553 328.949 121.956 329.07 121.256 329.07C120.201 329.07 119.343 328.804 118.68 328.272C118.017 327.74 117.667 326.956 117.63 325.92H119.534C119.553 326.377 119.707 326.746 119.996 327.026C120.295 327.297 120.701 327.432 121.214 327.432C121.69 327.432 122.054 327.301 122.306 327.04C122.567 326.769 122.698 326.424 122.698 326.004C122.698 325.444 122.521 325.043 122.166 324.8C121.811 324.557 121.261 324.436 120.514 324.436H120.108V322.826H120.514C121.839 322.826 122.502 322.383 122.502 321.496C122.502 321.095 122.381 320.782 122.138 320.558C121.905 320.334 121.564 320.222 121.116 320.222C120.677 320.222 120.337 320.343 120.094 320.586C119.861 320.819 119.725 321.118 119.688 321.482H117.77ZM125.283 323.764C125.283 322.149 125.572 320.885 126.151 319.97C126.739 319.055 127.71 318.598 129.063 318.598C130.416 318.598 131.382 319.055 131.961 319.97C132.549 320.885 132.843 322.149 132.843 323.764C132.843 325.388 132.549 326.662 131.961 327.586C131.382 328.51 130.416 328.972 129.063 328.972C127.71 328.972 126.739 328.51 126.151 327.586C125.572 326.662 125.283 325.388 125.283 323.764ZM130.911 323.764C130.911 323.073 130.864 322.495 130.771 322.028C130.687 321.552 130.51 321.165 130.239 320.866C129.978 320.567 129.586 320.418 129.063 320.418C128.54 320.418 128.144 320.567 127.873 320.866C127.612 321.165 127.434 321.552 127.341 322.028C127.257 322.495 127.215 323.073 127.215 323.764C127.215 324.473 127.257 325.071 127.341 325.556C127.425 326.032 127.602 326.419 127.873 326.718C128.144 327.007 128.54 327.152 129.063 327.152C129.586 327.152 129.982 327.007 130.253 326.718C130.524 326.419 130.701 326.032 130.785 325.556C130.869 325.071 130.911 324.473 130.911 323.764ZM136.686 329.126C136.051 329.126 135.482 329.014 134.978 328.79C134.474 328.557 134.072 328.244 133.774 327.852C133.484 327.46 133.326 327.026 133.298 326.55H135.272C135.309 326.849 135.454 327.096 135.706 327.292C135.967 327.488 136.289 327.586 136.672 327.586C137.045 327.586 137.334 327.511 137.54 327.362C137.754 327.213 137.862 327.021 137.862 326.788C137.862 326.536 137.731 326.349 137.47 326.228C137.218 326.097 136.812 325.957 136.252 325.808C135.673 325.668 135.197 325.523 134.824 325.374C134.46 325.225 134.142 324.996 133.872 324.688C133.61 324.38 133.48 323.965 133.48 323.442C133.48 323.013 133.601 322.621 133.844 322.266C134.096 321.911 134.45 321.631 134.908 321.426C135.374 321.221 135.92 321.118 136.546 321.118C137.47 321.118 138.207 321.351 138.758 321.818C139.308 322.275 139.612 322.896 139.668 323.68H137.792C137.764 323.372 137.633 323.129 137.4 322.952C137.176 322.765 136.872 322.672 136.49 322.672C136.135 322.672 135.86 322.737 135.664 322.868C135.477 322.999 135.384 323.181 135.384 323.414C135.384 323.675 135.514 323.876 135.776 324.016C136.037 324.147 136.443 324.282 136.994 324.422C137.554 324.562 138.016 324.707 138.38 324.856C138.744 325.005 139.056 325.239 139.318 325.556C139.588 325.864 139.728 326.275 139.738 326.788C139.738 327.236 139.612 327.637 139.36 327.992C139.117 328.347 138.762 328.627 138.296 328.832C137.838 329.028 137.302 329.126 136.686 329.126Z" fill="#383838"/>
<path d="M177.504 320.6V318.794H180.878V329H178.862V320.6H177.504ZM191.83 321.132C192.782 321.132 193.548 321.426 194.126 322.014C194.714 322.593 195.008 323.405 195.008 324.45V329H193.048V324.716C193.048 324.109 192.894 323.647 192.586 323.33C192.278 323.003 191.858 322.84 191.326 322.84C190.794 322.84 190.37 323.003 190.052 323.33C189.744 323.647 189.59 324.109 189.59 324.716V329H187.63V324.716C187.63 324.109 187.476 323.647 187.168 323.33C186.86 323.003 186.44 322.84 185.908 322.84C185.367 322.84 184.938 323.003 184.62 323.33C184.312 323.647 184.158 324.109 184.158 324.716V329H182.198V321.244H184.158V322.182C184.41 321.855 184.732 321.599 185.124 321.412C185.526 321.225 185.964 321.132 186.44 321.132C187.047 321.132 187.588 321.263 188.064 321.524C188.54 321.776 188.909 322.14 189.17 322.616C189.422 322.168 189.786 321.809 190.262 321.538C190.748 321.267 191.27 321.132 191.83 321.132Z" fill="#383838"/>
<path d="M233.358 326.788C234.254 326.041 234.968 325.421 235.5 324.926C236.032 324.422 236.475 323.899 236.83 323.358C237.185 322.817 237.362 322.285 237.362 321.762C237.362 321.286 237.25 320.913 237.026 320.642C236.802 320.371 236.457 320.236 235.99 320.236C235.523 320.236 235.164 320.395 234.912 320.712C234.66 321.02 234.529 321.445 234.52 321.986H232.616C232.653 320.866 232.985 320.017 233.61 319.438C234.245 318.859 235.047 318.57 236.018 318.57C237.082 318.57 237.899 318.855 238.468 319.424C239.037 319.984 239.322 320.726 239.322 321.65C239.322 322.378 239.126 323.073 238.734 323.736C238.342 324.399 237.894 324.977 237.39 325.472C236.886 325.957 236.228 326.545 235.416 327.236H239.546V328.86H232.63V327.404L233.358 326.788ZM249.797 321.132C250.749 321.132 251.514 321.426 252.093 322.014C252.681 322.593 252.975 323.405 252.975 324.45V329H251.015V324.716C251.015 324.109 250.861 323.647 250.553 323.33C250.245 323.003 249.825 322.84 249.293 322.84C248.761 322.84 248.336 323.003 248.019 323.33C247.711 323.647 247.557 324.109 247.557 324.716V329H245.597V324.716C245.597 324.109 245.443 323.647 245.135 323.33C244.827 323.003 244.407 322.84 243.875 322.84C243.334 322.84 242.904 323.003 242.587 323.33C242.279 323.647 242.125 324.109 242.125 324.716V329H240.165V321.244H242.125V322.182C242.377 321.855 242.699 321.599 243.091 321.412C243.492 321.225 243.931 321.132 244.407 321.132C245.014 321.132 245.555 321.263 246.031 321.524C246.507 321.776 246.876 322.14 247.137 322.616C247.389 322.168 247.753 321.809 248.229 321.538C248.714 321.267 249.237 321.132 249.797 321.132Z" fill="#383838"/>
<path d="M290.77 321.482C290.817 320.549 291.143 319.83 291.75 319.326C292.366 318.813 293.173 318.556 294.172 318.556C294.853 318.556 295.437 318.677 295.922 318.92C296.407 319.153 296.771 319.475 297.014 319.886C297.266 320.287 297.392 320.745 297.392 321.258C297.392 321.846 297.238 322.345 296.93 322.756C296.631 323.157 296.272 323.428 295.852 323.568V323.624C296.393 323.792 296.813 324.091 297.112 324.52C297.42 324.949 297.574 325.5 297.574 326.172C297.574 326.732 297.443 327.231 297.182 327.67C296.93 328.109 296.552 328.454 296.048 328.706C295.553 328.949 294.956 329.07 294.256 329.07C293.201 329.07 292.343 328.804 291.68 328.272C291.017 327.74 290.667 326.956 290.63 325.92H292.534C292.553 326.377 292.707 326.746 292.996 327.026C293.295 327.297 293.701 327.432 294.214 327.432C294.69 327.432 295.054 327.301 295.306 327.04C295.567 326.769 295.698 326.424 295.698 326.004C295.698 325.444 295.521 325.043 295.166 324.8C294.811 324.557 294.261 324.436 293.514 324.436H293.108V322.826H293.514C294.839 322.826 295.502 322.383 295.502 321.496C295.502 321.095 295.381 320.782 295.138 320.558C294.905 320.334 294.564 320.222 294.116 320.222C293.677 320.222 293.337 320.343 293.094 320.586C292.861 320.819 292.725 321.118 292.688 321.482H290.77ZM308.139 321.132C309.091 321.132 309.856 321.426 310.435 322.014C311.023 322.593 311.317 323.405 311.317 324.45V329H309.357V324.716C309.357 324.109 309.203 323.647 308.895 323.33C308.587 323.003 308.167 322.84 307.635 322.84C307.103 322.84 306.678 323.003 306.361 323.33C306.053 323.647 305.899 324.109 305.899 324.716V329H303.939V324.716C303.939 324.109 303.785 323.647 303.477 323.33C303.169 323.003 302.749 322.84 302.217 322.84C301.676 322.84 301.246 323.003 300.929 323.33C300.621 323.647 300.467 324.109 300.467 324.716V329H298.507V321.244H300.467V322.182C300.719 321.855 301.041 321.599 301.433 321.412C301.834 321.225 302.273 321.132 302.749 321.132C303.356 321.132 303.897 321.263 304.373 321.524C304.849 321.776 305.218 322.14 305.479 322.616C305.731 322.168 306.095 321.809 306.571 321.538C307.056 321.267 307.579 321.132 308.139 321.132Z" fill="#383838"/>
<path d="M355.034 321.342C354.941 320.95 354.777 320.656 354.544 320.46C354.32 320.264 353.993 320.166 353.564 320.166C352.92 320.166 352.444 320.427 352.136 320.95C351.837 321.463 351.683 322.303 351.674 323.47C351.898 323.097 352.225 322.807 352.654 322.602C353.083 322.387 353.55 322.28 354.054 322.28C354.661 322.28 355.197 322.411 355.664 322.672C356.131 322.933 356.495 323.316 356.756 323.82C357.017 324.315 357.148 324.912 357.148 325.612C357.148 326.275 357.013 326.867 356.742 327.39C356.481 327.903 356.093 328.305 355.58 328.594C355.067 328.883 354.455 329.028 353.746 329.028C352.775 329.028 352.01 328.813 351.45 328.384C350.899 327.955 350.512 327.357 350.288 326.592C350.073 325.817 349.966 324.865 349.966 323.736C349.966 322.028 350.26 320.74 350.848 319.872C351.436 318.995 352.365 318.556 353.634 318.556C354.614 318.556 355.375 318.822 355.916 319.354C356.457 319.886 356.77 320.549 356.854 321.342H355.034ZM353.606 323.89C353.111 323.89 352.696 324.035 352.36 324.324C352.024 324.613 351.856 325.033 351.856 325.584C351.856 326.135 352.01 326.569 352.318 326.886C352.635 327.203 353.079 327.362 353.648 327.362C354.152 327.362 354.549 327.208 354.838 326.9C355.137 326.592 355.286 326.177 355.286 325.654C355.286 325.113 355.141 324.683 354.852 324.366C354.572 324.049 354.157 323.89 353.606 323.89ZM367.713 321.132C368.665 321.132 369.43 321.426 370.009 322.014C370.597 322.593 370.891 323.405 370.891 324.45V329H368.931V324.716C368.931 324.109 368.777 323.647 368.469 323.33C368.161 323.003 367.741 322.84 367.209 322.84C366.677 322.84 366.252 323.003 365.935 323.33C365.627 323.647 365.473 324.109 365.473 324.716V329H363.513V324.716C363.513 324.109 363.359 323.647 363.051 323.33C362.743 323.003 362.323 322.84 361.791 322.84C361.25 322.84 360.82 323.003 360.503 323.33C360.195 323.647 360.041 324.109 360.041 324.716V329H358.081V321.244H360.041V322.182C360.293 321.855 360.615 321.599 361.007 321.412C361.408 321.225 361.847 321.132 362.323 321.132C362.93 321.132 363.471 321.263 363.947 321.524C364.423 321.776 364.792 322.14 365.053 322.616C365.305 322.168 365.669 321.809 366.145 321.538C366.63 321.267 367.153 321.132 367.713 321.132Z" fill="#383838"/>
<path d="M411.01 326.13C411.085 326.541 411.253 326.858 411.514 327.082C411.785 327.297 412.144 327.404 412.592 327.404C413.171 327.404 413.591 327.166 413.852 326.69C414.113 326.205 414.244 325.393 414.244 324.254C414.029 324.553 413.726 324.786 413.334 324.954C412.951 325.122 412.536 325.206 412.088 325.206C411.491 325.206 410.949 325.085 410.464 324.842C409.988 324.59 409.61 324.221 409.33 323.736C409.05 323.241 408.91 322.644 408.91 321.944C408.91 320.908 409.218 320.087 409.834 319.48C410.45 318.864 411.29 318.556 412.354 318.556C413.679 318.556 414.613 318.981 415.154 319.83C415.705 320.679 415.98 321.958 415.98 323.666C415.98 324.879 415.873 325.873 415.658 326.648C415.453 327.423 415.093 328.011 414.58 328.412C414.076 328.813 413.385 329.014 412.508 329.014C411.817 329.014 411.229 328.883 410.744 328.622C410.259 328.351 409.885 328.001 409.624 327.572C409.372 327.133 409.227 326.653 409.19 326.13H411.01ZM412.494 323.61C412.979 323.61 413.362 323.461 413.642 323.162C413.922 322.863 414.062 322.462 414.062 321.958C414.062 321.407 413.913 320.983 413.614 320.684C413.325 320.376 412.928 320.222 412.424 320.222C411.92 320.222 411.519 320.381 411.22 320.698C410.931 321.006 410.786 321.417 410.786 321.93C410.786 322.425 410.926 322.831 411.206 323.148C411.495 323.456 411.925 323.61 412.494 323.61ZM426.522 321.132C427.474 321.132 428.239 321.426 428.818 322.014C429.406 322.593 429.7 323.405 429.7 324.45V329H427.74V324.716C427.74 324.109 427.586 323.647 427.278 323.33C426.97 323.003 426.55 322.84 426.018 322.84C425.486 322.84 425.061 323.003 424.744 323.33C424.436 323.647 424.282 324.109 424.282 324.716V329H422.322V324.716C422.322 324.109 422.168 323.647 421.86 323.33C421.552 323.003 421.132 322.84 420.6 322.84C420.058 322.84 419.629 323.003 419.312 323.33C419.004 323.647 418.85 324.109 418.85 324.716V329H416.89V321.244H418.85V322.182C419.102 321.855 419.424 321.599 419.816 321.412C420.217 321.225 420.656 321.132 421.132 321.132C421.738 321.132 422.28 321.263 422.756 321.524C423.232 321.776 423.6 322.14 423.862 322.616C424.114 322.168 424.478 321.809 424.954 321.538C425.439 321.267 425.962 321.132 426.522 321.132Z" fill="#383838"/>
<path d="M467.504 320.6V318.794H470.878V329H468.862V320.6H467.504ZM472.59 326.788C473.486 326.041 474.2 325.421 474.732 324.926C475.264 324.422 475.708 323.899 476.062 323.358C476.417 322.817 476.594 322.285 476.594 321.762C476.594 321.286 476.482 320.913 476.258 320.642C476.034 320.371 475.689 320.236 475.222 320.236C474.756 320.236 474.396 320.395 474.144 320.712C473.892 321.02 473.762 321.445 473.752 321.986H471.848C471.886 320.866 472.217 320.017 472.842 319.438C473.477 318.859 474.28 318.57 475.25 318.57C476.314 318.57 477.131 318.855 477.7 319.424C478.27 319.984 478.554 320.726 478.554 321.65C478.554 322.378 478.358 323.073 477.966 323.736C477.574 324.399 477.126 324.977 476.622 325.472C476.118 325.957 475.46 326.545 474.648 327.236H478.778V328.86H471.862V327.404L472.59 326.788ZM489.029 321.132C489.981 321.132 490.747 321.426 491.325 322.014C491.913 322.593 492.207 323.405 492.207 324.45V329H490.247V324.716C490.247 324.109 490.093 323.647 489.785 323.33C489.477 323.003 489.057 322.84 488.525 322.84C487.993 322.84 487.569 323.003 487.251 323.33C486.943 323.647 486.789 324.109 486.789 324.716V329H484.829V324.716C484.829 324.109 484.675 323.647 484.367 323.33C484.059 323.003 483.639 322.84 483.107 322.84C482.566 322.84 482.137 323.003 481.819 323.33C481.511 323.647 481.357 324.109 481.357 324.716V329H479.397V321.244H481.357V322.182C481.609 321.855 481.931 321.599 482.323 321.412C482.725 321.225 483.163 321.132 483.639 321.132C484.246 321.132 484.787 321.263 485.263 321.524C485.739 321.776 486.108 322.14 486.369 322.616C486.621 322.168 486.985 321.809 487.461 321.538C487.947 321.267 488.469 321.132 489.029 321.132Z" fill="#383838"/>
<path d="M24 210.25L24 211.16L18.45 214.82L24 214.82L24 215.73L17.02 215.73L17.02 214.82L22.56 211.16L17.02 211.16L17.02 210.25L24 210.25ZM24.09 206.309C24.09 206.822 23.9733 207.289 23.74 207.709C23.5067 208.122 23.1767 208.449 22.75 208.689C22.3167 208.922 21.8167 209.039 21.25 209.039C20.69 209.039 20.1967 208.919 19.77 208.679C19.3367 208.432 19.0067 208.099 18.78 207.679C18.5467 207.259 18.43 206.789 18.43 206.269C18.43 205.749 18.5467 205.279 18.78 204.859C19.0067 204.439 19.3333 204.109 19.76 203.869C20.1867 203.622 20.6833 203.499 21.25 203.499C21.8167 203.499 22.3167 203.625 22.75 203.879C23.1767 204.125 23.5067 204.462 23.74 204.889C23.9733 205.315 24.09 205.789 24.09 206.309ZM23.29 206.309C23.29 205.982 23.2133 205.675 23.06 205.389C22.9067 205.102 22.6767 204.872 22.37 204.699C22.0633 204.519 21.69 204.429 21.25 204.429C20.81 204.429 20.4367 204.515 20.13 204.689C19.8233 204.862 19.5967 205.089 19.45 205.369C19.2967 205.649 19.22 205.952 19.22 206.279C19.22 206.612 19.2967 206.919 19.45 207.199C19.5967 207.472 19.8233 207.692 20.13 207.859C20.4367 208.025 20.81 208.109 21.25 208.109C21.6967 208.109 22.0733 208.029 22.38 207.869C22.6867 207.702 22.9167 207.482 23.07 207.209C23.2167 206.935 23.29 206.635 23.29 206.309ZM24.06 202.012C24.06 202.186 24 202.332 23.88 202.452C23.76 202.572 23.6133 202.632 23.44 202.632C23.2667 202.632 23.12 202.572 23 202.452C22.88 202.332 22.82 202.186 22.82 202.012C22.82 201.846 22.88 201.706 23 201.592C23.12 201.472 23.2667 201.412 23.44 201.412C23.6133 201.412 23.76 201.472 23.88 201.592C24 201.706 24.06 201.846 24.06 202.012ZM24.09 195.147C24.09 195.66 23.9733 196.127 23.74 196.547C23.5067 196.96 23.1767 197.287 22.75 197.527C22.3167 197.76 21.8167 197.877 21.25 197.877C20.69 197.877 20.1967 197.757 19.77 197.517C19.3367 197.27 19.0067 196.937 18.78 196.517C18.5467 196.097 18.43 195.627 18.43 195.107C18.43 194.587 18.5467 194.117 18.78 193.697C19.0067 193.277 19.3333 192.947 19.76 192.707C20.1867 192.46 20.6833 192.337 21.25 192.337C21.8167 192.337 22.3167 192.463 22.75 192.717C23.1767 192.963 23.5067 193.3 23.74 193.727C23.9733 194.153 24.09 194.627 24.09 195.147ZM23.29 195.147C23.29 194.82 23.2133 194.513 23.06 194.227C22.9067 193.94 22.6767 193.71 22.37 193.537C22.0633 193.357 21.69 193.267 21.25 193.267C20.81 193.267 20.4367 193.353 20.13 193.527C19.8233 193.7 19.5967 193.927 19.45 194.207C19.2967 194.487 19.22 194.79 19.22 195.117C19.22 195.45 19.2967 195.757 19.45 196.037C19.5967 196.31 19.8233 196.53 20.13 196.697C20.4367 196.863 20.81 196.947 21.25 196.947C21.6967 196.947 22.0733 196.867 22.38 196.707C22.6867 196.54 22.9167 196.32 23.07 196.047C23.2167 195.773 23.29 195.473 23.29 195.147ZM19.27 188.91L19.27 190.06L24 190.06L24 190.97L19.27 190.97L19.27 191.68L18.52 191.68L18.52 190.97L18.13 190.97C17.5167 190.97 17.07 190.813 16.79 190.5C16.5033 190.18 16.36 189.67 16.36 188.97L17.12 188.97C17.12 189.37 17.2 189.653 17.36 189.82C17.5133 189.98 17.77 190.06 18.13 190.06L18.52 190.06L18.52 188.91L19.27 188.91ZM24 181.513L21.15 183.173L21.15 184.273L24 184.273L24 185.183L17.03 185.183L17.03 182.933C17.03 182.406 17.12 181.963 17.3 181.603C17.48 181.236 17.7233 180.963 18.03 180.783C18.3367 180.603 18.6867 180.513 19.08 180.513C19.56 180.513 19.9833 180.653 20.35 180.933C20.7167 181.206 20.96 181.62 21.08 182.173L24 180.423L24 181.513ZM20.42 184.273L20.42 182.933C20.42 182.44 20.3 182.07 20.06 181.823C19.8133 181.576 19.4867 181.453 19.08 181.453C18.6667 181.453 18.3467 181.576 18.12 181.823C17.8933 182.063 17.78 182.433 17.78 182.933L17.78 184.273L20.42 184.273ZM21.05 174.099C21.2233 174.099 21.4067 174.109 21.6 174.129L21.6 178.509C22.14 178.476 22.5633 178.292 22.87 177.959C23.17 177.619 23.32 177.209 23.32 176.729C23.32 176.336 23.23 176.009 23.05 175.749C22.8633 175.482 22.6167 175.296 22.31 175.189L22.31 174.209C22.8367 174.356 23.2667 174.649 23.6 175.089C23.9267 175.529 24.09 176.076 24.09 176.729C24.09 177.249 23.9733 177.716 23.74 178.129C23.5067 178.536 23.1767 178.856 22.75 179.089C22.3167 179.322 21.8167 179.439 21.25 179.439C20.6833 179.439 20.1867 179.326 19.76 179.099C19.3333 178.872 19.0067 178.556 18.78 178.149C18.5467 177.736 18.43 177.262 18.43 176.729C18.43 176.209 18.5433 175.749 18.77 175.349C18.9967 174.949 19.31 174.642 19.71 174.429C20.1033 174.209 20.55 174.099 21.05 174.099ZM20.86 175.039C20.5133 175.039 20.2167 175.116 19.97 175.269C19.7167 175.422 19.5267 175.632 19.4 175.899C19.2667 176.159 19.2 176.449 19.2 176.769C19.2 177.229 19.3467 177.622 19.64 177.949C19.9333 178.269 20.34 178.452 20.86 178.499L20.86 175.039ZM21.25 173.238C20.6833 173.238 20.19 173.125 19.77 172.898C19.3433 172.671 19.0133 172.358 18.78 171.958C18.5467 171.551 18.43 171.088 18.43 170.568C18.43 169.895 18.5933 169.341 18.92 168.908C19.2467 168.468 19.7 168.178 20.28 168.038L20.28 169.018C19.9467 169.111 19.6833 169.295 19.49 169.568C19.2967 169.835 19.2 170.168 19.2 170.568C19.2 171.088 19.38 171.508 19.74 171.828C20.0933 172.148 20.5967 172.308 21.25 172.308C21.91 172.308 22.42 172.148 22.78 171.828C23.14 171.508 23.32 171.088 23.32 170.568C23.32 170.168 23.2267 169.835 23.04 169.568C22.8533 169.301 22.5867 169.118 22.24 169.018L22.24 168.038C22.8 168.185 23.25 168.478 23.59 168.918C23.9233 169.358 24.09 169.908 24.09 170.568C24.09 171.088 23.9733 171.551 23.74 171.958C23.5067 172.358 23.1767 172.671 22.75 172.898C22.3233 173.125 21.8233 173.238 21.25 173.238ZM24.09 164.434C24.09 164.947 23.9733 165.414 23.74 165.834C23.5067 166.247 23.1767 166.574 22.75 166.814C22.3167 167.047 21.8167 167.164 21.25 167.164C20.69 167.164 20.1967 167.044 19.77 166.804C19.3367 166.557 19.0067 166.224 18.78 165.804C18.5467 165.384 18.43 164.914 18.43 164.394C18.43 163.874 18.5467 163.404 18.78 162.984C19.0067 162.564 19.3333 162.234 19.76 161.994C20.1867 161.747 20.6833 161.624 21.25 161.624C21.8167 161.624 22.3167 161.75 22.75 162.004C23.1767 162.25 23.5067 162.587 23.74 163.014C23.9733 163.44 24.09 163.914 24.09 164.434ZM23.29 164.434C23.29 164.107 23.2133 163.8 23.06 163.514C22.9067 163.227 22.6767 162.997 22.37 162.824C22.0633 162.644 21.69 162.554 21.25 162.554C20.81 162.554 20.4367 162.64 20.13 162.814C19.8233 162.987 19.5967 163.214 19.45 163.494C19.2967 163.774 19.22 164.077 19.22 164.404C19.22 164.737 19.2967 165.044 19.45 165.324C19.5967 165.597 19.8233 165.817 20.13 165.984C20.4367 166.15 20.81 166.234 21.25 166.234C21.6967 166.234 22.0733 166.154 22.38 165.994C22.6867 165.827 22.9167 165.607 23.07 165.334C23.2167 165.06 23.29 164.76 23.29 164.434ZM19.41 159.517C19.0967 159.357 18.8533 159.131 18.68 158.837C18.5067 158.537 18.42 158.174 18.42 157.747L19.36 157.747L19.36 157.987C19.36 159.007 19.9133 159.517 21.02 159.517L24 159.517L24 160.427L18.52 160.427L18.52 159.517L19.41 159.517ZM21.24 157.037C20.68 157.037 20.19 156.923 19.77 156.697C19.3433 156.47 19.0133 156.16 18.78 155.767C18.5467 155.367 18.43 154.92 18.43 154.427C18.43 154 18.53 153.603 18.73 153.237C18.9233 152.87 19.18 152.59 19.5 152.397L16.6 152.397L16.6 151.477L24 151.477L24 152.397L22.97 152.397C23.2967 152.577 23.5667 152.843 23.78 153.197C23.9867 153.55 24.09 153.963 24.09 154.437C24.09 154.923 23.97 155.367 23.73 155.767C23.49 156.16 23.1533 156.47 22.72 156.697C22.2867 156.923 21.7933 157.037 21.24 157.037ZM21.25 152.397C20.8367 152.397 20.4767 152.48 20.17 152.647C19.8633 152.813 19.63 153.04 19.47 153.327C19.3033 153.607 19.22 153.917 19.22 154.257C19.22 154.597 19.3 154.907 19.46 155.187C19.62 155.467 19.8533 155.69 20.16 155.857C20.4667 156.023 20.8267 156.107 21.24 156.107C21.66 156.107 22.0267 156.023 22.34 155.857C22.6467 155.69 22.8833 155.467 23.05 155.187C23.21 154.907 23.29 154.597 23.29 154.257C23.29 153.917 23.21 153.607 23.05 153.327C22.8833 153.04 22.6467 152.813 22.34 152.647C22.0267 152.48 21.6633 152.397 21.25 152.397ZM24.09 147.999C24.09 148.419 24.02 148.796 23.88 149.129C23.7333 149.462 23.5333 149.726 23.28 149.919C23.02 150.112 22.7233 150.219 22.39 150.239L22.39 149.299C22.6633 149.272 22.8867 149.146 23.06 148.919C23.2333 148.686 23.32 148.382 23.32 148.009C23.32 147.662 23.2433 147.389 23.09 147.189C22.9367 146.989 22.7433 146.889 22.51 146.889C22.27 146.889 22.0933 146.996 21.98 147.209C21.86 147.422 21.7433 147.752 21.63 148.199C21.5233 148.606 21.4167 148.939 21.31 149.199C21.1967 149.452 21.0333 149.672 20.82 149.859C20.6 150.039 20.3133 150.129 19.96 150.129C19.68 150.129 19.4233 150.046 19.19 149.879C18.9567 149.712 18.7733 149.476 18.64 149.169C18.5 148.862 18.43 148.512 18.43 148.119C18.43 147.512 18.5833 147.022 18.89 146.649C19.1967 146.276 19.6167 146.076 20.15 146.049L20.15 146.959C19.8633 146.979 19.6333 147.096 19.46 147.309C19.2867 147.516 19.2 147.796 19.2 148.149C19.2 148.476 19.27 148.736 19.41 148.929C19.55 149.122 19.7333 149.219 19.96 149.219C20.14 149.219 20.29 149.162 20.41 149.049C20.5233 148.929 20.6167 148.782 20.69 148.609C20.7567 148.429 20.8333 148.182 20.92 147.869C21.0267 147.476 21.1333 147.156 21.24 146.909C21.34 146.662 21.4933 146.452 21.7 146.279C21.9067 146.099 22.1767 146.006 22.51 145.999C22.81 145.999 23.08 146.082 23.32 146.249C23.56 146.416 23.75 146.652 23.89 146.959C24.0233 147.259 24.09 147.606 24.09 147.999Z" fill="white"/>
<path d="M17.7733 226.662C17.2687 227.165 16.8688 227.764 16.5966 228.422C16.3245 229.081 16.1854 229.787 16.1875 230.5L16.1875 230.519C16.1978 233.507 18.6606 235.937 21.678 235.937L22.75 235.937C22.9986 235.937 23.2371 235.839 23.4129 235.663C23.5887 235.487 23.6875 235.249 23.6875 235L23.6875 226C23.6875 225.751 23.5887 225.513 23.4129 225.337C23.2371 225.161 22.9986 225.062 22.75 225.062L21.625 225.062C20.909 225.061 20.1998 225.201 19.5386 225.476C18.8773 225.75 18.2773 226.153 17.7733 226.662ZM22.5625 226.187L22.5625 230.532L19.5156 228.355C19.4555 228.312 19.3876 228.281 19.3156 228.264C19.2436 228.247 19.169 228.245 19.096 228.257C19.0231 228.269 18.9532 228.295 18.8904 228.334C18.8276 228.373 18.7731 228.424 18.73 228.484C18.6869 228.544 18.6561 228.612 18.6392 228.684C18.6224 228.756 18.62 228.831 18.632 228.904C18.644 228.977 18.6702 229.047 18.7093 229.11C18.7483 229.172 18.7993 229.227 18.8594 229.27L22.5625 231.915L22.5625 234.812L21.678 234.812C21.5973 234.812 21.5172 234.812 21.4375 234.806L21.4375 233.875C21.4375 233.726 21.3782 233.583 21.2727 233.477C21.1673 233.372 21.0242 233.312 20.875 233.312C20.7258 233.312 20.5827 233.372 20.4772 233.477C20.3718 233.583 20.3125 233.726 20.3125 233.875L20.3125 234.596C18.7473 234.085 17.5694 232.721 17.3495 231.062L18.25 231.062C18.3992 231.062 18.5423 231.003 18.6477 230.898C18.7532 230.792 18.8125 230.649 18.8125 230.5C18.8125 230.351 18.7532 230.208 18.6477 230.102C18.5423 229.997 18.3992 229.937 18.25 229.937L17.35 229.937C17.4565 229.126 17.7915 228.362 18.3161 227.734C18.8407 227.106 19.5331 226.64 20.3125 226.391L20.3125 227.125C20.3125 227.274 20.3718 227.417 20.4772 227.523C20.5827 227.628 20.7258 227.687 20.875 227.687C21.0242 227.687 21.1673 227.628 21.2727 227.523C21.3782 227.417 21.4375 227.274 21.4375 227.125L21.4375 226.192C21.4998 226.189 21.5622 226.187 21.625 226.187L22.5625 226.187Z" fill="white"/>
<path d="M46.504 41.6V39.794H49.878V50H47.862V41.6H46.504ZM61.8523 40.228V50H59.8923V43.644L57.2743 50H55.7903L53.1583 43.644V50H51.1983V40.228H53.4243L56.5323 47.494L59.6403 40.228H61.8523ZM67.2481 42.132C68.1721 42.132 68.9187 42.426 69.4881 43.014C70.0574 43.5927 70.3421 44.4047 70.3421 45.45V50H68.3821V45.716C68.3821 45.1 68.2281 44.6287 67.9201 44.302C67.6121 43.966 67.1921 43.798 66.6601 43.798C66.1187 43.798 65.6894 43.966 65.3721 44.302C65.0641 44.6287 64.9101 45.1 64.9101 45.716V50H62.9501V42.244H64.9101V43.21C65.1714 42.874 65.5027 42.6127 65.9041 42.426C66.3147 42.23 66.7627 42.132 67.2481 42.132Z" fill="white"/>
<path d="M53.602 195.488H49.066V197.882C49.262 197.639 49.542 197.443 49.906 197.294C50.27 197.135 50.6573 197.056 51.068 197.056C51.8147 197.056 52.426 197.219 52.902 197.546C53.378 197.873 53.7233 198.293 53.938 198.806C54.1527 199.31 54.26 199.851 54.26 200.43C54.26 201.503 53.952 202.367 53.336 203.02C52.7293 203.673 51.8613 204 50.732 204C49.668 204 48.8187 203.734 48.184 203.202C47.5493 202.67 47.19 201.975 47.106 201.116H49.01C49.094 201.489 49.2807 201.788 49.57 202.012C49.8687 202.236 50.2467 202.348 50.704 202.348C51.2547 202.348 51.67 202.175 51.95 201.83C52.23 201.485 52.37 201.027 52.37 200.458C52.37 199.879 52.2253 199.441 51.936 199.142C51.656 198.834 51.2407 198.68 50.69 198.68C50.298 198.68 49.9713 198.778 49.71 198.974C49.4487 199.17 49.262 199.431 49.15 199.758H47.274V193.766H53.602V195.488ZM54.9118 198.764C54.9118 197.149 55.2011 195.885 55.7798 194.97C56.3678 194.055 57.3384 193.598 58.6918 193.598C60.0451 193.598 61.0111 194.055 61.5898 194.97C62.1778 195.885 62.4718 197.149 62.4718 198.764C62.4718 200.388 62.1778 201.662 61.5898 202.586C61.0111 203.51 60.0451 203.972 58.6918 203.972C57.3384 203.972 56.3678 203.51 55.7798 202.586C55.2011 201.662 54.9118 200.388 54.9118 198.764ZM60.5398 198.764C60.5398 198.073 60.4931 197.495 60.3998 197.028C60.3158 196.552 60.1384 196.165 59.8678 195.866C59.6064 195.567 59.2144 195.418 58.6918 195.418C58.1691 195.418 57.7724 195.567 57.5018 195.866C57.2404 196.165 57.0631 196.552 56.9698 197.028C56.8858 197.495 56.8438 198.073 56.8438 198.764C56.8438 199.473 56.8858 200.071 56.9698 200.556C57.0538 201.032 57.2311 201.419 57.5018 201.718C57.7724 202.007 58.1691 202.152 58.6918 202.152C59.2144 202.152 59.6111 202.007 59.8818 201.718C60.1524 201.419 60.3298 201.032 60.4138 200.556C60.4978 200.071 60.5398 199.473 60.5398 198.764ZM63.1225 198.764C63.1225 197.149 63.4119 195.885 63.9905 194.97C64.5785 194.055 65.5492 193.598 66.9025 193.598C68.2559 193.598 69.2219 194.055 69.8005 194.97C70.3885 195.885 70.6825 197.149 70.6825 198.764C70.6825 200.388 70.3885 201.662 69.8005 202.586C69.2219 203.51 68.2559 203.972 66.9025 203.972C65.5492 203.972 64.5785 203.51 63.9905 202.586C63.4119 201.662 63.1225 200.388 63.1225 198.764ZM68.7505 198.764C68.7505 198.073 68.7039 197.495 68.6105 197.028C68.5265 196.552 68.3492 196.165 68.0785 195.866C67.8172 195.567 67.4252 195.418 66.9025 195.418C66.3799 195.418 65.9832 195.567 65.7125 195.866C65.4512 196.165 65.2739 196.552 65.1805 197.028C65.0965 197.495 65.0545 198.073 65.0545 198.764C65.0545 199.473 65.0965 200.071 65.1805 200.556C65.2645 201.032 65.4419 201.419 65.7125 201.718C65.9832 202.007 66.3799 202.152 66.9025 202.152C67.4252 202.152 67.8219 202.007 68.0925 201.718C68.3632 201.419 68.5405 201.032 68.6245 200.556C68.7085 200.071 68.7505 199.473 68.7505 198.764ZM77.0733 204L73.5173 199.646V204H71.5573V194.228H73.5173V198.61L77.0733 194.228H79.4393L75.4073 199.072L79.5513 204H77.0733Z" fill="white"/>
<path d="M53.238 121.278L49.514 130H47.526L51.278 121.502H46.49V119.822H53.238V121.278ZM60.4319 121.488H55.8959V123.882C56.0919 123.639 56.3719 123.443 56.7359 123.294C57.0999 123.135 57.4873 123.056 57.8979 123.056C58.6446 123.056 59.2559 123.219 59.7319 123.546C60.2079 123.873 60.5533 124.293 60.7679 124.806C60.9826 125.31 61.0899 125.851 61.0899 126.43C61.0899 127.503 60.7819 128.367 60.1659 129.02C59.5593 129.673 58.6913 130 57.5619 130C56.4979 130 55.6486 129.734 55.0139 129.202C54.3793 128.67 54.0199 127.975 53.9359 127.116H55.8399C55.9239 127.489 56.1106 127.788 56.3999 128.012C56.6986 128.236 57.0766 128.348 57.5339 128.348C58.0846 128.348 58.4999 128.175 58.7799 127.83C59.0599 127.485 59.1999 127.027 59.1999 126.458C59.1999 125.879 59.0553 125.441 58.7659 125.142C58.4859 124.834 58.0706 124.68 57.5199 124.68C57.1279 124.68 56.8013 124.778 56.5399 124.974C56.2786 125.17 56.0919 125.431 55.9799 125.758H54.1039V119.766H60.4319V121.488ZM61.7417 124.764C61.7417 123.149 62.031 121.885 62.6097 120.97C63.1977 120.055 64.1684 119.598 65.5217 119.598C66.875 119.598 67.841 120.055 68.4197 120.97C69.0077 121.885 69.3017 123.149 69.3017 124.764C69.3017 126.388 69.0077 127.662 68.4197 128.586C67.841 129.51 66.875 129.972 65.5217 129.972C64.1684 129.972 63.1977 129.51 62.6097 128.586C62.031 127.662 61.7417 126.388 61.7417 124.764ZM67.3697 124.764C67.3697 124.073 67.323 123.495 67.2297 123.028C67.1457 122.552 66.9684 122.165 66.6977 121.866C66.4364 121.567 66.0444 121.418 65.5217 121.418C64.999 121.418 64.6024 121.567 64.3317 121.866C64.0704 122.165 63.893 122.552 63.7997 123.028C63.7157 123.495 63.6737 124.073 63.6737 124.764C63.6737 125.473 63.7157 126.071 63.7997 126.556C63.8837 127.032 64.061 127.419 64.3317 127.718C64.6024 128.007 64.999 128.152 65.5217 128.152C66.0444 128.152 66.441 128.007 66.7117 127.718C66.9824 127.419 67.1597 127.032 67.2437 126.556C67.3277 126.071 67.3697 125.473 67.3697 124.764ZM75.6925 130L72.1365 125.646V130H70.1765V120.228H72.1365V124.61L75.6925 120.228H78.0585L74.0265 125.072L78.1705 130H75.6925Z" fill="white"/>
<path d="M47.358 288.788C48.254 288.041 48.968 287.421 49.5 286.926C50.032 286.422 50.4753 285.899 50.83 285.358C51.1847 284.817 51.362 284.285 51.362 283.762C51.362 283.286 51.25 282.913 51.026 282.642C50.802 282.371 50.4567 282.236 49.99 282.236C49.5233 282.236 49.164 282.395 48.912 282.712C48.66 283.02 48.5293 283.445 48.52 283.986H46.616C46.6533 282.866 46.9847 282.017 47.61 281.438C48.2447 280.859 49.0473 280.57 50.018 280.57C51.082 280.57 51.8987 280.855 52.468 281.424C53.0373 281.984 53.322 282.726 53.322 283.65C53.322 284.378 53.126 285.073 52.734 285.736C52.342 286.399 51.894 286.977 51.39 287.472C50.886 287.957 50.228 288.545 49.416 289.236H53.546V290.86H46.63V289.404L47.358 288.788ZM60.8011 282.488H56.2651V284.882C56.4611 284.639 56.7411 284.443 57.1051 284.294C57.4691 284.135 57.8564 284.056 58.2671 284.056C59.0137 284.056 59.6251 284.219 60.1011 284.546C60.5771 284.873 60.9224 285.293 61.1371 285.806C61.3517 286.31 61.4591 286.851 61.4591 287.43C61.4591 288.503 61.1511 289.367 60.5351 290.02C59.9284 290.673 59.0604 291 57.9311 291C56.8671 291 56.0177 290.734 55.3831 290.202C54.7484 289.67 54.3891 288.975 54.3051 288.116H56.2091C56.2931 288.489 56.4797 288.788 56.7691 289.012C57.0677 289.236 57.4457 289.348 57.9031 289.348C58.4537 289.348 58.8691 289.175 59.1491 288.83C59.4291 288.485 59.5691 288.027 59.5691 287.458C59.5691 286.879 59.4244 286.441 59.1351 286.142C58.8551 285.834 58.4397 285.68 57.8891 285.68C57.4971 285.68 57.1704 285.778 56.9091 285.974C56.6477 286.17 56.4611 286.431 56.3491 286.758H54.4731V280.766H60.8011V282.488ZM62.1108 285.764C62.1108 284.149 62.4002 282.885 62.9788 281.97C63.5668 281.055 64.5375 280.598 65.8908 280.598C67.2442 280.598 68.2102 281.055 68.7888 281.97C69.3768 282.885 69.6708 284.149 69.6708 285.764C69.6708 287.388 69.3768 288.662 68.7888 289.586C68.2102 290.51 67.2442 290.972 65.8908 290.972C64.5375 290.972 63.5668 290.51 62.9788 289.586C62.4002 288.662 62.1108 287.388 62.1108 285.764ZM67.7388 285.764C67.7388 285.073 67.6922 284.495 67.5988 284.028C67.5148 283.552 67.3375 283.165 67.0668 282.866C66.8055 282.567 66.4135 282.418 65.8908 282.418C65.3682 282.418 64.9715 282.567 64.7008 282.866C64.4395 283.165 64.2622 283.552 64.1688 284.028C64.0848 284.495 64.0428 285.073 64.0428 285.764C64.0428 286.473 64.0848 287.071 64.1688 287.556C64.2528 288.032 64.4302 288.419 64.7008 288.718C64.9715 289.007 65.3682 289.152 65.8908 289.152C66.4135 289.152 66.8102 289.007 67.0808 288.718C67.3515 288.419 67.5288 288.032 67.6128 287.556C67.6968 287.071 67.7388 286.473 67.7388 285.764ZM76.0616 291L72.5056 286.646V291H70.5456V281.228H72.5056V285.61L76.0616 281.228H78.4276L74.3956 286.072L78.5396 291H76.0616Z" fill="white"/>
<path d="M255.06 355.03V355.77H253.16V362H252.25V355.77H250.34V355.03H255.06ZM256.65 355.63C256.477 355.63 256.33 355.57 256.21 355.45C256.09 355.33 256.03 355.183 256.03 355.01C256.03 354.837 256.09 354.69 256.21 354.57C256.33 354.45 256.477 354.39 256.65 354.39C256.817 354.39 256.957 354.45 257.07 354.57C257.19 354.69 257.25 354.837 257.25 355.01C257.25 355.183 257.19 355.33 257.07 355.45C256.957 355.57 256.817 355.63 256.65 355.63ZM257.09 356.52V362H256.18V356.52H257.09ZM265.231 356.42C265.658 356.42 266.038 356.51 266.371 356.69C266.704 356.863 266.968 357.127 267.161 357.48C267.354 357.833 267.451 358.263 267.451 358.77V362H266.551V358.9C266.551 358.353 266.414 357.937 266.141 357.65C265.874 357.357 265.511 357.21 265.051 357.21C264.578 357.21 264.201 357.363 263.921 357.67C263.641 357.97 263.501 358.407 263.501 358.98V362H262.601V358.9C262.601 358.353 262.464 357.937 262.191 357.65C261.924 357.357 261.561 357.21 261.101 357.21C260.628 357.21 260.251 357.363 259.971 357.67C259.691 357.97 259.551 358.407 259.551 358.98V362H258.641V356.52H259.551V357.31C259.731 357.023 259.971 356.803 260.271 356.65C260.578 356.497 260.914 356.42 261.281 356.42C261.741 356.42 262.148 356.523 262.501 356.73C262.854 356.937 263.118 357.24 263.291 357.64C263.444 357.253 263.698 356.953 264.051 356.74C264.404 356.527 264.798 356.42 265.231 356.42ZM273.944 359.05C273.944 359.223 273.934 359.407 273.914 359.6H269.534C269.567 360.14 269.75 360.563 270.084 360.87C270.424 361.17 270.834 361.32 271.314 361.32C271.707 361.32 272.034 361.23 272.294 361.05C272.56 360.863 272.747 360.617 272.854 360.31H273.834C273.687 360.837 273.394 361.267 272.954 361.6C272.514 361.927 271.967 362.09 271.314 362.09C270.794 362.09 270.327 361.973 269.914 361.74C269.507 361.507 269.187 361.177 268.954 360.75C268.72 360.317 268.604 359.817 268.604 359.25C268.604 358.683 268.717 358.187 268.944 357.76C269.17 357.333 269.487 357.007 269.894 356.78C270.307 356.547 270.78 356.43 271.314 356.43C271.834 356.43 272.294 356.543 272.694 356.77C273.094 356.997 273.4 357.31 273.614 357.71C273.834 358.103 273.944 358.55 273.944 359.05ZM273.004 358.86C273.004 358.513 272.927 358.217 272.774 357.97C272.62 357.717 272.41 357.527 272.144 357.4C271.884 357.267 271.594 357.2 271.274 357.2C270.814 357.2 270.42 357.347 270.094 357.64C269.774 357.933 269.59 358.34 269.544 358.86H273.004ZM282.101 355.03V355.77H280.201V362H279.291V355.77H277.381V355.03H282.101ZM282.881 359.24C282.881 358.68 282.995 358.19 283.221 357.77C283.448 357.343 283.758 357.013 284.151 356.78C284.551 356.547 284.995 356.43 285.481 356.43C285.961 356.43 286.378 356.533 286.731 356.74C287.085 356.947 287.348 357.207 287.521 357.52V356.52H288.441V362H287.521V360.98C287.341 361.3 287.071 361.567 286.711 361.78C286.358 361.987 285.945 362.09 285.471 362.09C284.985 362.09 284.545 361.97 284.151 361.73C283.758 361.49 283.448 361.153 283.221 360.72C282.995 360.287 282.881 359.793 282.881 359.24ZM287.521 359.25C287.521 358.837 287.438 358.477 287.271 358.17C287.105 357.863 286.878 357.63 286.591 357.47C286.311 357.303 286.001 357.22 285.661 357.22C285.321 357.22 285.011 357.3 284.731 357.46C284.451 357.62 284.228 357.853 284.061 358.16C283.895 358.467 283.811 358.827 283.811 359.24C283.811 359.66 283.895 360.027 284.061 360.34C284.228 360.647 284.451 360.883 284.731 361.05C285.011 361.21 285.321 361.29 285.661 361.29C286.001 361.29 286.311 361.21 286.591 361.05C286.878 360.883 287.105 360.647 287.271 360.34C287.438 360.027 287.521 359.663 287.521 359.25ZM293.039 362L290.889 359.58V362H289.979V354.6H290.889V358.95L292.999 356.52H294.269L291.689 359.25L294.279 362H293.039ZM300.125 359.05C300.125 359.223 300.115 359.407 300.095 359.6H295.715C295.749 360.14 295.932 360.563 296.265 360.87C296.605 361.17 297.015 361.32 297.495 361.32C297.889 361.32 298.215 361.23 298.475 361.05C298.742 360.863 298.929 360.617 299.035 360.31H300.015C299.869 360.837 299.575 361.267 299.135 361.6C298.695 361.927 298.149 362.09 297.495 362.09C296.975 362.09 296.509 361.973 296.095 361.74C295.689 361.507 295.369 361.177 295.135 360.75C294.902 360.317 294.785 359.817 294.785 359.25C294.785 358.683 294.899 358.187 295.125 357.76C295.352 357.333 295.669 357.007 296.075 356.78C296.489 356.547 296.962 356.43 297.495 356.43C298.015 356.43 298.475 356.543 298.875 356.77C299.275 356.997 299.582 357.31 299.795 357.71C300.015 358.103 300.125 358.55 300.125 359.05ZM299.185 358.86C299.185 358.513 299.109 358.217 298.955 357.97C298.802 357.717 298.592 357.527 298.325 357.4C298.065 357.267 297.775 357.2 297.455 357.2C296.995 357.2 296.602 357.347 296.275 357.64C295.955 357.933 295.772 358.34 295.725 358.86H299.185ZM303.997 356.42C304.663 356.42 305.203 356.623 305.617 357.03C306.03 357.43 306.237 358.01 306.237 358.77V362H305.337V358.9C305.337 358.353 305.2 357.937 304.927 357.65C304.653 357.357 304.28 357.21 303.807 357.21C303.327 357.21 302.943 357.36 302.657 357.66C302.377 357.96 302.237 358.397 302.237 358.97V362H301.327V356.52H302.237V357.3C302.417 357.02 302.66 356.803 302.967 356.65C303.28 356.497 303.623 356.42 303.997 356.42Z" fill="white"/>
<path d="M239.838 355.773C239.335 355.269 238.736 354.869 238.078 354.597C237.419 354.324 236.713 354.185 236 354.188H235.981C232.993 354.198 230.562 356.661 230.562 359.678V360.75C230.562 360.999 230.661 361.237 230.837 361.413C231.013 361.589 231.251 361.688 231.5 361.688H240.5C240.749 361.688 240.987 361.589 241.163 361.413C241.339 361.237 241.438 360.999 241.438 360.75V359.625C241.439 358.909 241.299 358.2 241.024 357.539C240.75 356.877 240.347 356.277 239.838 355.773ZM240.312 360.563H235.968L238.145 357.516C238.188 357.456 238.219 357.388 238.236 357.316C238.253 357.244 238.255 357.169 238.243 357.096C238.231 357.023 238.205 356.953 238.166 356.89C238.127 356.828 238.076 356.773 238.016 356.73C237.956 356.687 237.888 356.656 237.816 356.639C237.744 356.622 237.669 356.62 237.596 356.632C237.523 356.644 237.453 356.67 237.39 356.709C237.328 356.748 237.273 356.799 237.23 356.859L234.585 360.563H231.688V359.678C231.688 359.597 231.688 359.517 231.694 359.438H232.625C232.774 359.438 232.917 359.378 233.023 359.273C233.128 359.167 233.188 359.024 233.188 358.875C233.188 358.726 233.128 358.583 233.023 358.477C232.917 358.372 232.774 358.313 232.625 358.313H231.904C232.415 356.747 233.779 355.569 235.438 355.35V356.25C235.438 356.399 235.497 356.542 235.602 356.648C235.708 356.753 235.851 356.813 236 356.813C236.149 356.813 236.292 356.753 236.398 356.648C236.503 356.542 236.562 356.399 236.562 356.25V355.35C237.374 355.456 238.138 355.792 238.766 356.316C239.394 356.841 239.86 357.533 240.109 358.313H239.375C239.226 358.313 239.083 358.372 238.977 358.477C238.872 358.583 238.812 358.726 238.812 358.875C238.812 359.024 238.872 359.167 238.977 359.273C239.083 359.378 239.226 359.438 239.375 359.438H240.308C240.311 359.5 240.312 359.562 240.312 359.625V360.563Z" fill="white"/>
<g filter="url(#filter0_f_1_1116)">
<path d="M80 298C133.5 298 160.1 263.4 158.5 37" stroke="url(#paint1_linear_1_1116)" stroke-width="3"/>
</g>
<path d="M80 298C133.5 298 160.1 263.4 158.5 37" stroke="url(#paint2_linear_1_1116)" stroke-width="2"/>
<path d="M81.5 298.5C159.5 290.5 315.5 246.3 315.5 37.5" stroke="url(#paint3_linear_1_1116)" stroke-width="2"/>
<path d="M79.5 298C221.833 293.5 506.5 261.5 506.5 41.5" stroke="url(#paint4_linear_1_1116)" stroke-width="2"/>
<path d="M64 298C223.603 298 448 261.571 448 42" stroke="url(#paint5_linear_1_1116)" stroke-width="2"/>
<path d="M429.94 19.03C430.7 19.03 431.357 19.1733 431.91 19.46C432.47 19.74 432.897 20.1433 433.19 20.67C433.49 21.1967 433.64 21.8167 433.64 22.53C433.64 23.2433 433.49 23.8633 433.19 24.39C432.897 24.91 432.47 25.31 431.91 25.59C431.357 25.8633 430.7 26 429.94 26H427.77V19.03H429.94ZM429.94 25.25C430.84 25.25 431.527 25.0133 432 24.54C432.473 24.06 432.71 23.39 432.71 22.53C432.71 21.6633 432.47 20.9867 431.99 20.5C431.517 20.0133 430.833 19.77 429.94 19.77H428.68V25.25H429.94ZM439.84 23.05C439.84 23.2233 439.83 23.4067 439.81 23.6H435.43C435.464 24.14 435.647 24.5633 435.98 24.87C436.32 25.17 436.73 25.32 437.21 25.32C437.604 25.32 437.93 25.23 438.19 25.05C438.457 24.8633 438.644 24.6167 438.75 24.31H439.73C439.584 24.8367 439.29 25.2667 438.85 25.6C438.41 25.9267 437.864 26.09 437.21 26.09C436.69 26.09 436.224 25.9733 435.81 25.74C435.404 25.5067 435.084 25.1767 434.85 24.75C434.617 24.3167 434.5 23.8167 434.5 23.25C434.5 22.6833 434.614 22.1867 434.84 21.76C435.067 21.3333 435.384 21.0067 435.79 20.78C436.204 20.5467 436.677 20.43 437.21 20.43C437.73 20.43 438.19 20.5433 438.59 20.77C438.99 20.9967 439.297 21.31 439.51 21.71C439.73 22.1033 439.84 22.55 439.84 23.05ZM438.9 22.86C438.9 22.5133 438.824 22.2167 438.67 21.97C438.517 21.7167 438.307 21.5267 438.04 21.4C437.78 21.2667 437.49 21.2 437.17 21.2C436.71 21.2 436.317 21.3467 435.99 21.64C435.67 21.9333 435.487 22.34 435.44 22.86H438.9ZM441.951 21.54C442.138 21.2133 442.411 20.9467 442.771 20.74C443.131 20.5333 443.541 20.43 444.001 20.43C444.495 20.43 444.938 20.5467 445.331 20.78C445.725 21.0133 446.035 21.3433 446.261 21.77C446.488 22.19 446.601 22.68 446.601 23.24C446.601 23.7933 446.488 24.2867 446.261 24.72C446.035 25.1533 445.721 25.49 445.321 25.73C444.928 25.97 444.488 26.09 444.001 26.09C443.528 26.09 443.111 25.9867 442.751 25.78C442.398 25.5733 442.131 25.31 441.951 24.99V26H441.041V18.6H441.951V21.54ZM445.671 23.24C445.671 22.8267 445.588 22.4667 445.421 22.16C445.255 21.8533 445.028 21.62 444.741 21.46C444.461 21.3 444.151 21.22 443.811 21.22C443.478 21.22 443.168 21.3033 442.881 21.47C442.601 21.63 442.375 21.8667 442.201 22.18C442.035 22.4867 441.951 22.8433 441.951 23.25C441.951 23.6633 442.035 24.0267 442.201 24.34C442.375 24.6467 442.601 24.8833 442.881 25.05C443.168 25.21 443.478 25.29 443.811 25.29C444.151 25.29 444.461 25.21 444.741 25.05C445.028 24.8833 445.255 24.6467 445.421 24.34C445.588 24.0267 445.671 23.66 445.671 23.24ZM452.799 23.05C452.799 23.2233 452.789 23.4067 452.769 23.6H448.389C448.423 24.14 448.606 24.5633 448.939 24.87C449.279 25.17 449.689 25.32 450.169 25.32C450.563 25.32 450.889 25.23 451.149 25.05C451.416 24.8633 451.603 24.6167 451.709 24.31H452.689C452.543 24.8367 452.249 25.2667 451.809 25.6C451.369 25.9267 450.823 26.09 450.169 26.09C449.649 26.09 449.183 25.9733 448.769 25.74C448.363 25.5067 448.043 25.1767 447.809 24.75C447.576 24.3167 447.459 23.8167 447.459 23.25C447.459 22.6833 447.573 22.1867 447.799 21.76C448.026 21.3333 448.343 21.0067 448.749 20.78C449.163 20.5467 449.636 20.43 450.169 20.43C450.689 20.43 451.149 20.5433 451.549 20.77C451.949 20.9967 452.256 21.31 452.469 21.71C452.689 22.1033 452.799 22.55 452.799 23.05ZM451.859 22.86C451.859 22.5133 451.783 22.2167 451.629 21.97C451.476 21.7167 451.266 21.5267 450.999 21.4C450.739 21.2667 450.449 21.2 450.129 21.2C449.669 21.2 449.276 21.3467 448.949 21.64C448.629 21.9333 448.446 22.34 448.399 22.86H451.859ZM454.68 25.25H457.37V26H453.64V25.25L456.3 21.26H453.66V20.52H457.35V21.26L454.68 25.25ZM459.021 19.63C458.848 19.63 458.701 19.57 458.581 19.45C458.461 19.33 458.401 19.1833 458.401 19.01C458.401 18.8367 458.461 18.69 458.581 18.57C458.701 18.45 458.848 18.39 459.021 18.39C459.188 18.39 459.328 18.45 459.441 18.57C459.561 18.69 459.621 18.8367 459.621 19.01C459.621 19.1833 459.561 19.33 459.441 19.45C459.328 19.57 459.188 19.63 459.021 19.63ZM459.461 20.52V26H458.551V20.52H459.461ZM465.872 20.52V26H464.962V25.19C464.789 25.47 464.546 25.69 464.232 25.85C463.926 26.0033 463.586 26.08 463.212 26.08C462.786 26.08 462.402 25.9933 462.062 25.82C461.722 25.64 461.452 25.3733 461.252 25.02C461.059 24.6667 460.962 24.2367 460.962 23.73V20.52H461.862V23.61C461.862 24.15 461.999 24.5667 462.272 24.86C462.546 25.1467 462.919 25.29 463.392 25.29C463.879 25.29 464.262 25.14 464.542 24.84C464.822 24.54 464.962 24.1033 464.962 23.53V20.52H465.872ZM473.999 20.42C474.425 20.42 474.805 20.51 475.139 20.69C475.472 20.8633 475.735 21.1267 475.929 21.48C476.122 21.8333 476.219 22.2633 476.219 22.77V26H475.319V22.9C475.319 22.3533 475.182 21.9367 474.909 21.65C474.642 21.3567 474.279 21.21 473.819 21.21C473.345 21.21 472.969 21.3633 472.689 21.67C472.409 21.97 472.269 22.4067 472.269 22.98V26H471.369V22.9C471.369 22.3533 471.232 21.9367 470.959 21.65C470.692 21.3567 470.329 21.21 469.869 21.21C469.395 21.21 469.019 21.3633 468.739 21.67C468.459 21.97 468.319 22.4067 468.319 22.98V26H467.409V20.52H468.319V21.31C468.499 21.0233 468.739 20.8033 469.039 20.65C469.345 20.4967 469.682 20.42 470.049 20.42C470.509 20.42 470.915 20.5233 471.269 20.73C471.622 20.9367 471.885 21.24 472.059 21.64C472.212 21.2533 472.465 20.9533 472.819 20.74C473.172 20.5267 473.565 20.42 473.999 20.42Z" fill="white"/>
<path d="M299.71 19.03V19.77H296.68V22.12H299.14V22.86H296.68V26H295.77V19.03H299.71ZM301.279 19.63C301.106 19.63 300.959 19.57 300.839 19.45C300.719 19.33 300.659 19.1833 300.659 19.01C300.659 18.8367 300.719 18.69 300.839 18.57C300.959 18.45 301.106 18.39 301.279 18.39C301.446 18.39 301.586 18.45 301.699 18.57C301.819 18.69 301.879 18.8367 301.879 19.01C301.879 19.1833 301.819 19.33 301.699 19.45C301.586 19.57 301.446 19.63 301.279 19.63ZM301.719 20.52V26H300.809V20.52H301.719ZM305.31 25.16L307.01 20.52H307.98L305.83 26H304.77L302.62 20.52H303.6L305.31 25.16ZM313.875 23.05C313.875 23.2233 313.865 23.4067 313.845 23.6H309.465C309.499 24.14 309.682 24.5633 310.015 24.87C310.355 25.17 310.765 25.32 311.245 25.32C311.639 25.32 311.965 25.23 312.225 25.05C312.492 24.8633 312.679 24.6167 312.785 24.31H313.765C313.619 24.8367 313.325 25.2667 312.885 25.6C312.445 25.9267 311.899 26.09 311.245 26.09C310.725 26.09 310.259 25.9733 309.845 25.74C309.439 25.5067 309.119 25.1767 308.885 24.75C308.652 24.3167 308.535 23.8167 308.535 23.25C308.535 22.6833 308.649 22.1867 308.875 21.76C309.102 21.3333 309.419 21.0067 309.825 20.78C310.239 20.5467 310.712 20.43 311.245 20.43C311.765 20.43 312.225 20.5433 312.625 20.77C313.025 20.9967 313.332 21.31 313.545 21.71C313.765 22.1033 313.875 22.55 313.875 23.05ZM312.935 22.86C312.935 22.5133 312.859 22.2167 312.705 21.97C312.552 21.7167 312.342 21.5267 312.075 21.4C311.815 21.2667 311.525 21.2 311.205 21.2C310.745 21.2 310.352 21.3467 310.025 21.64C309.705 21.9333 309.522 22.34 309.475 22.86H312.935ZM316.187 21.27V24.5C316.187 24.7667 316.243 24.9567 316.357 25.07C316.47 25.1767 316.667 25.23 316.947 25.23H317.617V26H316.797C316.29 26 315.91 25.8833 315.657 25.65C315.403 25.4167 315.277 25.0333 315.277 24.5V21.27H314.567V20.52H315.277V19.14H316.187V20.52H317.617V21.27H316.187ZM319.629 21.41C319.789 21.0967 320.016 20.8533 320.309 20.68C320.609 20.5067 320.973 20.42 321.399 20.42V21.36H321.159C320.139 21.36 319.629 21.9133 319.629 23.02V26H318.719V20.52H319.629V21.41ZM322.11 23.24C322.11 22.68 322.223 22.19 322.45 21.77C322.676 21.3433 322.986 21.0133 323.38 20.78C323.78 20.5467 324.223 20.43 324.71 20.43C325.19 20.43 325.606 20.5333 325.96 20.74C326.313 20.9467 326.576 21.2067 326.75 21.52V20.52H327.67V26H326.75V24.98C326.57 25.3 326.3 25.5667 325.94 25.78C325.586 25.9867 325.173 26.09 324.7 26.09C324.213 26.09 323.773 25.97 323.38 25.73C322.986 25.49 322.676 25.1533 322.45 24.72C322.223 24.2867 322.11 23.7933 322.11 23.24ZM326.75 23.25C326.75 22.8367 326.666 22.4767 326.5 22.17C326.333 21.8633 326.106 21.63 325.82 21.47C325.54 21.3033 325.23 21.22 324.89 21.22C324.55 21.22 324.24 21.3 323.96 21.46C323.68 21.62 323.456 21.8533 323.29 22.16C323.123 22.4667 323.04 22.8267 323.04 23.24C323.04 23.66 323.123 24.0267 323.29 24.34C323.456 24.6467 323.68 24.8833 323.96 25.05C324.24 25.21 324.55 25.29 324.89 25.29C325.23 25.29 325.54 25.21 325.82 25.05C326.106 24.8833 326.333 24.6467 326.5 24.34C326.666 24.0267 326.75 23.6633 326.75 23.25ZM331.878 20.42C332.544 20.42 333.084 20.6233 333.498 21.03C333.911 21.43 334.118 22.01 334.118 22.77V26H333.218V22.9C333.218 22.3533 333.081 21.9367 332.808 21.65C332.534 21.3567 332.161 21.21 331.688 21.21C331.208 21.21 330.824 21.36 330.538 21.66C330.258 21.96 330.118 22.3967 330.118 22.97V26H329.208V20.52H330.118V21.3C330.298 21.02 330.541 20.8033 330.848 20.65C331.161 20.4967 331.504 20.42 331.878 20.42Z" fill="white"/>
<path d="M146.716 23.084C145.94 23.084 145.232 22.904 144.592 22.544C143.952 22.176 143.444 21.668 143.068 21.02C142.7 20.364 142.516 19.628 142.516 18.812C142.516 17.996 142.7 17.264 143.068 16.616C143.444 15.96 143.952 15.452 144.592 15.092C145.232 14.724 145.94 14.54 146.716 14.54C147.5 14.54 148.212 14.724 148.852 15.092C149.492 15.452 149.996 15.956 150.364 16.604C150.732 17.252 150.916 17.988 150.916 18.812C150.916 19.636 150.732 20.372 150.364 21.02C149.996 21.668 149.492 22.176 148.852 22.544C148.212 22.904 147.5 23.084 146.716 23.084ZM146.716 22.136C147.3 22.136 147.824 22 148.288 21.728C148.76 21.456 149.128 21.068 149.392 20.564C149.664 20.06 149.8 19.476 149.8 18.812C149.8 18.14 149.664 17.556 149.392 17.06C149.128 16.556 148.764 16.168 148.3 15.896C147.836 15.624 147.308 15.488 146.716 15.488C146.124 15.488 145.596 15.624 145.132 15.896C144.668 16.168 144.3 16.556 144.028 17.06C143.764 17.556 143.632 18.14 143.632 18.812C143.632 19.476 143.764 20.06 144.028 20.564C144.3 21.068 144.668 21.456 145.132 21.728C145.604 22 146.132 22.136 146.716 22.136ZM153.45 22.112H156.378V23H152.358V14.636H153.45V22.112ZM157.129 19.688C157.129 19.016 157.265 18.428 157.537 17.924C157.809 17.412 158.181 17.016 158.653 16.736C159.133 16.456 159.665 16.316 160.249 16.316C160.825 16.316 161.325 16.44 161.749 16.688C162.173 16.936 162.489 17.248 162.697 17.624V16.424H163.801V23H162.697V21.776C162.481 22.16 162.157 22.48 161.725 22.736C161.301 22.984 160.805 23.108 160.237 23.108C159.653 23.108 159.125 22.964 158.653 22.676C158.181 22.388 157.809 21.984 157.537 21.464C157.265 20.944 157.129 20.352 157.129 19.688ZM162.697 19.7C162.697 19.204 162.597 18.772 162.397 18.404C162.197 18.036 161.925 17.756 161.581 17.564C161.245 17.364 160.873 17.264 160.465 17.264C160.057 17.264 159.685 17.36 159.349 17.552C159.013 17.744 158.745 18.024 158.545 18.392C158.345 18.76 158.245 19.192 158.245 19.688C158.245 20.192 158.345 20.632 158.545 21.008C158.745 21.376 159.013 21.66 159.349 21.86C159.685 22.052 160.057 22.148 160.465 22.148C160.873 22.148 161.245 22.052 161.581 21.86C161.925 21.66 162.197 21.376 162.397 21.008C162.597 20.632 162.697 20.196 162.697 19.7ZM169.319 23L166.739 20.096V23H165.647V14.12H166.739V19.34L169.271 16.424H170.795L167.699 19.7L170.807 23H169.319ZM177.822 19.46C177.822 19.668 177.81 19.888 177.786 20.12H172.53C172.57 20.768 172.79 21.276 173.19 21.644C173.598 22.004 174.09 22.184 174.666 22.184C175.138 22.184 175.53 22.076 175.842 21.86C176.162 21.636 176.386 21.34 176.514 20.972H177.69C177.514 21.604 177.162 22.12 176.634 22.52C176.106 22.912 175.45 23.108 174.666 23.108C174.042 23.108 173.482 22.968 172.986 22.688C172.498 22.408 172.114 22.012 171.834 21.5C171.554 20.98 171.414 20.38 171.414 19.7C171.414 19.02 171.55 18.424 171.822 17.912C172.094 17.4 172.474 17.008 172.962 16.736C173.458 16.456 174.026 16.316 174.666 16.316C175.29 16.316 175.842 16.452 176.322 16.724C176.802 16.996 177.17 17.372 177.426 17.852C177.69 18.324 177.822 18.86 177.822 19.46ZM176.694 19.232C176.694 18.816 176.602 18.46 176.418 18.164C176.234 17.86 175.982 17.632 175.662 17.48C175.35 17.32 175.002 17.24 174.618 17.24C174.066 17.24 173.594 17.416 173.202 17.768C172.818 18.12 172.598 18.608 172.542 19.232H176.694Z" fill="white"/>
<path d="M491.89 24.45H488.85L488.29 26H487.33L489.85 19.07H490.9L493.41 26H492.45L491.89 24.45ZM491.63 23.71L490.37 20.19L489.11 23.71H491.63ZM494.978 19.63C494.805 19.63 494.658 19.57 494.538 19.45C494.418 19.33 494.358 19.1833 494.358 19.01C494.358 18.8367 494.418 18.69 494.538 18.57C494.658 18.45 494.805 18.39 494.978 18.39C495.145 18.39 495.285 18.45 495.398 18.57C495.518 18.69 495.578 18.8367 495.578 19.01C495.578 19.1833 495.518 19.33 495.398 19.45C495.285 19.57 495.145 19.63 494.978 19.63ZM495.418 20.52V26H494.508V20.52H495.418ZM497.879 21.41C498.039 21.0967 498.266 20.8533 498.559 20.68C498.859 20.5067 499.223 20.42 499.649 20.42V21.36H499.409C498.389 21.36 497.879 21.9133 497.879 23.02V26H496.969V20.52H497.879V21.41ZM501.61 21.54C501.796 21.2133 502.07 20.9467 502.43 20.74C502.79 20.5333 503.2 20.43 503.66 20.43C504.153 20.43 504.596 20.5467 504.99 20.78C505.383 21.0133 505.693 21.3433 505.92 21.77C506.146 22.19 506.26 22.68 506.26 23.24C506.26 23.7933 506.146 24.2867 505.92 24.72C505.693 25.1533 505.38 25.49 504.98 25.73C504.586 25.97 504.146 26.09 503.66 26.09C503.186 26.09 502.77 25.9867 502.41 25.78C502.056 25.5733 501.79 25.31 501.61 24.99V26H500.7V18.6H501.61V21.54ZM505.33 23.24C505.33 22.8267 505.246 22.4667 505.08 22.16C504.913 21.8533 504.686 21.62 504.4 21.46C504.12 21.3 503.81 21.22 503.47 21.22C503.136 21.22 502.826 21.3033 502.54 21.47C502.26 21.63 502.033 21.8667 501.86 22.18C501.693 22.4867 501.61 22.8433 501.61 23.25C501.61 23.6633 501.693 24.0267 501.86 24.34C502.033 24.6467 502.26 24.8833 502.54 25.05C502.826 25.21 503.136 25.29 503.47 25.29C503.81 25.29 504.12 25.21 504.4 25.05C504.686 24.8833 504.913 24.6467 505.08 24.34C505.246 24.0267 505.33 23.66 505.33 23.24ZM512.178 20.52L508.878 28.58H507.938L509.018 25.94L506.808 20.52H507.818L509.538 24.96L511.238 20.52H512.178ZM514.202 21.27V24.5C514.202 24.7667 514.259 24.9567 514.372 25.07C514.486 25.1767 514.682 25.23 514.962 25.23H515.632V26H514.812C514.306 26 513.926 25.8833 513.672 25.65C513.419 25.4167 513.292 25.0333 513.292 24.5V21.27H512.582V20.52H513.292V19.14H514.202V20.52H515.632V21.27H514.202ZM521.735 23.05C521.735 23.2233 521.725 23.4067 521.705 23.6H517.325C517.358 24.14 517.542 24.5633 517.875 24.87C518.215 25.17 518.625 25.32 519.105 25.32C519.498 25.32 519.825 25.23 520.085 25.05C520.352 24.8633 520.538 24.6167 520.645 24.31H521.625C521.478 24.8367 521.185 25.2667 520.745 25.6C520.305 25.9267 519.758 26.09 519.105 26.09C518.585 26.09 518.118 25.9733 517.705 25.74C517.298 25.5067 516.978 25.1767 516.745 24.75C516.512 24.3167 516.395 23.8167 516.395 23.25C516.395 22.6833 516.508 22.1867 516.735 21.76C516.962 21.3333 517.278 21.0067 517.685 20.78C518.098 20.5467 518.572 20.43 519.105 20.43C519.625 20.43 520.085 20.5433 520.485 20.77C520.885 20.9967 521.192 21.31 521.405 21.71C521.625 22.1033 521.735 22.55 521.735 23.05ZM520.795 22.86C520.795 22.5133 520.718 22.2167 520.565 21.97C520.412 21.7167 520.202 21.5267 519.935 21.4C519.675 21.2667 519.385 21.2 519.065 21.2C518.605 21.2 518.212 21.3467 517.885 21.64C517.565 21.9333 517.382 22.34 517.335 22.86H520.795Z" fill="white"/>
<circle cx="159" cy="38" r="4" fill="#1A3BE6"/>
<circle cx="316" cy="38" r="4" fill="#7D7D7D"/>
<circle cx="506" cy="40" r="4" fill="#7D7D7D"/>
<circle cx="448" cy="41" r="4" fill="#7D7D7D"/>
</g>
<defs>
<filter id="filter0_f_1_1116" x="73" y="29.9895" width="94.0682" height="276.51" filterUnits="userSpaceOnUse" color-interpolation-filters="sRGB">
<feFlood flood-opacity="0" result="BackgroundImageFix"/>
<feBlend mode="normal" in="SourceGraphic" in2="BackgroundImageFix" result="shape"/>
<feGaussianBlur stdDeviation="3.5" result="effect1_foregroundBlur_1_1116"/>
</filter>
<linearGradient id="paint0_linear_1_1116" x1="229" y1="189.5" x2="0" y2="189.5" gradientUnits="userSpaceOnUse">
<stop stop-color="#202020" stop-opacity="0"/>
<stop offset="1" stop-color="#202020"/>
</linearGradient>
<linearGradient id="paint1_linear_1_1116" x1="159" y1="87.5" x2="122.5" y2="269.5" gradientUnits="userSpaceOnUse">
<stop stop-color="#193AE6"/>
<stop offset="1" stop-color="#212121"/>
</linearGradient>
<linearGradient id="paint2_linear_1_1116" x1="131" y1="183.5" x2="101.5" y2="298" gradientUnits="userSpaceOnUse">
<stop stop-color="#193AE6"/>
<stop offset="1" stop-color="#212121"/>
</linearGradient>
<linearGradient id="paint3_linear_1_1116" x1="289.952" y1="70.5702" x2="42.6037" y2="163.972" gradientUnits="userSpaceOnUse">
<stop stop-color="#868686"/>
<stop offset="1" stop-color="#212121" stop-opacity="0"/>
</linearGradient>
<linearGradient id="paint4_linear_1_1116" x1="459.88" y1="74" x2="114.136" y2="316.419" gradientUnits="userSpaceOnUse">
<stop stop-color="#868686"/>
<stop offset="1" stop-color="#212121" stop-opacity="0"/>
</linearGradient>
<linearGradient id="paint5_linear_1_1116" x1="406.074" y1="74.4367" x2="74.5975" y2="283.856" gradientUnits="userSpaceOnUse">
<stop stop-color="#868686"/>
<stop offset="1" stop-color="#212121" stop-opacity="0"/>
</linearGradient>
<clipPath id="clip0_1_1116">
<rect width="538" height="372" rx="8" fill="white"/>
</clipPath>
</defs>
</svg>
