<svg width="538" height="374" viewBox="0 0 538 374" fill="none" xmlns="http://www.w3.org/2000/svg">
<g clip-path="url(#clip0_1_1066)">
<rect width="538" height="374" rx="8" fill="#202020"/>
<line x1="164.5" y1="343" x2="164.5" y2="-1" stroke="#2B2B2B"/>
<line x1="277.5" y1="343" x2="277.5" y2="-1" stroke="#2B2B2B"/>
<line x1="390.5" y1="343" x2="390.5" y2="-1" stroke="#2B2B2B"/>
<line x1="503.5" y1="343" x2="503.5" y2="-1" stroke="#2B2B2B"/>
<rect y="374" width="309" height="538" transform="rotate(-90 0 374)" fill="url(#paint0_linear_1_1066)"/>
<path d="M165.504 318.6V316.794H168.878V327H166.862V318.6H165.504ZM174.482 327L172.886 324.592L171.472 327H169.372L171.906 323.108L169.344 319.244H171.556L173.138 321.638L174.566 319.244H176.666L174.118 323.108L176.694 327H174.482Z" fill="#B1B1B1"/>
<path d="M243.77 319.482C243.817 318.549 244.143 317.83 244.75 317.326C245.366 316.813 246.173 316.556 247.172 316.556C247.853 316.556 248.437 316.677 248.922 316.92C249.407 317.153 249.771 317.475 250.014 317.886C250.266 318.287 250.392 318.745 250.392 319.258C250.392 319.846 250.238 320.345 249.93 320.756C249.631 321.157 249.272 321.428 248.852 321.568V321.624C249.393 321.792 249.813 322.091 250.112 322.52C250.42 322.949 250.574 323.5 250.574 324.172C250.574 324.732 250.443 325.231 250.182 325.67C249.93 326.109 249.552 326.454 249.048 326.706C248.553 326.949 247.956 327.07 247.256 327.07C246.201 327.07 245.343 326.804 244.68 326.272C244.017 325.74 243.667 324.956 243.63 323.92H245.534C245.553 324.377 245.707 324.746 245.996 325.026C246.295 325.297 246.701 325.432 247.214 325.432C247.69 325.432 248.054 325.301 248.306 325.04C248.567 324.769 248.698 324.424 248.698 324.004C248.698 323.444 248.521 323.043 248.166 322.8C247.811 322.557 247.261 322.436 246.514 322.436H246.108V320.826H246.514C247.839 320.826 248.502 320.383 248.502 319.496C248.502 319.095 248.381 318.782 248.138 318.558C247.905 318.334 247.564 318.222 247.116 318.222C246.677 318.222 246.337 318.343 246.094 318.586C245.861 318.819 245.725 319.118 245.688 319.482H243.77ZM255.791 327L254.195 324.592L252.781 327H250.681L253.215 323.108L250.653 319.244H252.865L254.447 321.638L255.875 319.244H257.975L255.427 323.108L258.003 327H255.791Z" fill="#B1B1B1"/>
<path d="M328.01 324.13C328.085 324.541 328.253 324.858 328.514 325.082C328.785 325.297 329.144 325.404 329.592 325.404C330.171 325.404 330.591 325.166 330.852 324.69C331.113 324.205 331.244 323.393 331.244 322.254C331.029 322.553 330.726 322.786 330.334 322.954C329.951 323.122 329.536 323.206 329.088 323.206C328.491 323.206 327.949 323.085 327.464 322.842C326.988 322.59 326.61 322.221 326.33 321.736C326.05 321.241 325.91 320.644 325.91 319.944C325.91 318.908 326.218 318.087 326.834 317.48C327.45 316.864 328.29 316.556 329.354 316.556C330.679 316.556 331.613 316.981 332.154 317.83C332.705 318.679 332.98 319.958 332.98 321.666C332.98 322.879 332.873 323.873 332.658 324.648C332.453 325.423 332.093 326.011 331.58 326.412C331.076 326.813 330.385 327.014 329.508 327.014C328.817 327.014 328.229 326.883 327.744 326.622C327.259 326.351 326.885 326.001 326.624 325.572C326.372 325.133 326.227 324.653 326.19 324.13H328.01ZM329.494 321.61C329.979 321.61 330.362 321.461 330.642 321.162C330.922 320.863 331.062 320.462 331.062 319.958C331.062 319.407 330.913 318.983 330.614 318.684C330.325 318.376 329.928 318.222 329.424 318.222C328.92 318.222 328.519 318.381 328.22 318.698C327.931 319.006 327.786 319.417 327.786 319.93C327.786 320.425 327.926 320.831 328.206 321.148C328.495 321.456 328.925 321.61 329.494 321.61ZM338.174 327L336.578 324.592L335.164 327H333.064L335.598 323.108L333.036 319.244H335.248L336.83 321.638L338.258 319.244H340.358L337.81 323.108L340.386 327H338.174Z" fill="#B1B1B1"/>
<path d="M407.504 318.6V316.794H410.878V327H408.862V318.6H407.504ZM411.89 325.012V323.472L416.468 316.92H418.75V323.304H419.982V325.012H418.75V327H416.79V325.012H411.89ZM416.916 319.02L414.046 323.304H416.916V319.02ZM424.898 327L423.302 324.592L421.888 327H419.788L422.322 323.108L419.76 319.244H421.972L423.554 321.638L424.982 319.244H427.082L424.534 323.108L427.11 327H424.898Z" fill="#B1B1B1"/>
<path d="M210.21 348.03V348.77H207.18V351.12H209.64V351.86H207.18V355H206.27V348.03H210.21ZM216.169 349.52V355H215.259V354.19C215.086 354.47 214.842 354.69 214.529 354.85C214.222 355.003 213.882 355.08 213.509 355.08C213.082 355.08 212.699 354.993 212.359 354.82C212.019 354.64 211.749 354.373 211.549 354.02C211.356 353.667 211.259 353.237 211.259 352.73V349.52H212.159V352.61C212.159 353.15 212.296 353.567 212.569 353.86C212.842 354.147 213.216 354.29 213.689 354.29C214.176 354.29 214.559 354.14 214.839 353.84C215.119 353.54 215.259 353.103 215.259 352.53V349.52H216.169ZM218.616 347.6V355H217.706V347.6H218.616ZM221.076 347.6V355H220.166V347.6H221.076ZM226.203 354.26H228.643V355H225.293V348.03H226.203V354.26ZM232 355.09C231.487 355.09 231.02 354.973 230.6 354.74C230.187 354.507 229.86 354.177 229.62 353.75C229.387 353.317 229.27 352.817 229.27 352.25C229.27 351.69 229.39 351.197 229.63 350.77C229.877 350.337 230.21 350.007 230.63 349.78C231.05 349.547 231.52 349.43 232.04 349.43C232.56 349.43 233.03 349.547 233.45 349.78C233.87 350.007 234.2 350.333 234.44 350.76C234.687 351.187 234.81 351.683 234.81 352.25C234.81 352.817 234.683 353.317 234.43 353.75C234.183 354.177 233.847 354.507 233.42 354.74C232.993 354.973 232.52 355.09 232 355.09ZM232 354.29C232.327 354.29 232.633 354.213 232.92 354.06C233.207 353.907 233.437 353.677 233.61 353.37C233.79 353.063 233.88 352.69 233.88 352.25C233.88 351.81 233.793 351.437 233.62 351.13C233.447 350.823 233.22 350.597 232.94 350.45C232.66 350.297 232.357 350.22 232.03 350.22C231.697 350.22 231.39 350.297 231.11 350.45C230.837 350.597 230.617 350.823 230.45 351.13C230.283 351.437 230.2 351.81 230.2 352.25C230.2 352.697 230.28 353.073 230.44 353.38C230.607 353.687 230.827 353.917 231.1 354.07C231.373 354.217 231.673 354.29 232 354.29ZM235.666 352.24C235.666 351.68 235.78 351.19 236.006 350.77C236.233 350.343 236.543 350.013 236.936 349.78C237.336 349.547 237.78 349.43 238.266 349.43C238.746 349.43 239.163 349.533 239.516 349.74C239.87 349.947 240.133 350.207 240.306 350.52V349.52H241.226V355H240.306V353.98C240.126 354.3 239.856 354.567 239.496 354.78C239.143 354.987 238.73 355.09 238.256 355.09C237.77 355.09 237.33 354.97 236.936 354.73C236.543 354.49 236.233 354.153 236.006 353.72C235.78 353.287 235.666 352.793 235.666 352.24ZM240.306 352.25C240.306 351.837 240.223 351.477 240.056 351.17C239.89 350.863 239.663 350.63 239.376 350.47C239.096 350.303 238.786 350.22 238.446 350.22C238.106 350.22 237.796 350.3 237.516 350.46C237.236 350.62 237.013 350.853 236.846 351.16C236.68 351.467 236.596 351.827 236.596 352.24C236.596 352.66 236.68 353.027 236.846 353.34C237.013 353.647 237.236 353.883 237.516 354.05C237.796 354.21 238.106 354.29 238.446 354.29C238.786 354.29 239.096 354.21 239.376 354.05C239.663 353.883 239.89 353.647 240.056 353.34C240.223 353.027 240.306 352.663 240.306 352.25ZM242.424 352.24C242.424 351.68 242.537 351.19 242.764 350.77C242.991 350.343 243.301 350.013 243.694 349.78C244.094 349.547 244.541 349.43 245.034 349.43C245.461 349.43 245.857 349.53 246.224 349.73C246.591 349.923 246.871 350.18 247.064 350.5V347.6H247.984V355H247.064V353.97C246.884 354.297 246.617 354.567 246.264 354.78C245.911 354.987 245.497 355.09 245.024 355.09C244.537 355.09 244.094 354.97 243.694 354.73C243.301 354.49 242.991 354.153 242.764 353.72C242.537 353.287 242.424 352.793 242.424 352.24ZM247.064 352.25C247.064 351.837 246.981 351.477 246.814 351.17C246.647 350.863 246.421 350.63 246.134 350.47C245.854 350.303 245.544 350.22 245.204 350.22C244.864 350.22 244.554 350.3 244.274 350.46C243.994 350.62 243.771 350.853 243.604 351.16C243.437 351.467 243.354 351.827 243.354 352.24C243.354 352.66 243.437 353.027 243.604 353.34C243.771 353.647 243.994 353.883 244.274 354.05C244.554 354.21 244.864 354.29 245.204 354.29C245.544 354.29 245.854 354.21 246.134 354.05C246.421 353.883 246.647 353.647 246.814 353.34C246.981 353.027 247.064 352.663 247.064 352.25ZM256.848 350.07C256.848 350.65 256.648 351.133 256.248 351.52C255.855 351.9 255.251 352.09 254.438 352.09H253.098V355H252.188V348.03H254.438C255.225 348.03 255.821 348.22 256.228 348.6C256.641 348.98 256.848 349.47 256.848 350.07ZM254.438 351.34C254.945 351.34 255.318 351.23 255.558 351.01C255.798 350.79 255.918 350.477 255.918 350.07C255.918 349.21 255.425 348.78 254.438 348.78H253.098V351.34H254.438ZM262.979 352.05C262.979 352.223 262.969 352.407 262.949 352.6H258.569C258.602 353.14 258.786 353.563 259.119 353.87C259.459 354.17 259.869 354.32 260.349 354.32C260.742 354.32 261.069 354.23 261.329 354.05C261.596 353.863 261.782 353.617 261.889 353.31H262.869C262.722 353.837 262.429 354.267 261.989 354.6C261.549 354.927 261.002 355.09 260.349 355.09C259.829 355.09 259.362 354.973 258.949 354.74C258.542 354.507 258.222 354.177 257.989 353.75C257.756 353.317 257.639 352.817 257.639 352.25C257.639 351.683 257.752 351.187 257.979 350.76C258.206 350.333 258.522 350.007 258.929 349.78C259.342 349.547 259.816 349.43 260.349 349.43C260.869 349.43 261.329 349.543 261.729 349.77C262.129 349.997 262.436 350.31 262.649 350.71C262.869 351.103 262.979 351.55 262.979 352.05ZM262.039 351.86C262.039 351.513 261.962 351.217 261.809 350.97C261.656 350.717 261.446 350.527 261.179 350.4C260.919 350.267 260.629 350.2 260.309 350.2C259.849 350.2 259.456 350.347 259.129 350.64C258.809 350.933 258.626 351.34 258.579 351.86H262.039ZM265.09 350.41C265.25 350.097 265.477 349.853 265.77 349.68C266.07 349.507 266.433 349.42 266.86 349.42V350.36H266.62C265.6 350.36 265.09 350.913 265.09 352.02V355H264.18V349.52H265.09V350.41ZM270.141 350.27H268.991V355H268.081V350.27H267.371V349.52H268.081V349.13C268.081 348.517 268.237 348.07 268.551 347.79C268.871 347.503 269.381 347.36 270.081 347.36V348.12C269.681 348.12 269.397 348.2 269.231 348.36C269.071 348.513 268.991 348.77 268.991 349.13V349.52H270.141V350.27ZM273.592 355.09C273.078 355.09 272.612 354.973 272.192 354.74C271.778 354.507 271.452 354.177 271.212 353.75C270.978 353.317 270.862 352.817 270.862 352.25C270.862 351.69 270.982 351.197 271.222 350.77C271.468 350.337 271.802 350.007 272.222 349.78C272.642 349.547 273.112 349.43 273.632 349.43C274.152 349.43 274.622 349.547 275.042 349.78C275.462 350.007 275.792 350.333 276.032 350.76C276.278 351.187 276.402 351.683 276.402 352.25C276.402 352.817 276.275 353.317 276.022 353.75C275.775 354.177 275.438 354.507 275.012 354.74C274.585 354.973 274.112 355.09 273.592 355.09ZM273.592 354.29C273.918 354.29 274.225 354.213 274.512 354.06C274.798 353.907 275.028 353.677 275.202 353.37C275.382 353.063 275.472 352.69 275.472 352.25C275.472 351.81 275.385 351.437 275.212 351.13C275.038 350.823 274.812 350.597 274.532 350.45C274.252 350.297 273.948 350.22 273.622 350.22C273.288 350.22 272.982 350.297 272.702 350.45C272.428 350.597 272.208 350.823 272.042 351.13C271.875 351.437 271.792 351.81 271.792 352.25C271.792 352.697 271.872 353.073 272.032 353.38C272.198 353.687 272.418 353.917 272.692 354.07C272.965 354.217 273.265 354.29 273.592 354.29ZM278.508 350.41C278.668 350.097 278.895 349.853 279.188 349.68C279.488 349.507 279.851 349.42 280.278 349.42V350.36H280.038C279.018 350.36 278.508 350.913 278.508 352.02V355H277.598V349.52H278.508V350.41ZM287.919 349.42C288.345 349.42 288.725 349.51 289.059 349.69C289.392 349.863 289.655 350.127 289.849 350.48C290.042 350.833 290.139 351.263 290.139 351.77V355H289.239V351.9C289.239 351.353 289.102 350.937 288.829 350.65C288.562 350.357 288.199 350.21 287.739 350.21C287.265 350.21 286.889 350.363 286.609 350.67C286.329 350.97 286.189 351.407 286.189 351.98V355H285.289V351.9C285.289 351.353 285.152 350.937 284.879 350.65C284.612 350.357 284.249 350.21 283.789 350.21C283.315 350.21 282.939 350.363 282.659 350.67C282.379 350.97 282.239 351.407 282.239 351.98V355H281.329V349.52H282.239V350.31C282.419 350.023 282.659 349.803 282.959 349.65C283.265 349.497 283.602 349.42 283.969 349.42C284.429 349.42 284.835 349.523 285.189 349.73C285.542 349.937 285.805 350.24 285.979 350.64C286.132 350.253 286.385 349.953 286.739 349.74C287.092 349.527 287.485 349.42 287.919 349.42ZM291.291 352.24C291.291 351.68 291.405 351.19 291.631 350.77C291.858 350.343 292.168 350.013 292.561 349.78C292.961 349.547 293.405 349.43 293.891 349.43C294.371 349.43 294.788 349.533 295.141 349.74C295.495 349.947 295.758 350.207 295.931 350.52V349.52H296.851V355H295.931V353.98C295.751 354.3 295.481 354.567 295.121 354.78C294.768 354.987 294.355 355.09 293.881 355.09C293.395 355.09 292.955 354.97 292.561 354.73C292.168 354.49 291.858 354.153 291.631 353.72C291.405 353.287 291.291 352.793 291.291 352.24ZM295.931 352.25C295.931 351.837 295.848 351.477 295.681 351.17C295.515 350.863 295.288 350.63 295.001 350.47C294.721 350.303 294.411 350.22 294.071 350.22C293.731 350.22 293.421 350.3 293.141 350.46C292.861 350.62 292.638 350.853 292.471 351.16C292.305 351.467 292.221 351.827 292.221 352.24C292.221 352.66 292.305 353.027 292.471 353.34C292.638 353.647 292.861 353.883 293.141 354.05C293.421 354.21 293.731 354.29 294.071 354.29C294.411 354.29 294.721 354.21 295.001 354.05C295.288 353.883 295.515 353.647 295.681 353.34C295.848 353.027 295.931 352.663 295.931 352.25ZM301.059 349.42C301.726 349.42 302.266 349.623 302.679 350.03C303.092 350.43 303.299 351.01 303.299 351.77V355H302.399V351.9C302.399 351.353 302.262 350.937 301.989 350.65C301.716 350.357 301.342 350.21 300.869 350.21C300.389 350.21 300.006 350.36 299.719 350.66C299.439 350.96 299.299 351.397 299.299 351.97V355H298.389V349.52H299.299V350.3C299.479 350.02 299.722 349.803 300.029 349.65C300.342 349.497 300.686 349.42 301.059 349.42ZM304.446 352.25C304.446 351.683 304.559 351.19 304.786 350.77C305.012 350.343 305.326 350.013 305.726 349.78C306.132 349.547 306.596 349.43 307.116 349.43C307.789 349.43 308.342 349.593 308.776 349.92C309.216 350.247 309.506 350.7 309.646 351.28H308.666C308.572 350.947 308.389 350.683 308.116 350.49C307.849 350.297 307.516 350.2 307.116 350.2C306.596 350.2 306.176 350.38 305.856 350.74C305.536 351.093 305.376 351.597 305.376 352.25C305.376 352.91 305.536 353.42 305.856 353.78C306.176 354.14 306.596 354.32 307.116 354.32C307.516 354.32 307.849 354.227 308.116 354.04C308.382 353.853 308.566 353.587 308.666 353.24H309.646C309.499 353.8 309.206 354.25 308.766 354.59C308.326 354.923 307.776 355.09 307.116 355.09C306.596 355.09 306.132 354.973 305.726 354.74C305.326 354.507 305.012 354.177 304.786 353.75C304.559 353.323 304.446 352.823 304.446 352.25ZM315.86 352.05C315.86 352.223 315.85 352.407 315.83 352.6H311.45C311.483 353.14 311.667 353.563 312 353.87C312.34 354.17 312.75 354.32 313.23 354.32C313.623 354.32 313.95 354.23 314.21 354.05C314.477 353.863 314.663 353.617 314.77 353.31H315.75C315.603 353.837 315.31 354.267 314.87 354.6C314.43 354.927 313.883 355.09 313.23 355.09C312.71 355.09 312.243 354.973 311.83 354.74C311.423 354.507 311.103 354.177 310.87 353.75C310.637 353.317 310.52 352.817 310.52 352.25C310.52 351.683 310.633 351.187 310.86 350.76C311.087 350.333 311.403 350.007 311.81 349.78C312.223 349.547 312.697 349.43 313.23 349.43C313.75 349.43 314.21 349.543 314.61 349.77C315.01 349.997 315.317 350.31 315.53 350.71C315.75 351.103 315.86 351.55 315.86 352.05ZM314.92 351.86C314.92 351.513 314.843 351.217 314.69 350.97C314.537 350.717 314.327 350.527 314.06 350.4C313.8 350.267 313.51 350.2 313.19 350.2C312.73 350.2 312.337 350.347 312.01 350.64C311.69 350.933 311.507 351.34 311.46 351.86H314.92ZM321.937 355.07C321.477 355.07 321.064 354.99 320.697 354.83C320.337 354.663 320.054 354.437 319.847 354.15C319.64 353.857 319.534 353.52 319.527 353.14H320.497C320.53 353.467 320.664 353.743 320.897 353.97C321.137 354.19 321.484 354.3 321.937 354.3C322.37 354.3 322.71 354.193 322.957 353.98C323.21 353.76 323.337 353.48 323.337 353.14C323.337 352.873 323.264 352.657 323.117 352.49C322.97 352.323 322.787 352.197 322.567 352.11C322.347 352.023 322.05 351.93 321.677 351.83C321.217 351.71 320.847 351.59 320.567 351.47C320.294 351.35 320.057 351.163 319.857 350.91C319.664 350.65 319.567 350.303 319.567 349.87C319.567 349.49 319.664 349.153 319.857 348.86C320.05 348.567 320.32 348.34 320.667 348.18C321.02 348.02 321.424 347.94 321.877 347.94C322.53 347.94 323.064 348.103 323.477 348.43C323.897 348.757 324.134 349.19 324.187 349.73H323.187C323.154 349.463 323.014 349.23 322.767 349.03C322.52 348.823 322.194 348.72 321.787 348.72C321.407 348.72 321.097 348.82 320.857 349.02C320.617 349.213 320.497 349.487 320.497 349.84C320.497 350.093 320.567 350.3 320.707 350.46C320.854 350.62 321.03 350.743 321.237 350.83C321.45 350.91 321.747 351.003 322.127 351.11C322.587 351.237 322.957 351.363 323.237 351.49C323.517 351.61 323.757 351.8 323.957 352.06C324.157 352.313 324.257 352.66 324.257 353.1C324.257 353.44 324.167 353.76 323.987 354.06C323.807 354.36 323.54 354.603 323.187 354.79C322.834 354.977 322.417 355.07 321.937 355.07ZM326.506 350.53C326.686 350.217 326.953 349.957 327.306 349.75C327.666 349.537 328.083 349.43 328.556 349.43C329.043 349.43 329.483 349.547 329.876 349.78C330.276 350.013 330.59 350.343 330.816 350.77C331.043 351.19 331.156 351.68 331.156 352.24C331.156 352.793 331.043 353.287 330.816 353.72C330.59 354.153 330.276 354.49 329.876 354.73C329.483 354.97 329.043 355.09 328.556 355.09C328.09 355.09 327.676 354.987 327.316 354.78C326.963 354.567 326.693 354.303 326.506 353.99V357.6H325.596V349.52H326.506V350.53ZM330.226 352.24C330.226 351.827 330.143 351.467 329.976 351.16C329.81 350.853 329.583 350.62 329.296 350.46C329.016 350.3 328.706 350.22 328.366 350.22C328.033 350.22 327.723 350.303 327.436 350.47C327.156 350.63 326.93 350.867 326.756 351.18C326.59 351.487 326.506 351.843 326.506 352.25C326.506 352.663 326.59 353.027 326.756 353.34C326.93 353.647 327.156 353.883 327.436 354.05C327.723 354.21 328.033 354.29 328.366 354.29C328.706 354.29 329.016 354.21 329.296 354.05C329.583 353.883 329.81 353.647 329.976 353.34C330.143 353.027 330.226 352.66 330.226 352.24ZM337.354 352.05C337.354 352.223 337.344 352.407 337.324 352.6H332.944C332.977 353.14 333.161 353.563 333.494 353.87C333.834 354.17 334.244 354.32 334.724 354.32C335.117 354.32 335.444 354.23 335.704 354.05C335.971 353.863 336.157 353.617 336.264 353.31H337.244C337.097 353.837 336.804 354.267 336.364 354.6C335.924 354.927 335.377 355.09 334.724 355.09C334.204 355.09 333.737 354.973 333.324 354.74C332.917 354.507 332.597 354.177 332.364 353.75C332.131 353.317 332.014 352.817 332.014 352.25C332.014 351.683 332.127 351.187 332.354 350.76C332.581 350.333 332.897 350.007 333.304 349.78C333.717 349.547 334.191 349.43 334.724 349.43C335.244 349.43 335.704 349.543 336.104 349.77C336.504 349.997 336.811 350.31 337.024 350.71C337.244 351.103 337.354 351.55 337.354 352.05ZM336.414 351.86C336.414 351.513 336.337 351.217 336.184 350.97C336.031 350.717 335.821 350.527 335.554 350.4C335.294 350.267 335.004 350.2 334.684 350.2C334.224 350.2 333.831 350.347 333.504 350.64C333.184 350.933 333.001 351.34 332.954 351.86H336.414ZM343.555 352.05C343.555 352.223 343.545 352.407 343.525 352.6H339.145C339.178 353.14 339.362 353.563 339.695 353.87C340.035 354.17 340.445 354.32 340.925 354.32C341.318 354.32 341.645 354.23 341.905 354.05C342.172 353.863 342.358 353.617 342.465 353.31H343.445C343.298 353.837 343.005 354.267 342.565 354.6C342.125 354.927 341.578 355.09 340.925 355.09C340.405 355.09 339.938 354.973 339.525 354.74C339.118 354.507 338.798 354.177 338.565 353.75C338.332 353.317 338.215 352.817 338.215 352.25C338.215 351.683 338.328 351.187 338.555 350.76C338.782 350.333 339.098 350.007 339.505 349.78C339.918 349.547 340.392 349.43 340.925 349.43C341.445 349.43 341.905 349.543 342.305 349.77C342.705 349.997 343.012 350.31 343.225 350.71C343.445 351.103 343.555 351.55 343.555 352.05ZM342.615 351.86C342.615 351.513 342.538 351.217 342.385 350.97C342.232 350.717 342.022 350.527 341.755 350.4C341.495 350.267 341.205 350.2 340.885 350.2C340.425 350.2 340.032 350.347 339.705 350.64C339.385 350.933 339.202 351.34 339.155 351.86H342.615ZM344.416 352.24C344.416 351.68 344.53 351.19 344.756 350.77C344.983 350.343 345.293 350.013 345.686 349.78C346.086 349.547 346.533 349.43 347.026 349.43C347.453 349.43 347.85 349.53 348.216 349.73C348.583 349.923 348.863 350.18 349.056 350.5V347.6H349.976V355H349.056V353.97C348.876 354.297 348.61 354.567 348.256 354.78C347.903 354.987 347.49 355.09 347.016 355.09C346.53 355.09 346.086 354.97 345.686 354.73C345.293 354.49 344.983 354.153 344.756 353.72C344.53 353.287 344.416 352.793 344.416 352.24ZM349.056 352.25C349.056 351.837 348.973 351.477 348.806 351.17C348.64 350.863 348.413 350.63 348.126 350.47C347.846 350.303 347.536 350.22 347.196 350.22C346.856 350.22 346.546 350.3 346.266 350.46C345.986 350.62 345.763 350.853 345.596 351.16C345.43 351.467 345.346 351.827 345.346 352.24C345.346 352.66 345.43 353.027 345.596 353.34C345.763 353.647 345.986 353.883 346.266 354.05C346.546 354.21 346.856 354.29 347.196 354.29C347.536 354.29 347.846 354.21 348.126 354.05C348.413 353.883 348.64 353.647 348.806 353.34C348.973 353.027 349.056 352.663 349.056 352.25Z" fill="white"/>
<path d="M195.338 348.773C194.835 348.269 194.236 347.869 193.578 347.597C192.919 347.324 192.213 347.185 191.5 347.188H191.481C188.493 347.198 186.062 349.661 186.062 352.678V353.75C186.062 353.999 186.161 354.237 186.337 354.413C186.513 354.589 186.751 354.688 187 354.688H196C196.249 354.688 196.487 354.589 196.663 354.413C196.839 354.237 196.938 353.999 196.938 353.75V352.625C196.939 351.909 196.799 351.2 196.524 350.539C196.25 349.877 195.847 349.277 195.338 348.773ZM195.812 353.563H191.468L193.645 350.516C193.688 350.456 193.719 350.388 193.736 350.316C193.753 350.244 193.755 350.169 193.743 350.096C193.731 350.023 193.705 349.953 193.666 349.89C193.627 349.828 193.576 349.773 193.516 349.73C193.456 349.687 193.388 349.656 193.316 349.639C193.244 349.622 193.169 349.62 193.096 349.632C193.023 349.644 192.953 349.67 192.89 349.709C192.828 349.748 192.773 349.799 192.73 349.859L190.085 353.563H187.188V352.678C187.188 352.597 187.188 352.517 187.194 352.438H188.125C188.274 352.438 188.417 352.378 188.523 352.273C188.628 352.167 188.688 352.024 188.688 351.875C188.688 351.726 188.628 351.583 188.523 351.477C188.417 351.372 188.274 351.313 188.125 351.313H187.404C187.915 349.747 189.279 348.569 190.938 348.35V349.25C190.938 349.399 190.997 349.542 191.102 349.648C191.208 349.753 191.351 349.813 191.5 349.813C191.649 349.813 191.792 349.753 191.898 349.648C192.003 349.542 192.062 349.399 192.062 349.25V348.35C192.874 348.456 193.638 348.792 194.266 349.316C194.894 349.841 195.36 350.533 195.609 351.313H194.875C194.726 351.313 194.583 351.372 194.477 351.477C194.372 351.583 194.312 351.726 194.312 351.875C194.312 352.024 194.372 352.167 194.477 352.273C194.583 352.378 194.726 352.438 194.875 352.438H195.808C195.811 352.5 195.812 352.562 195.812 352.625V353.563Z" fill="white"/>
<rect x="101" y="87" width="56" height="331" transform="rotate(-90 101 87)" fill="#2848EE" fill-opacity="0.1"/>
<rect x="432" y="87" width="56" height="6" transform="rotate(-90 432 87)" fill="#2848EE"/>
<rect x="101" y="158" width="55" height="73" transform="rotate(-90 101 158)" fill="#404040" fill-opacity="0.1"/>
<rect x="174" y="158" width="55" height="6" transform="rotate(-90 174 158)" fill="#515151"/>
<path d="M165.551 152.64L164.93 152.64L160.556 149.481L160.556 148.5L164.84 148.5L164.84 147.6L165.551 147.6L165.551 148.5L167 148.5L167 149.31L165.551 149.31L165.551 152.64ZM161.411 149.274L164.84 151.695L164.84 149.274L161.411 149.274ZM163.868 144.082L167 142.156L167 143.083L164.552 144.586L167 146.017L167 146.926L163.868 145.009L160.727 146.935L160.727 146.017L163.184 144.505L160.727 143.065L160.727 142.147L163.868 144.082ZM167.081 136.912C167.081 137.29 167.018 137.629 166.892 137.929C166.76 138.229 166.58 138.466 166.352 138.64C166.118 138.814 165.851 138.91 165.551 138.928L165.551 138.082C165.797 138.058 165.998 137.944 166.154 137.74C166.31 137.53 166.388 137.257 166.388 136.921C166.388 136.609 166.319 136.363 166.181 136.183C166.043 136.003 165.869 135.913 165.659 135.913C165.443 135.913 165.284 136.009 165.182 136.201C165.074 136.393 164.969 136.69 164.867 137.092C164.771 137.458 164.675 137.758 164.579 137.992C164.477 138.22 164.33 138.418 164.138 138.586C163.94 138.748 163.682 138.829 163.364 138.829C163.112 138.829 162.881 138.754 162.671 138.604C162.461 138.454 162.296 138.241 162.176 137.965C162.05 137.689 161.987 137.374 161.987 137.02C161.987 136.474 162.125 136.033 162.401 135.697C162.677 135.361 163.055 135.181 163.535 135.157L163.535 135.976C163.277 135.994 163.07 136.099 162.914 136.291C162.758 136.477 162.68 136.729 162.68 137.047C162.68 137.341 162.743 137.575 162.869 137.749C162.995 137.923 163.16 138.01 163.364 138.01C163.526 138.01 163.661 137.959 163.769 137.857C163.871 137.749 163.955 137.617 164.021 137.461C164.081 137.299 164.15 137.077 164.228 136.795C164.324 136.441 164.42 136.153 164.516 135.931C164.606 135.709 164.744 135.52 164.93 135.364C165.116 135.202 165.359 135.118 165.659 135.112C165.929 135.112 166.172 135.187 166.388 135.337C166.604 135.487 166.775 135.7 166.901 135.976C167.021 136.246 167.081 136.558 167.081 136.912ZM160.34 133.136L167 133.136L167 133.955L160.34 133.955L160.34 133.136ZM167.081 129.59C167.081 130.052 166.976 130.472 166.766 130.85C166.556 131.222 166.259 131.516 165.875 131.732C165.485 131.942 165.035 132.047 164.525 132.047C164.021 132.047 163.577 131.939 163.193 131.723C162.803 131.501 162.506 131.201 162.302 130.823C162.092 130.445 161.987 130.022 161.987 129.554C161.987 129.086 162.092 128.663 162.302 128.285C162.506 127.907 162.8 127.61 163.184 127.394C163.568 127.172 164.015 127.061 164.525 127.061C165.035 127.061 165.485 127.175 165.875 127.403C166.259 127.625 166.556 127.928 166.766 128.312C166.976 128.696 167.081 129.122 167.081 129.59ZM166.361 129.59C166.361 129.296 166.292 129.02 166.154 128.762C166.016 128.504 165.809 128.297 165.533 128.141C165.257 127.979 164.921 127.898 164.525 127.898C164.129 127.898 163.793 127.976 163.517 128.132C163.241 128.288 163.037 128.492 162.905 128.744C162.767 128.996 162.698 129.269 162.698 129.563C162.698 129.863 162.767 130.139 162.905 130.391C163.037 130.637 163.241 130.835 163.517 130.985C163.793 131.135 164.129 131.21 164.525 131.21C164.927 131.21 165.266 131.138 165.542 130.994C165.818 130.844 166.025 130.646 166.163 130.4C166.295 130.154 166.361 129.884 166.361 129.59ZM162.068 119.414L167 120.953L167 121.799L163.085 122.987L167 124.175L167 125.021L162.068 126.569L162.068 125.732L166.208 124.598L162.068 123.374L162.068 122.537L166.217 121.34L162.068 120.224L162.068 119.414ZM164.345 114.101C164.501 114.101 164.666 114.11 164.84 114.128L164.84 118.07C165.326 118.04 165.707 117.875 165.983 117.575C166.253 117.269 166.388 116.9 166.388 116.468C166.388 116.114 166.307 115.82 166.145 115.586C165.977 115.346 165.755 115.178 165.479 115.082L165.479 114.2C165.953 114.332 166.34 114.596 166.64 114.992C166.934 115.388 167.081 115.88 167.081 116.468C167.081 116.936 166.976 117.356 166.766 117.728C166.556 118.094 166.259 118.382 165.875 118.592C165.485 118.802 165.035 118.907 164.525 118.907C164.015 118.907 163.568 118.805 163.184 118.601C162.8 118.397 162.506 118.112 162.302 117.746C162.092 117.374 161.987 116.948 161.987 116.468C161.987 116 162.089 115.586 162.293 115.226C162.497 114.866 162.779 114.59 163.139 114.398C163.493 114.2 163.895 114.101 164.345 114.101ZM164.174 114.947C163.862 114.947 163.595 115.016 163.373 115.154C163.145 115.292 162.974 115.481 162.86 115.721C162.74 115.955 162.68 116.216 162.68 116.504C162.68 116.918 162.812 117.272 163.076 117.566C163.34 117.854 163.706 118.019 164.174 118.061L164.174 114.947ZM162.869 112.201C162.587 112.057 162.368 111.853 162.212 111.589C162.056 111.319 161.978 110.992 161.978 110.608L162.824 110.608L162.824 110.824C162.824 111.742 163.322 112.201 164.318 112.201L167 112.201L167 113.02L162.068 113.02L162.068 112.201L162.869 112.201Z" fill="#D0D0D0"/>
<rect x="101" y="229" width="55" height="44" transform="rotate(-90 101 229)" fill="#404040" fill-opacity="0.1"/>
<rect x="145" y="229" width="55" height="6" transform="rotate(-90 145 229)" fill="#515151"/>
<path d="M134.041 217.815C133.375 217.947 133.042 218.358 133.042 219.048C133.042 219.582 133.249 219.981 133.663 220.245C134.071 220.509 134.746 220.638 135.688 220.632C135.376 220.494 135.133 220.266 134.959 219.948C134.779 219.624 134.689 219.264 134.689 218.868C134.689 218.25 134.881 217.758 135.265 217.392C135.649 217.02 136.18 216.834 136.858 216.834C137.266 216.834 137.632 216.915 137.956 217.077C138.28 217.233 138.538 217.473 138.73 217.797C138.922 218.115 139.018 218.502 139.018 218.958C139.018 219.576 138.88 220.059 138.604 220.407C138.328 220.755 137.947 220.998 137.461 221.136C136.975 221.274 136.375 221.343 135.661 221.343C133.459 221.343 132.358 220.575 132.358 219.039C132.358 218.451 132.517 217.989 132.835 217.653C133.153 217.317 133.555 217.119 134.041 217.059L134.041 217.815ZM135.382 219.039C135.382 219.297 135.436 219.54 135.544 219.768C135.646 219.996 135.805 220.182 136.021 220.326C136.231 220.464 136.489 220.533 136.795 220.533C137.251 220.533 137.623 220.401 137.911 220.137C138.193 219.873 138.334 219.495 138.334 219.003C138.334 218.583 138.205 218.25 137.947 218.004C137.683 217.752 137.329 217.626 136.885 217.626C136.417 217.626 136.051 217.746 135.787 217.986C135.517 218.226 135.382 218.577 135.382 219.039ZM135.868 213.029L139 211.103L139 212.03L136.552 213.533L139 214.964L139 215.873L135.868 213.956L132.727 215.882L132.727 214.964L135.184 213.452L132.727 212.012L132.727 211.094L135.868 213.029ZM139.081 205.859C139.081 206.237 139.018 206.576 138.892 206.876C138.76 207.176 138.58 207.413 138.352 207.587C138.118 207.761 137.851 207.857 137.551 207.875L137.551 207.029C137.797 207.005 137.998 206.891 138.154 206.687C138.31 206.477 138.388 206.204 138.388 205.868C138.388 205.556 138.319 205.31 138.181 205.13C138.043 204.95 137.869 204.86 137.659 204.86C137.443 204.86 137.284 204.956 137.182 205.148C137.074 205.34 136.969 205.637 136.867 206.039C136.771 206.405 136.675 206.705 136.579 206.939C136.477 207.167 136.33 207.365 136.138 207.533C135.94 207.695 135.682 207.776 135.364 207.776C135.112 207.776 134.881 207.701 134.671 207.551C134.461 207.401 134.296 207.188 134.176 206.912C134.05 206.636 133.987 206.321 133.987 205.967C133.987 205.421 134.125 204.98 134.401 204.644C134.677 204.308 135.055 204.128 135.535 204.104L135.535 204.923C135.277 204.941 135.07 205.046 134.914 205.238C134.758 205.424 134.68 205.676 134.68 205.994C134.68 206.288 134.743 206.522 134.869 206.696C134.995 206.87 135.16 206.957 135.364 206.957C135.526 206.957 135.661 206.906 135.769 206.804C135.871 206.696 135.955 206.564 136.021 206.408C136.081 206.246 136.15 206.024 136.228 205.742C136.324 205.388 136.42 205.1 136.516 204.878C136.606 204.656 136.744 204.467 136.93 204.311C137.116 204.149 137.359 204.065 137.659 204.059C137.929 204.059 138.172 204.134 138.388 204.284C138.604 204.434 138.775 204.647 138.901 204.923C139.021 205.193 139.081 205.505 139.081 205.859ZM132.34 202.084L139 202.084L139 202.903L132.34 202.903L132.34 202.084ZM139.081 198.537C139.081 198.999 138.976 199.419 138.766 199.797C138.556 200.169 138.259 200.463 137.875 200.679C137.485 200.889 137.035 200.994 136.525 200.994C136.021 200.994 135.577 200.886 135.193 200.67C134.803 200.448 134.506 200.148 134.302 199.77C134.092 199.392 133.987 198.969 133.987 198.501C133.987 198.033 134.092 197.61 134.302 197.232C134.506 196.854 134.8 196.557 135.184 196.341C135.568 196.119 136.015 196.008 136.525 196.008C137.035 196.008 137.485 196.122 137.875 196.35C138.259 196.572 138.556 196.875 138.766 197.259C138.976 197.643 139.081 198.069 139.081 198.537ZM138.361 198.537C138.361 198.243 138.292 197.967 138.154 197.709C138.016 197.451 137.809 197.244 137.533 197.088C137.257 196.926 136.921 196.845 136.525 196.845C136.129 196.845 135.793 196.923 135.517 197.079C135.241 197.235 135.037 197.439 134.905 197.691C134.767 197.943 134.698 198.216 134.698 198.51C134.698 198.81 134.767 199.086 134.905 199.338C135.037 199.584 135.241 199.782 135.517 199.932C135.793 200.082 136.129 200.157 136.525 200.157C136.927 200.157 137.266 200.085 137.542 199.941C137.818 199.791 138.025 199.593 138.163 199.347C138.295 199.101 138.361 198.831 138.361 198.537ZM134.068 188.361L139 189.9L139 190.746L135.085 191.934L139 193.122L139 193.968L134.068 195.516L134.068 194.679L138.208 193.545L134.068 192.321L134.068 191.484L138.217 190.287L134.068 189.171L134.068 188.361ZM136.345 183.048C136.501 183.048 136.666 183.057 136.84 183.075L136.84 187.017C137.326 186.987 137.707 186.822 137.983 186.522C138.253 186.216 138.388 185.847 138.388 185.415C138.388 185.061 138.307 184.767 138.145 184.533C137.977 184.293 137.755 184.125 137.479 184.029L137.479 183.147C137.953 183.279 138.34 183.543 138.64 183.939C138.934 184.335 139.081 184.827 139.081 185.415C139.081 185.883 138.976 186.303 138.766 186.675C138.556 187.041 138.259 187.329 137.875 187.539C137.485 187.749 137.035 187.854 136.525 187.854C136.015 187.854 135.568 187.752 135.184 187.548C134.8 187.344 134.506 187.059 134.302 186.693C134.092 186.321 133.987 185.895 133.987 185.415C133.987 184.947 134.089 184.533 134.293 184.173C134.497 183.813 134.779 183.537 135.139 183.345C135.493 183.147 135.895 183.048 136.345 183.048ZM136.174 183.894C135.862 183.894 135.595 183.963 135.373 184.101C135.145 184.239 134.974 184.428 134.86 184.668C134.74 184.902 134.68 185.163 134.68 185.451C134.68 185.865 134.812 186.219 135.076 186.513C135.34 186.801 135.706 186.966 136.174 187.008L136.174 183.894ZM134.869 181.148C134.587 181.004 134.368 180.8 134.212 180.536C134.056 180.266 133.978 179.939 133.978 179.555L134.824 179.555L134.824 179.771C134.824 180.689 135.322 181.148 136.318 181.148L139 181.148L139 181.967L134.068 181.967L134.068 181.148L134.869 181.148Z" fill="#D0D0D0"/>
<rect x="101" y="300" width="55" height="24" transform="rotate(-90 101 300)" fill="#404040" fill-opacity="0.1"/>
<rect x="125" y="300" width="55" height="6" transform="rotate(-90 125 300)" fill="#515151"/>
<path d="M112.24 294.658L111.493 294.658L111.493 292.966L118 292.966L118 293.794L112.24 293.794L112.24 294.658ZM113.131 291.577C112.579 291.535 112.147 291.322 111.835 290.938C111.523 290.554 111.367 290.056 111.367 289.444C111.367 289.036 111.442 288.685 111.592 288.391C111.736 288.091 111.934 287.866 112.186 287.716C112.438 287.56 112.723 287.482 113.041 287.482C113.413 287.482 113.734 287.59 114.004 287.806C114.274 288.016 114.448 288.292 114.526 288.634L114.571 288.634C114.667 288.244 114.856 287.935 115.138 287.707C115.42 287.479 115.789 287.365 116.245 287.365C116.587 287.365 116.896 287.443 117.172 287.599C117.442 287.755 117.655 287.989 117.811 288.301C117.967 288.613 118.045 288.988 118.045 289.426C118.045 290.062 117.88 290.584 117.55 290.992C117.214 291.4 116.74 291.628 116.128 291.676L116.128 290.884C116.488 290.842 116.782 290.695 117.01 290.443C117.238 290.191 117.352 289.855 117.352 289.435C117.352 289.015 117.244 288.697 117.028 288.481C116.806 288.259 116.521 288.148 116.173 288.148C115.723 288.148 115.399 288.298 115.201 288.598C115.003 288.898 114.904 289.351 114.904 289.957L114.904 290.164L114.22 290.164L114.22 289.948C114.214 289.396 114.124 288.979 113.95 288.697C113.77 288.415 113.494 288.274 113.122 288.274C112.804 288.274 112.549 288.379 112.357 288.589C112.165 288.793 112.069 289.087 112.069 289.471C112.069 289.843 112.165 290.143 112.357 290.371C112.549 290.599 112.807 290.734 113.131 290.776L113.131 291.577ZM114.868 283.559L118 281.633L118 282.56L115.552 284.063L118 285.494L118 286.403L114.868 284.486L111.727 286.412L111.727 285.494L114.184 283.982L111.727 282.542L111.727 281.624L114.868 283.559ZM118.081 276.389C118.081 276.767 118.018 277.106 117.892 277.406C117.76 277.706 117.58 277.943 117.352 278.117C117.118 278.291 116.851 278.387 116.551 278.405L116.551 277.559C116.797 277.535 116.998 277.421 117.154 277.217C117.31 277.007 117.388 276.734 117.388 276.398C117.388 276.086 117.319 275.84 117.181 275.66C117.043 275.48 116.869 275.39 116.659 275.39C116.443 275.39 116.284 275.486 116.182 275.678C116.074 275.87 115.969 276.167 115.867 276.569C115.771 276.935 115.675 277.235 115.579 277.469C115.477 277.697 115.33 277.895 115.138 278.063C114.94 278.225 114.682 278.306 114.364 278.306C114.112 278.306 113.881 278.231 113.671 278.081C113.461 277.931 113.296 277.718 113.176 277.442C113.05 277.166 112.987 276.851 112.987 276.497C112.987 275.951 113.125 275.51 113.401 275.174C113.677 274.838 114.055 274.658 114.535 274.634L114.535 275.453C114.277 275.471 114.07 275.576 113.914 275.768C113.758 275.954 113.68 276.206 113.68 276.524C113.68 276.818 113.743 277.052 113.869 277.226C113.995 277.4 114.16 277.487 114.364 277.487C114.526 277.487 114.661 277.436 114.769 277.334C114.871 277.226 114.955 277.094 115.021 276.938C115.081 276.776 115.15 276.554 115.228 276.272C115.324 275.918 115.42 275.63 115.516 275.408C115.606 275.186 115.744 274.997 115.93 274.841C116.116 274.679 116.359 274.595 116.659 274.589C116.929 274.589 117.172 274.664 117.388 274.814C117.604 274.964 117.775 275.177 117.901 275.453C118.021 275.723 118.081 276.035 118.081 276.389ZM111.34 272.614L118 272.614L118 273.433L111.34 273.433L111.34 272.614ZM118.081 269.067C118.081 269.529 117.976 269.949 117.766 270.327C117.556 270.699 117.259 270.993 116.875 271.209C116.485 271.419 116.035 271.524 115.525 271.524C115.021 271.524 114.577 271.416 114.193 271.2C113.803 270.978 113.506 270.678 113.302 270.3C113.092 269.922 112.987 269.499 112.987 269.031C112.987 268.563 113.092 268.14 113.302 267.762C113.506 267.384 113.8 267.087 114.184 266.871C114.568 266.649 115.015 266.538 115.525 266.538C116.035 266.538 116.485 266.652 116.875 266.88C117.259 267.102 117.556 267.405 117.766 267.789C117.976 268.173 118.081 268.599 118.081 269.067ZM117.361 269.067C117.361 268.773 117.292 268.497 117.154 268.239C117.016 267.981 116.809 267.774 116.533 267.618C116.257 267.456 115.921 267.375 115.525 267.375C115.129 267.375 114.793 267.453 114.517 267.609C114.241 267.765 114.037 267.969 113.905 268.221C113.767 268.473 113.698 268.746 113.698 269.04C113.698 269.34 113.767 269.616 113.905 269.868C114.037 270.114 114.241 270.312 114.517 270.462C114.793 270.612 115.129 270.687 115.525 270.687C115.927 270.687 116.266 270.615 116.542 270.471C116.818 270.321 117.025 270.123 117.163 269.877C117.295 269.631 117.361 269.361 117.361 269.067ZM113.068 258.891L118 260.43L118 261.276L114.085 262.464L118 263.652L118 264.498L113.068 266.046L113.068 265.209L117.208 264.075L113.068 262.851L113.068 262.014L117.217 260.817L113.068 259.701L113.068 258.891ZM115.345 253.578C115.501 253.578 115.666 253.587 115.84 253.605L115.84 257.547C116.326 257.517 116.707 257.352 116.983 257.052C117.253 256.746 117.388 256.377 117.388 255.945C117.388 255.591 117.307 255.297 117.145 255.063C116.977 254.823 116.755 254.655 116.479 254.559L116.479 253.677C116.953 253.809 117.34 254.073 117.64 254.469C117.934 254.865 118.081 255.357 118.081 255.945C118.081 256.413 117.976 256.833 117.766 257.205C117.556 257.571 117.259 257.859 116.875 258.069C116.485 258.279 116.035 258.384 115.525 258.384C115.015 258.384 114.568 258.282 114.184 258.078C113.8 257.874 113.506 257.589 113.302 257.223C113.092 256.851 112.987 256.425 112.987 255.945C112.987 255.477 113.089 255.063 113.293 254.703C113.497 254.343 113.779 254.067 114.139 253.875C114.493 253.677 114.895 253.578 115.345 253.578ZM115.174 254.424C114.862 254.424 114.595 254.493 114.373 254.631C114.145 254.769 113.974 254.958 113.86 255.198C113.74 255.432 113.68 255.693 113.68 255.981C113.68 256.395 113.812 256.749 114.076 257.043C114.34 257.331 114.706 257.496 115.174 257.538L115.174 254.424ZM113.869 251.678C113.587 251.534 113.368 251.33 113.212 251.066C113.056 250.796 112.978 250.469 112.978 250.085L113.824 250.085L113.824 250.301C113.824 251.219 114.322 251.678 115.318 251.678L118 251.678L118 252.497L113.068 252.497L113.068 251.678L113.869 251.678Z" fill="#D0D0D0"/>
<path d="M58.89 282.45H55.85L55.29 284H54.33L56.85 277.07H57.9L60.41 284H59.45L58.89 282.45ZM58.63 281.71L57.37 278.19L56.11 281.71H58.63ZM61.9783 277.63C61.8049 277.63 61.6583 277.57 61.5383 277.45C61.4183 277.33 61.3583 277.183 61.3583 277.01C61.3583 276.837 61.4183 276.69 61.5383 276.57C61.6583 276.45 61.8049 276.39 61.9783 276.39C62.1449 276.39 62.2849 276.45 62.3983 276.57C62.5183 276.69 62.5783 276.837 62.5783 277.01C62.5783 277.183 62.5183 277.33 62.3983 277.45C62.2849 277.57 62.1449 277.63 61.9783 277.63ZM62.4183 278.52V284H61.5083V278.52H62.4183ZM64.8792 279.41C65.0392 279.097 65.2659 278.853 65.5592 278.68C65.8592 278.507 66.2226 278.42 66.6492 278.42V279.36H66.4092C65.3892 279.36 64.8792 279.913 64.8792 281.02V284H63.9692V278.52H64.8792V279.41ZM68.6097 279.54C68.7964 279.213 69.0697 278.947 69.4297 278.74C69.7897 278.533 70.1997 278.43 70.6597 278.43C71.153 278.43 71.5964 278.547 71.9897 278.78C72.383 279.013 72.693 279.343 72.9197 279.77C73.1464 280.19 73.2597 280.68 73.2597 281.24C73.2597 281.793 73.1464 282.287 72.9197 282.72C72.693 283.153 72.3797 283.49 71.9797 283.73C71.5864 283.97 71.1464 284.09 70.6597 284.09C70.1864 284.09 69.7697 283.987 69.4097 283.78C69.0564 283.573 68.7897 283.31 68.6097 282.99V284H67.6997V276.6H68.6097V279.54ZM72.3297 281.24C72.3297 280.827 72.2464 280.467 72.0797 280.16C71.913 279.853 71.6864 279.62 71.3997 279.46C71.1197 279.3 70.8097 279.22 70.4697 279.22C70.1364 279.22 69.8264 279.303 69.5397 279.47C69.2597 279.63 69.033 279.867 68.8597 280.18C68.693 280.487 68.6097 280.843 68.6097 281.25C68.6097 281.663 68.693 282.027 68.8597 282.34C69.033 282.647 69.2597 282.883 69.5397 283.05C69.8264 283.21 70.1364 283.29 70.4697 283.29C70.8097 283.29 71.1197 283.21 71.3997 283.05C71.6864 282.883 71.913 282.647 72.0797 282.34C72.2464 282.027 72.3297 281.66 72.3297 281.24ZM79.1775 278.52L75.8775 286.58H74.9375L76.0175 283.94L73.8075 278.52H74.8175L76.5375 282.96L78.2375 278.52H79.1775ZM81.2023 279.27V282.5C81.2023 282.767 81.2589 282.957 81.3723 283.07C81.4856 283.177 81.6823 283.23 81.9623 283.23H82.6323V284H81.8123C81.3056 284 80.9256 283.883 80.6723 283.65C80.4189 283.417 80.2923 283.033 80.2923 282.5V279.27H79.5823V278.52H80.2923V277.14H81.2023V278.52H82.6323V279.27H81.2023ZM88.7348 281.05C88.7348 281.223 88.7248 281.407 88.7048 281.6H84.3248C84.3582 282.14 84.5415 282.563 84.8748 282.87C85.2148 283.17 85.6248 283.32 86.1048 283.32C86.4982 283.32 86.8248 283.23 87.0848 283.05C87.3515 282.863 87.5382 282.617 87.6448 282.31H88.6248C88.4782 282.837 88.1848 283.267 87.7448 283.6C87.3048 283.927 86.7582 284.09 86.1048 284.09C85.5848 284.09 85.1182 283.973 84.7048 283.74C84.2982 283.507 83.9782 283.177 83.7448 282.75C83.5115 282.317 83.3948 281.817 83.3948 281.25C83.3948 280.683 83.5082 280.187 83.7348 279.76C83.9615 279.333 84.2782 279.007 84.6848 278.78C85.0982 278.547 85.5715 278.43 86.1048 278.43C86.6248 278.43 87.0848 278.543 87.4848 278.77C87.8848 278.997 88.1915 279.31 88.4048 279.71C88.6248 280.103 88.7348 280.55 88.7348 281.05ZM87.7948 280.86C87.7948 280.513 87.7182 280.217 87.5648 279.97C87.4115 279.717 87.2015 279.527 86.9348 279.4C86.6748 279.267 86.3848 279.2 86.0648 279.2C85.6048 279.2 85.2115 279.347 84.8848 279.64C84.5648 279.933 84.3815 280.34 84.3348 280.86H87.7948Z" fill="white"/>
<path d="M49.71 118.03V118.77H46.68V121.12H49.14V121.86H46.68V125H45.77V118.03H49.71ZM51.2791 118.63C51.1057 118.63 50.9591 118.57 50.8391 118.45C50.7191 118.33 50.6591 118.183 50.6591 118.01C50.6591 117.837 50.7191 117.69 50.8391 117.57C50.9591 117.45 51.1057 117.39 51.2791 117.39C51.4457 117.39 51.5857 117.45 51.6991 117.57C51.8191 117.69 51.8791 117.837 51.8791 118.01C51.8791 118.183 51.8191 118.33 51.6991 118.45C51.5857 118.57 51.4457 118.63 51.2791 118.63ZM51.7191 119.52V125H50.8091V119.52H51.7191ZM55.31 124.16L57.01 119.52H57.98L55.83 125H54.77L52.62 119.52H53.6L55.31 124.16ZM63.8755 122.05C63.8755 122.223 63.8655 122.407 63.8455 122.6H59.4655C59.4988 123.14 59.6821 123.563 60.0155 123.87C60.3555 124.17 60.7655 124.32 61.2455 124.32C61.6388 124.32 61.9655 124.23 62.2255 124.05C62.4921 123.863 62.6788 123.617 62.7855 123.31H63.7655C63.6188 123.837 63.3255 124.267 62.8855 124.6C62.4455 124.927 61.8988 125.09 61.2455 125.09C60.7255 125.09 60.2588 124.973 59.8455 124.74C59.4388 124.507 59.1188 124.177 58.8855 123.75C58.6521 123.317 58.5355 122.817 58.5355 122.25C58.5355 121.683 58.6488 121.187 58.8755 120.76C59.1021 120.333 59.4188 120.007 59.8255 119.78C60.2388 119.547 60.7121 119.43 61.2455 119.43C61.7655 119.43 62.2255 119.543 62.6255 119.77C63.0255 119.997 63.3321 120.31 63.5455 120.71C63.7655 121.103 63.8755 121.55 63.8755 122.05ZM62.9355 121.86C62.9355 121.513 62.8588 121.217 62.7055 120.97C62.5521 120.717 62.3421 120.527 62.0755 120.4C61.8155 120.267 61.5255 120.2 61.2055 120.2C60.7455 120.2 60.3521 120.347 60.0255 120.64C59.7055 120.933 59.5221 121.34 59.4755 121.86H62.9355ZM66.1866 120.27V123.5C66.1866 123.767 66.2433 123.957 66.3566 124.07C66.47 124.177 66.6666 124.23 66.9466 124.23H67.6166V125H66.7966C66.29 125 65.91 124.883 65.6566 124.65C65.4033 124.417 65.2766 124.033 65.2766 123.5V120.27H64.5666V119.52H65.2766V118.14H66.1866V119.52H67.6166V120.27H66.1866ZM69.6292 120.41C69.7892 120.097 70.0159 119.853 70.3092 119.68C70.6092 119.507 70.9726 119.42 71.3992 119.42V120.36H71.1592C70.1392 120.36 69.6292 120.913 69.6292 122.02V125H68.7192V119.52H69.6292V120.41ZM72.1097 122.24C72.1097 121.68 72.223 121.19 72.4497 120.77C72.6764 120.343 72.9864 120.013 73.3797 119.78C73.7797 119.547 74.223 119.43 74.7097 119.43C75.1897 119.43 75.6064 119.533 75.9597 119.74C76.313 119.947 76.5764 120.207 76.7497 120.52V119.52H77.6697V125H76.7497V123.98C76.5697 124.3 76.2997 124.567 75.9397 124.78C75.5864 124.987 75.173 125.09 74.6997 125.09C74.213 125.09 73.773 124.97 73.3797 124.73C72.9864 124.49 72.6764 124.153 72.4497 123.72C72.223 123.287 72.1097 122.793 72.1097 122.24ZM76.7497 122.25C76.7497 121.837 76.6664 121.477 76.4997 121.17C76.333 120.863 76.1064 120.63 75.8197 120.47C75.5397 120.303 75.2297 120.22 74.8897 120.22C74.5497 120.22 74.2397 120.3 73.9597 120.46C73.6797 120.62 73.4564 120.853 73.2897 121.16C73.123 121.467 73.0397 121.827 73.0397 122.24C73.0397 122.66 73.123 123.027 73.2897 123.34C73.4564 123.647 73.6797 123.883 73.9597 124.05C74.2397 124.21 74.5497 124.29 74.8897 124.29C75.2297 124.29 75.5397 124.21 75.8197 124.05C76.1064 123.883 76.333 123.647 76.4997 123.34C76.6664 123.027 76.7497 122.663 76.7497 122.25ZM81.8775 119.42C82.5442 119.42 83.0842 119.623 83.4975 120.03C83.9108 120.43 84.1175 121.01 84.1175 121.77V125H83.2175V121.9C83.2175 121.353 83.0808 120.937 82.8075 120.65C82.5342 120.357 82.1608 120.21 81.6875 120.21C81.2075 120.21 80.8242 120.36 80.5375 120.66C80.2575 120.96 80.1175 121.397 80.1175 121.97V125H79.2075V119.52H80.1175V120.3C80.2975 120.02 80.5408 119.803 80.8475 119.65C81.1608 119.497 81.5042 119.42 81.8775 119.42Z" fill="white"/>
<path d="M37.94 192.03C38.7 192.03 39.3567 192.173 39.91 192.46C40.47 192.74 40.8967 193.143 41.19 193.67C41.49 194.197 41.64 194.817 41.64 195.53C41.64 196.243 41.49 196.863 41.19 197.39C40.8967 197.91 40.47 198.31 39.91 198.59C39.3567 198.863 38.7 199 37.94 199H35.77V192.03H37.94ZM37.94 198.25C38.84 198.25 39.5267 198.013 40 197.54C40.4733 197.06 40.71 196.39 40.71 195.53C40.71 194.663 40.47 193.987 39.99 193.5C39.5167 193.013 38.8333 192.77 37.94 192.77H36.68V198.25H37.94ZM47.8403 196.05C47.8403 196.223 47.8303 196.407 47.8103 196.6H43.4303C43.4636 197.14 43.647 197.563 43.9803 197.87C44.3203 198.17 44.7303 198.32 45.2103 198.32C45.6036 198.32 45.9303 198.23 46.1903 198.05C46.457 197.863 46.6436 197.617 46.7503 197.31H47.7303C47.5836 197.837 47.2903 198.267 46.8503 198.6C46.4103 198.927 45.8636 199.09 45.2103 199.09C44.6903 199.09 44.2236 198.973 43.8103 198.74C43.4036 198.507 43.0836 198.177 42.8503 197.75C42.617 197.317 42.5003 196.817 42.5003 196.25C42.5003 195.683 42.6136 195.187 42.8403 194.76C43.067 194.333 43.3836 194.007 43.7903 193.78C44.2036 193.547 44.677 193.43 45.2103 193.43C45.7303 193.43 46.1903 193.543 46.5903 193.77C46.9903 193.997 47.297 194.31 47.5103 194.71C47.7303 195.103 47.8403 195.55 47.8403 196.05ZM46.9003 195.86C46.9003 195.513 46.8236 195.217 46.6703 194.97C46.517 194.717 46.307 194.527 46.0403 194.4C45.7803 194.267 45.4903 194.2 45.1703 194.2C44.7103 194.2 44.317 194.347 43.9903 194.64C43.6703 194.933 43.487 195.34 43.4403 195.86H46.9003ZM49.9515 194.54C50.1382 194.213 50.4115 193.947 50.7715 193.74C51.1315 193.533 51.5415 193.43 52.0015 193.43C52.4948 193.43 52.9382 193.547 53.3315 193.78C53.7248 194.013 54.0348 194.343 54.2615 194.77C54.4882 195.19 54.6015 195.68 54.6015 196.24C54.6015 196.793 54.4882 197.287 54.2615 197.72C54.0348 198.153 53.7215 198.49 53.3215 198.73C52.9282 198.97 52.4882 199.09 52.0015 199.09C51.5282 199.09 51.1115 198.987 50.7515 198.78C50.3982 198.573 50.1315 198.31 49.9515 197.99V199H49.0415V191.6H49.9515V194.54ZM53.6715 196.24C53.6715 195.827 53.5882 195.467 53.4215 195.16C53.2548 194.853 53.0282 194.62 52.7415 194.46C52.4615 194.3 52.1515 194.22 51.8115 194.22C51.4782 194.22 51.1682 194.303 50.8815 194.47C50.6015 194.63 50.3748 194.867 50.2015 195.18C50.0348 195.487 49.9515 195.843 49.9515 196.25C49.9515 196.663 50.0348 197.027 50.2015 197.34C50.3748 197.647 50.6015 197.883 50.8815 198.05C51.1682 198.21 51.4782 198.29 51.8115 198.29C52.1515 198.29 52.4615 198.21 52.7415 198.05C53.0282 197.883 53.2548 197.647 53.4215 197.34C53.5882 197.027 53.6715 196.66 53.6715 196.24ZM60.7993 196.05C60.7993 196.223 60.7893 196.407 60.7693 196.6H56.3893C56.4226 197.14 56.606 197.563 56.9393 197.87C57.2793 198.17 57.6893 198.32 58.1693 198.32C58.5626 198.32 58.8893 198.23 59.1493 198.05C59.416 197.863 59.6026 197.617 59.7093 197.31H60.6893C60.5426 197.837 60.2493 198.267 59.8093 198.6C59.3693 198.927 58.8226 199.09 58.1693 199.09C57.6493 199.09 57.1826 198.973 56.7693 198.74C56.3626 198.507 56.0426 198.177 55.8093 197.75C55.576 197.317 55.4593 196.817 55.4593 196.25C55.4593 195.683 55.5726 195.187 55.7993 194.76C56.026 194.333 56.3426 194.007 56.7493 193.78C57.1626 193.547 57.636 193.43 58.1693 193.43C58.6893 193.43 59.1493 193.543 59.5493 193.77C59.9493 193.997 60.256 194.31 60.4693 194.71C60.6893 195.103 60.7993 195.55 60.7993 196.05ZM59.8593 195.86C59.8593 195.513 59.7826 195.217 59.6293 194.97C59.476 194.717 59.266 194.527 58.9993 194.4C58.7393 194.267 58.4493 194.2 58.1293 194.2C57.6693 194.2 57.276 194.347 56.9493 194.64C56.6293 194.933 56.446 195.34 56.3993 195.86H59.8593ZM62.6805 198.25H65.3705V199H61.6405V198.25L64.3005 194.26H61.6605V193.52H65.3505V194.26L62.6805 198.25ZM67.0213 192.63C66.8479 192.63 66.7013 192.57 66.5813 192.45C66.4613 192.33 66.4013 192.183 66.4013 192.01C66.4013 191.837 66.4613 191.69 66.5813 191.57C66.7013 191.45 66.8479 191.39 67.0213 191.39C67.1879 191.39 67.3279 191.45 67.4413 191.57C67.5613 191.69 67.6213 191.837 67.6213 192.01C67.6213 192.183 67.5613 192.33 67.4413 192.45C67.3279 192.57 67.1879 192.63 67.0213 192.63ZM67.4613 193.52V199H66.5513V193.52H67.4613ZM73.8722 193.52V199H72.9622V198.19C72.7889 198.47 72.5455 198.69 72.2322 198.85C71.9255 199.003 71.5855 199.08 71.2122 199.08C70.7855 199.08 70.4022 198.993 70.0622 198.82C69.7222 198.64 69.4522 198.373 69.2522 198.02C69.0589 197.667 68.9622 197.237 68.9622 196.73V193.52H69.8622V196.61C69.8622 197.15 69.9989 197.567 70.2722 197.86C70.5455 198.147 70.9189 198.29 71.3922 198.29C71.8789 198.29 72.2622 198.14 72.5422 197.84C72.8222 197.54 72.9622 197.103 72.9622 196.53V193.52H73.8722ZM81.9987 193.42C82.4253 193.42 82.8053 193.51 83.1387 193.69C83.472 193.863 83.7353 194.127 83.9287 194.48C84.122 194.833 84.2187 195.263 84.2187 195.77V199H83.3187V195.9C83.3187 195.353 83.182 194.937 82.9087 194.65C82.642 194.357 82.2787 194.21 81.8187 194.21C81.3453 194.21 80.9687 194.363 80.6887 194.67C80.4087 194.97 80.2687 195.407 80.2687 195.98V199H79.3687V195.9C79.3687 195.353 79.232 194.937 78.9587 194.65C78.692 194.357 78.3287 194.21 77.8687 194.21C77.3953 194.21 77.0187 194.363 76.7387 194.67C76.4587 194.97 76.3187 195.407 76.3187 195.98V199H75.4087V193.52H76.3187V194.31C76.4987 194.023 76.7387 193.803 77.0387 193.65C77.3453 193.497 77.682 193.42 78.0487 193.42C78.5087 193.42 78.9153 193.523 79.2687 193.73C79.622 193.937 79.8853 194.24 80.0587 194.64C80.212 194.253 80.4653 193.953 80.8187 193.74C81.172 193.527 81.5653 193.42 81.9987 193.42Z" fill="white"/>
<path d="M50.716 63.084C49.94 63.084 49.232 62.904 48.592 62.544C47.952 62.176 47.444 61.668 47.068 61.02C46.7 60.364 46.516 59.628 46.516 58.812C46.516 57.996 46.7 57.264 47.068 56.616C47.444 55.96 47.952 55.452 48.592 55.092C49.232 54.724 49.94 54.54 50.716 54.54C51.5 54.54 52.212 54.724 52.852 55.092C53.492 55.452 53.996 55.956 54.364 56.604C54.732 57.252 54.916 57.988 54.916 58.812C54.916 59.636 54.732 60.372 54.364 61.02C53.996 61.668 53.492 62.176 52.852 62.544C52.212 62.904 51.5 63.084 50.716 63.084ZM50.716 62.136C51.3 62.136 51.824 62 52.288 61.728C52.76 61.456 53.128 61.068 53.392 60.564C53.664 60.06 53.8 59.476 53.8 58.812C53.8 58.14 53.664 57.556 53.392 57.06C53.128 56.556 52.764 56.168 52.3 55.896C51.836 55.624 51.308 55.488 50.716 55.488C50.124 55.488 49.596 55.624 49.132 55.896C48.668 56.168 48.3 56.556 48.028 57.06C47.764 57.556 47.632 58.14 47.632 58.812C47.632 59.476 47.764 60.06 48.028 60.564C48.3 61.068 48.668 61.456 49.132 61.728C49.604 62 50.132 62.136 50.716 62.136ZM57.4496 62.112H60.3776V63H56.3576V54.636H57.4496V62.112ZM61.1293 59.688C61.1293 59.016 61.2653 58.428 61.5373 57.924C61.8093 57.412 62.1813 57.016 62.6533 56.736C63.1333 56.456 63.6653 56.316 64.2493 56.316C64.8253 56.316 65.3253 56.44 65.7493 56.688C66.1733 56.936 66.4893 57.248 66.6973 57.624V56.424H67.8013V63H66.6973V61.776C66.4813 62.16 66.1573 62.48 65.7253 62.736C65.3013 62.984 64.8053 63.108 64.2373 63.108C63.6533 63.108 63.1253 62.964 62.6533 62.676C62.1813 62.388 61.8093 61.984 61.5373 61.464C61.2653 60.944 61.1293 60.352 61.1293 59.688ZM66.6973 59.7C66.6973 59.204 66.5973 58.772 66.3973 58.404C66.1973 58.036 65.9253 57.756 65.5813 57.564C65.2453 57.364 64.8733 57.264 64.4653 57.264C64.0573 57.264 63.6853 57.36 63.3493 57.552C63.0133 57.744 62.7453 58.024 62.5453 58.392C62.3453 58.76 62.2453 59.192 62.2453 59.688C62.2453 60.192 62.3453 60.632 62.5453 61.008C62.7453 61.376 63.0133 61.66 63.3493 61.86C63.6853 62.052 64.0573 62.148 64.4653 62.148C64.8733 62.148 65.2453 62.052 65.5813 61.86C65.9253 61.66 66.1973 61.376 66.3973 61.008C66.5973 60.632 66.6973 60.196 66.6973 59.7ZM73.3187 63L70.7387 60.096V63H69.6467V54.12H70.7387V59.34L73.2707 56.424H74.7947L71.6987 59.7L74.8067 63H73.3187ZM81.8224 59.46C81.8224 59.668 81.8104 59.888 81.7864 60.12H76.5304C76.5704 60.768 76.7904 61.276 77.1904 61.644C77.5984 62.004 78.0904 62.184 78.6664 62.184C79.1384 62.184 79.5304 62.076 79.8424 61.86C80.1624 61.636 80.3864 61.34 80.5144 60.972H81.6904C81.5144 61.604 81.1624 62.12 80.6344 62.52C80.1064 62.912 79.4504 63.108 78.6664 63.108C78.0424 63.108 77.4824 62.968 76.9864 62.688C76.4984 62.408 76.1144 62.012 75.8344 61.5C75.5544 60.98 75.4144 60.38 75.4144 59.7C75.4144 59.02 75.5504 58.424 75.8224 57.912C76.0944 57.4 76.4744 57.008 76.9624 56.736C77.4584 56.456 78.0264 56.316 78.6664 56.316C79.2904 56.316 79.8424 56.452 80.3224 56.724C80.8024 56.996 81.1704 57.372 81.4264 57.852C81.6904 58.324 81.8224 58.86 81.8224 59.46ZM80.6944 59.232C80.6944 58.816 80.6024 58.46 80.4184 58.164C80.2344 57.86 79.9824 57.632 79.6624 57.48C79.3504 57.32 79.0024 57.24 78.6184 57.24C78.0664 57.24 77.5944 57.416 77.2024 57.768C76.8184 58.12 76.5984 58.608 76.5424 59.232H80.6944Z" fill="white"/>
</g>
<defs>
<linearGradient id="paint0_linear_1_1066" x1="309" y1="643" x2="0" y2="643" gradientUnits="userSpaceOnUse">
<stop stop-color="#202020" stop-opacity="0"/>
<stop offset="1" stop-color="#202020"/>
</linearGradient>
<clipPath id="clip0_1_1066">
<rect width="538" height="374" rx="8" fill="white"/>
</clipPath>
</defs>
</svg>
