<svg width="142" height="142" viewBox="0 0 142 142" fill="none" xmlns="http://www.w3.org/2000/svg">
<g filter="url(#filter0_d_163_167)">
<rect x="31" y="31" width="80" height="80" rx="18" fill="#1F1F1F"/>
<rect x="32" y="32" width="78" height="78" rx="17" stroke="url(#paint0_linear_163_167)" stroke-width="2"/>
<path d="M71 51C59.95 51 51 59.95 51 71C51 79.85 56.725 87.325 64.675 89.975C65.675 90.15 66.05 89.55 66.05 89.025C66.05 88.55 66.025 86.975 66.025 85.3C61 86.225 59.7 84.075 59.3 82.95C59.075 82.375 58.1 80.6 57.25 80.125C56.55 79.75 55.55 78.825 57.225 78.8C58.8 78.775 59.925 80.25 60.3 80.85C62.1 83.875 64.975 83.025 66.125 82.5C66.3 81.2 66.825 80.325 67.4 79.825C62.95 79.325 58.3 77.6 58.3 69.95C58.3 67.775 59.075 65.975 60.35 64.575C60.15 64.075 59.45 62.025 60.55 59.275C60.55 59.275 62.225 58.75 66.05 61.325C67.65 60.875 69.35 60.65 71.05 60.65C72.75 60.65 74.45 60.875 76.05 61.325C79.875 58.725 81.55 59.275 81.55 59.275C82.65 62.025 81.95 64.075 81.75 64.575C83.025 65.975 83.8 67.75 83.8 69.95C83.8 77.625 79.125 79.325 74.675 79.825C75.4 80.45 76.025 81.65 76.025 83.525C76.025 86.2 76 88.35 76 89.025C76 89.55 76.375 90.175 77.375 89.975C85.516 87.2266 90.9978 79.5926 91 71C91 59.95 82.05 51 71 51Z" fill="#3454FA"/>
</g>
<defs>
<filter id="filter0_d_163_167" x="0.883339" y="0.883339" width="140.233" height="140.233" filterUnits="userSpaceOnUse" color-interpolation-filters="sRGB">
<feFlood flood-opacity="0" result="BackgroundImageFix"/>
<feColorMatrix in="SourceAlpha" type="matrix" values="0 0 0 0 0 0 0 0 0 0 0 0 0 0 0 0 0 0 127 0" result="hardAlpha"/>
<feOffset/>
<feGaussianBlur stdDeviation="15.0583"/>
<feComposite in2="hardAlpha" operator="out"/>
<feColorMatrix type="matrix" values="0 0 0 0 0.0980392 0 0 0 0 0.227451 0 0 0 0 0.901961 0 0 0 1 0"/>
<feBlend mode="normal" in2="BackgroundImageFix" result="effect1_dropShadow_163_167"/>
<feBlend mode="normal" in="SourceGraphic" in2="effect1_dropShadow_163_167" result="shape"/>
</filter>
<linearGradient id="paint0_linear_163_167" x1="14.3979" y1="26.2038" x2="86.3404" y2="115.486" gradientUnits="userSpaceOnUse">
<stop stop-color="#193AE6"/>
<stop offset="1" stop-color="#546ADE"/>
</linearGradient>
</defs>
</svg>
