<svg width="648" height="643" viewBox="0 0 648 643" fill="none" xmlns="http://www.w3.org/2000/svg">
<g clip-path="url(#clip0_976_4033)">
<rect width="648" height="643" rx="24" fill="#292929"/>
<g opacity="0.05">
<path d="M-70.9053 -64.7017C-70.9053 -64.7017 -337.7 512.999 52.1139 578.304C441.927 643.61 259.302 1085.88 1050.29 745.529C1841.29 405.175 1078.89 1422.05 1078.89 1422.05" stroke="white"/>
<path d="M234.11 -385.678C234.11 -385.678 -32.6839 192.022 357.129 257.327C746.943 322.633 564.317 764.907 1355.31 424.553C2146.3 84.1985 1383.91 1101.08 1383.91 1101.08" stroke="white"/>
<path d="M-68.1162 -67.6392C-68.1162 -67.6392 -334.91 510.061 54.9029 575.367C444.716 640.672 262.091 1082.95 1053.08 742.592C1844.07 402.238 1081.68 1419.12 1081.68 1419.12" stroke="white"/>
<path d="M-64.8584 -71.0689C-64.8584 -71.0689 -331.653 506.631 58.1607 571.937C447.974 637.242 265.348 1079.52 1056.34 739.162C1847.33 398.808 1084.94 1415.69 1084.94 1415.69" stroke="white"/>
<path d="M-61.1279 -74.9907C-61.1279 -74.9907 -327.922 502.709 61.8912 568.015C451.705 633.32 269.079 1075.59 1060.07 735.24C1851.06 394.886 1088.67 1411.76 1088.67 1411.76" stroke="white"/>
<path d="M-56.9287 -79.4126C-56.9287 -79.4126 -323.723 498.288 66.0904 563.593C455.904 628.899 273.278 1071.17 1064.27 730.818C1855.26 390.464 1092.87 1407.34 1092.87 1407.34" stroke="white"/>
<path d="M-52.2608 -84.3267C-52.2608 -84.3267 -319.055 493.374 70.7584 558.679C460.572 623.985 277.946 1066.26 1068.94 725.904C1859.93 385.55 1097.54 1402.43 1097.54 1402.43" stroke="white"/>
<path d="M-47.1201 -89.7329C-47.1201 -89.7329 -313.914 487.967 75.899 553.273C465.712 618.578 283.087 1060.85 1074.08 720.498C1865.07 380.144 1102.68 1397.02 1102.68 1397.02" stroke="white"/>
<path d="M-41.5108 -95.6392C-41.5108 -95.6392 -308.305 482.061 81.5084 547.367C471.322 612.672 288.696 1054.95 1079.69 714.592C1870.68 374.238 1108.29 1391.12 1108.29 1391.12" stroke="white"/>
<path d="M-35.4326 -102.038C-35.4326 -102.038 -302.227 475.663 87.5865 540.968C477.4 606.274 294.774 1048.55 1085.77 708.193C1876.76 367.839 1114.36 1384.72 1114.36 1384.72" stroke="white"/>
<path d="M-28.8819 -108.928C-28.8819 -108.928 -295.676 468.772 94.1373 534.077C483.951 599.383 301.325 1041.66 1092.32 701.303C1883.31 360.948 1120.92 1377.83 1120.92 1377.83" stroke="white"/>
<path d="M-21.8623 -116.319C-21.8623 -116.319 -288.657 461.381 101.157 526.687C490.97 591.992 308.345 1034.27 1099.34 693.912C1890.33 353.558 1127.93 1370.44 1127.93 1370.44" stroke="white"/>
<path d="M-14.374 -124.194C-14.374 -124.194 -281.168 453.506 108.645 518.812C498.458 584.117 315.833 1026.39 1106.82 686.037C1897.82 345.683 1135.42 1362.56 1135.42 1362.56" stroke="white"/>
<path d="M-6.4131 -132.569C-6.4131 -132.569 -273.207 445.131 116.606 510.437C506.419 575.742 323.794 1018.02 1114.79 677.662C1905.78 337.308 1143.38 1354.19 1143.38 1354.19" stroke="white"/>
<path d="M2.01268 -141.436C2.01268 -141.436 -264.782 436.264 125.032 501.57C514.845 566.875 332.22 1009.15 1123.21 668.795C1914.2 328.441 1151.81 1345.32 1151.81 1345.32" stroke="white"/>
<path d="M10.915 -150.803C10.915 -150.803 -255.879 426.897 133.934 492.202C523.748 557.508 341.122 999.782 1132.11 659.428C1923.11 319.073 1160.71 1335.95 1160.71 1335.95" stroke="white"/>
<path d="M20.2861 -160.663C20.2861 -160.663 -246.508 417.038 143.305 482.343C533.119 547.649 350.493 989.923 1141.48 649.568C1932.48 309.214 1170.08 1326.09 1170.08 1326.09" stroke="white"/>
<path d="M30.1221 -171.014C30.1221 -171.014 -236.672 406.686 153.141 471.992C542.955 537.297 360.329 979.571 1151.32 639.217C1942.31 298.863 1179.92 1315.74 1179.92 1315.74" stroke="white"/>
<path d="M40.4346 -181.866C40.4346 -181.866 -226.36 395.834 163.454 461.14C553.267 526.445 370.641 968.72 1161.63 628.365C1952.63 288.011 1190.23 1304.89 1190.23 1304.89" stroke="white"/>
<path d="M51.2119 -193.209C51.2119 -193.209 -215.582 384.491 174.231 449.796C564.044 515.102 381.419 957.376 1172.41 617.022C1963.4 276.667 1201.01 1293.55 1201.01 1293.55" stroke="white"/>
<path d="M62.458 -205.045C62.458 -205.045 -204.336 372.655 185.477 437.96C575.29 503.266 392.665 945.54 1183.66 605.186C1974.65 264.831 1212.26 1281.71 1212.26 1281.71" stroke="white"/>
<path d="M74.1767 -217.374C74.1767 -217.374 -192.617 360.327 197.196 425.632C587.009 490.938 404.384 933.212 1195.38 592.857C1986.37 252.503 1223.97 1269.38 1223.97 1269.38" stroke="white"/>
<path d="M86.3681 -230.209C86.3681 -230.209 -180.426 347.491 209.387 412.796C599.201 478.102 416.575 920.376 1207.57 580.022C1998.56 239.667 1236.17 1256.55 1236.17 1256.55" stroke="white"/>
<path d="M99.0283 -243.53C99.0283 -243.53 -167.766 334.17 222.047 399.476C611.861 464.781 429.235 907.055 1220.23 566.701C2011.22 226.347 1248.83 1243.22 1248.83 1243.22" stroke="white"/>
<path d="M112.153 -257.342C112.153 -257.342 -154.641 320.358 235.172 385.663C624.986 450.969 442.36 893.243 1233.35 552.889C2024.34 212.534 1261.95 1229.41 1261.95 1229.41" stroke="white"/>
<path d="M125.755 -271.655C125.755 -271.655 -141.039 306.045 248.774 371.351C638.587 436.656 455.962 878.93 1246.95 538.576C2037.95 198.222 1275.55 1215.1 1275.55 1215.1" stroke="white"/>
<path d="M139.825 -286.459C139.825 -286.459 -126.969 291.241 262.844 356.546C652.658 421.852 470.032 864.126 1261.02 523.772C2052.02 183.417 1289.62 1200.3 1289.62 1200.3" stroke="white"/>
<path d="M154.364 -301.756C154.364 -301.756 -112.43 275.944 277.383 341.249C667.197 406.555 484.571 848.829 1275.56 508.475C2066.55 168.12 1304.16 1185 1304.16 1185" stroke="white"/>
<path d="M169.372 -317.553C169.372 -317.553 -97.4222 260.147 292.391 325.452C682.205 390.758 499.579 833.032 1290.57 492.678C2081.56 152.323 1319.17 1169.2 1319.17 1169.2" stroke="white"/>
<path d="M184.853 -333.842C184.853 -333.842 -81.9417 243.858 307.872 309.163C697.685 374.469 515.059 816.743 1306.05 476.389C2097.04 136.034 1334.65 1152.91 1334.65 1152.91" stroke="white"/>
<path d="M200.802 -350.624C200.802 -350.624 -65.9925 227.077 323.821 292.382C713.634 357.688 531.009 799.962 1322 459.607C2112.99 119.253 1350.6 1136.13 1350.6 1136.13" stroke="white"/>
<path d="M217.22 -367.905C217.22 -367.905 -49.5745 209.795 340.239 275.101C730.052 340.406 547.427 782.68 1338.42 442.326C2129.41 101.972 1367.02 1118.85 1367.02 1118.85" stroke="white"/>
</g>
<rect x="24" y="24" width="81" height="30" rx="15" fill="#1F1F1F"/>
<path d="M37.7345 44V34.06H43.5165V35.292H39.0365V38.302H42.5785V39.534H39.0365V44H37.7345ZM47.1432 44.14C46.3778 44.14 45.7572 43.8833 45.2812 43.37C44.8052 42.8473 44.5672 42.1567 44.5672 41.298V37H45.7712V41.116C45.7712 41.704 45.9112 42.1707 46.1912 42.516C46.4805 42.8613 46.8678 43.034 47.3532 43.034C47.9132 43.034 48.3752 42.8053 48.7392 42.348C49.1125 41.8813 49.2992 41.256 49.2992 40.472V37H50.5032V44H49.2992V42.922C48.8418 43.734 48.1232 44.14 47.1432 44.14ZM52.9126 44V33.5H54.1166V44H52.9126ZM56.5389 44V33.5H57.7429V44H56.5389ZM63.6822 44V33.5H64.8862V44H63.6822ZM70.4165 44.14C69.3619 44.14 68.4845 43.79 67.7845 43.09C67.0939 42.3807 66.7485 41.5173 66.7485 40.5C66.7485 39.4827 67.0939 38.624 67.7845 37.924C68.4845 37.2147 69.3619 36.86 70.4165 36.86C71.4619 36.86 72.3299 37.2147 73.0205 37.924C73.7205 38.624 74.0705 39.4827 74.0705 40.5C74.0705 41.5173 73.7205 42.3807 73.0205 43.09C72.3299 43.79 71.4619 44.14 70.4165 44.14ZM68.6525 42.292C69.1099 42.7773 69.6979 43.02 70.4165 43.02C71.1352 43.02 71.7185 42.7773 72.1665 42.292C72.6145 41.8067 72.8385 41.2093 72.8385 40.5C72.8385 39.7907 72.6145 39.1933 72.1665 38.708C71.7185 38.2227 71.1352 37.98 70.4165 37.98C69.6979 37.98 69.1099 38.2227 68.6525 38.708C68.2045 39.1933 67.9805 39.7907 67.9805 40.5C67.9805 41.2093 68.2045 41.8067 68.6525 42.292ZM78.8228 44.14C77.8521 44.14 77.0354 43.7853 76.3728 43.076C75.7194 42.3667 75.3928 41.508 75.3928 40.5C75.3928 39.492 75.7194 38.6333 76.3728 37.924C77.0354 37.2147 77.8521 36.86 78.8228 36.86C79.3361 36.86 79.8121 36.9767 80.2508 37.21C80.6988 37.434 81.0441 37.7233 81.2868 38.078V37H82.4908V44H81.2868V42.922C81.0441 43.2767 80.6988 43.5707 80.2508 43.804C79.8121 44.028 79.3361 44.14 78.8228 44.14ZM79.0048 43.034C79.6954 43.034 80.2648 42.7913 80.7128 42.306C81.1608 41.8207 81.3848 41.2187 81.3848 40.5C81.3848 39.7813 81.1608 39.1793 80.7128 38.694C80.2648 38.2087 79.6954 37.966 79.0048 37.966C78.3048 37.966 77.7308 38.2087 77.2828 38.694C76.8348 39.1793 76.6108 39.7813 76.6108 40.5C76.6108 41.2187 76.8348 41.8207 77.2828 42.306C77.7308 42.7913 78.3048 43.034 79.0048 43.034ZM87.7811 44.14C86.8105 44.14 85.9938 43.7853 85.3311 43.076C84.6778 42.3667 84.3511 41.508 84.3511 40.5C84.3511 39.492 84.6778 38.6333 85.3311 37.924C85.9938 37.2147 86.8105 36.86 87.7811 36.86C88.2945 36.86 88.7705 36.9767 89.2091 37.21C89.6571 37.434 90.0025 37.7233 90.2451 38.078V33.5H91.4491V44H90.2451V42.922C90.0025 43.2767 89.6571 43.5707 89.2091 43.804C88.7705 44.028 88.2945 44.14 87.7811 44.14ZM87.9631 43.034C88.6538 43.034 89.2231 42.7913 89.6711 42.306C90.1191 41.8207 90.3431 41.2187 90.3431 40.5C90.3431 39.7813 90.1191 39.1793 89.6711 38.694C89.2231 38.2087 88.6538 37.966 87.9631 37.966C87.2631 37.966 86.6891 38.2087 86.2411 38.694C85.7931 39.1793 85.5691 39.7813 85.5691 40.5C85.5691 41.2187 85.7931 41.8207 86.2411 42.306C86.6891 42.7913 87.2631 43.034 87.9631 43.034Z" fill="white"/>
<path d="M31.392 124V97.072H24L29.184 89.92H38.64V124H31.392ZM57.5464 124.528C54.1224 124.528 51.1624 123.504 48.6664 121.456C46.1704 119.376 44.8584 116.48 44.7304 112.768H51.9304C52.0904 114.304 52.6664 115.456 53.6584 116.224C54.6504 116.992 55.9464 117.376 57.5464 117.376C58.9544 117.376 60.0744 117.04 60.9064 116.368C61.7704 115.664 62.2184 114.752 62.2504 113.632C62.2824 112.416 61.8344 111.424 60.9064 110.656C59.9784 109.888 58.7464 109.504 57.2104 109.504H54.2344V103.696H56.8264C59.7384 103.696 61.2264 102.464 61.2904 100C61.3224 98.976 60.9704 98.144 60.2344 97.504C59.4984 96.832 58.5544 96.496 57.4024 96.496C55.9944 96.496 54.8424 96.912 53.9464 97.744C53.0504 98.576 52.6184 99.584 52.6504 100.768H45.4024C45.4024 97.312 46.6024 94.544 49.0024 92.464C51.4344 90.384 54.2344 89.344 57.4024 89.344C60.8904 89.344 63.6264 90.32 65.6104 92.272C67.5944 94.192 68.5864 96.56 68.5864 99.376C68.5864 100.912 68.2344 102.336 67.5304 103.648C66.8584 104.928 66.0264 105.952 65.0344 106.72C66.3144 107.36 67.3864 108.32 68.2504 109.6C69.1144 110.88 69.5464 112.432 69.5464 114.256C69.5464 117.264 68.4264 119.728 66.1864 121.648C63.9784 123.568 61.0984 124.528 57.5464 124.528ZM91.4269 124L86.3389 117.472L81.2509 124H72.5629L81.7789 112.384L72.6589 100H81.2029L86.2909 107.008L91.3789 100H100.019L90.8989 112.384L100.067 124H91.4269Z" fill="#3552E9"/>
<path d="M25.504 156V144.64H32.112V146.048H26.992V149.488H31.04V150.896H26.992V156H25.504ZM36.6426 156.16C35.5333 156.16 34.6 155.755 33.8426 154.944C33.096 154.133 32.7226 153.152 32.7226 152C32.7226 150.848 33.096 149.867 33.8426 149.056C34.6 148.245 35.5333 147.84 36.6426 147.84C37.2293 147.84 37.7733 147.973 38.2746 148.24C38.7866 148.496 39.1813 148.827 39.4586 149.232V148H40.8346V156H39.4586V154.768C39.1813 155.173 38.7866 155.509 38.2746 155.776C37.7733 156.032 37.2293 156.16 36.6426 156.16ZM36.8506 154.896C37.64 154.896 38.2906 154.619 38.8026 154.064C39.3146 153.509 39.5706 152.821 39.5706 152C39.5706 151.179 39.3146 150.491 38.8026 149.936C38.2906 149.381 37.64 149.104 36.8506 149.104C36.0506 149.104 35.3946 149.381 34.8826 149.936C34.3706 150.491 34.1146 151.179 34.1146 152C34.1146 152.821 34.3706 153.509 34.8826 154.064C35.3946 154.619 36.0506 154.896 36.8506 154.896ZM46.0007 156.16C45.2647 156.16 44.6194 156.005 44.0647 155.696C43.5101 155.376 43.1101 154.912 42.8647 154.304L43.9847 153.68C44.1341 154.075 44.3954 154.384 44.7687 154.608C45.1421 154.832 45.5581 154.944 46.0167 154.944C46.4114 154.944 46.7421 154.848 47.0087 154.656C47.2754 154.464 47.4088 154.203 47.4088 153.872C47.4088 153.584 47.3021 153.344 47.0887 153.152C46.8861 152.96 46.5287 152.784 46.0167 152.624L45.2167 152.368C43.8834 151.984 43.2167 151.205 43.2167 150.032C43.2167 149.371 43.4781 148.843 44.0007 148.448C44.5341 148.043 45.1901 147.84 45.9687 147.84C47.1847 147.84 48.0647 148.304 48.6087 149.232L47.5848 149.936C47.1474 149.328 46.5927 149.024 45.9207 149.024C45.5581 149.024 45.2434 149.115 44.9767 149.296C44.7207 149.467 44.5927 149.696 44.5927 149.984C44.5927 150.251 44.6727 150.48 44.8327 150.672C45.0034 150.853 45.3021 151.008 45.7287 151.136L46.6087 151.408C48.0594 151.856 48.7847 152.64 48.7847 153.76C48.7847 154.507 48.5234 155.093 48.0008 155.52C47.4887 155.947 46.8221 156.16 46.0007 156.16ZM53.9737 156.08C53.2377 156.08 52.6457 155.872 52.1977 155.456C51.7497 155.04 51.5257 154.432 51.5257 153.632V149.264H49.8297V148H51.5257V145.776H52.9017V148H55.2057V149.264H52.9017V153.456C52.9017 153.957 53.0084 154.309 53.2217 154.512C53.4351 154.715 53.7711 154.816 54.2297 154.816C54.6351 154.816 54.9604 154.763 55.2057 154.656V155.888C54.8217 156.016 54.4111 156.08 53.9737 156.08ZM60.5341 156.16C59.3075 156.16 58.3101 155.765 57.5421 154.976C56.7741 154.187 56.3901 153.195 56.3901 152C56.3901 150.816 56.7795 149.829 57.5581 149.04C58.3368 148.24 59.3341 147.84 60.5501 147.84C61.6275 147.84 62.5288 148.203 63.2541 148.928C63.9901 149.643 64.3581 150.619 64.3581 151.856C64.3581 152.016 64.3528 152.155 64.3421 152.272H57.7821C57.8035 153.019 58.0701 153.643 58.5821 154.144C59.1048 154.645 59.7608 154.896 60.5501 154.896C61.6701 154.896 62.5021 154.432 63.0461 153.504L64.1341 154.256C63.3555 155.525 62.1555 156.16 60.5341 156.16ZM57.8781 151.152H62.9501C62.8435 150.512 62.5608 150.005 62.1021 149.632C61.6541 149.248 61.1208 149.056 60.5021 149.056C59.8728 149.056 59.3075 149.248 58.8061 149.632C58.3155 150.005 58.0061 150.512 57.8781 151.152ZM66.471 156V148H67.847V149.552C67.9963 149.061 68.2843 148.667 68.711 148.368C69.1483 148.069 69.607 147.92 70.087 147.92C70.3217 147.92 70.5297 147.941 70.711 147.984V149.408C70.519 149.323 70.2683 149.28 69.959 149.28C69.4043 149.28 68.9137 149.52 68.487 150C68.0603 150.48 67.847 151.157 67.847 152.032V156H66.471ZM76.5724 156V149.264H74.8764V148H76.5724V146.384C76.5724 145.584 76.7964 144.971 77.2444 144.544C77.6924 144.117 78.2844 143.904 79.0204 143.904C79.4577 143.904 79.8737 143.973 80.2684 144.112V145.328C80.023 145.221 79.6924 145.168 79.2764 145.168C78.8177 145.168 78.4817 145.269 78.2684 145.472C78.055 145.675 77.9484 146.027 77.9484 146.528V148H80.2684V149.264H77.9484V156H76.5724ZM84.7674 156.16C83.8927 156.16 83.1834 155.867 82.6394 155.28C82.0954 154.683 81.8234 153.893 81.8234 152.912V148H83.1994V152.704C83.1994 153.376 83.3594 153.909 83.6794 154.304C84.01 154.699 84.4527 154.896 85.0074 154.896C85.6474 154.896 86.1754 154.635 86.5914 154.112C87.018 153.579 87.2314 152.864 87.2314 151.968V148H88.6074V156H87.2314V154.768C86.7087 155.696 85.8874 156.16 84.7674 156.16ZM91.361 156V144H92.737V156H91.361ZM95.5054 156V144H96.8814V156H95.5054ZM103.669 156V144H105.045V156H103.669ZM111.366 156.16C110.16 156.16 109.158 155.76 108.358 154.96C107.568 154.149 107.174 153.163 107.174 152C107.174 150.837 107.568 149.856 108.358 149.056C109.158 148.245 110.16 147.84 111.366 147.84C112.56 147.84 113.552 148.245 114.342 149.056C115.142 149.856 115.542 150.837 115.542 152C115.542 153.163 115.142 154.149 114.342 154.96C113.552 155.76 112.56 156.16 111.366 156.16ZM109.35 154.048C109.872 154.603 110.544 154.88 111.366 154.88C112.187 154.88 112.854 154.603 113.366 154.048C113.878 153.493 114.134 152.811 114.134 152C114.134 151.189 113.878 150.507 113.366 149.952C112.854 149.397 112.187 149.12 111.366 149.12C110.544 149.12 109.872 149.397 109.35 149.952C108.838 150.507 108.582 151.189 108.582 152C108.582 152.811 108.838 153.493 109.35 154.048ZM120.973 156.16C119.863 156.16 118.93 155.755 118.173 154.944C117.426 154.133 117.053 153.152 117.053 152C117.053 150.848 117.426 149.867 118.173 149.056C118.93 148.245 119.863 147.84 120.973 147.84C121.559 147.84 122.103 147.973 122.605 148.24C123.117 148.496 123.511 148.827 123.789 149.232V148H125.165V156H123.789V154.768C123.511 155.173 123.117 155.509 122.605 155.776C122.103 156.032 121.559 156.16 120.973 156.16ZM121.181 154.896C121.97 154.896 122.621 154.619 123.133 154.064C123.645 153.509 123.901 152.821 123.901 152C123.901 151.179 123.645 150.491 123.133 149.936C122.621 149.381 121.97 149.104 121.181 149.104C120.381 149.104 119.725 149.381 119.213 149.936C118.701 150.491 118.445 151.179 118.445 152C118.445 152.821 118.701 153.509 119.213 154.064C119.725 154.619 120.381 154.896 121.181 154.896ZM131.211 156.16C130.101 156.16 129.168 155.755 128.411 154.944C127.664 154.133 127.291 153.152 127.291 152C127.291 150.848 127.664 149.867 128.411 149.056C129.168 148.245 130.101 147.84 131.211 147.84C131.797 147.84 132.341 147.973 132.843 148.24C133.355 148.496 133.749 148.827 134.027 149.232V144H135.403V156H134.027V154.768C133.749 155.173 133.355 155.509 132.843 155.776C132.341 156.032 131.797 156.16 131.211 156.16ZM131.419 154.896C132.208 154.896 132.859 154.619 133.371 154.064C133.883 153.509 134.139 152.821 134.139 152C134.139 151.179 133.883 150.491 133.371 149.936C132.859 149.381 132.208 149.104 131.419 149.104C130.619 149.104 129.963 149.381 129.451 149.936C128.939 150.491 128.683 151.179 128.683 152C128.683 152.821 128.939 153.509 129.451 154.064C129.963 154.619 130.619 154.896 131.419 154.896ZM145.011 156.08C144.275 156.08 143.683 155.872 143.235 155.456C142.787 155.04 142.563 154.432 142.563 153.632V149.264H140.867V148H142.563V145.776H143.939V148H146.243V149.264H143.939V153.456C143.939 153.957 144.045 154.309 144.259 154.512C144.472 154.715 144.808 154.816 145.267 154.816C145.672 154.816 145.997 154.763 146.243 154.656V155.888C145.859 156.016 145.448 156.08 145.011 156.08ZM149.536 156H148.16V144H149.536V149.232C150.08 148.304 150.928 147.84 152.08 147.84C152.987 147.84 153.718 148.133 154.272 148.72C154.827 149.307 155.104 150.091 155.104 151.072V156H153.744V151.28C153.744 150.608 153.574 150.08 153.232 149.696C152.891 149.301 152.432 149.104 151.856 149.104C151.195 149.104 150.64 149.365 150.192 149.888C149.755 150.411 149.536 151.125 149.536 152.032V156ZM161.038 156.16C159.929 156.16 158.996 155.755 158.238 154.944C157.492 154.133 157.118 153.152 157.118 152C157.118 150.848 157.492 149.867 158.238 149.056C158.996 148.245 159.929 147.84 161.038 147.84C161.625 147.84 162.169 147.973 162.67 148.24C163.182 148.496 163.577 148.827 163.854 149.232V148H165.23V156H163.854V154.768C163.577 155.173 163.182 155.509 162.67 155.776C162.169 156.032 161.625 156.16 161.038 156.16ZM161.246 154.896C162.036 154.896 162.686 154.619 163.198 154.064C163.71 153.509 163.966 152.821 163.966 152C163.966 151.179 163.71 150.491 163.198 149.936C162.686 149.381 162.036 149.104 161.246 149.104C160.446 149.104 159.79 149.381 159.278 149.936C158.766 150.491 158.51 151.179 158.51 152C158.51 152.821 158.766 153.509 159.278 154.064C159.79 154.619 160.446 154.896 161.246 154.896ZM167.98 156V148H169.356V149.232C169.9 148.304 170.748 147.84 171.9 147.84C172.807 147.84 173.538 148.133 174.092 148.72C174.647 149.307 174.924 150.091 174.924 151.072V156H173.564V151.28C173.564 150.608 173.394 150.08 173.052 149.696C172.711 149.301 172.252 149.104 171.676 149.104C171.015 149.104 170.46 149.365 170.012 149.888C169.575 150.411 169.356 151.125 169.356 152.032V156H167.98ZM24.096 180L29.12 168.64H30.352L35.392 180H33.84L32.368 176.688H27.072L25.632 180H24.096ZM29.712 170.656L27.664 175.344H31.776L29.712 170.656ZM38.3324 169.584C38.151 169.765 37.9217 169.856 37.6444 169.856C37.367 169.856 37.1324 169.765 36.9404 169.584C36.7484 169.392 36.6524 169.157 36.6524 168.88C36.6524 168.613 36.7484 168.384 36.9404 168.192C37.1324 168 37.367 167.904 37.6444 167.904C37.9217 167.904 38.151 168 38.3324 168.192C38.5137 168.384 38.6044 168.613 38.6044 168.88C38.6044 169.157 38.5137 169.392 38.3324 169.584ZM36.9404 180V172H38.3164V180H36.9404ZM41.0847 180V172H42.4607V173.552C42.6101 173.061 42.8981 172.667 43.3247 172.368C43.7621 172.069 44.2208 171.92 44.7007 171.92C44.9354 171.92 45.1434 171.941 45.3247 171.984V173.408C45.1327 173.323 44.8821 173.28 44.5728 173.28C44.0181 173.28 43.5274 173.52 43.1007 174C42.6741 174.48 42.4607 175.157 42.4607 176.032V180H41.0847ZM51.2961 180.16C50.7095 180.16 50.1601 180.032 49.6481 179.776C49.1468 179.509 48.7575 179.173 48.4801 178.768V180H47.1041V168H48.4801V173.232C48.7575 172.827 49.1468 172.496 49.6481 172.24C50.1601 171.973 50.7095 171.84 51.2961 171.84C52.4055 171.84 53.3335 172.245 54.0801 173.056C54.8375 173.867 55.2161 174.848 55.2161 176C55.2161 177.152 54.8375 178.133 54.0801 178.944C53.3335 179.755 52.4055 180.16 51.2961 180.16ZM49.1361 178.064C49.6481 178.619 50.2988 178.896 51.0881 178.896C51.8775 178.896 52.5281 178.619 53.0401 178.064C53.5521 177.509 53.8081 176.821 53.8081 176C53.8081 175.179 53.5521 174.491 53.0401 173.936C52.5281 173.381 51.8775 173.104 51.0881 173.104C50.2988 173.104 49.6481 173.381 49.1361 173.936C48.6241 174.491 48.3681 175.179 48.3681 176C48.3681 176.821 48.6241 177.509 49.1361 178.064ZM59.314 183.344H57.778L59.522 179.584L56.018 172H57.538L60.29 178.08L63.026 172H64.562L59.314 183.344ZM69.2 180.08C68.464 180.08 67.872 179.872 67.424 179.456C66.976 179.04 66.752 178.432 66.752 177.632V173.264H65.056V172H66.752V169.776H68.128V172H70.432V173.264H68.128V177.456C68.128 177.957 68.2347 178.309 68.448 178.512C68.6613 178.715 68.9973 178.816 69.456 178.816C69.8613 178.816 70.1867 178.763 70.432 178.656V179.888C70.048 180.016 69.6373 180.08 69.2 180.08ZM75.7604 180.16C74.5337 180.16 73.5364 179.765 72.7684 178.976C72.0004 178.187 71.6164 177.195 71.6164 176C71.6164 174.816 72.0057 173.829 72.7844 173.04C73.563 172.24 74.5604 171.84 75.7764 171.84C76.8537 171.84 77.755 172.203 78.4804 172.928C79.2164 173.643 79.5844 174.619 79.5844 175.856C79.5844 176.016 79.579 176.155 79.5684 176.272H73.0084C73.0297 177.019 73.2964 177.643 73.8084 178.144C74.331 178.645 74.987 178.896 75.7764 178.896C76.8964 178.896 77.7284 178.432 78.2724 177.504L79.3604 178.256C78.5817 179.525 77.3817 180.16 75.7604 180.16ZM73.1044 175.152H78.1764C78.0697 174.512 77.787 174.005 77.3284 173.632C76.8804 173.248 76.347 173.056 75.7284 173.056C75.099 173.056 74.5337 173.248 74.0324 173.632C73.5417 174.005 73.2324 174.512 73.1044 175.152Z" fill="#A3A3A3"/>
<path d="M466.368 121.168C464.192 123.408 461.28 124.528 457.632 124.528C453.984 124.528 451.072 123.408 448.896 121.168C446.72 118.928 445.632 116.08 445.632 112.624C445.632 111.536 445.808 110.496 446.16 109.504C446.512 108.48 446.896 107.632 447.312 106.96C447.76 106.256 448.544 105.088 449.664 103.456L459.168 89.92H468.096L459.744 101.824C462.336 102.048 464.624 103.136 466.608 105.088C468.624 107.008 469.632 109.536 469.632 112.672C469.632 116.096 468.544 118.928 466.368 121.168ZM457.632 117.568C458.976 117.568 460.096 117.104 460.992 116.176C461.888 115.248 462.336 114.112 462.336 112.768C462.336 111.424 461.888 110.288 460.992 109.36C460.096 108.432 458.976 107.968 457.632 107.968C456.224 107.968 455.088 108.432 454.224 109.36C453.36 110.256 452.928 111.392 452.928 112.768C452.928 114.144 453.36 115.296 454.224 116.224C455.088 117.12 456.224 117.568 457.632 117.568ZM491.389 124L486.301 117.472L481.213 124H472.525L481.741 112.384L472.621 100H481.165L486.253 107.008L491.341 100H499.981L490.861 112.384L500.029 124H491.389Z" fill="#3552E9"/>
<path d="M445.504 156V144.64H452.112V146.048H446.992V149.488H451.04V150.896H446.992V156H445.504ZM456.643 156.16C455.533 156.16 454.6 155.755 453.843 154.944C453.096 154.133 452.723 153.152 452.723 152C452.723 150.848 453.096 149.867 453.843 149.056C454.6 148.245 455.533 147.84 456.643 147.84C457.229 147.84 457.773 147.973 458.275 148.24C458.787 148.496 459.181 148.827 459.459 149.232V148H460.835V156H459.459V154.768C459.181 155.173 458.787 155.509 458.275 155.776C457.773 156.032 457.229 156.16 456.643 156.16ZM456.851 154.896C457.64 154.896 458.291 154.619 458.803 154.064C459.315 153.509 459.571 152.821 459.571 152C459.571 151.179 459.315 150.491 458.803 149.936C458.291 149.381 457.64 149.104 456.851 149.104C456.051 149.104 455.395 149.381 454.883 149.936C454.371 150.491 454.115 151.179 454.115 152C454.115 152.821 454.371 153.509 454.883 154.064C455.395 154.619 456.051 154.896 456.851 154.896ZM466.001 156.16C465.265 156.16 464.619 156.005 464.065 155.696C463.51 155.376 463.11 154.912 462.865 154.304L463.985 153.68C464.134 154.075 464.395 154.384 464.769 154.608C465.142 154.832 465.558 154.944 466.017 154.944C466.411 154.944 466.742 154.848 467.009 154.656C467.275 154.464 467.409 154.203 467.409 153.872C467.409 153.584 467.302 153.344 467.089 153.152C466.886 152.96 466.529 152.784 466.017 152.624L465.217 152.368C463.883 151.984 463.217 151.205 463.217 150.032C463.217 149.371 463.478 148.843 464.001 148.448C464.534 148.043 465.19 147.84 465.969 147.84C467.185 147.84 468.065 148.304 468.609 149.232L467.585 149.936C467.147 149.328 466.593 149.024 465.921 149.024C465.558 149.024 465.243 149.115 464.977 149.296C464.721 149.467 464.593 149.696 464.593 149.984C464.593 150.251 464.673 150.48 464.833 150.672C465.003 150.853 465.302 151.008 465.729 151.136L466.609 151.408C468.059 151.856 468.785 152.64 468.785 153.76C468.785 154.507 468.523 155.093 468.001 155.52C467.489 155.947 466.822 156.16 466.001 156.16ZM473.974 156.08C473.238 156.08 472.646 155.872 472.198 155.456C471.75 155.04 471.526 154.432 471.526 153.632V149.264H469.83V148H471.526V145.776H472.902V148H475.206V149.264H472.902V153.456C472.902 153.957 473.008 154.309 473.222 154.512C473.435 154.715 473.771 154.816 474.23 154.816C474.635 154.816 474.96 154.763 475.206 154.656V155.888C474.822 156.016 474.411 156.08 473.974 156.08ZM480.534 156.16C479.307 156.16 478.31 155.765 477.542 154.976C476.774 154.187 476.39 153.195 476.39 152C476.39 150.816 476.779 149.829 477.558 149.04C478.337 148.24 479.334 147.84 480.55 147.84C481.627 147.84 482.529 148.203 483.254 148.928C483.99 149.643 484.358 150.619 484.358 151.856C484.358 152.016 484.353 152.155 484.342 152.272H477.782C477.803 153.019 478.07 153.643 478.582 154.144C479.105 154.645 479.761 154.896 480.55 154.896C481.67 154.896 482.502 154.432 483.046 153.504L484.134 154.256C483.355 155.525 482.155 156.16 480.534 156.16ZM477.878 151.152H482.95C482.843 150.512 482.561 150.005 482.102 149.632C481.654 149.248 481.121 149.056 480.502 149.056C479.873 149.056 479.307 149.248 478.806 149.632C478.315 150.005 478.006 150.512 477.878 151.152ZM486.471 156V148H487.847V149.552C487.996 149.061 488.284 148.667 488.711 148.368C489.148 148.069 489.607 147.92 490.087 147.92C490.322 147.92 490.53 147.941 490.711 147.984V149.408C490.519 149.323 490.268 149.28 489.959 149.28C489.404 149.28 488.914 149.52 488.487 150C488.06 150.48 487.847 151.157 487.847 152.032V156H486.471ZM496.572 156V149.264H494.876V148H496.572V146.384C496.572 145.584 496.796 144.971 497.244 144.544C497.692 144.117 498.284 143.904 499.02 143.904C499.458 143.904 499.874 143.973 500.268 144.112V145.328C500.023 145.221 499.692 145.168 499.276 145.168C498.818 145.168 498.482 145.269 498.268 145.472C498.055 145.675 497.948 146.027 497.948 146.528V148H500.268V149.264H497.948V156H496.572ZM504.767 156.16C503.893 156.16 503.183 155.867 502.639 155.28C502.095 154.683 501.823 153.893 501.823 152.912V148H503.199V152.704C503.199 153.376 503.359 153.909 503.679 154.304C504.01 154.699 504.453 154.896 505.007 154.896C505.647 154.896 506.175 154.635 506.591 154.112C507.018 153.579 507.231 152.864 507.231 151.968V148H508.607V156H507.231V154.768C506.709 155.696 505.887 156.16 504.767 156.16ZM511.361 156V144H512.737V156H511.361ZM515.505 156V144H516.881V156H515.505ZM523.669 156V144H525.045V156H523.669ZM531.366 156.16C530.16 156.16 529.158 155.76 528.358 154.96C527.568 154.149 527.174 153.163 527.174 152C527.174 150.837 527.568 149.856 528.358 149.056C529.158 148.245 530.16 147.84 531.366 147.84C532.56 147.84 533.552 148.245 534.342 149.056C535.142 149.856 535.542 150.837 535.542 152C535.542 153.163 535.142 154.149 534.342 154.96C533.552 155.76 532.56 156.16 531.366 156.16ZM529.35 154.048C529.872 154.603 530.544 154.88 531.366 154.88C532.187 154.88 532.854 154.603 533.366 154.048C533.878 153.493 534.134 152.811 534.134 152C534.134 151.189 533.878 150.507 533.366 149.952C532.854 149.397 532.187 149.12 531.366 149.12C530.544 149.12 529.872 149.397 529.35 149.952C528.838 150.507 528.582 151.189 528.582 152C528.582 152.811 528.838 153.493 529.35 154.048ZM540.973 156.16C539.863 156.16 538.93 155.755 538.173 154.944C537.426 154.133 537.053 153.152 537.053 152C537.053 150.848 537.426 149.867 538.173 149.056C538.93 148.245 539.863 147.84 540.973 147.84C541.559 147.84 542.103 147.973 542.605 148.24C543.117 148.496 543.511 148.827 543.789 149.232V148H545.165V156H543.789V154.768C543.511 155.173 543.117 155.509 542.605 155.776C542.103 156.032 541.559 156.16 540.973 156.16ZM541.181 154.896C541.97 154.896 542.621 154.619 543.133 154.064C543.645 153.509 543.901 152.821 543.901 152C543.901 151.179 543.645 150.491 543.133 149.936C542.621 149.381 541.97 149.104 541.181 149.104C540.381 149.104 539.725 149.381 539.213 149.936C538.701 150.491 538.445 151.179 538.445 152C538.445 152.821 538.701 153.509 539.213 154.064C539.725 154.619 540.381 154.896 541.181 154.896ZM551.211 156.16C550.101 156.16 549.168 155.755 548.411 154.944C547.664 154.133 547.291 153.152 547.291 152C547.291 150.848 547.664 149.867 548.411 149.056C549.168 148.245 550.101 147.84 551.211 147.84C551.797 147.84 552.341 147.973 552.843 148.24C553.355 148.496 553.749 148.827 554.027 149.232V144H555.403V156H554.027V154.768C553.749 155.173 553.355 155.509 552.843 155.776C552.341 156.032 551.797 156.16 551.211 156.16ZM551.419 154.896C552.208 154.896 552.859 154.619 553.371 154.064C553.883 153.509 554.139 152.821 554.139 152C554.139 151.179 553.883 150.491 553.371 149.936C552.859 149.381 552.208 149.104 551.419 149.104C550.619 149.104 549.963 149.381 549.451 149.936C548.939 150.491 548.683 151.179 548.683 152C548.683 152.821 548.939 153.509 549.451 154.064C549.963 154.619 550.619 154.896 551.419 154.896ZM448.864 180.16C447.659 180.16 446.656 179.76 445.856 178.96C445.067 178.16 444.672 177.173 444.672 176C444.672 174.827 445.067 173.84 445.856 173.04C446.656 172.24 447.659 171.84 448.864 171.84C449.675 171.84 450.4 172.032 451.04 172.416C451.691 172.8 452.197 173.323 452.56 173.984L451.36 174.656C451.125 174.187 450.789 173.813 450.352 173.536C449.925 173.259 449.429 173.12 448.864 173.12C448.043 173.12 447.371 173.397 446.848 173.952C446.325 174.507 446.064 175.189 446.064 176C446.064 176.811 446.325 177.493 446.848 178.048C447.371 178.603 448.043 178.88 448.864 178.88C449.429 178.88 449.925 178.741 450.352 178.464C450.789 178.187 451.125 177.813 451.36 177.344L452.56 178.016C452.197 178.677 451.691 179.2 451.04 179.584C450.4 179.968 449.675 180.16 448.864 180.16ZM458.055 180.16C456.85 180.16 455.847 179.76 455.047 178.96C454.258 178.149 453.863 177.163 453.863 176C453.863 174.837 454.258 173.856 455.047 173.056C455.847 172.245 456.85 171.84 458.055 171.84C459.25 171.84 460.242 172.245 461.031 173.056C461.831 173.856 462.231 174.837 462.231 176C462.231 177.163 461.831 178.149 461.031 178.96C460.242 179.76 459.25 180.16 458.055 180.16ZM456.039 178.048C456.562 178.603 457.234 178.88 458.055 178.88C458.876 178.88 459.543 178.603 460.055 178.048C460.567 177.493 460.823 176.811 460.823 176C460.823 175.189 460.567 174.507 460.055 173.952C459.543 173.397 458.876 173.12 458.055 173.12C457.234 173.12 456.562 173.397 456.039 173.952C455.527 174.507 455.271 175.189 455.271 176C455.271 176.811 455.527 177.493 456.039 178.048ZM474.67 180V175.296C474.67 174.635 474.531 174.107 474.254 173.712C473.987 173.307 473.598 173.104 473.086 173.104C472.446 173.104 471.923 173.355 471.518 173.856C471.123 174.357 470.915 175.04 470.894 175.904V180H469.518V175.296C469.518 174.624 469.379 174.091 469.102 173.696C468.835 173.301 468.451 173.104 467.95 173.104C467.289 173.104 466.755 173.371 466.35 173.904C465.945 174.427 465.742 175.136 465.742 176.032V180H464.366V172H465.742V173.232C466.254 172.304 467.059 171.84 468.158 171.84C469.374 171.84 470.195 172.411 470.622 173.552C470.835 173.029 471.177 172.613 471.646 172.304C472.115 171.995 472.649 171.84 473.246 171.84C474.11 171.84 474.793 172.133 475.294 172.72C475.795 173.307 476.046 174.096 476.046 175.088V180H474.67ZM480.058 183.344H478.682V172H480.058V173.232C480.336 172.827 480.725 172.496 481.226 172.24C481.738 171.973 482.288 171.84 482.874 171.84C483.984 171.84 484.912 172.245 485.658 173.056C486.416 173.867 486.794 174.848 486.794 176C486.794 177.152 486.416 178.133 485.658 178.944C484.912 179.755 483.984 180.16 482.874 180.16C482.288 180.16 481.738 180.032 481.226 179.776C480.725 179.509 480.336 179.173 480.058 178.768V183.344ZM480.714 178.064C481.226 178.619 481.877 178.896 482.666 178.896C483.456 178.896 484.106 178.619 484.618 178.064C485.13 177.509 485.386 176.821 485.386 176C485.386 175.179 485.13 174.491 484.618 173.936C484.106 173.381 483.456 173.104 482.666 173.104C481.877 173.104 481.226 173.381 480.714 173.936C480.202 174.491 479.946 175.179 479.946 176C479.946 176.821 480.202 177.509 480.714 178.064ZM492.232 180.16C491.123 180.16 490.189 179.755 489.432 178.944C488.685 178.133 488.312 177.152 488.312 176C488.312 174.848 488.685 173.867 489.432 173.056C490.189 172.245 491.123 171.84 492.232 171.84C492.819 171.84 493.363 171.973 493.864 172.24C494.376 172.496 494.771 172.827 495.048 173.232V172H496.424V180H495.048V178.768C494.771 179.173 494.376 179.509 493.864 179.776C493.363 180.032 492.819 180.16 492.232 180.16ZM492.44 178.896C493.229 178.896 493.88 178.619 494.392 178.064C494.904 177.509 495.16 176.821 495.16 176C495.16 175.179 494.904 174.491 494.392 173.936C493.88 173.381 493.229 173.104 492.44 173.104C491.64 173.104 490.984 173.381 490.472 173.936C489.96 174.491 489.704 175.179 489.704 176C489.704 176.821 489.96 177.509 490.472 178.064C490.984 178.619 491.64 178.896 492.44 178.896ZM499.174 180V172H500.55V173.552C500.699 173.061 500.987 172.667 501.414 172.368C501.851 172.069 502.31 171.92 502.79 171.92C503.025 171.92 503.233 171.941 503.414 171.984V173.408C503.222 173.323 502.971 173.28 502.662 173.28C502.107 173.28 501.617 173.52 501.19 174C500.763 174.48 500.55 175.157 500.55 176.032V180H499.174ZM508.432 180.16C507.206 180.16 506.208 179.765 505.44 178.976C504.672 178.187 504.288 177.195 504.288 176C504.288 174.816 504.678 173.829 505.456 173.04C506.235 172.24 507.232 171.84 508.448 171.84C509.526 171.84 510.427 172.203 511.152 172.928C511.888 173.643 512.256 174.619 512.256 175.856C512.256 176.016 512.251 176.155 512.24 176.272H505.68C505.702 177.019 505.968 177.643 506.48 178.144C507.003 178.645 507.659 178.896 508.448 178.896C509.568 178.896 510.4 178.432 510.944 177.504L512.032 178.256C511.254 179.525 510.054 180.16 508.432 180.16ZM505.776 175.152H510.848C510.742 174.512 510.459 174.005 510 173.632C509.552 173.248 509.019 173.056 508.4 173.056C507.771 173.056 507.206 173.248 506.704 173.632C506.214 174.005 505.904 174.512 505.776 175.152ZM517.665 180.16C516.556 180.16 515.622 179.755 514.865 178.944C514.118 178.133 513.745 177.152 513.745 176C513.745 174.848 514.118 173.867 514.865 173.056C515.622 172.245 516.556 171.84 517.665 171.84C518.252 171.84 518.796 171.973 519.297 172.24C519.809 172.496 520.204 172.827 520.481 173.232V168H521.857V180H520.481V178.768C520.204 179.173 519.809 179.509 519.297 179.776C518.796 180.032 518.252 180.16 517.665 180.16ZM517.873 178.896C518.662 178.896 519.313 178.619 519.825 178.064C520.337 177.509 520.593 176.821 520.593 176C520.593 175.179 520.337 174.491 519.825 173.936C519.313 173.381 518.662 173.104 517.873 173.104C517.073 173.104 516.417 173.381 515.905 173.936C515.393 174.491 515.137 175.179 515.137 176C515.137 176.821 515.393 177.509 515.905 178.064C516.417 178.619 517.073 178.896 517.873 178.896ZM531.465 180.08C530.729 180.08 530.137 179.872 529.689 179.456C529.241 179.04 529.017 178.432 529.017 177.632V173.264H527.321V172H529.017V169.776H530.393V172H532.697V173.264H530.393V177.456C530.393 177.957 530.5 178.309 530.713 178.512C530.926 178.715 531.262 178.816 531.721 178.816C532.126 178.816 532.452 178.763 532.697 178.656V179.888C532.313 180.016 531.902 180.08 531.465 180.08ZM538.057 180.16C536.852 180.16 535.849 179.76 535.049 178.96C534.26 178.149 533.865 177.163 533.865 176C533.865 174.837 534.26 173.856 535.049 173.056C535.849 172.245 536.852 171.84 538.057 171.84C539.252 171.84 540.244 172.245 541.033 173.056C541.833 173.856 542.233 174.837 542.233 176C542.233 177.163 541.833 178.149 541.033 178.96C540.244 179.76 539.252 180.16 538.057 180.16ZM536.041 178.048C536.564 178.603 537.236 178.88 538.057 178.88C538.879 178.88 539.545 178.603 540.057 178.048C540.569 177.493 540.825 176.811 540.825 176C540.825 175.189 540.569 174.507 540.057 173.952C539.545 173.397 538.879 173.12 538.057 173.12C537.236 173.12 536.564 173.397 536.041 173.952C535.529 174.507 535.273 175.189 535.273 176C535.273 176.811 535.529 177.493 536.041 178.048ZM548.596 180V168.64H551.86C553.599 168.64 555.039 169.179 556.18 170.256C557.332 171.333 557.908 172.688 557.908 174.32C557.908 175.952 557.332 177.307 556.18 178.384C555.039 179.461 553.599 180 551.86 180H548.596ZM550.084 178.608H551.86C553.215 178.608 554.308 178.208 555.14 177.408C555.983 176.597 556.404 175.568 556.404 174.32C556.404 173.072 555.983 172.048 555.14 171.248C554.308 170.437 553.215 170.032 551.86 170.032H550.084V178.608ZM563.599 180.16C562.372 180.16 561.375 179.765 560.607 178.976C559.839 178.187 559.455 177.195 559.455 176C559.455 174.816 559.844 173.829 560.623 173.04C561.402 172.24 562.399 171.84 563.615 171.84C564.692 171.84 565.594 172.203 566.319 172.928C567.055 173.643 567.423 174.619 567.423 175.856C567.423 176.016 567.418 176.155 567.407 176.272H560.847C560.868 177.019 561.135 177.643 561.647 178.144C562.17 178.645 562.826 178.896 563.615 178.896C564.735 178.896 565.567 178.432 566.111 177.504L567.199 178.256C566.42 179.525 565.22 180.16 563.599 180.16ZM560.943 175.152H566.015C565.908 174.512 565.626 174.005 565.167 173.632C564.719 173.248 564.186 173.056 563.567 173.056C562.938 173.056 562.372 173.248 561.871 173.632C561.38 174.005 561.071 174.512 560.943 175.152ZM573.728 180.16C573.141 180.16 572.592 180.032 572.08 179.776C571.579 179.509 571.189 179.173 570.912 178.768V180H569.536V168H570.912V173.232C571.189 172.827 571.579 172.496 572.08 172.24C572.592 171.973 573.141 171.84 573.728 171.84C574.837 171.84 575.765 172.245 576.512 173.056C577.269 173.867 577.648 174.848 577.648 176C577.648 177.152 577.269 178.133 576.512 178.944C575.765 179.755 574.837 180.16 573.728 180.16ZM571.568 178.064C572.08 178.619 572.731 178.896 573.52 178.896C574.309 178.896 574.96 178.619 575.472 178.064C575.984 177.509 576.24 176.821 576.24 176C576.24 175.179 575.984 174.491 575.472 173.936C574.96 173.381 574.309 173.104 573.52 173.104C572.731 173.104 572.08 173.381 571.568 173.936C571.056 174.491 570.8 175.179 570.8 176C570.8 176.821 571.056 177.509 571.568 178.064ZM583.294 180.16C582.067 180.16 581.07 179.765 580.302 178.976C579.534 178.187 579.15 177.195 579.15 176C579.15 174.816 579.539 173.829 580.318 173.04C581.097 172.24 582.094 171.84 583.31 171.84C584.387 171.84 585.289 172.203 586.014 172.928C586.75 173.643 587.118 174.619 587.118 175.856C587.118 176.016 587.113 176.155 587.102 176.272H580.542C580.563 177.019 580.83 177.643 581.342 178.144C581.865 178.645 582.521 178.896 583.31 178.896C584.43 178.896 585.262 178.432 585.806 177.504L586.894 178.256C586.115 179.525 584.915 180.16 583.294 180.16ZM580.638 175.152H585.71C585.603 174.512 585.321 174.005 584.862 173.632C584.414 173.248 583.881 173.056 583.262 173.056C582.633 173.056 582.067 173.248 581.566 173.632C581.075 174.005 580.766 174.512 580.638 175.152ZM588.575 180V178.912L593.151 173.264H588.639V172H594.927V173.104L590.351 178.736H595.071V180H588.575ZM598.533 169.584C598.352 169.765 598.122 169.856 597.845 169.856C597.568 169.856 597.333 169.765 597.141 169.584C596.949 169.392 596.853 169.157 596.853 168.88C596.853 168.613 596.949 168.384 597.141 168.192C597.333 168 597.568 167.904 597.845 167.904C598.122 167.904 598.352 168 598.533 168.192C598.714 168.384 598.805 168.613 598.805 168.88C598.805 169.157 598.714 169.392 598.533 169.584ZM597.141 180V172H598.517V180H597.141ZM604.117 180.16C603.243 180.16 602.533 179.867 601.989 179.28C601.445 178.683 601.173 177.893 601.173 176.912V172H602.549V176.704C602.549 177.376 602.709 177.909 603.029 178.304C603.36 178.699 603.803 178.896 604.357 178.896C604.997 178.896 605.525 178.635 605.941 178.112C606.368 177.579 606.581 176.864 606.581 175.968V172H607.957V180H606.581V178.768C606.059 179.696 605.237 180.16 604.117 180.16ZM621.015 180V175.296C621.015 174.635 620.876 174.107 620.599 173.712C620.332 173.307 619.943 173.104 619.431 173.104C618.791 173.104 618.268 173.355 617.863 173.856C617.468 174.357 617.26 175.04 617.239 175.904V180H615.863V175.296C615.863 174.624 615.724 174.091 615.447 173.696C615.18 173.301 614.796 173.104 614.295 173.104C613.634 173.104 613.1 173.371 612.695 173.904C612.29 174.427 612.087 175.136 612.087 176.032V180H610.711V172H612.087V173.232C612.599 172.304 613.404 171.84 614.503 171.84C615.719 171.84 616.54 172.411 616.967 173.552C617.18 173.029 617.522 172.613 617.991 172.304C618.46 171.995 618.994 171.84 619.591 171.84C620.455 171.84 621.138 172.133 621.639 172.72C622.14 173.307 622.391 174.096 622.391 175.088V180H621.015Z" fill="#A3A3A3"/>
<rect x="24.5" y="234.5" width="595" height="360" rx="11.5" fill="#1F1F1F"/>
<rect x="24.5" y="234.5" width="595" height="360" rx="11.5" stroke="#3D3D3D"/>
<path d="M150 260H593C597.418 260 601 263.582 601 268V537H150V260Z" fill="#1F1F1F"/>
<path d="M164 279C166.209 279 168 280.791 168 283V315C168 317.209 166.209 319 164 319H138V279H164Z" fill="#193AE6" fill-opacity="0.3"/>
<path d="M164 279C166.209 279 168 280.791 168 283V315C168 317.209 166.209 319 164 319H160V279H164Z" fill="#193AE6"/>
<path d="M264 343C266.209 343 268 344.791 268 347V379C268 381.209 266.209 383 264 383H138V343H264Z" fill="#353347" fill-opacity="0.5"/>
<path d="M264 343C266.209 343 268 344.791 268 347V379C268 381.209 266.209 383 264 383H260V343H264Z" fill="#353347"/>
<path d="M444 407C446.209 407 448 408.791 448 411V443C448 445.209 446.209 447 444 447H138V407H444Z" fill="#353347" fill-opacity="0.5"/>
<path d="M444 407C446.209 407 448 408.791 448 411V443C448 445.209 446.209 447 444 447H440V407H444Z" fill="#353347"/>
<path d="M528 471C530.209 471 532 472.791 532 475V507C532 509.209 530.209 511 528 511H138V471H528Z" fill="#353347" fill-opacity="0.5"/>
<path d="M528 471C530.209 471 532 472.791 532 475V507C532 509.209 530.209 511 528 511H524V471H528Z" fill="#353347"/>
<line x1="138.5" y1="258" x2="138.5" y2="535" stroke="#47455F"/>
<line x1="138" y1="534.5" x2="589" y2="534.5" stroke="#47455F"/>
<path d="M255.504 565V553.64H262.112V555.048H256.992V558.488H261.04V559.896H256.992V565H255.504ZM266.257 565.16C265.382 565.16 264.673 564.867 264.129 564.28C263.585 563.683 263.313 562.893 263.313 561.912V557H264.689V561.704C264.689 562.376 264.849 562.909 265.169 563.304C265.499 563.699 265.942 563.896 266.497 563.896C267.137 563.896 267.665 563.635 268.081 563.112C268.507 562.579 268.721 561.864 268.721 560.968V557H270.097V565H268.721V563.768C268.198 564.696 267.377 565.16 266.257 565.16ZM272.85 565V553H274.226V565H272.85ZM276.995 565V553H278.371V565H276.995ZM285.158 565V553H286.534V565H285.158ZM292.855 565.16C291.65 565.16 290.647 564.76 289.847 563.96C289.058 563.149 288.663 562.163 288.663 561C288.663 559.837 289.058 558.856 289.847 558.056C290.647 557.245 291.65 556.84 292.855 556.84C294.05 556.84 295.042 557.245 295.831 558.056C296.631 558.856 297.031 559.837 297.031 561C297.031 562.163 296.631 563.149 295.831 563.96C295.042 564.76 294.05 565.16 292.855 565.16ZM290.839 563.048C291.362 563.603 292.034 563.88 292.855 563.88C293.676 563.88 294.343 563.603 294.855 563.048C295.367 562.493 295.623 561.811 295.623 561C295.623 560.189 295.367 559.507 294.855 558.952C294.343 558.397 293.676 558.12 292.855 558.12C292.034 558.12 291.362 558.397 290.839 558.952C290.327 559.507 290.071 560.189 290.071 561C290.071 561.811 290.327 562.493 290.839 563.048ZM302.462 565.16C301.353 565.16 300.419 564.755 299.662 563.944C298.915 563.133 298.542 562.152 298.542 561C298.542 559.848 298.915 558.867 299.662 558.056C300.419 557.245 301.353 556.84 302.462 556.84C303.049 556.84 303.593 556.973 304.094 557.24C304.606 557.496 305.001 557.827 305.278 558.232V557H306.654V565H305.278V563.768C305.001 564.173 304.606 564.509 304.094 564.776C303.593 565.032 303.049 565.16 302.462 565.16ZM302.67 563.896C303.459 563.896 304.11 563.619 304.622 563.064C305.134 562.509 305.39 561.821 305.39 561C305.39 560.179 305.134 559.491 304.622 558.936C304.11 558.381 303.459 558.104 302.67 558.104C301.87 558.104 301.214 558.381 300.702 558.936C300.19 559.491 299.934 560.179 299.934 561C299.934 561.821 300.19 562.509 300.702 563.064C301.214 563.619 301.87 563.896 302.67 563.896ZM312.7 565.16C311.591 565.16 310.657 564.755 309.9 563.944C309.153 563.133 308.78 562.152 308.78 561C308.78 559.848 309.153 558.867 309.9 558.056C310.657 557.245 311.591 556.84 312.7 556.84C313.287 556.84 313.831 556.973 314.332 557.24C314.844 557.496 315.239 557.827 315.516 558.232V553H316.892V565H315.516V563.768C315.239 564.173 314.844 564.509 314.332 564.776C313.831 565.032 313.287 565.16 312.7 565.16ZM312.908 563.896C313.697 563.896 314.348 563.619 314.86 563.064C315.372 562.509 315.628 561.821 315.628 561C315.628 560.179 315.372 559.491 314.86 558.936C314.348 558.381 313.697 558.104 312.908 558.104C312.108 558.104 311.452 558.381 310.94 558.936C310.428 559.491 310.172 560.179 310.172 561C310.172 561.821 310.428 562.509 310.94 563.064C311.452 563.619 312.108 563.896 312.908 563.896ZM326.5 565.08C325.764 565.08 325.172 564.872 324.724 564.456C324.276 564.04 324.052 563.432 324.052 562.632V558.264H322.356V557H324.052V554.776H325.428V557H327.732V558.264H325.428V562.456C325.428 562.957 325.535 563.309 325.748 563.512C325.961 563.715 326.297 563.816 326.756 563.816C327.161 563.816 327.487 563.763 327.732 563.656V564.888C327.348 565.016 326.937 565.08 326.5 565.08ZM331.042 554.584C330.86 554.765 330.631 554.856 330.354 554.856C330.076 554.856 329.842 554.765 329.65 554.584C329.458 554.392 329.362 554.157 329.362 553.88C329.362 553.613 329.458 553.384 329.65 553.192C329.842 553 330.076 552.904 330.354 552.904C330.631 552.904 330.86 553 331.042 553.192C331.223 553.384 331.314 553.613 331.314 553.88C331.314 554.157 331.223 554.392 331.042 554.584ZM329.65 565V557H331.026V565H329.65ZM344.098 565V560.296C344.098 559.635 343.959 559.107 343.682 558.712C343.415 558.307 343.026 558.104 342.514 558.104C341.874 558.104 341.351 558.355 340.946 558.856C340.551 559.357 340.343 560.04 340.322 560.904V565H338.946V560.296C338.946 559.624 338.807 559.091 338.53 558.696C338.263 558.301 337.879 558.104 337.378 558.104C336.717 558.104 336.183 558.371 335.778 558.904C335.373 559.427 335.17 560.136 335.17 561.032V565H333.794V557H335.17V558.232C335.682 557.304 336.487 556.84 337.586 556.84C338.802 556.84 339.623 557.411 340.05 558.552C340.263 558.029 340.605 557.613 341.074 557.304C341.543 556.995 342.077 556.84 342.674 556.84C343.538 556.84 344.221 557.133 344.722 557.72C345.223 558.307 345.474 559.096 345.474 560.088V565H344.098ZM351.63 565.16C350.404 565.16 349.406 564.765 348.638 563.976C347.87 563.187 347.486 562.195 347.486 561C347.486 559.816 347.876 558.829 348.654 558.04C349.433 557.24 350.43 556.84 351.646 556.84C352.724 556.84 353.625 557.203 354.35 557.928C355.086 558.643 355.454 559.619 355.454 560.856C355.454 561.016 355.449 561.155 355.438 561.272H348.878C348.9 562.019 349.166 562.643 349.678 563.144C350.201 563.645 350.857 563.896 351.646 563.896C352.766 563.896 353.598 563.432 354.142 562.504L355.23 563.256C354.452 564.525 353.252 565.16 351.63 565.16ZM348.974 560.152H354.046C353.94 559.512 353.657 559.005 353.198 558.632C352.75 558.248 352.217 558.056 351.598 558.056C350.969 558.056 350.404 558.248 349.902 558.632C349.412 559.005 349.102 559.512 348.974 560.152ZM364.211 567.56H363.091C361.725 565.075 361.043 562.515 361.043 559.88C361.043 557.245 361.725 554.685 363.091 552.2H364.211C362.92 554.707 362.275 557.267 362.275 559.88C362.275 562.493 362.92 565.053 364.211 567.56ZM367.545 554.584C367.364 554.765 367.134 554.856 366.857 554.856C366.58 554.856 366.345 554.765 366.153 554.584C365.961 554.392 365.865 554.157 365.865 553.88C365.865 553.613 365.961 553.384 366.153 553.192C366.345 553 366.58 552.904 366.857 552.904C367.134 552.904 367.364 553 367.545 553.192C367.726 553.384 367.817 553.613 367.817 553.88C367.817 554.157 367.726 554.392 367.545 554.584ZM366.153 565V557H367.529V565H366.153ZM370.297 565V557H371.673V558.232C372.217 557.304 373.065 556.84 374.217 556.84C375.124 556.84 375.855 557.133 376.409 557.72C376.964 558.307 377.241 559.091 377.241 560.072V565H375.881V560.28C375.881 559.608 375.711 559.08 375.369 558.696C375.028 558.301 374.569 558.104 373.993 558.104C373.332 558.104 372.777 558.365 372.329 558.888C371.892 559.411 371.673 560.125 371.673 561.032V565H370.297ZM394.202 565V560.296C394.202 559.635 394.064 559.107 393.786 558.712C393.52 558.307 393.13 558.104 392.618 558.104C391.978 558.104 391.456 558.355 391.05 558.856C390.656 559.357 390.448 560.04 390.426 560.904V565H389.05V560.296C389.05 559.624 388.912 559.091 388.634 558.696C388.368 558.301 387.984 558.104 387.482 558.104C386.821 558.104 386.288 558.371 385.882 558.904C385.477 559.427 385.274 560.136 385.274 561.032V565H383.898V557H385.274V558.232C385.786 557.304 386.592 556.84 387.69 556.84C388.906 556.84 389.728 557.411 390.154 558.552C390.368 558.029 390.709 557.613 391.178 557.304C391.648 556.995 392.181 556.84 392.778 556.84C393.642 556.84 394.325 557.133 394.826 557.72C395.328 558.307 395.578 559.096 395.578 560.088V565H394.202ZM399.607 554.584C399.425 554.765 399.196 554.856 398.919 554.856C398.641 554.856 398.407 554.765 398.215 554.584C398.023 554.392 397.927 554.157 397.927 553.88C397.927 553.613 398.023 553.384 398.215 553.192C398.407 553 398.641 552.904 398.919 552.904C399.196 552.904 399.425 553 399.607 553.192C399.788 553.384 399.879 553.613 399.879 553.88C399.879 554.157 399.788 554.392 399.607 554.584ZM398.215 565V557H399.591V565H398.215ZM402.359 565V557H403.735V558.232C404.279 557.304 405.127 556.84 406.279 556.84C407.186 556.84 407.916 557.133 408.471 557.72C409.026 558.307 409.303 559.091 409.303 560.072V565H407.943V560.28C407.943 559.608 407.772 559.08 407.431 558.696C407.09 558.301 406.631 558.104 406.055 558.104C405.394 558.104 404.839 558.365 404.391 558.888C403.954 559.411 403.735 560.125 403.735 561.032V565H402.359ZM414.357 565.16C413.621 565.16 412.976 565.005 412.421 564.696C411.866 564.376 411.466 563.912 411.221 563.304L412.341 562.68C412.49 563.075 412.752 563.384 413.125 563.608C413.498 563.832 413.914 563.944 414.373 563.944C414.768 563.944 415.098 563.848 415.365 563.656C415.632 563.464 415.765 563.203 415.765 562.872C415.765 562.584 415.658 562.344 415.445 562.152C415.242 561.96 414.885 561.784 414.373 561.624L413.573 561.368C412.24 560.984 411.573 560.205 411.573 559.032C411.573 558.371 411.834 557.843 412.357 557.448C412.89 557.043 413.546 556.84 414.325 556.84C415.541 556.84 416.421 557.304 416.965 558.232L415.941 558.936C415.504 558.328 414.949 558.024 414.277 558.024C413.914 558.024 413.6 558.115 413.333 558.296C413.077 558.467 412.949 558.696 412.949 558.984C412.949 559.251 413.029 559.48 413.189 559.672C413.36 559.853 413.658 560.008 414.085 560.136L414.965 560.408C416.416 560.856 417.141 561.64 417.141 562.76C417.141 563.507 416.88 564.093 416.357 564.52C415.845 564.947 415.178 565.16 414.357 565.16ZM419.217 567.56H418.097C419.388 565.053 420.033 562.493 420.033 559.88C420.033 557.267 419.388 554.707 418.097 552.2H419.217C420.582 554.685 421.265 557.245 421.265 559.88C421.265 562.515 420.582 565.075 419.217 567.56Z" fill="white"/>
<path d="M181.53 304V301.298H176.238V300.332L181.684 294.06H182.734V300.164H184.106V301.298H182.734V304H181.53ZM177.806 300.164H181.53V295.88L177.806 300.164ZM191.053 303.188C190.418 303.823 189.62 304.14 188.659 304.14C187.697 304.14 186.895 303.823 186.251 303.188C185.607 302.553 185.285 301.779 185.285 300.864C185.285 300.379 185.378 299.945 185.565 299.562C185.761 299.17 186.041 298.759 186.405 298.33L190.031 294.06H191.557L188.519 297.658C188.687 297.639 188.817 297.63 188.911 297.63C189.741 297.63 190.465 297.947 191.081 298.582C191.706 299.217 192.019 299.968 192.019 300.836C192.019 301.76 191.697 302.544 191.053 303.188ZM188.659 302.978C189.256 302.978 189.76 302.768 190.171 302.348C190.581 301.928 190.787 301.424 190.787 300.836C190.787 300.248 190.581 299.744 190.171 299.324C189.76 298.904 189.256 298.694 188.659 298.694C188.052 298.694 187.543 298.904 187.133 299.324C186.722 299.735 186.517 300.239 186.517 300.836C186.517 301.433 186.722 301.942 187.133 302.362C187.543 302.773 188.052 302.978 188.659 302.978ZM206.408 304V299.884C206.408 299.305 206.287 298.843 206.044 298.498C205.811 298.143 205.47 297.966 205.022 297.966C204.462 297.966 204.005 298.185 203.65 298.624C203.305 299.063 203.123 299.66 203.104 300.416V304H201.9V299.884C201.9 299.296 201.779 298.829 201.536 298.484C201.303 298.139 200.967 297.966 200.528 297.966C199.949 297.966 199.483 298.199 199.128 298.666C198.773 299.123 198.596 299.744 198.596 300.528V304H197.392V297H198.596V298.078C199.044 297.266 199.749 296.86 200.71 296.86C201.774 296.86 202.493 297.359 202.866 298.358C203.053 297.901 203.351 297.537 203.762 297.266C204.173 296.995 204.639 296.86 205.162 296.86C205.918 296.86 206.515 297.117 206.954 297.63C207.393 298.143 207.612 298.834 207.612 299.702V304H206.408ZM211.137 294.886C210.978 295.045 210.777 295.124 210.535 295.124C210.292 295.124 210.087 295.045 209.919 294.886C209.751 294.718 209.667 294.513 209.667 294.27C209.667 294.037 209.751 293.836 209.919 293.668C210.087 293.5 210.292 293.416 210.535 293.416C210.777 293.416 210.978 293.5 211.137 293.668C211.295 293.836 211.375 294.037 211.375 294.27C211.375 294.513 211.295 294.718 211.137 294.886ZM209.919 304V297H211.123V304H209.919ZM213.545 304V297H214.749V298.078C215.225 297.266 215.967 296.86 216.975 296.86C217.768 296.86 218.408 297.117 218.893 297.63C219.378 298.143 219.621 298.829 219.621 299.688V304H218.431V299.87C218.431 299.282 218.282 298.82 217.983 298.484C217.684 298.139 217.283 297.966 216.779 297.966C216.2 297.966 215.715 298.195 215.323 298.652C214.94 299.109 214.749 299.735 214.749 300.528V304H213.545ZM224.043 304.14C223.399 304.14 222.834 304.005 222.349 303.734C221.864 303.454 221.514 303.048 221.299 302.516L222.279 301.97C222.41 302.315 222.638 302.586 222.965 302.782C223.292 302.978 223.656 303.076 224.057 303.076C224.402 303.076 224.692 302.992 224.925 302.824C225.158 302.656 225.275 302.427 225.275 302.138C225.275 301.886 225.182 301.676 224.995 301.508C224.818 301.34 224.505 301.186 224.057 301.046L223.357 300.822C222.19 300.486 221.607 299.805 221.607 298.778C221.607 298.199 221.836 297.737 222.293 297.392C222.76 297.037 223.334 296.86 224.015 296.86C225.079 296.86 225.849 297.266 226.325 298.078L225.429 298.694C225.046 298.162 224.561 297.896 223.973 297.896C223.656 297.896 223.38 297.975 223.147 298.134C222.923 298.283 222.811 298.484 222.811 298.736C222.811 298.969 222.881 299.17 223.021 299.338C223.17 299.497 223.432 299.632 223.805 299.744L224.575 299.982C225.844 300.374 226.479 301.06 226.479 302.04C226.479 302.693 226.25 303.207 225.793 303.58C225.345 303.953 224.762 304.14 224.043 304.14Z" fill="white"/>
<path d="M283.126 366.838V368H276.686V367.524C276.686 367.179 276.737 366.852 276.84 366.544C276.952 366.227 277.073 365.961 277.204 365.746C277.335 365.531 277.54 365.293 277.82 365.032C278.1 364.761 278.319 364.565 278.478 364.444C278.637 364.313 278.903 364.117 279.276 363.856C279.649 363.585 279.897 363.408 280.018 363.324C280.681 362.839 281.138 362.433 281.39 362.106C281.651 361.77 281.782 361.331 281.782 360.79C281.782 360.267 281.614 359.852 281.278 359.544C280.942 359.227 280.503 359.068 279.962 359.068C279.393 359.068 278.907 359.241 278.506 359.586C278.105 359.931 277.904 360.412 277.904 361.028H276.672C276.672 360.095 276.98 359.339 277.596 358.76C278.221 358.181 279.005 357.892 279.948 357.892C280.825 357.892 281.553 358.144 282.132 358.648C282.72 359.152 283.014 359.871 283.014 360.804C283.014 361.513 282.841 362.12 282.496 362.624C282.151 363.119 281.558 363.669 280.718 364.276C280.559 364.388 280.335 364.547 280.046 364.752C279.757 364.948 279.533 365.107 279.374 365.228C279.215 365.349 279.038 365.499 278.842 365.676C278.655 365.844 278.506 366.026 278.394 366.222C278.291 366.409 278.217 366.614 278.17 366.838H283.126ZM286.145 368H284.801L289.435 359.236H284.353V358.06H290.877V359.068L286.145 368ZM292.246 368L295.312 364.388C295.209 364.397 295.078 364.402 294.92 364.402C294.089 364.402 293.361 364.085 292.736 363.45C292.12 362.815 291.812 362.069 291.812 361.21C291.812 360.277 292.129 359.493 292.764 358.858C293.408 358.214 294.21 357.892 295.172 357.892C296.133 357.892 296.936 358.209 297.58 358.844C298.224 359.479 298.546 360.253 298.546 361.168C298.546 361.653 298.448 362.092 298.252 362.484C298.065 362.867 297.79 363.273 297.426 363.702L293.786 368H292.246ZM293.646 362.722C294.056 363.133 294.565 363.338 295.172 363.338C295.778 363.338 296.287 363.133 296.698 362.722C297.108 362.302 297.314 361.793 297.314 361.196C297.314 360.599 297.108 360.095 296.698 359.684C296.287 359.264 295.778 359.054 295.172 359.054C294.565 359.054 294.056 359.264 293.646 359.684C293.244 360.095 293.044 360.599 293.044 361.196C293.044 361.793 293.244 362.302 293.646 362.722ZM312.837 368V363.884C312.837 363.305 312.716 362.843 312.473 362.498C312.24 362.143 311.899 361.966 311.451 361.966C310.891 361.966 310.434 362.185 310.079 362.624C309.734 363.063 309.552 363.66 309.533 364.416V368H308.329V363.884C308.329 363.296 308.208 362.829 307.965 362.484C307.732 362.139 307.396 361.966 306.957 361.966C306.378 361.966 305.912 362.199 305.557 362.666C305.202 363.123 305.025 363.744 305.025 364.528V368H303.821V361H305.025V362.078C305.473 361.266 306.178 360.86 307.139 360.86C308.203 360.86 308.922 361.359 309.295 362.358C309.482 361.901 309.78 361.537 310.191 361.266C310.602 360.995 311.068 360.86 311.591 360.86C312.347 360.86 312.944 361.117 313.383 361.63C313.822 362.143 314.041 362.834 314.041 363.702V368H312.837ZM317.566 358.886C317.407 359.045 317.206 359.124 316.964 359.124C316.721 359.124 316.516 359.045 316.348 358.886C316.18 358.718 316.096 358.513 316.096 358.27C316.096 358.037 316.18 357.836 316.348 357.668C316.516 357.5 316.721 357.416 316.964 357.416C317.206 357.416 317.407 357.5 317.566 357.668C317.724 357.836 317.804 358.037 317.804 358.27C317.804 358.513 317.724 358.718 317.566 358.886ZM316.348 368V361H317.552V368H316.348ZM319.974 368V361H321.178V362.078C321.654 361.266 322.396 360.86 323.404 360.86C324.197 360.86 324.837 361.117 325.322 361.63C325.807 362.143 326.05 362.829 326.05 363.688V368H324.86V363.87C324.86 363.282 324.711 362.82 324.412 362.484C324.113 362.139 323.712 361.966 323.208 361.966C322.629 361.966 322.144 362.195 321.752 362.652C321.369 363.109 321.178 363.735 321.178 364.528V368H319.974ZM330.472 368.14C329.828 368.14 329.263 368.005 328.778 367.734C328.293 367.454 327.943 367.048 327.728 366.516L328.708 365.97C328.839 366.315 329.067 366.586 329.394 366.782C329.721 366.978 330.085 367.076 330.486 367.076C330.831 367.076 331.121 366.992 331.354 366.824C331.587 366.656 331.704 366.427 331.704 366.138C331.704 365.886 331.611 365.676 331.424 365.508C331.247 365.34 330.934 365.186 330.486 365.046L329.786 364.822C328.619 364.486 328.036 363.805 328.036 362.778C328.036 362.199 328.265 361.737 328.722 361.392C329.189 361.037 329.763 360.86 330.444 360.86C331.508 360.86 332.278 361.266 332.754 362.078L331.858 362.694C331.475 362.162 330.99 361.896 330.402 361.896C330.085 361.896 329.809 361.975 329.576 362.134C329.352 362.283 329.24 362.484 329.24 362.736C329.24 362.969 329.31 363.17 329.45 363.338C329.599 363.497 329.861 363.632 330.234 363.744L331.004 363.982C332.273 364.374 332.908 365.06 332.908 366.04C332.908 366.693 332.679 367.207 332.222 367.58C331.774 367.953 331.191 368.14 330.472 368.14Z" fill="#A3A3A3"/>
<path d="M462.272 431.188C461.637 431.823 460.839 432.14 459.878 432.14C458.917 432.14 458.114 431.823 457.47 431.188C456.826 430.553 456.504 429.779 456.504 428.864C456.504 428.379 456.597 427.945 456.784 427.562C456.98 427.17 457.26 426.759 457.624 426.33L461.25 422.06H462.776L459.738 425.658C459.906 425.639 460.037 425.63 460.13 425.63C460.961 425.63 461.684 425.947 462.3 426.582C462.925 427.217 463.238 427.968 463.238 428.836C463.238 429.76 462.916 430.544 462.272 431.188ZM459.878 430.978C460.475 430.978 460.979 430.768 461.39 430.348C461.801 429.928 462.006 429.424 462.006 428.836C462.006 428.248 461.801 427.744 461.39 427.324C460.979 426.904 460.475 426.694 459.878 426.694C459.271 426.694 458.763 426.904 458.352 427.324C457.941 427.735 457.736 428.239 457.736 428.836C457.736 429.433 457.941 429.942 458.352 430.362C458.763 430.773 459.271 430.978 459.878 430.978ZM464.846 432L467.912 428.388C467.809 428.397 467.679 428.402 467.52 428.402C466.689 428.402 465.961 428.085 465.336 427.45C464.72 426.815 464.412 426.069 464.412 425.21C464.412 424.277 464.729 423.493 465.364 422.858C466.008 422.214 466.811 421.892 467.772 421.892C468.733 421.892 469.536 422.209 470.18 422.844C470.824 423.479 471.146 424.253 471.146 425.168C471.146 425.653 471.048 426.092 470.852 426.484C470.665 426.867 470.39 427.273 470.026 427.702L466.386 432H464.846ZM466.246 426.722C466.657 427.133 467.165 427.338 467.772 427.338C468.379 427.338 468.887 427.133 469.298 426.722C469.709 426.302 469.914 425.793 469.914 425.196C469.914 424.599 469.709 424.095 469.298 423.684C468.887 423.264 468.379 423.054 467.772 423.054C467.165 423.054 466.657 423.264 466.246 423.684C465.845 424.095 465.644 424.599 465.644 425.196C465.644 425.793 465.845 426.302 466.246 426.722ZM472.806 432L475.872 428.388C475.77 428.397 475.639 428.402 475.48 428.402C474.65 428.402 473.922 428.085 473.296 427.45C472.68 426.815 472.372 426.069 472.372 425.21C472.372 424.277 472.69 423.493 473.324 422.858C473.968 422.214 474.771 421.892 475.732 421.892C476.694 421.892 477.496 422.209 478.14 422.844C478.784 423.479 479.106 424.253 479.106 425.168C479.106 425.653 479.008 426.092 478.812 426.484C478.626 426.867 478.35 427.273 477.986 427.702L474.346 432H472.806ZM474.206 426.722C474.617 427.133 475.126 427.338 475.732 427.338C476.339 427.338 476.848 427.133 477.258 426.722C477.669 426.302 477.874 425.793 477.874 425.196C477.874 424.599 477.669 424.095 477.258 423.684C476.848 423.264 476.339 423.054 475.732 423.054C475.126 423.054 474.617 423.264 474.206 423.684C473.805 424.095 473.604 424.599 473.604 425.196C473.604 425.793 473.805 426.302 474.206 426.722ZM493.397 432V427.884C493.397 427.305 493.276 426.843 493.034 426.498C492.8 426.143 492.459 425.966 492.012 425.966C491.452 425.966 490.994 426.185 490.639 426.624C490.294 427.063 490.112 427.66 490.093 428.416V432H488.889V427.884C488.889 427.296 488.768 426.829 488.525 426.484C488.292 426.139 487.956 425.966 487.517 425.966C486.939 425.966 486.472 426.199 486.117 426.666C485.763 427.123 485.585 427.744 485.585 428.528V432H484.381V425H485.585V426.078C486.033 425.266 486.738 424.86 487.699 424.86C488.763 424.86 489.482 425.359 489.855 426.358C490.042 425.901 490.341 425.537 490.751 425.266C491.162 424.995 491.629 424.86 492.151 424.86C492.907 424.86 493.505 425.117 493.944 425.63C494.382 426.143 494.602 426.834 494.602 427.702V432H493.397ZM498.126 422.886C497.968 423.045 497.767 423.124 497.524 423.124C497.282 423.124 497.076 423.045 496.908 422.886C496.74 422.718 496.656 422.513 496.656 422.27C496.656 422.037 496.74 421.836 496.908 421.668C497.076 421.5 497.282 421.416 497.524 421.416C497.767 421.416 497.968 421.5 498.126 421.668C498.285 421.836 498.364 422.037 498.364 422.27C498.364 422.513 498.285 422.718 498.126 422.886ZM496.908 432V425H498.112V432H496.908ZM500.535 432V425H501.739V426.078C502.215 425.266 502.957 424.86 503.965 424.86C504.758 424.86 505.397 425.117 505.883 425.63C506.368 426.143 506.611 426.829 506.611 427.688V432H505.421V427.87C505.421 427.282 505.271 426.82 504.973 426.484C504.674 426.139 504.273 425.966 503.769 425.966C503.19 425.966 502.705 426.195 502.313 426.652C501.93 427.109 501.739 427.735 501.739 428.528V432H500.535ZM511.033 432.14C510.389 432.14 509.824 432.005 509.339 431.734C508.853 431.454 508.503 431.048 508.289 430.516L509.269 429.97C509.399 430.315 509.628 430.586 509.955 430.782C510.281 430.978 510.645 431.076 511.047 431.076C511.392 431.076 511.681 430.992 511.915 430.824C512.148 430.656 512.265 430.427 512.265 430.138C512.265 429.886 512.171 429.676 511.985 429.508C511.807 429.34 511.495 429.186 511.047 429.046L510.347 428.822C509.18 428.486 508.597 427.805 508.597 426.778C508.597 426.199 508.825 425.737 509.283 425.392C509.749 425.037 510.323 424.86 511.005 424.86C512.069 424.86 512.839 425.266 513.315 426.078L512.419 426.694C512.036 426.162 511.551 425.896 510.963 425.896C510.645 425.896 510.37 425.975 510.137 426.134C509.913 426.283 509.801 426.484 509.801 426.736C509.801 426.969 509.871 427.17 510.011 427.338C510.16 427.497 510.421 427.632 510.795 427.744L511.565 427.982C512.834 428.374 513.469 429.06 513.469 430.04C513.469 430.693 513.24 431.207 512.783 431.58C512.335 431.953 511.751 432.14 511.033 432.14Z" fill="#A3A3A3"/>
<path d="M541.036 496L544.102 492.388C543.999 492.397 543.869 492.402 543.71 492.402C542.879 492.402 542.151 492.085 541.526 491.45C540.91 490.815 540.602 490.069 540.602 489.21C540.602 488.277 540.919 487.493 541.554 486.858C542.198 486.214 543.001 485.892 543.962 485.892C544.923 485.892 545.726 486.209 546.37 486.844C547.014 487.479 547.336 488.253 547.336 489.168C547.336 489.653 547.238 490.092 547.042 490.484C546.855 490.867 546.58 491.273 546.216 491.702L542.576 496H541.036ZM542.436 490.722C542.847 491.133 543.355 491.338 543.962 491.338C544.569 491.338 545.077 491.133 545.488 490.722C545.899 490.302 546.104 489.793 546.104 489.196C546.104 488.599 545.899 488.095 545.488 487.684C545.077 487.264 544.569 487.054 543.962 487.054C543.355 487.054 542.847 487.264 542.436 487.684C542.035 488.095 541.834 488.599 541.834 489.196C541.834 489.793 542.035 490.302 542.436 490.722ZM553.932 495.188C553.297 495.823 552.499 496.14 551.538 496.14C550.576 496.14 549.774 495.823 549.13 495.188C548.486 494.553 548.164 493.779 548.164 492.864C548.164 492.379 548.257 491.945 548.444 491.562C548.64 491.17 548.92 490.759 549.284 490.33L552.91 486.06H554.436L551.398 489.658C551.566 489.639 551.696 489.63 551.79 489.63C552.62 489.63 553.344 489.947 553.96 490.582C554.585 491.217 554.898 491.968 554.898 492.836C554.898 493.76 554.576 494.544 553.932 495.188ZM551.538 494.978C552.135 494.978 552.639 494.768 553.05 494.348C553.46 493.928 553.666 493.424 553.666 492.836C553.666 492.248 553.46 491.744 553.05 491.324C552.639 490.904 552.135 490.694 551.538 490.694C550.931 490.694 550.422 490.904 550.012 491.324C549.601 491.735 549.396 492.239 549.396 492.836C549.396 493.433 549.601 493.942 550.012 494.362C550.422 494.773 550.931 494.978 551.538 494.978ZM559.974 496.14C558.938 496.14 558.093 495.795 557.44 495.104C556.787 494.404 556.46 493.503 556.46 492.402V489.63C556.46 488.529 556.787 487.633 557.44 486.942C558.103 486.242 558.947 485.892 559.974 485.892C561.001 485.892 561.845 486.242 562.508 486.942C563.171 487.642 563.502 488.538 563.502 489.63V492.402C563.502 493.503 563.171 494.404 562.508 495.104C561.845 495.795 561.001 496.14 559.974 496.14ZM559.974 494.964C560.665 494.964 561.225 494.735 561.654 494.278C562.083 493.821 562.298 493.195 562.298 492.402V489.63C562.298 488.837 562.083 488.211 561.654 487.754C561.225 487.297 560.665 487.068 559.974 487.068C559.293 487.068 558.737 487.297 558.308 487.754C557.879 488.211 557.664 488.837 557.664 489.63V492.402C557.664 493.195 557.879 493.821 558.308 494.278C558.737 494.735 559.293 494.964 559.974 494.964ZM578.149 496V491.884C578.149 491.305 578.028 490.843 577.785 490.498C577.552 490.143 577.211 489.966 576.763 489.966C576.203 489.966 575.746 490.185 575.391 490.624C575.046 491.063 574.864 491.66 574.845 492.416V496H573.641V491.884C573.641 491.296 573.52 490.829 573.277 490.484C573.044 490.139 572.708 489.966 572.269 489.966C571.691 489.966 571.224 490.199 570.869 490.666C570.515 491.123 570.337 491.744 570.337 492.528V496H569.133V489H570.337V490.078C570.785 489.266 571.49 488.86 572.451 488.86C573.515 488.86 574.234 489.359 574.607 490.358C574.794 489.901 575.093 489.537 575.503 489.266C575.914 488.995 576.381 488.86 576.903 488.86C577.659 488.86 578.257 489.117 578.695 489.63C579.134 490.143 579.353 490.834 579.353 491.702V496H578.149ZM582.878 486.886C582.72 487.045 582.519 487.124 582.276 487.124C582.034 487.124 581.828 487.045 581.66 486.886C581.492 486.718 581.408 486.513 581.408 486.27C581.408 486.037 581.492 485.836 581.66 485.668C581.828 485.5 582.034 485.416 582.276 485.416C582.519 485.416 582.72 485.5 582.878 485.668C583.037 485.836 583.116 486.037 583.116 486.27C583.116 486.513 583.037 486.718 582.878 486.886ZM581.66 496V489H582.864V496H581.66ZM585.287 496V489H586.491V490.078C586.967 489.266 587.709 488.86 588.717 488.86C589.51 488.86 590.149 489.117 590.635 489.63C591.12 490.143 591.363 490.829 591.363 491.688V496H590.173V491.87C590.173 491.282 590.023 490.82 589.725 490.484C589.426 490.139 589.025 489.966 588.521 489.966C587.942 489.966 587.457 490.195 587.065 490.652C586.682 491.109 586.491 491.735 586.491 492.528V496H585.287ZM595.785 496.14C595.141 496.14 594.576 496.005 594.091 495.734C593.605 495.454 593.255 495.048 593.041 494.516L594.021 493.97C594.151 494.315 594.38 494.586 594.707 494.782C595.033 494.978 595.397 495.076 595.799 495.076C596.144 495.076 596.433 494.992 596.667 494.824C596.9 494.656 597.017 494.427 597.017 494.138C597.017 493.886 596.923 493.676 596.737 493.508C596.559 493.34 596.247 493.186 595.799 493.046L595.099 492.822C593.932 492.486 593.349 491.805 593.349 490.778C593.349 490.199 593.577 489.737 594.035 489.392C594.501 489.037 595.075 488.86 595.757 488.86C596.821 488.86 597.591 489.266 598.067 490.078L597.171 490.694C596.788 490.162 596.303 489.896 595.715 489.896C595.397 489.896 595.122 489.975 594.889 490.134C594.665 490.283 594.553 490.484 594.553 490.736C594.553 490.969 594.623 491.17 594.763 491.338C594.912 491.497 595.173 491.632 595.547 491.744L596.317 491.982C597.586 492.374 598.221 493.06 598.221 494.04C598.221 494.693 597.992 495.207 597.535 495.58C597.087 495.953 596.503 496.14 595.785 496.14Z" fill="#A3A3A3"/>
<path d="M65.096 497L70.12 485.64H71.352L76.392 497H74.84L73.368 493.688H68.072L66.632 497H65.096ZM70.712 487.656L68.664 492.344H72.776L70.712 487.656ZM79.3324 486.584C79.151 486.765 78.9217 486.856 78.6444 486.856C78.367 486.856 78.1324 486.765 77.9404 486.584C77.7484 486.392 77.6524 486.157 77.6524 485.88C77.6524 485.613 77.7484 485.384 77.9404 485.192C78.1324 485 78.367 484.904 78.6444 484.904C78.9217 484.904 79.151 485 79.3324 485.192C79.5137 485.384 79.6044 485.613 79.6044 485.88C79.6044 486.157 79.5137 486.392 79.3324 486.584ZM77.9404 497V489H79.3164V497H77.9404ZM82.0847 497V489H83.4607V490.552C83.6101 490.061 83.8981 489.667 84.3247 489.368C84.7621 489.069 85.2208 488.92 85.7007 488.92C85.9354 488.92 86.1434 488.941 86.3247 488.984V490.408C86.1327 490.323 85.8821 490.28 85.5728 490.28C85.0181 490.28 84.5274 490.52 84.1007 491C83.6741 491.48 83.4607 492.157 83.4607 493.032V497H82.0847ZM92.2961 497.16C91.7095 497.16 91.1601 497.032 90.6481 496.776C90.1468 496.509 89.7575 496.173 89.4801 495.768V497H88.1041V485H89.4801V490.232C89.7575 489.827 90.1468 489.496 90.6481 489.24C91.1601 488.973 91.7095 488.84 92.2961 488.84C93.4055 488.84 94.3335 489.245 95.0801 490.056C95.8375 490.867 96.2161 491.848 96.2161 493C96.2161 494.152 95.8375 495.133 95.0801 495.944C94.3335 496.755 93.4055 497.16 92.2961 497.16ZM90.1361 495.064C90.6481 495.619 91.2988 495.896 92.0881 495.896C92.8775 495.896 93.5281 495.619 94.0401 495.064C94.5521 494.509 94.8081 493.821 94.8081 493C94.8081 492.179 94.5521 491.491 94.0401 490.936C93.5281 490.381 92.8775 490.104 92.0881 490.104C91.2988 490.104 90.6481 490.381 90.1361 490.936C89.6241 491.491 89.3681 492.179 89.3681 493C89.3681 493.821 89.6241 494.509 90.1361 495.064ZM100.314 500.344H98.778L100.522 496.584L97.018 489H98.538L101.29 495.08L104.026 489H105.562L100.314 500.344ZM110.2 497.08C109.464 497.08 108.872 496.872 108.424 496.456C107.976 496.04 107.752 495.432 107.752 494.632V490.264H106.056V489H107.752V486.776H109.128V489H111.432V490.264H109.128V494.456C109.128 494.957 109.235 495.309 109.448 495.512C109.661 495.715 109.997 495.816 110.456 495.816C110.861 495.816 111.187 495.763 111.432 495.656V496.888C111.048 497.016 110.637 497.08 110.2 497.08ZM116.76 497.16C115.534 497.16 114.536 496.765 113.768 495.976C113 495.187 112.616 494.195 112.616 493C112.616 491.816 113.006 490.829 113.784 490.04C114.563 489.24 115.56 488.84 116.776 488.84C117.854 488.84 118.755 489.203 119.48 489.928C120.216 490.643 120.584 491.619 120.584 492.856C120.584 493.016 120.579 493.155 120.568 493.272H114.008C114.03 494.019 114.296 494.643 114.808 495.144C115.331 495.645 115.987 495.896 116.776 495.896C117.896 495.896 118.728 495.432 119.272 494.504L120.36 495.256C119.582 496.525 118.382 497.16 116.76 497.16ZM114.104 492.152H119.176C119.07 491.512 118.787 491.005 118.328 490.632C117.88 490.248 117.347 490.056 116.728 490.056C116.099 490.056 115.534 490.248 115.032 490.632C114.542 491.005 114.232 491.512 114.104 492.152Z" fill="white"/>
<path d="M46.504 433V421.64H49.768C51.5067 421.64 52.9467 422.179 54.088 423.256C55.24 424.333 55.816 425.688 55.816 427.32C55.816 428.952 55.24 430.307 54.088 431.384C52.9467 432.461 51.5067 433 49.768 433H46.504ZM47.992 431.608H49.768C51.1227 431.608 52.216 431.208 53.048 430.408C53.8907 429.597 54.312 428.568 54.312 427.32C54.312 426.072 53.8907 425.048 53.048 424.248C52.216 423.437 51.1227 423.032 49.768 423.032H47.992V431.608ZM61.5073 433.16C60.2806 433.16 59.2832 432.765 58.5152 431.976C57.7472 431.187 57.3632 430.195 57.3632 429C57.3632 427.816 57.7526 426.829 58.5312 426.04C59.3099 425.24 60.3073 424.84 61.5233 424.84C62.6006 424.84 63.5019 425.203 64.2273 425.928C64.9633 426.643 65.3313 427.619 65.3313 428.856C65.3313 429.016 65.3259 429.155 65.3153 429.272H58.7552C58.7766 430.019 59.0433 430.643 59.5552 431.144C60.0779 431.645 60.7339 431.896 61.5233 431.896C62.6432 431.896 63.4753 431.432 64.0193 430.504L65.1073 431.256C64.3286 432.525 63.1286 433.16 61.5073 433.16ZM58.8512 428.152H63.9233C63.8166 427.512 63.5339 427.005 63.0753 426.632C62.6273 426.248 62.0939 426.056 61.4753 426.056C60.8459 426.056 60.2806 426.248 59.7792 426.632C59.2886 427.005 58.9792 427.512 58.8512 428.152ZM71.6361 433.16C71.0495 433.16 70.5001 433.032 69.9881 432.776C69.4868 432.509 69.0975 432.173 68.8201 431.768V433H67.4441V421H68.8201V426.232C69.0975 425.827 69.4868 425.496 69.9881 425.24C70.5001 424.973 71.0495 424.84 71.6361 424.84C72.7455 424.84 73.6735 425.245 74.4201 426.056C75.1775 426.867 75.5561 427.848 75.5561 429C75.5561 430.152 75.1775 431.133 74.4201 431.944C73.6735 432.755 72.7455 433.16 71.6361 433.16ZM69.4761 431.064C69.9881 431.619 70.6388 431.896 71.4281 431.896C72.2175 431.896 72.8681 431.619 73.3801 431.064C73.8921 430.509 74.1481 429.821 74.1481 429C74.1481 428.179 73.8921 427.491 73.3801 426.936C72.8681 426.381 72.2175 426.104 71.4281 426.104C70.6388 426.104 69.9881 426.381 69.4761 426.936C68.9641 427.491 68.7081 428.179 68.7081 429C68.7081 429.821 68.9641 430.509 69.4761 431.064ZM81.2023 433.16C79.9756 433.16 78.9782 432.765 78.2102 431.976C77.4422 431.187 77.0582 430.195 77.0582 429C77.0582 427.816 77.4476 426.829 78.2262 426.04C79.0049 425.24 80.0022 424.84 81.2182 424.84C82.2956 424.84 83.1969 425.203 83.9222 425.928C84.6582 426.643 85.0262 427.619 85.0262 428.856C85.0262 429.016 85.0209 429.155 85.0103 429.272H78.4502C78.4716 430.019 78.7382 430.643 79.2502 431.144C79.7729 431.645 80.4289 431.896 81.2182 431.896C82.3382 431.896 83.1702 431.432 83.7143 430.504L84.8022 431.256C84.0236 432.525 82.8236 433.16 81.2023 433.16ZM78.5462 428.152H83.6182C83.5116 427.512 83.2289 427.005 82.7702 426.632C82.3222 426.248 81.7889 426.056 81.1702 426.056C80.5409 426.056 79.9756 426.248 79.4742 426.632C78.9836 427.005 78.6742 427.512 78.5462 428.152ZM86.4831 433V431.912L91.0591 426.264H86.5471V425H92.8351V426.104L88.2591 431.736H92.9791V433H86.4831ZM96.4411 422.584C96.2598 422.765 96.0305 422.856 95.7531 422.856C95.4758 422.856 95.2411 422.765 95.0491 422.584C94.8571 422.392 94.7611 422.157 94.7611 421.88C94.7611 421.613 94.8571 421.384 95.0491 421.192C95.2411 421 95.4758 420.904 95.7531 420.904C96.0305 420.904 96.2598 421 96.4411 421.192C96.6225 421.384 96.7131 421.613 96.7131 421.88C96.7131 422.157 96.6225 422.392 96.4411 422.584ZM95.0491 433V425H96.4251V433H95.0491ZM102.025 433.16C101.151 433.16 100.441 432.867 99.8975 432.28C99.3535 431.683 99.0815 430.893 99.0815 429.912V425H100.457V429.704C100.457 430.376 100.617 430.909 100.937 431.304C101.268 431.699 101.711 431.896 102.265 431.896C102.905 431.896 103.433 431.635 103.849 431.112C104.276 430.579 104.489 429.864 104.489 428.968V425H105.865V433H104.489V431.768C103.967 432.696 103.145 433.16 102.025 433.16ZM118.923 433V428.296C118.923 427.635 118.784 427.107 118.507 426.712C118.24 426.307 117.851 426.104 117.339 426.104C116.699 426.104 116.176 426.355 115.771 426.856C115.376 427.357 115.168 428.04 115.147 428.904V433H113.771V428.296C113.771 427.624 113.632 427.091 113.355 426.696C113.088 426.301 112.704 426.104 112.203 426.104C111.542 426.104 111.008 426.371 110.603 426.904C110.198 427.427 109.995 428.136 109.995 429.032V433H108.619V425H109.995V426.232C110.507 425.304 111.312 424.84 112.411 424.84C113.627 424.84 114.448 425.411 114.875 426.552C115.088 426.029 115.43 425.613 115.899 425.304C116.368 424.995 116.902 424.84 117.499 424.84C118.363 424.84 119.046 425.133 119.547 425.72C120.048 426.307 120.299 427.096 120.299 428.088V433H118.923Z" fill="white"/>
<path d="M60.504 369V357.64H67.112V359.048H61.992V362.488H66.04V363.896H61.992V369H60.504ZM70.3324 358.584C70.151 358.765 69.9217 358.856 69.6444 358.856C69.367 358.856 69.1324 358.765 68.9404 358.584C68.7484 358.392 68.6524 358.157 68.6524 357.88C68.6524 357.613 68.7484 357.384 68.9404 357.192C69.1324 357 69.367 356.904 69.6444 356.904C69.9217 356.904 70.151 357 70.3324 357.192C70.5137 357.384 70.6044 357.613 70.6044 357.88C70.6044 358.157 70.5137 358.392 70.3324 358.584ZM68.9404 369V361H70.3164V369H68.9404ZM75.5807 369L71.8847 361H73.4207L76.1567 367.064L78.8928 361H80.4288L76.7327 369H75.5807ZM85.3273 369.16C84.1006 369.16 83.1032 368.765 82.3352 367.976C81.5672 367.187 81.1832 366.195 81.1832 365C81.1832 363.816 81.5726 362.829 82.3512 362.04C83.1299 361.24 84.1272 360.84 85.3432 360.84C86.4206 360.84 87.3219 361.203 88.0472 361.928C88.7832 362.643 89.1512 363.619 89.1512 364.856C89.1512 365.016 89.1459 365.155 89.1353 365.272H82.5752C82.5966 366.019 82.8632 366.643 83.3752 367.144C83.8979 367.645 84.5539 367.896 85.3432 367.896C86.4632 367.896 87.2952 367.432 87.8393 366.504L88.9272 367.256C88.1486 368.525 86.9486 369.16 85.3273 369.16ZM82.6712 364.152H87.7432C87.6366 363.512 87.3539 363.005 86.8952 362.632C86.4472 362.248 85.9139 362.056 85.2952 362.056C84.6659 362.056 84.1006 362.248 83.5992 362.632C83.1086 363.005 82.7992 363.512 82.6712 364.152ZM94.2587 369.08C93.5227 369.08 92.9307 368.872 92.4827 368.456C92.0347 368.04 91.8107 367.432 91.8107 366.632V362.264H90.1147V361H91.8107V358.776H93.1867V361H95.4907V362.264H93.1867V366.456C93.1867 366.957 93.2934 367.309 93.5067 367.512C93.7201 367.715 94.0561 367.816 94.5147 367.816C94.9201 367.816 95.2454 367.763 95.4907 367.656V368.888C95.1067 369.016 94.6961 369.08 94.2587 369.08ZM97.4085 369V361H98.7845V362.552C98.9338 362.061 99.2218 361.667 99.6485 361.368C100.086 361.069 100.544 360.92 101.024 360.92C101.259 360.92 101.467 360.941 101.648 360.984V362.408C101.456 362.323 101.206 362.28 100.896 362.28C100.342 362.28 99.8512 362.52 99.4245 363C98.9978 363.48 98.7845 364.157 98.7845 365.032V369H97.4085ZM106.458 369.16C105.349 369.16 104.416 368.755 103.658 367.944C102.912 367.133 102.538 366.152 102.538 365C102.538 363.848 102.912 362.867 103.658 362.056C104.416 361.245 105.349 360.84 106.458 360.84C107.045 360.84 107.589 360.973 108.09 361.24C108.602 361.496 108.997 361.827 109.274 362.232V361H110.65V369H109.274V367.768C108.997 368.173 108.602 368.509 108.09 368.776C107.589 369.032 107.045 369.16 106.458 369.16ZM106.666 367.896C107.456 367.896 108.106 367.619 108.618 367.064C109.13 366.509 109.386 365.821 109.386 365C109.386 364.179 109.13 363.491 108.618 362.936C108.106 362.381 107.456 362.104 106.666 362.104C105.866 362.104 105.21 362.381 104.698 362.936C104.186 363.491 103.93 364.179 103.93 365C103.93 365.821 104.186 366.509 104.698 367.064C105.21 367.619 105.866 367.896 106.666 367.896ZM113.4 369V361H114.776V362.232C115.32 361.304 116.168 360.84 117.32 360.84C118.227 360.84 118.958 361.133 119.512 361.72C120.067 362.307 120.344 363.091 120.344 364.072V369H118.984V364.28C118.984 363.608 118.814 363.08 118.472 362.696C118.131 362.301 117.672 362.104 117.096 362.104C116.435 362.104 115.88 362.365 115.432 362.888C114.995 363.411 114.776 364.125 114.776 365.032V369H113.4Z" fill="white"/>
<path d="M78.592 303.784C79.84 303.784 80.88 303.352 81.712 302.488C82.5547 301.624 82.976 300.568 82.976 299.32C82.976 298.072 82.5547 297.016 81.712 296.152C80.88 295.288 79.84 294.856 78.592 294.856C77.3547 294.856 76.3147 295.288 75.472 296.152C74.64 297.016 74.224 298.072 74.224 299.32C74.224 300.568 74.64 301.624 75.472 302.488C76.3147 303.352 77.3547 303.784 78.592 303.784ZM78.592 305.192C76.96 305.192 75.5733 304.627 74.432 303.496C73.2907 302.355 72.72 300.963 72.72 299.32C72.72 297.677 73.2907 296.291 74.432 295.16C75.5733 294.019 76.96 293.448 78.592 293.448C80.2347 293.448 81.6213 294.019 82.752 295.16C83.8933 296.291 84.464 297.677 84.464 299.32C84.464 300.963 83.8933 302.355 82.752 303.496C81.6213 304.627 80.2347 305.192 78.592 305.192ZM86.8671 305V293.64H88.3551V303.592H93.8431V305H86.8671ZM98.6464 305.16C97.537 305.16 96.6037 304.755 95.8464 303.944C95.0997 303.133 94.7264 302.152 94.7264 301C94.7264 299.848 95.0997 298.867 95.8464 298.056C96.6037 297.245 97.537 296.84 98.6464 296.84C99.233 296.84 99.777 296.973 100.278 297.24C100.79 297.496 101.185 297.827 101.462 298.232V297H102.838V305H101.462V303.768C101.185 304.173 100.79 304.509 100.278 304.776C99.777 305.032 99.233 305.16 98.6464 305.16ZM98.8544 303.896C99.6437 303.896 100.294 303.619 100.806 303.064C101.318 302.509 101.574 301.821 101.574 301C101.574 300.179 101.318 299.491 100.806 298.936C100.294 298.381 99.6437 298.104 98.8544 298.104C98.0544 298.104 97.3984 298.381 96.8864 298.936C96.3744 299.491 96.1184 300.179 96.1184 301C96.1184 301.821 96.3744 302.509 96.8864 303.064C97.3984 303.619 98.0544 303.896 98.8544 303.896ZM111.3 305L106.964 301V305H105.588V293H106.964V300.12L110.452 297H112.276L108.34 300.536L113.156 305H111.3ZM117.378 305.16C116.151 305.16 115.154 304.765 114.386 303.976C113.618 303.187 113.234 302.195 113.234 301C113.234 299.816 113.623 298.829 114.402 298.04C115.181 297.24 116.178 296.84 117.394 296.84C118.471 296.84 119.373 297.203 120.098 297.928C120.834 298.643 121.202 299.619 121.202 300.856C121.202 301.016 121.197 301.155 121.186 301.272H114.626C114.647 302.019 114.914 302.643 115.426 303.144C115.949 303.645 116.605 303.896 117.394 303.896C118.514 303.896 119.346 303.432 119.89 302.504L120.978 303.256C120.199 304.525 118.999 305.16 117.378 305.16ZM114.722 300.152H119.794C119.687 299.512 119.405 299.005 118.946 298.632C118.498 298.248 117.965 298.056 117.346 298.056C116.717 298.056 116.151 298.248 115.65 298.632C115.159 299.005 114.85 299.512 114.722 300.152Z" fill="white"/>
</g>
<defs>
<clipPath id="clip0_976_4033">
<rect width="648" height="643" rx="24" fill="white"/>
</clipPath>
</defs>
</svg>
