<svg width="167" height="167" viewBox="0 0 167 167" fill="none" xmlns="http://www.w3.org/2000/svg">
<rect x="75.6963" width="11.8371" height="32.7797" rx="1.82109" fill="#2E2E2E"/>
<rect x="75.6963" width="11.8371" height="32.7797" rx="1.82109" fill="#2E2E2E"/>
<rect x="75.6963" width="11.8371" height="32.7797" rx="1.82109" fill="#193AE6"/>
<rect x="118.492" y="7.28436" width="11.8371" height="32.7797" rx="1.82109" transform="rotate(30 118.492 7.28436)" fill="#2E2E2E"/>
<rect x="151.912" y="34.992" width="11.8371" height="32.7797" rx="1.82109" transform="rotate(60 151.912 34.992)" fill="#2E2E2E"/>
<rect x="167" y="75.6964" width="11.8371" height="32.7797" rx="1.82109" transform="rotate(90 167 75.6964)" fill="#2E2E2E"/>
<rect x="159.716" y="118.492" width="11.8371" height="32.7797" rx="1.82109" transform="rotate(120 159.716 118.492)" fill="#203665"/>
<rect x="132.008" y="151.912" width="11.8371" height="32.7797" rx="1.82109" transform="rotate(150 132.008 151.912)" fill="#203665"/>
<rect x="91.3037" y="167" width="11.8371" height="32.7797" rx="1.82109" transform="rotate(-180 91.3037 167)" fill="#203665"/>
<rect x="48.508" y="159.716" width="11.8371" height="32.7797" rx="1.82109" transform="rotate(-150 48.508 159.716)" fill="#407BFF"/>
<rect x="15.088" y="132.008" width="11.8371" height="32.7797" rx="1.82109" transform="rotate(-120 15.088 132.008)" fill="#407BFF"/>
<rect y="91.3036" width="11.8371" height="32.7797" rx="1.82109" transform="rotate(-90 0 91.3036)" fill="#245DDE"/>
<rect x="7.28436" y="48.5079" width="11.8371" height="32.7797" rx="1.82109" transform="rotate(-60 7.28436 48.5079)" fill="#245DDE"/>
<rect x="34.992" y="15.088" width="11.8371" height="32.7797" rx="1.82109" transform="rotate(-30 34.992 15.088)" fill="#193AE6"/>
</svg>
