<svg width="146" height="148" viewBox="0 0 146 148" fill="none" xmlns="http://www.w3.org/2000/svg">
<rect x="17.1523" y="71.8047" width="78.9836" height="78.9836" rx="4.78689" transform="rotate(-45 17.1523 71.8047)" fill="#2E2E2E"/>
<rect x="44.2773" y="43.082" width="57.4426" height="57.4426" rx="4.78689" fill="#555555"/>
<path fill-rule="evenodd" clip-rule="evenodd" d="M128.193 15.7026C128.66 16.17 128.66 16.9277 128.193 17.3951L108.344 37.2436C107.877 37.711 107.119 37.711 106.652 37.2436L104.959 35.5512C104.492 35.0839 104.492 34.3261 104.959 33.8588L124.808 14.0102C125.275 13.5429 126.033 13.5429 126.5 14.0102L128.193 15.7026Z" fill="#193AE6"/>
<path fill-rule="evenodd" clip-rule="evenodd" d="M14.0102 124.11C13.5429 123.643 13.5429 122.885 14.0102 122.417L33.8588 102.569C34.3261 102.102 35.0839 102.102 35.5512 102.569L37.2436 104.261C37.711 104.729 37.711 105.486 37.2436 105.954L17.3951 125.802C16.9277 126.27 16.17 126.27 15.7026 125.802L14.0102 124.11Z" fill="#193AE6"/>
<path fill-rule="evenodd" clip-rule="evenodd" d="M36.7466 39.6382C36.2792 40.1056 35.5215 40.1056 35.0541 39.6382L15.2056 19.7896C14.7382 19.3223 14.7382 18.5646 15.2056 18.0972L16.898 16.4048C17.3654 15.9375 18.1231 15.9375 18.5904 16.4048L38.439 36.2534C38.9063 36.7207 38.9063 37.4784 38.439 37.9458L36.7466 39.6382Z" fill="#193AE6"/>
<path fill-rule="evenodd" clip-rule="evenodd" d="M130.09 125.802C129.623 126.27 128.865 126.27 128.398 125.802L108.549 105.954C108.082 105.486 108.082 104.729 108.549 104.261L110.242 102.569C110.709 102.102 111.467 102.102 111.934 102.569L131.783 122.417C132.25 122.885 132.25 123.643 131.783 124.11L130.09 125.802Z" fill="#193AE6"/>
<circle cx="72.4023" cy="6.58197" r="6.58197" fill="#555555"/>
<circle cx="139.418" cy="71.2031" r="6.58197" fill="#555555"/>
<circle cx="72.4023" cy="140.613" r="6.58197" fill="#555555"/>
<circle cx="6.58197" cy="71.2031" r="6.58197" fill="#555555"/>
</svg>
