<svg width="703" height="250" viewBox="0 0 703 250" fill="none" xmlns="http://www.w3.org/2000/svg">
<g filter="url(#filter0_b_1060_3259)">
<rect width="703" height="250" rx="24" fill="url(#paint0_linear_1060_3259)" fill-opacity="0.4"/>
<rect x="0.5" y="0.5" width="702" height="249" rx="23.5" stroke="url(#paint1_linear_1060_3259)"/>
<rect x="132.5" y="98.5" width="79" height="79" rx="39.5" fill="#1F1F1F"/>
<rect x="132.5" y="98.5" width="79" height="79" rx="39.5" stroke="#3D3D3D"/>
<g filter="url(#filter1_d_1060_3259)">
<rect x="148" y="114" width="48" height="48" rx="24" fill="#292929" shape-rendering="crispEdges"/>
<g clip-path="url(#clip0_1060_3259)">
<path fill-rule="evenodd" clip-rule="evenodd" d="M182.107 144.695C180.801 144.659 179.789 144.793 178.94 145.15C178.696 145.248 178.303 145.248 178.271 145.555C178.402 145.684 178.418 145.896 178.532 146.075C178.728 146.399 179.071 146.837 179.381 147.063L180.425 147.81C181.062 148.199 181.78 148.426 182.4 148.816C182.759 149.043 183.118 149.335 183.477 149.578C183.66 149.708 183.771 149.919 184 150V149.951C183.886 149.806 183.853 149.595 183.739 149.432L183.249 148.962C182.776 148.329 182.188 147.777 181.551 147.323C181.029 146.966 179.887 146.48 179.675 145.88L179.642 145.844C180.001 145.807 180.425 145.681 180.768 145.584C181.324 145.438 181.829 145.47 182.4 145.325L183.184 145.097V144.952C182.89 144.66 182.678 144.271 182.368 143.995C181.536 143.281 180.621 142.584 179.675 142C179.169 141.675 178.516 141.464 177.977 141.189C177.781 141.091 177.455 141.043 177.341 140.881C177.046 140.524 176.883 140.053 176.671 139.631L175.333 136.809C175.039 136.176 174.859 135.544 174.501 134.96C172.819 132.202 170.991 130.532 168.183 128.893C167.58 128.552 166.861 128.406 166.098 128.228L164.874 128.162C164.612 128.049 164.351 127.74 164.123 127.594C163.192 127.01 160.793 125.745 160.107 127.412C159.666 128.467 160.76 129.505 161.131 130.04C161.409 130.413 161.768 130.835 161.964 131.257C162.074 131.532 162.111 131.825 162.225 132.117C162.486 132.83 162.731 133.626 163.074 134.291C163.257 134.632 163.449 134.989 163.678 135.297C163.808 135.479 164.037 135.556 164.085 135.848C163.857 136.173 163.841 136.659 163.71 137.065C163.123 138.898 163.351 141.169 164.183 142.519C164.445 142.924 165.061 143.817 165.898 143.476C166.632 143.184 166.469 142.259 166.681 141.448C166.73 141.254 166.697 141.124 166.795 140.994V141.03L167.464 142.376C167.97 143.171 168.852 143.999 169.586 144.55C169.978 144.842 170.288 145.346 170.777 145.524V145.475H170.745C170.647 145.329 170.5 145.264 170.369 145.15C170.076 144.858 169.749 144.501 169.521 144.177C168.835 143.269 168.232 142.263 167.693 141.225C167.431 140.722 167.203 140.171 166.991 139.668C166.893 139.473 166.893 139.181 166.73 139.084C166.485 139.44 166.126 139.749 165.946 140.187C165.635 140.884 165.603 141.744 165.489 142.636C165.423 142.653 165.453 142.636 165.423 142.673C164.902 142.543 164.722 142.007 164.526 141.554C164.036 140.402 163.954 138.553 164.379 137.222C164.493 136.882 164.983 135.811 164.787 135.487C164.689 135.178 164.363 135 164.183 134.757C163.971 134.448 163.743 134.059 163.596 133.719C163.204 132.81 163.009 131.804 162.584 130.896C162.388 130.474 162.045 130.036 161.767 129.647C161.457 129.209 161.115 128.901 160.87 128.382C160.788 128.2 160.674 127.911 160.805 127.716C160.837 127.587 160.903 127.535 161.033 127.506C161.245 127.324 161.849 127.554 162.062 127.651C162.665 127.895 163.171 128.121 163.677 128.462C163.906 128.624 164.151 128.932 164.445 129.014H164.788C165.31 129.127 165.897 129.05 166.387 129.195C167.252 129.472 168.035 129.877 168.737 130.315C170.875 131.661 172.639 133.576 173.83 135.863C174.026 136.236 174.107 136.577 174.287 136.966C174.63 137.762 175.055 138.572 175.397 139.351C175.74 140.114 176.066 140.893 176.556 141.526C176.801 141.866 177.78 142.044 178.22 142.223C178.547 142.368 179.053 142.499 179.347 142.677C179.902 143.018 180.457 143.407 180.979 143.78C181.24 143.975 182.056 144.38 182.105 144.704L182.107 144.695ZM165.461 130.599C165.235 130.597 165.011 130.624 164.792 130.68V130.716H164.824C164.955 130.976 165.184 131.154 165.347 131.382L165.723 132.16L165.755 132.124C165.983 131.962 166.098 131.702 166.098 131.313C166 131.2 165.984 131.086 165.902 130.973C165.804 130.81 165.592 130.729 165.461 130.6V130.599Z" fill="#00678C"/>
</g>
</g>
<rect x="132.5" y="24.5" width="79" height="79" rx="39.5" fill="#1F1F1F"/>
<rect x="132.5" y="24.5" width="79" height="79" rx="39.5" stroke="#3D3D3D"/>
<g filter="url(#filter2_d_1060_3259)">
<rect x="148" y="40" width="48" height="48" rx="24" fill="#292929" shape-rendering="crispEdges"/>
<path d="M181.32 65.9759C181.203 65.6237 180.899 65.3784 180.505 65.3196C180.319 65.2919 180.106 65.3037 179.855 65.3556C179.416 65.4461 179.09 65.4806 178.853 65.4872C179.749 63.9732 180.479 62.2467 180.898 60.6215C181.577 57.9935 181.214 56.7963 180.791 56.2548C179.669 54.8215 178.032 54.0515 176.058 54.0279C175.005 54.015 174.08 54.223 173.598 54.3725C173.149 54.2933 172.666 54.2491 172.159 54.2409C171.209 54.2257 170.37 54.4328 169.653 54.8583C169.256 54.7241 168.619 54.5348 167.883 54.4141C166.153 54.13 164.758 54.3513 163.738 55.072C162.503 55.9446 161.93 57.4606 162.036 59.5781C162.069 60.2503 162.446 62.2958 163.038 64.2356C163.378 65.3506 163.741 66.2766 164.116 66.9879C164.649 67.9966 165.218 68.5906 165.858 68.804C166.216 68.9234 166.867 69.007 167.552 68.4366C167.639 68.5417 167.755 68.6462 167.909 68.7432C168.104 68.8663 168.343 68.9669 168.581 69.0266C169.44 69.2413 170.245 69.1876 170.931 68.8866C170.936 69.0087 170.939 69.1253 170.942 69.2261C170.946 69.3895 170.951 69.5497 170.957 69.6996C170.997 70.7128 171.066 71.5006 171.271 72.0518C171.282 72.0821 171.297 72.1283 171.313 72.1773C171.415 72.4893 171.585 73.0116 172.019 73.4206C172.467 73.8443 173.01 73.9742 173.508 73.9742C173.757 73.9742 173.995 73.9415 174.204 73.8968C174.948 73.7373 175.793 73.4944 176.404 72.6241C176.982 71.8014 177.263 70.5622 177.313 68.6097C177.32 68.5545 177.326 68.5018 177.332 68.4516L177.344 68.3484L177.48 68.3603L177.515 68.3627C178.273 68.3972 179.199 68.2366 179.768 67.9722C180.218 67.7636 181.659 67.0029 181.32 65.9759Z" fill="black"/>
<path d="M180.023 66.1761C177.77 66.6409 177.615 65.8781 177.615 65.8781C179.994 62.3483 180.988 57.8678 180.13 56.7712C177.789 53.7799 173.736 55.1946 173.668 55.2312L173.647 55.2352C173.202 55.1428 172.703 55.0878 172.144 55.0786C171.124 55.0619 170.351 55.3459 169.764 55.7909C169.764 55.7909 162.534 52.8125 162.871 59.5366C162.942 60.9671 164.921 70.3603 167.281 67.5231C168.144 66.4856 168.977 65.6084 168.977 65.6084C169.391 65.8834 169.887 66.0237 170.407 65.9734L170.447 65.9391C170.434 66.0679 170.44 66.1939 170.463 66.3431C169.855 67.0224 170.034 67.1416 168.818 67.3919C167.588 67.6453 168.311 68.0965 168.783 68.2146C169.354 68.3575 170.677 68.5601 171.571 67.3087L171.536 67.4515C171.774 67.6423 171.941 68.6926 171.913 69.6448C171.885 70.5969 171.867 71.2506 172.054 71.7612C172.242 72.2719 172.429 73.4207 174.027 73.0784C175.362 72.7922 176.054 72.0508 176.15 70.814C176.218 69.9347 176.373 70.0647 176.383 69.2786L176.507 68.9065C176.65 67.7146 176.529 67.33 177.352 67.5089L177.552 67.5265C178.157 67.554 178.95 67.4291 179.415 67.2129C180.416 66.7482 181.01 65.9722 180.023 66.1761H180.023Z" fill="#336791"/>
<path d="M170.187 60.1752C169.984 60.147 169.8 60.1731 169.707 60.2436C169.655 60.2832 169.639 60.3291 169.634 60.3607C169.623 60.4444 169.681 60.537 169.717 60.5847C169.819 60.7199 169.968 60.8127 170.116 60.8332C170.137 60.8362 170.158 60.8376 170.179 60.8376C170.425 60.8376 170.649 60.6461 170.669 60.5049C170.693 60.3279 170.436 60.2099 170.187 60.1752ZM176.913 60.1808C176.894 60.0421 176.647 60.0026 176.413 60.0352C176.179 60.0677 175.952 60.1733 175.971 60.3124C175.986 60.4205 176.181 60.605 176.412 60.605C176.432 60.605 176.452 60.6037 176.471 60.6009C176.626 60.5795 176.739 60.4816 176.793 60.4252C176.874 60.3391 176.922 60.2432 176.913 60.1808Z" fill="white"/>
<path d="M180.775 66.1226C180.689 65.8628 180.412 65.7793 179.953 65.8741C178.589 66.1556 178.1 65.9606 177.94 65.8425C179 64.2274 179.872 62.275 180.343 60.4534C180.566 59.5905 180.689 58.7891 180.699 58.1359C180.71 57.419 180.588 56.8922 180.336 56.5704C179.321 55.2731 177.831 54.5772 176.027 54.5581C174.787 54.5441 173.739 54.8615 173.536 54.9507C173.108 54.8444 172.642 54.779 172.134 54.7707C171.203 54.7556 170.399 54.9785 169.733 55.4328C169.443 55.3251 168.695 55.0684 167.781 54.921C166.199 54.6665 164.943 54.8594 164.046 55.4946C162.976 56.2526 162.482 57.6076 162.578 59.5218C162.61 60.1659 162.977 62.1471 163.556 64.0444C164.319 66.5417 165.147 67.9554 166.019 68.2462C166.121 68.2803 166.239 68.304 166.369 68.304C166.687 68.304 167.076 68.1607 167.482 67.673C167.977 67.0794 168.489 66.5002 169.017 65.9362C169.36 66.1201 169.736 66.2228 170.121 66.2331C170.122 66.2432 170.123 66.2533 170.124 66.2633C170.058 66.3423 169.993 66.4225 169.929 66.5038C169.663 66.8425 169.607 66.9131 168.748 67.0899C168.504 67.1403 167.855 67.274 167.845 67.7289C167.835 68.2259 168.612 68.4346 168.701 68.4567C169.01 68.534 169.307 68.5721 169.591 68.5721C170.28 68.5721 170.887 68.3454 171.372 67.9068C171.357 69.6785 171.431 71.4243 171.644 71.9562C171.818 72.3916 172.244 73.4558 173.588 73.4557C173.785 73.4557 174.002 73.4328 174.241 73.3815C175.644 73.0808 176.254 72.4606 176.489 71.0934C176.615 70.3628 176.832 68.618 176.934 67.6821C177.149 67.7491 177.425 67.7798 177.724 67.7797C178.348 67.7797 179.067 67.6472 179.519 67.4378C180.026 67.2023 180.941 66.6246 180.775 66.1226ZM177.433 59.7984C177.429 60.0747 177.391 60.3255 177.35 60.5873C177.307 60.8689 177.262 61.16 177.251 61.5134C177.24 61.8574 177.283 62.215 177.324 62.5608C177.408 63.2593 177.494 63.9784 177.161 64.6879C177.105 64.5898 177.056 64.4883 177.013 64.3842C176.972 64.2837 176.882 64.1224 176.757 63.899C176.272 63.0297 175.137 60.9937 175.718 60.163C175.891 59.9157 176.331 59.6615 177.433 59.7984ZM176.097 55.1175C177.713 55.1532 178.991 55.7578 179.896 56.9145C180.591 57.8017 179.826 61.8386 177.613 65.3212C177.591 65.2929 177.569 65.2647 177.546 65.2366L177.518 65.2016C178.09 64.2572 177.978 63.3227 177.879 62.4942C177.838 62.1542 177.799 61.8331 177.809 61.5314C177.819 61.2117 177.861 60.9375 177.902 60.6723C177.952 60.3456 178.004 60.0075 177.989 59.6089C178 59.5671 178.004 59.5177 177.999 59.459C177.963 59.0768 177.526 57.933 176.637 56.8977C176.15 56.3314 175.441 55.6977 174.472 55.2703C174.889 55.1839 175.459 55.1034 176.097 55.1175ZM167.053 67.316C166.606 67.8534 166.297 67.7504 166.196 67.7166C165.534 67.496 164.767 66.0981 164.09 63.8815C163.505 61.9634 163.163 60.0347 163.136 59.4939C163.05 57.7834 163.465 56.5914 164.368 55.9508C165.838 54.9084 168.255 55.5323 169.226 55.8487C169.212 55.8625 169.198 55.8754 169.184 55.8894C167.59 57.4988 167.628 60.2485 167.632 60.4166C167.632 60.4815 167.637 60.5733 167.645 60.6996C167.672 61.1621 167.723 62.0228 167.587 62.9976C167.46 63.9034 167.739 64.79 168.353 65.4301C168.416 65.4957 168.482 65.5581 168.551 65.6171C168.278 65.9095 167.684 66.5562 167.053 67.316ZM168.756 65.0438C168.261 64.5279 168.037 63.8103 168.14 63.0749C168.284 62.0452 168.23 61.1484 168.202 60.6665C168.198 60.5991 168.194 60.54 168.192 60.4934C168.425 60.287 169.504 59.709 170.273 59.8853C170.624 59.9656 170.838 60.2047 170.927 60.6159C171.388 62.745 170.988 63.6323 170.667 64.3454C170.601 64.4923 170.539 64.6312 170.485 64.7748L170.444 64.8859C170.339 65.1666 170.242 65.4277 170.181 65.6756C169.656 65.674 169.145 65.4495 168.756 65.0437V65.0438ZM168.836 67.915C168.683 67.8767 168.545 67.8101 168.464 67.7549C168.532 67.7231 168.652 67.6797 168.861 67.6367C169.871 67.4287 170.027 67.2819 170.368 66.8493C170.446 66.75 170.535 66.6376 170.657 66.5006L170.657 66.5005C170.84 66.2959 170.924 66.3306 171.075 66.3935C171.198 66.4443 171.318 66.5982 171.366 66.7676C171.389 66.8476 171.415 66.9994 171.33 67.1176C170.619 68.1143 169.581 68.1015 168.836 67.915ZM174.124 72.8356C172.888 73.1005 172.451 72.4698 172.162 71.7488C171.976 71.2834 171.884 69.1844 171.949 66.8665C171.95 66.8356 171.946 66.8059 171.937 66.7778C171.93 66.7225 171.918 66.6677 171.903 66.614C171.806 66.2768 171.571 65.9947 171.289 65.8777C171.177 65.8312 170.971 65.746 170.724 65.8093C170.776 65.592 170.868 65.3466 170.967 65.0809L171.009 64.9692C171.055 64.8432 171.114 64.7127 171.176 64.5745C171.512 63.8284 171.972 62.8065 171.473 60.498C171.286 59.6333 170.662 59.211 169.715 59.3091C169.148 59.3678 168.629 59.5968 168.37 59.7281C168.314 59.7562 168.263 59.7835 168.215 59.81C168.288 58.9388 168.561 57.3106 169.582 56.2805C170.225 55.632 171.082 55.3117 172.125 55.329C174.181 55.3626 175.5 56.4178 176.244 57.2971C176.885 58.0547 177.232 58.818 177.371 59.2297C176.329 59.1237 175.62 59.3293 175.261 59.843C174.479 60.9603 175.688 63.1287 176.269 64.1709C176.376 64.3619 176.468 64.527 176.497 64.5972C176.686 65.0558 176.931 65.362 177.11 65.5855C177.165 65.654 177.218 65.7204 177.259 65.7784C176.943 65.8694 176.376 66.0797 176.428 67.1305C176.386 67.6578 176.09 70.1264 175.939 70.9986C175.74 72.1509 175.316 72.58 174.124 72.8357V72.8356ZM179.284 66.9314C178.961 67.0812 178.421 67.1935 177.908 67.2177C177.341 67.2442 177.053 67.1542 176.985 67.0988C176.953 66.444 177.197 66.3756 177.455 66.3031C177.495 66.2918 177.535 66.2806 177.573 66.2673C177.597 66.2866 177.623 66.3058 177.651 66.3246C178.107 66.6252 178.919 66.6576 180.066 66.4209L180.078 66.4184C179.924 66.563 179.659 66.7571 179.284 66.9314Z" fill="white"/>
</g>
<rect x="186.5" y="61.5" width="79" height="79" rx="39.5" fill="#1F1F1F"/>
<rect x="186.5" y="61.5" width="79" height="79" rx="39.5" stroke="#3D3D3D"/>
<g clip-path="url(#clip1_1060_3259)" filter="url(#filter3_d_1060_3259)">
<path d="M226 125C239.255 125 250 114.255 250 101C250 87.7452 239.255 77 226 77C212.745 77 202 87.7452 202 101C202 114.255 212.745 125 226 125Z" fill="#13AA52"/>
<path d="M232.414 98.0675C230.898 91.377 227.316 89.1772 226.93 88.3367C226.508 87.7438 226.08 86.6891 226.08 86.6891C226.073 86.6712 226.062 86.6398 226.049 86.6094C226.005 87.2023 225.983 87.4311 225.422 88.0292C224.554 88.708 220.1 92.4453 219.738 100.047C219.4 107.136 224.859 111.36 225.597 111.899L225.681 111.958V111.953C225.686 111.989 225.915 113.641 226.077 115.391H226.655C226.791 114.154 226.994 112.925 227.264 111.71L227.311 111.68C227.642 111.443 227.956 111.185 228.254 110.908L228.288 110.878C229.857 109.428 232.678 106.075 232.651 100.728C232.645 99.8363 232.566 98.9464 232.414 98.0675ZM226.015 107.896C226.015 107.896 226.015 97.9531 226.343 97.955C226.599 97.955 226.931 110.78 226.931 110.78C226.475 110.726 226.015 108.67 226.015 107.896Z" fill="white"/>
</g>
<rect x="75.5" y="196.5" width="89" height="29" rx="14.5" fill="#1F1F1F"/>
<rect x="75.5" y="196.5" width="89" height="29" rx="14.5" stroke="#3D3D3D"/>
<path d="M96.9894 216H95.8694L89.8214 208.258V216H88.5194V206.06H89.6534L95.7014 213.802V206.06H96.9894V216ZM102.55 216.14C101.476 216.14 100.604 215.795 99.9315 215.104C99.2595 214.413 98.9235 213.545 98.9235 212.5C98.9235 211.464 99.2642 210.601 99.9455 209.91C100.627 209.21 101.5 208.86 102.564 208.86C103.506 208.86 104.295 209.177 104.93 209.812C105.574 210.437 105.896 211.291 105.896 212.374C105.896 212.514 105.891 212.635 105.882 212.738H100.142C100.16 213.391 100.394 213.937 100.842 214.376C101.299 214.815 101.873 215.034 102.564 215.034C103.544 215.034 104.272 214.628 104.748 213.816L105.7 214.474C105.018 215.585 103.968 216.14 102.55 216.14ZM100.226 211.758H104.664C104.57 211.198 104.323 210.755 103.922 210.428C103.53 210.092 103.063 209.924 102.522 209.924C101.971 209.924 101.476 210.092 101.038 210.428C100.608 210.755 100.338 211.198 100.226 211.758ZM113.667 216L111.931 210.974L110.209 216H109.145L106.765 209H108.025L109.719 214.11L111.469 209H112.393L114.143 214.11L115.837 209H117.111L114.731 216H113.667ZM124.703 216.14C123.733 216.14 122.916 215.785 122.253 215.076C121.6 214.367 121.273 213.508 121.273 212.5C121.273 211.492 121.6 210.633 122.253 209.924C122.916 209.215 123.733 208.86 124.703 208.86C125.217 208.86 125.693 208.977 126.131 209.21C126.579 209.434 126.925 209.723 127.167 210.078V205.5H128.371V216H127.167V214.922C126.925 215.277 126.579 215.571 126.131 215.804C125.693 216.028 125.217 216.14 124.703 216.14ZM124.885 215.034C125.576 215.034 126.145 214.791 126.593 214.306C127.041 213.821 127.265 213.219 127.265 212.5C127.265 211.781 127.041 211.179 126.593 210.694C126.145 210.209 125.576 209.966 124.885 209.966C124.185 209.966 123.611 210.209 123.163 210.694C122.715 211.179 122.491 211.781 122.491 212.5C122.491 213.219 122.715 213.821 123.163 214.306C123.611 214.791 124.185 215.034 124.885 215.034ZM133.662 216.14C132.691 216.14 131.874 215.785 131.212 215.076C130.558 214.367 130.232 213.508 130.232 212.5C130.232 211.492 130.558 210.633 131.212 209.924C131.874 209.215 132.691 208.86 133.662 208.86C134.175 208.86 134.651 208.977 135.09 209.21C135.538 209.434 135.883 209.723 136.126 210.078V209H137.33V216H136.126V214.922C135.883 215.277 135.538 215.571 135.09 215.804C134.651 216.028 134.175 216.14 133.662 216.14ZM133.844 215.034C134.534 215.034 135.104 214.791 135.552 214.306C136 213.821 136.224 213.219 136.224 212.5C136.224 211.781 136 211.179 135.552 210.694C135.104 210.209 134.534 209.966 133.844 209.966C133.144 209.966 132.57 210.209 132.122 210.694C131.674 211.179 131.45 211.781 131.45 212.5C131.45 213.219 131.674 213.821 132.122 214.306C132.57 214.791 133.144 215.034 133.844 215.034ZM142.452 216.07C141.808 216.07 141.29 215.888 140.898 215.524C140.506 215.16 140.31 214.628 140.31 213.928V210.106H138.826V209H140.31V207.054H141.514V209H143.53V210.106H141.514V213.774C141.514 214.213 141.607 214.521 141.794 214.698C141.981 214.875 142.275 214.964 142.676 214.964C143.031 214.964 143.315 214.917 143.53 214.824V215.902C143.194 216.014 142.835 216.07 142.452 216.07ZM147.996 216.14C147.026 216.14 146.209 215.785 145.546 215.076C144.893 214.367 144.566 213.508 144.566 212.5C144.566 211.492 144.893 210.633 145.546 209.924C146.209 209.215 147.026 208.86 147.996 208.86C148.51 208.86 148.986 208.977 149.424 209.21C149.872 209.434 150.218 209.723 150.46 210.078V209H151.664V216H150.46V214.922C150.218 215.277 149.872 215.571 149.424 215.804C148.986 216.028 148.51 216.14 147.996 216.14ZM148.178 215.034C148.869 215.034 149.438 214.791 149.886 214.306C150.334 213.821 150.558 213.219 150.558 212.5C150.558 211.781 150.334 211.179 149.886 210.694C149.438 210.209 148.869 209.966 148.178 209.966C147.478 209.966 146.904 210.209 146.456 210.694C146.008 211.179 145.784 211.781 145.784 212.5C145.784 213.219 146.008 213.821 146.456 214.306C146.904 214.791 147.478 215.034 148.178 215.034Z" fill="white"/>
<rect x="501.5" y="196.5" width="107" height="29" rx="14.5" fill="#1F1F1F"/>
<rect x="501.5" y="196.5" width="107" height="29" rx="14.5" stroke="#3D3D3D"/>
<path d="M520.597 216V206.06H523.453C524.974 206.06 526.234 206.531 527.233 207.474C528.241 208.417 528.745 209.602 528.745 211.03C528.745 212.458 528.241 213.643 527.233 214.586C526.234 215.529 524.974 216 523.453 216H520.597ZM521.899 214.782H523.453C524.638 214.782 525.595 214.432 526.323 213.732C527.06 213.023 527.429 212.122 527.429 211.03C527.429 209.938 527.06 209.042 526.323 208.342C525.595 207.633 524.638 207.278 523.453 207.278H521.899V214.782ZM533.529 216.14C532.558 216.14 531.742 215.785 531.079 215.076C530.426 214.367 530.099 213.508 530.099 212.5C530.099 211.492 530.426 210.633 531.079 209.924C531.742 209.215 532.558 208.86 533.529 208.86C534.042 208.86 534.518 208.977 534.957 209.21C535.405 209.434 535.75 209.723 535.993 210.078V209H537.197V216H535.993V214.922C535.75 215.277 535.405 215.571 534.957 215.804C534.518 216.028 534.042 216.14 533.529 216.14ZM533.711 215.034C534.402 215.034 534.971 214.791 535.419 214.306C535.867 213.821 536.091 213.219 536.091 212.5C536.091 211.781 535.867 211.179 535.419 210.694C534.971 210.209 534.402 209.966 533.711 209.966C533.011 209.966 532.437 210.209 531.989 210.694C531.541 211.179 531.317 211.781 531.317 212.5C531.317 213.219 531.541 213.821 531.989 214.306C532.437 214.791 533.011 215.034 533.711 215.034ZM542.319 216.07C541.675 216.07 541.157 215.888 540.765 215.524C540.373 215.16 540.177 214.628 540.177 213.928V210.106H538.693V209H540.177V207.054H541.381V209H543.397V210.106H541.381V213.774C541.381 214.213 541.475 214.521 541.661 214.698C541.848 214.875 542.142 214.964 542.543 214.964C542.898 214.964 543.183 214.917 543.397 214.824V215.902C543.061 216.014 542.702 216.07 542.319 216.07ZM547.864 216.14C546.893 216.14 546.076 215.785 545.414 215.076C544.76 214.367 544.434 213.508 544.434 212.5C544.434 211.492 544.76 210.633 545.414 209.924C546.076 209.215 546.893 208.86 547.864 208.86C548.377 208.86 548.853 208.977 549.292 209.21C549.74 209.434 550.085 209.723 550.328 210.078V209H551.532V216H550.328V214.922C550.085 215.277 549.74 215.571 549.292 215.804C548.853 216.028 548.377 216.14 547.864 216.14ZM548.046 215.034C548.736 215.034 549.306 214.791 549.754 214.306C550.202 213.821 550.426 213.219 550.426 212.5C550.426 211.781 550.202 211.179 549.754 210.694C549.306 210.209 548.736 209.966 548.046 209.966C547.346 209.966 546.772 210.209 546.324 210.694C545.876 211.179 545.652 211.781 545.652 212.5C545.652 213.219 545.876 213.821 546.324 214.306C546.772 214.791 547.346 215.034 548.046 215.034ZM557.455 216V205.5H558.659V216H557.455ZM563.965 216.14C562.995 216.14 562.178 215.785 561.515 215.076C560.862 214.367 560.535 213.508 560.535 212.5C560.535 211.492 560.862 210.633 561.515 209.924C562.178 209.215 562.995 208.86 563.965 208.86C564.479 208.86 564.955 208.977 565.393 209.21C565.841 209.434 566.187 209.723 566.429 210.078V209H567.633V216H566.429V214.922C566.187 215.277 565.841 215.571 565.393 215.804C564.955 216.028 564.479 216.14 563.965 216.14ZM564.147 215.034C564.838 215.034 565.407 214.791 565.855 214.306C566.303 213.821 566.527 213.219 566.527 212.5C566.527 211.781 566.303 211.179 565.855 210.694C565.407 210.209 564.838 209.966 564.147 209.966C563.447 209.966 562.873 210.209 562.425 210.694C561.977 211.179 561.753 211.781 561.753 212.5C561.753 213.219 561.977 213.821 562.425 214.306C562.873 214.791 563.447 215.034 564.147 215.034ZM575.038 216L571.244 212.5V216H570.04V205.5H571.244V211.73L574.296 209H575.892L572.448 212.094L576.662 216H575.038ZM580.355 216.14C579.282 216.14 578.409 215.795 577.737 215.104C577.065 214.413 576.729 213.545 576.729 212.5C576.729 211.464 577.07 210.601 577.751 209.91C578.433 209.21 579.305 208.86 580.369 208.86C581.312 208.86 582.101 209.177 582.735 209.812C583.379 210.437 583.701 211.291 583.701 212.374C583.701 212.514 583.697 212.635 583.687 212.738H577.947C577.966 213.391 578.199 213.937 578.647 214.376C579.105 214.815 579.679 215.034 580.369 215.034C581.349 215.034 582.077 214.628 582.553 213.816L583.505 214.474C582.824 215.585 581.774 216.14 580.355 216.14ZM578.031 211.758H582.469C582.376 211.198 582.129 210.755 581.727 210.428C581.335 210.092 580.869 209.924 580.327 209.924C579.777 209.924 579.282 210.092 578.843 210.428C578.414 210.755 578.143 211.198 578.031 211.758ZM587.664 216.14C587.02 216.14 586.455 216.005 585.97 215.734C585.485 215.454 585.135 215.048 584.92 214.516L585.9 213.97C586.031 214.315 586.259 214.586 586.586 214.782C586.913 214.978 587.277 215.076 587.678 215.076C588.023 215.076 588.313 214.992 588.546 214.824C588.779 214.656 588.896 214.427 588.896 214.138C588.896 213.886 588.803 213.676 588.616 213.508C588.439 213.34 588.126 213.186 587.678 213.046L586.978 212.822C585.811 212.486 585.228 211.805 585.228 210.778C585.228 210.199 585.457 209.737 585.914 209.392C586.381 209.037 586.955 208.86 587.636 208.86C588.7 208.86 589.47 209.266 589.946 210.078L589.05 210.694C588.667 210.162 588.182 209.896 587.594 209.896C587.277 209.896 587.001 209.975 586.768 210.134C586.544 210.283 586.432 210.484 586.432 210.736C586.432 210.969 586.502 211.17 586.642 211.338C586.791 211.497 587.053 211.632 587.426 211.744L588.196 211.982C589.465 212.374 590.1 213.06 590.1 214.04C590.1 214.693 589.871 215.207 589.414 215.58C588.966 215.953 588.383 216.14 587.664 216.14Z" fill="white"/>
<rect x="64" y="94" width="80" height="92" rx="4" fill="#1E1E1E"/>
<rect x="72" y="102" width="64" height="12" rx="6" fill="#333333"/>
<rect x="72" y="118" width="64" height="12" rx="6" fill="#333333"/>
<rect x="72" y="134" width="64" height="12" rx="6" fill="#333333"/>
<rect x="72.5" y="150.5" width="63" height="11" rx="5.5" fill="#193AE6" fill-opacity="0.25" stroke="#193AE6"/>
<rect x="72.5" y="166.5" width="63" height="11" rx="5.5" fill="#193AE6" fill-opacity="0.25" stroke="#193AE6"/>
<path d="M94 170.667C93.2636 170.667 92.6667 171.264 92.6667 172C92.6667 172.736 93.2636 173.333 94 173.333C94.7364 173.333 95.3333 172.736 95.3333 172C95.3333 171.264 94.7364 170.667 94 170.667ZM93.75 172L93.75 196L94.25 196L94.25 172L93.75 172Z" fill="white"/>
<rect x="559.5" y="98.5" width="79" height="79" rx="39.5" fill="#1F1F1F"/>
<rect x="559.5" y="98.5" width="79" height="79" rx="39.5" stroke="#3D3D3D"/>
<g filter="url(#filter4_d_1060_3259)">
<rect x="575" y="114" width="48" height="48" rx="24" fill="#292929" shape-rendering="crispEdges"/>
<g clip-path="url(#clip2_1060_3259)">
<mask id="mask0_1060_3259" style="mask-type:luminance" maskUnits="userSpaceOnUse" x="508" y="126" width="103" height="24">
<path d="M611 126H508V150H611V126Z" fill="white"/>
</mask>
<g mask="url(#mask0_1060_3259)">
<path d="M609.097 131.643C610.002 132.672 610.403 133.952 610.691 135.243C612.168 141.889 608.24 148.279 601.696 149.71C594.544 151.273 588.469 146.193 587.556 139.829C587.152 137.212 587.615 134.533 588.873 132.213C588.989 131.996 589.064 131.736 589.333 131.639L592.71 131.695L591.559 134.173C591.559 134.258 591.559 134.342 591.559 134.427C592.39 136.882 593.941 138.9 595.412 140.964C595.571 141.841 595.453 142.764 595.837 143.602C596.91 144.834 597.982 146.068 599.054 147.302C599.133 147.393 599.228 147.451 599.326 147.316C599.816 147.011 599.96 146.452 600.23 145.996C600.846 144.966 601.514 143.963 602 142.857L602.15 142.616C602.752 142.378 603.131 141.83 603.664 141.496C603.842 141.396 603.987 141.246 604.082 141.063C604.177 140.88 604.216 140.673 604.196 140.467C604.165 139.433 604.185 138.39 604.183 137.36C604.425 137.117 604.652 136.861 604.864 136.592C605.383 135.851 606.2 135.345 606.505 134.44C606.558 134.447 606.613 134.438 606.662 134.413C606.71 134.388 606.75 134.349 606.777 134.301C606.992 133.969 606.761 133.691 606.667 133.399C606.487 132.836 606.143 132.33 606.107 131.718L609.097 131.643Z" fill="#287ABE"/>
<path d="M592.709 131.696L589.332 131.639C589.777 130.461 590.658 129.618 591.567 128.842C593.132 127.506 594.928 126.584 596.955 126.212C600.481 125.573 603.689 126.35 606.527 128.585C607.585 129.416 608.544 130.357 609.097 131.639L606.102 131.706L603.652 131.675V130.835L605.408 130.825L605.465 130.793L605.409 130.699C605.114 130.404 604.76 130.176 604.372 130.028C603.985 129.881 603.571 129.817 603.157 129.842C600.743 129.9 598.326 129.866 595.911 129.86C595.064 129.86 594.359 130.228 593.68 130.684C593.054 130.712 593.043 131.256 592.881 131.671L592.709 131.696Z" fill="#B8E1F2"/>
<path d="M591.559 134.424C591.559 134.339 591.559 134.255 591.559 134.17C592.97 133.743 594.266 133.034 595.595 132.411C596.016 132.213 596.595 132.23 596.82 131.681C597.629 131.716 598.454 131.543 599.247 131.789C599.254 133.728 599.26 135.671 599.267 137.619H599.142C597.591 136.944 596.051 136.244 594.487 135.606C593.516 135.214 592.627 134.588 591.559 134.424Z" fill="#B6E0F2"/>
<path d="M591.559 134.426C592.626 134.588 593.515 135.212 594.491 135.611C596.055 136.249 597.595 136.95 599.145 137.624C599.021 138.216 598.446 138.357 598.083 138.704C597.257 139.499 596.269 140.104 595.481 140.947C595.459 140.957 595.436 140.963 595.413 140.964C593.942 138.9 592.392 136.884 591.559 134.426Z" fill="#90D4F0"/>
<path d="M604.186 137.355C604.186 138.391 604.167 139.432 604.198 140.463C604.219 140.668 604.179 140.875 604.084 141.058C603.99 141.241 603.844 141.392 603.666 141.491C603.134 141.825 602.754 142.373 602.152 142.612C601.51 141.781 601.11 140.789 600.534 139.917C600.142 139.324 599.979 138.56 599.309 138.172C599.309 138.041 599.311 137.91 599.315 137.779L599.575 137.641C599.693 137.787 599.857 137.768 600.009 137.754C601.399 137.625 602.791 137.492 604.186 137.355Z" fill="#4D8AC8"/>
<path d="M595.834 143.605C595.45 142.766 595.561 141.844 595.41 140.966C595.434 140.965 595.457 140.959 595.478 140.949C596.704 141.002 597.929 141.034 599.146 141.226C599.146 142.195 599.143 143.165 599.139 144.134C598.893 144.124 598.649 144.097 598.407 144.054C597.546 143.918 596.716 143.608 595.834 143.605Z" fill="#B6E0F2"/>
<path d="M599.141 144.132C599.141 143.162 599.142 142.193 599.147 141.224C599.429 140.219 599.191 139.186 599.301 138.178C599.973 138.565 600.137 139.331 600.526 139.922C601.104 140.796 601.502 141.782 602.145 142.617L601.995 142.858L599.257 144.139C599.218 144.14 599.179 144.138 599.141 144.132Z" fill="#58AFDD"/>
<path d="M603.648 131.68L606.099 131.71C606.134 132.322 606.479 132.829 606.658 133.391C606.752 133.685 606.984 133.962 606.769 134.294C606.715 134.29 606.662 134.3 606.613 134.324C606.566 134.349 606.525 134.386 606.496 134.432C605.986 134.529 605.543 134.805 605.082 135.015C604.62 135.226 604.211 135.577 603.665 135.562C603.665 134.277 603.663 132.993 603.658 131.709L603.648 131.68Z" fill="#4D8AC8"/>
<path d="M603.662 135.563C604.206 135.579 604.615 135.226 605.079 135.017C605.543 134.807 605.983 134.53 606.493 134.434C606.187 135.34 605.372 135.845 604.853 136.585C604.641 136.855 604.413 137.111 604.172 137.354C602.779 137.488 601.386 137.621 599.993 137.754C599.84 137.768 599.676 137.787 599.559 137.64C600.521 137.188 601.49 136.75 602.442 136.275C602.864 136.067 603.353 135.969 603.662 135.563Z" fill="#266FA8"/>
<path d="M599.14 144.133C599.18 144.137 599.221 144.137 599.261 144.133C599.283 145.193 599.304 146.254 599.325 147.317C599.227 147.456 599.133 147.394 599.053 147.304C597.979 146.073 596.907 144.842 595.836 143.609C596.717 143.609 597.547 143.922 598.408 144.058C598.65 144.1 598.895 144.125 599.14 144.133Z" fill="#90D4F0"/>
<path d="M596.824 131.685C596.594 132.239 596.014 132.217 595.599 132.415C594.27 133.038 592.974 133.747 591.562 134.173L592.716 131.696L592.884 131.674L596.824 131.685Z" fill="#90D4F0"/>
<path d="M599.326 147.313C599.305 146.253 599.283 145.192 599.262 144.128L601.999 142.848C601.513 143.955 600.845 144.956 600.23 145.987C599.966 146.448 599.816 147.007 599.326 147.313Z" fill="#266FA8"/>
<path d="M606.5 134.436C606.529 134.39 606.569 134.353 606.617 134.328C606.666 134.304 606.719 134.293 606.773 134.298C606.746 134.346 606.706 134.385 606.657 134.409C606.609 134.434 606.554 134.443 606.5 134.436Z" fill="#266FA8"/>
<path d="M593.676 130.687C594.356 130.232 595.06 129.856 595.907 129.863C598.323 129.863 600.74 129.903 603.153 129.845C603.567 129.82 603.982 129.884 604.37 130.031C604.758 130.179 605.112 130.408 605.408 130.704C605.408 130.746 605.408 130.789 605.408 130.831L603.638 130.841H594.531C594.237 130.841 593.94 130.859 593.676 130.687Z" fill="#F4FAFD"/>
<path d="M593.679 130.688C593.943 130.859 594.24 130.84 594.534 130.84H603.641V131.68L603.653 131.711L599.254 131.795C598.453 131.55 597.635 131.722 596.827 131.687L592.879 131.678C593.044 131.259 593.053 130.715 593.679 130.688Z" fill="#E9F6FD"/>
<path d="M605.41 130.827C605.41 130.784 605.41 130.742 605.41 130.699L605.466 130.793L605.41 130.827Z" fill="#E9F6FD"/>
<path d="M599.254 131.793L603.661 131.711C603.661 132.996 603.663 134.28 603.667 135.564C603.358 135.97 602.871 136.068 602.453 136.278C601.5 136.752 600.532 137.19 599.57 137.643L599.31 137.781L599.273 137.625L599.254 131.793Z" fill="#68C1EA"/>
</g>
</g>
</g>
<rect x="559.5" y="24.5" width="79" height="79" rx="39.5" fill="#1F1F1F"/>
<rect x="559.5" y="24.5" width="79" height="79" rx="39.5" stroke="#3D3D3D"/>
<g filter="url(#filter5_d_1060_3259)">
<rect x="575" y="40" width="48" height="48" rx="24" fill="#292929" shape-rendering="crispEdges"/>
<path fill-rule="evenodd" clip-rule="evenodd" d="M607.045 56.6406L602.973 64.0469L607.045 71.4531L608.713 70.5625V57.5312L607.045 56.6406Z" fill="#E25444"/>
<path fill-rule="evenodd" clip-rule="evenodd" d="M607.045 56.6406L598.9 57.5312L594.754 64.0469L598.9 70.5625L607.045 71.4531V56.6406Z" fill="#7B1D13"/>
<path fill-rule="evenodd" clip-rule="evenodd" d="M590.61 56.6406L589.285 57.2031V70.8906L590.61 71.4531L598.902 64.0469L590.61 56.6406Z" fill="#58150D"/>
<path fill-rule="evenodd" clip-rule="evenodd" d="M590.594 56.625L598.915 58.8333V69.4583L590.594 71.4583V56.625Z" fill="#E25444"/>
<path fill-rule="evenodd" clip-rule="evenodd" d="M598.916 60L595.383 59.4583L598.916 55.625L602.44 59.4583L598.916 60Z" fill="#58150D"/>
<path fill-rule="evenodd" clip-rule="evenodd" d="M602.44 59.4583L598.912 60.0083L595.383 59.4583V55.625" fill="#58150D"/>
<path fill-rule="evenodd" clip-rule="evenodd" d="M598.916 68.042L595.383 68.667L598.916 71.9587L602.44 68.667L598.916 68.042Z" fill="#58150D"/>
<path fill-rule="evenodd" clip-rule="evenodd" d="M598.904 52.75L595.371 54.5312V59.4531L598.915 58.5L598.904 52.75Z" fill="#7B1D13"/>
<path fill-rule="evenodd" clip-rule="evenodd" d="M598.912 61.208L595.383 61.5747V66.489L598.912 66.8747V61.208Z" fill="#7B1D13"/>
<path fill-rule="evenodd" clip-rule="evenodd" d="M598.912 69.4996L595.383 68.6543V73.4854L598.912 75.2496V69.4996Z" fill="#7B1D13"/>
<path fill-rule="evenodd" clip-rule="evenodd" d="M602.443 68.6543L598.914 69.4998V75.2496L602.443 73.4854V68.6543Z" fill="#E25444"/>
<path fill-rule="evenodd" clip-rule="evenodd" d="M598.914 61.208L602.443 61.5747V66.489L598.914 66.8747V61.208Z" fill="#E25444"/>
<path fill-rule="evenodd" clip-rule="evenodd" d="M598.902 52.75L602.435 54.5312V59.4531L598.902 58.5156V52.75Z" fill="#E25444"/>
</g>
<rect x="471" y="94" width="80" height="92" rx="4" fill="#1E1E1E"/>
<rect x="479" y="102" width="64" height="12" rx="6" fill="#333333"/>
<rect x="479" y="118" width="64" height="12" rx="6" fill="#333333"/>
<rect x="479" y="134" width="64" height="12" rx="6" fill="#333333"/>
<rect x="479.5" y="150.5" width="63" height="11" rx="5.5" fill="#193AE6" fill-opacity="0.25" stroke="#193AE6"/>
<rect x="479.5" y="166.5" width="63" height="11" rx="5.5" fill="#193AE6" fill-opacity="0.25" stroke="#193AE6"/>
<path fill-rule="evenodd" clip-rule="evenodd" d="M376.988 128.908V137L390.988 125L376.988 113V120.713H346V128.908H376.988Z" fill="url(#paint2_linear_1060_3259)"/>
</g>
<defs>
<filter id="filter0_b_1060_3259" x="-44" y="-44" width="791" height="338" filterUnits="userSpaceOnUse" color-interpolation-filters="sRGB">
<feFlood flood-opacity="0" result="BackgroundImageFix"/>
<feGaussianBlur in="BackgroundImageFix" stdDeviation="22"/>
<feComposite in2="SourceAlpha" operator="in" result="effect1_backgroundBlur_1060_3259"/>
<feBlend mode="normal" in="SourceGraphic" in2="effect1_backgroundBlur_1060_3259" result="shape"/>
</filter>
<filter id="filter1_d_1060_3259" x="124" y="90" width="96" height="96" filterUnits="userSpaceOnUse" color-interpolation-filters="sRGB">
<feFlood flood-opacity="0" result="BackgroundImageFix"/>
<feColorMatrix in="SourceAlpha" type="matrix" values="0 0 0 0 0 0 0 0 0 0 0 0 0 0 0 0 0 0 127 0" result="hardAlpha"/>
<feOffset/>
<feGaussianBlur stdDeviation="12"/>
<feComposite in2="hardAlpha" operator="out"/>
<feColorMatrix type="matrix" values="0 0 0 0 0 0 0 0 0 0 0 0 0 0 0 0 0 0 0.5 0"/>
<feBlend mode="normal" in2="BackgroundImageFix" result="effect1_dropShadow_1060_3259"/>
<feBlend mode="normal" in="SourceGraphic" in2="effect1_dropShadow_1060_3259" result="shape"/>
</filter>
<filter id="filter2_d_1060_3259" x="124" y="16" width="96" height="96" filterUnits="userSpaceOnUse" color-interpolation-filters="sRGB">
<feFlood flood-opacity="0" result="BackgroundImageFix"/>
<feColorMatrix in="SourceAlpha" type="matrix" values="0 0 0 0 0 0 0 0 0 0 0 0 0 0 0 0 0 0 127 0" result="hardAlpha"/>
<feOffset/>
<feGaussianBlur stdDeviation="12"/>
<feComposite in2="hardAlpha" operator="out"/>
<feColorMatrix type="matrix" values="0 0 0 0 0 0 0 0 0 0 0 0 0 0 0 0 0 0 0.5 0"/>
<feBlend mode="normal" in2="BackgroundImageFix" result="effect1_dropShadow_1060_3259"/>
<feBlend mode="normal" in="SourceGraphic" in2="effect1_dropShadow_1060_3259" result="shape"/>
</filter>
<filter id="filter3_d_1060_3259" x="178" y="53" width="96" height="96" filterUnits="userSpaceOnUse" color-interpolation-filters="sRGB">
<feFlood flood-opacity="0" result="BackgroundImageFix"/>
<feColorMatrix in="SourceAlpha" type="matrix" values="0 0 0 0 0 0 0 0 0 0 0 0 0 0 0 0 0 0 127 0" result="hardAlpha"/>
<feOffset/>
<feGaussianBlur stdDeviation="12"/>
<feComposite in2="hardAlpha" operator="out"/>
<feColorMatrix type="matrix" values="0 0 0 0 0 0 0 0 0 0 0 0 0 0 0 0 0 0 0.5 0"/>
<feBlend mode="normal" in2="BackgroundImageFix" result="effect1_dropShadow_1060_3259"/>
<feBlend mode="normal" in="SourceGraphic" in2="effect1_dropShadow_1060_3259" result="shape"/>
</filter>
<filter id="filter4_d_1060_3259" x="551" y="90" width="96" height="96" filterUnits="userSpaceOnUse" color-interpolation-filters="sRGB">
<feFlood flood-opacity="0" result="BackgroundImageFix"/>
<feColorMatrix in="SourceAlpha" type="matrix" values="0 0 0 0 0 0 0 0 0 0 0 0 0 0 0 0 0 0 127 0" result="hardAlpha"/>
<feOffset/>
<feGaussianBlur stdDeviation="12"/>
<feComposite in2="hardAlpha" operator="out"/>
<feColorMatrix type="matrix" values="0 0 0 0 0 0 0 0 0 0 0 0 0 0 0 0 0 0 0.5 0"/>
<feBlend mode="normal" in2="BackgroundImageFix" result="effect1_dropShadow_1060_3259"/>
<feBlend mode="normal" in="SourceGraphic" in2="effect1_dropShadow_1060_3259" result="shape"/>
</filter>
<filter id="filter5_d_1060_3259" x="551" y="16" width="96" height="96" filterUnits="userSpaceOnUse" color-interpolation-filters="sRGB">
<feFlood flood-opacity="0" result="BackgroundImageFix"/>
<feColorMatrix in="SourceAlpha" type="matrix" values="0 0 0 0 0 0 0 0 0 0 0 0 0 0 0 0 0 0 127 0" result="hardAlpha"/>
<feOffset/>
<feGaussianBlur stdDeviation="12"/>
<feComposite in2="hardAlpha" operator="out"/>
<feColorMatrix type="matrix" values="0 0 0 0 0 0 0 0 0 0 0 0 0 0 0 0 0 0 0.5 0"/>
<feBlend mode="normal" in2="BackgroundImageFix" result="effect1_dropShadow_1060_3259"/>
<feBlend mode="normal" in="SourceGraphic" in2="effect1_dropShadow_1060_3259" result="shape"/>
</filter>
<linearGradient id="paint0_linear_1060_3259" x1="0.834892" y1="2.55401e-05" x2="624.523" y2="380.129" gradientUnits="userSpaceOnUse">
<stop stop-color="#3D3D3D" stop-opacity="0.4"/>
<stop offset="1" stop-color="#292929" stop-opacity="0.1"/>
</linearGradient>
<linearGradient id="paint1_linear_1060_3259" x1="0" y1="0" x2="666.649" y2="324.646" gradientUnits="userSpaceOnUse">
<stop stop-color="#292929" stop-opacity="0.4"/>
<stop offset="1" stop-color="#3D3D3D" stop-opacity="0.15"/>
</linearGradient>
<linearGradient id="paint2_linear_1060_3259" x1="391.187" y1="124.81" x2="346" y2="124.81" gradientUnits="userSpaceOnUse">
<stop stop-color="white"/>
<stop offset="1" stop-color="#292929"/>
</linearGradient>
<clipPath id="clip0_1060_3259">
<rect width="24" height="24" fill="white" transform="translate(160 126)"/>
</clipPath>
<clipPath id="clip1_1060_3259">
<rect width="48" height="48" fill="white" transform="translate(202 77)"/>
</clipPath>
<clipPath id="clip2_1060_3259">
<rect width="24" height="24" fill="white" transform="translate(587 126)"/>
</clipPath>
</defs>
</svg>
