<svg width="703" height="250" viewBox="0 0 703 250" fill="none" xmlns="http://www.w3.org/2000/svg">
<g filter="url(#filter0_b_1060_3088)">
<rect width="703" height="250" rx="24" fill="url(#paint0_linear_1060_3088)" fill-opacity="0.4"/>
<rect x="0.5" y="0.5" width="702" height="249" rx="23.5" stroke="url(#paint1_linear_1060_3088)"/>
<rect x="93.5" y="196.5" width="76" height="29" rx="14.5" fill="#1F1F1F"/>
<rect x="93.5" y="196.5" width="76" height="29" rx="14.5" stroke="#3D3D3D"/>
<path d="M109.278 216.168C108.485 216.168 107.771 216 107.136 215.664C106.511 215.328 106.063 214.899 105.792 214.376L106.842 213.592C107.43 214.497 108.251 214.95 109.306 214.95C109.838 214.95 110.277 214.819 110.622 214.558C110.967 214.287 111.14 213.923 111.14 213.466C111.14 212.701 110.664 212.141 109.712 211.786L108.396 211.282C107.612 210.993 107.038 210.633 106.674 210.204C106.319 209.765 106.142 209.21 106.142 208.538C106.142 207.735 106.431 207.096 107.01 206.62C107.598 206.135 108.345 205.892 109.25 205.892C109.857 205.892 110.412 206.018 110.916 206.27C111.42 206.513 111.831 206.839 112.148 207.25L111.196 208.09C110.645 207.437 109.987 207.11 109.222 207.11C108.718 207.11 108.293 207.241 107.948 207.502C107.603 207.754 107.43 208.081 107.43 208.482C107.43 208.883 107.547 209.201 107.78 209.434C108.013 209.667 108.396 209.882 108.928 210.078L110.132 210.54C110.897 210.829 111.471 211.203 111.854 211.66C112.246 212.117 112.442 212.701 112.442 213.41C112.442 214.241 112.143 214.908 111.546 215.412C110.958 215.916 110.202 216.168 109.278 216.168ZM117.422 216.14C116.367 216.14 115.49 215.79 114.79 215.09C114.099 214.381 113.754 213.517 113.754 212.5C113.754 211.483 114.099 210.624 114.79 209.924C115.49 209.215 116.367 208.86 117.422 208.86C118.467 208.86 119.335 209.215 120.026 209.924C120.726 210.624 121.076 211.483 121.076 212.5C121.076 213.517 120.726 214.381 120.026 215.09C119.335 215.79 118.467 216.14 117.422 216.14ZM115.658 214.292C116.115 214.777 116.703 215.02 117.422 215.02C118.141 215.02 118.724 214.777 119.172 214.292C119.62 213.807 119.844 213.209 119.844 212.5C119.844 211.791 119.62 211.193 119.172 210.708C118.724 210.223 118.141 209.98 117.422 209.98C116.703 209.98 116.115 210.223 115.658 210.708C115.21 211.193 114.986 211.791 114.986 212.5C114.986 213.209 115.21 213.807 115.658 214.292ZM125.422 216.14C124.657 216.14 124.036 215.883 123.56 215.37C123.084 214.847 122.846 214.157 122.846 213.298V209H124.05V213.116C124.05 213.704 124.19 214.171 124.47 214.516C124.76 214.861 125.147 215.034 125.632 215.034C126.192 215.034 126.654 214.805 127.018 214.348C127.392 213.881 127.578 213.256 127.578 212.472V209H128.782V216H127.578V214.922C127.121 215.734 126.402 216.14 125.422 216.14ZM131.192 216V209H132.396V210.358C132.526 209.929 132.778 209.583 133.152 209.322C133.534 209.061 133.936 208.93 134.356 208.93C134.561 208.93 134.743 208.949 134.902 208.986V210.232C134.734 210.157 134.514 210.12 134.244 210.12C133.758 210.12 133.329 210.33 132.956 210.75C132.582 211.17 132.396 211.763 132.396 212.528V216H131.192ZM139.334 216.14C138.28 216.14 137.402 215.79 136.702 215.09C136.012 214.39 135.666 213.527 135.666 212.5C135.666 211.473 136.012 210.61 136.702 209.91C137.402 209.21 138.28 208.86 139.334 208.86C140.044 208.86 140.678 209.028 141.238 209.364C141.808 209.7 142.251 210.157 142.568 210.736L141.518 211.324C141.313 210.913 141.019 210.587 140.636 210.344C140.263 210.101 139.829 209.98 139.334 209.98C138.616 209.98 138.028 210.223 137.57 210.708C137.113 211.193 136.884 211.791 136.884 212.5C136.884 213.209 137.113 213.807 137.57 214.292C138.028 214.777 138.616 215.02 139.334 215.02C139.829 215.02 140.263 214.899 140.636 214.656C141.019 214.413 141.313 214.087 141.518 213.676L142.568 214.264C142.251 214.843 141.808 215.3 141.238 215.636C140.678 215.972 140.044 216.14 139.334 216.14ZM147.348 216.14C146.275 216.14 145.402 215.795 144.73 215.104C144.058 214.413 143.722 213.545 143.722 212.5C143.722 211.464 144.063 210.601 144.744 209.91C145.426 209.21 146.298 208.86 147.362 208.86C148.305 208.86 149.094 209.177 149.728 209.812C150.372 210.437 150.694 211.291 150.694 212.374C150.694 212.514 150.69 212.635 150.68 212.738H144.94C144.959 213.391 145.192 213.937 145.64 214.376C146.098 214.815 146.672 215.034 147.362 215.034C148.342 215.034 149.07 214.628 149.546 213.816L150.498 214.474C149.817 215.585 148.767 216.14 147.348 216.14ZM145.024 211.758H149.462C149.369 211.198 149.122 210.755 148.72 210.428C148.328 210.092 147.862 209.924 147.32 209.924C146.77 209.924 146.275 210.092 145.836 210.428C145.407 210.755 145.136 211.198 145.024 211.758ZM154.657 216.14C154.013 216.14 153.449 216.005 152.963 215.734C152.478 215.454 152.128 215.048 151.913 214.516L152.893 213.97C153.024 214.315 153.253 214.586 153.579 214.782C153.906 214.978 154.27 215.076 154.671 215.076C155.017 215.076 155.306 214.992 155.539 214.824C155.773 214.656 155.889 214.427 155.889 214.138C155.889 213.886 155.796 213.676 155.609 213.508C155.432 213.34 155.119 213.186 154.671 213.046L153.971 212.822C152.805 212.486 152.221 211.805 152.221 210.778C152.221 210.199 152.45 209.737 152.907 209.392C153.374 209.037 153.948 208.86 154.629 208.86C155.693 208.86 156.463 209.266 156.939 210.078L156.043 210.694C155.661 210.162 155.175 209.896 154.587 209.896C154.27 209.896 153.995 209.975 153.761 210.134C153.537 210.283 153.425 210.484 153.425 210.736C153.425 210.969 153.495 211.17 153.635 211.338C153.785 211.497 154.046 211.632 154.419 211.744L155.189 211.982C156.459 212.374 157.093 213.06 157.093 214.04C157.093 214.693 156.865 215.207 156.407 215.58C155.959 215.953 155.376 216.14 154.657 216.14Z" fill="white"/>
<rect x="545.5" y="196.5" width="107" height="29" rx="14.5" fill="#1F1F1F"/>
<rect x="545.5" y="196.5" width="107" height="29" rx="14.5" stroke="#3D3D3D"/>
<path d="M564.597 216V206.06H567.453C568.974 206.06 570.234 206.531 571.233 207.474C572.241 208.417 572.745 209.602 572.745 211.03C572.745 212.458 572.241 213.643 571.233 214.586C570.234 215.529 568.974 216 567.453 216H564.597ZM565.899 214.782H567.453C568.638 214.782 569.595 214.432 570.323 213.732C571.06 213.023 571.429 212.122 571.429 211.03C571.429 209.938 571.06 209.042 570.323 208.342C569.595 207.633 568.638 207.278 567.453 207.278H565.899V214.782ZM577.529 216.14C576.558 216.14 575.742 215.785 575.079 215.076C574.426 214.367 574.099 213.508 574.099 212.5C574.099 211.492 574.426 210.633 575.079 209.924C575.742 209.215 576.558 208.86 577.529 208.86C578.042 208.86 578.518 208.977 578.957 209.21C579.405 209.434 579.75 209.723 579.993 210.078V209H581.197V216H579.993V214.922C579.75 215.277 579.405 215.571 578.957 215.804C578.518 216.028 578.042 216.14 577.529 216.14ZM577.711 215.034C578.402 215.034 578.971 214.791 579.419 214.306C579.867 213.821 580.091 213.219 580.091 212.5C580.091 211.781 579.867 211.179 579.419 210.694C578.971 210.209 578.402 209.966 577.711 209.966C577.011 209.966 576.437 210.209 575.989 210.694C575.541 211.179 575.317 211.781 575.317 212.5C575.317 213.219 575.541 213.821 575.989 214.306C576.437 214.791 577.011 215.034 577.711 215.034ZM586.319 216.07C585.675 216.07 585.157 215.888 584.765 215.524C584.373 215.16 584.177 214.628 584.177 213.928V210.106H582.693V209H584.177V207.054H585.381V209H587.397V210.106H585.381V213.774C585.381 214.213 585.475 214.521 585.661 214.698C585.848 214.875 586.142 214.964 586.543 214.964C586.898 214.964 587.183 214.917 587.397 214.824V215.902C587.061 216.014 586.702 216.07 586.319 216.07ZM591.864 216.14C590.893 216.14 590.076 215.785 589.414 215.076C588.76 214.367 588.434 213.508 588.434 212.5C588.434 211.492 588.76 210.633 589.414 209.924C590.076 209.215 590.893 208.86 591.864 208.86C592.377 208.86 592.853 208.977 593.292 209.21C593.74 209.434 594.085 209.723 594.328 210.078V209H595.532V216H594.328V214.922C594.085 215.277 593.74 215.571 593.292 215.804C592.853 216.028 592.377 216.14 591.864 216.14ZM592.046 215.034C592.736 215.034 593.306 214.791 593.754 214.306C594.202 213.821 594.426 213.219 594.426 212.5C594.426 211.781 594.202 211.179 593.754 210.694C593.306 210.209 592.736 209.966 592.046 209.966C591.346 209.966 590.772 210.209 590.324 210.694C589.876 211.179 589.652 211.781 589.652 212.5C589.652 213.219 589.876 213.821 590.324 214.306C590.772 214.791 591.346 215.034 592.046 215.034ZM601.455 216V205.5H602.659V216H601.455ZM607.965 216.14C606.995 216.14 606.178 215.785 605.515 215.076C604.862 214.367 604.535 213.508 604.535 212.5C604.535 211.492 604.862 210.633 605.515 209.924C606.178 209.215 606.995 208.86 607.965 208.86C608.479 208.86 608.955 208.977 609.393 209.21C609.841 209.434 610.187 209.723 610.429 210.078V209H611.633V216H610.429V214.922C610.187 215.277 609.841 215.571 609.393 215.804C608.955 216.028 608.479 216.14 607.965 216.14ZM608.147 215.034C608.838 215.034 609.407 214.791 609.855 214.306C610.303 213.821 610.527 213.219 610.527 212.5C610.527 211.781 610.303 211.179 609.855 210.694C609.407 210.209 608.838 209.966 608.147 209.966C607.447 209.966 606.873 210.209 606.425 210.694C605.977 211.179 605.753 211.781 605.753 212.5C605.753 213.219 605.977 213.821 606.425 214.306C606.873 214.791 607.447 215.034 608.147 215.034ZM619.038 216L615.244 212.5V216H614.04V205.5H615.244V211.73L618.296 209H619.892L616.448 212.094L620.662 216H619.038ZM624.355 216.14C623.282 216.14 622.409 215.795 621.737 215.104C621.065 214.413 620.729 213.545 620.729 212.5C620.729 211.464 621.07 210.601 621.751 209.91C622.433 209.21 623.305 208.86 624.369 208.86C625.312 208.86 626.101 209.177 626.735 209.812C627.379 210.437 627.701 211.291 627.701 212.374C627.701 212.514 627.697 212.635 627.687 212.738H621.947C621.966 213.391 622.199 213.937 622.647 214.376C623.105 214.815 623.679 215.034 624.369 215.034C625.349 215.034 626.077 214.628 626.553 213.816L627.505 214.474C626.824 215.585 625.774 216.14 624.355 216.14ZM622.031 211.758H626.469C626.376 211.198 626.129 210.755 625.727 210.428C625.335 210.092 624.869 209.924 624.327 209.924C623.777 209.924 623.282 210.092 622.843 210.428C622.414 210.755 622.143 211.198 622.031 211.758ZM631.664 216.14C631.02 216.14 630.455 216.005 629.97 215.734C629.485 215.454 629.135 215.048 628.92 214.516L629.9 213.97C630.031 214.315 630.259 214.586 630.586 214.782C630.913 214.978 631.277 215.076 631.678 215.076C632.023 215.076 632.313 214.992 632.546 214.824C632.779 214.656 632.896 214.427 632.896 214.138C632.896 213.886 632.803 213.676 632.616 213.508C632.439 213.34 632.126 213.186 631.678 213.046L630.978 212.822C629.811 212.486 629.228 211.805 629.228 210.778C629.228 210.199 629.457 209.737 629.914 209.392C630.381 209.037 630.955 208.86 631.636 208.86C632.7 208.86 633.47 209.266 633.946 210.078L633.05 210.694C632.667 210.162 632.182 209.896 631.594 209.896C631.277 209.896 631.001 209.975 630.768 210.134C630.544 210.283 630.432 210.484 630.432 210.736C630.432 210.969 630.502 211.17 630.642 211.338C630.791 211.497 631.053 211.632 631.426 211.744L632.196 211.982C633.465 212.374 634.1 213.06 634.1 214.04C634.1 214.693 633.871 215.207 633.414 215.58C632.966 215.953 632.383 216.14 631.664 216.14Z" fill="white"/>
<rect x="64.5" y="98.5" width="79" height="79" rx="39.5" fill="#1F1F1F"/>
<rect x="64.5" y="98.5" width="79" height="79" rx="39.5" stroke="#3D3D3D"/>
<g filter="url(#filter1_d_1060_3088)">
<rect x="80" y="114" width="48" height="48" rx="24" fill="#292929" shape-rendering="crispEdges"/>
<g clip-path="url(#clip0_1060_3088)">
<path fill-rule="evenodd" clip-rule="evenodd" d="M114.107 144.695C112.801 144.659 111.789 144.793 110.94 145.15C110.696 145.248 110.303 145.248 110.271 145.555C110.402 145.684 110.418 145.896 110.532 146.075C110.728 146.399 111.071 146.837 111.381 147.063L112.425 147.81C113.062 148.199 113.78 148.426 114.4 148.816C114.759 149.043 115.118 149.335 115.477 149.578C115.66 149.708 115.771 149.919 116 150V149.951C115.886 149.806 115.853 149.595 115.739 149.432L115.249 148.962C114.776 148.329 114.188 147.777 113.551 147.323C113.029 146.966 111.887 146.48 111.675 145.88L111.642 145.844C112.001 145.807 112.425 145.681 112.768 145.584C113.324 145.438 113.829 145.47 114.4 145.325L115.184 145.097V144.952C114.89 144.66 114.678 144.271 114.368 143.995C113.536 143.281 112.621 142.584 111.675 142C111.169 141.675 110.516 141.464 109.977 141.189C109.781 141.091 109.455 141.043 109.341 140.881C109.046 140.524 108.883 140.053 108.671 139.631L107.333 136.809C107.039 136.176 106.859 135.544 106.501 134.96C104.819 132.202 102.991 130.532 100.183 128.893C99.5796 128.552 98.8614 128.406 98.0979 128.228L96.8738 128.162C96.6122 128.049 96.3514 127.74 96.1227 127.594C95.1924 127.01 92.7929 125.745 92.1069 127.412C91.6661 128.467 92.7599 129.505 93.1313 130.04C93.4093 130.413 93.7678 130.835 93.9643 131.257C94.074 131.532 94.1106 131.825 94.2251 132.117C94.486 132.83 94.7311 133.626 95.0739 134.291C95.2568 134.632 95.4489 134.989 95.6775 135.297C95.8081 135.479 96.0368 135.556 96.0854 135.848C95.8568 136.173 95.8411 136.659 95.7104 137.065C95.1225 138.898 95.3512 141.169 96.1835 142.519C96.4451 142.924 97.0615 143.817 97.8978 143.476C98.6324 143.184 98.4685 142.259 98.6807 141.448C98.7301 141.254 98.6972 141.124 98.7948 140.994V141.03L99.4643 142.376C99.9703 143.171 100.852 143.999 101.586 144.55C101.978 144.842 102.288 145.346 102.777 145.524V145.475H102.745C102.647 145.329 102.5 145.264 102.369 145.15C102.076 144.858 101.749 144.501 101.521 144.177C100.835 143.269 100.232 142.263 99.693 141.225C99.4314 140.722 99.2028 140.171 98.9913 139.668C98.8925 139.473 98.8925 139.181 98.7297 139.084C98.4846 139.44 98.1261 139.749 97.9457 140.187C97.6355 140.884 97.6033 141.744 97.4892 142.636C97.4233 142.653 97.4526 142.636 97.4233 142.673C96.9016 142.543 96.7216 142.007 96.5259 141.554C96.0364 140.402 95.9545 138.553 96.3788 137.222C96.493 136.882 96.9832 135.811 96.7875 135.487C96.6887 135.178 96.3631 135 96.1831 134.757C95.9709 134.448 95.743 134.059 95.5959 133.719C95.2045 132.81 95.0088 131.804 94.584 130.896C94.3876 130.474 94.0451 130.036 93.7675 129.647C93.4572 129.209 93.1152 128.901 92.8701 128.382C92.7885 128.2 92.6743 127.911 92.8049 127.716C92.8371 127.587 92.903 127.535 93.0329 127.506C93.2451 127.324 93.8494 127.554 94.0616 127.651C94.6652 127.895 95.1712 128.121 95.6772 128.462C95.9058 128.624 96.1509 128.932 96.4447 129.014H96.7878C97.3103 129.127 97.8974 129.05 98.3866 129.195C99.2518 129.472 100.035 129.877 100.737 130.315C102.875 131.661 104.639 133.576 105.83 135.863C106.026 136.236 106.107 136.577 106.287 136.966C106.63 137.762 107.055 138.572 107.397 139.351C107.74 140.114 108.066 140.893 108.556 141.526C108.801 141.866 109.78 142.044 110.22 142.223C110.547 142.368 111.053 142.499 111.347 142.677C111.902 143.018 112.457 143.407 112.979 143.78C113.24 143.975 114.056 144.38 114.105 144.704L114.107 144.695ZM97.461 130.599C97.2355 130.597 97.0107 130.624 96.7922 130.68V130.716H96.8244C96.955 130.976 97.1837 131.154 97.3468 131.382L97.7226 132.16L97.7548 132.124C97.9834 131.962 98.0979 131.702 98.0979 131.313C97.9999 131.2 97.9838 131.086 97.9022 130.973C97.8041 130.81 97.592 130.729 97.461 130.6V130.599Z" fill="#00678C"/>
</g>
</g>
<rect x="64.5" y="24.5" width="79" height="79" rx="39.5" fill="#1F1F1F"/>
<rect x="64.5" y="24.5" width="79" height="79" rx="39.5" stroke="#3D3D3D"/>
<g filter="url(#filter2_d_1060_3088)">
<rect x="80" y="40" width="48" height="48" rx="24" fill="#292929" shape-rendering="crispEdges"/>
<path d="M113.32 65.9759C113.203 65.6237 112.899 65.3784 112.505 65.3196C112.319 65.2919 112.106 65.3037 111.855 65.3556C111.416 65.4461 111.09 65.4806 110.853 65.4872C111.749 63.9732 112.479 62.2467 112.898 60.6215C113.577 57.9935 113.214 56.7963 112.791 56.2548C111.669 54.8215 110.032 54.0515 108.058 54.0279C107.005 54.015 106.08 54.223 105.598 54.3725C105.149 54.2933 104.666 54.2491 104.159 54.2409C103.209 54.2257 102.37 54.4328 101.653 54.8583C101.256 54.7241 100.619 54.5348 99.8832 54.4141C98.1527 54.13 96.758 54.3513 95.7379 55.072C94.5026 55.9446 93.9299 57.4606 94.0358 59.5781C94.0695 60.2503 94.4455 62.2958 95.0377 64.2356C95.378 65.3506 95.7408 66.2766 96.1162 66.9879C96.6486 67.9966 97.2182 68.5906 97.8577 68.804C98.2161 68.9234 98.8673 69.007 99.5522 68.4366C99.639 68.5417 99.7549 68.6462 99.9086 68.7432C100.104 68.8663 100.343 68.9669 100.581 69.0266C101.44 69.2413 102.245 69.1876 102.931 68.8866C102.936 69.0087 102.939 69.1253 102.942 69.2261C102.946 69.3895 102.951 69.5497 102.957 69.6996C102.997 70.7128 103.066 71.5006 103.271 72.0518C103.282 72.0821 103.297 72.1283 103.313 72.1773C103.415 72.4893 103.585 73.0116 104.019 73.4206C104.467 73.8443 105.01 73.9742 105.508 73.9742C105.757 73.9742 105.995 73.9415 106.204 73.8968C106.948 73.7373 107.793 73.4944 108.404 72.6241C108.982 71.8014 109.263 70.5622 109.313 68.6097C109.32 68.5545 109.326 68.5018 109.332 68.4516L109.344 68.3484L109.48 68.3603L109.515 68.3627C110.273 68.3972 111.199 68.2366 111.768 67.9722C112.218 67.7636 113.659 67.0029 113.32 65.9759Z" fill="black"/>
<path d="M112.023 66.1761C109.77 66.6409 109.615 65.8781 109.615 65.8781C111.994 62.3483 112.988 57.8678 112.13 56.7712C109.789 53.7799 105.736 55.1946 105.668 55.2312L105.647 55.2352C105.202 55.1428 104.703 55.0878 104.144 55.0786C103.124 55.0619 102.351 55.3459 101.764 55.7909C101.764 55.7909 94.5345 52.8125 94.8708 59.5366C94.9423 60.9671 96.9211 70.3603 99.2812 67.5231C100.144 66.4856 100.977 65.6084 100.977 65.6084C101.391 65.8834 101.887 66.0237 102.407 65.9734L102.447 65.9391C102.434 66.0679 102.44 66.1939 102.463 66.3431C101.855 67.0224 102.034 67.1416 100.818 67.3919C99.5883 67.6453 100.311 68.0965 100.783 68.2146C101.354 68.3575 102.677 68.5601 103.571 67.3087L103.536 67.4515C103.774 67.6423 103.941 68.6926 103.913 69.6448C103.885 70.5969 103.867 71.2506 104.054 71.7612C104.242 72.2719 104.429 73.4207 106.027 73.0784C107.362 72.7922 108.054 72.0508 108.15 70.814C108.218 69.9347 108.373 70.0647 108.383 69.2786L108.507 68.9065C108.65 67.7146 108.529 67.33 109.352 67.5089L109.552 67.5265C110.157 67.554 110.95 67.4291 111.415 67.2129C112.416 66.7482 113.01 65.9722 112.023 66.1761H112.023Z" fill="#336791"/>
<path d="M102.187 60.1752C101.984 60.147 101.8 60.1731 101.707 60.2436C101.655 60.2832 101.639 60.3291 101.634 60.3607C101.623 60.4444 101.681 60.537 101.717 60.5847C101.819 60.7199 101.968 60.8127 102.116 60.8332C102.137 60.8362 102.158 60.8376 102.179 60.8376C102.425 60.8376 102.649 60.6461 102.669 60.5049C102.693 60.3279 102.436 60.2099 102.187 60.1752ZM108.913 60.1808C108.894 60.0421 108.647 60.0026 108.413 60.0352C108.179 60.0677 107.952 60.1733 107.971 60.3124C107.986 60.4205 108.181 60.605 108.412 60.605C108.432 60.605 108.452 60.6037 108.471 60.6009C108.626 60.5795 108.739 60.4816 108.793 60.4252C108.874 60.3391 108.922 60.2432 108.913 60.1808Z" fill="white"/>
<path d="M112.775 66.1226C112.689 65.8628 112.412 65.7793 111.953 65.8741C110.589 66.1556 110.1 65.9606 109.94 65.8425C111 64.2274 111.872 62.275 112.343 60.4534C112.566 59.5905 112.689 58.7891 112.699 58.1359C112.71 57.419 112.588 56.8922 112.336 56.5704C111.321 55.2731 109.831 54.5772 108.027 54.5581C106.787 54.5441 105.739 54.8615 105.536 54.9507C105.108 54.8444 104.642 54.779 104.134 54.7707C103.203 54.7556 102.399 54.9785 101.733 55.4328C101.443 55.3251 100.695 55.0684 99.7806 54.921C98.1994 54.6665 96.9429 54.8594 96.0462 55.4946C94.9763 56.2526 94.4824 57.6076 94.5781 59.5218C94.6103 60.1659 94.9772 62.1471 95.5563 64.0444C96.3186 66.5417 97.1472 67.9554 98.019 68.2462C98.1211 68.2803 98.2387 68.304 98.3685 68.304C98.6865 68.304 99.0765 68.1607 99.4821 67.673C99.977 67.0794 100.489 66.5002 101.017 65.9362C101.36 66.1201 101.736 66.2228 102.121 66.2331C102.122 66.2432 102.123 66.2533 102.124 66.2633C102.058 66.3423 101.993 66.4225 101.929 66.5038C101.663 66.8425 101.607 66.9131 100.748 67.0899C100.504 67.1403 99.855 67.274 99.8454 67.7289C99.8351 68.2259 100.612 68.4346 100.701 68.4567C101.01 68.534 101.307 68.5721 101.591 68.5721C102.28 68.5721 102.887 68.3454 103.372 67.9068C103.357 69.6785 103.431 71.4243 103.644 71.9562C103.818 72.3916 104.244 73.4558 105.588 73.4557C105.785 73.4557 106.002 73.4328 106.241 73.3815C107.644 73.0808 108.254 72.4606 108.489 71.0934C108.615 70.3628 108.832 68.618 108.934 67.6821C109.149 67.7491 109.425 67.7798 109.724 67.7797C110.348 67.7797 111.067 67.6472 111.519 67.4378C112.026 67.2023 112.941 66.6246 112.775 66.1226ZM109.433 59.7984C109.429 60.0747 109.391 60.3255 109.35 60.5873C109.307 60.8689 109.262 61.16 109.251 61.5134C109.24 61.8574 109.283 62.215 109.324 62.5608C109.408 63.2593 109.494 63.9784 109.161 64.6879C109.105 64.5898 109.056 64.4883 109.013 64.3842C108.972 64.2837 108.882 64.1224 108.757 63.899C108.272 63.0297 107.137 60.9937 107.718 60.163C107.891 59.9157 108.331 59.6615 109.433 59.7984ZM108.097 55.1175C109.713 55.1532 110.991 55.7578 111.896 56.9145C112.591 57.8017 111.826 61.8386 109.613 65.3212C109.591 65.2929 109.569 65.2647 109.546 65.2366L109.518 65.2016C110.09 64.2572 109.978 63.3227 109.879 62.4942C109.838 62.1542 109.799 61.8331 109.809 61.5314C109.819 61.2117 109.861 60.9375 109.902 60.6723C109.952 60.3456 110.004 60.0075 109.989 59.6089C110 59.5671 110.004 59.5177 109.999 59.459C109.963 59.0768 109.526 57.933 108.637 56.8977C108.15 56.3314 107.441 55.6977 106.472 55.2703C106.889 55.1839 107.459 55.1034 108.097 55.1175ZM99.0528 67.316C98.6059 67.8534 98.2972 67.7504 98.1957 67.7166C97.5343 67.496 96.7669 66.0981 96.0903 63.8815C95.5049 61.9634 95.1628 60.0347 95.1356 59.4939C95.0502 57.7834 95.4648 56.5914 96.3681 55.9508C97.8381 54.9084 100.255 55.5323 101.226 55.8487C101.212 55.8625 101.198 55.8754 101.184 55.8894C99.5901 57.4988 99.6279 60.2485 99.6318 60.4166C99.6317 60.4815 99.6371 60.5733 99.6446 60.6996C99.672 61.1621 99.7231 62.0228 99.5867 62.9976C99.46 63.9034 99.7393 64.79 100.353 65.4301C100.416 65.4957 100.482 65.5581 100.551 65.6171C100.278 65.9095 99.6845 66.5562 99.0528 67.316ZM100.756 65.0438C100.261 64.5279 100.037 63.8103 100.14 63.0749C100.284 62.0452 100.23 61.1484 100.202 60.6665C100.198 60.5991 100.194 60.54 100.192 60.4934C100.425 60.287 101.504 59.709 102.273 59.8853C102.624 59.9656 102.838 60.2047 102.927 60.6159C103.388 62.745 102.988 63.6323 102.667 64.3454C102.601 64.4923 102.539 64.6312 102.485 64.7748L102.444 64.8859C102.339 65.1666 102.242 65.4277 102.181 65.6756C101.656 65.674 101.145 65.4495 100.756 65.0437V65.0438ZM100.836 67.915C100.683 67.8767 100.545 67.8101 100.464 67.7549C100.532 67.7231 100.652 67.6797 100.861 67.6367C101.871 67.4287 102.027 67.2819 102.368 66.8493C102.446 66.75 102.535 66.6376 102.657 66.5006L102.657 66.5005C102.84 66.2959 102.924 66.3306 103.075 66.3935C103.198 66.4443 103.318 66.5982 103.366 66.7676C103.389 66.8476 103.415 66.9994 103.33 67.1176C102.619 68.1143 101.581 68.1015 100.836 67.915ZM106.124 72.8356C104.888 73.1005 104.451 72.4698 104.162 71.7488C103.976 71.2834 103.884 69.1844 103.949 66.8665C103.95 66.8356 103.946 66.8059 103.937 66.7778C103.93 66.7225 103.918 66.6677 103.903 66.614C103.806 66.2768 103.571 65.9947 103.289 65.8777C103.177 65.8312 102.971 65.746 102.724 65.8093C102.776 65.592 102.868 65.3466 102.967 65.0809L103.009 64.9692C103.055 64.8432 103.114 64.7127 103.176 64.5745C103.512 63.8284 103.972 62.8065 103.473 60.498C103.286 59.6333 102.662 59.211 101.715 59.3091C101.148 59.3678 100.629 59.5968 100.37 59.7281C100.314 59.7562 100.263 59.7835 100.215 59.81C100.288 58.9388 100.561 57.3106 101.582 56.2805C102.225 55.632 103.082 55.3117 104.125 55.329C106.181 55.3626 107.5 56.4178 108.244 57.2971C108.885 58.0547 109.232 58.818 109.371 59.2297C108.329 59.1237 107.62 59.3293 107.261 59.843C106.479 60.9603 107.688 63.1287 108.269 64.1709C108.376 64.3619 108.468 64.527 108.497 64.5972C108.686 65.0558 108.931 65.362 109.11 65.5855C109.165 65.654 109.218 65.7204 109.259 65.7784C108.943 65.8694 108.376 66.0797 108.428 67.1305C108.386 67.6578 108.09 70.1264 107.939 70.9986C107.74 72.1509 107.316 72.58 106.124 72.8357V72.8356ZM111.284 66.9314C110.961 67.0812 110.421 67.1935 109.908 67.2177C109.341 67.2442 109.053 67.1542 108.985 67.0988C108.953 66.444 109.197 66.3756 109.455 66.3031C109.495 66.2918 109.535 66.2806 109.573 66.2673C109.597 66.2866 109.623 66.3058 109.651 66.3246C110.107 66.6252 110.919 66.6576 112.066 66.4209L112.078 66.4184C111.924 66.563 111.659 66.7571 111.284 66.9314Z" fill="white"/>
</g>
<rect x="118.5" y="61.5" width="79" height="79" rx="39.5" fill="#1F1F1F"/>
<rect x="118.5" y="61.5" width="79" height="79" rx="39.5" stroke="#3D3D3D"/>
<g clip-path="url(#clip1_1060_3088)" filter="url(#filter3_d_1060_3088)">
<path d="M158 125C171.255 125 182 114.255 182 101C182 87.7452 171.255 77 158 77C144.745 77 134 87.7452 134 101C134 114.255 144.745 125 158 125Z" fill="#13AA52"/>
<path d="M164.414 98.0675C162.898 91.377 159.316 89.1772 158.93 88.3367C158.508 87.7438 158.08 86.6891 158.08 86.6891C158.073 86.6712 158.062 86.6398 158.049 86.6094C158.005 87.2023 157.983 87.4311 157.422 88.0292C156.554 88.708 152.1 92.4453 151.738 100.047C151.4 107.136 156.859 111.36 157.597 111.899L157.681 111.958V111.953C157.686 111.989 157.915 113.641 158.077 115.391H158.655C158.791 114.154 158.994 112.925 159.264 111.71L159.311 111.68C159.642 111.443 159.956 111.185 160.254 110.908L160.288 110.878C161.857 109.428 164.678 106.075 164.651 100.728C164.645 99.8363 164.566 98.9464 164.414 98.0675ZM158.015 107.896C158.015 107.896 158.015 97.9531 158.343 97.955C158.599 97.955 158.931 110.78 158.931 110.78C158.475 110.726 158.015 108.67 158.015 107.896Z" fill="white"/>
</g>
<path fill-rule="evenodd" clip-rule="evenodd" d="M271.988 104.908V113L285.988 101L271.988 89V96.7129H241V104.908H271.988Z" fill="url(#paint2_linear_1060_3088)"/>
<path fill-rule="evenodd" clip-rule="evenodd" d="M502.977 104.908V113L516.976 101L502.977 89V96.7129H471.988V104.908H502.977Z" fill="url(#paint3_linear_1060_3088)"/>
<rect x="560.477" y="98.5" width="79" height="79" rx="39.5" fill="#1F1F1F"/>
<rect x="560.477" y="98.5" width="79" height="79" rx="39.5" stroke="#3D3D3D"/>
<g filter="url(#filter4_d_1060_3088)">
<rect x="575.977" y="114" width="48" height="48" rx="24" fill="#292929" shape-rendering="crispEdges"/>
<g clip-path="url(#clip2_1060_3088)">
<mask id="mask0_1060_3088" style="mask-type:luminance" maskUnits="userSpaceOnUse" x="508" y="126" width="104" height="24">
<path d="M611.977 126H508.977V150H611.977V126Z" fill="white"/>
</mask>
<g mask="url(#mask0_1060_3088)">
<path d="M610.073 131.643C610.979 132.672 611.38 133.952 611.667 135.243C613.144 141.889 609.217 148.279 602.673 149.71C595.521 151.273 589.445 146.193 588.533 139.829C588.129 137.212 588.592 134.533 589.849 132.213C589.965 131.996 590.041 131.736 590.31 131.639L593.687 131.695L592.535 134.173C592.535 134.258 592.535 134.342 592.535 134.427C593.367 136.882 594.917 138.9 596.389 140.964C596.547 141.841 596.43 142.764 596.814 143.602C597.887 144.834 598.959 146.068 600.031 147.302C600.11 147.393 600.205 147.451 600.303 147.316C600.793 147.011 600.936 146.452 601.207 145.996C601.822 144.966 602.491 143.963 602.977 142.857L603.126 142.616C603.728 142.378 604.108 141.83 604.64 141.496C604.818 141.396 604.964 141.246 605.058 141.063C605.153 140.88 605.193 140.673 605.172 140.467C605.141 139.433 605.161 138.39 605.16 137.36C605.401 137.117 605.629 136.861 605.841 136.592C606.36 135.851 607.176 135.345 607.481 134.44C607.535 134.447 607.59 134.438 607.638 134.413C607.687 134.388 607.727 134.349 607.753 134.301C607.969 133.969 607.737 133.691 607.643 133.399C607.464 132.836 607.119 132.33 607.084 131.718L610.073 131.643Z" fill="#287ABE"/>
<path d="M593.686 131.696L590.309 131.639C590.754 130.461 591.634 129.618 592.544 128.842C594.109 127.506 595.905 126.584 597.932 126.212C601.458 125.573 604.665 126.35 607.504 128.585C608.561 129.416 609.521 130.357 610.074 131.639L607.079 131.706L604.628 131.675V130.835L606.384 130.825L606.441 130.793L606.386 130.699C606.09 130.404 605.737 130.176 605.349 130.028C604.961 129.881 604.547 129.817 604.134 129.842C601.719 129.9 599.303 129.866 596.888 129.86C596.041 129.86 595.336 130.228 594.657 130.684C594.03 130.712 594.019 131.256 593.857 131.671L593.686 131.696Z" fill="#B8E1F2"/>
<path d="M592.535 134.424C592.535 134.339 592.535 134.255 592.535 134.17C593.947 133.743 595.243 133.034 596.571 132.411C596.992 132.213 597.572 132.23 597.797 131.681C598.605 131.716 599.43 131.543 600.224 131.789C600.23 133.728 600.237 135.671 600.243 137.619H600.118C598.567 136.944 597.028 136.244 595.463 135.606C594.493 135.214 593.604 134.588 592.535 134.424Z" fill="#B6E0F2"/>
<path d="M592.535 134.426C593.602 134.588 594.491 135.212 595.467 135.611C597.032 136.249 598.571 136.95 600.122 137.624C599.998 138.216 599.422 138.357 599.06 138.704C598.234 139.499 597.246 140.104 596.457 140.947C596.436 140.957 596.413 140.963 596.389 140.964C594.919 138.9 593.368 136.884 592.535 134.426Z" fill="#90D4F0"/>
<path d="M605.162 137.355C605.162 138.391 605.144 139.432 605.175 140.463C605.195 140.668 605.156 140.875 605.061 141.058C604.966 141.241 604.821 141.392 604.643 141.491C604.11 141.825 603.731 142.373 603.129 142.612C602.486 141.781 602.086 140.789 601.51 139.917C601.118 139.324 600.956 138.56 600.285 138.172C600.285 138.041 600.287 137.91 600.292 137.779L600.552 137.641C600.669 137.787 600.834 137.768 600.986 137.754C602.376 137.625 603.768 137.492 605.162 137.355Z" fill="#4D8AC8"/>
<path d="M596.81 143.605C596.426 142.766 596.538 141.844 596.387 140.966C596.411 140.965 596.434 140.959 596.455 140.949C597.68 141.002 598.905 141.034 600.122 141.226C600.122 142.195 600.12 143.165 600.115 144.134C599.87 144.124 599.625 144.097 599.383 144.054C598.523 143.918 597.693 143.608 596.81 143.605Z" fill="#B6E0F2"/>
<path d="M600.117 144.132C600.117 143.162 600.119 142.193 600.124 141.224C600.405 140.219 600.167 139.186 600.278 138.178C600.95 138.565 601.114 139.331 601.503 139.922C602.08 140.796 602.479 141.782 603.122 142.617L602.972 142.858L600.234 144.139C600.195 144.14 600.156 144.138 600.117 144.132Z" fill="#58AFDD"/>
<path d="M604.625 131.68L607.075 131.71C607.111 132.322 607.455 132.829 607.635 133.391C607.729 133.685 607.96 133.962 607.745 134.294C607.692 134.29 607.638 134.3 607.59 134.324C607.542 134.349 607.502 134.386 607.473 134.432C606.962 134.529 606.52 134.805 606.058 135.015C605.597 135.226 605.187 135.577 604.641 135.562C604.641 134.277 604.639 132.993 604.635 131.709L604.625 131.68Z" fill="#4D8AC8"/>
<path d="M604.638 135.563C605.183 135.579 605.591 135.226 606.055 135.017C606.52 134.807 606.959 134.53 607.47 134.434C607.163 135.34 606.348 135.845 605.83 136.585C605.617 136.855 605.39 137.111 605.149 137.354C603.756 137.488 602.362 137.621 600.97 137.754C600.817 137.768 600.652 137.787 600.535 137.64C601.498 137.188 602.467 136.75 603.419 136.275C603.84 136.067 604.329 135.969 604.638 135.563Z" fill="#266FA8"/>
<path d="M600.117 144.133C600.157 144.137 600.197 144.137 600.238 144.133C600.259 145.193 600.281 146.254 600.302 147.317C600.204 147.456 600.11 147.394 600.029 147.304C598.956 146.073 597.883 144.842 596.812 143.609C597.694 143.609 598.524 143.922 599.384 144.058C599.626 144.1 599.871 144.125 600.117 144.133Z" fill="#90D4F0"/>
<path d="M597.801 131.685C597.57 132.239 596.991 132.217 596.575 132.415C595.247 133.038 593.951 133.747 592.539 134.173L593.692 131.696L593.861 131.674L597.801 131.685Z" fill="#90D4F0"/>
<path d="M600.302 147.313C600.282 146.253 600.26 145.192 600.238 144.128L602.976 142.848C602.49 143.955 601.821 144.956 601.206 145.987C600.942 146.448 600.792 147.007 600.302 147.313Z" fill="#266FA8"/>
<path d="M607.477 134.436C607.506 134.39 607.546 134.353 607.594 134.328C607.642 134.304 607.695 134.293 607.749 134.298C607.723 134.346 607.682 134.385 607.634 134.409C607.585 134.434 607.53 134.443 607.477 134.436Z" fill="#266FA8"/>
<path d="M594.652 130.687C595.333 130.232 596.037 129.856 596.883 129.863C599.3 129.863 601.716 129.903 604.13 129.845C604.544 129.82 604.958 129.884 605.346 130.031C605.735 130.179 606.088 130.408 606.384 130.704C606.384 130.746 606.384 130.789 606.384 130.831L604.614 130.841H595.507C595.213 130.841 594.916 130.859 594.652 130.687Z" fill="#F4FAFD"/>
<path d="M594.656 130.688C594.92 130.859 595.217 130.84 595.511 130.84H604.618V131.68L604.629 131.711L600.23 131.795C599.43 131.55 598.612 131.722 597.803 131.687L593.855 131.678C594.02 131.259 594.03 130.715 594.656 130.688Z" fill="#E9F6FD"/>
<path d="M606.387 130.827C606.387 130.784 606.387 130.742 606.387 130.699L606.443 130.793L606.387 130.827Z" fill="#E9F6FD"/>
<path d="M600.23 131.793L604.637 131.711C604.637 132.996 604.64 134.28 604.644 135.564C604.335 135.97 603.847 136.068 603.43 136.278C602.477 136.752 601.509 137.19 600.546 137.643L600.287 137.781L600.25 137.625L600.23 131.793Z" fill="#68C1EA"/>
</g>
</g>
</g>
<rect x="560.477" y="24.5" width="79" height="79" rx="39.5" fill="#1F1F1F"/>
<rect x="560.477" y="24.5" width="79" height="79" rx="39.5" stroke="#3D3D3D"/>
<g filter="url(#filter5_d_1060_3088)">
<rect x="575.977" y="40" width="48" height="48" rx="24" fill="#292929" shape-rendering="crispEdges"/>
<path fill-rule="evenodd" clip-rule="evenodd" d="M608.022 56.6406L603.949 64.0469L608.022 71.4531L609.69 70.5625V57.5312L608.022 56.6406Z" fill="#E25444"/>
<path fill-rule="evenodd" clip-rule="evenodd" d="M608.021 56.6406L599.876 57.5312L595.73 64.0469L599.876 70.5625L608.021 71.4531V56.6406Z" fill="#7B1D13"/>
<path fill-rule="evenodd" clip-rule="evenodd" d="M591.586 56.6406L590.262 57.2031V70.8906L591.586 71.4531L599.879 64.0469L591.586 56.6406Z" fill="#58150D"/>
<path fill-rule="evenodd" clip-rule="evenodd" d="M591.57 56.625L599.891 58.8333V69.4583L591.57 71.4583V56.625Z" fill="#E25444"/>
<path fill-rule="evenodd" clip-rule="evenodd" d="M599.892 60L596.359 59.4583L599.892 55.625L603.417 59.4583L599.892 60Z" fill="#58150D"/>
<path fill-rule="evenodd" clip-rule="evenodd" d="M603.417 59.4583L599.888 60.0083L596.359 59.4583V55.625" fill="#58150D"/>
<path fill-rule="evenodd" clip-rule="evenodd" d="M599.892 68.042L596.359 68.667L599.892 71.9587L603.417 68.667L599.892 68.042Z" fill="#58150D"/>
<path fill-rule="evenodd" clip-rule="evenodd" d="M599.88 52.75L596.348 54.5312V59.4531L599.891 58.5L599.88 52.75Z" fill="#7B1D13"/>
<path fill-rule="evenodd" clip-rule="evenodd" d="M599.888 61.208L596.359 61.5747V66.489L599.888 66.8747V61.208Z" fill="#7B1D13"/>
<path fill-rule="evenodd" clip-rule="evenodd" d="M599.888 69.4996L596.359 68.6543V73.4854L599.888 75.2496V69.4996Z" fill="#7B1D13"/>
<path fill-rule="evenodd" clip-rule="evenodd" d="M603.419 68.6543L599.891 69.4998V75.2496L603.419 73.4854V68.6543Z" fill="#E25444"/>
<path fill-rule="evenodd" clip-rule="evenodd" d="M599.891 61.208L603.419 61.5747V66.489L599.891 66.8747V61.208Z" fill="#E25444"/>
<path fill-rule="evenodd" clip-rule="evenodd" d="M599.879 52.75L603.412 54.5312V59.4531L599.879 58.5156V52.75Z" fill="#E25444"/>
</g>
<rect x="311.5" y="196.5" width="134" height="29" rx="14.5" fill="#1F1F1F"/>
<rect x="311.5" y="196.5" width="134" height="29" rx="14.5" stroke="#3D3D3D"/>
<path d="M329.224 216.168C327.796 216.168 326.583 215.673 325.584 214.684C324.586 213.685 324.086 212.467 324.086 211.03C324.086 209.593 324.586 208.379 325.584 207.39C326.583 206.391 327.796 205.892 329.224 205.892C330.167 205.892 331.021 206.107 331.786 206.536C332.552 206.965 333.163 207.553 333.62 208.3L332.528 208.958C332.174 208.389 331.712 207.941 331.142 207.614C330.573 207.287 329.934 207.124 329.224 207.124C328.142 207.124 327.232 207.502 326.494 208.258C325.766 209.014 325.402 209.938 325.402 211.03C325.402 212.122 325.766 213.046 326.494 213.802C327.232 214.558 328.142 214.936 329.224 214.936C329.934 214.936 330.573 214.773 331.142 214.446C331.712 214.119 332.174 213.671 332.528 213.102L333.62 213.76C333.163 214.507 332.552 215.095 331.786 215.524C331.021 215.953 330.167 216.168 329.224 216.168ZM336.503 216H335.299V205.5H336.503V210.078C336.979 209.266 337.721 208.86 338.729 208.86C339.522 208.86 340.161 209.117 340.647 209.63C341.132 210.143 341.375 210.829 341.375 211.688V216H340.185V211.87C340.185 211.282 340.035 210.82 339.737 210.484C339.438 210.139 339.037 209.966 338.533 209.966C337.954 209.966 337.469 210.195 337.077 210.652C336.694 211.109 336.503 211.735 336.503 212.528V216ZM346.567 216.14C345.596 216.14 344.779 215.785 344.117 215.076C343.463 214.367 343.137 213.508 343.137 212.5C343.137 211.492 343.463 210.633 344.117 209.924C344.779 209.215 345.596 208.86 346.567 208.86C347.08 208.86 347.556 208.977 347.995 209.21C348.443 209.434 348.788 209.723 349.031 210.078V209H350.235V216H349.031V214.922C348.788 215.277 348.443 215.571 347.995 215.804C347.556 216.028 347.08 216.14 346.567 216.14ZM346.749 215.034C347.439 215.034 348.009 214.791 348.457 214.306C348.905 213.821 349.129 213.219 349.129 212.5C349.129 211.781 348.905 211.179 348.457 210.694C348.009 210.209 347.439 209.966 346.749 209.966C346.049 209.966 345.475 210.209 345.027 210.694C344.579 211.179 344.355 211.781 344.355 212.5C344.355 213.219 344.579 213.821 345.027 214.306C345.475 214.791 346.049 215.034 346.749 215.034ZM352.641 216V209H353.845V210.078C354.321 209.266 355.063 208.86 356.071 208.86C356.864 208.86 357.504 209.117 357.989 209.63C358.474 210.143 358.717 210.829 358.717 211.688V216H357.527V211.87C357.527 211.282 357.378 210.82 357.079 210.484C356.78 210.139 356.379 209.966 355.875 209.966C355.296 209.966 354.811 210.195 354.419 210.652C354.036 211.109 353.845 211.735 353.845 212.528V216H352.641ZM362.369 214.18C362.808 214.637 363.377 214.866 364.077 214.866C364.777 214.866 365.347 214.637 365.785 214.18C366.224 213.713 366.443 213.125 366.443 212.416C366.443 211.707 366.219 211.123 365.771 210.666C365.333 210.199 364.768 209.966 364.077 209.966C363.387 209.966 362.817 210.199 362.369 210.666C361.931 211.123 361.711 211.707 361.711 212.416C361.711 213.125 361.931 213.713 362.369 214.18ZM364.007 219.066C363.289 219.066 362.64 218.931 362.061 218.66C361.483 218.399 361.035 218.058 360.717 217.638L361.557 216.798C362.173 217.582 362.99 217.974 364.007 217.974C364.661 217.974 365.211 217.769 365.659 217.358C366.117 216.947 366.345 216.345 366.345 215.552V214.754C366.093 215.127 365.753 215.426 365.323 215.65C364.894 215.874 364.423 215.986 363.909 215.986C362.929 215.986 362.113 215.645 361.459 214.964C360.806 214.273 360.479 213.424 360.479 212.416C360.479 211.417 360.806 210.577 361.459 209.896C362.122 209.205 362.939 208.86 363.909 208.86C364.423 208.86 364.894 208.972 365.323 209.196C365.753 209.42 366.093 209.714 366.345 210.078V209H367.549V215.594C367.549 216.723 367.218 217.582 366.555 218.17C365.902 218.767 365.053 219.066 364.007 219.066ZM373.036 216.14C371.963 216.14 371.09 215.795 370.418 215.104C369.746 214.413 369.41 213.545 369.41 212.5C369.41 211.464 369.751 210.601 370.432 209.91C371.114 209.21 371.986 208.86 373.05 208.86C373.993 208.86 374.782 209.177 375.416 209.812C376.06 210.437 376.382 211.291 376.382 212.374C376.382 212.514 376.378 212.635 376.368 212.738H370.628C370.647 213.391 370.88 213.937 371.328 214.376C371.786 214.815 372.36 215.034 373.05 215.034C374.03 215.034 374.758 214.628 375.234 213.816L376.186 214.474C375.505 215.585 374.455 216.14 373.036 216.14ZM370.712 211.758H375.15C375.057 211.198 374.81 210.755 374.408 210.428C374.016 210.092 373.55 209.924 373.008 209.924C372.458 209.924 371.963 210.092 371.524 210.428C371.095 210.755 370.824 211.198 370.712 211.758ZM383.862 216.14C383.218 216.14 382.653 216.005 382.168 215.734C381.683 215.454 381.333 215.048 381.118 214.516L382.098 213.97C382.229 214.315 382.457 214.586 382.784 214.782C383.111 214.978 383.475 215.076 383.876 215.076C384.221 215.076 384.511 214.992 384.744 214.824C384.977 214.656 385.094 214.427 385.094 214.138C385.094 213.886 385.001 213.676 384.814 213.508C384.637 213.34 384.324 213.186 383.876 213.046L383.176 212.822C382.009 212.486 381.426 211.805 381.426 210.778C381.426 210.199 381.655 209.737 382.112 209.392C382.579 209.037 383.153 208.86 383.834 208.86C384.898 208.86 385.668 209.266 386.144 210.078L385.248 210.694C384.865 210.162 384.38 209.896 383.792 209.896C383.475 209.896 383.199 209.975 382.966 210.134C382.742 210.283 382.63 210.484 382.63 210.736C382.63 210.969 382.7 211.17 382.84 211.338C382.989 211.497 383.251 211.632 383.624 211.744L384.394 211.982C385.663 212.374 386.298 213.06 386.298 214.04C386.298 214.693 386.069 215.207 385.612 215.58C385.164 215.953 384.581 216.14 383.862 216.14ZM390.838 216.07C390.194 216.07 389.676 215.888 389.284 215.524C388.892 215.16 388.696 214.628 388.696 213.928V210.106H387.212V209H388.696V207.054H389.9V209H391.916V210.106H389.9V213.774C389.9 214.213 389.994 214.521 390.18 214.698C390.367 214.875 390.661 214.964 391.062 214.964C391.417 214.964 391.702 214.917 391.916 214.824V215.902C391.58 216.014 391.221 216.07 390.838 216.07ZM393.594 216V209H394.798V210.358C394.929 209.929 395.181 209.583 395.554 209.322C395.937 209.061 396.338 208.93 396.758 208.93C396.964 208.93 397.146 208.949 397.304 208.986V210.232C397.136 210.157 396.917 210.12 396.646 210.12C396.161 210.12 395.732 210.33 395.358 210.75C394.985 211.17 394.798 211.763 394.798 212.528V216H393.594ZM401.695 216.14C400.622 216.14 399.749 215.795 399.077 215.104C398.405 214.413 398.069 213.545 398.069 212.5C398.069 211.464 398.41 210.601 399.091 209.91C399.773 209.21 400.645 208.86 401.709 208.86C402.652 208.86 403.441 209.177 404.075 209.812C404.719 210.437 405.041 211.291 405.041 212.374C405.041 212.514 405.037 212.635 405.027 212.738H399.287C399.306 213.391 399.539 213.937 399.987 214.376C400.445 214.815 401.019 215.034 401.709 215.034C402.689 215.034 403.417 214.628 403.893 213.816L404.845 214.474C404.164 215.585 403.114 216.14 401.695 216.14ZM399.371 211.758H403.809C403.716 211.198 403.469 210.755 403.067 210.428C402.675 210.092 402.209 209.924 401.667 209.924C401.117 209.924 400.622 210.092 400.183 210.428C399.754 210.755 399.483 211.198 399.371 211.758ZM409.774 216.14C408.803 216.14 407.987 215.785 407.324 215.076C406.671 214.367 406.344 213.508 406.344 212.5C406.344 211.492 406.671 210.633 407.324 209.924C407.987 209.215 408.803 208.86 409.774 208.86C410.287 208.86 410.763 208.977 411.202 209.21C411.65 209.434 411.995 209.723 412.238 210.078V209H413.442V216H412.238V214.922C411.995 215.277 411.65 215.571 411.202 215.804C410.763 216.028 410.287 216.14 409.774 216.14ZM409.956 215.034C410.647 215.034 411.216 214.791 411.664 214.306C412.112 213.821 412.336 213.219 412.336 212.5C412.336 211.781 412.112 211.179 411.664 210.694C411.216 210.209 410.647 209.966 409.956 209.966C409.256 209.966 408.682 210.209 408.234 210.694C407.786 211.179 407.562 211.781 407.562 212.5C407.562 213.219 407.786 213.821 408.234 214.306C408.682 214.791 409.256 215.034 409.956 215.034ZM424.864 216V211.884C424.864 211.305 424.743 210.843 424.5 210.498C424.267 210.143 423.926 209.966 423.478 209.966C422.918 209.966 422.461 210.185 422.106 210.624C421.761 211.063 421.579 211.66 421.56 212.416V216H420.356V211.884C420.356 211.296 420.235 210.829 419.992 210.484C419.759 210.139 419.423 209.966 418.984 209.966C418.406 209.966 417.939 210.199 417.584 210.666C417.23 211.123 417.052 211.744 417.052 212.528V216H415.848V209H417.052V210.078C417.5 209.266 418.205 208.86 419.166 208.86C420.23 208.86 420.949 209.359 421.322 210.358C421.509 209.901 421.808 209.537 422.218 209.266C422.629 208.995 423.096 208.86 423.618 208.86C424.374 208.86 424.972 209.117 425.41 209.63C425.849 210.143 426.068 210.834 426.068 211.702V216H424.864ZM430.489 216.14C429.845 216.14 429.28 216.005 428.795 215.734C428.31 215.454 427.96 215.048 427.745 214.516L428.725 213.97C428.856 214.315 429.084 214.586 429.411 214.782C429.738 214.978 430.102 215.076 430.503 215.076C430.848 215.076 431.138 214.992 431.371 214.824C431.604 214.656 431.721 214.427 431.721 214.138C431.721 213.886 431.628 213.676 431.441 213.508C431.264 213.34 430.951 213.186 430.503 213.046L429.803 212.822C428.636 212.486 428.053 211.805 428.053 210.778C428.053 210.199 428.282 209.737 428.739 209.392C429.206 209.037 429.78 208.86 430.461 208.86C431.525 208.86 432.295 209.266 432.771 210.078L431.875 210.694C431.492 210.162 431.007 209.896 430.419 209.896C430.102 209.896 429.826 209.975 429.593 210.134C429.369 210.283 429.257 210.484 429.257 210.736C429.257 210.969 429.327 211.17 429.467 211.338C429.616 211.497 429.878 211.632 430.251 211.744L431.021 211.982C432.29 212.374 432.925 213.06 432.925 214.04C432.925 214.693 432.696 215.207 432.239 215.58C431.791 215.953 431.208 216.14 430.489 216.14Z" fill="white"/>
<rect x="340" y="51.5" width="8" height="100" rx="2" fill="#7A7A7A"/>
<rect x="354" y="51.5" width="8" height="100" rx="2" fill="#7A7A7A"/>
<rect x="368" y="51.5" width="8" height="100" rx="2" fill="#7A7A7A"/>
<rect x="382" y="51.5" width="8" height="100" rx="2" fill="#7A7A7A"/>
<rect x="396" y="51.5" width="8" height="100" rx="2" fill="#7A7A7A"/>
<rect x="410" y="51.5" width="8" height="100" rx="2" fill="#7A7A7A"/>
</g>
<defs>
<filter id="filter0_b_1060_3088" x="-44" y="-44" width="791" height="338" filterUnits="userSpaceOnUse" color-interpolation-filters="sRGB">
<feFlood flood-opacity="0" result="BackgroundImageFix"/>
<feGaussianBlur in="BackgroundImageFix" stdDeviation="22"/>
<feComposite in2="SourceAlpha" operator="in" result="effect1_backgroundBlur_1060_3088"/>
<feBlend mode="normal" in="SourceGraphic" in2="effect1_backgroundBlur_1060_3088" result="shape"/>
</filter>
<filter id="filter1_d_1060_3088" x="56" y="90" width="96" height="96" filterUnits="userSpaceOnUse" color-interpolation-filters="sRGB">
<feFlood flood-opacity="0" result="BackgroundImageFix"/>
<feColorMatrix in="SourceAlpha" type="matrix" values="0 0 0 0 0 0 0 0 0 0 0 0 0 0 0 0 0 0 127 0" result="hardAlpha"/>
<feOffset/>
<feGaussianBlur stdDeviation="12"/>
<feComposite in2="hardAlpha" operator="out"/>
<feColorMatrix type="matrix" values="0 0 0 0 0 0 0 0 0 0 0 0 0 0 0 0 0 0 0.5 0"/>
<feBlend mode="normal" in2="BackgroundImageFix" result="effect1_dropShadow_1060_3088"/>
<feBlend mode="normal" in="SourceGraphic" in2="effect1_dropShadow_1060_3088" result="shape"/>
</filter>
<filter id="filter2_d_1060_3088" x="56" y="16" width="96" height="96" filterUnits="userSpaceOnUse" color-interpolation-filters="sRGB">
<feFlood flood-opacity="0" result="BackgroundImageFix"/>
<feColorMatrix in="SourceAlpha" type="matrix" values="0 0 0 0 0 0 0 0 0 0 0 0 0 0 0 0 0 0 127 0" result="hardAlpha"/>
<feOffset/>
<feGaussianBlur stdDeviation="12"/>
<feComposite in2="hardAlpha" operator="out"/>
<feColorMatrix type="matrix" values="0 0 0 0 0 0 0 0 0 0 0 0 0 0 0 0 0 0 0.5 0"/>
<feBlend mode="normal" in2="BackgroundImageFix" result="effect1_dropShadow_1060_3088"/>
<feBlend mode="normal" in="SourceGraphic" in2="effect1_dropShadow_1060_3088" result="shape"/>
</filter>
<filter id="filter3_d_1060_3088" x="110" y="53" width="96" height="96" filterUnits="userSpaceOnUse" color-interpolation-filters="sRGB">
<feFlood flood-opacity="0" result="BackgroundImageFix"/>
<feColorMatrix in="SourceAlpha" type="matrix" values="0 0 0 0 0 0 0 0 0 0 0 0 0 0 0 0 0 0 127 0" result="hardAlpha"/>
<feOffset/>
<feGaussianBlur stdDeviation="12"/>
<feComposite in2="hardAlpha" operator="out"/>
<feColorMatrix type="matrix" values="0 0 0 0 0 0 0 0 0 0 0 0 0 0 0 0 0 0 0.5 0"/>
<feBlend mode="normal" in2="BackgroundImageFix" result="effect1_dropShadow_1060_3088"/>
<feBlend mode="normal" in="SourceGraphic" in2="effect1_dropShadow_1060_3088" result="shape"/>
</filter>
<filter id="filter4_d_1060_3088" x="551.977" y="90" width="96" height="96" filterUnits="userSpaceOnUse" color-interpolation-filters="sRGB">
<feFlood flood-opacity="0" result="BackgroundImageFix"/>
<feColorMatrix in="SourceAlpha" type="matrix" values="0 0 0 0 0 0 0 0 0 0 0 0 0 0 0 0 0 0 127 0" result="hardAlpha"/>
<feOffset/>
<feGaussianBlur stdDeviation="12"/>
<feComposite in2="hardAlpha" operator="out"/>
<feColorMatrix type="matrix" values="0 0 0 0 0 0 0 0 0 0 0 0 0 0 0 0 0 0 0.5 0"/>
<feBlend mode="normal" in2="BackgroundImageFix" result="effect1_dropShadow_1060_3088"/>
<feBlend mode="normal" in="SourceGraphic" in2="effect1_dropShadow_1060_3088" result="shape"/>
</filter>
<filter id="filter5_d_1060_3088" x="551.977" y="16" width="96" height="96" filterUnits="userSpaceOnUse" color-interpolation-filters="sRGB">
<feFlood flood-opacity="0" result="BackgroundImageFix"/>
<feColorMatrix in="SourceAlpha" type="matrix" values="0 0 0 0 0 0 0 0 0 0 0 0 0 0 0 0 0 0 127 0" result="hardAlpha"/>
<feOffset/>
<feGaussianBlur stdDeviation="12"/>
<feComposite in2="hardAlpha" operator="out"/>
<feColorMatrix type="matrix" values="0 0 0 0 0 0 0 0 0 0 0 0 0 0 0 0 0 0 0.5 0"/>
<feBlend mode="normal" in2="BackgroundImageFix" result="effect1_dropShadow_1060_3088"/>
<feBlend mode="normal" in="SourceGraphic" in2="effect1_dropShadow_1060_3088" result="shape"/>
</filter>
<linearGradient id="paint0_linear_1060_3088" x1="0.834892" y1="2.55401e-05" x2="624.523" y2="380.129" gradientUnits="userSpaceOnUse">
<stop stop-color="#3D3D3D" stop-opacity="0.4"/>
<stop offset="1" stop-color="#292929" stop-opacity="0.1"/>
</linearGradient>
<linearGradient id="paint1_linear_1060_3088" x1="0" y1="0" x2="666.649" y2="324.646" gradientUnits="userSpaceOnUse">
<stop stop-color="#292929" stop-opacity="0.4"/>
<stop offset="1" stop-color="#3D3D3D" stop-opacity="0.15"/>
</linearGradient>
<linearGradient id="paint2_linear_1060_3088" x1="286.187" y1="100.81" x2="241" y2="100.81" gradientUnits="userSpaceOnUse">
<stop stop-color="white"/>
<stop offset="1" stop-color="#292929"/>
</linearGradient>
<linearGradient id="paint3_linear_1060_3088" x1="517.176" y1="100.81" x2="471.988" y2="100.81" gradientUnits="userSpaceOnUse">
<stop stop-color="white"/>
<stop offset="1" stop-color="#292929"/>
</linearGradient>
<clipPath id="clip0_1060_3088">
<rect width="24" height="24" fill="white" transform="translate(92 126)"/>
</clipPath>
<clipPath id="clip1_1060_3088">
<rect width="48" height="48" fill="white" transform="translate(134 77)"/>
</clipPath>
<clipPath id="clip2_1060_3088">
<rect width="24" height="24" fill="white" transform="translate(587.977 126)"/>
</clipPath>
</defs>
</svg>
