<svg width="703" height="250" viewBox="0 0 703 250" fill="none" xmlns="http://www.w3.org/2000/svg">
<g filter="url(#filter0_b_1060_2853)">
<rect width="703" height="250" rx="24" fill="url(#paint0_linear_1060_2853)" fill-opacity="0.4"/>
<rect x="0.5" y="0.5" width="702" height="249" rx="23.5" stroke="url(#paint1_linear_1060_2853)"/>
<rect x="84" y="55.5" width="79" height="79" rx="7.5" fill="#1D1D1D"/>
<rect x="84" y="55.5" width="79" height="79" rx="7.5" stroke="#3D3D3D"/>
<rect x="97.5" y="69" width="32" height="12" rx="2" fill="#525252"/>
<rect x="138" y="69.5" width="11" height="11" rx="1.5" fill="#193AE6" fill-opacity="0.25" stroke="#193AE6"/>
<rect x="98" y="89.5" width="11" height="11" rx="1.5" fill="#193AE6" fill-opacity="0.25" stroke="#193AE6"/>
<rect x="118" y="89.5" width="31" height="11" rx="1.5" fill="#193AE6" fill-opacity="0.25" stroke="#193AE6"/>
<rect x="98" y="109.5" width="11" height="11" rx="1.5" fill="#193AE6" fill-opacity="0.25" stroke="#193AE6"/>
<rect x="117.5" y="109" width="12" height="12" rx="2" fill="#525252"/>
<rect x="137.5" y="109" width="12" height="12" rx="2" fill="#525252"/>
<rect x="84.5" y="196.5" width="78" height="29" rx="14.5" fill="#1F1F1F"/>
<rect x="84.5" y="196.5" width="78" height="29" rx="14.5" stroke="#3D3D3D"/>
<path d="M100.376 216.168C99.5823 216.168 98.8683 216 98.2337 215.664C97.6083 215.328 97.1603 214.899 96.8897 214.376L97.9397 213.592C98.5277 214.497 99.349 214.95 100.404 214.95C100.936 214.95 101.374 214.819 101.72 214.558C102.065 214.287 102.238 213.923 102.238 213.466C102.238 212.701 101.762 212.141 100.81 211.786L99.4937 211.282C98.7097 210.993 98.1357 210.633 97.7717 210.204C97.417 209.765 97.2397 209.21 97.2397 208.538C97.2397 207.735 97.529 207.096 98.1077 206.62C98.6957 206.135 99.4423 205.892 100.348 205.892C100.954 205.892 101.51 206.018 102.014 206.27C102.518 206.513 102.928 206.839 103.246 207.25L102.294 208.09C101.743 207.437 101.085 207.11 100.32 207.11C99.8157 207.11 99.391 207.241 99.0457 207.502C98.7003 207.754 98.5277 208.081 98.5277 208.482C98.5277 208.883 98.6443 209.201 98.8777 209.434C99.111 209.667 99.4937 209.882 100.026 210.078L101.23 210.54C101.995 210.829 102.569 211.203 102.952 211.66C103.344 212.117 103.54 212.701 103.54 213.41C103.54 214.241 103.241 214.908 102.644 215.412C102.056 215.916 101.3 216.168 100.376 216.168ZM107.909 216.07C107.265 216.07 106.747 215.888 106.355 215.524C105.963 215.16 105.767 214.628 105.767 213.928V210.106H104.283V209H105.767V207.054H106.971V209H108.987V210.106H106.971V213.774C106.971 214.213 107.064 214.521 107.251 214.698C107.438 214.875 107.732 214.964 108.133 214.964C108.488 214.964 108.772 214.917 108.987 214.824V215.902C108.651 216.014 108.292 216.07 107.909 216.07ZM110.665 216V209H111.869V210.358C112 209.929 112.252 209.583 112.625 209.322C113.008 209.061 113.409 208.93 113.829 208.93C114.034 208.93 114.216 208.949 114.375 208.986V210.232C114.207 210.157 113.988 210.12 113.717 210.12C113.232 210.12 112.802 210.33 112.429 210.75C112.056 211.17 111.869 211.763 111.869 212.528V216H110.665ZM118.766 216.14C117.692 216.14 116.82 215.795 116.148 215.104C115.476 214.413 115.14 213.545 115.14 212.5C115.14 211.464 115.48 210.601 116.162 209.91C116.843 209.21 117.716 208.86 118.78 208.86C119.722 208.86 120.511 209.177 121.146 209.812C121.79 210.437 122.112 211.291 122.112 212.374C122.112 212.514 122.107 212.635 122.098 212.738H116.358C116.376 213.391 116.61 213.937 117.058 214.376C117.515 214.815 118.089 215.034 118.78 215.034C119.76 215.034 120.488 214.628 120.964 213.816L121.916 214.474C121.234 215.585 120.184 216.14 118.766 216.14ZM116.442 211.758H120.88C120.786 211.198 120.539 210.755 120.138 210.428C119.746 210.092 119.279 209.924 118.738 209.924C118.187 209.924 117.692 210.092 117.254 210.428C116.824 210.755 116.554 211.198 116.442 211.758ZM126.845 216.14C125.874 216.14 125.057 215.785 124.395 215.076C123.741 214.367 123.415 213.508 123.415 212.5C123.415 211.492 123.741 210.633 124.395 209.924C125.057 209.215 125.874 208.86 126.845 208.86C127.358 208.86 127.834 208.977 128.273 209.21C128.721 209.434 129.066 209.723 129.309 210.078V209H130.513V216H129.309V214.922C129.066 215.277 128.721 215.571 128.273 215.804C127.834 216.028 127.358 216.14 126.845 216.14ZM127.027 215.034C127.717 215.034 128.287 214.791 128.735 214.306C129.183 213.821 129.407 213.219 129.407 212.5C129.407 211.781 129.183 211.179 128.735 210.694C128.287 210.209 127.717 209.966 127.027 209.966C126.327 209.966 125.753 210.209 125.305 210.694C124.857 211.179 124.633 211.781 124.633 212.5C124.633 213.219 124.857 213.821 125.305 214.306C125.753 214.791 126.327 215.034 127.027 215.034ZM141.935 216V211.884C141.935 211.305 141.814 210.843 141.571 210.498C141.338 210.143 140.997 209.966 140.549 209.966C139.989 209.966 139.532 210.185 139.177 210.624C138.832 211.063 138.65 211.66 138.631 212.416V216H137.427V211.884C137.427 211.296 137.306 210.829 137.063 210.484C136.83 210.139 136.494 209.966 136.055 209.966C135.476 209.966 135.01 210.199 134.655 210.666C134.3 211.123 134.123 211.744 134.123 212.528V216H132.919V209H134.123V210.078C134.571 209.266 135.276 208.86 136.237 208.86C137.301 208.86 138.02 209.359 138.393 210.358C138.58 209.901 138.878 209.537 139.289 209.266C139.7 208.995 140.166 208.86 140.689 208.86C141.445 208.86 142.042 209.117 142.481 209.63C142.92 210.143 143.139 210.834 143.139 211.702V216H141.935ZM147.56 216.14C146.916 216.14 146.351 216.005 145.866 215.734C145.38 215.454 145.03 215.048 144.816 214.516L145.796 213.97C145.926 214.315 146.155 214.586 146.482 214.782C146.808 214.978 147.172 215.076 147.574 215.076C147.919 215.076 148.208 214.992 148.442 214.824C148.675 214.656 148.792 214.427 148.792 214.138C148.792 213.886 148.698 213.676 148.512 213.508C148.334 213.34 148.022 213.186 147.574 213.046L146.874 212.822C145.707 212.486 145.124 211.805 145.124 210.778C145.124 210.199 145.352 209.737 145.81 209.392C146.276 209.037 146.85 208.86 147.532 208.86C148.596 208.86 149.366 209.266 149.842 210.078L148.946 210.694C148.563 210.162 148.078 209.896 147.49 209.896C147.172 209.896 146.897 209.975 146.664 210.134C146.44 210.283 146.328 210.484 146.328 210.736C146.328 210.969 146.398 211.17 146.538 211.338C146.687 211.497 146.948 211.632 147.322 211.744L148.092 211.982C149.361 212.374 149.996 213.06 149.996 214.04C149.996 214.693 149.767 215.207 149.31 215.58C148.862 215.953 148.278 216.14 147.56 216.14Z" fill="white"/>
<rect x="325" y="59" width="32" height="12" rx="2" fill="#525252"/>
<rect x="365.5" y="59.5" width="11" height="11" rx="1.5" fill="#193AE6" fill-opacity="0.25" stroke="#193AE6"/>
<rect x="385.5" y="59.5" width="11" height="11" rx="1.5" fill="#193AE6" fill-opacity="0.25" stroke="#193AE6"/>
<rect x="325" y="79" width="12" height="12" rx="2" fill="#525252"/>
<rect x="345.5" y="79.5" width="31" height="11" rx="1.5" fill="#193AE6" fill-opacity="0.25" stroke="#193AE6"/>
<rect x="385" y="79" width="12" height="12" rx="2" fill="#525252"/>
<rect x="325.5" y="99.5" width="11" height="11" rx="1.5" fill="#193AE6" fill-opacity="0.25" stroke="#193AE6"/>
<rect x="345" y="99" width="12" height="12" rx="2" fill="#525252"/>
<rect x="365.5" y="99.5" width="11" height="11" rx="1.5" fill="#193AE6" fill-opacity="0.25" stroke="#193AE6"/>
<rect x="385" y="99" width="12" height="12" rx="2" fill="#525252"/>
<rect x="325.5" y="119.5" width="31" height="11" rx="1.5" fill="#193AE6" fill-opacity="0.25" stroke="#193AE6"/>
<rect x="365" y="119" width="12" height="12" rx="2" fill="#525252"/>
<rect x="385.5" y="119.5" width="11" height="11" rx="1.5" fill="#193AE6" fill-opacity="0.25" stroke="#193AE6"/>
<rect x="307.5" y="196.5" width="107" height="29" rx="14.5" fill="#1F1F1F"/>
<rect x="307.5" y="196.5" width="107" height="29" rx="14.5" stroke="#3D3D3D"/>
<path d="M320.32 216V206.06H323.176C324.697 206.06 325.957 206.531 326.956 207.474C327.964 208.417 328.468 209.602 328.468 211.03C328.468 212.458 327.964 213.643 326.956 214.586C325.957 215.529 324.697 216 323.176 216H320.32ZM321.622 214.782H323.176C324.361 214.782 325.318 214.432 326.046 213.732C326.783 213.023 327.152 212.122 327.152 211.03C327.152 209.938 326.783 209.042 326.046 208.342C325.318 207.633 324.361 207.278 323.176 207.278H321.622V214.782ZM333.252 216.14C332.281 216.14 331.465 215.785 330.802 215.076C330.149 214.367 329.822 213.508 329.822 212.5C329.822 211.492 330.149 210.633 330.802 209.924C331.465 209.215 332.281 208.86 333.252 208.86C333.765 208.86 334.241 208.977 334.68 209.21C335.128 209.434 335.473 209.723 335.716 210.078V209H336.92V216H335.716V214.922C335.473 215.277 335.128 215.571 334.68 215.804C334.241 216.028 333.765 216.14 333.252 216.14ZM333.434 215.034C334.125 215.034 334.694 214.791 335.142 214.306C335.59 213.821 335.814 213.219 335.814 212.5C335.814 211.781 335.59 211.179 335.142 210.694C334.694 210.209 334.125 209.966 333.434 209.966C332.734 209.966 332.16 210.209 331.712 210.694C331.264 211.179 331.04 211.781 331.04 212.5C331.04 213.219 331.264 213.821 331.712 214.306C332.16 214.791 332.734 215.034 333.434 215.034ZM342.042 216.07C341.398 216.07 340.88 215.888 340.488 215.524C340.096 215.16 339.9 214.628 339.9 213.928V210.106H338.416V209H339.9V207.054H341.104V209H343.12V210.106H341.104V213.774C341.104 214.213 341.198 214.521 341.384 214.698C341.571 214.875 341.865 214.964 342.266 214.964C342.621 214.964 342.906 214.917 343.12 214.824V215.902C342.784 216.014 342.425 216.07 342.042 216.07ZM347.587 216.14C346.616 216.14 345.799 215.785 345.137 215.076C344.483 214.367 344.157 213.508 344.157 212.5C344.157 211.492 344.483 210.633 345.137 209.924C345.799 209.215 346.616 208.86 347.587 208.86C348.1 208.86 348.576 208.977 349.015 209.21C349.463 209.434 349.808 209.723 350.051 210.078V209H351.255V216H350.051V214.922C349.808 215.277 349.463 215.571 349.015 215.804C348.576 216.028 348.1 216.14 347.587 216.14ZM347.769 215.034C348.459 215.034 349.029 214.791 349.477 214.306C349.925 213.821 350.149 213.219 350.149 212.5C350.149 211.781 349.925 211.179 349.477 210.694C349.029 210.209 348.459 209.966 347.769 209.966C347.069 209.966 346.495 210.209 346.047 210.694C345.599 211.179 345.375 211.781 345.375 212.5C345.375 213.219 345.599 213.821 346.047 214.306C346.495 214.791 347.069 215.034 347.769 215.034ZM360.3 216.14C359.245 216.14 358.368 215.79 357.668 215.09C356.977 214.39 356.632 213.527 356.632 212.5C356.632 211.473 356.977 210.61 357.668 209.91C358.368 209.21 359.245 208.86 360.3 208.86C361.009 208.86 361.644 209.028 362.204 209.364C362.773 209.7 363.217 210.157 363.534 210.736L362.484 211.324C362.279 210.913 361.985 210.587 361.602 210.344C361.229 210.101 360.795 209.98 360.3 209.98C359.581 209.98 358.993 210.223 358.536 210.708C358.079 211.193 357.85 211.791 357.85 212.5C357.85 213.209 358.079 213.807 358.536 214.292C358.993 214.777 359.581 215.02 360.3 215.02C360.795 215.02 361.229 214.899 361.602 214.656C361.985 214.413 362.279 214.087 362.484 213.676L363.534 214.264C363.217 214.843 362.773 215.3 362.204 215.636C361.644 215.972 361.009 216.14 360.3 216.14ZM366.438 216H365.234V205.5H366.438V210.078C366.914 209.266 367.656 208.86 368.664 208.86C369.457 208.86 370.097 209.117 370.582 209.63C371.067 210.143 371.31 210.829 371.31 211.688V216H370.12V211.87C370.12 211.282 369.971 210.82 369.672 210.484C369.373 210.139 368.972 209.966 368.468 209.966C367.889 209.966 367.404 210.195 367.012 210.652C366.629 211.109 366.438 211.735 366.438 212.528V216ZM376.096 216.14C375.331 216.14 374.71 215.883 374.234 215.37C373.758 214.847 373.52 214.157 373.52 213.298V209H374.724V213.116C374.724 213.704 374.864 214.171 375.144 214.516C375.433 214.861 375.821 215.034 376.306 215.034C376.866 215.034 377.328 214.805 377.692 214.348C378.065 213.881 378.252 213.256 378.252 212.472V209H379.456V216H378.252V214.922C377.795 215.734 377.076 216.14 376.096 216.14ZM381.866 216V209H383.07V210.078C383.546 209.266 384.288 208.86 385.296 208.86C386.089 208.86 386.728 209.117 387.214 209.63C387.699 210.143 387.942 210.829 387.942 211.688V216H386.752V211.87C386.752 211.282 386.602 210.82 386.304 210.484C386.005 210.139 385.604 209.966 385.1 209.966C384.521 209.966 384.036 210.195 383.644 210.652C383.261 211.109 383.07 211.735 383.07 212.528V216H381.866ZM395.248 216L391.454 212.5V216H390.25V205.5H391.454V211.73L394.506 209H396.102L392.658 212.094L396.872 216H395.248ZM399.941 216.14C399.297 216.14 398.732 216.005 398.247 215.734C397.762 215.454 397.412 215.048 397.197 214.516L398.177 213.97C398.308 214.315 398.536 214.586 398.863 214.782C399.19 214.978 399.554 215.076 399.955 215.076C400.3 215.076 400.59 214.992 400.823 214.824C401.056 214.656 401.173 214.427 401.173 214.138C401.173 213.886 401.08 213.676 400.893 213.508C400.716 213.34 400.403 213.186 399.955 213.046L399.255 212.822C398.088 212.486 397.505 211.805 397.505 210.778C397.505 210.199 397.734 209.737 398.191 209.392C398.658 209.037 399.232 208.86 399.913 208.86C400.977 208.86 401.747 209.266 402.223 210.078L401.327 210.694C400.944 210.162 400.459 209.896 399.871 209.896C399.554 209.896 399.278 209.975 399.045 210.134C398.821 210.283 398.709 210.484 398.709 210.736C398.709 210.969 398.779 211.17 398.919 211.338C399.068 211.497 399.33 211.632 399.703 211.744L400.473 211.982C401.742 212.374 402.377 213.06 402.377 214.04C402.377 214.693 402.148 215.207 401.691 215.58C401.243 215.953 400.66 216.14 399.941 216.14Z" fill="white"/>
<rect x="545.5" y="196.5" width="107" height="29" rx="14.5" fill="#1F1F1F"/>
<rect x="545.5" y="196.5" width="107" height="29" rx="14.5" stroke="#3D3D3D"/>
<path d="M564.597 216V206.06H567.453C568.974 206.06 570.234 206.531 571.233 207.474C572.241 208.417 572.745 209.602 572.745 211.03C572.745 212.458 572.241 213.643 571.233 214.586C570.234 215.529 568.974 216 567.453 216H564.597ZM565.899 214.782H567.453C568.638 214.782 569.595 214.432 570.323 213.732C571.06 213.023 571.429 212.122 571.429 211.03C571.429 209.938 571.06 209.042 570.323 208.342C569.595 207.633 568.638 207.278 567.453 207.278H565.899V214.782ZM577.529 216.14C576.558 216.14 575.742 215.785 575.079 215.076C574.426 214.367 574.099 213.508 574.099 212.5C574.099 211.492 574.426 210.633 575.079 209.924C575.742 209.215 576.558 208.86 577.529 208.86C578.042 208.86 578.518 208.977 578.957 209.21C579.405 209.434 579.75 209.723 579.993 210.078V209H581.197V216H579.993V214.922C579.75 215.277 579.405 215.571 578.957 215.804C578.518 216.028 578.042 216.14 577.529 216.14ZM577.711 215.034C578.402 215.034 578.971 214.791 579.419 214.306C579.867 213.821 580.091 213.219 580.091 212.5C580.091 211.781 579.867 211.179 579.419 210.694C578.971 210.209 578.402 209.966 577.711 209.966C577.011 209.966 576.437 210.209 575.989 210.694C575.541 211.179 575.317 211.781 575.317 212.5C575.317 213.219 575.541 213.821 575.989 214.306C576.437 214.791 577.011 215.034 577.711 215.034ZM586.319 216.07C585.675 216.07 585.157 215.888 584.765 215.524C584.373 215.16 584.177 214.628 584.177 213.928V210.106H582.693V209H584.177V207.054H585.381V209H587.397V210.106H585.381V213.774C585.381 214.213 585.475 214.521 585.661 214.698C585.848 214.875 586.142 214.964 586.543 214.964C586.898 214.964 587.183 214.917 587.397 214.824V215.902C587.061 216.014 586.702 216.07 586.319 216.07ZM591.864 216.14C590.893 216.14 590.076 215.785 589.414 215.076C588.76 214.367 588.434 213.508 588.434 212.5C588.434 211.492 588.76 210.633 589.414 209.924C590.076 209.215 590.893 208.86 591.864 208.86C592.377 208.86 592.853 208.977 593.292 209.21C593.74 209.434 594.085 209.723 594.328 210.078V209H595.532V216H594.328V214.922C594.085 215.277 593.74 215.571 593.292 215.804C592.853 216.028 592.377 216.14 591.864 216.14ZM592.046 215.034C592.736 215.034 593.306 214.791 593.754 214.306C594.202 213.821 594.426 213.219 594.426 212.5C594.426 211.781 594.202 211.179 593.754 210.694C593.306 210.209 592.736 209.966 592.046 209.966C591.346 209.966 590.772 210.209 590.324 210.694C589.876 211.179 589.652 211.781 589.652 212.5C589.652 213.219 589.876 213.821 590.324 214.306C590.772 214.791 591.346 215.034 592.046 215.034ZM601.455 216V205.5H602.659V216H601.455ZM607.965 216.14C606.995 216.14 606.178 215.785 605.515 215.076C604.862 214.367 604.535 213.508 604.535 212.5C604.535 211.492 604.862 210.633 605.515 209.924C606.178 209.215 606.995 208.86 607.965 208.86C608.479 208.86 608.955 208.977 609.393 209.21C609.841 209.434 610.187 209.723 610.429 210.078V209H611.633V216H610.429V214.922C610.187 215.277 609.841 215.571 609.393 215.804C608.955 216.028 608.479 216.14 607.965 216.14ZM608.147 215.034C608.838 215.034 609.407 214.791 609.855 214.306C610.303 213.821 610.527 213.219 610.527 212.5C610.527 211.781 610.303 211.179 609.855 210.694C609.407 210.209 608.838 209.966 608.147 209.966C607.447 209.966 606.873 210.209 606.425 210.694C605.977 211.179 605.753 211.781 605.753 212.5C605.753 213.219 605.977 213.821 606.425 214.306C606.873 214.791 607.447 215.034 608.147 215.034ZM619.038 216L615.244 212.5V216H614.04V205.5H615.244V211.73L618.296 209H619.892L616.448 212.094L620.662 216H619.038ZM624.355 216.14C623.282 216.14 622.409 215.795 621.737 215.104C621.065 214.413 620.729 213.545 620.729 212.5C620.729 211.464 621.07 210.601 621.751 209.91C622.433 209.21 623.305 208.86 624.369 208.86C625.312 208.86 626.101 209.177 626.735 209.812C627.379 210.437 627.701 211.291 627.701 212.374C627.701 212.514 627.697 212.635 627.687 212.738H621.947C621.966 213.391 622.199 213.937 622.647 214.376C623.105 214.815 623.679 215.034 624.369 215.034C625.349 215.034 626.077 214.628 626.553 213.816L627.505 214.474C626.824 215.585 625.774 216.14 624.355 216.14ZM622.031 211.758H626.469C626.376 211.198 626.129 210.755 625.727 210.428C625.335 210.092 624.869 209.924 624.327 209.924C623.777 209.924 623.282 210.092 622.843 210.428C622.414 210.755 622.143 211.198 622.031 211.758ZM631.664 216.14C631.02 216.14 630.455 216.005 629.97 215.734C629.485 215.454 629.135 215.048 628.92 214.516L629.9 213.97C630.031 214.315 630.259 214.586 630.586 214.782C630.913 214.978 631.277 215.076 631.678 215.076C632.023 215.076 632.313 214.992 632.546 214.824C632.779 214.656 632.896 214.427 632.896 214.138C632.896 213.886 632.803 213.676 632.616 213.508C632.439 213.34 632.126 213.186 631.678 213.046L630.978 212.822C629.811 212.486 629.228 211.805 629.228 210.778C629.228 210.199 629.457 209.737 629.914 209.392C630.381 209.037 630.955 208.86 631.636 208.86C632.7 208.86 633.47 209.266 633.946 210.078L633.05 210.694C632.667 210.162 632.182 209.896 631.594 209.896C631.277 209.896 631.001 209.975 630.768 210.134C630.544 210.283 630.432 210.484 630.432 210.736C630.432 210.969 630.502 211.17 630.642 211.338C630.791 211.497 631.053 211.632 631.426 211.744L632.196 211.982C633.465 212.374 634.1 213.06 634.1 214.04C634.1 214.693 633.871 215.207 633.414 215.58C632.966 215.953 632.383 216.14 631.664 216.14Z" fill="white"/>
<path fill-rule="evenodd" clip-rule="evenodd" d="M254.754 98.4566V105.305L270.738 95.1523L254.754 85V91.5234H219.375V98.4566H254.754Z" fill="url(#paint2_linear_1060_2853)"/>
<path fill-rule="evenodd" clip-rule="evenodd" d="M486.629 98.4566V105.305L502.613 95.1523L486.629 85V91.5234H451.25V98.4566H486.629Z" fill="url(#paint3_linear_1060_2853)"/>
<rect x="559.5" y="92.5" width="79" height="79" rx="39.5" fill="#1F1F1F"/>
<rect x="559.5" y="92.5" width="79" height="79" rx="39.5" stroke="#3D3D3D"/>
<g filter="url(#filter1_d_1060_2853)">
<rect x="575" y="108" width="48" height="48" rx="24" fill="#292929" shape-rendering="crispEdges"/>
<g clip-path="url(#clip0_1060_2853)">
<mask id="mask0_1060_2853" style="mask-type:luminance" maskUnits="userSpaceOnUse" x="508" y="120" width="103" height="24">
<path d="M611 120H508V144H611V120Z" fill="white"/>
</mask>
<g mask="url(#mask0_1060_2853)">
<path d="M609.097 125.643C610.002 126.672 610.403 127.952 610.691 129.243C612.168 135.889 608.24 142.279 601.696 143.71C594.544 145.273 588.469 140.193 587.556 133.829C587.152 131.212 587.615 128.533 588.873 126.213C588.989 125.996 589.064 125.736 589.333 125.639L592.71 125.695L591.559 128.173C591.559 128.258 591.559 128.342 591.559 128.427C592.39 130.882 593.941 132.9 595.412 134.964C595.571 135.841 595.453 136.764 595.837 137.602C596.91 138.834 597.982 140.068 599.054 141.302C599.133 141.393 599.228 141.451 599.326 141.316C599.816 141.011 599.96 140.452 600.23 139.996C600.846 138.966 601.514 137.963 602 136.857L602.15 136.616C602.752 136.378 603.131 135.83 603.664 135.496C603.842 135.396 603.987 135.246 604.082 135.063C604.177 134.88 604.216 134.673 604.196 134.467C604.165 133.433 604.185 132.39 604.183 131.36C604.425 131.117 604.652 130.861 604.864 130.592C605.383 129.851 606.2 129.345 606.505 128.44C606.558 128.447 606.613 128.438 606.662 128.413C606.71 128.388 606.75 128.349 606.777 128.301C606.992 127.969 606.761 127.691 606.667 127.399C606.487 126.836 606.143 126.33 606.107 125.718L609.097 125.643Z" fill="#287ABE"/>
<path d="M592.709 125.696L589.332 125.639C589.777 124.461 590.658 123.618 591.567 122.842C593.132 121.506 594.928 120.584 596.955 120.212C600.481 119.573 603.689 120.35 606.527 122.585C607.585 123.416 608.544 124.357 609.097 125.639L606.102 125.706L603.652 125.675V124.835L605.408 124.825L605.465 124.793L605.409 124.699C605.114 124.404 604.76 124.176 604.372 124.028C603.985 123.881 603.571 123.817 603.157 123.842C600.743 123.9 598.326 123.866 595.911 123.86C595.064 123.86 594.359 124.228 593.68 124.684C593.054 124.712 593.043 125.256 592.881 125.671L592.709 125.696Z" fill="#B8E1F2"/>
<path d="M591.559 128.424C591.559 128.339 591.559 128.255 591.559 128.17C592.97 127.743 594.266 127.034 595.595 126.411C596.016 126.213 596.595 126.23 596.82 125.681C597.629 125.716 598.454 125.543 599.247 125.789C599.254 127.728 599.26 129.671 599.267 131.619H599.142C597.591 130.944 596.051 130.244 594.487 129.606C593.516 129.214 592.627 128.588 591.559 128.424Z" fill="#B6E0F2"/>
<path d="M591.559 128.426C592.626 128.588 593.515 129.212 594.491 129.611C596.055 130.249 597.595 130.95 599.145 131.624C599.021 132.216 598.446 132.357 598.083 132.704C597.257 133.499 596.269 134.104 595.481 134.947C595.459 134.957 595.436 134.963 595.413 134.964C593.942 132.9 592.392 130.884 591.559 128.426Z" fill="#90D4F0"/>
<path d="M604.186 131.355C604.186 132.391 604.167 133.432 604.198 134.463C604.219 134.668 604.179 134.875 604.084 135.058C603.99 135.241 603.844 135.392 603.666 135.491C603.134 135.825 602.754 136.373 602.152 136.612C601.51 135.781 601.11 134.789 600.534 133.917C600.142 133.324 599.979 132.56 599.309 132.172C599.309 132.041 599.311 131.91 599.315 131.779L599.575 131.641C599.693 131.787 599.857 131.768 600.009 131.754C601.399 131.625 602.791 131.492 604.186 131.355Z" fill="#4D8AC8"/>
<path d="M595.834 137.605C595.45 136.766 595.561 135.844 595.41 134.966C595.434 134.965 595.457 134.959 595.478 134.949C596.704 135.002 597.929 135.034 599.146 135.226C599.146 136.195 599.143 137.165 599.139 138.134C598.893 138.124 598.649 138.097 598.407 138.054C597.546 137.918 596.716 137.608 595.834 137.605Z" fill="#B6E0F2"/>
<path d="M599.141 138.132C599.141 137.162 599.142 136.193 599.147 135.224C599.429 134.219 599.191 133.186 599.301 132.178C599.973 132.565 600.137 133.331 600.526 133.922C601.104 134.796 601.502 135.782 602.145 136.617L601.995 136.858L599.257 138.139C599.218 138.14 599.179 138.138 599.141 138.132Z" fill="#58AFDD"/>
<path d="M603.648 125.68L606.099 125.71C606.134 126.322 606.479 126.829 606.658 127.391C606.752 127.685 606.984 127.962 606.769 128.294C606.715 128.29 606.662 128.3 606.613 128.324C606.566 128.349 606.525 128.386 606.496 128.432C605.986 128.529 605.543 128.805 605.082 129.015C604.62 129.226 604.211 129.577 603.665 129.562C603.665 128.277 603.663 126.993 603.658 125.709L603.648 125.68Z" fill="#4D8AC8"/>
<path d="M603.662 129.563C604.206 129.579 604.615 129.226 605.079 129.017C605.543 128.807 605.983 128.53 606.493 128.434C606.187 129.34 605.372 129.845 604.853 130.585C604.641 130.855 604.413 131.111 604.172 131.354C602.779 131.488 601.386 131.621 599.993 131.754C599.84 131.768 599.676 131.787 599.559 131.64C600.521 131.188 601.49 130.75 602.442 130.275C602.864 130.067 603.353 129.969 603.662 129.563Z" fill="#266FA8"/>
<path d="M599.14 138.133C599.18 138.137 599.221 138.137 599.261 138.133C599.283 139.193 599.304 140.254 599.325 141.317C599.227 141.456 599.133 141.394 599.053 141.304C597.979 140.073 596.907 138.842 595.836 137.609C596.717 137.609 597.547 137.922 598.408 138.058C598.65 138.1 598.895 138.125 599.14 138.133Z" fill="#90D4F0"/>
<path d="M596.824 125.685C596.594 126.239 596.014 126.217 595.599 126.415C594.27 127.038 592.974 127.747 591.562 128.173L592.716 125.696L592.884 125.674L596.824 125.685Z" fill="#90D4F0"/>
<path d="M599.326 141.313C599.305 140.253 599.283 139.192 599.262 138.128L601.999 136.848C601.513 137.955 600.845 138.956 600.23 139.987C599.966 140.448 599.816 141.007 599.326 141.313Z" fill="#266FA8"/>
<path d="M606.5 128.436C606.529 128.39 606.569 128.353 606.617 128.328C606.666 128.304 606.719 128.293 606.773 128.298C606.746 128.346 606.706 128.385 606.657 128.409C606.609 128.434 606.554 128.443 606.5 128.436Z" fill="#266FA8"/>
<path d="M593.676 124.687C594.356 124.232 595.06 123.856 595.907 123.863C598.323 123.863 600.74 123.903 603.153 123.845C603.567 123.82 603.982 123.884 604.37 124.031C604.758 124.179 605.112 124.408 605.408 124.704C605.408 124.746 605.408 124.789 605.408 124.831L603.638 124.841H594.531C594.237 124.841 593.94 124.859 593.676 124.687Z" fill="#F4FAFD"/>
<path d="M593.679 124.688C593.943 124.859 594.24 124.84 594.534 124.84H603.641V125.68L603.653 125.711L599.254 125.795C598.453 125.55 597.635 125.722 596.827 125.687L592.879 125.678C593.044 125.259 593.053 124.715 593.679 124.688Z" fill="#E9F6FD"/>
<path d="M605.41 124.827C605.41 124.784 605.41 124.742 605.41 124.699L605.466 124.793L605.41 124.827Z" fill="#E9F6FD"/>
<path d="M599.254 125.793L603.661 125.711C603.661 126.996 603.663 128.28 603.667 129.564C603.358 129.97 602.871 130.068 602.453 130.278C601.5 130.752 600.532 131.19 599.57 131.643L599.31 131.781L599.273 131.625L599.254 125.793Z" fill="#68C1EA"/>
</g>
</g>
</g>
<rect x="559.5" y="18.5" width="79" height="79" rx="39.5" fill="#1F1F1F"/>
<rect x="559.5" y="18.5" width="79" height="79" rx="39.5" stroke="#3D3D3D"/>
<g filter="url(#filter2_d_1060_2853)">
<rect x="575" y="34" width="48" height="48" rx="24" fill="#292929" shape-rendering="crispEdges"/>
<path fill-rule="evenodd" clip-rule="evenodd" d="M607.045 50.6406L602.973 58.0469L607.045 65.4531L608.713 64.5625V51.5312L607.045 50.6406Z" fill="#E25444"/>
<path fill-rule="evenodd" clip-rule="evenodd" d="M607.045 50.6406L598.9 51.5312L594.754 58.0469L598.9 64.5625L607.045 65.4531V50.6406Z" fill="#7B1D13"/>
<path fill-rule="evenodd" clip-rule="evenodd" d="M590.61 50.6406L589.285 51.2031V64.8906L590.61 65.4531L598.902 58.0469L590.61 50.6406Z" fill="#58150D"/>
<path fill-rule="evenodd" clip-rule="evenodd" d="M590.594 50.625L598.915 52.8333V63.4583L590.594 65.4583V50.625Z" fill="#E25444"/>
<path fill-rule="evenodd" clip-rule="evenodd" d="M598.916 54L595.383 53.4583L598.916 49.625L602.44 53.4583L598.916 54Z" fill="#58150D"/>
<path fill-rule="evenodd" clip-rule="evenodd" d="M602.44 53.4583L598.912 54.0083L595.383 53.4583V49.625" fill="#58150D"/>
<path fill-rule="evenodd" clip-rule="evenodd" d="M598.916 62.043L595.383 62.668L598.916 65.9597L602.44 62.668L598.916 62.043Z" fill="#58150D"/>
<path fill-rule="evenodd" clip-rule="evenodd" d="M598.904 46.75L595.371 48.5312V53.4531L598.915 52.5L598.904 46.75Z" fill="#7B1D13"/>
<path fill-rule="evenodd" clip-rule="evenodd" d="M598.912 55.207L595.383 55.5737V60.488L598.912 60.8737V55.207Z" fill="#7B1D13"/>
<path fill-rule="evenodd" clip-rule="evenodd" d="M598.912 63.4996L595.383 62.6543V67.4854L598.912 69.2496V63.4996Z" fill="#7B1D13"/>
<path fill-rule="evenodd" clip-rule="evenodd" d="M602.443 62.6543L598.914 63.4998V69.2496L602.443 67.4854V62.6543Z" fill="#E25444"/>
<path fill-rule="evenodd" clip-rule="evenodd" d="M598.914 55.207L602.443 55.5737V60.488L598.914 60.8737V55.207Z" fill="#E25444"/>
<path fill-rule="evenodd" clip-rule="evenodd" d="M598.902 46.75L602.435 48.5312V53.4531L598.902 52.5156V46.75Z" fill="#E25444"/>
</g>
</g>
<defs>
<filter id="filter0_b_1060_2853" x="-44" y="-44" width="791" height="338" filterUnits="userSpaceOnUse" color-interpolation-filters="sRGB">
<feFlood flood-opacity="0" result="BackgroundImageFix"/>
<feGaussianBlur in="BackgroundImageFix" stdDeviation="22"/>
<feComposite in2="SourceAlpha" operator="in" result="effect1_backgroundBlur_1060_2853"/>
<feBlend mode="normal" in="SourceGraphic" in2="effect1_backgroundBlur_1060_2853" result="shape"/>
</filter>
<filter id="filter1_d_1060_2853" x="551" y="84" width="96" height="96" filterUnits="userSpaceOnUse" color-interpolation-filters="sRGB">
<feFlood flood-opacity="0" result="BackgroundImageFix"/>
<feColorMatrix in="SourceAlpha" type="matrix" values="0 0 0 0 0 0 0 0 0 0 0 0 0 0 0 0 0 0 127 0" result="hardAlpha"/>
<feOffset/>
<feGaussianBlur stdDeviation="12"/>
<feComposite in2="hardAlpha" operator="out"/>
<feColorMatrix type="matrix" values="0 0 0 0 0 0 0 0 0 0 0 0 0 0 0 0 0 0 0.5 0"/>
<feBlend mode="normal" in2="BackgroundImageFix" result="effect1_dropShadow_1060_2853"/>
<feBlend mode="normal" in="SourceGraphic" in2="effect1_dropShadow_1060_2853" result="shape"/>
</filter>
<filter id="filter2_d_1060_2853" x="551" y="10" width="96" height="96" filterUnits="userSpaceOnUse" color-interpolation-filters="sRGB">
<feFlood flood-opacity="0" result="BackgroundImageFix"/>
<feColorMatrix in="SourceAlpha" type="matrix" values="0 0 0 0 0 0 0 0 0 0 0 0 0 0 0 0 0 0 127 0" result="hardAlpha"/>
<feOffset/>
<feGaussianBlur stdDeviation="12"/>
<feComposite in2="hardAlpha" operator="out"/>
<feColorMatrix type="matrix" values="0 0 0 0 0 0 0 0 0 0 0 0 0 0 0 0 0 0 0.5 0"/>
<feBlend mode="normal" in2="BackgroundImageFix" result="effect1_dropShadow_1060_2853"/>
<feBlend mode="normal" in="SourceGraphic" in2="effect1_dropShadow_1060_2853" result="shape"/>
</filter>
<linearGradient id="paint0_linear_1060_2853" x1="0.834892" y1="2.55401e-05" x2="624.523" y2="380.129" gradientUnits="userSpaceOnUse">
<stop stop-color="#3D3D3D" stop-opacity="0.4"/>
<stop offset="1" stop-color="#292929" stop-opacity="0.1"/>
</linearGradient>
<linearGradient id="paint1_linear_1060_2853" x1="0" y1="0" x2="666.649" y2="324.646" gradientUnits="userSpaceOnUse">
<stop stop-color="#292929" stop-opacity="0.4"/>
<stop offset="1" stop-color="#3D3D3D" stop-opacity="0.15"/>
</linearGradient>
<linearGradient id="paint2_linear_1060_2853" x1="270.965" y1="94.9919" x2="219.375" y2="94.9919" gradientUnits="userSpaceOnUse">
<stop stop-color="#A3A3A3"/>
<stop offset="1" stop-color="#141414"/>
</linearGradient>
<linearGradient id="paint3_linear_1060_2853" x1="502.84" y1="94.9919" x2="451.25" y2="94.9919" gradientUnits="userSpaceOnUse">
<stop stop-color="#A3A3A3"/>
<stop offset="1" stop-color="#141414"/>
</linearGradient>
<clipPath id="clip0_1060_2853">
<rect width="24" height="24" fill="white" transform="translate(587 120)"/>
</clipPath>
</defs>
</svg>
