<svg width="703" height="250" viewBox="0 0 703 250" fill="none" xmlns="http://www.w3.org/2000/svg">
<g filter="url(#filter0_b_1060_3381)">
<rect width="703" height="250" rx="24" fill="url(#paint0_linear_1060_3381)" fill-opacity="0.4"/>
<rect x="0.5" y="0.5" width="702" height="249" rx="23.5" stroke="url(#paint1_linear_1060_3381)"/>
<rect x="93.5" y="196.5" width="76" height="29" rx="14.5" fill="#1F1F1F"/>
<rect x="93.5" y="196.5" width="76" height="29" rx="14.5" stroke="#3D3D3D"/>
<path d="M109.278 216.168C108.485 216.168 107.771 216 107.136 215.664C106.511 215.328 106.063 214.899 105.792 214.376L106.842 213.592C107.43 214.497 108.251 214.95 109.306 214.95C109.838 214.95 110.277 214.819 110.622 214.558C110.967 214.287 111.14 213.923 111.14 213.466C111.14 212.701 110.664 212.141 109.712 211.786L108.396 211.282C107.612 210.993 107.038 210.633 106.674 210.204C106.319 209.765 106.142 209.21 106.142 208.538C106.142 207.735 106.431 207.096 107.01 206.62C107.598 206.135 108.345 205.892 109.25 205.892C109.857 205.892 110.412 206.018 110.916 206.27C111.42 206.513 111.831 206.839 112.148 207.25L111.196 208.09C110.645 207.437 109.987 207.11 109.222 207.11C108.718 207.11 108.293 207.241 107.948 207.502C107.603 207.754 107.43 208.081 107.43 208.482C107.43 208.883 107.547 209.201 107.78 209.434C108.013 209.667 108.396 209.882 108.928 210.078L110.132 210.54C110.897 210.829 111.471 211.203 111.854 211.66C112.246 212.117 112.442 212.701 112.442 213.41C112.442 214.241 112.143 214.908 111.546 215.412C110.958 215.916 110.202 216.168 109.278 216.168ZM117.422 216.14C116.367 216.14 115.49 215.79 114.79 215.09C114.099 214.381 113.754 213.517 113.754 212.5C113.754 211.483 114.099 210.624 114.79 209.924C115.49 209.215 116.367 208.86 117.422 208.86C118.467 208.86 119.335 209.215 120.026 209.924C120.726 210.624 121.076 211.483 121.076 212.5C121.076 213.517 120.726 214.381 120.026 215.09C119.335 215.79 118.467 216.14 117.422 216.14ZM115.658 214.292C116.115 214.777 116.703 215.02 117.422 215.02C118.141 215.02 118.724 214.777 119.172 214.292C119.62 213.807 119.844 213.209 119.844 212.5C119.844 211.791 119.62 211.193 119.172 210.708C118.724 210.223 118.141 209.98 117.422 209.98C116.703 209.98 116.115 210.223 115.658 210.708C115.21 211.193 114.986 211.791 114.986 212.5C114.986 213.209 115.21 213.807 115.658 214.292ZM125.422 216.14C124.657 216.14 124.036 215.883 123.56 215.37C123.084 214.847 122.846 214.157 122.846 213.298V209H124.05V213.116C124.05 213.704 124.19 214.171 124.47 214.516C124.76 214.861 125.147 215.034 125.632 215.034C126.192 215.034 126.654 214.805 127.018 214.348C127.392 213.881 127.578 213.256 127.578 212.472V209H128.782V216H127.578V214.922C127.121 215.734 126.402 216.14 125.422 216.14ZM131.192 216V209H132.396V210.358C132.526 209.929 132.778 209.583 133.152 209.322C133.534 209.061 133.936 208.93 134.356 208.93C134.561 208.93 134.743 208.949 134.902 208.986V210.232C134.734 210.157 134.514 210.12 134.244 210.12C133.758 210.12 133.329 210.33 132.956 210.75C132.582 211.17 132.396 211.763 132.396 212.528V216H131.192ZM139.334 216.14C138.28 216.14 137.402 215.79 136.702 215.09C136.012 214.39 135.666 213.527 135.666 212.5C135.666 211.473 136.012 210.61 136.702 209.91C137.402 209.21 138.28 208.86 139.334 208.86C140.044 208.86 140.678 209.028 141.238 209.364C141.808 209.7 142.251 210.157 142.568 210.736L141.518 211.324C141.313 210.913 141.019 210.587 140.636 210.344C140.263 210.101 139.829 209.98 139.334 209.98C138.616 209.98 138.028 210.223 137.57 210.708C137.113 211.193 136.884 211.791 136.884 212.5C136.884 213.209 137.113 213.807 137.57 214.292C138.028 214.777 138.616 215.02 139.334 215.02C139.829 215.02 140.263 214.899 140.636 214.656C141.019 214.413 141.313 214.087 141.518 213.676L142.568 214.264C142.251 214.843 141.808 215.3 141.238 215.636C140.678 215.972 140.044 216.14 139.334 216.14ZM147.348 216.14C146.275 216.14 145.402 215.795 144.73 215.104C144.058 214.413 143.722 213.545 143.722 212.5C143.722 211.464 144.063 210.601 144.744 209.91C145.426 209.21 146.298 208.86 147.362 208.86C148.305 208.86 149.094 209.177 149.728 209.812C150.372 210.437 150.694 211.291 150.694 212.374C150.694 212.514 150.69 212.635 150.68 212.738H144.94C144.959 213.391 145.192 213.937 145.64 214.376C146.098 214.815 146.672 215.034 147.362 215.034C148.342 215.034 149.07 214.628 149.546 213.816L150.498 214.474C149.817 215.585 148.767 216.14 147.348 216.14ZM145.024 211.758H149.462C149.369 211.198 149.122 210.755 148.72 210.428C148.328 210.092 147.862 209.924 147.32 209.924C146.77 209.924 146.275 210.092 145.836 210.428C145.407 210.755 145.136 211.198 145.024 211.758ZM154.657 216.14C154.013 216.14 153.449 216.005 152.963 215.734C152.478 215.454 152.128 215.048 151.913 214.516L152.893 213.97C153.024 214.315 153.253 214.586 153.579 214.782C153.906 214.978 154.27 215.076 154.671 215.076C155.017 215.076 155.306 214.992 155.539 214.824C155.773 214.656 155.889 214.427 155.889 214.138C155.889 213.886 155.796 213.676 155.609 213.508C155.432 213.34 155.119 213.186 154.671 213.046L153.971 212.822C152.805 212.486 152.221 211.805 152.221 210.778C152.221 210.199 152.45 209.737 152.907 209.392C153.374 209.037 153.948 208.86 154.629 208.86C155.693 208.86 156.463 209.266 156.939 210.078L156.043 210.694C155.661 210.162 155.175 209.896 154.587 209.896C154.27 209.896 153.995 209.975 153.761 210.134C153.537 210.283 153.425 210.484 153.425 210.736C153.425 210.969 153.495 211.17 153.635 211.338C153.785 211.497 154.046 211.632 154.419 211.744L155.189 211.982C156.459 212.374 157.093 213.06 157.093 214.04C157.093 214.693 156.865 215.207 156.407 215.58C155.959 215.953 155.376 216.14 154.657 216.14Z" fill="white"/>
<rect x="545.5" y="196.5" width="107" height="29" rx="14.5" fill="#1F1F1F"/>
<rect x="545.5" y="196.5" width="107" height="29" rx="14.5" stroke="#3D3D3D"/>
<path d="M564.597 216V206.06H567.453C568.974 206.06 570.234 206.531 571.233 207.474C572.241 208.417 572.745 209.602 572.745 211.03C572.745 212.458 572.241 213.643 571.233 214.586C570.234 215.529 568.974 216 567.453 216H564.597ZM565.899 214.782H567.453C568.638 214.782 569.595 214.432 570.323 213.732C571.06 213.023 571.429 212.122 571.429 211.03C571.429 209.938 571.06 209.042 570.323 208.342C569.595 207.633 568.638 207.278 567.453 207.278H565.899V214.782ZM577.529 216.14C576.558 216.14 575.742 215.785 575.079 215.076C574.426 214.367 574.099 213.508 574.099 212.5C574.099 211.492 574.426 210.633 575.079 209.924C575.742 209.215 576.558 208.86 577.529 208.86C578.042 208.86 578.518 208.977 578.957 209.21C579.405 209.434 579.75 209.723 579.993 210.078V209H581.197V216H579.993V214.922C579.75 215.277 579.405 215.571 578.957 215.804C578.518 216.028 578.042 216.14 577.529 216.14ZM577.711 215.034C578.402 215.034 578.971 214.791 579.419 214.306C579.867 213.821 580.091 213.219 580.091 212.5C580.091 211.781 579.867 211.179 579.419 210.694C578.971 210.209 578.402 209.966 577.711 209.966C577.011 209.966 576.437 210.209 575.989 210.694C575.541 211.179 575.317 211.781 575.317 212.5C575.317 213.219 575.541 213.821 575.989 214.306C576.437 214.791 577.011 215.034 577.711 215.034ZM586.319 216.07C585.675 216.07 585.157 215.888 584.765 215.524C584.373 215.16 584.177 214.628 584.177 213.928V210.106H582.693V209H584.177V207.054H585.381V209H587.397V210.106H585.381V213.774C585.381 214.213 585.475 214.521 585.661 214.698C585.848 214.875 586.142 214.964 586.543 214.964C586.898 214.964 587.183 214.917 587.397 214.824V215.902C587.061 216.014 586.702 216.07 586.319 216.07ZM591.864 216.14C590.893 216.14 590.076 215.785 589.414 215.076C588.76 214.367 588.434 213.508 588.434 212.5C588.434 211.492 588.76 210.633 589.414 209.924C590.076 209.215 590.893 208.86 591.864 208.86C592.377 208.86 592.853 208.977 593.292 209.21C593.74 209.434 594.085 209.723 594.328 210.078V209H595.532V216H594.328V214.922C594.085 215.277 593.74 215.571 593.292 215.804C592.853 216.028 592.377 216.14 591.864 216.14ZM592.046 215.034C592.736 215.034 593.306 214.791 593.754 214.306C594.202 213.821 594.426 213.219 594.426 212.5C594.426 211.781 594.202 211.179 593.754 210.694C593.306 210.209 592.736 209.966 592.046 209.966C591.346 209.966 590.772 210.209 590.324 210.694C589.876 211.179 589.652 211.781 589.652 212.5C589.652 213.219 589.876 213.821 590.324 214.306C590.772 214.791 591.346 215.034 592.046 215.034ZM601.455 216V205.5H602.659V216H601.455ZM607.965 216.14C606.995 216.14 606.178 215.785 605.515 215.076C604.862 214.367 604.535 213.508 604.535 212.5C604.535 211.492 604.862 210.633 605.515 209.924C606.178 209.215 606.995 208.86 607.965 208.86C608.479 208.86 608.955 208.977 609.393 209.21C609.841 209.434 610.187 209.723 610.429 210.078V209H611.633V216H610.429V214.922C610.187 215.277 609.841 215.571 609.393 215.804C608.955 216.028 608.479 216.14 607.965 216.14ZM608.147 215.034C608.838 215.034 609.407 214.791 609.855 214.306C610.303 213.821 610.527 213.219 610.527 212.5C610.527 211.781 610.303 211.179 609.855 210.694C609.407 210.209 608.838 209.966 608.147 209.966C607.447 209.966 606.873 210.209 606.425 210.694C605.977 211.179 605.753 211.781 605.753 212.5C605.753 213.219 605.977 213.821 606.425 214.306C606.873 214.791 607.447 215.034 608.147 215.034ZM619.038 216L615.244 212.5V216H614.04V205.5H615.244V211.73L618.296 209H619.892L616.448 212.094L620.662 216H619.038ZM624.355 216.14C623.282 216.14 622.409 215.795 621.737 215.104C621.065 214.413 620.729 213.545 620.729 212.5C620.729 211.464 621.07 210.601 621.751 209.91C622.433 209.21 623.305 208.86 624.369 208.86C625.312 208.86 626.101 209.177 626.735 209.812C627.379 210.437 627.701 211.291 627.701 212.374C627.701 212.514 627.697 212.635 627.687 212.738H621.947C621.966 213.391 622.199 213.937 622.647 214.376C623.105 214.815 623.679 215.034 624.369 215.034C625.349 215.034 626.077 214.628 626.553 213.816L627.505 214.474C626.824 215.585 625.774 216.14 624.355 216.14ZM622.031 211.758H626.469C626.376 211.198 626.129 210.755 625.727 210.428C625.335 210.092 624.869 209.924 624.327 209.924C623.777 209.924 623.282 210.092 622.843 210.428C622.414 210.755 622.143 211.198 622.031 211.758ZM631.664 216.14C631.02 216.14 630.455 216.005 629.97 215.734C629.485 215.454 629.135 215.048 628.92 214.516L629.9 213.97C630.031 214.315 630.259 214.586 630.586 214.782C630.913 214.978 631.277 215.076 631.678 215.076C632.023 215.076 632.313 214.992 632.546 214.824C632.779 214.656 632.896 214.427 632.896 214.138C632.896 213.886 632.803 213.676 632.616 213.508C632.439 213.34 632.126 213.186 631.678 213.046L630.978 212.822C629.811 212.486 629.228 211.805 629.228 210.778C629.228 210.199 629.457 209.737 629.914 209.392C630.381 209.037 630.955 208.86 631.636 208.86C632.7 208.86 633.47 209.266 633.946 210.078L633.05 210.694C632.667 210.162 632.182 209.896 631.594 209.896C631.277 209.896 631.001 209.975 630.768 210.134C630.544 210.283 630.432 210.484 630.432 210.736C630.432 210.969 630.502 211.17 630.642 211.338C630.791 211.497 631.053 211.632 631.426 211.744L632.196 211.982C633.465 212.374 634.1 213.06 634.1 214.04C634.1 214.693 633.871 215.207 633.414 215.58C632.966 215.953 632.383 216.14 631.664 216.14Z" fill="white"/>
<rect x="64.5" y="98.5" width="79" height="79" rx="39.5" fill="#1F1F1F"/>
<rect x="64.5" y="98.5" width="79" height="79" rx="39.5" stroke="#3D3D3D"/>
<g filter="url(#filter1_d_1060_3381)">
<rect x="80" y="114" width="48" height="48" rx="24" fill="#292929" shape-rendering="crispEdges"/>
<g clip-path="url(#clip0_1060_3381)">
<path fill-rule="evenodd" clip-rule="evenodd" d="M114.107 144.695C112.801 144.659 111.789 144.793 110.94 145.15C110.696 145.248 110.303 145.248 110.271 145.555C110.402 145.684 110.418 145.896 110.532 146.075C110.728 146.399 111.071 146.837 111.381 147.063L112.425 147.81C113.062 148.199 113.78 148.426 114.4 148.816C114.759 149.043 115.118 149.335 115.477 149.578C115.66 149.708 115.771 149.919 116 150V149.951C115.886 149.806 115.853 149.595 115.739 149.432L115.249 148.962C114.776 148.329 114.188 147.777 113.551 147.323C113.029 146.966 111.887 146.48 111.675 145.88L111.642 145.844C112.001 145.807 112.425 145.681 112.768 145.584C113.324 145.438 113.829 145.47 114.4 145.325L115.184 145.097V144.952C114.89 144.66 114.678 144.271 114.368 143.995C113.536 143.281 112.621 142.584 111.675 142C111.169 141.675 110.516 141.464 109.977 141.189C109.781 141.091 109.455 141.043 109.341 140.881C109.046 140.524 108.883 140.053 108.671 139.631L107.333 136.809C107.039 136.176 106.859 135.544 106.501 134.96C104.819 132.202 102.991 130.532 100.183 128.893C99.5796 128.552 98.8614 128.406 98.0979 128.228L96.8738 128.162C96.6122 128.049 96.3514 127.74 96.1227 127.594C95.1924 127.01 92.7929 125.745 92.1069 127.412C91.6661 128.467 92.7599 129.505 93.1313 130.04C93.4093 130.413 93.7678 130.835 93.9643 131.257C94.074 131.532 94.1106 131.825 94.2251 132.117C94.486 132.83 94.7311 133.626 95.0739 134.291C95.2568 134.632 95.4489 134.989 95.6775 135.297C95.8081 135.479 96.0368 135.556 96.0854 135.848C95.8568 136.173 95.8411 136.659 95.7104 137.065C95.1225 138.898 95.3512 141.169 96.1835 142.519C96.4451 142.924 97.0615 143.817 97.8978 143.476C98.6324 143.184 98.4685 142.259 98.6807 141.448C98.7301 141.254 98.6972 141.124 98.7948 140.994V141.03L99.4643 142.376C99.9703 143.171 100.852 143.999 101.586 144.55C101.978 144.842 102.288 145.346 102.777 145.524V145.475H102.745C102.647 145.329 102.5 145.264 102.369 145.15C102.076 144.858 101.749 144.501 101.521 144.177C100.835 143.269 100.232 142.263 99.693 141.225C99.4314 140.722 99.2028 140.171 98.9913 139.668C98.8925 139.473 98.8925 139.181 98.7297 139.084C98.4846 139.44 98.1261 139.749 97.9457 140.187C97.6355 140.884 97.6033 141.744 97.4892 142.636C97.4233 142.653 97.4526 142.636 97.4233 142.673C96.9016 142.543 96.7216 142.007 96.5259 141.554C96.0364 140.402 95.9545 138.553 96.3788 137.222C96.493 136.882 96.9832 135.811 96.7875 135.487C96.6887 135.178 96.3631 135 96.1831 134.757C95.9709 134.448 95.743 134.059 95.5959 133.719C95.2045 132.81 95.0088 131.804 94.584 130.896C94.3876 130.474 94.0451 130.036 93.7675 129.647C93.4572 129.209 93.1152 128.901 92.8701 128.382C92.7885 128.2 92.6743 127.911 92.8049 127.716C92.8371 127.587 92.903 127.535 93.0329 127.506C93.2451 127.324 93.8494 127.554 94.0616 127.651C94.6652 127.895 95.1712 128.121 95.6772 128.462C95.9058 128.624 96.1509 128.932 96.4447 129.014H96.7878C97.3103 129.127 97.8974 129.05 98.3866 129.195C99.2518 129.472 100.035 129.877 100.737 130.315C102.875 131.661 104.639 133.576 105.83 135.863C106.026 136.236 106.107 136.577 106.287 136.966C106.63 137.762 107.055 138.572 107.397 139.351C107.74 140.114 108.066 140.893 108.556 141.526C108.801 141.866 109.78 142.044 110.22 142.223C110.547 142.368 111.053 142.499 111.347 142.677C111.902 143.018 112.457 143.407 112.979 143.78C113.24 143.975 114.056 144.38 114.105 144.704L114.107 144.695ZM97.461 130.599C97.2355 130.597 97.0107 130.624 96.7922 130.68V130.716H96.8244C96.955 130.976 97.1837 131.154 97.3468 131.382L97.7226 132.16L97.7548 132.124C97.9834 131.962 98.0979 131.702 98.0979 131.313C97.9999 131.2 97.9838 131.086 97.9022 130.973C97.8041 130.81 97.592 130.729 97.461 130.6V130.599Z" fill="#00678C"/>
</g>
</g>
<rect x="64.5" y="24.5" width="79" height="79" rx="39.5" fill="#1F1F1F"/>
<rect x="64.5" y="24.5" width="79" height="79" rx="39.5" stroke="#3D3D3D"/>
<g filter="url(#filter2_d_1060_3381)">
<rect x="80" y="40" width="48" height="48" rx="24" fill="#292929" shape-rendering="crispEdges"/>
<path d="M113.32 65.9759C113.203 65.6237 112.899 65.3784 112.505 65.3196C112.319 65.2919 112.106 65.3037 111.855 65.3556C111.416 65.4461 111.09 65.4806 110.853 65.4872C111.749 63.9732 112.479 62.2467 112.898 60.6215C113.577 57.9935 113.214 56.7963 112.791 56.2548C111.669 54.8215 110.032 54.0515 108.058 54.0279C107.005 54.015 106.08 54.223 105.598 54.3725C105.149 54.2933 104.666 54.2491 104.159 54.2409C103.209 54.2257 102.37 54.4328 101.653 54.8583C101.256 54.7241 100.619 54.5348 99.8832 54.4141C98.1527 54.13 96.758 54.3513 95.7379 55.072C94.5026 55.9446 93.9299 57.4606 94.0358 59.5781C94.0695 60.2503 94.4455 62.2958 95.0377 64.2356C95.378 65.3506 95.7408 66.2766 96.1162 66.9879C96.6486 67.9966 97.2182 68.5906 97.8577 68.804C98.2161 68.9234 98.8673 69.007 99.5522 68.4366C99.639 68.5417 99.7549 68.6462 99.9086 68.7432C100.104 68.8663 100.343 68.9669 100.581 69.0266C101.44 69.2413 102.245 69.1876 102.931 68.8866C102.936 69.0087 102.939 69.1253 102.942 69.2261C102.946 69.3895 102.951 69.5497 102.957 69.6996C102.997 70.7128 103.066 71.5006 103.271 72.0518C103.282 72.0821 103.297 72.1283 103.313 72.1773C103.415 72.4893 103.585 73.0116 104.019 73.4206C104.467 73.8443 105.01 73.9742 105.508 73.9742C105.757 73.9742 105.995 73.9415 106.204 73.8968C106.948 73.7373 107.793 73.4944 108.404 72.6241C108.982 71.8014 109.263 70.5622 109.313 68.6097C109.32 68.5545 109.326 68.5018 109.332 68.4516L109.344 68.3484L109.48 68.3603L109.515 68.3627C110.273 68.3972 111.199 68.2366 111.768 67.9722C112.218 67.7636 113.659 67.0029 113.32 65.9759Z" fill="black"/>
<path d="M112.023 66.1761C109.77 66.6409 109.615 65.8781 109.615 65.8781C111.994 62.3483 112.988 57.8678 112.13 56.7712C109.789 53.7799 105.736 55.1946 105.668 55.2312L105.647 55.2352C105.202 55.1428 104.703 55.0878 104.144 55.0786C103.124 55.0619 102.351 55.3459 101.764 55.7909C101.764 55.7909 94.5345 52.8125 94.8708 59.5366C94.9423 60.9671 96.9211 70.3603 99.2812 67.5231C100.144 66.4856 100.977 65.6084 100.977 65.6084C101.391 65.8834 101.887 66.0237 102.407 65.9734L102.447 65.9391C102.434 66.0679 102.44 66.1939 102.463 66.3431C101.855 67.0224 102.034 67.1416 100.818 67.3919C99.5883 67.6453 100.311 68.0965 100.783 68.2146C101.354 68.3575 102.677 68.5601 103.571 67.3087L103.536 67.4515C103.774 67.6423 103.941 68.6926 103.913 69.6448C103.885 70.5969 103.867 71.2506 104.054 71.7612C104.242 72.2719 104.429 73.4207 106.027 73.0784C107.362 72.7922 108.054 72.0508 108.15 70.814C108.218 69.9347 108.373 70.0647 108.383 69.2786L108.507 68.9065C108.65 67.7146 108.529 67.33 109.352 67.5089L109.552 67.5265C110.157 67.554 110.95 67.4291 111.415 67.2129C112.416 66.7482 113.01 65.9722 112.023 66.1761H112.023Z" fill="#336791"/>
<path d="M102.187 60.1752C101.984 60.147 101.8 60.1731 101.707 60.2436C101.655 60.2832 101.639 60.3291 101.634 60.3607C101.623 60.4444 101.681 60.537 101.717 60.5847C101.819 60.7199 101.968 60.8127 102.116 60.8332C102.137 60.8362 102.158 60.8376 102.179 60.8376C102.425 60.8376 102.649 60.6461 102.669 60.5049C102.693 60.3279 102.436 60.2099 102.187 60.1752ZM108.913 60.1808C108.894 60.0421 108.647 60.0026 108.413 60.0352C108.179 60.0677 107.952 60.1733 107.971 60.3124C107.986 60.4205 108.181 60.605 108.412 60.605C108.432 60.605 108.452 60.6037 108.471 60.6009C108.626 60.5795 108.739 60.4816 108.793 60.4252C108.874 60.3391 108.922 60.2432 108.913 60.1808Z" fill="white"/>
<path d="M112.775 66.1226C112.689 65.8628 112.412 65.7793 111.953 65.8741C110.589 66.1556 110.1 65.9606 109.94 65.8425C111 64.2274 111.872 62.275 112.343 60.4534C112.566 59.5905 112.689 58.7891 112.699 58.1359C112.71 57.419 112.588 56.8922 112.336 56.5704C111.321 55.2731 109.831 54.5772 108.027 54.5581C106.787 54.5441 105.739 54.8615 105.536 54.9507C105.108 54.8444 104.642 54.779 104.134 54.7707C103.203 54.7556 102.399 54.9785 101.733 55.4328C101.443 55.3251 100.695 55.0684 99.7806 54.921C98.1994 54.6665 96.9429 54.8594 96.0462 55.4946C94.9763 56.2526 94.4824 57.6076 94.5781 59.5218C94.6103 60.1659 94.9772 62.1471 95.5563 64.0444C96.3186 66.5417 97.1472 67.9554 98.019 68.2462C98.1211 68.2803 98.2387 68.304 98.3685 68.304C98.6865 68.304 99.0765 68.1607 99.4821 67.673C99.977 67.0794 100.489 66.5002 101.017 65.9362C101.36 66.1201 101.736 66.2228 102.121 66.2331C102.122 66.2432 102.123 66.2533 102.124 66.2633C102.058 66.3423 101.993 66.4225 101.929 66.5038C101.663 66.8425 101.607 66.9131 100.748 67.0899C100.504 67.1403 99.855 67.274 99.8454 67.7289C99.8351 68.2259 100.612 68.4346 100.701 68.4567C101.01 68.534 101.307 68.5721 101.591 68.5721C102.28 68.5721 102.887 68.3454 103.372 67.9068C103.357 69.6785 103.431 71.4243 103.644 71.9562C103.818 72.3916 104.244 73.4558 105.588 73.4557C105.785 73.4557 106.002 73.4328 106.241 73.3815C107.644 73.0808 108.254 72.4606 108.489 71.0934C108.615 70.3628 108.832 68.618 108.934 67.6821C109.149 67.7491 109.425 67.7798 109.724 67.7797C110.348 67.7797 111.067 67.6472 111.519 67.4378C112.026 67.2023 112.941 66.6246 112.775 66.1226ZM109.433 59.7984C109.429 60.0747 109.391 60.3255 109.35 60.5873C109.307 60.8689 109.262 61.16 109.251 61.5134C109.24 61.8574 109.283 62.215 109.324 62.5608C109.408 63.2593 109.494 63.9784 109.161 64.6879C109.105 64.5898 109.056 64.4883 109.013 64.3842C108.972 64.2837 108.882 64.1224 108.757 63.899C108.272 63.0297 107.137 60.9937 107.718 60.163C107.891 59.9157 108.331 59.6615 109.433 59.7984ZM108.097 55.1175C109.713 55.1532 110.991 55.7578 111.896 56.9145C112.591 57.8017 111.826 61.8386 109.613 65.3212C109.591 65.2929 109.569 65.2647 109.546 65.2366L109.518 65.2016C110.09 64.2572 109.978 63.3227 109.879 62.4942C109.838 62.1542 109.799 61.8331 109.809 61.5314C109.819 61.2117 109.861 60.9375 109.902 60.6723C109.952 60.3456 110.004 60.0075 109.989 59.6089C110 59.5671 110.004 59.5177 109.999 59.459C109.963 59.0768 109.526 57.933 108.637 56.8977C108.15 56.3314 107.441 55.6977 106.472 55.2703C106.889 55.1839 107.459 55.1034 108.097 55.1175ZM99.0528 67.316C98.6059 67.8534 98.2972 67.7504 98.1957 67.7166C97.5343 67.496 96.7669 66.0981 96.0903 63.8815C95.5049 61.9634 95.1628 60.0347 95.1356 59.4939C95.0502 57.7834 95.4648 56.5914 96.3681 55.9508C97.8381 54.9084 100.255 55.5323 101.226 55.8487C101.212 55.8625 101.198 55.8754 101.184 55.8894C99.5901 57.4988 99.6279 60.2485 99.6318 60.4166C99.6317 60.4815 99.6371 60.5733 99.6446 60.6996C99.672 61.1621 99.7231 62.0228 99.5867 62.9976C99.46 63.9034 99.7393 64.79 100.353 65.4301C100.416 65.4957 100.482 65.5581 100.551 65.6171C100.278 65.9095 99.6845 66.5562 99.0528 67.316ZM100.756 65.0438C100.261 64.5279 100.037 63.8103 100.14 63.0749C100.284 62.0452 100.23 61.1484 100.202 60.6665C100.198 60.5991 100.194 60.54 100.192 60.4934C100.425 60.287 101.504 59.709 102.273 59.8853C102.624 59.9656 102.838 60.2047 102.927 60.6159C103.388 62.745 102.988 63.6323 102.667 64.3454C102.601 64.4923 102.539 64.6312 102.485 64.7748L102.444 64.8859C102.339 65.1666 102.242 65.4277 102.181 65.6756C101.656 65.674 101.145 65.4495 100.756 65.0437V65.0438ZM100.836 67.915C100.683 67.8767 100.545 67.8101 100.464 67.7549C100.532 67.7231 100.652 67.6797 100.861 67.6367C101.871 67.4287 102.027 67.2819 102.368 66.8493C102.446 66.75 102.535 66.6376 102.657 66.5006L102.657 66.5005C102.84 66.2959 102.924 66.3306 103.075 66.3935C103.198 66.4443 103.318 66.5982 103.366 66.7676C103.389 66.8476 103.415 66.9994 103.33 67.1176C102.619 68.1143 101.581 68.1015 100.836 67.915ZM106.124 72.8356C104.888 73.1005 104.451 72.4698 104.162 71.7488C103.976 71.2834 103.884 69.1844 103.949 66.8665C103.95 66.8356 103.946 66.8059 103.937 66.7778C103.93 66.7225 103.918 66.6677 103.903 66.614C103.806 66.2768 103.571 65.9947 103.289 65.8777C103.177 65.8312 102.971 65.746 102.724 65.8093C102.776 65.592 102.868 65.3466 102.967 65.0809L103.009 64.9692C103.055 64.8432 103.114 64.7127 103.176 64.5745C103.512 63.8284 103.972 62.8065 103.473 60.498C103.286 59.6333 102.662 59.211 101.715 59.3091C101.148 59.3678 100.629 59.5968 100.37 59.7281C100.314 59.7562 100.263 59.7835 100.215 59.81C100.288 58.9388 100.561 57.3106 101.582 56.2805C102.225 55.632 103.082 55.3117 104.125 55.329C106.181 55.3626 107.5 56.4178 108.244 57.2971C108.885 58.0547 109.232 58.818 109.371 59.2297C108.329 59.1237 107.62 59.3293 107.261 59.843C106.479 60.9603 107.688 63.1287 108.269 64.1709C108.376 64.3619 108.468 64.527 108.497 64.5972C108.686 65.0558 108.931 65.362 109.11 65.5855C109.165 65.654 109.218 65.7204 109.259 65.7784C108.943 65.8694 108.376 66.0797 108.428 67.1305C108.386 67.6578 108.09 70.1264 107.939 70.9986C107.74 72.1509 107.316 72.58 106.124 72.8357V72.8356ZM111.284 66.9314C110.961 67.0812 110.421 67.1935 109.908 67.2177C109.341 67.2442 109.053 67.1542 108.985 67.0988C108.953 66.444 109.197 66.3756 109.455 66.3031C109.495 66.2918 109.535 66.2806 109.573 66.2673C109.597 66.2866 109.623 66.3058 109.651 66.3246C110.107 66.6252 110.919 66.6576 112.066 66.4209L112.078 66.4184C111.924 66.563 111.659 66.7571 111.284 66.9314Z" fill="white"/>
</g>
<rect x="118.5" y="61.5" width="79" height="79" rx="39.5" fill="#1F1F1F"/>
<rect x="118.5" y="61.5" width="79" height="79" rx="39.5" stroke="#3D3D3D"/>
<g clip-path="url(#clip1_1060_3381)" filter="url(#filter3_d_1060_3381)">
<path d="M158 125C171.255 125 182 114.255 182 101C182 87.7452 171.255 77 158 77C144.745 77 134 87.7452 134 101C134 114.255 144.745 125 158 125Z" fill="#13AA52"/>
<path d="M164.414 98.0675C162.898 91.377 159.316 89.1772 158.93 88.3367C158.508 87.7438 158.08 86.6891 158.08 86.6891C158.073 86.6712 158.062 86.6398 158.049 86.6094C158.005 87.2023 157.983 87.4311 157.422 88.0292C156.554 88.708 152.1 92.4453 151.738 100.047C151.4 107.136 156.859 111.36 157.597 111.899L157.681 111.958V111.953C157.686 111.989 157.915 113.641 158.077 115.391H158.655C158.791 114.154 158.994 112.925 159.264 111.71L159.311 111.68C159.642 111.443 159.956 111.185 160.254 110.908L160.288 110.878C161.857 109.428 164.678 106.075 164.651 100.728C164.645 99.8363 164.566 98.9464 164.414 98.0675ZM158.015 107.896C158.015 107.896 158.015 97.9531 158.343 97.955C158.599 97.955 158.931 110.78 158.931 110.78C158.475 110.726 158.015 108.67 158.015 107.896Z" fill="white"/>
</g>
<path fill-rule="evenodd" clip-rule="evenodd" d="M271.988 104.908V113L285.988 101L271.988 89V96.7129H241V104.908H271.988Z" fill="url(#paint2_linear_1060_3381)"/>
<rect x="329.488" y="47.5" width="99" height="107" rx="7.5" fill="#1E1E1E"/>
<rect x="329.488" y="47.5" width="99" height="107" rx="7.5" stroke="#3D3D3D"/>
<path d="M346.416 64.06L351.82 75.54H350.686L345.282 64.06H346.416ZM358.089 74L355.961 71.354L353.833 74H352.335L355.205 70.458L352.573 67H354.029L355.961 69.534L357.879 67H359.349L356.703 70.458L359.573 74H358.089ZM361.845 74V65.25H359.927L360.907 64.06H363.049V74H361.845ZM370.78 73.188C370.145 73.8227 369.347 74.14 368.386 74.14C367.425 74.14 366.622 73.8227 365.978 73.188C365.334 72.5533 365.012 71.7787 365.012 70.864C365.012 70.3787 365.105 69.9447 365.292 69.562C365.488 69.17 365.768 68.7593 366.132 68.33L369.758 64.06H371.284L368.246 67.658C368.414 67.6393 368.545 67.63 368.638 67.63C369.469 67.63 370.192 67.9473 370.808 68.582C371.433 69.2167 371.746 69.968 371.746 70.836C371.746 71.76 371.424 72.544 370.78 73.188ZM368.386 72.978C368.983 72.978 369.487 72.768 369.898 72.348C370.309 71.928 370.514 71.424 370.514 70.836C370.514 70.248 370.309 69.744 369.898 69.324C369.487 68.904 368.983 68.694 368.386 68.694C367.779 68.694 367.271 68.904 366.86 69.324C366.449 69.7347 366.244 70.2387 366.244 70.836C366.244 71.4333 366.449 71.942 366.86 72.362C367.271 72.7727 367.779 72.978 368.386 72.978ZM373.896 64.06L379.3 75.54H378.166L372.762 64.06H373.896ZM385.569 74L383.441 71.354L381.313 74H379.815L382.685 70.458L380.053 67H381.509L383.441 69.534L385.359 67H386.829L384.183 70.458L387.053 74H385.569ZM391.649 74.14C390.613 74.14 389.768 73.7947 389.115 73.104C388.462 72.404 388.135 71.5033 388.135 70.402V67.63C388.135 66.5287 388.462 65.6327 389.115 64.942C389.778 64.242 390.622 63.892 391.649 63.892C392.676 63.892 393.52 64.242 394.183 64.942C394.846 65.642 395.177 66.538 395.177 67.63V70.402C395.177 71.5033 394.846 72.404 394.183 73.104C393.52 73.7947 392.676 74.14 391.649 74.14ZM391.649 72.964C392.34 72.964 392.9 72.7353 393.329 72.278C393.758 71.8207 393.973 71.1953 393.973 70.402V67.63C393.973 66.8367 393.758 66.2113 393.329 65.754C392.9 65.2967 392.34 65.068 391.649 65.068C390.968 65.068 390.412 65.2967 389.983 65.754C389.554 66.2113 389.339 66.8367 389.339 67.63V70.402C389.339 71.1953 389.554 71.8207 389.983 72.278C390.412 72.7353 390.968 72.964 391.649 72.964ZM400.512 74.14C399.476 74.14 398.631 73.7947 397.978 73.104C397.324 72.404 396.998 71.5033 396.998 70.402V67.63C396.998 66.5287 397.324 65.6327 397.978 64.942C398.64 64.242 399.485 63.892 400.512 63.892C401.538 63.892 402.383 64.242 403.046 64.942C403.708 65.642 404.04 66.538 404.04 67.63V70.402C404.04 71.5033 403.708 72.404 403.046 73.104C402.383 73.7947 401.538 74.14 400.512 74.14ZM400.512 72.964C401.202 72.964 401.762 72.7353 402.192 72.278C402.621 71.8207 402.836 71.1953 402.836 70.402V67.63C402.836 66.8367 402.621 66.2113 402.192 65.754C401.762 65.2967 401.202 65.068 400.512 65.068C399.83 65.068 399.275 65.2967 398.846 65.754C398.416 66.2113 398.202 66.8367 398.202 67.63V70.402C398.202 71.1953 398.416 71.8207 398.846 72.278C399.275 72.7353 399.83 72.964 400.512 72.964ZM406.448 64.06L411.852 75.54H410.718L405.314 64.06H406.448ZM350.826 94L348.698 91.354L346.57 94H345.072L347.942 90.458L345.31 87H346.766L348.698 89.534L350.616 87H352.086L349.44 90.458L352.31 94H350.826ZM356.906 94.14C355.87 94.14 355.025 93.7947 354.372 93.104C353.719 92.404 353.392 91.5033 353.392 90.402V87.63C353.392 86.5287 353.719 85.6327 354.372 84.942C355.035 84.242 355.879 83.892 356.906 83.892C357.933 83.892 358.777 84.242 359.44 84.942C360.103 85.642 360.434 86.538 360.434 87.63V90.402C360.434 91.5033 360.103 92.404 359.44 93.104C358.777 93.7947 357.933 94.14 356.906 94.14ZM356.906 92.964C357.597 92.964 358.157 92.7353 358.586 92.278C359.015 91.8207 359.23 91.1953 359.23 90.402V87.63C359.23 86.8367 359.015 86.2113 358.586 85.754C358.157 85.2967 357.597 85.068 356.906 85.068C356.225 85.068 355.669 85.2967 355.24 85.754C354.811 86.2113 354.596 86.8367 354.596 87.63V90.402C354.596 91.1953 354.811 91.8207 355.24 92.278C355.669 92.7353 356.225 92.964 356.906 92.964ZM365.769 94.14C364.733 94.14 363.888 93.7947 363.235 93.104C362.581 92.404 362.255 91.5033 362.255 90.402V87.63C362.255 86.5287 362.581 85.6327 363.235 84.942C363.897 84.242 364.742 83.892 365.769 83.892C366.795 83.892 367.64 84.242 368.303 84.942C368.965 85.642 369.297 86.538 369.297 87.63V90.402C369.297 91.5033 368.965 92.404 368.303 93.104C367.64 93.7947 366.795 94.14 365.769 94.14ZM365.769 92.964C366.459 92.964 367.019 92.7353 367.449 92.278C367.878 91.8207 368.093 91.1953 368.093 90.402V87.63C368.093 86.8367 367.878 86.2113 367.449 85.754C367.019 85.2967 366.459 85.068 365.769 85.068C365.087 85.068 364.532 85.2967 364.103 85.754C363.673 86.2113 363.459 86.8367 363.459 87.63V90.402C363.459 91.1953 363.673 91.8207 364.103 92.278C364.532 92.7353 365.087 92.964 365.769 92.964ZM371.705 84.06L377.109 95.54H375.975L370.571 84.06H371.705ZM383.378 94L381.25 91.354L379.122 94H377.624L380.494 90.458L377.862 87H379.318L381.25 89.534L383.168 87H384.638L381.992 90.458L384.862 94H383.378ZM389.458 94.14C388.422 94.14 387.578 93.7947 386.924 93.104C386.271 92.404 385.944 91.5033 385.944 90.402V87.63C385.944 86.5287 386.271 85.6327 386.924 84.942C387.587 84.242 388.432 83.892 389.458 83.892C390.485 83.892 391.33 84.242 391.992 84.942C392.655 85.642 392.986 86.538 392.986 87.63V90.402C392.986 91.5033 392.655 92.404 391.992 93.104C391.33 93.7947 390.485 94.14 389.458 94.14ZM389.458 92.964C390.149 92.964 390.709 92.7353 391.138 92.278C391.568 91.8207 391.782 91.1953 391.782 90.402V87.63C391.782 86.8367 391.568 86.2113 391.138 85.754C390.709 85.2967 390.149 85.068 389.458 85.068C388.777 85.068 388.222 85.2967 387.792 85.754C387.363 86.2113 387.148 86.8367 387.148 87.63V90.402C387.148 91.1953 387.363 91.8207 387.792 92.278C388.222 92.7353 388.777 92.964 389.458 92.964ZM398.321 94.14C397.285 94.14 396.44 93.7947 395.787 93.104C395.134 92.404 394.807 91.5033 394.807 90.402V87.63C394.807 86.5287 395.134 85.6327 395.787 84.942C396.45 84.242 397.294 83.892 398.321 83.892C399.348 83.892 400.192 84.242 400.855 84.942C401.518 85.642 401.849 86.538 401.849 87.63V90.402C401.849 91.5033 401.518 92.404 400.855 93.104C400.192 93.7947 399.348 94.14 398.321 94.14ZM398.321 92.964C399.012 92.964 399.572 92.7353 400.001 92.278C400.43 91.8207 400.645 91.1953 400.645 90.402V87.63C400.645 86.8367 400.43 86.2113 400.001 85.754C399.572 85.2967 399.012 85.068 398.321 85.068C397.64 85.068 397.084 85.2967 396.655 85.754C396.226 86.2113 396.011 86.8367 396.011 87.63V90.402C396.011 91.1953 396.226 91.8207 396.655 92.278C397.084 92.7353 397.64 92.964 398.321 92.964ZM346.416 104.06L351.82 115.54H350.686L345.282 104.06H346.416ZM358.089 114L355.961 111.354L353.833 114H352.335L355.205 110.458L352.573 107H354.029L355.961 109.534L357.879 107H359.349L356.703 110.458L359.573 114H358.089ZM364.169 114.14C363.133 114.14 362.288 113.795 361.635 113.104C360.982 112.404 360.655 111.503 360.655 110.402V107.63C360.655 106.529 360.982 105.633 361.635 104.942C362.298 104.242 363.142 103.892 364.169 103.892C365.196 103.892 366.04 104.242 366.703 104.942C367.366 105.642 367.697 106.538 367.697 107.63V110.402C367.697 111.503 367.366 112.404 366.703 113.104C366.04 113.795 365.196 114.14 364.169 114.14ZM364.169 112.964C364.86 112.964 365.42 112.735 365.849 112.278C366.278 111.821 366.493 111.195 366.493 110.402V107.63C366.493 106.837 366.278 106.211 365.849 105.754C365.42 105.297 364.86 105.068 364.169 105.068C363.488 105.068 362.932 105.297 362.503 105.754C362.074 106.211 361.859 106.837 361.859 107.63V110.402C361.859 111.195 362.074 111.821 362.503 112.278C362.932 112.735 363.488 112.964 364.169 112.964ZM375.804 112.838V114H369.364V113.524C369.364 113.179 369.415 112.852 369.518 112.544C369.63 112.227 369.751 111.961 369.882 111.746C370.012 111.531 370.218 111.293 370.498 111.032C370.778 110.761 370.997 110.565 371.156 110.444C371.314 110.313 371.58 110.117 371.954 109.856C372.327 109.585 372.574 109.408 372.696 109.324C373.358 108.839 373.816 108.433 374.068 108.106C374.329 107.77 374.46 107.331 374.46 106.79C374.46 106.267 374.292 105.852 373.956 105.544C373.62 105.227 373.181 105.068 372.64 105.068C372.07 105.068 371.585 105.241 371.184 105.586C370.782 105.931 370.582 106.412 370.582 107.028H369.35C369.35 106.095 369.658 105.339 370.274 104.76C370.899 104.181 371.683 103.892 372.626 103.892C373.503 103.892 374.231 104.144 374.81 104.648C375.398 105.152 375.692 105.871 375.692 106.804C375.692 107.513 375.519 108.12 375.174 108.624C374.828 109.119 374.236 109.669 373.396 110.276C373.237 110.388 373.013 110.547 372.724 110.752C372.434 110.948 372.21 111.107 372.052 111.228C371.893 111.349 371.716 111.499 371.52 111.676C371.333 111.844 371.184 112.026 371.072 112.222C370.969 112.409 370.894 112.614 370.848 112.838H375.804ZM347.326 134H346.122V123.5H347.326V128.078C347.802 127.266 348.544 126.86 349.552 126.86C350.346 126.86 350.985 127.117 351.47 127.63C351.956 128.143 352.198 128.829 352.198 129.688V134H351.008V129.87C351.008 129.282 350.859 128.82 350.56 128.484C350.262 128.139 349.86 127.966 349.356 127.966C348.778 127.966 348.292 128.195 347.9 128.652C347.518 129.109 347.326 129.735 347.326 130.528V134ZM357.586 134.14C356.513 134.14 355.64 133.795 354.968 133.104C354.296 132.413 353.96 131.545 353.96 130.5C353.96 129.464 354.301 128.601 354.982 127.91C355.664 127.21 356.536 126.86 357.6 126.86C358.543 126.86 359.332 127.177 359.966 127.812C360.61 128.437 360.932 129.291 360.932 130.374C360.932 130.514 360.928 130.635 360.918 130.738H355.178C355.197 131.391 355.43 131.937 355.878 132.376C356.336 132.815 356.91 133.034 357.6 133.034C358.58 133.034 359.308 132.628 359.784 131.816L360.736 132.474C360.055 133.585 359.005 134.14 357.586 134.14ZM355.262 129.758H359.7C359.607 129.198 359.36 128.755 358.958 128.428C358.566 128.092 358.1 127.924 357.558 127.924C357.008 127.924 356.513 128.092 356.074 128.428C355.645 128.755 355.374 129.198 355.262 129.758ZM362.781 134V123.5H363.985V134H362.781ZM366.408 134V123.5H367.612V134H366.408ZM373.142 134.14C372.087 134.14 371.21 133.79 370.51 133.09C369.819 132.381 369.474 131.517 369.474 130.5C369.474 129.483 369.819 128.624 370.51 127.924C371.21 127.215 372.087 126.86 373.142 126.86C374.187 126.86 375.055 127.215 375.746 127.924C376.446 128.624 376.796 129.483 376.796 130.5C376.796 131.517 376.446 132.381 375.746 133.09C375.055 133.79 374.187 134.14 373.142 134.14ZM371.378 132.292C371.835 132.777 372.423 133.02 373.142 133.02C373.861 133.02 374.444 132.777 374.892 132.292C375.34 131.807 375.564 131.209 375.564 130.5C375.564 129.791 375.34 129.193 374.892 128.708C374.444 128.223 373.861 127.98 373.142 127.98C372.423 127.98 371.835 128.223 371.378 128.708C370.93 129.193 370.706 129.791 370.706 130.5C370.706 131.209 370.93 131.807 371.378 132.292ZM378.398 124.06L383.802 135.54H382.668L377.264 124.06H378.398ZM390.071 134L387.943 131.354L385.815 134H384.317L387.187 130.458L384.555 127H386.011L387.943 129.534L389.861 127H391.331L388.685 130.458L391.555 134H390.071ZM396.15 134.14C395.114 134.14 394.27 133.795 393.616 133.104C392.963 132.404 392.636 131.503 392.636 130.402V127.63C392.636 126.529 392.963 125.633 393.616 124.942C394.279 124.242 395.124 123.892 396.15 123.892C397.177 123.892 398.022 124.242 398.684 124.942C399.347 125.642 399.678 126.538 399.678 127.63V130.402C399.678 131.503 399.347 132.404 398.684 133.104C398.022 133.795 397.177 134.14 396.15 134.14ZM396.15 132.964C396.841 132.964 397.401 132.735 397.83 132.278C398.26 131.821 398.474 131.195 398.474 130.402V127.63C398.474 126.837 398.26 126.211 397.83 125.754C397.401 125.297 396.841 125.068 396.15 125.068C395.469 125.068 394.914 125.297 394.484 125.754C394.055 126.211 393.84 126.837 393.84 127.63V130.402C393.84 131.195 394.055 131.821 394.484 132.278C394.914 132.735 395.469 132.964 396.15 132.964ZM405.013 134.14C403.977 134.14 403.132 133.795 402.479 133.104C401.826 132.404 401.499 131.503 401.499 130.402V127.63C401.499 126.529 401.826 125.633 402.479 124.942C403.142 124.242 403.986 123.892 405.013 123.892C406.04 123.892 406.884 124.242 407.547 124.942C408.21 125.642 408.541 126.538 408.541 127.63V130.402C408.541 131.503 408.21 132.404 407.547 133.104C406.884 133.795 406.04 134.14 405.013 134.14ZM405.013 132.964C405.704 132.964 406.264 132.735 406.693 132.278C407.122 131.821 407.337 131.195 407.337 130.402V127.63C407.337 126.837 407.122 126.211 406.693 125.754C406.264 125.297 405.704 125.068 405.013 125.068C404.332 125.068 403.776 125.297 403.347 125.754C402.918 126.211 402.703 126.837 402.703 127.63V130.402C402.703 131.195 402.918 131.821 403.347 132.278C403.776 132.735 404.332 132.964 405.013 132.964Z" fill="white"/>
<path fill-rule="evenodd" clip-rule="evenodd" d="M502.977 104.908V113L516.976 101L502.977 89V96.7129H471.988V104.908H502.977Z" fill="url(#paint3_linear_1060_3381)"/>
<rect x="560.477" y="98.5" width="79" height="79" rx="39.5" fill="#1F1F1F"/>
<rect x="560.477" y="98.5" width="79" height="79" rx="39.5" stroke="#3D3D3D"/>
<g filter="url(#filter4_d_1060_3381)">
<rect x="575.977" y="114" width="48" height="48" rx="24" fill="#292929" shape-rendering="crispEdges"/>
<g clip-path="url(#clip2_1060_3381)">
<mask id="mask0_1060_3381" style="mask-type:luminance" maskUnits="userSpaceOnUse" x="508" y="126" width="104" height="24">
<path d="M611.977 126H508.977V150H611.977V126Z" fill="white"/>
</mask>
<g mask="url(#mask0_1060_3381)">
<path d="M610.073 131.643C610.979 132.672 611.38 133.952 611.667 135.243C613.144 141.889 609.217 148.279 602.673 149.71C595.521 151.273 589.445 146.193 588.533 139.829C588.129 137.212 588.592 134.533 589.849 132.213C589.965 131.996 590.041 131.736 590.31 131.639L593.687 131.695L592.535 134.173C592.535 134.258 592.535 134.342 592.535 134.427C593.367 136.882 594.917 138.9 596.389 140.964C596.547 141.841 596.43 142.764 596.814 143.602C597.887 144.834 598.959 146.068 600.031 147.302C600.11 147.393 600.205 147.451 600.303 147.316C600.793 147.011 600.936 146.452 601.207 145.996C601.822 144.966 602.491 143.963 602.977 142.857L603.126 142.616C603.728 142.378 604.108 141.83 604.64 141.496C604.818 141.396 604.964 141.246 605.058 141.063C605.153 140.88 605.193 140.673 605.172 140.467C605.141 139.433 605.161 138.39 605.16 137.36C605.401 137.117 605.629 136.861 605.841 136.592C606.36 135.851 607.176 135.345 607.481 134.44C607.535 134.447 607.59 134.438 607.638 134.413C607.687 134.388 607.727 134.349 607.753 134.301C607.969 133.969 607.737 133.691 607.643 133.399C607.464 132.836 607.119 132.33 607.084 131.718L610.073 131.643Z" fill="#287ABE"/>
<path d="M593.686 131.696L590.309 131.639C590.754 130.461 591.634 129.618 592.544 128.842C594.109 127.506 595.905 126.584 597.932 126.212C601.458 125.573 604.665 126.35 607.504 128.585C608.561 129.416 609.521 130.357 610.074 131.639L607.079 131.706L604.628 131.675V130.835L606.384 130.825L606.441 130.793L606.386 130.699C606.09 130.404 605.737 130.176 605.349 130.028C604.961 129.881 604.547 129.817 604.134 129.842C601.719 129.9 599.303 129.866 596.888 129.86C596.041 129.86 595.336 130.228 594.657 130.684C594.03 130.712 594.019 131.256 593.857 131.671L593.686 131.696Z" fill="#B8E1F2"/>
<path d="M592.535 134.424C592.535 134.339 592.535 134.255 592.535 134.17C593.947 133.743 595.243 133.034 596.571 132.411C596.992 132.213 597.572 132.23 597.797 131.681C598.605 131.716 599.43 131.543 600.224 131.789C600.23 133.728 600.237 135.671 600.243 137.619H600.118C598.567 136.944 597.028 136.244 595.463 135.606C594.493 135.214 593.604 134.588 592.535 134.424Z" fill="#B6E0F2"/>
<path d="M592.535 134.426C593.602 134.588 594.491 135.212 595.467 135.611C597.032 136.249 598.571 136.95 600.122 137.624C599.998 138.216 599.422 138.357 599.06 138.704C598.234 139.499 597.246 140.104 596.457 140.947C596.436 140.957 596.413 140.963 596.389 140.964C594.919 138.9 593.368 136.884 592.535 134.426Z" fill="#90D4F0"/>
<path d="M605.162 137.355C605.162 138.391 605.144 139.432 605.175 140.463C605.195 140.668 605.156 140.875 605.061 141.058C604.966 141.241 604.821 141.392 604.643 141.491C604.11 141.825 603.731 142.373 603.129 142.612C602.486 141.781 602.086 140.789 601.51 139.917C601.118 139.324 600.956 138.56 600.285 138.172C600.285 138.041 600.287 137.91 600.292 137.779L600.552 137.641C600.669 137.787 600.834 137.768 600.986 137.754C602.376 137.625 603.768 137.492 605.162 137.355Z" fill="#4D8AC8"/>
<path d="M596.81 143.605C596.426 142.766 596.538 141.844 596.387 140.966C596.411 140.965 596.434 140.959 596.455 140.949C597.68 141.002 598.905 141.034 600.122 141.226C600.122 142.195 600.12 143.165 600.115 144.134C599.87 144.124 599.625 144.097 599.383 144.054C598.523 143.918 597.693 143.608 596.81 143.605Z" fill="#B6E0F2"/>
<path d="M600.117 144.132C600.117 143.162 600.119 142.193 600.124 141.224C600.405 140.219 600.167 139.186 600.278 138.178C600.95 138.565 601.114 139.331 601.503 139.922C602.08 140.796 602.479 141.782 603.122 142.617L602.972 142.858L600.234 144.139C600.195 144.14 600.156 144.138 600.117 144.132Z" fill="#58AFDD"/>
<path d="M604.625 131.68L607.075 131.71C607.111 132.322 607.455 132.829 607.635 133.391C607.729 133.685 607.96 133.962 607.745 134.294C607.692 134.29 607.638 134.3 607.59 134.324C607.542 134.349 607.502 134.386 607.473 134.432C606.962 134.529 606.52 134.805 606.058 135.015C605.597 135.226 605.187 135.577 604.641 135.562C604.641 134.277 604.639 132.993 604.635 131.709L604.625 131.68Z" fill="#4D8AC8"/>
<path d="M604.638 135.563C605.183 135.579 605.591 135.226 606.055 135.017C606.52 134.807 606.959 134.53 607.47 134.434C607.163 135.34 606.348 135.845 605.83 136.585C605.617 136.855 605.39 137.111 605.149 137.354C603.756 137.488 602.362 137.621 600.97 137.754C600.817 137.768 600.652 137.787 600.535 137.64C601.498 137.188 602.467 136.75 603.419 136.275C603.84 136.067 604.329 135.969 604.638 135.563Z" fill="#266FA8"/>
<path d="M600.117 144.133C600.157 144.137 600.197 144.137 600.238 144.133C600.259 145.193 600.281 146.254 600.302 147.317C600.204 147.456 600.11 147.394 600.029 147.304C598.956 146.073 597.883 144.842 596.812 143.609C597.694 143.609 598.524 143.922 599.384 144.058C599.626 144.1 599.871 144.125 600.117 144.133Z" fill="#90D4F0"/>
<path d="M597.801 131.685C597.57 132.239 596.991 132.217 596.575 132.415C595.247 133.038 593.951 133.747 592.539 134.173L593.692 131.696L593.861 131.674L597.801 131.685Z" fill="#90D4F0"/>
<path d="M600.302 147.313C600.282 146.253 600.26 145.192 600.238 144.128L602.976 142.848C602.49 143.955 601.821 144.956 601.206 145.987C600.942 146.448 600.792 147.007 600.302 147.313Z" fill="#266FA8"/>
<path d="M607.477 134.436C607.506 134.39 607.546 134.353 607.594 134.328C607.642 134.304 607.695 134.293 607.749 134.298C607.723 134.346 607.682 134.385 607.634 134.409C607.585 134.434 607.53 134.443 607.477 134.436Z" fill="#266FA8"/>
<path d="M594.652 130.687C595.333 130.232 596.037 129.856 596.883 129.863C599.3 129.863 601.716 129.903 604.13 129.845C604.544 129.82 604.958 129.884 605.346 130.031C605.735 130.179 606.088 130.408 606.384 130.704C606.384 130.746 606.384 130.789 606.384 130.831L604.614 130.841H595.507C595.213 130.841 594.916 130.859 594.652 130.687Z" fill="#F4FAFD"/>
<path d="M594.656 130.688C594.92 130.859 595.217 130.84 595.511 130.84H604.618V131.68L604.629 131.711L600.23 131.795C599.43 131.55 598.612 131.722 597.803 131.687L593.855 131.678C594.02 131.259 594.03 130.715 594.656 130.688Z" fill="#E9F6FD"/>
<path d="M606.387 130.827C606.387 130.784 606.387 130.742 606.387 130.699L606.443 130.793L606.387 130.827Z" fill="#E9F6FD"/>
<path d="M600.23 131.793L604.637 131.711C604.637 132.996 604.64 134.28 604.644 135.564C604.335 135.97 603.847 136.068 603.43 136.278C602.477 136.752 601.509 137.19 600.546 137.643L600.287 137.781L600.25 137.625L600.23 131.793Z" fill="#68C1EA"/>
</g>
</g>
</g>
<rect x="560.477" y="24.5" width="79" height="79" rx="39.5" fill="#1F1F1F"/>
<rect x="560.477" y="24.5" width="79" height="79" rx="39.5" stroke="#3D3D3D"/>
<g filter="url(#filter5_d_1060_3381)">
<rect x="575.977" y="40" width="48" height="48" rx="24" fill="#292929" shape-rendering="crispEdges"/>
<path fill-rule="evenodd" clip-rule="evenodd" d="M608.022 56.6406L603.949 64.0469L608.022 71.4531L609.69 70.5625V57.5312L608.022 56.6406Z" fill="#E25444"/>
<path fill-rule="evenodd" clip-rule="evenodd" d="M608.021 56.6406L599.876 57.5312L595.73 64.0469L599.876 70.5625L608.021 71.4531V56.6406Z" fill="#7B1D13"/>
<path fill-rule="evenodd" clip-rule="evenodd" d="M591.586 56.6406L590.262 57.2031V70.8906L591.586 71.4531L599.879 64.0469L591.586 56.6406Z" fill="#58150D"/>
<path fill-rule="evenodd" clip-rule="evenodd" d="M591.57 56.625L599.891 58.8333V69.4583L591.57 71.4583V56.625Z" fill="#E25444"/>
<path fill-rule="evenodd" clip-rule="evenodd" d="M599.892 60L596.359 59.4583L599.892 55.625L603.417 59.4583L599.892 60Z" fill="#58150D"/>
<path fill-rule="evenodd" clip-rule="evenodd" d="M603.417 59.4583L599.888 60.0083L596.359 59.4583V55.625" fill="#58150D"/>
<path fill-rule="evenodd" clip-rule="evenodd" d="M599.892 68.042L596.359 68.667L599.892 71.9587L603.417 68.667L599.892 68.042Z" fill="#58150D"/>
<path fill-rule="evenodd" clip-rule="evenodd" d="M599.88 52.75L596.348 54.5312V59.4531L599.891 58.5L599.88 52.75Z" fill="#7B1D13"/>
<path fill-rule="evenodd" clip-rule="evenodd" d="M599.888 61.208L596.359 61.5747V66.489L599.888 66.8747V61.208Z" fill="#7B1D13"/>
<path fill-rule="evenodd" clip-rule="evenodd" d="M599.888 69.4996L596.359 68.6543V73.4854L599.888 75.2496V69.4996Z" fill="#7B1D13"/>
<path fill-rule="evenodd" clip-rule="evenodd" d="M603.419 68.6543L599.891 69.4998V75.2496L603.419 73.4854V68.6543Z" fill="#E25444"/>
<path fill-rule="evenodd" clip-rule="evenodd" d="M599.891 61.208L603.419 61.5747V66.489L599.891 66.8747V61.208Z" fill="#E25444"/>
<path fill-rule="evenodd" clip-rule="evenodd" d="M599.879 52.75L603.412 54.5312V59.4531L599.879 58.5156V52.75Z" fill="#E25444"/>
</g>
<rect x="329.5" y="196.5" width="99" height="29" rx="14.5" fill="#1F1F1F"/>
<rect x="329.5" y="196.5" width="99" height="29" rx="14.5" stroke="#3D3D3D"/>
<path d="M342.61 216V206.06H345.872C346.768 206.06 347.486 206.317 348.028 206.83C348.569 207.343 348.84 207.964 348.84 208.692C348.84 209.607 348.485 210.283 347.776 210.722C348.924 211.142 349.498 211.935 349.498 213.102C349.498 213.942 349.19 214.637 348.574 215.188C347.967 215.729 347.164 216 346.166 216H342.61ZM343.912 214.824H346.222C346.875 214.824 347.37 214.675 347.706 214.376C348.051 214.068 348.224 213.657 348.224 213.144C348.224 212.64 348.051 212.234 347.706 211.926C347.37 211.609 346.88 211.45 346.236 211.45H343.912V214.824ZM343.912 210.33H345.872C346.394 210.33 346.805 210.19 347.104 209.91C347.412 209.621 347.566 209.247 347.566 208.79C347.566 208.351 347.412 207.983 347.104 207.684C346.796 207.385 346.385 207.236 345.872 207.236H343.912V210.33ZM354.228 216.168C353.435 216.168 352.721 216 352.086 215.664C351.461 215.328 351.013 214.899 350.742 214.376L351.792 213.592C352.38 214.497 353.202 214.95 354.256 214.95C354.788 214.95 355.227 214.819 355.572 214.558C355.918 214.287 356.09 213.923 356.09 213.466C356.09 212.701 355.614 212.141 354.662 211.786L353.346 211.282C352.562 210.993 351.988 210.633 351.624 210.204C351.27 209.765 351.092 209.21 351.092 208.538C351.092 207.735 351.382 207.096 351.96 206.62C352.548 206.135 353.295 205.892 354.2 205.892C354.807 205.892 355.362 206.018 355.866 206.27C356.37 206.513 356.781 206.839 357.098 207.25L356.146 208.09C355.596 207.437 354.938 207.11 354.172 207.11C353.668 207.11 353.244 207.241 352.898 207.502C352.553 207.754 352.38 208.081 352.38 208.482C352.38 208.883 352.497 209.201 352.73 209.434C352.964 209.667 353.346 209.882 353.878 210.078L355.082 210.54C355.848 210.829 356.422 211.203 356.804 211.66C357.196 212.117 357.392 212.701 357.392 213.41C357.392 214.241 357.094 214.908 356.496 215.412C355.908 215.916 355.152 216.168 354.228 216.168ZM363.898 214.936C364.99 214.936 365.9 214.558 366.628 213.802C367.365 213.046 367.734 212.122 367.734 211.03C367.734 209.938 367.365 209.014 366.628 208.258C365.9 207.502 364.99 207.124 363.898 207.124C362.815 207.124 361.905 207.502 361.168 208.258C360.44 209.014 360.076 209.938 360.076 211.03C360.076 212.122 360.44 213.046 361.168 213.802C361.905 214.558 362.815 214.936 363.898 214.936ZM363.898 216.168C362.47 216.168 361.257 215.673 360.258 214.684C359.259 213.685 358.76 212.467 358.76 211.03C358.76 209.593 359.259 208.379 360.258 207.39C361.257 206.391 362.47 205.892 363.898 205.892C365.335 205.892 366.549 206.391 367.538 207.39C368.537 208.379 369.036 209.593 369.036 211.03C369.036 212.467 368.537 213.685 367.538 214.684C366.549 215.673 365.335 216.168 363.898 216.168ZM379.609 216H378.489L372.441 208.258V216H371.139V206.06H372.273L378.321 213.802V206.06H379.609V216ZM388.613 216.14C387.642 216.14 386.826 215.785 386.163 215.076C385.51 214.367 385.183 213.508 385.183 212.5C385.183 211.492 385.51 210.633 386.163 209.924C386.826 209.215 387.642 208.86 388.613 208.86C389.126 208.86 389.602 208.977 390.041 209.21C390.489 209.434 390.834 209.723 391.077 210.078V205.5H392.281V216H391.077V214.922C390.834 215.277 390.489 215.571 390.041 215.804C389.602 216.028 389.126 216.14 388.613 216.14ZM388.795 215.034C389.486 215.034 390.055 214.791 390.503 214.306C390.951 213.821 391.175 213.219 391.175 212.5C391.175 211.781 390.951 211.179 390.503 210.694C390.055 210.209 389.486 209.966 388.795 209.966C388.095 209.966 387.521 210.209 387.073 210.694C386.625 211.179 386.401 211.781 386.401 212.5C386.401 213.219 386.625 213.821 387.073 214.306C387.521 214.791 388.095 215.034 388.795 215.034ZM397.571 216.14C396.601 216.14 395.784 215.785 395.121 215.076C394.468 214.367 394.141 213.508 394.141 212.5C394.141 211.492 394.468 210.633 395.121 209.924C395.784 209.215 396.601 208.86 397.571 208.86C398.085 208.86 398.561 208.977 398.999 209.21C399.447 209.434 399.793 209.723 400.035 210.078V209H401.239V216H400.035V214.922C399.793 215.277 399.447 215.571 398.999 215.804C398.561 216.028 398.085 216.14 397.571 216.14ZM397.753 215.034C398.444 215.034 399.013 214.791 399.461 214.306C399.909 213.821 400.133 213.219 400.133 212.5C400.133 211.781 399.909 211.179 399.461 210.694C399.013 210.209 398.444 209.966 397.753 209.966C397.053 209.966 396.479 210.209 396.031 210.694C395.583 211.179 395.359 211.781 395.359 212.5C395.359 213.219 395.583 213.821 396.031 214.306C396.479 214.791 397.053 215.034 397.753 215.034ZM406.362 216.07C405.718 216.07 405.2 215.888 404.808 215.524C404.416 215.16 404.22 214.628 404.22 213.928V210.106H402.736V209H404.22V207.054H405.424V209H407.44V210.106H405.424V213.774C405.424 214.213 405.517 214.521 405.704 214.698C405.89 214.875 406.184 214.964 406.586 214.964C406.94 214.964 407.225 214.917 407.44 214.824V215.902C407.104 216.014 406.744 216.07 406.362 216.07ZM411.906 216.14C410.935 216.14 410.119 215.785 409.456 215.076C408.803 214.367 408.476 213.508 408.476 212.5C408.476 211.492 408.803 210.633 409.456 209.924C410.119 209.215 410.935 208.86 411.906 208.86C412.419 208.86 412.895 208.977 413.334 209.21C413.782 209.434 414.127 209.723 414.37 210.078V209H415.574V216H414.37V214.922C414.127 215.277 413.782 215.571 413.334 215.804C412.895 216.028 412.419 216.14 411.906 216.14ZM412.088 215.034C412.779 215.034 413.348 214.791 413.796 214.306C414.244 213.821 414.468 213.219 414.468 212.5C414.468 211.781 414.244 211.179 413.796 210.694C413.348 210.209 412.779 209.966 412.088 209.966C411.388 209.966 410.814 210.209 410.366 210.694C409.918 211.179 409.694 211.781 409.694 212.5C409.694 213.219 409.918 213.821 410.366 214.306C410.814 214.791 411.388 215.034 412.088 215.034Z" fill="white"/>
</g>
<defs>
<filter id="filter0_b_1060_3381" x="-44" y="-44" width="791" height="338" filterUnits="userSpaceOnUse" color-interpolation-filters="sRGB">
<feFlood flood-opacity="0" result="BackgroundImageFix"/>
<feGaussianBlur in="BackgroundImageFix" stdDeviation="22"/>
<feComposite in2="SourceAlpha" operator="in" result="effect1_backgroundBlur_1060_3381"/>
<feBlend mode="normal" in="SourceGraphic" in2="effect1_backgroundBlur_1060_3381" result="shape"/>
</filter>
<filter id="filter1_d_1060_3381" x="56" y="90" width="96" height="96" filterUnits="userSpaceOnUse" color-interpolation-filters="sRGB">
<feFlood flood-opacity="0" result="BackgroundImageFix"/>
<feColorMatrix in="SourceAlpha" type="matrix" values="0 0 0 0 0 0 0 0 0 0 0 0 0 0 0 0 0 0 127 0" result="hardAlpha"/>
<feOffset/>
<feGaussianBlur stdDeviation="12"/>
<feComposite in2="hardAlpha" operator="out"/>
<feColorMatrix type="matrix" values="0 0 0 0 0 0 0 0 0 0 0 0 0 0 0 0 0 0 0.5 0"/>
<feBlend mode="normal" in2="BackgroundImageFix" result="effect1_dropShadow_1060_3381"/>
<feBlend mode="normal" in="SourceGraphic" in2="effect1_dropShadow_1060_3381" result="shape"/>
</filter>
<filter id="filter2_d_1060_3381" x="56" y="16" width="96" height="96" filterUnits="userSpaceOnUse" color-interpolation-filters="sRGB">
<feFlood flood-opacity="0" result="BackgroundImageFix"/>
<feColorMatrix in="SourceAlpha" type="matrix" values="0 0 0 0 0 0 0 0 0 0 0 0 0 0 0 0 0 0 127 0" result="hardAlpha"/>
<feOffset/>
<feGaussianBlur stdDeviation="12"/>
<feComposite in2="hardAlpha" operator="out"/>
<feColorMatrix type="matrix" values="0 0 0 0 0 0 0 0 0 0 0 0 0 0 0 0 0 0 0.5 0"/>
<feBlend mode="normal" in2="BackgroundImageFix" result="effect1_dropShadow_1060_3381"/>
<feBlend mode="normal" in="SourceGraphic" in2="effect1_dropShadow_1060_3381" result="shape"/>
</filter>
<filter id="filter3_d_1060_3381" x="110" y="53" width="96" height="96" filterUnits="userSpaceOnUse" color-interpolation-filters="sRGB">
<feFlood flood-opacity="0" result="BackgroundImageFix"/>
<feColorMatrix in="SourceAlpha" type="matrix" values="0 0 0 0 0 0 0 0 0 0 0 0 0 0 0 0 0 0 127 0" result="hardAlpha"/>
<feOffset/>
<feGaussianBlur stdDeviation="12"/>
<feComposite in2="hardAlpha" operator="out"/>
<feColorMatrix type="matrix" values="0 0 0 0 0 0 0 0 0 0 0 0 0 0 0 0 0 0 0.5 0"/>
<feBlend mode="normal" in2="BackgroundImageFix" result="effect1_dropShadow_1060_3381"/>
<feBlend mode="normal" in="SourceGraphic" in2="effect1_dropShadow_1060_3381" result="shape"/>
</filter>
<filter id="filter4_d_1060_3381" x="551.977" y="90" width="96" height="96" filterUnits="userSpaceOnUse" color-interpolation-filters="sRGB">
<feFlood flood-opacity="0" result="BackgroundImageFix"/>
<feColorMatrix in="SourceAlpha" type="matrix" values="0 0 0 0 0 0 0 0 0 0 0 0 0 0 0 0 0 0 127 0" result="hardAlpha"/>
<feOffset/>
<feGaussianBlur stdDeviation="12"/>
<feComposite in2="hardAlpha" operator="out"/>
<feColorMatrix type="matrix" values="0 0 0 0 0 0 0 0 0 0 0 0 0 0 0 0 0 0 0.5 0"/>
<feBlend mode="normal" in2="BackgroundImageFix" result="effect1_dropShadow_1060_3381"/>
<feBlend mode="normal" in="SourceGraphic" in2="effect1_dropShadow_1060_3381" result="shape"/>
</filter>
<filter id="filter5_d_1060_3381" x="551.977" y="16" width="96" height="96" filterUnits="userSpaceOnUse" color-interpolation-filters="sRGB">
<feFlood flood-opacity="0" result="BackgroundImageFix"/>
<feColorMatrix in="SourceAlpha" type="matrix" values="0 0 0 0 0 0 0 0 0 0 0 0 0 0 0 0 0 0 127 0" result="hardAlpha"/>
<feOffset/>
<feGaussianBlur stdDeviation="12"/>
<feComposite in2="hardAlpha" operator="out"/>
<feColorMatrix type="matrix" values="0 0 0 0 0 0 0 0 0 0 0 0 0 0 0 0 0 0 0.5 0"/>
<feBlend mode="normal" in2="BackgroundImageFix" result="effect1_dropShadow_1060_3381"/>
<feBlend mode="normal" in="SourceGraphic" in2="effect1_dropShadow_1060_3381" result="shape"/>
</filter>
<linearGradient id="paint0_linear_1060_3381" x1="0.834892" y1="2.55401e-05" x2="624.523" y2="380.129" gradientUnits="userSpaceOnUse">
<stop stop-color="#3D3D3D" stop-opacity="0.4"/>
<stop offset="1" stop-color="#292929" stop-opacity="0.1"/>
</linearGradient>
<linearGradient id="paint1_linear_1060_3381" x1="0" y1="0" x2="666.649" y2="324.646" gradientUnits="userSpaceOnUse">
<stop stop-color="#292929" stop-opacity="0.4"/>
<stop offset="1" stop-color="#3D3D3D" stop-opacity="0.15"/>
</linearGradient>
<linearGradient id="paint2_linear_1060_3381" x1="286.187" y1="100.81" x2="241" y2="100.81" gradientUnits="userSpaceOnUse">
<stop stop-color="white"/>
<stop offset="1" stop-color="#292929"/>
</linearGradient>
<linearGradient id="paint3_linear_1060_3381" x1="517.176" y1="100.81" x2="471.988" y2="100.81" gradientUnits="userSpaceOnUse">
<stop stop-color="white"/>
<stop offset="1" stop-color="#292929"/>
</linearGradient>
<clipPath id="clip0_1060_3381">
<rect width="24" height="24" fill="white" transform="translate(92 126)"/>
</clipPath>
<clipPath id="clip1_1060_3381">
<rect width="48" height="48" fill="white" transform="translate(134 77)"/>
</clipPath>
<clipPath id="clip2_1060_3381">
<rect width="24" height="24" fill="white" transform="translate(587.977 126)"/>
</clipPath>
</defs>
</svg>
