<svg width="34" height="24" viewBox="0 0 34 24" fill="none" xmlns="http://www.w3.org/2000/svg">
<g clip-path="url(#clip0_1142_1885)">
<g clip-path="url(#clip1_1142_1885)">
<path d="M33.2892 3.74789C32.8974 2.27188 31.747 1.11195 30.2832 0.716839C27.6328 2.14577e-07 17 0 17 0C17 0 6.36732 2.14577e-07 3.71683 0.716839C2.25306 1.11195 1.10274 2.27188 0.710901 3.74789C2.12799e-07 6.4205 0 12 0 12C0 12 2.12799e-07 17.5795 0.710901 20.2522C1.10274 21.7282 2.25306 22.8881 3.71683 23.2831C6.36732 24 17 24 17 24C17 24 27.6328 24 30.2832 23.2831C31.747 22.8881 32.8974 21.7282 33.2892 20.2522C34.0001 17.5795 34.0001 12 34.0001 12C34.0001 12 33.9973 6.4205 33.2892 3.74789Z" fill="#FF0000"/>
<path d="M13.5938 17.1415L22.4268 11.9995L13.5938 6.85742V17.1415Z" fill="white"/>
</g>
</g>
<defs>
<clipPath id="clip0_1142_1885">
<rect width="34" height="24" fill="white"/>
</clipPath>
<clipPath id="clip1_1142_1885">
<rect width="34" height="24" fill="white"/>
</clipPath>
</defs>
</svg>
