<svg width="354" height="218" viewBox="0 0 354 218" fill="none" xmlns="http://www.w3.org/2000/svg">
<path d="M0 24C0 10.7452 10.7452 0 24 0H330C343.255 0 354 10.7452 354 24V194C354 207.255 343.255 218 330 218H24C10.7452 218 0 207.255 0 194V24Z" fill="#F3F3F3"/>
<g filter="url(#filter0_d_1118_3040)">
<rect x="15" y="40" width="142" height="144" rx="12" fill="white" shape-rendering="crispEdges"/>
<rect x="15.4284" y="40.4284" width="141.143" height="143.143" rx="11.5716" stroke="white" stroke-width="0.856801" shape-rendering="crispEdges"/>
<path d="M68.0908 62.3542C67.4095 62.3542 66.8288 62.2303 66.3488 61.9826C65.8765 61.7348 65.4701 61.4019 65.1294 60.9838L66.0352 60.136C66.3217 60.4844 66.6353 60.7477 66.9759 60.9257C67.3243 61.1038 67.7192 61.1929 68.1605 61.1929C68.6792 61.1929 69.0702 61.0767 69.3335 60.8445C69.5967 60.6122 69.7283 60.2986 69.7283 59.9038C69.7283 59.5863 69.6354 59.3347 69.4496 59.1489C69.2638 58.9631 68.9347 58.8237 68.4625 58.7308L67.7424 58.6031C66.9527 58.4559 66.3604 58.1966 65.9656 57.8249C65.5707 57.4533 65.3733 56.9423 65.3733 56.292C65.3733 55.9358 65.4391 55.6145 65.5707 55.328C65.7101 55.0338 65.8998 54.79 66.1398 54.5964C66.3875 54.3951 66.6856 54.2403 67.034 54.1319C67.3824 54.0235 67.7734 53.9693 68.207 53.9693C68.8186 53.9693 69.349 54.0777 69.798 54.2944C70.2471 54.5035 70.6303 54.8093 70.9477 55.2119L70.0303 56.0249C69.8212 55.7539 69.5657 55.5371 69.2638 55.3745C68.9618 55.2119 68.5863 55.1306 68.1373 55.1306C67.6727 55.1306 67.3127 55.2235 67.0572 55.4093C66.8017 55.5952 66.674 55.8661 66.674 56.2223C66.674 56.5629 66.7785 56.8184 66.9875 56.9888C67.1966 57.1514 67.5218 57.2752 67.9631 57.3604L68.6831 57.5114C69.4961 57.6662 70.0883 57.9295 70.46 58.3011C70.8394 58.6727 71.029 59.1837 71.029 59.8341C71.029 60.2135 70.9632 60.558 70.8316 60.8677C70.7 61.1774 70.5064 61.4445 70.2509 61.669C70.0032 61.8858 69.6974 62.0561 69.3335 62.18C68.9696 62.2961 68.5554 62.3542 68.0908 62.3542ZM74.8459 62.3542C74.4123 62.3542 74.0252 62.2807 73.6845 62.1335C73.3439 61.9864 73.0574 61.7774 72.8251 61.5064C72.5929 61.2277 72.4148 60.8948 72.2909 60.5077C72.167 60.1128 72.1051 59.6754 72.1051 59.1953C72.1051 58.7153 72.167 58.2817 72.2909 57.8946C72.4148 57.4998 72.5929 57.1668 72.8251 56.8959C73.0574 56.6171 73.3439 56.4042 73.6845 56.2571C74.0252 56.11 74.4123 56.0365 74.8459 56.0365C75.4498 56.0365 75.9453 56.172 76.3324 56.4429C76.7195 56.7139 77.0021 57.0739 77.1802 57.523L76.135 58.0108C76.0498 57.732 75.8988 57.5114 75.6821 57.3488C75.473 57.1785 75.1943 57.0933 74.8459 57.0933C74.3813 57.0933 74.0291 57.2404 73.7891 57.5346C73.5568 57.8211 73.4407 58.1966 73.4407 58.6611V59.7412C73.4407 60.2057 73.5568 60.5851 73.7891 60.8793C74.0291 61.1658 74.3813 61.309 74.8459 61.309C75.2175 61.309 75.5117 61.22 75.7285 61.0419C75.953 60.8561 76.1311 60.6122 76.2627 60.3102L77.2266 60.8212C77.0253 61.3167 76.7234 61.6961 76.3208 61.9593C75.9182 62.2226 75.4266 62.3542 74.8459 62.3542ZM78.4317 53.6209H79.6976V57.1746H79.7557C79.8873 56.8494 80.0847 56.5784 80.348 56.3616C80.6189 56.1449 80.9867 56.0365 81.4512 56.0365C82.0706 56.0365 82.5506 56.2416 82.8913 56.652C83.2397 57.0546 83.4139 57.6314 83.4139 58.3824V62.2148H82.148V58.5334C82.148 57.5965 81.7687 57.1281 81.0099 57.1281C80.8473 57.1281 80.6847 57.1514 80.5222 57.1978C80.3673 57.2365 80.2279 57.2985 80.1041 57.3836C79.9802 57.4688 79.8795 57.5772 79.8021 57.7088C79.7324 57.8404 79.6976 57.9914 79.6976 58.1617V62.2148H78.4317V53.6209ZM87.5376 62.3542C87.104 62.3542 86.7169 62.2807 86.3763 62.1335C86.0356 61.9864 85.7453 61.7774 85.5052 61.5064C85.2652 61.2277 85.0794 60.8948 84.9478 60.5077C84.8239 60.1128 84.762 59.6754 84.762 59.1953C84.762 58.7153 84.8239 58.2817 84.9478 57.8946C85.0794 57.4998 85.2652 57.1668 85.5052 56.8959C85.7453 56.6171 86.0356 56.4042 86.3763 56.2571C86.7169 56.11 87.104 56.0365 87.5376 56.0365C87.9789 56.0365 88.366 56.1139 88.699 56.2687C89.0396 56.4236 89.3222 56.6404 89.5467 56.9191C89.7713 57.1901 89.9377 57.5075 90.0461 57.8714C90.1623 58.2353 90.2203 58.6263 90.2203 59.0444V59.5205H86.0743V59.7179C86.0743 60.1825 86.2098 60.5657 86.4808 60.8677C86.7595 61.1619 87.1544 61.309 87.6654 61.309C88.037 61.309 88.3505 61.2277 88.606 61.0651C88.8615 60.9025 89.0783 60.6819 89.2564 60.4031L89.9997 61.1348C89.7751 61.5064 89.45 61.8045 89.0241 62.029C88.5983 62.2458 88.1028 62.3542 87.5376 62.3542ZM87.5376 57.0236C87.3208 57.0236 87.1195 57.0623 86.9337 57.1398C86.7556 57.2172 86.6008 57.3256 86.4692 57.4649C86.3453 57.6043 86.2485 57.7708 86.1788 57.9643C86.1091 58.1579 86.0743 58.3708 86.0743 58.6031V58.6843H88.8848V58.5682C88.8848 58.1037 88.7648 57.732 88.5248 57.4533C88.2847 57.1668 87.9557 57.0236 87.5376 57.0236ZM91.6216 62.2148V56.1758H92.8875V57.1746H92.9456C93.0075 57.0197 93.0811 56.8726 93.1662 56.7333C93.2592 56.5939 93.3675 56.4739 93.4914 56.3733C93.623 56.2649 93.774 56.1836 93.9443 56.1294C94.1224 56.0674 94.3276 56.0365 94.5599 56.0365C94.9702 56.0365 95.3341 56.1371 95.6515 56.3384C95.969 56.5397 96.2012 56.8494 96.3483 57.2675H96.3832C96.4916 56.9268 96.7006 56.6365 97.0103 56.3965C97.32 56.1565 97.7187 56.0365 98.2065 56.0365C98.8104 56.0365 99.2788 56.2416 99.6117 56.652C99.9446 57.0546 100.111 57.6314 100.111 58.3824V62.2148H98.8452V58.5334C98.8452 58.0688 98.7562 57.7204 98.5781 57.4882C98.4001 57.2481 98.1175 57.1281 97.7303 57.1281C97.5678 57.1281 97.4129 57.1514 97.2658 57.1978C97.1187 57.2365 96.9871 57.2985 96.8709 57.3836C96.7626 57.4688 96.6735 57.5772 96.6038 57.7088C96.5342 57.8404 96.4993 57.9914 96.4993 58.1617V62.2148H95.2334V58.5334C95.2334 57.5965 94.8657 57.1281 94.1302 57.1281C93.9753 57.1281 93.8205 57.1514 93.6656 57.1978C93.5185 57.2365 93.3869 57.2985 93.2708 57.3836C93.1546 57.4688 93.0617 57.5772 92.992 57.7088C92.9224 57.8404 92.8875 57.9914 92.8875 58.1617V62.2148H91.6216ZM106.288 62.2148C105.955 62.2148 105.699 62.1219 105.521 61.9361C105.343 61.7426 105.235 61.4987 105.196 61.2045H105.138C105.022 61.5838 104.809 61.8703 104.499 62.0639C104.189 62.2574 103.814 62.3542 103.373 62.3542C102.745 62.3542 102.262 62.1916 101.921 61.8664C101.588 61.5413 101.422 61.1038 101.422 60.5541C101.422 59.9502 101.638 59.4973 102.072 59.1953C102.513 58.8934 103.156 58.7424 104 58.7424H105.091V58.2314C105.091 57.8598 104.991 57.5733 104.789 57.372C104.588 57.1707 104.275 57.0701 103.849 57.0701C103.493 57.0701 103.202 57.1475 102.978 57.3023C102.753 57.4572 102.564 57.6546 102.409 57.8946L101.654 57.2094C101.855 56.8688 102.138 56.59 102.502 56.3733C102.865 56.1487 103.342 56.0365 103.93 56.0365C104.712 56.0365 105.312 56.2184 105.73 56.5823C106.148 56.9462 106.357 57.4688 106.357 58.1501V61.1812H106.996V62.2148H106.288ZM103.733 61.3903C104.127 61.3903 104.453 61.3051 104.708 61.1348C104.964 60.9567 105.091 60.7206 105.091 60.4264V59.5554H104.023C103.148 59.5554 102.711 59.8263 102.711 60.3683V60.5773C102.711 60.8483 102.8 61.0535 102.978 61.1929C103.164 61.3245 103.415 61.3903 103.733 61.3903Z" fill="black"/>
<rect x="29.0192" y="77.0133" width="113.957" height="28.5977" rx="2.54045" fill="white"/>
<rect x="29.0192" y="77.0133" width="113.957" height="28.5977" rx="2.54045" stroke="#D6D6D6" stroke-width="0.725843"/>
<path d="M36.6029 94.3125V87.7073H37.622V94.3125H36.6029ZM40.952 94.4446C40.5682 94.4446 40.2128 94.3502 39.8857 94.1615C39.5586 93.9728 39.2944 93.7023 39.0931 93.35C38.8981 92.9915 38.8006 92.5606 38.8006 92.0573V91.9158C38.8006 91.4188 38.8981 90.991 39.0931 90.6325C39.2881 90.2739 39.5492 90.0003 39.8763 89.8115C40.2034 89.6228 40.562 89.5285 40.952 89.5285C41.2539 89.5285 41.5056 89.5662 41.7069 89.6417C41.9144 89.7172 42.0843 89.8147 42.2164 89.9342C42.3485 90.0474 42.4491 90.167 42.5183 90.2928H42.6693V87.7073H43.6412V94.3125H42.6882V93.652H42.5372C42.4177 93.8533 42.2353 94.0357 41.9899 94.1993C41.7509 94.3628 41.4049 94.4446 40.952 94.4446ZM41.2256 93.5954C41.6471 93.5954 41.9931 93.4601 42.2636 93.1896C42.5404 92.9191 42.6788 92.5322 42.6788 92.029V91.9441C42.6788 91.4471 42.5435 91.0634 42.273 90.7929C42.0025 90.5224 41.6534 90.3871 41.2256 90.3871C40.8104 90.3871 40.4645 90.5224 40.1877 90.7929C39.9172 91.0634 39.7819 91.4471 39.7819 91.9441V92.029C39.7819 92.5322 39.9172 92.9191 40.1877 93.1896C40.4645 93.4601 40.8104 93.5954 41.2256 93.5954Z" fill="black"/>
<rect x="113.367" y="82.457" width="22.7101" height="17.7101" rx="2.90337" fill="#E5F6FF"/>
<path d="M118.125 93.8125V93.1447H118.815V89.4139H118.125V88.7461H120.332V89.4139H119.635V93.1447H120.332V93.8125H118.125ZM123.09 91.0107L122.531 89.9365H122.509V93.8125H121.726V88.7461H122.64L124.295 91.5479L124.854 92.6221H124.876V88.7461H125.66V93.8125H124.745L123.09 91.0107ZM129.15 89.472V93.8125H128.33V89.472H126.82V88.7461H130.66V89.472H129.15Z" fill="#009FEE"/>
<rect x="29.0192" y="111.418" width="113.957" height="28.5977" rx="2.54045" fill="white"/>
<rect x="29.0192" y="111.418" width="113.957" height="28.5977" rx="2.54045" stroke="#D6D6D6" stroke-width="0.725843"/>
<path d="M39.0562 128.849C38.251 128.849 37.6125 128.622 37.1407 128.17C36.6689 127.71 36.433 127.05 36.433 126.188V124.64C36.433 123.779 36.6689 123.121 37.1407 122.668C37.6125 122.209 38.251 121.98 39.0562 121.98C39.8489 121.98 40.459 122.2 40.8868 122.64C41.3209 123.08 41.5379 123.681 41.5379 124.442V124.499H40.5282V124.414C40.5282 123.967 40.4056 123.603 40.1602 123.319C39.9212 123.036 39.5532 122.895 39.0562 122.895C38.553 122.895 38.1598 123.049 37.8767 123.357C37.5937 123.659 37.4521 124.081 37.4521 124.622V126.207C37.4521 126.742 37.5937 127.163 37.8767 127.471C38.1598 127.779 38.553 127.934 39.0562 127.934C39.5532 127.934 39.9212 127.792 40.1602 127.509C40.4056 127.22 40.5282 126.855 40.5282 126.414V126.254H41.5379V126.386C41.5379 127.147 41.3209 127.748 40.8868 128.188C40.459 128.629 39.8489 128.849 39.0562 128.849ZM44.8742 128.849C44.4087 128.849 43.9935 128.755 43.6287 128.566C43.2701 128.371 42.987 128.094 42.7795 127.735C42.5719 127.377 42.4681 126.952 42.4681 126.462V126.32C42.4681 125.829 42.5719 125.408 42.7795 125.056C42.987 124.697 43.2701 124.42 43.6287 124.225C43.9935 124.03 44.4087 123.933 44.8742 123.933C45.3397 123.933 45.7549 124.03 46.1198 124.225C46.4846 124.42 46.7709 124.697 46.9785 125.056C47.186 125.408 47.2898 125.829 47.2898 126.32V126.462C47.2898 126.952 47.186 127.377 46.9785 127.735C46.7709 128.094 46.4846 128.371 46.1198 128.566C45.7549 128.755 45.3397 128.849 44.8742 128.849ZM44.8742 127.981C45.302 127.981 45.648 127.846 45.9122 127.575C46.1827 127.298 46.3179 126.918 46.3179 126.433V126.348C46.3179 125.864 46.1858 125.487 45.9216 125.216C45.6574 124.939 45.3083 124.801 44.8742 124.801C44.4528 124.801 44.1068 124.939 43.8363 125.216C43.5721 125.487 43.44 125.864 43.44 126.348V126.433C43.44 126.918 43.5721 127.298 43.8363 127.575C44.1068 127.846 44.4528 127.981 44.8742 127.981ZM50.4059 128.849C49.8146 128.849 49.3239 128.717 48.9339 128.453C48.5439 128.188 48.3048 127.789 48.2168 127.254L49.1226 127.037C49.173 127.295 49.2579 127.5 49.3774 127.651C49.4969 127.802 49.6448 127.908 49.8209 127.971C50.0033 128.034 50.1983 128.066 50.4059 128.066C50.7142 128.066 50.9501 128.006 51.1136 127.886C51.2835 127.767 51.3684 127.613 51.3684 127.424C51.3684 127.235 51.2898 127.097 51.1325 127.009C50.9752 126.921 50.7425 126.848 50.4342 126.792L50.1134 126.735C49.7989 126.679 49.5126 126.597 49.2547 126.49C48.9968 126.383 48.7924 126.235 48.6414 126.046C48.4904 125.858 48.4149 125.616 48.4149 125.32C48.4149 124.88 48.5785 124.54 48.9056 124.301C49.2327 124.055 49.6668 123.933 50.2078 123.933C50.7299 123.933 51.1576 124.052 51.4911 124.291C51.8307 124.524 52.0509 124.842 52.1516 125.244L51.2457 125.499C51.1891 125.216 51.0696 125.018 50.8872 124.905C50.7047 124.785 50.4783 124.725 50.2078 124.725C49.9436 124.725 49.736 124.776 49.585 124.876C49.434 124.971 49.3585 125.106 49.3585 125.282C49.3585 125.471 49.4309 125.609 49.5756 125.697C49.7265 125.785 49.9278 125.851 50.1795 125.895L50.5097 125.952C50.8431 126.009 51.1482 126.087 51.425 126.188C51.7018 126.289 51.9188 126.433 52.0761 126.622C52.2396 126.811 52.3214 127.062 52.3214 127.377C52.3214 127.842 52.1484 128.204 51.8024 128.462C51.4565 128.72 50.9909 128.849 50.4059 128.849ZM55.1017 128.717C54.8186 128.717 54.5922 128.632 54.4223 128.462C54.2588 128.292 54.177 128.066 54.177 127.783V124.886H52.8937V124.065H54.177V122.527H55.1489V124.065H56.536V124.886H55.1489V127.613C55.1489 127.802 55.237 127.896 55.4131 127.896H56.385V128.717H55.1017Z" fill="black"/>
<rect x="104.367" y="116.861" width="31.7101" height="17.7101" rx="2.90337" fill="#E5F6FF"/>
<path d="M109.343 128.217V123.15H112.508V123.876H110.163V125.284H112.246V126.01H110.163V128.217H109.343ZM113.845 128.217V123.15H114.666V127.491H116.727V128.217H113.845ZM119.641 128.304C119.312 128.304 119.012 128.248 118.741 128.137C118.475 128.021 118.245 127.854 118.052 127.636C117.863 127.414 117.716 127.14 117.609 126.816C117.507 126.487 117.457 126.109 117.457 125.684C117.457 125.258 117.507 124.883 117.609 124.559C117.716 124.23 117.863 123.956 118.052 123.738C118.245 123.516 118.475 123.349 118.741 123.238C119.012 123.121 119.312 123.063 119.641 123.063C119.97 123.063 120.268 123.121 120.534 123.238C120.805 123.349 121.035 123.516 121.224 123.738C121.417 123.956 121.565 124.23 121.667 124.559C121.773 124.883 121.826 125.258 121.826 125.684C121.826 126.109 121.773 126.487 121.667 126.816C121.565 127.14 121.417 127.414 121.224 127.636C121.035 127.854 120.805 128.021 120.534 128.137C120.268 128.248 119.97 128.304 119.641 128.304ZM119.641 127.571C119.835 127.571 120.012 127.537 120.171 127.469C120.336 127.401 120.474 127.305 120.585 127.179C120.701 127.048 120.791 126.891 120.854 126.707C120.916 126.523 120.948 126.315 120.948 126.083V125.284C120.948 125.052 120.916 124.844 120.854 124.66C120.791 124.476 120.701 124.321 120.585 124.196C120.474 124.065 120.336 123.966 120.171 123.898C120.012 123.83 119.835 123.796 119.641 123.796C119.443 123.796 119.264 123.83 119.104 123.898C118.945 123.966 118.807 124.065 118.691 124.196C118.579 124.321 118.492 124.476 118.429 124.66C118.366 124.844 118.335 125.052 118.335 125.284V126.083C118.335 126.315 118.366 126.523 118.429 126.707C118.492 126.891 118.579 127.048 118.691 127.179C118.807 127.305 118.945 127.401 119.104 127.469C119.264 127.537 119.443 127.571 119.641 127.571ZM126.221 128.217L125.763 126.845H123.869L123.426 128.217H122.591L124.319 123.15H125.35L127.077 128.217H126.221ZM124.834 123.905H124.798L124.065 126.141H125.56L124.834 123.905ZM129.63 123.876V128.217H128.81V123.876H127.3V123.15H131.14V123.876H129.63Z" fill="#009FEE"/>
<rect x="29.0192" y="145.822" width="113.957" height="28.5977" rx="2.54045" fill="white"/>
<rect x="29.0192" y="145.822" width="113.957" height="28.5977" rx="2.54045" stroke="#D6D6D6" stroke-width="0.725843"/>
<path d="M36.6312 165.008V158.469H37.5842V159.139H37.7352C37.8547 158.932 38.034 158.746 38.2731 158.582C38.5184 158.419 38.8675 158.337 39.3204 158.337C39.7105 158.337 40.0659 158.431 40.3867 158.62C40.7138 158.809 40.9749 159.083 41.1699 159.441C41.3712 159.793 41.4718 160.221 41.4718 160.724V160.866C41.4718 161.369 41.3743 161.8 41.1793 162.159C40.9843 162.511 40.7233 162.781 40.3961 162.97C40.069 163.159 39.7105 163.253 39.3204 163.253C39.0185 163.253 38.7637 163.215 38.5561 163.14C38.3485 163.064 38.1818 162.97 38.056 162.857C37.9302 162.737 37.8296 162.615 37.7541 162.489H37.6031V165.008H36.6312ZM39.0374 162.404C39.4651 162.404 39.8143 162.269 40.0848 161.998C40.3553 161.728 40.4905 161.341 40.4905 160.838V160.753C40.4905 160.256 40.3521 159.872 40.0753 159.601C39.8048 159.331 39.4588 159.196 39.0374 159.196C38.6222 159.196 38.2762 159.331 37.9994 159.601C37.7289 159.872 37.5937 160.256 37.5937 160.753V160.838C37.5937 161.341 37.7289 161.728 37.9994 161.998C38.2762 162.269 38.6222 162.404 39.0374 162.404ZM44.1198 163.253C43.7864 163.253 43.4876 163.197 43.2234 163.083C42.9655 162.97 42.7579 162.803 42.6006 162.583C42.4496 162.363 42.3742 162.096 42.3742 161.781C42.3742 161.46 42.4496 161.196 42.6006 160.989C42.7579 160.775 42.9686 160.614 43.2328 160.507C43.5033 160.4 43.8084 160.347 44.1481 160.347H45.5635V160.045C45.5635 159.774 45.4817 159.557 45.3182 159.394C45.1546 159.23 44.903 159.149 44.5633 159.149C44.2299 159.149 43.9751 159.227 43.799 159.384C43.6228 159.542 43.5065 159.746 43.4499 159.998L42.544 159.705C42.6195 159.454 42.739 159.227 42.9026 159.026C43.0724 158.818 43.2957 158.652 43.5725 158.526C43.8493 158.4 44.1827 158.337 44.5727 158.337C45.1766 158.337 45.6516 158.491 45.9976 158.799C46.3435 159.108 46.5165 159.545 46.5165 160.111V162.027C46.5165 162.215 46.6046 162.31 46.7807 162.31H47.1771V163.121H46.4505C46.2303 163.121 46.051 163.064 45.9126 162.951C45.7742 162.838 45.705 162.684 45.705 162.489V162.461H45.5635C45.5132 162.555 45.4377 162.665 45.337 162.791C45.2364 162.917 45.0886 163.027 44.8936 163.121C44.6985 163.209 44.4406 163.253 44.1198 163.253ZM44.2613 162.451C44.6514 162.451 44.9659 162.341 45.2049 162.121C45.444 161.894 45.5635 161.586 45.5635 161.196V161.102H44.2047C43.9468 161.102 43.7392 161.158 43.582 161.272C43.4247 161.379 43.3461 161.539 43.3461 161.753C43.3461 161.967 43.4278 162.137 43.5914 162.262C43.7549 162.388 43.9783 162.451 44.2613 162.451ZM48.5401 165.008V164.159H51.135C51.3111 164.159 51.3992 164.065 51.3992 163.876V162.442H51.2482C51.1916 162.568 51.1035 162.69 50.984 162.81C50.8708 162.923 50.7167 163.017 50.5217 163.093C50.3266 163.168 50.0813 163.206 49.7857 163.206C49.4334 163.206 49.1188 163.127 48.8421 162.97C48.5653 162.813 48.3482 162.59 48.191 162.3C48.0337 162.011 47.9551 161.668 47.9551 161.272V158.469H48.927V161.196C48.927 161.599 49.0276 161.898 49.2289 162.093C49.4302 162.281 49.7102 162.376 50.0687 162.376C50.465 162.376 50.7827 162.244 51.0218 161.979C51.2671 161.715 51.3898 161.331 51.3898 160.828V158.469H52.3617V164.074C52.3617 164.357 52.2767 164.584 52.1069 164.754C51.9433 164.923 51.7169 165.008 51.4275 165.008H48.5401ZM53.7512 164.461V163.583H58.2616V164.461H53.7512ZM61.5747 163.253C61.191 163.253 60.8355 163.159 60.5084 162.97C60.1813 162.781 59.9171 162.511 59.7158 162.159C59.5208 161.8 59.4233 161.369 59.4233 160.866V160.724C59.4233 160.227 59.5208 159.8 59.7158 159.441C59.9108 159.083 60.1719 158.809 60.499 158.62C60.8261 158.431 61.1847 158.337 61.5747 158.337C61.8766 158.337 62.1283 158.375 62.3296 158.45C62.5372 158.526 62.707 158.623 62.8391 158.743C62.9712 158.856 63.0719 158.976 63.1411 159.101H63.292V156.516H64.2639V163.121H63.3109V162.461H63.1599C63.0404 162.662 62.858 162.844 62.6127 163.008C62.3736 163.171 62.0276 163.253 61.5747 163.253ZM61.8483 162.404C62.2698 162.404 62.6158 162.269 62.8863 161.998C63.1631 161.728 63.3015 161.341 63.3015 160.838V160.753C63.3015 160.256 63.1662 159.872 62.8957 159.601C62.6252 159.331 62.2761 159.196 61.8483 159.196C61.4332 159.196 61.0872 159.331 60.8104 159.601C60.5399 159.872 60.4046 160.256 60.4046 160.753V160.838C60.4046 161.341 60.5399 161.728 60.8104 161.998C61.0872 162.269 61.4332 162.404 61.8483 162.404ZM67.1384 163.253C66.805 163.253 66.5062 163.197 66.242 163.083C65.984 162.97 65.7764 162.803 65.6192 162.583C65.4682 162.363 65.3927 162.096 65.3927 161.781C65.3927 161.46 65.4682 161.196 65.6192 160.989C65.7764 160.775 65.9872 160.614 66.2514 160.507C66.5219 160.4 66.827 160.347 67.1667 160.347H68.5821V160.045C68.5821 159.774 68.5003 159.557 68.3367 159.394C68.1732 159.23 67.9216 159.149 67.5819 159.149C67.2485 159.149 66.9937 159.227 66.8176 159.384C66.6414 159.542 66.525 159.746 66.4684 159.998L65.5626 159.705C65.6381 159.454 65.7576 159.227 65.9211 159.026C66.091 158.818 66.3143 158.652 66.5911 158.526C66.8679 158.4 67.2013 158.337 67.5913 158.337C68.1952 158.337 68.6701 158.491 69.0161 158.799C69.3621 159.108 69.5351 159.545 69.5351 160.111V162.027C69.5351 162.215 69.6232 162.31 69.7993 162.31H70.1956V163.121H69.4691C69.2489 163.121 69.0696 163.064 68.9312 162.951C68.7928 162.838 68.7236 162.684 68.7236 162.489V162.461H68.5821C68.5317 162.555 68.4563 162.665 68.3556 162.791C68.255 162.917 68.1071 163.027 67.9121 163.121C67.7171 163.209 67.4592 163.253 67.1384 163.253ZM67.2799 162.451C67.6699 162.451 67.9845 162.341 68.2235 162.121C68.4626 161.894 68.5821 161.586 68.5821 161.196V161.102H67.2233C66.9654 161.102 66.7578 161.158 66.6005 161.272C66.4433 161.379 66.3646 161.539 66.3646 161.753C66.3646 161.967 66.4464 162.137 66.61 162.262C66.7735 162.388 66.9968 162.451 67.2799 162.451ZM72.5638 163.121C72.2807 163.121 72.0542 163.036 71.8844 162.866C71.7208 162.696 71.639 162.47 71.639 162.187V159.29H70.3557V158.469H71.639V156.931H72.6109V158.469H73.998V159.29H72.6109V162.017C72.6109 162.206 72.699 162.3 72.8751 162.3H73.847V163.121H72.5638ZM77.1065 163.253C76.6347 163.253 76.2227 163.156 75.8704 162.961C75.5181 162.759 75.2413 162.479 75.04 162.121C74.845 161.756 74.7475 161.335 74.7475 160.856V160.743C74.7475 160.259 74.845 159.837 75.04 159.479C75.235 159.114 75.5055 158.834 75.8515 158.639C76.2038 158.438 76.6095 158.337 77.0688 158.337C77.5154 158.337 77.9054 158.438 78.2388 158.639C78.5785 158.834 78.8427 159.108 79.0314 159.46C79.2202 159.812 79.3145 160.224 79.3145 160.696V161.064H75.7383C75.7509 161.473 75.8861 161.8 76.144 162.045C76.4082 162.284 76.7354 162.404 77.1254 162.404C77.4902 162.404 77.7639 162.322 77.9463 162.159C78.135 161.995 78.2797 161.806 78.3804 161.592L79.1824 162.008C79.0943 162.184 78.9654 162.369 78.7955 162.564C78.632 162.759 78.415 162.923 78.1445 163.055C77.874 163.187 77.528 163.253 77.1065 163.253ZM75.7477 160.319H78.3237C78.2986 159.966 78.1728 159.693 77.9463 159.498C77.7198 159.296 77.4242 159.196 77.0593 159.196C76.6945 159.196 76.3957 159.296 76.1629 159.498C75.9364 159.693 75.798 159.966 75.7477 160.319Z" fill="black"/>
<rect x="108.367" y="151.266" width="27.7101" height="17.7101" rx="2.90337" fill="#E5F6FF"/>
<path d="M113.343 157.555H115.136C115.46 157.555 115.753 157.608 116.014 157.714C116.28 157.821 116.505 157.981 116.689 158.193C116.878 158.402 117.023 158.665 117.125 158.985C117.226 159.299 117.277 159.667 117.277 160.088C117.277 160.509 117.226 160.879 117.125 161.198C117.023 161.513 116.878 161.777 116.689 161.99C116.505 162.198 116.28 162.355 116.014 162.461C115.753 162.568 115.46 162.621 115.136 162.621H113.343V157.555ZM115.136 161.895C115.513 161.895 115.818 161.777 116.05 161.54C116.283 161.302 116.399 160.954 116.399 160.494V159.681C116.399 159.222 116.283 158.873 116.05 158.636C115.818 158.399 115.513 158.281 115.136 158.281H114.163V161.895H115.136ZM121.655 162.621L121.198 161.249H119.303L118.861 162.621H118.026L119.753 157.555H120.784L122.512 162.621H121.655ZM120.269 158.31H120.233L119.499 160.545H120.995L120.269 158.31ZM125.064 158.281V162.621H124.244V158.281H122.734V157.555H126.574V158.281H125.064ZM127.736 162.621V157.555H130.981V158.281H128.557V159.689H130.756V160.415H128.557V161.895H130.981V162.621H127.736Z" fill="#009FEE"/>
</g>
<g filter="url(#filter1_d_1118_3040)">
<rect x="196" y="40" width="142" height="144" rx="12" fill="white" shape-rendering="crispEdges"/>
<rect x="196.428" y="40.4284" width="141.143" height="143.143" rx="11.5716" stroke="white" stroke-width="0.856801" shape-rendering="crispEdges"/>
<path d="M249.093 62.3542C248.412 62.3542 247.831 62.2303 247.351 61.9826C246.879 61.7348 246.472 61.4019 246.132 60.9838L247.037 60.136C247.324 60.4844 247.637 60.7477 247.978 60.9257C248.327 61.1038 248.721 61.1929 249.163 61.1929C249.681 61.1929 250.072 61.0767 250.336 60.8445C250.599 60.6122 250.731 60.2986 250.731 59.9038C250.731 59.5863 250.638 59.3347 250.452 59.1489C250.266 58.9631 249.937 58.8237 249.465 58.7308L248.745 58.6031C247.955 58.4559 247.363 58.1966 246.968 57.8249C246.573 57.4533 246.375 56.9423 246.375 56.292C246.375 55.9358 246.441 55.6145 246.573 55.328C246.712 55.0338 246.902 54.79 247.142 54.5964C247.39 54.3951 247.688 54.2403 248.036 54.1319C248.385 54.0235 248.776 53.9693 249.209 53.9693C249.821 53.9693 250.351 54.0777 250.8 54.2944C251.249 54.5035 251.632 54.8093 251.95 55.2119L251.032 56.0249C250.823 55.7539 250.568 55.5371 250.266 55.3745C249.964 55.2119 249.589 55.1306 249.139 55.1306C248.675 55.1306 248.315 55.2235 248.059 55.4093C247.804 55.5952 247.676 55.8661 247.676 56.2223C247.676 56.5629 247.781 56.8184 247.99 56.9888C248.199 57.1514 248.524 57.2752 248.965 57.3604L249.685 57.5114C250.498 57.6662 251.091 57.9295 251.462 58.3011C251.842 58.6727 252.031 59.1837 252.031 59.8341C252.031 60.2135 251.965 60.558 251.834 60.8677C251.702 61.1774 251.509 61.4445 251.253 61.669C251.005 61.8858 250.7 62.0561 250.336 62.18C249.972 62.2961 249.558 62.3542 249.093 62.3542ZM255.848 62.3542C255.414 62.3542 255.027 62.2807 254.687 62.1335C254.346 61.9864 254.06 61.7774 253.827 61.5064C253.595 61.2277 253.417 60.8948 253.293 60.5077C253.169 60.1128 253.107 59.6754 253.107 59.1953C253.107 58.7153 253.169 58.2817 253.293 57.8946C253.417 57.4998 253.595 57.1668 253.827 56.8959C254.06 56.6171 254.346 56.4042 254.687 56.2571C255.027 56.11 255.414 56.0365 255.848 56.0365C256.452 56.0365 256.947 56.172 257.335 56.4429C257.722 56.7139 258.004 57.0739 258.182 57.523L257.137 58.0108C257.052 57.732 256.901 57.5114 256.684 57.3488C256.475 57.1785 256.196 57.0933 255.848 57.0933C255.384 57.0933 255.031 57.2404 254.791 57.5346C254.559 57.8211 254.443 58.1966 254.443 58.6611V59.7412C254.443 60.2057 254.559 60.5851 254.791 60.8793C255.031 61.1658 255.384 61.309 255.848 61.309C256.22 61.309 256.514 61.22 256.731 61.0419C256.955 60.8561 257.133 60.6122 257.265 60.3102L258.229 60.8212C258.028 61.3167 257.726 61.6961 257.323 61.9593C256.92 62.2226 256.429 62.3542 255.848 62.3542ZM259.434 53.6209H260.7V57.1746H260.758C260.889 56.8494 261.087 56.5784 261.35 56.3616C261.621 56.1449 261.989 56.0365 262.453 56.0365C263.073 56.0365 263.553 56.2416 263.893 56.652C264.242 57.0546 264.416 57.6314 264.416 58.3824V62.2148H263.15V58.5334C263.15 57.5965 262.771 57.1281 262.012 57.1281C261.85 57.1281 261.687 57.1514 261.524 57.1978C261.369 57.2365 261.23 57.2985 261.106 57.3836C260.982 57.4688 260.882 57.5772 260.804 57.7088C260.735 57.8404 260.7 57.9914 260.7 58.1617V62.2148H259.434V53.6209ZM268.54 62.3542C268.106 62.3542 267.719 62.2807 267.378 62.1335C267.038 61.9864 266.747 61.7774 266.507 61.5064C266.267 61.2277 266.082 60.8948 265.95 60.5077C265.826 60.1128 265.764 59.6754 265.764 59.1953C265.764 58.7153 265.826 58.2817 265.95 57.8946C266.082 57.4998 266.267 57.1668 266.507 56.8959C266.747 56.6171 267.038 56.4042 267.378 56.2571C267.719 56.11 268.106 56.0365 268.54 56.0365C268.981 56.0365 269.368 56.1139 269.701 56.2687C270.042 56.4236 270.324 56.6404 270.549 56.9191C270.773 57.1901 270.94 57.5075 271.048 57.8714C271.164 58.2353 271.223 58.6263 271.223 59.0444V59.5205H267.076V59.7179C267.076 60.1825 267.212 60.5657 267.483 60.8677C267.762 61.1619 268.157 61.309 268.668 61.309C269.039 61.309 269.353 61.2277 269.608 61.0651C269.864 60.9025 270.081 60.6819 270.259 60.4031L271.002 61.1348C270.777 61.5064 270.452 61.8045 270.026 62.029C269.6 62.2458 269.105 62.3542 268.54 62.3542ZM268.54 57.0236C268.323 57.0236 268.122 57.0623 267.936 57.1398C267.758 57.2172 267.603 57.3256 267.471 57.4649C267.347 57.6043 267.251 57.7708 267.181 57.9643C267.111 58.1579 267.076 58.3708 267.076 58.6031V58.6843H269.887V58.5682C269.887 58.1037 269.767 57.732 269.527 57.4533C269.287 57.1668 268.958 57.0236 268.54 57.0236ZM272.624 62.2148V56.1758H273.89V57.1746H273.948C274.01 57.0197 274.083 56.8726 274.168 56.7333C274.261 56.5939 274.37 56.4739 274.494 56.3733C274.625 56.2649 274.776 56.1836 274.947 56.1294C275.125 56.0674 275.33 56.0365 275.562 56.0365C275.972 56.0365 276.336 56.1371 276.654 56.3384C276.971 56.5397 277.203 56.8494 277.351 57.2675H277.385C277.494 56.9268 277.703 56.6365 278.012 56.3965C278.322 56.1565 278.721 56.0365 279.209 56.0365C279.813 56.0365 280.281 56.2416 280.614 56.652C280.947 57.0546 281.113 57.6314 281.113 58.3824V62.2148H279.847V58.5334C279.847 58.0688 279.758 57.7204 279.58 57.4882C279.402 57.2481 279.12 57.1281 278.733 57.1281C278.57 57.1281 278.415 57.1514 278.268 57.1978C278.121 57.2365 277.989 57.2985 277.873 57.3836C277.765 57.4688 277.676 57.5772 277.606 57.7088C277.536 57.8404 277.501 57.9914 277.501 58.1617V62.2148H276.236V58.5334C276.236 57.5965 275.868 57.1281 275.132 57.1281C274.977 57.1281 274.823 57.1514 274.668 57.1978C274.521 57.2365 274.389 57.2985 274.273 57.3836C274.157 57.4688 274.064 57.5772 273.994 57.7088C273.925 57.8404 273.89 57.9914 273.89 58.1617V62.2148H272.624ZM287.29 62.2148C286.957 62.2148 286.701 62.1219 286.523 61.9361C286.345 61.7426 286.237 61.4987 286.198 61.2045H286.14C286.024 61.5838 285.811 61.8703 285.501 62.0639C285.192 62.2574 284.816 62.3542 284.375 62.3542C283.748 62.3542 283.264 62.1916 282.923 61.8664C282.59 61.5413 282.424 61.1038 282.424 60.5541C282.424 59.9502 282.64 59.4973 283.074 59.1953C283.515 58.8934 284.158 58.7424 285.002 58.7424H286.094V58.2314C286.094 57.8598 285.993 57.5733 285.792 57.372C285.59 57.1707 285.277 57.0701 284.851 57.0701C284.495 57.0701 284.204 57.1475 283.98 57.3023C283.755 57.4572 283.566 57.6546 283.411 57.8946L282.656 57.2094C282.857 56.8688 283.14 56.59 283.504 56.3733C283.868 56.1487 284.344 56.0365 284.932 56.0365C285.714 56.0365 286.314 56.2184 286.732 56.5823C287.15 56.9462 287.359 57.4688 287.359 58.1501V61.1812H287.998V62.2148H287.29ZM284.735 61.3903C285.13 61.3903 285.455 61.3051 285.71 61.1348C285.966 60.9567 286.094 60.7206 286.094 60.4264V59.5554H285.025C284.15 59.5554 283.713 59.8263 283.713 60.3683V60.5773C283.713 60.8483 283.802 61.0535 283.98 61.1929C284.166 61.3245 284.417 61.3903 284.735 61.3903Z" fill="black"/>
<rect x="208.363" y="77.0133" width="117.274" height="28.5977" rx="2.54045" fill="white"/>
<rect x="208.363" y="77.0133" width="117.274" height="28.5977" rx="2.54045" stroke="#D6D6D6" stroke-width="0.725843"/>
<path d="M215.947 94.3125V87.7073H216.966V94.3125H215.947ZM220.296 94.4446C219.912 94.4446 219.557 94.3502 219.229 94.1615C218.902 93.9728 218.638 93.7023 218.437 93.35C218.242 92.9915 218.144 92.5606 218.144 92.0573V91.9158C218.144 91.4188 218.242 90.991 218.437 90.6325C218.632 90.2739 218.893 90.0003 219.22 89.8115C219.547 89.6228 219.906 89.5285 220.296 89.5285C220.598 89.5285 220.849 89.5662 221.051 89.6417C221.258 89.7172 221.428 89.8147 221.56 89.9342C221.692 90.0474 221.793 90.167 221.862 90.2928H222.013V87.7073H222.985V94.3125H222.032V93.652H221.881C221.761 93.8533 221.579 94.0357 221.334 94.1993C221.095 94.3628 220.749 94.4446 220.296 94.4446ZM220.569 93.5954C220.991 93.5954 221.337 93.4601 221.607 93.1896C221.884 92.9191 222.023 92.5322 222.023 92.029V91.9441C222.023 91.4471 221.887 91.0634 221.617 90.7929C221.346 90.5224 220.997 90.3871 220.569 90.3871C220.154 90.3871 219.808 90.5224 219.531 90.7929C219.261 91.0634 219.126 91.4471 219.126 91.9441V92.029C219.126 92.5322 219.261 92.9191 219.531 93.1896C219.808 93.4601 220.154 93.5954 220.569 93.5954Z" fill="black"/>
<rect x="282.031" y="82.457" width="36.7101" height="17.7101" rx="2.90337" fill="#E5F6FF"/>
<path d="M287.007 88.7461H289.25C289.671 88.7461 290 88.8647 290.237 89.1018C290.479 89.3389 290.6 89.6558 290.6 90.0526C290.6 90.2414 290.573 90.4035 290.52 90.5389C290.467 90.6696 290.399 90.7785 290.317 90.8656C290.235 90.9478 290.14 91.0107 290.034 91.0543C289.927 91.093 289.823 91.1172 289.722 91.1269V91.1704C289.823 91.1753 289.935 91.1995 290.056 91.243C290.181 91.2866 290.298 91.3567 290.404 91.4535C290.51 91.5455 290.6 91.6664 290.673 91.8164C290.745 91.9616 290.781 92.1406 290.781 92.3536C290.781 92.5568 290.748 92.7479 290.68 92.927C290.617 93.106 290.527 93.2609 290.411 93.3915C290.295 93.5222 290.157 93.6262 289.998 93.7036C289.838 93.7762 289.664 93.8125 289.475 93.8125H287.007V88.7461ZM287.827 93.1084H289.235C289.448 93.1084 289.615 93.0528 289.736 92.9415C289.857 92.8302 289.918 92.6705 289.918 92.4624V92.2156C289.918 92.0076 289.857 91.8479 289.736 91.7366C289.615 91.6253 289.448 91.5696 289.235 91.5696H287.827V93.1084ZM287.827 90.8874H289.097C289.301 90.8874 289.458 90.8365 289.569 90.7349C289.681 90.6285 289.736 90.4785 289.736 90.2849V90.0526C289.736 89.8591 289.681 89.7115 289.569 89.6099C289.458 89.5034 289.301 89.4502 289.097 89.4502H287.827V90.8874ZM291.937 93.8125V93.1447H292.626V89.4139H291.937V88.7461H294.143V89.4139H293.447V93.1447H294.143V93.8125H291.937ZM298.796 93.0431H298.767C298.714 93.2899 298.569 93.4955 298.332 93.6601C298.099 93.8198 297.79 93.8996 297.403 93.8996C297.103 93.8996 296.824 93.844 296.568 93.7327C296.311 93.6165 296.089 93.4496 295.9 93.2318C295.716 93.0092 295.571 92.7358 295.465 92.4116C295.363 92.0826 295.312 91.7051 295.312 91.2793C295.312 90.8583 295.365 90.4857 295.472 90.1615C295.578 89.8325 295.728 89.5566 295.922 89.3341C296.115 89.1115 296.348 88.9445 296.619 88.8332C296.89 88.7171 297.192 88.659 297.526 88.659C297.981 88.659 298.365 88.7606 298.68 88.9639C298.995 89.1623 299.239 89.4405 299.413 89.7986L298.745 90.1905C298.649 89.9534 298.499 89.7623 298.295 89.6171C298.092 89.4671 297.836 89.3921 297.526 89.3921C297.124 89.3921 296.8 89.5204 296.553 89.7768C296.311 90.0333 296.19 90.3962 296.19 90.8656V91.693C296.19 92.1624 296.311 92.5253 296.553 92.7818C296.8 93.0383 297.124 93.1665 297.526 93.1665C297.686 93.1665 297.838 93.1471 297.983 93.1084C298.128 93.0649 298.254 93.0044 298.361 92.927C298.472 92.8447 298.559 92.7455 298.622 92.6294C298.69 92.5084 298.724 92.3681 298.724 92.2084V91.8164H297.678V91.1124H299.515V93.8125H298.796V93.0431ZM300.8 93.8125V93.1447H301.49V89.4139H300.8V88.7461H303.007V89.4139H302.31V93.1447H303.007V93.8125H300.8ZM305.765 91.0107L305.206 89.9365H305.184V93.8125H304.4V88.7461H305.315L306.97 91.5479L307.529 92.6221H307.55V88.7461H308.334V93.8125H307.42L305.765 91.0107ZM311.825 89.472V93.8125H311.005V89.472H309.495V88.7461H313.334V89.472H311.825Z" fill="#009FEE"/>
<rect x="208.363" y="111.418" width="117.274" height="28.5977" rx="2.54045" fill="white"/>
<rect x="208.363" y="111.418" width="117.274" height="28.5977" rx="2.54045" stroke="#D6D6D6" stroke-width="0.725843"/>
<path d="M218.4 128.849C217.595 128.849 216.956 128.622 216.484 128.17C216.013 127.71 215.777 127.05 215.777 126.188V124.64C215.777 123.779 216.013 123.121 216.484 122.668C216.956 122.209 217.595 121.98 218.4 121.98C219.193 121.98 219.803 122.2 220.231 122.64C220.665 123.08 220.882 123.681 220.882 124.442V124.499H219.872V124.414C219.872 123.967 219.749 123.603 219.504 123.319C219.265 123.036 218.897 122.895 218.4 122.895C217.897 122.895 217.504 123.049 217.22 123.357C216.937 123.659 216.796 124.081 216.796 124.622V126.207C216.796 126.742 216.937 127.163 217.22 127.471C217.504 127.779 217.897 127.934 218.4 127.934C218.897 127.934 219.265 127.792 219.504 127.509C219.749 127.22 219.872 126.855 219.872 126.414V126.254H220.882V126.386C220.882 127.147 220.665 127.748 220.231 128.188C219.803 128.629 219.193 128.849 218.4 128.849ZM224.218 128.849C223.752 128.849 223.337 128.755 222.972 128.566C222.614 128.371 222.331 128.094 222.123 127.735C221.916 127.377 221.812 126.952 221.812 126.462V126.32C221.812 125.829 221.916 125.408 222.123 125.056C222.331 124.697 222.614 124.42 222.972 124.225C223.337 124.03 223.752 123.933 224.218 123.933C224.683 123.933 225.099 124.03 225.464 124.225C225.828 124.42 226.115 124.697 226.322 125.056C226.53 125.408 226.634 125.829 226.634 126.32V126.462C226.634 126.952 226.53 127.377 226.322 127.735C226.115 128.094 225.828 128.371 225.464 128.566C225.099 128.755 224.683 128.849 224.218 128.849ZM224.218 127.981C224.646 127.981 224.992 127.846 225.256 127.575C225.526 127.298 225.662 126.918 225.662 126.433V126.348C225.662 125.864 225.53 125.487 225.265 125.216C225.001 124.939 224.652 124.801 224.218 124.801C223.797 124.801 223.451 124.939 223.18 125.216C222.916 125.487 222.784 125.864 222.784 126.348V126.433C222.784 126.918 222.916 127.298 223.18 127.575C223.451 127.846 223.797 127.981 224.218 127.981ZM229.75 128.849C229.158 128.849 228.668 128.717 228.278 128.453C227.888 128.188 227.649 127.789 227.561 127.254L228.466 127.037C228.517 127.295 228.602 127.5 228.721 127.651C228.841 127.802 228.989 127.908 229.165 127.971C229.347 128.034 229.542 128.066 229.75 128.066C230.058 128.066 230.294 128.006 230.457 127.886C230.627 127.767 230.712 127.613 230.712 127.424C230.712 127.235 230.634 127.097 230.476 127.009C230.319 126.921 230.086 126.848 229.778 126.792L229.457 126.735C229.143 126.679 228.856 126.597 228.598 126.49C228.341 126.383 228.136 126.235 227.985 126.046C227.834 125.858 227.759 125.616 227.759 125.32C227.759 124.88 227.922 124.54 228.249 124.301C228.576 124.055 229.011 123.933 229.552 123.933C230.074 123.933 230.501 124.052 230.835 124.291C231.174 124.524 231.395 124.842 231.495 125.244L230.589 125.499C230.533 125.216 230.413 125.018 230.231 124.905C230.048 124.785 229.822 124.725 229.552 124.725C229.287 124.725 229.08 124.776 228.929 124.876C228.778 124.971 228.702 125.106 228.702 125.282C228.702 125.471 228.775 125.609 228.919 125.697C229.07 125.785 229.272 125.851 229.523 125.895L229.853 125.952C230.187 126.009 230.492 126.087 230.769 126.188C231.046 126.289 231.263 126.433 231.42 126.622C231.583 126.811 231.665 127.062 231.665 127.377C231.665 127.842 231.492 128.204 231.146 128.462C230.8 128.72 230.335 128.849 229.75 128.849ZM234.445 128.717C234.162 128.717 233.936 128.632 233.766 128.462C233.603 128.292 233.521 128.066 233.521 127.783V124.886H232.237V124.065H233.521V122.527H234.493V124.065H235.88V124.886H234.493V127.613C234.493 127.802 234.581 127.896 234.757 127.896H235.729V128.717H234.445Z" fill="black"/>
<rect x="280.031" y="116.861" width="38.7101" height="17.7101" rx="2.90337" fill="#E5F6FF"/>
<path d="M285.007 123.15H286.8C287.124 123.15 287.417 123.204 287.678 123.31C287.944 123.417 288.169 123.576 288.353 123.789C288.542 123.997 288.687 124.261 288.789 124.58C288.89 124.895 288.941 125.263 288.941 125.684C288.941 126.105 288.89 126.475 288.789 126.794C288.687 127.109 288.542 127.372 288.353 127.585C288.169 127.793 287.944 127.951 287.678 128.057C287.417 128.164 287.124 128.217 286.8 128.217H285.007V123.15ZM286.8 127.491C287.177 127.491 287.482 127.372 287.714 127.135C287.947 126.898 288.063 126.55 288.063 126.09V125.277C288.063 124.817 287.947 124.469 287.714 124.232C287.482 123.995 287.177 123.876 286.8 123.876H285.827V127.491H286.8ZM292.284 128.304C291.955 128.304 291.655 128.248 291.384 128.137C291.118 128.021 290.888 127.854 290.695 127.636C290.506 127.414 290.359 127.14 290.252 126.816C290.15 126.487 290.1 126.109 290.1 125.684C290.1 125.258 290.15 124.883 290.252 124.559C290.359 124.23 290.506 123.956 290.695 123.738C290.888 123.516 291.118 123.349 291.384 123.238C291.655 123.121 291.955 123.063 292.284 123.063C292.614 123.063 292.911 123.121 293.177 123.238C293.448 123.349 293.678 123.516 293.867 123.738C294.06 123.956 294.208 124.23 294.31 124.559C294.416 124.883 294.469 125.258 294.469 125.684C294.469 126.109 294.416 126.487 294.31 126.816C294.208 127.14 294.06 127.414 293.867 127.636C293.678 127.854 293.448 128.021 293.177 128.137C292.911 128.248 292.614 128.304 292.284 128.304ZM292.284 127.571C292.478 127.571 292.655 127.537 292.814 127.469C292.979 127.401 293.117 127.305 293.228 127.179C293.344 127.048 293.434 126.891 293.497 126.707C293.56 126.523 293.591 126.315 293.591 126.083V125.284C293.591 125.052 293.56 124.844 293.497 124.66C293.434 124.476 293.344 124.321 293.228 124.196C293.117 124.065 292.979 123.966 292.814 123.898C292.655 123.83 292.478 123.796 292.284 123.796C292.086 123.796 291.907 123.83 291.747 123.898C291.588 123.966 291.45 124.065 291.334 124.196C291.222 124.321 291.135 124.476 291.072 124.66C291.009 124.844 290.978 125.052 290.978 125.284V126.083C290.978 126.315 291.009 126.523 291.072 126.707C291.135 126.891 291.222 127.048 291.334 127.179C291.45 127.305 291.588 127.401 291.747 127.469C291.907 127.537 292.086 127.571 292.284 127.571ZM296.632 123.15V126.272C296.632 126.702 296.714 127.026 296.878 127.244C297.043 127.462 297.324 127.571 297.72 127.571C298.117 127.571 298.398 127.462 298.562 127.244C298.727 127.026 298.809 126.702 298.809 126.272V123.15H299.615V126.141C299.615 126.513 299.581 126.835 299.513 127.106C299.445 127.377 299.337 127.602 299.187 127.781C299.037 127.955 298.841 128.086 298.599 128.173C298.362 128.26 298.069 128.304 297.72 128.304C297.372 128.304 297.077 128.26 296.835 128.173C296.598 128.086 296.404 127.955 296.254 127.781C296.104 127.602 295.995 127.377 295.928 127.106C295.86 126.835 295.826 126.513 295.826 126.141V123.15H296.632ZM301.194 123.15H303.437C303.858 123.15 304.187 123.269 304.424 123.506C304.666 123.743 304.787 124.06 304.787 124.457C304.787 124.646 304.76 124.808 304.707 124.943C304.654 125.074 304.586 125.183 304.504 125.27C304.421 125.352 304.327 125.415 304.221 125.459C304.114 125.497 304.01 125.522 303.909 125.531V125.575C304.01 125.58 304.121 125.604 304.242 125.647C304.368 125.691 304.484 125.761 304.591 125.858C304.697 125.95 304.787 126.071 304.859 126.221C304.932 126.366 304.968 126.545 304.968 126.758C304.968 126.961 304.934 127.152 304.867 127.331C304.804 127.51 304.714 127.665 304.598 127.796C304.482 127.926 304.344 128.03 304.184 128.108C304.025 128.181 303.85 128.217 303.662 128.217H301.194V123.15ZM302.014 127.513H303.422C303.635 127.513 303.802 127.457 303.923 127.346C304.044 127.234 304.105 127.075 304.105 126.867V126.62C304.105 126.412 304.044 126.252 303.923 126.141C303.802 126.03 303.635 125.974 303.422 125.974H302.014V127.513ZM302.014 125.292H303.284C303.488 125.292 303.645 125.241 303.756 125.139C303.867 125.033 303.923 124.883 303.923 124.689V124.457C303.923 124.263 303.867 124.116 303.756 124.014C303.645 123.908 303.488 123.854 303.284 123.854H302.014V125.292ZM306.341 128.217V123.15H307.162V127.491H309.223V128.217H306.341ZM310.426 128.217V123.15H313.67V123.876H311.246V125.284H313.445V126.01H311.246V127.491H313.67V128.217H310.426Z" fill="#009FEE"/>
<rect x="208.363" y="145.822" width="117.274" height="28.5977" rx="2.54045" fill="white"/>
<rect x="208.363" y="145.822" width="117.274" height="28.5977" rx="2.54045" stroke="#D6D6D6" stroke-width="0.725843"/>
<path d="M215.975 165.008V158.469H216.928V159.139H217.079C217.198 158.932 217.378 158.746 217.617 158.582C217.862 158.419 218.211 158.337 218.664 158.337C219.054 158.337 219.41 158.431 219.73 158.62C220.058 158.809 220.319 159.083 220.514 159.441C220.715 159.793 220.816 160.221 220.816 160.724V160.866C220.816 161.369 220.718 161.8 220.523 162.159C220.328 162.511 220.067 162.781 219.74 162.97C219.413 163.159 219.054 163.253 218.664 163.253C218.362 163.253 218.107 163.215 217.9 163.14C217.692 163.064 217.526 162.97 217.4 162.857C217.274 162.737 217.173 162.615 217.098 162.489H216.947V165.008H215.975ZM218.381 162.404C218.809 162.404 219.158 162.269 219.429 161.998C219.699 161.728 219.834 161.341 219.834 160.838V160.753C219.834 160.256 219.696 159.872 219.419 159.601C219.149 159.331 218.803 159.196 218.381 159.196C217.966 159.196 217.62 159.331 217.343 159.601C217.073 159.872 216.937 160.256 216.937 160.753V160.838C216.937 161.341 217.073 161.728 217.343 161.998C217.62 162.269 217.966 162.404 218.381 162.404ZM223.464 163.253C223.13 163.253 222.831 163.197 222.567 163.083C222.309 162.97 222.102 162.803 221.944 162.583C221.793 162.363 221.718 162.096 221.718 161.781C221.718 161.46 221.793 161.196 221.944 160.989C222.102 160.775 222.312 160.614 222.577 160.507C222.847 160.4 223.152 160.347 223.492 160.347H224.907V160.045C224.907 159.774 224.825 159.557 224.662 159.394C224.498 159.23 224.247 159.149 223.907 159.149C223.574 159.149 223.319 159.227 223.143 159.384C222.967 159.542 222.85 159.746 222.794 159.998L221.888 159.705C221.963 159.454 222.083 159.227 222.246 159.026C222.416 158.818 222.639 158.652 222.916 158.526C223.193 158.4 223.526 158.337 223.916 158.337C224.52 158.337 224.995 158.491 225.341 158.799C225.687 159.108 225.86 159.545 225.86 160.111V162.027C225.86 162.215 225.948 162.31 226.124 162.31H226.521V163.121H225.794C225.574 163.121 225.395 163.064 225.256 162.951C225.118 162.838 225.049 162.684 225.049 162.489V162.461H224.907C224.857 162.555 224.781 162.665 224.681 162.791C224.58 162.917 224.432 163.027 224.237 163.121C224.042 163.209 223.784 163.253 223.464 163.253ZM223.605 162.451C223.995 162.451 224.31 162.341 224.549 162.121C224.788 161.894 224.907 161.586 224.907 161.196V161.102H223.548C223.291 161.102 223.083 161.158 222.926 161.272C222.768 161.379 222.69 161.539 222.69 161.753C222.69 161.967 222.772 162.137 222.935 162.262C223.099 162.388 223.322 162.451 223.605 162.451ZM227.884 165.008V164.159H230.479C230.655 164.159 230.743 164.065 230.743 163.876V162.442H230.592C230.535 162.568 230.447 162.69 230.328 162.81C230.215 162.923 230.06 163.017 229.865 163.093C229.67 163.168 229.425 163.206 229.129 163.206C228.777 163.206 228.463 163.127 228.186 162.97C227.909 162.813 227.692 162.59 227.535 162.3C227.377 162.011 227.299 161.668 227.299 161.272V158.469H228.271V161.196C228.271 161.599 228.371 161.898 228.573 162.093C228.774 162.281 229.054 162.376 229.412 162.376C229.809 162.376 230.126 162.244 230.366 161.979C230.611 161.715 230.734 161.331 230.734 160.828V158.469H231.705V164.074C231.705 164.357 231.62 164.584 231.451 164.754C231.287 164.923 231.061 165.008 230.771 165.008H227.884ZM233.095 164.461V163.583H237.605V164.461H233.095ZM240.918 163.253C240.535 163.253 240.179 163.159 239.852 162.97C239.525 162.781 239.261 162.511 239.06 162.159C238.865 161.8 238.767 161.369 238.767 160.866V160.724C238.767 160.227 238.865 159.8 239.06 159.441C239.255 159.083 239.516 158.809 239.843 158.62C240.17 158.431 240.528 158.337 240.918 158.337C241.22 158.337 241.472 158.375 241.673 158.45C241.881 158.526 242.051 158.623 242.183 158.743C242.315 158.856 242.416 158.976 242.485 159.101H242.636V156.516H243.608V163.121H242.655V162.461H242.504C242.384 162.662 242.202 162.844 241.956 163.008C241.717 163.171 241.371 163.253 240.918 163.253ZM241.192 162.404C241.614 162.404 241.96 162.269 242.23 161.998C242.507 161.728 242.645 161.341 242.645 160.838V160.753C242.645 160.256 242.51 159.872 242.239 159.601C241.969 159.331 241.62 159.196 241.192 159.196C240.777 159.196 240.431 159.331 240.154 159.601C239.884 159.872 239.748 160.256 239.748 160.753V160.838C239.748 161.341 239.884 161.728 240.154 161.998C240.431 162.269 240.777 162.404 241.192 162.404ZM246.482 163.253C246.149 163.253 245.85 163.197 245.586 163.083C245.328 162.97 245.12 162.803 244.963 162.583C244.812 162.363 244.736 162.096 244.736 161.781C244.736 161.46 244.812 161.196 244.963 160.989C245.12 160.775 245.331 160.614 245.595 160.507C245.866 160.4 246.171 160.347 246.51 160.347H247.926V160.045C247.926 159.774 247.844 159.557 247.68 159.394C247.517 159.23 247.265 159.149 246.926 159.149C246.592 159.149 246.337 159.227 246.161 159.384C245.985 159.542 245.869 159.746 245.812 159.998L244.906 159.705C244.982 159.454 245.101 159.227 245.265 159.026C245.435 158.818 245.658 158.652 245.935 158.526C246.212 158.4 246.545 158.337 246.935 158.337C247.539 158.337 248.014 158.491 248.36 158.799C248.706 159.108 248.879 159.545 248.879 160.111V162.027C248.879 162.215 248.967 162.31 249.143 162.31H249.539V163.121H248.813C248.593 163.121 248.413 163.064 248.275 162.951C248.137 162.838 248.067 162.684 248.067 162.489V162.461H247.926C247.875 162.555 247.8 162.665 247.699 162.791C247.599 162.917 247.451 163.027 247.256 163.121C247.061 163.209 246.803 163.253 246.482 163.253ZM246.624 162.451C247.014 162.451 247.328 162.341 247.567 162.121C247.806 161.894 247.926 161.586 247.926 161.196V161.102H246.567C246.309 161.102 246.102 161.158 245.944 161.272C245.787 161.379 245.708 161.539 245.708 161.753C245.708 161.967 245.79 162.137 245.954 162.262C246.117 162.388 246.341 162.451 246.624 162.451ZM251.908 163.121C251.624 163.121 251.398 163.036 251.228 162.866C251.065 162.696 250.983 162.47 250.983 162.187V159.29H249.699V158.469H250.983V156.931H251.955V158.469H253.342V159.29H251.955V162.017C251.955 162.206 252.043 162.3 252.219 162.3H253.191V163.121H251.908ZM256.45 163.253C255.978 163.253 255.566 163.156 255.214 162.961C254.862 162.759 254.585 162.479 254.384 162.121C254.189 161.756 254.091 161.335 254.091 160.856V160.743C254.091 160.259 254.189 159.837 254.384 159.479C254.579 159.114 254.849 158.834 255.195 158.639C255.548 158.438 255.953 158.337 256.413 158.337C256.859 158.337 257.249 158.438 257.583 158.639C257.922 158.834 258.186 159.108 258.375 159.46C258.564 159.812 258.658 160.224 258.658 160.696V161.064H255.082C255.095 161.473 255.23 161.8 255.488 162.045C255.752 162.284 256.079 162.404 256.469 162.404C256.834 162.404 257.108 162.322 257.29 162.159C257.479 161.995 257.623 161.806 257.724 161.592L258.526 162.008C258.438 162.184 258.309 162.369 258.139 162.564C257.976 162.759 257.759 162.923 257.488 163.055C257.218 163.187 256.872 163.253 256.45 163.253ZM255.091 160.319H257.667C257.642 159.966 257.517 159.693 257.29 159.498C257.064 159.296 256.768 159.196 256.403 159.196C256.038 159.196 255.739 159.296 255.507 159.498C255.28 159.693 255.142 159.966 255.091 160.319Z" fill="black"/>
<rect x="266.031" y="151.266" width="52.7101" height="17.7101" rx="2.90337" fill="#E5F6FF"/>
<path d="M272.887 158.281V162.621H272.067V158.281H270.557V157.555H274.397V158.281H272.887ZM275.299 162.621V161.953H275.988V158.222H275.299V157.555H277.505V158.222H276.809V161.953H277.505V162.621H275.299ZM282.775 158.745H282.739L282.34 159.565L281.229 161.59L280.119 159.565L279.719 158.745H279.683V162.621H278.899V157.555H279.872L281.229 160.131H281.273L282.63 157.555H283.559V162.621H282.775V158.745ZM285.174 162.621V157.555H288.418V158.281H285.994V159.689H288.193V160.415H285.994V161.895H288.418V162.621H285.174ZM291.356 162.708C290.93 162.708 290.568 162.631 290.267 162.476C289.972 162.321 289.718 162.113 289.505 161.852L290.072 161.322C290.251 161.54 290.447 161.704 290.659 161.815C290.877 161.927 291.124 161.982 291.4 161.982C291.724 161.982 291.968 161.91 292.133 161.765C292.297 161.619 292.38 161.423 292.38 161.177C292.38 160.978 292.322 160.821 292.205 160.705C292.089 160.589 291.884 160.502 291.589 160.444L291.139 160.364C290.645 160.272 290.275 160.11 290.028 159.877C289.781 159.645 289.658 159.326 289.658 158.919C289.658 158.697 289.699 158.496 289.781 158.317C289.868 158.133 289.987 157.981 290.137 157.86C290.292 157.734 290.478 157.637 290.696 157.569C290.913 157.501 291.158 157.468 291.429 157.468C291.811 157.468 292.143 157.535 292.423 157.671C292.704 157.801 292.943 157.993 293.142 158.244L292.568 158.752C292.438 158.583 292.278 158.447 292.089 158.346C291.901 158.244 291.666 158.193 291.385 158.193C291.095 158.193 290.87 158.252 290.71 158.368C290.551 158.484 290.471 158.653 290.471 158.876C290.471 159.089 290.536 159.248 290.667 159.355C290.797 159.456 291.001 159.534 291.276 159.587L291.726 159.681C292.235 159.778 292.605 159.943 292.837 160.175C293.074 160.407 293.193 160.727 293.193 161.133C293.193 161.37 293.152 161.586 293.069 161.779C292.987 161.973 292.866 162.14 292.706 162.28C292.551 162.415 292.36 162.522 292.133 162.599C291.905 162.672 291.647 162.708 291.356 162.708ZM296.3 158.281V162.621H295.479V158.281H293.97V157.555H297.809V158.281H296.3ZM301.662 162.621L301.204 161.249H299.31L298.867 162.621H298.032L299.76 157.555H300.791L302.518 162.621H301.662ZM300.275 158.31H300.239L299.506 160.545H301.001L300.275 158.31ZM307.542 158.745H307.505L307.106 159.565L305.996 161.59L304.885 159.565L304.486 158.745H304.45V162.621H303.666V157.555H304.638L305.996 160.131H306.039L307.397 157.555H308.326V162.621H307.542V158.745ZM309.94 162.621V157.555H312.118C312.587 157.555 312.95 157.693 313.207 157.968C313.463 158.244 313.591 158.614 313.591 159.079C313.591 159.544 313.463 159.914 313.207 160.19C312.95 160.465 312.587 160.603 312.118 160.603H310.76V162.621H309.94ZM310.76 159.885H312.067C312.275 159.885 312.437 159.831 312.553 159.725C312.669 159.614 312.728 159.456 312.728 159.253V158.905C312.728 158.702 312.669 158.547 312.553 158.44C312.437 158.329 312.275 158.273 312.067 158.273H310.76V159.885Z" fill="#009FEE"/>
</g>
<path d="M161 112C161 114.209 162.791 116 165 116C167.209 116 169 114.209 169 112C169 109.791 167.209 108 165 108C162.791 108 161 109.791 161 112ZM196.417 112L188.917 107.67L188.917 116.33L196.417 112ZM165 112L165 112.75L189.667 112.75L189.667 112L189.667 111.25L165 111.25L165 112Z" fill="#009FEE"/>
<defs>
<filter id="filter0_d_1118_3040" x="4.71838" y="29.7184" width="162.563" height="164.563" filterUnits="userSpaceOnUse" color-interpolation-filters="sRGB">
<feFlood flood-opacity="0" result="BackgroundImageFix"/>
<feColorMatrix in="SourceAlpha" type="matrix" values="0 0 0 0 0 0 0 0 0 0 0 0 0 0 0 0 0 0 127 0" result="hardAlpha"/>
<feOffset/>
<feGaussianBlur stdDeviation="5.14081"/>
<feComposite in2="hardAlpha" operator="out"/>
<feColorMatrix type="matrix" values="0 0 0 0 0 0 0 0 0 0 0 0 0 0 0 0 0 0 0.08 0"/>
<feBlend mode="normal" in2="BackgroundImageFix" result="effect1_dropShadow_1118_3040"/>
<feBlend mode="normal" in="SourceGraphic" in2="effect1_dropShadow_1118_3040" result="shape"/>
</filter>
<filter id="filter1_d_1118_3040" x="185.718" y="29.7184" width="162.563" height="164.563" filterUnits="userSpaceOnUse" color-interpolation-filters="sRGB">
<feFlood flood-opacity="0" result="BackgroundImageFix"/>
<feColorMatrix in="SourceAlpha" type="matrix" values="0 0 0 0 0 0 0 0 0 0 0 0 0 0 0 0 0 0 127 0" result="hardAlpha"/>
<feOffset/>
<feGaussianBlur stdDeviation="5.14081"/>
<feComposite in2="hardAlpha" operator="out"/>
<feColorMatrix type="matrix" values="0 0 0 0 0 0 0 0 0 0 0 0 0 0 0 0 0 0 0.08 0"/>
<feBlend mode="normal" in2="BackgroundImageFix" result="effect1_dropShadow_1118_3040"/>
<feBlend mode="normal" in="SourceGraphic" in2="effect1_dropShadow_1118_3040" result="shape"/>
</filter>
</defs>
</svg>
