<svg width="354" height="218" viewBox="0 0 354 218" fill="none" xmlns="http://www.w3.org/2000/svg">
<path d="M0 24C0 10.7452 10.7452 0 24 0H330C343.255 0 354 10.7452 354 24V194C354 207.255 343.255 218 330 218H24C10.7452 218 0 207.255 0 194V24Z" fill="#F3F3F3"/>
<g filter="url(#filter0_d_1118_3078)">
<rect x="91" y="76.1289" width="58.9325" height="58.9325" rx="16.8378" fill="white"/>
<rect x="91.4508" y="76.5797" width="58.0308" height="58.0308" rx="16.387" stroke="white" stroke-width="0.901668"/>
<path d="M126.723 96.0214C124.91 95.0338 122.528 94.4902 120.014 94.4902C117.501 94.4902 115.119 95.0338 113.306 96.0214C111.27 97.1333 110.148 98.6911 110.148 100.41V109.881C110.148 111.6 111.27 113.158 113.306 114.269C115.116 115.256 117.498 115.801 120.014 115.801C122.531 115.801 124.91 115.257 126.723 114.269C128.761 113.158 129.88 111.6 129.88 109.881V100.41C129.88 98.6911 128.759 97.1333 126.723 96.0214ZM127.512 105.145C127.512 106.823 124.433 108.697 120.014 108.697C115.595 108.697 112.516 106.823 112.516 105.145V104.311C112.771 104.487 113.034 104.65 113.306 104.798C115.116 105.785 117.498 106.329 120.014 106.329C122.531 106.329 124.91 105.786 126.723 104.798C126.995 104.65 127.258 104.487 127.512 104.311V105.145ZM120.014 96.8581C124.433 96.8581 127.512 98.7326 127.512 100.41C127.512 102.087 124.433 103.962 120.014 103.962C115.595 103.962 112.516 102.087 112.516 100.41C112.516 98.7326 115.595 96.8581 120.014 96.8581ZM120.014 113.433C115.595 113.433 112.516 111.558 112.516 109.881V109.046C112.771 109.223 113.034 109.385 113.306 109.534C115.116 110.52 117.498 111.065 120.014 111.065C122.531 111.065 124.91 110.521 126.723 109.534C126.995 109.385 127.258 109.223 127.512 109.046V109.881C127.512 111.558 124.433 113.433 120.014 113.433Z" fill="#009FEE"/>
</g>
<path d="M149.938 105.596H225.708" stroke="#009FEE" stroke-width="2.10473"/>
<path d="M224.125 37.668H204.13C199.48 37.668 195.711 41.4372 195.711 46.0869V160.956C195.711 165.606 199.48 169.375 204.13 169.375H224.125" stroke="#009FEE" stroke-width="2.10473"/>
<g filter="url(#filter1_d_1118_3078)">
<rect x="224.648" y="20.1309" width="33.6757" height="33.6757" rx="8.41892" fill="white"/>
<rect x="225.099" y="20.5817" width="32.774" height="32.774" rx="7.96809" stroke="white" stroke-width="0.901668"/>
<path d="M245.964 30.888C244.755 30.2296 243.167 29.8672 241.491 29.8672C239.815 29.8672 238.228 30.2296 237.019 30.888C235.662 31.6292 234.914 32.6678 234.914 33.8136V40.1277C234.914 41.2735 235.662 42.3121 237.019 43.0533C238.226 43.7111 239.813 44.0741 241.491 44.0741C243.169 44.0741 244.755 43.7117 245.964 43.0533C247.323 42.3121 248.069 41.2735 248.069 40.1277V33.8136C248.069 32.6678 247.321 31.6292 245.964 30.888ZM246.49 36.9707C246.49 38.0888 244.437 39.3385 241.491 39.3385C238.545 39.3385 236.493 38.0888 236.493 36.9707V36.4142C236.662 36.5317 236.838 36.6402 237.019 36.7391C238.226 37.3969 239.813 37.7599 241.491 37.7599C243.169 37.7599 244.755 37.3975 245.964 36.7391C246.145 36.6402 246.321 36.5317 246.49 36.4142V36.9707ZM241.491 31.4457C244.437 31.4457 246.49 32.6954 246.49 33.8136C246.49 34.9317 244.437 36.1814 241.491 36.1814C238.545 36.1814 236.493 34.9317 236.493 33.8136C236.493 32.6954 238.545 31.4457 241.491 31.4457ZM241.491 42.4956C238.545 42.4956 236.493 41.2459 236.493 40.1277V39.5713C236.662 39.6888 236.838 39.7973 237.019 39.8962C238.226 40.554 239.813 40.917 241.491 40.917C243.169 40.917 244.755 40.5546 245.964 39.8962C246.145 39.7973 246.321 39.6888 246.49 39.5713V40.1277C246.49 41.2459 244.437 42.4956 241.491 42.4956Z" fill="#009FEE"/>
</g>
<g filter="url(#filter2_d_1118_3078)">
<rect x="224.648" y="83.7188" width="33.6757" height="33.6757" rx="8.41892" fill="white"/>
<rect x="225.099" y="84.1696" width="32.774" height="32.774" rx="7.96809" stroke="white" stroke-width="0.901668"/>
<path d="M245.964 94.4759C244.755 93.8175 243.167 93.4551 241.491 93.4551C239.815 93.4551 238.228 93.8175 237.019 94.4759C235.662 95.2171 234.914 96.2557 234.914 97.4014V103.716C234.914 104.861 235.662 105.9 237.019 106.641C238.226 107.299 239.813 107.662 241.491 107.662C243.169 107.662 244.755 107.3 245.964 106.641C247.323 105.9 248.069 104.861 248.069 103.716V97.4014C248.069 96.2557 247.321 95.2171 245.964 94.4759ZM246.49 100.559C246.49 101.677 244.437 102.926 241.491 102.926C238.545 102.926 236.493 101.677 236.493 100.559V100.002C236.662 100.12 236.838 100.228 237.019 100.327C238.226 100.985 239.813 101.348 241.491 101.348C243.169 101.348 244.755 100.985 245.964 100.327C246.145 100.228 246.321 100.12 246.49 100.002V100.559ZM241.491 95.0336C244.437 95.0336 246.49 96.2833 246.49 97.4014C246.49 98.5196 244.437 99.7693 241.491 99.7693C238.545 99.7693 236.493 98.5196 236.493 97.4014C236.493 96.2833 238.545 95.0336 241.491 95.0336ZM241.491 106.083C238.545 106.083 236.493 104.834 236.493 103.716V103.159C236.662 103.277 236.838 103.385 237.019 103.484C238.226 104.142 239.813 104.505 241.491 104.505C243.169 104.505 244.755 104.143 245.964 103.484C246.145 103.385 246.321 103.277 246.49 103.159V103.716C246.49 104.834 244.437 106.083 241.491 106.083Z" fill="#009FEE"/>
</g>
<g filter="url(#filter3_d_1118_3078)">
<rect x="224.648" y="147.309" width="33.6757" height="33.6757" rx="8.41892" fill="white"/>
<rect x="225.099" y="147.759" width="32.774" height="32.774" rx="7.96809" stroke="white" stroke-width="0.901668"/>
<path d="M245.964 158.066C244.755 157.407 243.167 157.045 241.491 157.045C239.815 157.045 238.228 157.407 237.019 158.066C235.662 158.807 234.914 159.846 234.914 160.991V167.305C234.914 168.451 235.662 169.49 237.019 170.231C238.226 170.889 239.813 171.252 241.491 171.252C243.169 171.252 244.755 170.889 245.964 170.231C247.323 169.49 248.069 168.451 248.069 167.305V160.991C248.069 159.846 247.321 158.807 245.964 158.066ZM246.49 164.148C246.49 165.267 244.437 166.516 241.491 166.516C238.545 166.516 236.493 165.267 236.493 164.148V163.592C236.662 163.709 236.838 163.818 237.019 163.917C238.226 164.575 239.813 164.938 241.491 164.938C243.169 164.938 244.755 164.575 245.964 163.917C246.145 163.818 246.321 163.709 246.49 163.592V164.148ZM241.491 158.623C244.437 158.623 246.49 159.873 246.49 160.991C246.49 162.109 244.437 163.359 241.491 163.359C238.545 163.359 236.493 162.109 236.493 160.991C236.493 159.873 238.545 158.623 241.491 158.623ZM241.491 169.673C238.545 169.673 236.493 168.424 236.493 167.305V166.749C236.662 166.867 236.838 166.975 237.019 167.074C238.226 167.732 239.813 168.095 241.491 168.095C243.169 168.095 244.755 167.732 245.964 167.074C246.145 166.975 246.321 166.867 246.49 166.749V167.305C246.49 168.424 244.437 169.673 241.491 169.673Z" fill="#009FEE"/>
</g>
<path d="M93.3944 151.719V150.642H94.4488V144.943H93.3944V143.867H96.5353C97.5822 143.867 98.3824 144.132 98.9358 144.663C99.4967 145.194 99.7771 145.994 99.7771 147.064V148.533C99.7771 149.602 99.4967 150.403 98.9358 150.934C98.3824 151.457 97.5822 151.719 96.5353 151.719H93.3944ZM95.6715 150.619H96.5465C97.227 150.619 97.7318 150.447 98.0608 150.103C98.3899 149.759 98.5544 149.247 98.5544 148.567V147.019C98.5544 146.331 98.3899 145.818 98.0608 145.482C97.7318 145.145 97.227 144.977 96.5465 144.977H95.6715V150.619ZM102.896 151.876C102.5 151.876 102.144 151.808 101.83 151.674C101.524 151.539 101.277 151.341 101.09 151.079C100.91 150.818 100.821 150.5 100.821 150.126C100.821 149.744 100.91 149.43 101.09 149.184C101.277 148.929 101.527 148.739 101.842 148.612C102.163 148.484 102.526 148.421 102.93 148.421H104.612V148.062C104.612 147.74 104.515 147.482 104.321 147.288C104.126 147.093 103.827 146.996 103.423 146.996C103.027 146.996 102.724 147.09 102.515 147.277C102.305 147.464 102.167 147.707 102.1 148.006L101.023 147.658C101.112 147.359 101.254 147.09 101.449 146.85C101.651 146.604 101.916 146.405 102.245 146.256C102.574 146.106 102.971 146.032 103.434 146.032C104.152 146.032 104.717 146.215 105.128 146.581C105.54 146.948 105.745 147.467 105.745 148.14V150.418C105.745 150.642 105.85 150.754 106.059 150.754H106.53V151.719H105.667C105.405 151.719 105.192 151.651 105.027 151.517C104.863 151.382 104.78 151.199 104.78 150.967V150.934H104.612C104.552 151.046 104.463 151.177 104.343 151.326C104.223 151.476 104.048 151.607 103.816 151.719C103.584 151.823 103.277 151.876 102.896 151.876ZM103.064 150.922C103.528 150.922 103.902 150.791 104.186 150.53C104.47 150.26 104.612 149.894 104.612 149.43V149.318H102.997C102.69 149.318 102.444 149.386 102.257 149.52C102.07 149.647 101.976 149.838 101.976 150.092C101.976 150.346 102.073 150.548 102.268 150.698C102.462 150.848 102.728 150.922 103.064 150.922ZM109.346 151.719C109.009 151.719 108.74 151.618 108.538 151.416C108.344 151.214 108.246 150.945 108.246 150.608V147.164H106.721V146.189H108.246V144.36H109.402V146.189H111.051V147.164H109.402V150.406C109.402 150.631 109.506 150.743 109.716 150.743H110.871V151.719H109.346ZM114.113 151.876C113.717 151.876 113.362 151.808 113.048 151.674C112.741 151.539 112.494 151.341 112.307 151.079C112.128 150.818 112.038 150.5 112.038 150.126C112.038 149.744 112.128 149.43 112.307 149.184C112.494 148.929 112.745 148.739 113.059 148.612C113.38 148.484 113.743 148.421 114.147 148.421H115.83V148.062C115.83 147.74 115.732 147.482 115.538 147.288C115.344 147.093 115.044 146.996 114.641 146.996C114.244 146.996 113.941 147.09 113.732 147.277C113.523 147.464 113.384 147.707 113.317 148.006L112.24 147.658C112.33 147.359 112.472 147.09 112.666 146.85C112.868 146.604 113.134 146.405 113.463 146.256C113.792 146.106 114.188 146.032 114.652 146.032C115.37 146.032 115.934 146.215 116.346 146.581C116.757 146.948 116.963 147.467 116.963 148.14V150.418C116.963 150.642 117.067 150.754 117.277 150.754H117.748V151.719H116.884C116.622 151.719 116.409 151.651 116.245 151.517C116.08 151.382 115.998 151.199 115.998 150.967V150.934H115.83C115.77 151.046 115.68 151.177 115.56 151.326C115.441 151.476 115.265 151.607 115.033 151.719C114.801 151.823 114.495 151.876 114.113 151.876ZM114.282 150.922C114.745 150.922 115.119 150.791 115.403 150.53C115.688 150.26 115.83 149.894 115.83 149.43V149.318H114.214C113.908 149.318 113.661 149.386 113.474 149.52C113.287 149.647 113.194 149.838 113.194 150.092C113.194 150.346 113.291 150.548 113.485 150.698C113.68 150.848 113.945 150.922 114.282 150.922ZM122.068 151.876C121.53 151.876 121.115 151.779 120.823 151.584C120.539 151.39 120.326 151.173 120.184 150.934H120.004V151.719H118.871V143.867H120.027V146.94H120.206C120.296 146.791 120.415 146.648 120.565 146.514C120.715 146.372 120.913 146.256 121.16 146.166C121.406 146.076 121.709 146.032 122.068 146.032C122.532 146.032 122.958 146.144 123.347 146.368C123.736 146.592 124.046 146.918 124.278 147.344C124.51 147.77 124.626 148.279 124.626 148.87V149.038C124.626 149.636 124.506 150.148 124.267 150.575C124.035 150.993 123.725 151.315 123.336 151.539C122.954 151.764 122.532 151.876 122.068 151.876ZM121.732 150.866C122.233 150.866 122.644 150.705 122.966 150.384C123.295 150.062 123.459 149.602 123.459 149.004V148.903C123.459 148.312 123.298 147.856 122.977 147.535C122.655 147.213 122.24 147.052 121.732 147.052C121.238 147.052 120.827 147.213 120.498 147.535C120.176 147.856 120.015 148.312 120.015 148.903V149.004C120.015 149.602 120.176 150.062 120.498 150.384C120.827 150.705 121.238 150.866 121.732 150.866ZM127.774 151.876C127.377 151.876 127.022 151.808 126.708 151.674C126.401 151.539 126.155 151.341 125.968 151.079C125.788 150.818 125.698 150.5 125.698 150.126C125.698 149.744 125.788 149.43 125.968 149.184C126.155 148.929 126.405 148.739 126.719 148.612C127.041 148.484 127.403 148.421 127.807 148.421H129.49V148.062C129.49 147.74 129.393 147.482 129.198 147.288C129.004 147.093 128.705 146.996 128.301 146.996C127.904 146.996 127.602 147.09 127.392 147.277C127.183 147.464 127.044 147.707 126.977 148.006L125.9 147.658C125.99 147.359 126.132 147.09 126.327 146.85C126.528 146.604 126.794 146.405 127.123 146.256C127.452 146.106 127.848 146.032 128.312 146.032C129.03 146.032 129.595 146.215 130.006 146.581C130.417 146.948 130.623 147.467 130.623 148.14V150.418C130.623 150.642 130.728 150.754 130.937 150.754H131.408V151.719H130.544C130.283 151.719 130.069 151.651 129.905 151.517C129.74 151.382 129.658 151.199 129.658 150.967V150.934H129.49C129.43 151.046 129.34 151.177 129.221 151.326C129.101 151.476 128.925 151.607 128.693 151.719C128.462 151.823 128.155 151.876 127.774 151.876ZM127.942 150.922C128.406 150.922 128.779 150.791 129.064 150.53C129.348 150.26 129.49 149.894 129.49 149.43V149.318H127.875C127.568 149.318 127.321 149.386 127.134 149.52C126.947 149.647 126.854 149.838 126.854 150.092C126.854 150.346 126.951 150.548 127.145 150.698C127.34 150.848 127.605 150.922 127.942 150.922ZM134.754 151.876C134.051 151.876 133.467 151.719 133.004 151.405C132.54 151.091 132.256 150.616 132.151 149.98L133.228 149.722C133.288 150.029 133.389 150.272 133.531 150.451C133.673 150.631 133.849 150.758 134.058 150.833C134.275 150.907 134.507 150.945 134.754 150.945C135.12 150.945 135.4 150.874 135.595 150.732C135.797 150.59 135.898 150.406 135.898 150.182C135.898 149.958 135.804 149.793 135.617 149.688C135.43 149.584 135.154 149.498 134.787 149.43L134.406 149.363C134.032 149.296 133.692 149.199 133.385 149.071C133.078 148.944 132.835 148.769 132.656 148.544C132.476 148.32 132.387 148.032 132.387 147.68C132.387 147.157 132.581 146.753 132.97 146.469C133.359 146.177 133.875 146.032 134.518 146.032C135.139 146.032 135.647 146.174 136.044 146.458C136.447 146.734 136.709 147.112 136.829 147.591L135.752 147.894C135.685 147.557 135.543 147.322 135.326 147.187C135.109 147.045 134.84 146.974 134.518 146.974C134.204 146.974 133.957 147.034 133.778 147.153C133.598 147.265 133.508 147.426 133.508 147.636C133.508 147.86 133.594 148.024 133.766 148.129C133.946 148.234 134.185 148.312 134.484 148.365L134.877 148.432C135.273 148.499 135.636 148.593 135.965 148.712C136.294 148.832 136.552 149.004 136.739 149.228C136.933 149.453 137.031 149.752 137.031 150.126C137.031 150.679 136.825 151.109 136.414 151.416C136.002 151.722 135.449 151.876 134.754 151.876ZM140.916 151.876C140.355 151.876 139.866 151.76 139.447 151.528C139.028 151.289 138.699 150.956 138.46 150.53C138.228 150.096 138.112 149.595 138.112 149.027V148.892C138.112 148.316 138.228 147.815 138.46 147.389C138.691 146.955 139.013 146.622 139.424 146.39C139.843 146.151 140.325 146.032 140.871 146.032C141.402 146.032 141.866 146.151 142.262 146.39C142.666 146.622 142.98 146.948 143.205 147.366C143.429 147.785 143.541 148.275 143.541 148.836V149.273H139.29C139.305 149.759 139.465 150.148 139.772 150.44C140.086 150.724 140.475 150.866 140.939 150.866C141.372 150.866 141.698 150.769 141.915 150.575C142.139 150.38 142.311 150.156 142.431 149.902L143.384 150.395C143.279 150.604 143.126 150.825 142.924 151.057C142.73 151.289 142.472 151.483 142.15 151.64C141.829 151.797 141.417 151.876 140.916 151.876ZM139.301 148.387H142.363C142.333 147.968 142.184 147.643 141.915 147.411C141.645 147.172 141.294 147.052 140.86 147.052C140.426 147.052 140.071 147.172 139.795 147.411C139.525 147.643 139.361 147.968 139.301 148.387Z" fill="black"/>
<path d="M224.249 66.3906V60.7906H226.393C226.729 60.7906 227.028 60.8573 227.289 60.9906C227.556 61.1186 227.767 61.3026 227.921 61.5426C228.076 61.7826 228.153 62.0733 228.153 62.4146V62.5186C228.153 62.8546 228.073 63.1453 227.913 63.3906C227.759 63.6306 227.548 63.8146 227.281 63.9426C227.015 64.0706 226.719 64.1346 226.393 64.1346H224.921V66.3906H224.249ZM224.921 63.5266H226.321C226.679 63.5266 226.961 63.4386 227.169 63.2626C227.377 63.0813 227.481 62.828 227.481 62.5026V62.4226C227.481 62.0973 227.377 61.8466 227.169 61.6706C226.967 61.4893 226.684 61.3986 226.321 61.3986H224.921V63.5266ZM230.192 66.5026C229.92 66.5026 229.672 66.4546 229.448 66.3586C229.224 66.2626 229.048 66.124 228.92 65.9426C228.792 65.7613 228.728 65.54 228.728 65.2786C228.728 65.012 228.792 64.7933 228.92 64.6226C229.048 64.4466 229.224 64.316 229.448 64.2306C229.672 64.14 229.923 64.0946 230.2 64.0946H231.52V63.8066C231.52 63.5293 231.437 63.3106 231.272 63.1506C231.112 62.9906 230.872 62.9106 230.552 62.9106C230.237 62.9106 229.992 62.988 229.816 63.1426C229.64 63.292 229.52 63.4946 229.456 63.7506L228.864 63.5586C228.928 63.34 229.029 63.1426 229.168 62.9666C229.307 62.7853 229.491 62.6413 229.72 62.5346C229.955 62.4226 230.235 62.3666 230.56 62.3666C231.061 62.3666 231.451 62.4973 231.728 62.7586C232.005 63.0146 232.144 63.3773 232.144 63.8466V65.6146C232.144 65.7746 232.219 65.8546 232.368 65.8546H232.728V66.3906H232.176C232 66.3906 231.859 66.3426 231.752 66.2466C231.645 66.1453 231.592 66.012 231.592 65.8466V65.8066H231.496C231.437 65.908 231.357 66.0146 231.256 66.1266C231.16 66.2333 231.027 66.3213 230.856 66.3906C230.685 66.4653 230.464 66.5026 230.192 66.5026ZM230.264 65.9586C230.637 65.9586 230.939 65.8493 231.168 65.6306C231.403 65.4066 231.52 65.0946 231.52 64.6946V64.6066H230.224C229.973 64.6066 229.765 64.6626 229.6 64.7746C229.44 64.8813 229.36 65.044 229.36 65.2626C229.36 65.4813 229.443 65.652 229.608 65.7746C229.779 65.8973 229.997 65.9586 230.264 65.9586ZM233.594 66.3906V62.4786H234.21V62.9586H234.322C234.391 62.788 234.498 62.6626 234.642 62.5826C234.786 62.5026 234.975 62.4626 235.21 62.4626H235.674V63.0386H235.17C234.887 63.0386 234.658 63.1186 234.482 63.2786C234.311 63.4333 234.226 63.676 234.226 64.0066V66.3906H233.594ZM238.049 66.3906C237.825 66.3906 237.652 66.3293 237.529 66.2066C237.412 66.084 237.353 65.916 237.353 65.7026V63.0306H236.177V62.4786H237.353V61.0866H237.985V62.4786H239.265V63.0306H237.985V65.6066C237.985 65.7666 238.063 65.8466 238.217 65.8466H239.089V66.3906H238.049ZM240.289 66.3906V62.4786H240.921V66.3906H240.289ZM240.609 61.8706C240.47 61.8706 240.353 61.8253 240.257 61.7346C240.166 61.644 240.121 61.5293 240.121 61.3906C240.121 61.2466 240.166 61.1293 240.257 61.0386C240.353 60.948 240.47 60.9026 240.609 60.9026C240.748 60.9026 240.862 60.948 240.953 61.0386C241.044 61.1293 241.089 61.2466 241.089 61.3906C241.089 61.5293 241.044 61.644 240.953 61.7346C240.862 61.8253 240.748 61.8706 240.609 61.8706ZM243.69 66.3906C243.466 66.3906 243.293 66.3293 243.17 66.2066C243.053 66.084 242.994 65.916 242.994 65.7026V63.0306H241.818V62.4786H242.994V61.0866H243.626V62.4786H244.906V63.0306H243.626V65.6066C243.626 65.7666 243.703 65.8466 243.858 65.8466H244.73V66.3906H243.69ZM245.93 66.3906V62.4786H246.562V66.3906H245.93ZM246.25 61.8706C246.111 61.8706 245.994 61.8253 245.898 61.7346C245.807 61.644 245.762 61.5293 245.762 61.3906C245.762 61.2466 245.807 61.1293 245.898 61.0386C245.994 60.948 246.111 60.9026 246.25 60.9026C246.388 60.9026 246.503 60.948 246.594 61.0386C246.684 61.1293 246.73 61.2466 246.73 61.3906C246.73 61.5293 246.684 61.644 246.594 61.7346C246.503 61.8253 246.388 61.8706 246.25 61.8706ZM249.699 66.5026C249.304 66.5026 248.955 66.42 248.651 66.2546C248.352 66.0893 248.117 65.8573 247.947 65.5586C247.781 65.2546 247.699 64.8973 247.699 64.4866V64.3826C247.699 63.9773 247.781 63.6226 247.947 63.3186C248.117 63.0146 248.352 62.78 248.651 62.6146C248.955 62.4493 249.304 62.3666 249.699 62.3666C250.093 62.3666 250.44 62.4493 250.739 62.6146C251.043 62.78 251.277 63.0146 251.443 63.3186C251.613 63.6226 251.699 63.9773 251.699 64.3826V64.4866C251.699 64.8973 251.613 65.2546 251.443 65.5586C251.277 65.8573 251.043 66.0893 250.739 66.2546C250.44 66.42 250.093 66.5026 249.699 66.5026ZM249.699 65.9346C250.115 65.9346 250.445 65.804 250.691 65.5426C250.941 65.276 251.067 64.9186 251.067 64.4706V64.3986C251.067 63.9506 250.941 63.596 250.691 63.3346C250.445 63.068 250.115 62.9346 249.699 62.9346C249.288 62.9346 248.957 63.068 248.707 63.3346C248.456 63.596 248.331 63.9506 248.331 64.3986V64.4706C248.331 64.9186 248.456 65.276 248.707 65.5426C248.957 65.804 249.288 65.9346 249.699 65.9346ZM252.836 66.3906V62.4786H253.452V63.1426H253.564C253.649 62.956 253.793 62.788 253.996 62.6386C254.204 62.484 254.508 62.4066 254.908 62.4066C255.201 62.4066 255.463 62.468 255.692 62.5906C255.927 62.7133 256.113 62.8946 256.252 63.1346C256.391 63.3746 256.46 63.6706 256.46 64.0226V66.3906H255.828V64.0706C255.828 63.6813 255.729 63.3986 255.532 63.2226C255.34 63.0466 255.079 62.9586 254.748 62.9586C254.369 62.9586 254.06 63.0813 253.82 63.3266C253.585 63.572 253.468 63.9373 253.468 64.4226V66.3906H252.836ZM259.773 66.3906V60.7906H260.445V66.3906H259.773Z" fill="#6F6F6F"/>
<path d="M223.312 129.957V124.357H225.456C225.792 124.357 226.091 124.424 226.352 124.557C226.619 124.685 226.829 124.869 226.984 125.109C227.139 125.349 227.216 125.64 227.216 125.981V126.085C227.216 126.421 227.136 126.712 226.976 126.957C226.821 127.197 226.611 127.381 226.344 127.509C226.077 127.637 225.781 127.701 225.456 127.701H223.984V129.957H223.312ZM223.984 127.093H225.384C225.741 127.093 226.024 127.005 226.232 126.829C226.44 126.648 226.544 126.394 226.544 126.069V125.989C226.544 125.664 226.44 125.413 226.232 125.237C226.029 125.056 225.747 124.965 225.384 124.965H223.984V127.093ZM229.255 130.069C228.983 130.069 228.735 130.021 228.511 129.925C228.287 129.829 228.111 129.69 227.983 129.509C227.855 129.328 227.791 129.106 227.791 128.845C227.791 128.578 227.855 128.36 227.983 128.189C228.111 128.013 228.287 127.882 228.511 127.797C228.735 127.706 228.985 127.661 229.263 127.661H230.583V127.373C230.583 127.096 230.5 126.877 230.335 126.717C230.175 126.557 229.935 126.477 229.615 126.477C229.3 126.477 229.055 126.554 228.879 126.709C228.703 126.858 228.583 127.061 228.519 127.317L227.927 127.125C227.991 126.906 228.092 126.709 228.231 126.533C228.369 126.352 228.553 126.208 228.783 126.101C229.017 125.989 229.297 125.933 229.623 125.933C230.124 125.933 230.513 126.064 230.791 126.325C231.068 126.581 231.207 126.944 231.207 127.413V129.181C231.207 129.341 231.281 129.421 231.431 129.421H231.791V129.957H231.239C231.063 129.957 230.921 129.909 230.815 129.813C230.708 129.712 230.655 129.578 230.655 129.413V129.373H230.559C230.5 129.474 230.42 129.581 230.319 129.693C230.223 129.8 230.089 129.888 229.919 129.957C229.748 130.032 229.527 130.069 229.255 130.069ZM229.327 129.525C229.7 129.525 230.001 129.416 230.231 129.197C230.465 128.973 230.583 128.661 230.583 128.261V128.173H229.287C229.036 128.173 228.828 128.229 228.663 128.341C228.503 128.448 228.423 128.61 228.423 128.829C228.423 129.048 228.505 129.218 228.671 129.341C228.841 129.464 229.06 129.525 229.327 129.525ZM232.656 129.957V126.045H233.272V126.525H233.384C233.454 126.354 233.56 126.229 233.704 126.149C233.848 126.069 234.038 126.029 234.272 126.029H234.736V126.605H234.232C233.95 126.605 233.72 126.685 233.544 126.845C233.374 127 233.288 127.242 233.288 127.573V129.957H232.656ZM237.112 129.957C236.888 129.957 236.714 129.896 236.592 129.773C236.474 129.65 236.416 129.482 236.416 129.269V126.597H235.24V126.045H236.416V124.653H237.048V126.045H238.328V126.597H237.048V129.173C237.048 129.333 237.125 129.413 237.28 129.413H238.152V129.957H237.112ZM239.352 129.957V126.045H239.984V129.957H239.352ZM239.672 125.437C239.533 125.437 239.416 125.392 239.32 125.301C239.229 125.21 239.184 125.096 239.184 124.957C239.184 124.813 239.229 124.696 239.32 124.605C239.416 124.514 239.533 124.469 239.672 124.469C239.81 124.469 239.925 124.514 240.016 124.605C240.106 124.696 240.152 124.813 240.152 124.957C240.152 125.096 240.106 125.21 240.016 125.301C239.925 125.392 239.81 125.437 239.672 125.437ZM242.752 129.957C242.528 129.957 242.355 129.896 242.232 129.773C242.115 129.65 242.056 129.482 242.056 129.269V126.597H240.88V126.045H242.056V124.653H242.688V126.045H243.968V126.597H242.688V129.173C242.688 129.333 242.766 129.413 242.92 129.413H243.792V129.957H242.752ZM244.992 129.957V126.045H245.624V129.957H244.992ZM245.312 125.437C245.173 125.437 245.056 125.392 244.96 125.301C244.869 125.21 244.824 125.096 244.824 124.957C244.824 124.813 244.869 124.696 244.96 124.605C245.056 124.514 245.173 124.469 245.312 124.469C245.451 124.469 245.565 124.514 245.656 124.605C245.747 124.696 245.792 124.813 245.792 124.957C245.792 125.096 245.747 125.21 245.656 125.301C245.565 125.392 245.451 125.437 245.312 125.437ZM248.761 130.069C248.366 130.069 248.017 129.986 247.713 129.821C247.414 129.656 247.18 129.424 247.009 129.125C246.844 128.821 246.761 128.464 246.761 128.053V127.949C246.761 127.544 246.844 127.189 247.009 126.885C247.18 126.581 247.414 126.346 247.713 126.181C248.017 126.016 248.366 125.933 248.761 125.933C249.156 125.933 249.502 126.016 249.801 126.181C250.105 126.346 250.34 126.581 250.505 126.885C250.676 127.189 250.761 127.544 250.761 127.949V128.053C250.761 128.464 250.676 128.821 250.505 129.125C250.34 129.424 250.105 129.656 249.801 129.821C249.502 129.986 249.156 130.069 248.761 130.069ZM248.761 129.501C249.177 129.501 249.508 129.37 249.753 129.109C250.004 128.842 250.129 128.485 250.129 128.037V127.965C250.129 127.517 250.004 127.162 249.753 126.901C249.508 126.634 249.177 126.501 248.761 126.501C248.35 126.501 248.02 126.634 247.769 126.901C247.518 127.162 247.393 127.517 247.393 127.965V128.037C247.393 128.485 247.518 128.842 247.769 129.109C248.02 129.37 248.35 129.501 248.761 129.501ZM251.898 129.957V126.045H252.514V126.709H252.626C252.712 126.522 252.856 126.354 253.058 126.205C253.266 126.05 253.57 125.973 253.97 125.973C254.264 125.973 254.525 126.034 254.754 126.157C254.989 126.28 255.176 126.461 255.314 126.701C255.453 126.941 255.522 127.237 255.522 127.589V129.957H254.89V127.637C254.89 127.248 254.792 126.965 254.594 126.789C254.402 126.613 254.141 126.525 253.81 126.525C253.432 126.525 253.122 126.648 252.882 126.893C252.648 127.138 252.53 127.504 252.53 127.989V129.957H251.898ZM258.835 129.957V124.357H259.507V129.957H258.835ZM260.788 129.957V124.357H261.46V129.957H260.788Z" fill="#6F6F6F"/>
<path d="M222.382 193.523V187.923H224.526C224.862 187.923 225.161 187.99 225.422 188.123C225.689 188.251 225.9 188.435 226.054 188.675C226.209 188.915 226.286 189.206 226.286 189.547V189.651C226.286 189.987 226.206 190.278 226.046 190.523C225.892 190.763 225.681 190.947 225.414 191.075C225.148 191.203 224.852 191.267 224.526 191.267H223.054V193.523H222.382ZM223.054 190.659H224.454C224.812 190.659 225.094 190.571 225.302 190.395C225.51 190.214 225.614 189.961 225.614 189.635V189.555C225.614 189.23 225.51 188.979 225.302 188.803C225.1 188.622 224.817 188.531 224.454 188.531H223.054V190.659ZM228.325 193.635C228.053 193.635 227.805 193.587 227.581 193.491C227.357 193.395 227.181 193.257 227.053 193.075C226.925 192.894 226.861 192.673 226.861 192.411C226.861 192.145 226.925 191.926 227.053 191.755C227.181 191.579 227.357 191.449 227.581 191.363C227.805 191.273 228.056 191.227 228.333 191.227H229.653V190.939C229.653 190.662 229.57 190.443 229.405 190.283C229.245 190.123 229.005 190.043 228.685 190.043C228.37 190.043 228.125 190.121 227.949 190.275C227.773 190.425 227.653 190.627 227.589 190.883L226.997 190.691C227.061 190.473 227.162 190.275 227.301 190.099C227.44 189.918 227.624 189.774 227.853 189.667C228.088 189.555 228.368 189.499 228.693 189.499C229.194 189.499 229.584 189.63 229.861 189.891C230.138 190.147 230.277 190.51 230.277 190.979V192.747C230.277 192.907 230.352 192.987 230.501 192.987H230.861V193.523H230.309C230.133 193.523 229.992 193.475 229.885 193.379C229.778 193.278 229.725 193.145 229.725 192.979V192.939H229.629C229.57 193.041 229.49 193.147 229.389 193.259C229.293 193.366 229.16 193.454 228.989 193.523C228.818 193.598 228.597 193.635 228.325 193.635ZM228.397 193.091C228.77 193.091 229.072 192.982 229.301 192.763C229.536 192.539 229.653 192.227 229.653 191.827V191.739H228.357C228.106 191.739 227.898 191.795 227.733 191.907C227.573 192.014 227.493 192.177 227.493 192.395C227.493 192.614 227.576 192.785 227.741 192.907C227.912 193.03 228.13 193.091 228.397 193.091ZM231.727 193.523V189.611H232.343V190.091H232.455C232.524 189.921 232.631 189.795 232.775 189.715C232.919 189.635 233.108 189.595 233.343 189.595H233.807V190.171H233.303C233.02 190.171 232.791 190.251 232.615 190.411C232.444 190.566 232.359 190.809 232.359 191.139V193.523H231.727ZM236.182 193.523C235.958 193.523 235.785 193.462 235.662 193.339C235.545 193.217 235.486 193.049 235.486 192.835V190.163H234.31V189.611H235.486V188.219H236.118V189.611H237.398V190.163H236.118V192.739C236.118 192.899 236.195 192.979 236.35 192.979H237.222V193.523H236.182ZM238.422 193.523V189.611H239.054V193.523H238.422ZM238.742 189.003C238.603 189.003 238.486 188.958 238.39 188.867C238.299 188.777 238.254 188.662 238.254 188.523C238.254 188.379 238.299 188.262 238.39 188.171C238.486 188.081 238.603 188.035 238.742 188.035C238.88 188.035 238.995 188.081 239.086 188.171C239.176 188.262 239.222 188.379 239.222 188.523C239.222 188.662 239.176 188.777 239.086 188.867C238.995 188.958 238.88 189.003 238.742 189.003ZM241.823 193.523C241.599 193.523 241.425 193.462 241.303 193.339C241.185 193.217 241.127 193.049 241.127 192.835V190.163H239.951V189.611H241.127V188.219H241.759V189.611H243.039V190.163H241.759V192.739C241.759 192.899 241.836 192.979 241.991 192.979H242.863V193.523H241.823ZM244.062 193.523V189.611H244.694V193.523H244.062ZM244.382 189.003C244.244 189.003 244.126 188.958 244.03 188.867C243.94 188.777 243.894 188.662 243.894 188.523C243.894 188.379 243.94 188.262 244.03 188.171C244.126 188.081 244.244 188.035 244.382 188.035C244.521 188.035 244.636 188.081 244.726 188.171C244.817 188.262 244.862 188.379 244.862 188.523C244.862 188.662 244.817 188.777 244.726 188.867C244.636 188.958 244.521 189.003 244.382 189.003ZM247.831 193.635C247.437 193.635 247.087 193.553 246.783 193.387C246.485 193.222 246.25 192.99 246.079 192.691C245.914 192.387 245.831 192.03 245.831 191.619V191.515C245.831 191.11 245.914 190.755 246.079 190.451C246.25 190.147 246.485 189.913 246.783 189.747C247.087 189.582 247.437 189.499 247.831 189.499C248.226 189.499 248.573 189.582 248.871 189.747C249.175 189.913 249.41 190.147 249.575 190.451C249.746 190.755 249.831 191.11 249.831 191.515V191.619C249.831 192.03 249.746 192.387 249.575 192.691C249.41 192.99 249.175 193.222 248.871 193.387C248.573 193.553 248.226 193.635 247.831 193.635ZM247.831 193.067C248.247 193.067 248.578 192.937 248.823 192.675C249.074 192.409 249.199 192.051 249.199 191.603V191.531C249.199 191.083 249.074 190.729 248.823 190.467C248.578 190.201 248.247 190.067 247.831 190.067C247.421 190.067 247.09 190.201 246.839 190.467C246.589 190.729 246.463 191.083 246.463 191.531V191.603C246.463 192.051 246.589 192.409 246.839 192.675C247.09 192.937 247.421 193.067 247.831 193.067ZM250.969 193.523V189.611H251.585V190.275H251.697C251.782 190.089 251.926 189.921 252.129 189.771C252.337 189.617 252.641 189.539 253.041 189.539C253.334 189.539 253.595 189.601 253.825 189.723C254.059 189.846 254.246 190.027 254.385 190.267C254.523 190.507 254.593 190.803 254.593 191.155V193.523H253.961V191.203C253.961 190.814 253.862 190.531 253.665 190.355C253.473 190.179 253.211 190.091 252.881 190.091C252.502 190.091 252.193 190.214 251.953 190.459C251.718 190.705 251.601 191.07 251.601 191.555V193.523H250.969ZM257.906 193.523V187.923H258.578V193.523H257.906ZM259.859 193.523V187.923H260.531V193.523H259.859ZM261.812 193.523V187.923H262.484V193.523H261.812Z" fill="#6F6F6F"/>
<circle cx="195.5" cy="105.5" r="5.5" fill="#009FEE"/>
<defs>
<filter id="filter0_d_1118_3078" x="80.18" y="65.3089" width="80.5697" height="80.5717" filterUnits="userSpaceOnUse" color-interpolation-filters="sRGB">
<feFlood flood-opacity="0" result="BackgroundImageFix"/>
<feColorMatrix in="SourceAlpha" type="matrix" values="0 0 0 0 0 0 0 0 0 0 0 0 0 0 0 0 0 0 127 0" result="hardAlpha"/>
<feOffset/>
<feGaussianBlur stdDeviation="5.41001"/>
<feComposite in2="hardAlpha" operator="out"/>
<feColorMatrix type="matrix" values="0 0 0 0 0 0 0 0 0 0 0 0 0 0 0 0 0 0 0.08 0"/>
<feBlend mode="normal" in2="BackgroundImageFix" result="effect1_dropShadow_1118_3078"/>
<feBlend mode="normal" in="SourceGraphic" in2="effect1_dropShadow_1118_3078" result="shape"/>
</filter>
<filter id="filter1_d_1118_3078" x="213.828" y="9.31084" width="55.3119" height="55.3158" filterUnits="userSpaceOnUse" color-interpolation-filters="sRGB">
<feFlood flood-opacity="0" result="BackgroundImageFix"/>
<feColorMatrix in="SourceAlpha" type="matrix" values="0 0 0 0 0 0 0 0 0 0 0 0 0 0 0 0 0 0 127 0" result="hardAlpha"/>
<feOffset/>
<feGaussianBlur stdDeviation="5.41001"/>
<feComposite in2="hardAlpha" operator="out"/>
<feColorMatrix type="matrix" values="0 0 0 0 0 0 0 0 0 0 0 0 0 0 0 0 0 0 0.08 0"/>
<feBlend mode="normal" in2="BackgroundImageFix" result="effect1_dropShadow_1118_3078"/>
<feBlend mode="normal" in="SourceGraphic" in2="effect1_dropShadow_1118_3078" result="shape"/>
</filter>
<filter id="filter2_d_1118_3078" x="213.828" y="72.8987" width="55.3119" height="55.3158" filterUnits="userSpaceOnUse" color-interpolation-filters="sRGB">
<feFlood flood-opacity="0" result="BackgroundImageFix"/>
<feColorMatrix in="SourceAlpha" type="matrix" values="0 0 0 0 0 0 0 0 0 0 0 0 0 0 0 0 0 0 127 0" result="hardAlpha"/>
<feOffset/>
<feGaussianBlur stdDeviation="5.41001"/>
<feComposite in2="hardAlpha" operator="out"/>
<feColorMatrix type="matrix" values="0 0 0 0 0 0 0 0 0 0 0 0 0 0 0 0 0 0 0.08 0"/>
<feBlend mode="normal" in2="BackgroundImageFix" result="effect1_dropShadow_1118_3078"/>
<feBlend mode="normal" in="SourceGraphic" in2="effect1_dropShadow_1118_3078" result="shape"/>
</filter>
<filter id="filter3_d_1118_3078" x="213.828" y="136.489" width="55.3119" height="55.3158" filterUnits="userSpaceOnUse" color-interpolation-filters="sRGB">
<feFlood flood-opacity="0" result="BackgroundImageFix"/>
<feColorMatrix in="SourceAlpha" type="matrix" values="0 0 0 0 0 0 0 0 0 0 0 0 0 0 0 0 0 0 127 0" result="hardAlpha"/>
<feOffset/>
<feGaussianBlur stdDeviation="5.41001"/>
<feComposite in2="hardAlpha" operator="out"/>
<feColorMatrix type="matrix" values="0 0 0 0 0 0 0 0 0 0 0 0 0 0 0 0 0 0 0.08 0"/>
<feBlend mode="normal" in2="BackgroundImageFix" result="effect1_dropShadow_1118_3078"/>
<feBlend mode="normal" in="SourceGraphic" in2="effect1_dropShadow_1118_3078" result="shape"/>
</filter>
</defs>
</svg>
