<svg width="203" height="361" viewBox="0 0 203 361" fill="none" xmlns="http://www.w3.org/2000/svg">
<g clip-path="url(#clip0_1128_2603)">
<path d="M0 41.4622C0 18.5865 18.5445 0.0419922 41.4202 0.0419922H161.58C184.456 0.0419922 203 18.5865 203 41.4622V318.622C203 341.498 184.456 360.042 161.58 360.042H41.4202C18.5445 360.042 0 341.498 0 318.622V41.4622Z" fill="#E5EAFF"/>
<g filter="url(#filter0_f_1128_2603)">
<circle cx="102" cy="433.042" r="194" fill="#193AE6" fill-opacity="0.2"/>
</g>
<g filter="url(#filter1_f_1128_2603)">
<circle cx="102" cy="433.042" r="153" fill="#193AE6" fill-opacity="0.2"/>
</g>
<g filter="url(#filter2_f_1128_2603)">
<circle cx="102" cy="433.042" r="107" fill="#193AE6" fill-opacity="0.2"/>
</g>
<path d="M62.7471 166.577C59.461 166.577 56.8499 165.66 54.9139 163.826C52.9779 161.966 52.0099 159.291 52.0099 155.802V149.535C52.0099 146.045 52.9779 143.383 54.9139 141.549C56.8499 139.689 59.461 138.76 62.7471 138.76C66.0332 138.76 68.6442 139.689 70.5802 141.549C72.5417 143.383 73.5224 146.045 73.5224 149.535V155.802C73.5224 159.291 72.5417 161.966 70.5802 163.826C68.6442 165.66 66.0332 166.577 62.7471 166.577ZM62.7471 162.871C64.8614 162.871 66.4917 162.259 67.638 161.036C68.7843 159.788 69.3575 158.094 69.3575 155.954V149.382C69.3575 147.242 68.7843 145.561 67.638 144.338C66.4917 143.09 64.8614 142.466 62.7471 142.466C60.6837 142.466 59.0661 143.09 57.8943 144.338C56.7225 145.561 56.1366 147.242 56.1366 149.382V155.954C56.1366 158.094 56.7225 159.788 57.8943 161.036C59.0661 162.259 60.6837 162.871 62.7471 162.871ZM76.4972 166.042V139.295H80.6239V162.297H93.5009V166.042H76.4972ZM101.332 166.577C99.9818 166.577 98.7718 166.348 97.7019 165.889C96.6575 165.431 95.8169 164.756 95.18 163.864C94.5687 162.972 94.263 161.89 94.263 160.616C94.263 159.317 94.5687 158.247 95.18 157.406C95.8169 156.54 96.6703 155.891 97.7401 155.458C98.8355 155.025 100.071 154.808 101.447 154.808H107.178V153.585C107.178 152.49 106.847 151.611 106.185 150.949C105.522 150.287 104.503 149.955 103.128 149.955C101.778 149.955 100.746 150.274 100.033 150.911C99.3195 151.547 98.8483 152.375 98.619 153.394L94.9508 152.21C95.2565 151.191 95.7405 150.274 96.4028 149.459C97.0906 148.618 97.9949 147.943 99.1157 147.433C100.237 146.924 101.587 146.669 103.166 146.669C105.612 146.669 107.535 147.293 108.936 148.542C110.337 149.79 111.037 151.56 111.037 153.853V161.61C111.037 162.374 111.394 162.756 112.107 162.756H113.712V166.042H110.77C109.878 166.042 109.152 165.813 108.592 165.354C108.032 164.896 107.751 164.272 107.751 163.482V163.367H107.178C106.974 163.749 106.669 164.195 106.261 164.705C105.854 165.214 105.255 165.66 104.465 166.042C103.676 166.399 102.631 166.577 101.332 166.577ZM101.905 163.329C103.484 163.329 104.758 162.883 105.726 161.992C106.694 161.075 107.178 159.826 107.178 158.247V157.865H101.676C100.631 157.865 99.7908 158.094 99.1539 158.553C98.5171 158.986 98.1987 159.635 98.1987 160.501C98.1987 161.368 98.5298 162.055 99.1921 162.565C99.8545 163.074 100.759 163.329 101.905 163.329ZM115.628 166.042V139.295H119.564V154.541H120.175L127.588 147.204H132.823L123.309 156.337L133.129 166.042H127.932L120.175 158.209H119.564V166.042H115.628ZM142.317 166.577C140.406 166.577 138.738 166.182 137.311 165.392C135.885 164.577 134.764 163.444 133.949 161.992C133.159 160.514 132.764 158.807 132.764 156.871V156.413C132.764 154.451 133.159 152.745 133.949 151.293C134.738 149.815 135.834 148.682 137.235 147.892C138.661 147.077 140.304 146.669 142.164 146.669C143.973 146.669 145.552 147.077 146.902 147.892C148.278 148.682 149.348 149.79 150.112 151.216C150.876 152.643 151.258 154.311 151.258 156.222V157.712H136.776C136.827 159.368 137.375 160.693 138.419 161.686C139.489 162.654 140.814 163.138 142.393 163.138C143.871 163.138 144.979 162.807 145.718 162.145C146.482 161.482 147.068 160.718 147.475 159.852L150.723 161.533C150.367 162.246 149.844 162.998 149.157 163.788C148.494 164.577 147.615 165.24 146.52 165.775C145.425 166.309 144.024 166.577 142.317 166.577ZM136.815 154.693H147.246C147.144 153.267 146.635 152.159 145.718 151.369C144.801 150.554 143.603 150.146 142.126 150.146C140.648 150.146 139.438 150.554 138.496 151.369C137.579 152.159 137.018 153.267 136.815 154.693Z" fill="#193AE6"/>
<path d="M29.6071 195.042V183.842H32.8551L35.3031 193.89H35.5591L38.0071 183.842H41.2551V195.042H39.5751V185.058H39.3191L36.8871 195.042H33.9751L31.5431 185.058H31.2871V195.042H29.6071ZM45.2874 195.266C44.7221 195.266 44.2154 195.17 43.7674 194.978C43.3301 194.786 42.9781 194.503 42.7114 194.13C42.4554 193.757 42.3274 193.303 42.3274 192.77C42.3274 192.226 42.4554 191.778 42.7114 191.426C42.9781 191.063 43.3354 190.791 43.7834 190.61C44.2421 190.429 44.7594 190.338 45.3354 190.338H47.7354V189.826C47.7354 189.367 47.5968 188.999 47.3194 188.722C47.0421 188.445 46.6154 188.306 46.0394 188.306C45.4741 188.306 45.0421 188.439 44.7434 188.706C44.4448 188.973 44.2474 189.319 44.1514 189.746L42.6154 189.25C42.7434 188.823 42.9461 188.439 43.2234 188.098C43.5114 187.746 43.8901 187.463 44.3594 187.25C44.8288 187.037 45.3941 186.93 46.0554 186.93C47.0794 186.93 47.8848 187.191 48.4714 187.714C49.0581 188.237 49.3514 188.978 49.3514 189.938V193.186C49.3514 193.506 49.5008 193.666 49.7994 193.666H50.4714V195.042H49.2394C48.8661 195.042 48.5621 194.946 48.3274 194.754C48.0928 194.562 47.9754 194.301 47.9754 193.97V193.922H47.7354C47.6501 194.082 47.5221 194.269 47.3514 194.482C47.1808 194.695 46.9301 194.882 46.5994 195.042C46.2688 195.191 45.8314 195.266 45.2874 195.266ZM45.5274 193.906C46.1888 193.906 46.7221 193.719 47.1274 193.346C47.5328 192.962 47.7354 192.439 47.7354 191.778V191.618H45.4314C44.9941 191.618 44.6421 191.714 44.3754 191.906C44.1088 192.087 43.9754 192.359 43.9754 192.722C43.9754 193.085 44.1141 193.373 44.3914 193.586C44.6688 193.799 45.0474 193.906 45.5274 193.906ZM51.2738 195.042V187.154H52.8898V188.338H53.1458C53.2951 188.018 53.5618 187.719 53.9458 187.442C54.3298 187.165 54.9005 187.026 55.6578 187.026C56.2551 187.026 56.7831 187.159 57.2418 187.426C57.7111 187.693 58.0791 188.071 58.3458 188.562C58.6125 189.042 58.7458 189.623 58.7458 190.306V195.042H57.0978V190.434C57.0978 189.751 56.9271 189.25 56.5858 188.93C56.2445 188.599 55.7751 188.434 55.1778 188.434C54.4951 188.434 53.9458 188.658 53.5298 189.106C53.1245 189.554 52.9218 190.205 52.9218 191.058V195.042H51.2738ZM62.7656 195.266C62.2002 195.266 61.6936 195.17 61.2456 194.978C60.8082 194.786 60.4562 194.503 60.1896 194.13C59.9336 193.757 59.8056 193.303 59.8056 192.77C59.8056 192.226 59.9336 191.778 60.1896 191.426C60.4562 191.063 60.8136 190.791 61.2616 190.61C61.7202 190.429 62.2376 190.338 62.8136 190.338H65.2136V189.826C65.2136 189.367 65.0749 188.999 64.7976 188.722C64.5202 188.445 64.0936 188.306 63.5176 188.306C62.9522 188.306 62.5202 188.439 62.2216 188.706C61.9229 188.973 61.7256 189.319 61.6296 189.746L60.0936 189.25C60.2216 188.823 60.4242 188.439 60.7016 188.098C60.9896 187.746 61.3682 187.463 61.8376 187.25C62.3069 187.037 62.8722 186.93 63.5336 186.93C64.5576 186.93 65.3629 187.191 65.9496 187.714C66.5362 188.237 66.8296 188.978 66.8296 189.938V193.186C66.8296 193.506 66.9789 193.666 67.2776 193.666H67.9496V195.042H66.7176C66.3442 195.042 66.0402 194.946 65.8056 194.754C65.5709 194.562 65.4536 194.301 65.4536 193.97V193.922H65.2136C65.1282 194.082 65.0002 194.269 64.8296 194.482C64.6589 194.695 64.4082 194.882 64.0776 195.042C63.7469 195.191 63.3096 195.266 62.7656 195.266ZM63.0056 193.906C63.6669 193.906 64.2002 193.719 64.6056 193.346C65.0109 192.962 65.2136 192.439 65.2136 191.778V191.618H62.9096C62.4722 191.618 62.1202 191.714 61.8536 191.906C61.5869 192.087 61.4536 192.359 61.4536 192.722C61.4536 193.085 61.5922 193.373 61.8696 193.586C62.1469 193.799 62.5256 193.906 63.0056 193.906ZM68.1804 191.138V190.898C68.1804 190.066 68.3458 189.357 68.6764 188.77C69.0178 188.183 69.4658 187.73 70.0204 187.41C70.5751 187.09 71.1831 186.93 71.8444 186.93C72.6124 186.93 73.1991 187.074 73.6044 187.362C74.0204 187.65 74.3244 187.959 74.5164 188.29H74.7724V187.154H76.3724V196.658C76.3724 197.138 76.2284 197.522 75.9404 197.81C75.6631 198.098 75.2791 198.242 74.7884 198.242H69.4764V196.802H74.2764C74.5858 196.802 74.7404 196.642 74.7404 196.322V193.81H74.4844C74.3671 194.002 74.2018 194.199 73.9884 194.402C73.7751 194.605 73.4924 194.77 73.1404 194.898C72.7991 195.026 72.3671 195.09 71.8444 195.09C71.1831 195.09 70.5698 194.935 70.0044 194.626C69.4498 194.306 69.0071 193.853 68.6764 193.266C68.3458 192.669 68.1804 191.959 68.1804 191.138ZM72.2924 193.65C73.0071 193.65 73.5938 193.426 74.0524 192.978C74.5218 192.519 74.7564 191.89 74.7564 191.09V190.946C74.7564 190.125 74.5271 189.495 74.0684 189.058C73.6098 188.61 73.0178 188.386 72.2924 188.386C71.5884 188.386 71.0018 188.61 70.5324 189.058C70.0738 189.495 69.8444 190.125 69.8444 190.946V191.09C69.8444 191.89 70.0738 192.519 70.5324 192.978C71.0018 193.426 71.5884 193.65 72.2924 193.65ZM81.6148 195.266C80.8148 195.266 80.1161 195.101 79.5188 194.77C78.9215 194.429 78.4521 193.954 78.1108 193.346C77.7801 192.727 77.6148 192.013 77.6148 191.202V191.01C77.6148 190.189 77.7801 189.474 78.1108 188.866C78.4415 188.247 78.9001 187.773 79.4868 187.442C80.0841 187.101 80.7721 186.93 81.5508 186.93C82.3081 186.93 82.9695 187.101 83.5348 187.442C84.1108 187.773 84.5588 188.237 84.8788 188.834C85.1988 189.431 85.3588 190.13 85.3588 190.93V191.554H79.2948C79.3161 192.247 79.5455 192.802 79.9828 193.218C80.4308 193.623 80.9855 193.826 81.6468 193.826C82.2655 193.826 82.7295 193.687 83.0388 193.41C83.3588 193.133 83.6041 192.813 83.7748 192.45L85.1348 193.154C84.9855 193.453 84.7668 193.767 84.4788 194.098C84.2015 194.429 83.8335 194.706 83.3748 194.93C82.9161 195.154 82.3295 195.266 81.6148 195.266ZM79.3108 190.29H83.6788C83.6361 189.693 83.4228 189.229 83.0388 188.898C82.6548 188.557 82.1535 188.386 81.5348 188.386C80.9161 188.386 80.4095 188.557 80.0148 188.898C79.6308 189.229 79.3961 189.693 79.3108 190.29ZM89.8066 195.266C89.1559 195.266 88.5532 195.106 87.9986 194.786C87.4439 194.466 86.9959 194.007 86.6546 193.41C86.3239 192.802 86.1586 192.071 86.1586 191.218V190.978C86.1586 190.135 86.3239 189.41 86.6546 188.802C86.9852 188.194 87.4279 187.73 87.9826 187.41C88.5372 187.09 89.1452 186.93 89.8066 186.93C90.3186 186.93 90.7452 186.994 91.0866 187.122C91.4386 187.25 91.7266 187.415 91.9506 187.618C92.1746 187.81 92.3452 188.013 92.4626 188.226H92.7186V183.842H94.3666V195.042H92.7506V193.922H92.4946C92.2919 194.263 91.9826 194.573 91.5666 194.85C91.1612 195.127 90.5746 195.266 89.8066 195.266ZM90.2706 193.826C90.9852 193.826 91.5719 193.597 92.0306 193.138C92.4999 192.679 92.7346 192.023 92.7346 191.17V191.026C92.7346 190.183 92.5052 189.533 92.0466 189.074C91.5879 188.615 90.9959 188.386 90.2706 188.386C89.5666 188.386 88.9799 188.615 88.5106 189.074C88.0519 189.533 87.8226 190.183 87.8226 191.026V191.17C87.8226 192.023 88.0519 192.679 88.5106 193.138C88.9799 193.597 89.5666 193.826 90.2706 193.826ZM99.2227 195.042V183.842H100.951V193.474H106.343V195.042H99.2227ZM109.622 195.266C109.056 195.266 108.55 195.17 108.102 194.978C107.664 194.786 107.312 194.503 107.046 194.13C106.79 193.757 106.662 193.303 106.662 192.77C106.662 192.226 106.79 191.778 107.046 191.426C107.312 191.063 107.67 190.791 108.118 190.61C108.576 190.429 109.094 190.338 109.67 190.338H112.07V189.826C112.07 189.367 111.931 188.999 111.654 188.722C111.376 188.445 110.95 188.306 110.374 188.306C109.808 188.306 109.376 188.439 109.078 188.706C108.779 188.973 108.582 189.319 108.486 189.746L106.95 189.25C107.078 188.823 107.28 188.439 107.558 188.098C107.846 187.746 108.224 187.463 108.694 187.25C109.163 187.037 109.728 186.93 110.39 186.93C111.414 186.93 112.219 187.191 112.806 187.714C113.392 188.237 113.686 188.978 113.686 189.938V193.186C113.686 193.506 113.835 193.666 114.134 193.666H114.806V195.042H113.574C113.2 195.042 112.896 194.946 112.662 194.754C112.427 194.562 112.31 194.301 112.31 193.97V193.922H112.07C111.984 194.082 111.856 194.269 111.686 194.482C111.515 194.695 111.264 194.882 110.934 195.042C110.603 195.191 110.166 195.266 109.622 195.266ZM109.862 193.906C110.523 193.906 111.056 193.719 111.462 193.346C111.867 192.962 112.07 192.439 112.07 191.778V191.618H109.766C109.328 191.618 108.976 191.714 108.71 191.906C108.443 192.087 108.31 192.359 108.31 192.722C108.31 193.085 108.448 193.373 108.726 193.586C109.003 193.799 109.382 193.906 109.862 193.906ZM115.608 195.042V183.842H117.256V190.226H117.512L120.616 187.154H122.808L118.824 190.978L122.936 195.042H120.76L117.512 191.762H117.256V195.042H115.608ZM126.784 195.266C125.984 195.266 125.285 195.101 124.688 194.77C124.09 194.429 123.621 193.954 123.28 193.346C122.949 192.727 122.784 192.013 122.784 191.202V191.01C122.784 190.189 122.949 189.474 123.28 188.866C123.61 188.247 124.069 187.773 124.656 187.442C125.253 187.101 125.941 186.93 126.72 186.93C127.477 186.93 128.138 187.101 128.704 187.442C129.28 187.773 129.728 188.237 130.048 188.834C130.368 189.431 130.528 190.13 130.528 190.93V191.554H124.464C124.485 192.247 124.714 192.802 125.152 193.218C125.6 193.623 126.154 193.826 126.816 193.826C127.434 193.826 127.898 193.687 128.208 193.41C128.528 193.133 128.773 192.813 128.944 192.45L130.304 193.154C130.154 193.453 129.936 193.767 129.648 194.098C129.37 194.429 129.002 194.706 128.544 194.93C128.085 195.154 127.498 195.266 126.784 195.266ZM124.48 190.29H128.848C128.805 189.693 128.592 189.229 128.208 188.898C127.824 188.557 127.322 188.386 126.704 188.386C126.085 188.386 125.578 188.557 125.184 188.898C124.8 189.229 124.565 189.693 124.48 190.29ZM131.711 195.042V183.842H133.359V188.274H133.615C133.722 188.071 133.871 187.874 134.063 187.682C134.266 187.49 134.527 187.335 134.847 187.218C135.178 187.09 135.594 187.026 136.095 187.026C136.693 187.026 137.221 187.159 137.679 187.426C138.149 187.693 138.517 188.071 138.783 188.562C139.05 189.042 139.183 189.623 139.183 190.306V195.042H137.535V190.434C137.535 189.751 137.365 189.25 137.023 188.93C136.682 188.599 136.213 188.434 135.615 188.434C134.933 188.434 134.383 188.658 133.967 189.106C133.562 189.554 133.359 190.205 133.359 191.058V195.042H131.711ZM144.451 195.266C143.662 195.266 142.958 195.106 142.339 194.786C141.731 194.455 141.251 193.986 140.899 193.378C140.547 192.77 140.371 192.05 140.371 191.218V190.978C140.371 190.146 140.547 189.431 140.899 188.834C141.251 188.226 141.731 187.757 142.339 187.426C142.958 187.095 143.662 186.93 144.451 186.93C145.24 186.93 145.944 187.095 146.563 187.426C147.182 187.757 147.667 188.226 148.019 188.834C148.371 189.431 148.547 190.146 148.547 190.978V191.218C148.547 192.05 148.371 192.77 148.019 193.378C147.667 193.986 147.182 194.455 146.563 194.786C145.944 195.106 145.24 195.266 144.451 195.266ZM144.451 193.794C145.176 193.794 145.763 193.565 146.211 193.106C146.67 192.637 146.899 191.991 146.899 191.17V191.026C146.899 190.205 146.675 189.565 146.227 189.106C145.779 188.637 145.187 188.402 144.451 188.402C143.736 188.402 143.15 188.637 142.691 189.106C142.243 189.565 142.019 190.205 142.019 191.026V191.17C142.019 191.991 142.243 192.637 142.691 193.106C143.15 193.565 143.736 193.794 144.451 193.794ZM152.823 195.186C152.225 195.186 151.692 195.053 151.223 194.786C150.753 194.519 150.385 194.141 150.119 193.65C149.852 193.159 149.719 192.573 149.719 191.89V187.154H151.367V191.778C151.367 192.461 151.537 192.967 151.879 193.298C152.22 193.618 152.695 193.778 153.303 193.778C153.975 193.778 154.513 193.554 154.919 193.106C155.335 192.647 155.543 191.991 155.543 191.138V187.154H157.191V195.042H155.575V193.858H155.319C155.169 194.178 154.903 194.482 154.519 194.77C154.135 195.047 153.569 195.186 152.823 195.186ZM162.059 195.266C161.056 195.266 160.224 195.042 159.563 194.594C158.902 194.146 158.496 193.469 158.347 192.562L159.883 192.194C159.968 192.631 160.112 192.978 160.315 193.234C160.518 193.49 160.768 193.671 161.067 193.778C161.376 193.885 161.707 193.938 162.059 193.938C162.582 193.938 162.982 193.837 163.259 193.634C163.547 193.431 163.691 193.17 163.691 192.85C163.691 192.53 163.558 192.295 163.291 192.146C163.024 191.997 162.63 191.874 162.107 191.778L161.563 191.682C161.03 191.586 160.544 191.447 160.107 191.266C159.67 191.085 159.323 190.834 159.067 190.514C158.811 190.194 158.683 189.783 158.683 189.282C158.683 188.535 158.96 187.959 159.515 187.554C160.07 187.138 160.806 186.93 161.723 186.93C162.608 186.93 163.334 187.133 163.899 187.538C164.475 187.933 164.848 188.471 165.019 189.154L163.483 189.586C163.387 189.106 163.184 188.77 162.875 188.578C162.566 188.375 162.182 188.274 161.723 188.274C161.275 188.274 160.923 188.359 160.667 188.53C160.411 188.69 160.283 188.919 160.283 189.218C160.283 189.538 160.406 189.773 160.651 189.922C160.907 190.071 161.248 190.183 161.675 190.258L162.235 190.354C162.8 190.45 163.318 190.583 163.787 190.754C164.256 190.925 164.624 191.17 164.891 191.49C165.168 191.81 165.307 192.237 165.307 192.77C165.307 193.559 165.014 194.173 164.427 194.61C163.84 195.047 163.051 195.266 162.059 195.266ZM170.049 195.266C169.249 195.266 168.551 195.101 167.953 194.77C167.356 194.429 166.887 193.954 166.545 193.346C166.215 192.727 166.049 192.013 166.049 191.202V191.01C166.049 190.189 166.215 189.474 166.545 188.866C166.876 188.247 167.335 187.773 167.921 187.442C168.519 187.101 169.207 186.93 169.985 186.93C170.743 186.93 171.404 187.101 171.969 187.442C172.545 187.773 172.993 188.237 173.313 188.834C173.633 189.431 173.793 190.13 173.793 190.93V191.554H167.729C167.751 192.247 167.98 192.802 168.417 193.218C168.865 193.623 169.42 193.826 170.081 193.826C170.7 193.826 171.164 193.687 171.473 193.41C171.793 193.133 172.039 192.813 172.209 192.45L173.569 193.154C173.42 193.453 173.201 193.767 172.913 194.098C172.636 194.429 172.268 194.706 171.809 194.93C171.351 195.154 170.764 195.266 170.049 195.266ZM167.745 190.29H172.113C172.071 189.693 171.857 189.229 171.473 188.898C171.089 188.557 170.588 188.386 169.969 188.386C169.351 188.386 168.844 188.557 168.449 188.898C168.065 189.229 167.831 189.693 167.745 190.29Z" fill="#363636"/>
</g>
<defs>
<filter id="filter0_f_1128_2603" x="-108" y="223.042" width="420" height="420" filterUnits="userSpaceOnUse" color-interpolation-filters="sRGB">
<feFlood flood-opacity="0" result="BackgroundImageFix"/>
<feBlend mode="normal" in="SourceGraphic" in2="BackgroundImageFix" result="shape"/>
<feGaussianBlur stdDeviation="8" result="effect1_foregroundBlur_1128_2603"/>
</filter>
<filter id="filter1_f_1128_2603" x="-67" y="264.042" width="338" height="338" filterUnits="userSpaceOnUse" color-interpolation-filters="sRGB">
<feFlood flood-opacity="0" result="BackgroundImageFix"/>
<feBlend mode="normal" in="SourceGraphic" in2="BackgroundImageFix" result="shape"/>
<feGaussianBlur stdDeviation="8" result="effect1_foregroundBlur_1128_2603"/>
</filter>
<filter id="filter2_f_1128_2603" x="-21" y="310.042" width="246" height="246" filterUnits="userSpaceOnUse" color-interpolation-filters="sRGB">
<feFlood flood-opacity="0" result="BackgroundImageFix"/>
<feBlend mode="normal" in="SourceGraphic" in2="BackgroundImageFix" result="shape"/>
<feGaussianBlur stdDeviation="8" result="effect1_foregroundBlur_1128_2603"/>
</filter>
<clipPath id="clip0_1128_2603">
<path d="M0 41.4622C0 18.5865 18.5445 0.0419922 41.4202 0.0419922H161.58C184.456 0.0419922 203 18.5865 203 41.4622V318.622C203 341.498 184.456 360.042 161.58 360.042H41.4202C18.5445 360.042 0 341.498 0 318.622V41.4622Z" fill="white"/>
</clipPath>
</defs>
</svg>
