<svg width="488" height="46" viewBox="0 0 488 46" fill="none" xmlns="http://www.w3.org/2000/svg">
<rect width="117.816" height="45.8526" rx="22.9263" fill="#F3F3F3"/>
<path d="M30.143 26.1107C29.5782 26.1113 29.0296 26.2991 28.5831 26.6448C28.1365 26.9906 27.8172 27.4746 27.6752 28.0213H19.9535C19.2779 28.0213 18.63 27.7529 18.1523 27.2752C17.6745 26.7974 17.4062 26.1495 17.4062 25.4739C17.4062 24.7983 17.6745 24.1504 18.1523 23.6726C18.63 23.1949 19.2779 22.9265 19.9535 22.9265H27.5956C28.4401 22.9265 29.2501 22.591 29.8472 21.9939C30.4444 21.3967 30.7798 20.5868 30.7798 19.7423C30.7798 18.8978 30.4444 18.0879 29.8472 17.4907C29.2501 16.8936 28.4401 16.5581 27.5956 16.5581H19.9535C19.7846 16.5581 19.6226 16.6252 19.5032 16.7446C19.3838 16.8641 19.3167 17.026 19.3167 17.1949C19.3167 17.3638 19.3838 17.5258 19.5032 17.6453C19.6226 17.7647 19.7846 17.8318 19.9535 17.8318H27.5956C28.1023 17.8318 28.5883 18.0331 28.9466 18.3914C29.3049 18.7497 29.5062 19.2356 29.5062 19.7423C29.5062 20.249 29.3049 20.735 28.9466 21.0933C28.5883 21.4516 28.1023 21.6528 27.5956 21.6528H19.9535C18.9401 21.6528 17.9682 22.0554 17.2516 22.772C16.5351 23.4886 16.1325 24.4605 16.1325 25.4739C16.1325 26.4873 16.5351 27.4592 17.2516 28.1758C17.9682 28.8924 18.9401 29.2949 19.9535 29.2949H27.6752C27.7943 29.7562 28.0404 30.1748 28.3855 30.5033C28.7305 30.8317 29.1608 31.0568 29.6274 31.153C30.0939 31.2492 30.5781 31.2126 31.025 31.0474C31.4718 30.8823 31.8634 30.5951 32.1552 30.2186C32.447 29.842 32.6274 29.3912 32.6759 28.9173C32.7243 28.4433 32.6389 27.9653 32.4294 27.5375C32.2198 27.1097 31.8945 26.7492 31.4903 26.497C31.0862 26.2448 30.6194 26.111 30.143 26.1107ZM30.143 29.9318C29.8911 29.9318 29.6448 29.8571 29.4354 29.7171C29.2259 29.5772 29.0627 29.3783 28.9663 29.1455C28.8699 28.9128 28.8446 28.6567 28.8938 28.4096C28.9429 28.1626 29.0642 27.9356 29.2424 27.7575C29.4205 27.5793 29.6474 27.458 29.8945 27.4089C30.1416 27.3597 30.3977 27.385 30.6304 27.4814C30.8632 27.5778 31.0621 27.741 31.202 27.9505C31.342 28.1599 31.4167 28.4062 31.4167 28.6581C31.4167 28.9959 31.2825 29.3199 31.0436 29.5587C30.8048 29.7976 30.4808 29.9318 30.143 29.9318Z" fill="#193AE6"/>
<path d="M44.1999 27.9263V17.2273H48.449C49.1011 17.2273 49.6819 17.3598 50.1914 17.6247C50.711 17.8794 51.1135 18.2463 51.3988 18.7252C51.6943 19.1939 51.842 19.7594 51.842 20.4217V20.6204C51.842 21.2827 51.6892 21.8533 51.3835 22.3322C51.088 22.8112 50.6855 23.178 50.1761 23.4327C49.6666 23.6874 49.0909 23.8148 48.449 23.8148H45.8506V27.9263H44.1999ZM45.8506 22.317H48.2808C48.8616 22.317 49.3252 22.1641 49.6717 21.8584C50.0181 21.5528 50.1914 21.135 50.1914 20.6051V20.4523C50.1914 19.9122 50.0181 19.4894 49.6717 19.1837C49.3252 18.878 48.8616 18.7252 48.2808 18.7252H45.8506V22.317ZM56.0126 28.1402C55.2586 28.1402 54.5861 27.9874 53.9951 27.6817C53.4143 27.3658 52.9558 26.9175 52.6195 26.3367C52.2833 25.7559 52.1151 25.0681 52.1151 24.2733V24.0441C52.1151 23.2493 52.2833 22.5666 52.6195 21.996C52.9558 21.4152 53.4143 20.9669 53.9951 20.651C54.5861 20.3351 55.2586 20.1772 56.0126 20.1772C56.7666 20.1772 57.4391 20.3351 58.0301 20.651C58.6211 20.9669 59.0847 21.4152 59.421 21.996C59.7572 22.5666 59.9254 23.2493 59.9254 24.0441V24.2733C59.9254 25.0681 59.7572 25.7559 59.421 26.3367C59.0847 26.9175 58.6211 27.3658 58.0301 27.6817C57.4391 27.9874 56.7666 28.1402 56.0126 28.1402ZM56.0126 26.7341C56.7055 26.7341 57.2659 26.515 57.6939 26.0769C58.132 25.6285 58.3511 25.0121 58.3511 24.2275V24.0899C58.3511 23.3053 58.1371 22.694 57.7092 22.2558C57.2812 21.8075 56.7157 21.5833 56.0126 21.5833C55.3299 21.5833 54.7695 21.8075 54.3313 22.2558C53.9034 22.694 53.6894 23.3053 53.6894 24.0899V24.2275C53.6894 25.0121 53.9034 25.6285 54.3313 26.0769C54.7695 26.515 55.3299 26.7341 56.0126 26.7341ZM64.2085 28.1402C63.2507 28.1402 62.4559 27.9263 61.8242 27.4983C61.1924 27.0704 60.8052 26.4233 60.6626 25.5572L62.1299 25.2057C62.2114 25.6234 62.3489 25.9546 62.5425 26.1992C62.7361 26.4437 62.9756 26.6169 63.2609 26.7188C63.5564 26.8207 63.8723 26.8717 64.2085 26.8717C64.7078 26.8717 65.0899 26.7749 65.3548 26.5813C65.63 26.3877 65.7675 26.138 65.7675 25.8323C65.7675 25.5266 65.6401 25.3025 65.3854 25.1598C65.1307 25.0172 64.7537 24.9 64.2544 24.8083L63.7347 24.7166C63.2252 24.6249 62.7616 24.4924 62.3438 24.3192C61.9261 24.146 61.5949 23.9065 61.3504 23.6008C61.1058 23.2952 60.9836 22.9029 60.9836 22.424C60.9836 21.7107 61.2485 21.1605 61.7783 20.7733C62.3082 20.3759 63.0113 20.1772 63.8876 20.1772C64.7333 20.1772 65.4262 20.3708 65.9662 20.758C66.5164 21.135 66.8731 21.6496 67.0361 22.3017L65.5688 22.7144C65.4771 22.2558 65.2835 21.9349 64.988 21.7514C64.6925 21.5578 64.3257 21.461 63.8876 21.461C63.4596 21.461 63.1233 21.5426 62.8788 21.7056C62.6342 21.8584 62.512 22.0775 62.512 22.3628C62.512 22.6685 62.6292 22.8927 62.8635 23.0353C63.1081 23.178 63.4341 23.285 63.8417 23.3563L64.3766 23.448C64.9167 23.5397 65.4109 23.6671 65.8592 23.8301C66.3076 23.9931 66.6591 24.2275 66.9138 24.5332C67.1788 24.8389 67.3112 25.2464 67.3112 25.7559C67.3112 26.5099 67.031 27.0958 66.4706 27.5136C65.9102 27.9314 65.1561 28.1402 64.2085 28.1402ZM71.0505 27.9263C70.592 27.9263 70.2251 27.7887 69.95 27.5136C69.6851 27.2385 69.5526 26.8717 69.5526 26.4131V21.7209H67.474V20.3912H69.5526V17.8998H71.1269V20.3912H73.3737V21.7209H71.1269V26.138C71.1269 26.4437 71.2696 26.5965 71.5549 26.5965H73.1291V27.9263H71.0505ZM73.8235 24.1969V23.9677C73.8235 23.1729 73.9814 22.4953 74.2973 21.9349C74.6234 21.3744 75.0513 20.9414 75.5812 20.6357C76.111 20.33 76.6918 20.1772 77.3236 20.1772C78.0572 20.1772 78.6176 20.3147 79.0048 20.5898C79.4022 20.865 79.6926 21.1605 79.876 21.4763H80.1206V20.3912H81.649V29.47C81.649 29.9285 81.5114 30.2953 81.2363 30.5704C80.9714 30.8456 80.6046 30.9831 80.1359 30.9831H75.0615V29.6075H79.6468C79.9423 29.6075 80.09 29.4547 80.09 29.149V26.7494H79.8455C79.7334 26.9328 79.5754 27.1213 79.3717 27.3149C79.1679 27.5085 78.8978 27.6664 78.5616 27.7887C78.2355 27.911 77.8229 27.9721 77.3236 27.9721C76.6918 27.9721 76.1059 27.8244 75.5659 27.5289C75.036 27.2232 74.6132 26.7901 74.2973 26.2297C73.9814 25.6591 73.8235 24.9815 73.8235 24.1969ZM77.7515 26.5965C78.4342 26.5965 78.9946 26.3826 79.4328 25.9546C79.8811 25.5165 80.1053 24.9153 80.1053 24.1511V24.0135C80.1053 23.2289 79.8862 22.6277 79.4481 22.21C79.0099 21.782 78.4444 21.568 77.7515 21.568C77.079 21.568 76.5186 21.782 76.0703 22.21C75.6321 22.6277 75.413 23.2289 75.413 24.0135V24.1511C75.413 24.9153 75.6321 25.5165 76.0703 25.9546C76.5186 26.3826 77.079 26.5965 77.7515 26.5965ZM83.2026 27.9263V20.3912H84.7463V21.2776H84.9909C85.1131 20.9618 85.3067 20.7325 85.5717 20.5898C85.8468 20.437 86.183 20.3606 86.5804 20.3606H87.4822V21.782H86.5193C86.0098 21.782 85.592 21.9247 85.266 22.21C84.9399 22.4851 84.7769 22.913 84.7769 23.4938V27.9263H83.2026ZM91.5347 28.1402C90.7705 28.1402 90.103 27.9823 89.5324 27.6664C88.9618 27.3404 88.5135 26.8869 88.1874 26.3061C87.8715 25.7152 87.7136 25.0325 87.7136 24.2581V24.0746C87.7136 23.2901 87.8715 22.6074 88.1874 22.0266C88.5033 21.4356 88.9414 20.9821 89.5019 20.6663C90.0725 20.3402 90.7297 20.1772 91.4735 20.1772C92.197 20.1772 92.8287 20.3402 93.3688 20.6663C93.919 20.9821 94.347 21.4254 94.6526 21.996C94.9583 22.5666 95.1112 23.234 95.1112 23.9982V24.5943H89.3185C89.3388 25.2566 89.5579 25.7865 89.9757 26.1839C90.4036 26.5711 90.9335 26.7647 91.5652 26.7647C92.1562 26.7647 92.5995 26.6322 92.895 26.3673C93.2006 26.1024 93.435 25.7967 93.598 25.4502L94.8972 26.1227C94.7545 26.408 94.5457 26.7086 94.2705 27.0245C94.0056 27.3404 93.6541 27.6053 93.2159 27.8193C92.7778 28.0333 92.2174 28.1402 91.5347 28.1402ZM89.3337 23.3869H93.5063C93.4656 22.8162 93.2618 22.373 92.895 22.0571C92.5281 21.7311 92.0492 21.568 91.4582 21.568C90.8673 21.568 90.3833 21.7311 90.0062 22.0571C89.6394 22.373 89.4153 22.8162 89.3337 23.3869ZM99.3294 28.1402C98.3716 28.1402 97.5768 27.9263 96.945 27.4983C96.3133 27.0704 95.9261 26.4233 95.7834 25.5572L97.2507 25.2057C97.3322 25.6234 97.4698 25.9546 97.6634 26.1992C97.857 26.4437 98.0964 26.6169 98.3818 26.7188C98.6772 26.8207 98.9931 26.8717 99.3294 26.8717C99.8287 26.8717 100.211 26.7749 100.476 26.5813C100.751 26.3877 100.888 26.138 100.888 25.8323C100.888 25.5266 100.761 25.3025 100.506 25.1598C100.252 25.0172 99.8745 24.9 99.3752 24.8083L98.8556 24.7166C98.3461 24.6249 97.8825 24.4924 97.4647 24.3192C97.0469 24.146 96.7158 23.9065 96.4712 23.6008C96.2267 23.2952 96.1044 22.9029 96.1044 22.424C96.1044 21.7107 96.3693 21.1605 96.8992 20.7733C97.429 20.3759 98.1321 20.1772 99.0084 20.1772C99.8541 20.1772 100.547 20.3708 101.087 20.758C101.637 21.135 101.994 21.6496 102.157 22.3017L100.69 22.7144C100.598 22.2558 100.404 21.9349 100.109 21.7514C99.8134 21.5578 99.4466 21.461 99.0084 21.461C98.5804 21.461 98.2442 21.5426 97.9996 21.7056C97.7551 21.8584 97.6328 22.0775 97.6328 22.3628C97.6328 22.6685 97.75 22.8927 97.9844 23.0353C98.2289 23.178 98.555 23.285 98.9626 23.3563L99.4975 23.448C100.038 23.5397 100.532 23.6671 100.98 23.8301C101.428 23.9931 101.78 24.2275 102.035 24.5332C102.3 24.8389 102.432 25.2464 102.432 25.7559C102.432 26.5099 102.152 27.0958 101.591 27.5136C101.031 27.9314 100.277 28.1402 99.3294 28.1402Z" fill="#333333"/>
<rect x="323" width="164.947" height="45.8526" rx="22.9263" fill="#F3F3F3"/>
<path d="M349.106 25.4754V31.2069C349.106 31.3758 349.039 31.5378 348.919 31.6573C348.8 31.7767 348.638 31.8438 348.469 31.8438C348.3 31.8438 348.138 31.7767 348.019 31.6573C347.899 31.5378 347.832 31.3758 347.832 31.2069V25.4754C347.832 25.3065 347.899 25.1445 348.019 25.025C348.138 24.9056 348.3 24.8385 348.469 24.8385C348.638 24.8385 348.8 24.9056 348.919 25.025C349.039 25.1445 349.106 25.3065 349.106 25.4754ZM354.838 20.3806H350.006L353.378 17.0101C353.497 16.8906 353.564 16.7286 353.564 16.5596C353.564 16.3906 353.497 16.2285 353.378 16.109C353.258 15.9895 353.096 15.9224 352.927 15.9224C352.758 15.9224 352.596 15.9895 352.476 16.109L349.106 19.4803V14.649C349.106 14.4801 349.039 14.3182 348.919 14.1987C348.8 14.0793 348.638 14.0122 348.469 14.0122C348.3 14.0122 348.138 14.0793 348.019 14.1987C347.899 14.3182 347.832 14.4801 347.832 14.649V19.4803L344.462 16.109C344.342 15.9895 344.18 15.9224 344.011 15.9224C343.842 15.9224 343.68 15.9895 343.561 16.109C343.441 16.2285 343.374 16.3906 343.374 16.5596C343.374 16.7286 343.441 16.8906 343.561 17.0101L346.932 20.3806H342.101C341.932 20.3806 341.77 20.4477 341.65 20.5672C341.531 20.6866 341.464 20.8486 341.464 21.0175C341.464 21.1864 341.531 21.3484 341.65 21.4678C341.77 21.5872 341.932 21.6543 342.101 21.6543H346.932L343.561 25.0248C343.441 25.1443 343.374 25.3064 343.374 25.4754C343.374 25.6444 343.441 25.8064 343.561 25.9259C343.68 26.0454 343.842 26.1126 344.011 26.1126C344.18 26.1126 344.342 26.0454 344.462 25.9259L348.469 21.9178L352.476 25.9259C352.536 25.9851 352.606 26.032 352.683 26.0641C352.761 26.0961 352.843 26.1126 352.927 26.1126C353.011 26.1126 353.094 26.0961 353.171 26.0641C353.248 26.032 353.318 25.9851 353.378 25.9259C353.437 25.8668 353.484 25.7965 353.516 25.7192C353.548 25.6419 353.564 25.559 353.564 25.4754C353.564 25.3917 353.548 25.3088 353.516 25.2315C353.484 25.1542 353.437 25.084 353.378 25.0248L350.006 21.6543H354.838C355.006 21.6543 355.168 21.5872 355.288 21.4678C355.407 21.3484 355.474 21.1864 355.474 21.0175C355.474 20.8486 355.407 20.6866 355.288 20.5672C355.168 20.4477 355.006 20.3806 354.838 20.3806Z" fill="#193AE6"/>
<path d="M367.277 27.9263L370.334 17.2273H373.238L376.28 27.9263H374.583L373.88 25.4044H369.692L368.989 27.9263H367.277ZM370.105 23.876H373.468L371.909 18.2514H371.664L370.105 23.876ZM377.011 30.9831V20.3912H378.555V21.4763H378.799C378.993 21.1401 379.283 20.8395 379.67 20.5746C380.068 20.3096 380.633 20.1772 381.367 20.1772C381.999 20.1772 382.574 20.33 383.094 20.6357C383.624 20.9414 384.047 21.3846 384.363 21.9654C384.689 22.536 384.852 23.2289 384.852 24.0441V24.2733C384.852 25.0885 384.694 25.7865 384.378 26.3673C384.062 26.9379 383.639 27.376 383.109 27.6817C382.58 27.9874 381.999 28.1402 381.367 28.1402C380.878 28.1402 380.465 28.0791 380.129 27.9568C379.793 27.8346 379.523 27.6817 379.319 27.4983C379.115 27.3047 378.952 27.106 378.83 26.9022H378.585V30.9831H377.011ZM380.908 26.7647C381.601 26.7647 382.167 26.5456 382.605 26.1074C383.043 25.6693 383.262 25.0426 383.262 24.2275V24.0899C383.262 23.285 383.038 22.6634 382.59 22.2253C382.152 21.7871 381.591 21.568 380.908 21.568C380.236 21.568 379.676 21.7871 379.227 22.2253C378.789 22.6634 378.57 23.285 378.57 24.0899V24.2275C378.57 25.0426 378.789 25.6693 379.227 26.1074C379.676 26.5456 380.236 26.7647 380.908 26.7647ZM388.377 28.1402C387.837 28.1402 387.353 28.0485 386.925 27.8651C386.507 27.6817 386.171 27.4117 385.916 27.0551C385.671 26.6984 385.549 26.2654 385.549 25.7559C385.549 25.2362 385.671 24.8083 385.916 24.472C386.171 24.1256 386.512 23.8658 386.94 23.6925C387.378 23.5193 387.872 23.4327 388.423 23.4327H390.715V22.9436C390.715 22.5055 390.583 22.1539 390.318 21.889C390.053 21.6241 389.645 21.4916 389.095 21.4916C388.555 21.4916 388.142 21.619 387.857 21.8737C387.572 22.1285 387.383 22.4596 387.292 22.8672L385.824 22.3934C385.947 21.9858 386.14 21.619 386.405 21.2929C386.68 20.9567 387.042 20.6866 387.49 20.4829C387.939 20.2791 388.479 20.1772 389.11 20.1772C390.089 20.1772 390.858 20.4268 391.418 20.9261C391.979 21.4254 392.259 22.1336 392.259 23.0506V26.1533C392.259 26.459 392.402 26.6118 392.687 26.6118H393.329V27.9263H392.152C391.795 27.9263 391.505 27.8346 391.281 27.6512C391.057 27.4677 390.944 27.2181 390.944 26.9022V26.8564H390.715C390.634 27.0092 390.511 27.1875 390.348 27.3913C390.185 27.5951 389.946 27.7734 389.63 27.9263C389.314 28.0689 388.896 28.1402 388.377 28.1402ZM388.606 26.8411C389.238 26.8411 389.747 26.6628 390.134 26.3061C390.522 25.9393 390.715 25.44 390.715 24.8083V24.6554H388.514C388.097 24.6554 387.76 24.7472 387.506 24.9306C387.251 25.1038 387.123 25.3636 387.123 25.7101C387.123 26.0565 387.256 26.3316 387.521 26.5354C387.786 26.7392 388.147 26.8411 388.606 26.8411ZM397.416 28.1402C396.693 28.1402 396.036 27.9874 395.445 27.6817C394.864 27.376 394.4 26.9328 394.054 26.352C393.717 25.7712 393.549 25.0732 393.549 24.2581V24.0594C393.549 23.2442 393.717 22.5513 394.054 21.9807C394.4 21.3999 394.864 20.9567 395.445 20.651C396.036 20.3351 396.693 20.1772 397.416 20.1772C398.14 20.1772 398.756 20.3096 399.266 20.5746C399.775 20.8395 400.183 21.191 400.488 21.6292C400.804 22.0673 401.008 22.5513 401.1 23.0812L399.571 23.4021C399.52 23.0659 399.413 22.7602 399.25 22.4851C399.087 22.21 398.858 21.9909 398.563 21.8279C398.267 21.6648 397.895 21.5833 397.447 21.5833C397.009 21.5833 396.611 21.6852 396.255 21.889C395.908 22.0826 395.633 22.3679 395.429 22.7449C395.226 23.1117 395.124 23.5601 395.124 24.0899V24.2275C395.124 24.7573 395.226 25.2108 395.429 25.5878C395.633 25.9648 395.908 26.2501 396.255 26.4437C396.611 26.6373 397.009 26.7341 397.447 26.7341C398.109 26.7341 398.614 26.566 398.96 26.2297C399.306 25.8833 399.525 25.4451 399.617 24.9153L401.146 25.2668C401.023 25.7865 400.804 26.2654 400.488 26.7035C400.183 27.1417 399.775 27.4932 399.266 27.7581C398.756 28.0129 398.14 28.1402 397.416 28.1402ZM402.197 27.9263V17.2273H403.771V21.461H404.016C404.118 21.2674 404.26 21.0789 404.444 20.8955C404.637 20.7121 404.887 20.5644 405.193 20.4523C405.509 20.33 405.906 20.2689 406.385 20.2689C406.956 20.2689 407.46 20.3962 407.898 20.651C408.346 20.9057 408.698 21.2674 408.953 21.7362C409.207 22.1947 409.335 22.75 409.335 23.4021V27.9263H407.761V23.5244C407.761 22.8723 407.598 22.3934 407.271 22.0877C406.945 21.7718 406.497 21.6139 405.926 21.6139C405.274 21.6139 404.75 21.8279 404.352 22.2558C403.965 22.6838 403.771 23.3053 403.771 24.1205V27.9263H402.197ZM414.291 28.1402C413.526 28.1402 412.859 27.9823 412.288 27.6664C411.718 27.3404 411.269 26.8869 410.943 26.3061C410.627 25.7152 410.469 25.0325 410.469 24.2581V24.0746C410.469 23.2901 410.627 22.6074 410.943 22.0266C411.259 21.4356 411.697 20.9821 412.258 20.6663C412.828 20.3402 413.486 20.1772 414.229 20.1772C414.953 20.1772 415.585 20.3402 416.125 20.6663C416.675 20.9821 417.103 21.4254 417.408 21.996C417.714 22.5666 417.867 23.234 417.867 23.9982V24.5943H412.074C412.095 25.2566 412.314 25.7865 412.732 26.1839C413.159 26.5711 413.689 26.7647 414.321 26.7647C414.912 26.7647 415.355 26.6322 415.651 26.3673C415.956 26.1024 416.191 25.7967 416.354 25.4502L417.653 26.1227C417.51 26.408 417.302 26.7086 417.026 27.0245C416.761 27.3404 416.41 27.6053 415.972 27.8193C415.534 28.0333 414.973 28.1402 414.291 28.1402ZM412.09 23.3869H416.262C416.221 22.8162 416.018 22.373 415.651 22.0571C415.284 21.7311 414.805 21.568 414.214 21.568C413.623 21.568 413.139 21.7311 412.762 22.0571C412.395 22.373 412.171 22.8162 412.09 23.3869ZM422.083 27.9263V17.2273H423.734V27.9263H422.083ZM428.746 28.1402C428.022 28.1402 427.365 27.9874 426.774 27.6817C426.193 27.376 425.73 26.9328 425.383 26.352C425.047 25.7712 424.879 25.0732 424.879 24.2581V24.0594C424.879 23.2442 425.047 22.5513 425.383 21.9807C425.73 21.3999 426.193 20.9567 426.774 20.651C427.365 20.3351 428.022 20.1772 428.746 20.1772C429.469 20.1772 430.086 20.3096 430.595 20.5746C431.105 20.8395 431.512 21.191 431.818 21.6292C432.134 22.0673 432.338 22.5513 432.429 23.0812L430.901 23.4021C430.85 23.0659 430.743 22.7602 430.58 22.4851C430.417 22.21 430.188 21.9909 429.892 21.8279C429.597 21.6648 429.225 21.5833 428.776 21.5833C428.338 21.5833 427.941 21.6852 427.584 21.889C427.238 22.0826 426.963 22.3679 426.759 22.7449C426.555 23.1117 426.453 23.5601 426.453 24.0899V24.2275C426.453 24.7573 426.555 25.2108 426.759 25.5878C426.963 25.9648 427.238 26.2501 427.584 26.4437C427.941 26.6373 428.338 26.7341 428.776 26.7341C429.439 26.7341 429.943 26.566 430.29 26.2297C430.636 25.8833 430.855 25.4451 430.947 24.9153L432.475 25.2668C432.353 25.7865 432.134 26.2654 431.818 26.7035C431.512 27.1417 431.105 27.4932 430.595 27.7581C430.086 28.0129 429.469 28.1402 428.746 28.1402ZM436.981 28.1402C436.217 28.1402 435.549 27.9823 434.979 27.6664C434.408 27.3404 433.96 26.8869 433.634 26.3061C433.318 25.7152 433.16 25.0325 433.16 24.2581V24.0746C433.16 23.2901 433.318 22.6074 433.634 22.0266C433.95 21.4356 434.388 20.9821 434.948 20.6663C435.519 20.3402 436.176 20.1772 436.92 20.1772C437.643 20.1772 438.275 20.3402 438.815 20.6663C439.365 20.9821 439.793 21.4254 440.099 21.996C440.405 22.5666 440.557 23.234 440.557 23.9982V24.5943H434.765C434.785 25.2566 435.004 25.7865 435.422 26.1839C435.85 26.5711 436.38 26.7647 437.012 26.7647C437.603 26.7647 438.046 26.6322 438.341 26.3673C438.647 26.1024 438.881 25.7967 439.044 25.4502L440.344 26.1227C440.201 26.408 439.992 26.7086 439.717 27.0245C439.452 27.3404 439.1 27.6053 438.662 27.8193C438.224 28.0333 437.664 28.1402 436.981 28.1402ZM434.78 23.3869H438.953C438.912 22.8162 438.708 22.373 438.341 22.0571C437.974 21.7311 437.496 21.568 436.905 21.568C436.314 21.568 435.83 21.7311 435.453 22.0571C435.086 22.373 434.862 22.8162 434.78 23.3869ZM446.044 28.1402C445.311 28.1402 444.745 28.0078 444.348 27.7429C443.961 27.4779 443.67 27.1824 443.477 26.8564H443.232V27.9263H441.688V17.2273H443.263V21.4152H443.507C443.629 21.2114 443.792 21.0178 443.996 20.8344C444.2 20.6408 444.47 20.4829 444.806 20.3606C445.143 20.2383 445.555 20.1772 446.044 20.1772C446.676 20.1772 447.257 20.33 447.787 20.6357C448.317 20.9414 448.739 21.3846 449.055 21.9654C449.371 22.5462 449.529 23.2391 449.529 24.0441V24.2733C449.529 25.0885 449.366 25.7865 449.04 26.3673C448.724 26.9379 448.301 27.376 447.771 27.6817C447.252 27.9874 446.676 28.1402 446.044 28.1402ZM445.586 26.7647C446.268 26.7647 446.829 26.5456 447.267 26.1074C447.715 25.6693 447.94 25.0426 447.94 24.2275V24.0899C447.94 23.285 447.72 22.6634 447.282 22.2253C446.844 21.7871 446.279 21.568 445.586 21.568C444.913 21.568 444.353 21.7871 443.904 22.2253C443.466 22.6634 443.247 23.285 443.247 24.0899V24.2275C443.247 25.0426 443.466 25.6693 443.904 26.1074C444.353 26.5456 444.913 26.7647 445.586 26.7647ZM454.17 28.1402C453.406 28.1402 452.738 27.9823 452.168 27.6664C451.597 27.3404 451.149 26.8869 450.823 26.3061C450.507 25.7152 450.349 25.0325 450.349 24.2581V24.0746C450.349 23.2901 450.507 22.6074 450.823 22.0266C451.138 21.4356 451.577 20.9821 452.137 20.6663C452.708 20.3402 453.365 20.1772 454.109 20.1772C454.832 20.1772 455.464 20.3402 456.004 20.6663C456.554 20.9821 456.982 21.4254 457.288 21.996C457.593 22.5666 457.746 23.234 457.746 23.9982V24.5943H451.954C451.974 25.2566 452.193 25.7865 452.611 26.1839C453.039 26.5711 453.569 26.7647 454.2 26.7647C454.791 26.7647 455.235 26.6322 455.53 26.3673C455.836 26.1024 456.07 25.7967 456.233 25.4502L457.532 26.1227C457.39 26.408 457.181 26.7086 456.906 27.0245C456.641 27.3404 456.289 27.6053 455.851 27.8193C455.413 28.0333 454.852 28.1402 454.17 28.1402ZM451.969 23.3869H456.141C456.101 22.8162 455.897 22.373 455.53 22.0571C455.163 21.7311 454.684 21.568 454.093 21.568C453.502 21.568 453.018 21.7311 452.641 22.0571C452.275 22.373 452.05 22.8162 451.969 23.3869ZM458.877 27.9263V20.3912H460.421V21.2776H460.665C460.788 20.9618 460.981 20.7325 461.246 20.5898C461.521 20.437 461.857 20.3606 462.255 20.3606H463.157V21.782H462.194C461.684 21.782 461.266 21.9247 460.94 22.21C460.614 22.4851 460.451 22.913 460.451 23.4938V27.9263H458.877ZM463.388 24.1969V23.9677C463.388 23.1729 463.546 22.4953 463.862 21.9349C464.188 21.3744 464.616 20.9414 465.146 20.6357C465.676 20.33 466.256 20.1772 466.888 20.1772C467.622 20.1772 468.182 20.3147 468.569 20.5898C468.967 20.865 469.257 21.1605 469.441 21.4763H469.685V20.3912H471.214V29.47C471.214 29.9285 471.076 30.2953 470.801 30.5704C470.536 30.8456 470.169 30.9831 469.7 30.9831H464.626V29.6075H469.211C469.507 29.6075 469.655 29.4547 469.655 29.149V26.7494H469.41C469.298 26.9328 469.14 27.1213 468.936 27.3149C468.732 27.5085 468.462 27.6664 468.126 27.7887C467.8 27.911 467.387 27.9721 466.888 27.9721C466.256 27.9721 465.67 27.8244 465.13 27.5289C464.601 27.2232 464.178 26.7901 463.862 26.2297C463.546 25.6591 463.388 24.9815 463.388 24.1969ZM467.316 26.5965C467.999 26.5965 468.559 26.3826 468.997 25.9546C469.446 25.5165 469.67 24.9153 469.67 24.1511V24.0135C469.67 23.2289 469.451 22.6277 469.013 22.21C468.574 21.782 468.009 21.568 467.316 21.568C466.644 21.568 466.083 21.782 465.635 22.21C465.197 22.6277 464.978 23.2289 464.978 24.0135V24.1511C464.978 24.9153 465.197 25.5165 465.635 25.9546C466.083 26.3826 466.644 26.5965 467.316 26.5965Z" fill="#333333"/>
<path d="M115 23H338" stroke="#F3F3F3" stroke-width="4"/>
</svg>
