<svg width="233" height="361" viewBox="0 0 233 361" fill="none" xmlns="http://www.w3.org/2000/svg">
<rect y="0.0419922" width="233" height="360" rx="40" fill="url(#paint0_radial_1128_2675)"/>
<rect x="5" y="5.04199" width="224" height="318" rx="36.818" fill="white"/>
<path d="M61.2599 54.294C59.7119 54.294 58.4819 53.862 57.5699 52.998C56.6579 52.122 56.2019 50.862 56.2019 49.218V46.266C56.2019 44.622 56.6579 43.368 57.5699 42.504C58.4819 41.628 59.7119 41.19 61.2599 41.19C62.8079 41.19 64.0379 41.628 64.9499 42.504C65.8739 43.368 66.3359 44.622 66.3359 46.266V49.218C66.3359 50.862 65.8739 52.122 64.9499 52.998C64.0379 53.862 62.8079 54.294 61.2599 54.294ZM61.2599 52.548C62.2559 52.548 63.0239 52.26 63.5639 51.684C64.1039 51.096 64.3739 50.298 64.3739 49.29V46.194C64.3739 45.186 64.1039 44.394 63.5639 43.818C63.0239 43.23 62.2559 42.936 61.2599 42.936C60.2879 42.936 59.5259 43.23 58.9739 43.818C58.4219 44.394 58.1459 45.186 58.1459 46.194V49.29C58.1459 50.298 58.4219 51.096 58.9739 51.684C59.5259 52.26 60.2879 52.548 61.2599 52.548ZM62.0339 57.12C61.5179 57.12 61.0979 56.958 60.7739 56.634C60.4619 56.322 60.3059 55.896 60.3059 55.356V54.042H62.2139V55.032C62.2139 55.392 62.3819 55.572 62.7179 55.572H63.8339V57.12H62.0339ZM72.0932 54.204C71.4212 54.204 70.8212 54.054 70.2932 53.754C69.7652 53.454 69.3512 53.028 69.0512 52.476C68.7512 51.924 68.6012 51.264 68.6012 50.496V45.168H70.4552V50.37C70.4552 51.138 70.6472 51.708 71.0312 52.08C71.4152 52.44 71.9492 52.62 72.6332 52.62C73.3892 52.62 73.9952 52.368 74.4512 51.864C74.9192 51.348 75.1532 50.61 75.1532 49.65V45.168H77.0072V54.042H75.1892V52.71H74.9012C74.7332 53.07 74.4332 53.412 74.0012 53.736C73.5692 54.048 72.9332 54.204 72.0932 54.204ZM83.8159 54.294C82.9159 54.294 82.1299 54.108 81.4579 53.736C80.7859 53.352 80.2579 52.818 79.8739 52.134C79.5019 51.438 79.3159 50.634 79.3159 49.722V49.506C79.3159 48.582 79.5019 47.778 79.8739 47.094C80.2459 46.398 80.7619 45.864 81.4219 45.492C82.0939 45.108 82.8679 44.916 83.7439 44.916C84.5959 44.916 85.3399 45.108 85.9759 45.492C86.6239 45.864 87.1279 46.386 87.4879 47.058C87.8479 47.73 88.0279 48.516 88.0279 49.416V50.118H81.2059C81.2299 50.898 81.4879 51.522 81.9799 51.99C82.4839 52.446 83.1079 52.674 83.8519 52.674C84.5479 52.674 85.0699 52.518 85.4179 52.206C85.7779 51.894 86.0539 51.534 86.2459 51.126L87.7759 51.918C87.6079 52.254 87.3619 52.608 87.0379 52.98C86.7259 53.352 86.3119 53.664 85.7959 53.916C85.2799 54.168 84.6199 54.294 83.8159 54.294ZM81.2239 48.696H86.1379C86.0899 48.024 85.8499 47.502 85.4179 47.13C84.9859 46.746 84.4219 46.554 83.7259 46.554C83.0299 46.554 82.4599 46.746 82.0159 47.13C81.5839 47.502 81.3199 48.024 81.2239 48.696ZM90.2596 54.042V45.168H92.0776V46.212H92.3656C92.5096 45.84 92.7376 45.57 93.0496 45.402C93.3736 45.222 93.7696 45.132 94.2376 45.132H95.2996V46.806H94.1656C93.5656 46.806 93.0736 46.974 92.6896 47.31C92.3056 47.634 92.1136 48.138 92.1136 48.822V54.042H90.2596ZM98.2465 57.642V56.022H103.197C103.533 56.022 103.701 55.842 103.701 55.482V52.746H103.413C103.305 52.986 103.137 53.22 102.909 53.448C102.693 53.664 102.399 53.844 102.027 53.988C101.655 54.132 101.187 54.204 100.623 54.204C99.9505 54.204 99.3505 54.054 98.8225 53.754C98.2945 53.454 97.8805 53.028 97.5805 52.476C97.2805 51.924 97.1305 51.27 97.1305 50.514V45.168H98.9845V50.37C98.9845 51.138 99.1765 51.708 99.5605 52.08C99.9445 52.44 100.479 52.62 101.163 52.62C101.919 52.62 102.525 52.368 102.981 51.864C103.449 51.36 103.683 50.628 103.683 49.668V45.168H105.537V55.86C105.537 56.4 105.375 56.832 105.051 57.156C104.739 57.48 104.307 57.642 103.755 57.642H98.2465ZM112.811 54.042V41.442H120.749V43.206H114.755V46.824H120.245V48.588H114.755V52.278H120.839V54.042H112.811ZM122.92 54.042V45.168H124.738V46.5H125.026C125.194 46.14 125.494 45.804 125.926 45.492C126.358 45.18 127 45.024 127.852 45.024C128.524 45.024 129.118 45.174 129.634 45.474C130.162 45.774 130.576 46.2 130.876 46.752C131.176 47.292 131.326 47.946 131.326 48.714V54.042H129.472V48.858C129.472 48.09 129.28 47.526 128.896 47.166C128.512 46.794 127.984 46.608 127.312 46.608C126.544 46.608 125.926 46.86 125.458 47.364C125.002 47.868 124.774 48.6 124.774 49.56V54.042H122.92ZM133.562 49.65V49.38C133.562 48.444 133.748 47.646 134.12 46.986C134.504 46.326 135.008 45.816 135.632 45.456C136.256 45.096 136.94 44.916 137.684 44.916C138.548 44.916 139.208 45.078 139.664 45.402C140.132 45.726 140.474 46.074 140.69 46.446H140.978V45.168H142.778V55.86C142.778 56.4 142.616 56.832 142.292 57.156C141.98 57.48 141.548 57.642 140.996 57.642H135.02V56.022H140.42C140.768 56.022 140.942 55.842 140.942 55.482V52.656H140.654C140.522 52.872 140.336 53.094 140.096 53.322C139.856 53.55 139.538 53.736 139.142 53.88C138.758 54.024 138.272 54.096 137.684 54.096C136.94 54.096 136.25 53.922 135.614 53.574C134.99 53.214 134.492 52.704 134.12 52.044C133.748 51.372 133.562 50.574 133.562 49.65ZM138.188 52.476C138.992 52.476 139.652 52.224 140.168 51.72C140.696 51.204 140.96 50.496 140.96 49.596V49.434C140.96 48.51 140.702 47.802 140.186 47.31C139.67 46.806 139.004 46.554 138.188 46.554C137.396 46.554 136.736 46.806 136.208 47.31C135.692 47.802 135.434 48.51 135.434 49.434V49.596C135.434 50.496 135.692 51.204 136.208 51.72C136.736 52.224 137.396 52.476 138.188 52.476ZM145.508 54.042V45.168H147.362V54.042H145.508ZM146.444 43.962C146.084 43.962 145.778 43.848 145.526 43.62C145.286 43.38 145.166 43.074 145.166 42.702C145.166 42.33 145.286 42.03 145.526 41.802C145.778 41.562 146.084 41.442 146.444 41.442C146.816 41.442 147.122 41.562 147.362 41.802C147.602 42.03 147.722 42.33 147.722 42.702C147.722 43.074 147.602 43.38 147.362 43.62C147.122 43.848 146.816 43.962 146.444 43.962ZM150.113 54.042V45.168H151.931V46.5H152.219C152.387 46.14 152.687 45.804 153.119 45.492C153.551 45.18 154.193 45.024 155.045 45.024C155.717 45.024 156.311 45.174 156.827 45.474C157.355 45.774 157.769 46.2 158.069 46.752C158.369 47.292 158.519 47.946 158.519 48.714V54.042H156.665V48.858C156.665 48.09 156.473 47.526 156.089 47.166C155.705 46.794 155.177 46.608 154.505 46.608C153.737 46.608 153.119 46.86 152.651 47.364C152.195 47.868 151.967 48.6 151.967 49.56V54.042H150.113ZM165.255 54.294C164.355 54.294 163.569 54.108 162.897 53.736C162.225 53.352 161.697 52.818 161.313 52.134C160.941 51.438 160.755 50.634 160.755 49.722V49.506C160.755 48.582 160.941 47.778 161.313 47.094C161.685 46.398 162.201 45.864 162.861 45.492C163.533 45.108 164.307 44.916 165.183 44.916C166.035 44.916 166.779 45.108 167.415 45.492C168.063 45.864 168.567 46.386 168.927 47.058C169.287 47.73 169.467 48.516 169.467 49.416V50.118H162.645C162.669 50.898 162.927 51.522 163.419 51.99C163.923 52.446 164.547 52.674 165.291 52.674C165.987 52.674 166.509 52.518 166.857 52.206C167.217 51.894 167.493 51.534 167.685 51.126L169.215 51.918C169.047 52.254 168.801 52.608 168.477 52.98C168.165 53.352 167.751 53.664 167.235 53.916C166.719 54.168 166.059 54.294 165.255 54.294ZM162.663 48.696H167.577C167.529 48.024 167.289 47.502 166.857 47.13C166.425 46.746 165.861 46.554 165.165 46.554C164.469 46.554 163.899 46.746 163.455 47.13C163.023 47.502 162.759 48.024 162.663 48.696ZM175.335 54.294C174.207 54.294 173.271 54.042 172.527 53.538C171.783 53.034 171.327 52.272 171.159 51.252L172.887 50.838C172.983 51.33 173.145 51.72 173.373 52.008C173.601 52.296 173.883 52.5 174.219 52.62C174.567 52.74 174.939 52.8 175.335 52.8C175.923 52.8 176.373 52.686 176.685 52.458C177.009 52.23 177.171 51.936 177.171 51.576C177.171 51.216 177.021 50.952 176.721 50.784C176.421 50.616 175.977 50.478 175.389 50.37L174.777 50.262C174.177 50.154 173.631 49.998 173.139 49.794C172.647 49.59 172.257 49.308 171.969 48.948C171.681 48.588 171.537 48.126 171.537 47.562C171.537 46.722 171.849 46.074 172.473 45.618C173.097 45.15 173.925 44.916 174.957 44.916C175.953 44.916 176.769 45.144 177.405 45.6C178.053 46.044 178.473 46.65 178.665 47.418L176.937 47.904C176.829 47.364 176.601 46.986 176.253 46.77C175.905 46.542 175.473 46.428 174.957 46.428C174.453 46.428 174.057 46.524 173.769 46.716C173.481 46.896 173.337 47.154 173.337 47.49C173.337 47.85 173.475 48.114 173.751 48.282C174.039 48.45 174.423 48.576 174.903 48.66L175.533 48.768C176.169 48.876 176.751 49.026 177.279 49.218C177.807 49.41 178.221 49.686 178.521 50.046C178.833 50.406 178.989 50.886 178.989 51.486C178.989 52.374 178.659 53.064 177.999 53.556C177.339 54.048 176.451 54.294 175.335 54.294Z" fill="#363636"/>
<g filter="url(#filter0_d_1128_2675)">
<path d="M46 100.042C46 93.9669 50.9249 89.042 57 89.042H83C89.0751 89.042 94 93.9669 94 100.042V126.042C94 132.117 89.0751 137.042 83 137.042H57C50.9249 137.042 46 132.117 46 126.042V100.042Z" fill="white"/>
<g clip-path="url(#clip0_1128_2675)">
<path d="M68.8079 101.043C68.3825 101.055 67.9623 101.257 67.6109 101.647C67.4178 101.862 67.2537 102.117 67.1178 102.37C66.7634 103.033 66.6937 103.785 66.5624 104.513L65.8402 108.602C65.8124 108.763 65.7404 108.829 65.5964 108.875L60.2962 110.559C59.9099 110.685 59.5227 110.848 59.1811 111.065C58.139 111.727 57.9849 112.816 58.7673 113.772C59.1127 114.195 59.5578 114.493 60.0517 114.709L63.3522 116.179C63.3798 116.194 63.4092 116.204 63.439 116.21L64.136 116.713C64.136 116.713 63.4422 124.39 64.7446 124.922C64.7332 124.92 64.6677 124.906 64.6677 124.906C64.6677 124.906 64.7997 125.049 65.1558 125.007C65.4284 125.058 65.3924 125.049 65.1697 125.005C65.654 124.942 66.5454 124.537 68.0905 122.983C68.2042 122.881 68.3153 122.776 68.4235 122.669L71.761 119.066L72.5416 119.34C72.5697 119.379 72.6104 119.404 72.6755 119.423L76.3923 120.554C76.9002 120.711 77.4027 120.826 77.9442 120.747C78.911 120.605 79.6225 119.809 79.613 118.836C79.6092 118.408 79.4592 118.022 79.2624 117.65L76.8009 112.981C76.7225 112.834 76.7249 112.738 76.8376 112.606L80.9727 107.746C81.2405 107.427 81.4822 107.084 81.6224 106.688C81.9305 105.812 81.532 105.116 80.623 104.946C80.2051 104.871 79.793 104.911 79.3855 105.018L73.4611 106.592C73.2867 106.639 73.2005 106.606 73.1058 106.447L70.687 102.429C70.5042 102.126 70.2858 101.83 70.0351 101.58C69.664 101.209 69.2334 101.031 68.8079 101.043ZM68.9849 104.743C69.0805 104.81 69.1289 104.879 69.1743 104.954L71.7768 109.291C71.8484 109.409 71.9127 109.45 72.0552 109.412L76.6383 108.194L77.7417 107.905C77.7254 107.998 77.6851 108.054 77.641 108.106L73.861 112.544C73.7542 112.673 73.7442 112.764 73.8247 112.915L76.214 117.445L76.3237 117.677L76.3209 117.68L72.0595 116.506L72.0584 116.502L71.2525 116.277L66.4726 121.575L67.3469 114.609L66.5624 114.268L66.5639 114.266L62.125 112.504C62.2102 112.426 62.2863 112.394 62.366 112.369L67.7617 110.664C67.8884 110.625 67.9606 110.576 67.9726 110.431L68.0482 109.989L68.7747 105.901L68.9849 104.743Z" fill="#E15919"/>
</g>
</g>
<path d="M56.732 157.21C56.1 157.21 55.54 157.098 55.052 156.874C54.564 156.65 54.18 156.322 53.9 155.89C53.628 155.45 53.492 154.918 53.492 154.294V153.994H54.776V154.294C54.776 154.886 54.952 155.33 55.304 155.626C55.664 155.922 56.14 156.07 56.732 156.07C57.332 156.07 57.784 155.946 58.088 155.698C58.392 155.442 58.544 155.114 58.544 154.714C58.544 154.45 58.472 154.234 58.328 154.066C58.184 153.898 57.98 153.766 57.716 153.67C57.452 153.566 57.136 153.47 56.768 153.382L56.324 153.274C55.788 153.146 55.32 152.99 54.92 152.806C54.528 152.614 54.224 152.362 54.008 152.05C53.792 151.738 53.684 151.338 53.684 150.85C53.684 150.354 53.804 149.93 54.044 149.578C54.292 149.226 54.632 148.954 55.064 148.762C55.496 148.57 56.004 148.474 56.588 148.474C57.172 148.474 57.692 148.574 58.148 148.774C58.612 148.974 58.976 149.27 59.24 149.662C59.504 150.054 59.636 150.546 59.636 151.138V151.57H58.352V151.138C58.352 150.778 58.276 150.486 58.124 150.262C57.98 150.038 57.776 149.874 57.512 149.77C57.248 149.666 56.94 149.614 56.588 149.614C56.076 149.614 55.676 149.722 55.388 149.938C55.108 150.146 54.968 150.438 54.968 150.814C54.968 151.07 55.028 151.282 55.148 151.45C55.276 151.61 55.46 151.742 55.7 151.846C55.94 151.95 56.24 152.042 56.6 152.122L57.044 152.23C57.588 152.35 58.068 152.506 58.484 152.698C58.9 152.882 59.228 153.134 59.468 153.454C59.708 153.774 59.828 154.186 59.828 154.69C59.828 155.194 59.7 155.634 59.444 156.01C59.196 156.386 58.84 156.682 58.376 156.898C57.912 157.106 57.364 157.21 56.732 157.21ZM61.2245 159.442V151.126H62.4365V151.978H62.6285C62.7805 151.714 63.0085 151.478 63.3125 151.27C63.6245 151.062 64.0685 150.958 64.6445 150.958C65.1405 150.958 65.5925 151.078 66.0005 151.318C66.4165 151.558 66.7485 151.906 66.9965 152.362C67.2525 152.81 67.3805 153.354 67.3805 153.994V154.174C67.3805 154.814 67.2565 155.362 67.0085 155.818C66.7605 156.266 66.4285 156.61 66.0125 156.85C65.5965 157.09 65.1405 157.21 64.6445 157.21C64.2605 157.21 63.9365 157.162 63.6725 157.066C63.4085 156.97 63.1965 156.85 63.0365 156.706C62.8765 156.554 62.7485 156.398 62.6525 156.238H62.4605V159.442H61.2245ZM64.2845 156.13C64.8285 156.13 65.2725 155.958 65.6165 155.614C65.9605 155.27 66.1325 154.778 66.1325 154.138V154.03C66.1325 153.398 65.9565 152.91 65.6045 152.566C65.2605 152.222 64.8205 152.05 64.2845 152.05C63.7565 152.05 63.3165 152.222 62.9645 152.566C62.6205 152.91 62.4485 153.398 62.4485 154.03V154.138C62.4485 154.778 62.6205 155.27 62.9645 155.614C63.3165 155.958 63.7565 156.13 64.2845 156.13ZM70.748 157.21C70.324 157.21 69.944 157.138 69.608 156.994C69.28 156.85 69.016 156.638 68.816 156.358C68.624 156.078 68.528 155.738 68.528 155.338C68.528 154.93 68.624 154.594 68.816 154.33C69.016 154.058 69.284 153.854 69.62 153.718C69.964 153.582 70.352 153.514 70.784 153.514H72.584V153.13C72.584 152.786 72.48 152.51 72.272 152.302C72.064 152.094 71.744 151.99 71.312 151.99C70.888 151.99 70.564 152.09 70.34 152.29C70.116 152.49 69.968 152.75 69.896 153.07L68.744 152.698C68.84 152.378 68.992 152.09 69.2 151.834C69.416 151.57 69.7 151.358 70.052 151.198C70.404 151.038 70.828 150.958 71.324 150.958C72.092 150.958 72.696 151.154 73.136 151.546C73.576 151.938 73.796 152.494 73.796 153.214V155.65C73.796 155.89 73.908 156.01 74.132 156.01H74.636V157.042H73.712C73.432 157.042 73.204 156.97 73.028 156.826C72.852 156.682 72.764 156.486 72.764 156.238V156.202H72.584C72.52 156.322 72.424 156.462 72.296 156.622C72.168 156.782 71.98 156.922 71.732 157.042C71.484 157.154 71.156 157.21 70.748 157.21ZM70.928 156.19C71.424 156.19 71.824 156.05 72.128 155.77C72.432 155.482 72.584 155.09 72.584 154.594V154.474H70.856C70.528 154.474 70.264 154.546 70.064 154.69C69.864 154.826 69.764 155.03 69.764 155.302C69.764 155.574 69.868 155.79 70.076 155.95C70.284 156.11 70.568 156.19 70.928 156.19ZM75.8378 157.042V151.126H77.0498V151.822H77.2418C77.3378 151.574 77.4898 151.394 77.6978 151.282C77.9138 151.162 78.1778 151.102 78.4898 151.102H79.1978V152.218H78.4418C78.0418 152.218 77.7138 152.33 77.4578 152.554C77.2018 152.77 77.0738 153.106 77.0738 153.562V157.042H75.8378ZM80.4784 157.042V148.642H81.7144V153.43H81.9064L84.2344 151.126H85.8784L82.8904 153.994L85.9744 157.042H84.3424L81.9064 154.582H81.7144V157.042H80.4784Z" fill="#777777"/>
<g filter="url(#filter1_d_1128_2675)">
<path d="M133 100.042C133 93.9669 137.925 89.042 144 89.042H170C176.075 89.042 181 93.9669 181 100.042V126.042C181 132.117 176.075 137.042 170 137.042H144C137.925 137.042 133 132.117 133 126.042V100.042Z" fill="white"/>
<path fill-rule="evenodd" clip-rule="evenodd" d="M156.103 107.686C157.93 107.686 158.931 108.092 159.114 108.296C158.931 108.5 157.93 108.906 156.103 108.906C154.276 108.906 153.275 108.5 153.092 108.296C153.275 108.092 154.276 107.686 156.103 107.686ZM155.895 110.937C155.828 110.902 155.781 110.835 155.781 110.754C155.781 110.641 155.873 110.549 155.986 110.549C156.018 110.549 156.048 110.558 156.076 110.572L155.895 110.937ZM158.248 114.289C158.217 114.314 158.148 114.361 158.005 114.418C157.878 114.468 157.727 114.514 157.557 114.553C157.103 114.659 156.545 114.717 155.985 114.717C154.761 114.717 153.909 114.455 153.725 114.292L153.183 109.27C154.014 109.607 155.239 109.719 156.103 109.719C156.953 109.719 158.151 109.61 158.982 109.286L158.658 111.495C158.047 111.266 157.284 110.935 156.562 110.586C156.489 110.333 156.26 110.147 155.986 110.147C155.653 110.147 155.382 110.42 155.382 110.754C155.382 111.089 155.653 111.362 155.986 111.362C156.064 111.362 156.139 111.346 156.208 111.318C157.217 111.812 157.97 112.129 158.536 112.325L158.248 114.289ZM152.27 108.34L152.924 114.394C152.97 115.517 155.861 115.53 155.985 115.53C156.604 115.53 157.227 115.464 157.738 115.346C157.948 115.297 158.138 115.239 158.302 115.174C158.779 114.984 159.029 114.724 159.047 114.403L159.319 112.548C159.504 112.586 159.656 112.603 159.776 112.603C160.156 112.603 160.256 112.448 160.325 112.342C160.398 112.229 160.419 112.092 160.385 111.953C160.308 111.634 159.854 111.215 159.551 110.965L159.934 108.355L159.931 108.355C159.932 108.335 159.939 108.316 159.939 108.296C159.939 107.173 157.527 106.873 156.103 106.873C154.679 106.873 152.267 107.173 152.267 108.296C152.267 108.311 152.273 108.324 152.274 108.339L152.27 108.34ZM155.916 104.794C159.435 104.794 162.298 107.677 162.298 111.22C162.298 114.763 159.435 117.646 155.916 117.646C152.397 117.646 149.534 114.763 149.534 111.22C149.534 107.677 152.397 104.794 155.916 104.794ZM145.807 113.581V114.394H149.441V114.346C150.603 116.774 153.065 118.459 155.916 118.459C159.88 118.459 163.106 115.212 163.106 111.22C163.106 107.228 159.88 103.981 155.916 103.981C152.832 103.981 150.203 105.95 149.184 108.702H145.807V109.515H148.936C148.81 110.039 148.736 110.581 148.73 111.142H145V111.955H148.763C148.82 112.519 148.948 113.062 149.127 113.581H145.807ZM167.812 123.346C167.324 123.838 166.477 123.841 165.988 123.35L161.651 118.982C162.349 118.458 162.972 117.84 163.506 117.148L167.817 121.51C168.06 121.754 168.193 122.081 168.192 122.427C168.192 122.775 168.057 123.1 167.812 123.346ZM168.389 120.936L163.981 116.476C164.958 114.961 165.528 113.157 165.528 111.22C165.528 105.883 161.216 101.542 155.916 101.542C152.108 101.542 148.654 103.81 147.117 107.319L147.856 107.647C149.264 104.432 152.427 102.355 155.916 102.355C160.771 102.355 164.721 106.332 164.721 111.22C164.721 116.108 160.771 120.085 155.916 120.085C152.673 120.085 149.701 118.297 148.16 115.42L147.45 115.806C149.131 118.947 152.376 120.898 155.916 120.898C157.769 120.898 159.501 120.366 160.97 119.447L165.418 123.925C165.813 124.323 166.338 124.542 166.896 124.542C167.457 124.542 167.986 124.321 168.382 123.922C168.78 123.524 168.999 122.994 169 122.429C169.001 121.864 168.784 121.334 168.389 120.936Z" fill="#7847D4"/>
</g>
<path d="M122.252 157.042L124.652 148.642H126.932L129.32 157.042H127.988L127.436 155.062H124.148L123.596 157.042H122.252ZM124.472 153.862H127.112L125.888 149.446H125.696L124.472 153.862ZM130.945 157.042L129.708 148.642H131.005L132.013 156.166H132.205L133.501 148.642H135.769L137.065 156.166H137.257L138.253 148.642H139.549L138.313 157.042H136.045L134.725 149.41H134.533L133.225 157.042H130.945ZM143.685 157.21C143.053 157.21 142.493 157.098 142.005 156.874C141.517 156.65 141.133 156.322 140.853 155.89C140.581 155.45 140.445 154.918 140.445 154.294V153.994H141.729V154.294C141.729 154.886 141.905 155.33 142.257 155.626C142.617 155.922 143.093 156.07 143.685 156.07C144.285 156.07 144.737 155.946 145.041 155.698C145.345 155.442 145.497 155.114 145.497 154.714C145.497 154.45 145.425 154.234 145.281 154.066C145.137 153.898 144.933 153.766 144.669 153.67C144.405 153.566 144.089 153.47 143.721 153.382L143.277 153.274C142.741 153.146 142.273 152.99 141.873 152.806C141.481 152.614 141.177 152.362 140.961 152.05C140.745 151.738 140.637 151.338 140.637 150.85C140.637 150.354 140.757 149.93 140.997 149.578C141.245 149.226 141.585 148.954 142.017 148.762C142.449 148.57 142.957 148.474 143.541 148.474C144.125 148.474 144.645 148.574 145.101 148.774C145.565 148.974 145.929 149.27 146.193 149.662C146.457 150.054 146.589 150.546 146.589 151.138V151.57H145.305V151.138C145.305 150.778 145.229 150.486 145.077 150.262C144.933 150.038 144.729 149.874 144.465 149.77C144.201 149.666 143.893 149.614 143.541 149.614C143.029 149.614 142.629 149.722 142.341 149.938C142.061 150.146 141.921 150.438 141.921 150.814C141.921 151.07 141.981 151.282 142.101 151.45C142.229 151.61 142.413 151.742 142.653 151.846C142.893 151.95 143.193 152.042 143.553 152.122L143.997 152.23C144.541 152.35 145.021 152.506 145.437 152.698C145.853 152.882 146.181 153.134 146.421 153.454C146.661 153.774 146.781 154.186 146.781 154.69C146.781 155.194 146.653 155.634 146.397 156.01C146.149 156.386 145.793 156.682 145.329 156.898C144.865 157.106 144.317 157.21 143.685 157.21ZM150.424 157.042L152.824 148.642H155.104L157.492 157.042H156.16L155.608 155.062H152.32L151.768 157.042H150.424ZM152.644 153.862H155.284L154.06 149.446H153.868L152.644 153.862ZM160.616 157.042C160.256 157.042 159.968 156.934 159.752 156.718C159.544 156.502 159.44 156.214 159.44 155.854V152.17H157.808V151.126H159.44V149.17H160.676V151.126H162.44V152.17H160.676V155.638C160.676 155.878 160.788 155.998 161.012 155.998H162.248V157.042H160.616ZM163.892 157.042V148.642H165.128V151.966H165.32C165.4 151.814 165.512 151.666 165.656 151.522C165.808 151.378 166.004 151.262 166.244 151.174C166.492 151.078 166.804 151.03 167.18 151.03C167.628 151.03 168.024 151.13 168.368 151.33C168.72 151.53 168.996 151.814 169.196 152.182C169.396 152.542 169.496 152.978 169.496 153.49V157.042H168.26V153.586C168.26 153.074 168.132 152.698 167.876 152.458C167.62 152.21 167.268 152.086 166.82 152.086C166.308 152.086 165.896 152.254 165.584 152.59C165.28 152.926 165.128 153.414 165.128 154.054V157.042H163.892ZM173.987 157.21C173.387 157.21 172.863 157.086 172.415 156.838C171.967 156.582 171.615 156.226 171.359 155.77C171.111 155.306 170.987 154.77 170.987 154.162V154.018C170.987 153.402 171.111 152.866 171.359 152.41C171.607 151.946 171.951 151.59 172.391 151.342C172.839 151.086 173.355 150.958 173.939 150.958C174.507 150.958 175.003 151.086 175.427 151.342C175.859 151.59 176.195 151.938 176.435 152.386C176.675 152.834 176.795 153.358 176.795 153.958V154.426H172.247C172.263 154.946 172.435 155.362 172.763 155.674C173.099 155.978 173.515 156.13 174.011 156.13C174.475 156.13 174.823 156.026 175.055 155.818C175.295 155.61 175.479 155.37 175.607 155.098L176.627 155.626C176.515 155.85 176.351 156.086 176.135 156.334C175.927 156.582 175.651 156.79 175.307 156.958C174.963 157.126 174.523 157.21 173.987 157.21ZM172.259 153.478H175.535C175.503 153.03 175.343 152.682 175.055 152.434C174.767 152.178 174.391 152.05 173.927 152.05C173.463 152.05 173.083 152.178 172.787 152.434C172.499 152.682 172.323 153.03 172.259 153.478ZM178.283 157.042V151.126H179.495V152.014H179.687C179.799 151.774 179.999 151.55 180.287 151.342C180.575 151.134 181.003 151.03 181.571 151.03C182.019 151.03 182.415 151.13 182.759 151.33C183.111 151.53 183.387 151.814 183.587 152.182C183.787 152.542 183.887 152.978 183.887 153.49V157.042H182.651V153.586C182.651 153.074 182.523 152.698 182.267 152.458C182.011 152.21 181.659 152.086 181.211 152.086C180.699 152.086 180.287 152.254 179.975 152.59C179.671 152.926 179.519 153.414 179.519 154.054V157.042H178.283ZM187.502 157.21C187.078 157.21 186.698 157.138 186.362 156.994C186.034 156.85 185.77 156.638 185.57 156.358C185.378 156.078 185.282 155.738 185.282 155.338C185.282 154.93 185.378 154.594 185.57 154.33C185.77 154.058 186.038 153.854 186.374 153.718C186.718 153.582 187.106 153.514 187.538 153.514H189.338V153.13C189.338 152.786 189.234 152.51 189.026 152.302C188.818 152.094 188.498 151.99 188.066 151.99C187.642 151.99 187.318 152.09 187.094 152.29C186.87 152.49 186.722 152.75 186.65 153.07L185.498 152.698C185.594 152.378 185.746 152.09 185.954 151.834C186.17 151.57 186.454 151.358 186.806 151.198C187.158 151.038 187.582 150.958 188.078 150.958C188.846 150.958 189.45 151.154 189.89 151.546C190.33 151.938 190.55 152.494 190.55 153.214V155.65C190.55 155.89 190.662 156.01 190.886 156.01H191.39V157.042H190.466C190.186 157.042 189.958 156.97 189.782 156.826C189.606 156.682 189.518 156.486 189.518 156.238V156.202H189.338C189.274 156.322 189.178 156.462 189.05 156.622C188.922 156.782 188.734 156.922 188.486 157.042C188.238 157.154 187.91 157.21 187.502 157.21ZM187.682 156.19C188.178 156.19 188.578 156.05 188.882 155.77C189.186 155.482 189.338 155.09 189.338 154.594V154.474H187.61C187.282 154.474 187.018 154.546 186.818 154.69C186.618 154.826 186.518 155.03 186.518 155.302C186.518 155.574 186.622 155.79 186.83 155.95C187.038 156.11 187.322 156.19 187.682 156.19Z" fill="#777777"/>
<g filter="url(#filter2_d_1128_2675)">
<path d="M46 195.042C46 188.967 50.9249 184.042 57 184.042H83C89.0751 184.042 94 188.967 94 195.042V221.042C94 227.117 89.0751 232.042 83 232.042H57C50.9249 232.042 46 227.117 46 221.042V195.042Z" fill="white"/>
<g clip-path="url(#clip1_1128_2675)">
<path d="M76.9542 207.725C76.9542 207.422 76.8292 207.132 76.6068 206.917C76.3844 206.703 76.0827 206.583 75.7681 206.583C75.4536 206.583 75.1519 206.703 74.9295 206.917C74.7071 207.132 74.5821 207.422 74.5821 207.725C74.5883 207.943 74.6643 208.153 74.7995 208.327C74.9347 208.501 75.1226 208.63 75.3372 208.697V210.438C74.8203 209.162 73.8529 208.103 72.6053 207.447C72.7872 207.066 72.973 206.739 73.1509 206.438C73.8305 205.469 74.5795 204.548 75.3926 203.68C75.8393 203.169 76.2623 202.689 76.6063 202.27C77.5709 201.104 78.6305 199.383 78.4328 198.362C78.4088 198.219 78.352 198.082 78.2665 197.963C78.181 197.844 78.069 197.744 77.9386 197.672C76.5984 196.91 74.7758 199.386 72.9849 201.775C71.7988 203.352 71.186 205.584 70.9053 206.838C70.356 206.722 69.7954 206.663 69.233 206.663C68.4154 206.66 67.603 206.789 66.8293 207.044C66.779 205.645 66.8225 204.246 66.9598 202.853C67.3551 199.23 67.1812 197.104 66.4498 196.377C66.3559 196.267 66.2372 196.18 66.1029 196.122C65.9685 196.064 65.8221 196.037 65.6749 196.042C63.5163 196.144 63.7614 202.358 63.797 203.066C63.884 204.765 64.5877 206.83 65.0147 207.973C64.0184 208.733 63.2928 209.773 62.9391 210.948H62.7849C62.6224 210.941 62.4601 210.965 62.3073 211.019C62.1545 211.073 62.0143 211.155 61.8948 211.261C61.7753 211.368 61.6789 211.496 61.6111 211.638C61.5434 211.781 61.5056 211.935 61.5 212.091V214.061C61.5061 214.217 61.5442 214.371 61.6122 214.513C61.6801 214.655 61.7766 214.783 61.896 214.889C62.0154 214.996 62.1554 215.078 62.3079 215.132C62.4604 215.186 62.6225 215.21 62.7849 215.204H63.0458C63.343 215.875 63.7866 216.476 64.3465 216.967L63.9512 217.303C63.859 217.379 63.8019 217.488 63.7923 217.605C63.7826 217.722 63.8213 217.838 63.8998 217.927C65.0858 219.318 67.027 220.114 69.2053 220.114C71.3837 220.114 73.3328 219.318 74.5109 217.927C74.5894 217.838 74.6281 217.722 74.6184 217.605C74.6088 217.488 74.5517 217.379 74.4595 217.303L74.0642 216.967C74.6258 216.466 75.0693 215.854 75.3649 215.173H75.6614C75.8237 215.18 75.9858 215.155 76.1384 215.101C76.2909 215.048 76.4309 214.965 76.5503 214.859C76.6697 214.753 76.7661 214.625 76.8341 214.483C76.9021 214.34 76.9402 214.187 76.9463 214.03V212.076C76.9404 211.853 76.8654 211.636 76.7309 211.454C76.5963 211.272 76.4083 211.133 76.1912 211.055V208.697C76.4076 208.632 76.5975 208.503 76.7343 208.329C76.8711 208.155 76.948 207.944 76.9542 207.725Z" fill="#CDCCCC"/>
<path d="M67.2773 217.276C67.641 217.044 66.6843 217.131 66.6052 216.975C66.2231 216.943 65.8448 216.878 65.4745 216.781C64.8024 216.609 63.1894 215.566 63.0155 214.564C62.8415 213.562 63.0155 211.661 63.7429 210.518C64.1984 209.822 64.7858 209.214 65.4745 208.728C65.4745 208.728 64.0631 205.493 63.9445 203.051C63.8259 200.609 64.0236 196.263 65.6762 196.187C67.3287 196.11 67.0875 200.179 66.8069 202.827C66.6402 204.585 66.6137 206.352 66.7278 208.114C67.4317 207.899 68.1638 207.781 68.9022 207.764C69.5528 207.749 70.203 207.808 70.8394 207.939C70.8394 207.939 71.3652 204.19 73.0969 201.844C74.8285 199.497 76.655 197.101 77.841 197.783C79.0271 198.465 77.5169 200.899 76.4692 202.168C75.4215 203.436 73.6069 205.341 73.002 206.358C72.6054 207.035 72.2554 207.736 71.9543 208.457C73.033 208.991 73.9151 209.831 74.4806 210.865C75.3345 212.507 75.3978 214.526 74.9392 215.383C74.7089 215.779 74.3907 216.12 74.0072 216.384C73.6238 216.647 73.1847 216.826 72.7213 216.907C72.1955 216.929 69.9855 217.459 69.9855 217.459L67.2773 217.276Z" fill="white"/>
<path d="M71.1562 207.973C71.1562 207.973 72.4767 204.655 73.6588 202.792C74.8409 200.929 76.4262 199.52 76.9244 199.805C77.4225 200.091 75.9083 201.832 74.58 203.543C73.4979 205.053 72.5168 206.628 71.6425 208.259L71.1562 207.973Z" fill="#DD00A1"/>
<path d="M65.8514 208.541L66.2467 208.259C66.2467 208.259 66.1914 204.941 66.2467 202.926C66.3021 200.91 66.4088 198.392 65.7091 198.415C65.0093 198.438 64.523 200.385 64.7958 203.131C64.9922 204.96 65.3453 206.769 65.8514 208.541Z" fill="#DD00A1"/>
<path d="M64.6732 215.653C65.0968 215.653 65.4402 215.322 65.4402 214.914C65.4402 214.506 65.0968 214.175 64.6732 214.175C64.2496 214.175 63.9062 214.506 63.9062 214.914C63.9062 215.322 64.2496 215.653 64.6732 215.653Z" fill="#F9D8D2"/>
<path d="M73.7357 215.653C74.1593 215.653 74.5027 215.322 74.5027 214.914C74.5027 214.506 74.1593 214.175 73.7357 214.175C73.3121 214.175 72.9688 214.506 72.9688 214.914C72.9688 215.322 73.3121 215.653 73.7357 215.653Z" fill="#F9D8D2"/>
<path d="M70.4764 214.853C70.4682 214.849 70.459 214.846 70.4495 214.844C70.44 214.843 70.4303 214.844 70.4211 214.846C70.4119 214.849 70.4033 214.853 70.3958 214.859C70.3883 214.865 70.3821 214.872 70.3776 214.88C70.3776 214.88 70.1483 215.261 69.8162 215.284C69.7037 215.281 69.5931 215.255 69.4911 215.209C69.3891 215.163 69.298 215.098 69.2232 215.017V214.453C69.4367 214.339 69.7806 213.996 69.7806 213.878C69.7506 213.752 69.6746 213.641 69.5664 213.565C69.4582 213.488 69.3251 213.452 69.1915 213.463C68.7962 213.463 68.5195 213.71 68.5195 213.916C68.5195 214.122 68.9543 214.388 69.0769 214.465V215.021C69.0145 215.097 68.9362 215.16 68.8469 215.205C68.7577 215.251 68.6596 215.277 68.559 215.284C68.2467 215.284 68.0095 214.872 68.0055 214.868C67.9963 214.852 67.9808 214.84 67.9624 214.834C67.944 214.828 67.924 214.83 67.9067 214.838C67.8894 214.848 67.8765 214.863 67.8707 214.882C67.8648 214.9 67.8664 214.92 67.875 214.937C67.875 214.937 68.1557 215.428 68.559 215.428C68.6729 215.424 68.7846 215.397 68.8872 215.349C68.9899 215.301 69.0813 215.233 69.156 215.15C69.32 215.316 69.5433 215.415 69.7806 215.428H69.8281C69.9705 215.401 70.105 215.344 70.2219 215.261C70.3387 215.178 70.4351 215.072 70.5041 214.948C70.509 214.941 70.5121 214.932 70.5134 214.923C70.5146 214.913 70.5139 214.904 70.5113 214.895C70.5087 214.886 70.5043 214.878 70.4983 214.871C70.4923 214.864 70.4849 214.858 70.4764 214.853Z" fill="#10110E"/>
<path d="M65.4768 208.735C65.4768 208.735 64.3817 206.068 64.1722 204.674C63.9626 203.279 63.7768 200.952 64.0536 199.401C64.1725 198.687 64.3335 197.98 64.5359 197.283C64.5359 197.283 64.0259 200.898 64.2157 202.479C64.4054 204.06 65.4768 208.735 65.4768 208.735Z" fill="#E5E5E5"/>
<path d="M70.8438 207.939C70.8438 207.939 71.6344 203.905 72.7849 202.32C73.9354 200.735 75.3626 198.811 76.0861 198.327L76.8096 197.84C76.8096 197.84 73.9077 200.773 72.7849 203.173C71.6621 205.573 70.8438 207.939 70.8438 207.939Z" fill="#E5E5E5"/>
<path d="M66.2455 212.51C66.1265 212.509 66.0099 212.542 65.9106 212.606C65.8112 212.669 65.7336 212.759 65.6875 212.865C65.6414 212.97 65.629 213.087 65.6517 213.199C65.6744 213.312 65.7314 213.416 65.8152 213.497C65.8991 213.578 66.0062 213.634 66.1229 213.656C66.2395 213.679 66.3606 213.668 66.4706 213.624C66.5806 213.58 66.6747 213.506 66.7409 213.411C66.8071 213.316 66.8425 213.204 66.8425 213.089C66.8425 212.936 66.7797 212.789 66.6679 212.681C66.556 212.572 66.4042 212.511 66.2455 212.51ZM66.4155 213.047C66.3725 213.047 66.3313 213.03 66.3009 213.001C66.2705 212.972 66.2534 212.932 66.2534 212.891C66.2534 212.849 66.2705 212.81 66.3009 212.78C66.3313 212.751 66.3725 212.735 66.4155 212.735C66.4585 212.735 66.4997 212.751 66.5301 212.78C66.5605 212.81 66.5776 212.849 66.5776 212.891C66.5776 212.912 66.5732 212.933 66.5646 212.952C66.5559 212.972 66.5433 212.989 66.5274 213.004C66.5115 213.019 66.4927 213.03 66.4721 213.037C66.4515 213.045 66.4295 213.048 66.4076 213.047H66.4155Z" fill="#10110E"/>
<path d="M72.1478 212.51C72.029 212.51 71.9128 212.544 71.8139 212.607C71.7151 212.671 71.6381 212.761 71.5926 212.867C71.5471 212.973 71.5352 213.089 71.5584 213.202C71.5816 213.314 71.6388 213.417 71.7229 213.498C71.8069 213.579 71.914 213.634 72.0306 213.657C72.1471 213.679 72.268 213.668 72.3778 213.624C72.4876 213.58 72.5814 213.506 72.6475 213.411C72.7135 213.315 72.7487 213.203 72.7487 213.089C72.7487 212.935 72.6854 212.788 72.5727 212.679C72.46 212.571 72.3072 212.51 72.1478 212.51ZM72.3178 213.047C72.2751 213.046 72.2345 213.029 72.2043 213C72.1741 212.971 72.1567 212.932 72.1557 212.891C72.1618 212.853 72.1817 212.819 72.2118 212.794C72.2419 212.769 72.2802 212.755 72.3198 212.755C72.3594 212.755 72.3977 212.769 72.4278 212.794C72.4579 212.819 72.4778 212.853 72.4839 212.891C72.4828 212.932 72.4649 212.972 72.4338 213.001C72.4028 213.031 72.3612 213.047 72.3178 213.047Z" fill="#10110E"/>
<path opacity="0.2" d="M69.301 217.176C72.3796 217.176 74.8754 215.444 74.8754 213.306C74.8754 211.168 72.3796 209.436 69.301 209.436C66.2223 209.436 63.7266 211.168 63.7266 213.306C63.7266 215.444 66.2223 217.176 69.301 217.176Z" fill="#8ACCCE"/>
<path d="M76.051 211.154V208.613C76.259 208.569 76.4462 208.46 76.5834 208.303C76.7206 208.146 76.8003 207.95 76.8101 207.745C76.7826 207.497 76.661 207.268 76.4687 207.101C76.2764 206.935 76.0269 206.842 75.7683 206.842C75.5097 206.842 75.2603 206.935 75.068 207.101C74.8756 207.268 74.7541 207.497 74.7266 207.745C74.7355 207.949 74.8144 208.146 74.9509 208.303C75.0875 208.46 75.2741 208.569 75.4817 208.613V211.089H75.4066C74.6159 208.446 72.2794 206.804 69.2312 206.804C66.1831 206.804 63.8308 208.43 63.0519 211.089H62.787C62.5006 211.076 62.2202 211.172 62.0069 211.357C61.7936 211.542 61.6648 211.8 61.6484 212.076V214.046C61.6658 214.321 61.7951 214.578 62.0082 214.762C62.2214 214.946 62.5012 215.042 62.787 215.028H63.1468C63.4525 215.776 63.9407 216.441 64.5701 216.968L64.0561 217.409C64.0245 217.435 63.9985 217.466 63.9796 217.502C63.9606 217.537 63.9492 217.576 63.9459 217.616C63.9426 217.655 63.9475 217.695 63.9603 217.733C63.9731 217.771 63.9936 217.806 64.0205 217.836C65.1749 219.181 67.0687 219.969 69.2115 219.969C71.3543 219.969 73.248 219.208 74.4024 217.836C74.4294 217.806 74.4498 217.771 74.4626 217.733C74.4755 217.695 74.4804 217.655 74.477 217.616C74.4737 217.576 74.4623 217.537 74.4434 217.502C74.4244 217.466 74.3984 217.435 74.3668 217.409L73.8529 216.968C74.4796 216.439 74.9673 215.774 75.2761 215.028H75.6715C75.9573 215.042 76.2371 214.946 76.4503 214.762C76.6634 214.578 76.7927 214.321 76.8101 214.046V212.076C76.8012 211.865 76.723 211.662 76.5865 211.496C76.4501 211.33 76.2626 211.211 76.051 211.154ZM69.2312 209.611C72.054 209.611 74.347 211.402 74.347 213.6C74.347 215.981 71.7694 217.028 69.2312 217.028C66.6931 217.028 64.1154 215.962 64.1154 213.6C64.1154 211.402 66.4084 209.611 69.2312 209.611Z" fill="white"/>
<path d="M76.2374 213.386H75.4784C75.4784 213.272 75.4784 213.157 75.4784 213.028C75.4779 212.542 75.4276 212.057 75.3281 211.58H75.6484C75.7197 211.576 75.7914 211.585 75.859 211.607C75.9266 211.63 75.9888 211.665 76.0419 211.712C76.095 211.758 76.1379 211.814 76.1681 211.876C76.1983 211.939 76.2152 212.007 76.2177 212.076L76.2374 213.386Z" fill="#515151"/>
<path d="M75.6688 214.537H75.2734C75.3487 214.268 75.4055 213.994 75.4434 213.718H76.2341V214.045C76.2316 214.114 76.2149 214.181 76.1849 214.243C76.1549 214.305 76.1123 214.361 76.0595 214.407C76.0068 214.452 75.945 214.488 75.8779 214.51C75.8108 214.532 75.7397 214.541 75.6688 214.537Z" fill="#515151"/>
<path d="M69.2313 219.463C67.3336 219.463 65.6494 218.804 64.5859 217.638L65.1197 217.181C66.3345 217.962 67.7711 218.362 69.2313 218.324C70.6914 218.361 72.1277 217.962 73.3429 217.181L73.8727 217.638C72.8131 218.804 71.125 219.463 69.2313 219.463Z" fill="#515151"/>
<path d="M62.784 211.581H63.124C63.0253 212.058 62.975 212.542 62.9738 213.029C62.9643 213.148 62.9643 213.267 62.9738 213.387H62.2345V212.076C62.2331 212.008 62.2467 211.94 62.2743 211.877C62.3019 211.814 62.3429 211.757 62.3948 211.711C62.4466 211.664 62.508 211.628 62.5751 211.606C62.6421 211.584 62.7133 211.575 62.784 211.581Z" fill="#515151"/>
<path d="M69.2258 209.283C68.5836 209.285 67.9448 209.373 67.3281 209.546V207.561C67.9453 207.393 68.5843 207.309 69.2258 207.314C69.866 207.309 70.5036 207.393 71.1195 207.561V209.561C70.5066 209.376 69.868 209.283 69.2258 209.283Z" fill="black"/>
<path d="M66.961 207.676V209.68C65.0633 210.35 63.7389 211.862 63.7389 213.6C63.7389 215.851 65.9568 217.375 69.2343 217.375C72.5117 217.375 74.7296 215.851 74.7296 213.6C74.7296 211.862 73.4012 210.35 71.5075 209.68V207.676C73.7254 208.438 75.1091 210.415 75.1091 213.043C75.1091 216 72.7568 217.996 69.2343 217.996C65.7117 217.996 63.3594 216.011 63.3594 213.043C63.3594 210.415 64.7431 208.445 66.961 207.676Z" fill="#515151"/>
<path d="M62.2149 213.718H63.0056C63.0417 213.994 63.0985 214.268 63.1756 214.537H62.7802C62.7092 214.541 62.6379 214.532 62.5705 214.51C62.5031 214.488 62.4411 214.453 62.3881 214.407C62.335 214.361 62.292 214.305 62.2616 214.243C62.2312 214.181 62.2139 214.114 62.2109 214.045L62.2149 213.718Z" fill="#515151"/>
<path d="M75.7635 208.137C76.0255 208.137 76.2379 207.953 76.2379 207.726C76.2379 207.499 76.0255 207.314 75.7635 207.314C75.5015 207.314 75.2891 207.499 75.2891 207.726C75.2891 207.953 75.5015 208.137 75.7635 208.137Z" fill="#515151"/>
</g>
</g>
<path d="M58.38 252.042V244.818H55.8V243.642H62.256V244.818H59.676V252.042H58.38ZM62.5995 252.042V246.126H63.8115V246.822H64.0035C64.0995 246.574 64.2515 246.394 64.4595 246.282C64.6755 246.162 64.9395 246.102 65.2515 246.102H65.9595V247.218H65.2035C64.8035 247.218 64.4755 247.33 64.2195 247.554C63.9635 247.77 63.8355 248.106 63.8355 248.562V252.042H62.5995ZM67.2401 252.042V246.126H68.4761V252.042H67.2401ZM67.8641 245.322C67.6241 245.322 67.4201 245.246 67.2521 245.094C67.0921 244.934 67.0121 244.73 67.0121 244.482C67.0121 244.234 67.0921 244.034 67.2521 243.882C67.4201 243.722 67.6241 243.642 67.8641 243.642C68.1121 243.642 68.3161 243.722 68.4761 243.882C68.6361 244.034 68.7161 244.234 68.7161 244.482C68.7161 244.73 68.6361 244.934 68.4761 245.094C68.3161 245.246 68.1121 245.322 67.8641 245.322ZM70.3104 252.042V246.126H71.5224V247.014H71.7144C71.8264 246.774 72.0264 246.55 72.3144 246.342C72.6024 246.134 73.0304 246.03 73.5984 246.03C74.0464 246.03 74.4424 246.13 74.7864 246.33C75.1384 246.53 75.4144 246.814 75.6144 247.182C75.8144 247.542 75.9144 247.978 75.9144 248.49V252.042H74.6784V248.586C74.6784 248.074 74.5504 247.698 74.2944 247.458C74.0384 247.21 73.6864 247.086 73.2384 247.086C72.7264 247.086 72.3144 247.254 72.0024 247.59C71.6984 247.926 71.5464 248.414 71.5464 249.054V252.042H70.3104ZM80.4653 252.21C79.8733 252.21 79.3453 252.09 78.8813 251.85C78.4253 251.602 78.0653 251.25 77.8013 250.794C77.5373 250.338 77.4053 249.798 77.4053 249.174V248.994C77.4053 248.37 77.5373 247.834 77.8013 247.386C78.0653 246.93 78.4253 246.578 78.8813 246.33C79.3453 246.082 79.8733 245.958 80.4653 245.958C81.0573 245.958 81.5853 246.082 82.0493 246.33C82.5133 246.578 82.8773 246.93 83.1413 247.386C83.4053 247.834 83.5373 248.37 83.5373 248.994V249.174C83.5373 249.798 83.4053 250.338 83.1413 250.794C82.8773 251.25 82.5133 251.602 82.0493 251.85C81.5853 252.09 81.0573 252.21 80.4653 252.21ZM80.4653 251.106C81.0093 251.106 81.4493 250.934 81.7853 250.59C82.1293 250.238 82.3013 249.754 82.3013 249.138V249.03C82.3013 248.414 82.1333 247.934 81.7973 247.59C81.4613 247.238 81.0173 247.062 80.4653 247.062C79.9293 247.062 79.4893 247.238 79.1453 247.59C78.8093 247.934 78.6413 248.414 78.6413 249.03V249.138C78.6413 249.754 78.8093 250.238 79.1453 250.59C79.4893 250.934 79.9293 251.106 80.4653 251.106Z" fill="#777777"/>
<g filter="url(#filter3_d_1128_2675)">
<path d="M133 195.042C133 188.967 137.925 184.042 144 184.042H170C176.075 184.042 181 188.967 181 195.042V221.042C181 227.117 176.075 232.042 170 232.042H144C137.925 232.042 133 227.117 133 221.042V195.042Z" fill="white"/>
<g clip-path="url(#clip2_1128_2675)">
<path d="M156.932 219.999C150.305 219.999 144.953 214.663 144.953 208.056C144.953 201.449 150.305 196.113 156.932 196.113C163.558 196.113 168.91 201.449 168.91 208.056C168.91 214.656 163.558 219.999 156.932 219.999Z" fill="black"/>
<path d="M163.334 206.271H160.984V209.806H163.334C164.316 209.806 165.118 208.999 165.118 208.028C165.118 207.056 164.316 206.271 163.334 206.271Z" fill="#FFF100"/>
<path d="M149.469 208.049C149.469 210.777 151.697 212.999 154.434 212.999C157.17 212.999 159.398 210.777 159.398 208.049C159.398 205.32 157.17 203.099 154.434 203.099C151.697 203.099 149.469 205.32 149.469 208.049Z" fill="#FFF100"/>
</g>
</g>
<path d="M133.564 252.042V250.89H134.692V244.794H133.564V243.642H136.924C138.044 243.642 138.9 243.926 139.492 244.494C140.092 245.062 140.392 245.918 140.392 247.062V248.634C140.392 249.778 140.092 250.634 139.492 251.202C138.9 251.762 138.044 252.042 136.924 252.042H133.564ZM136 250.866H136.936C137.664 250.866 138.204 250.682 138.556 250.314C138.908 249.946 139.084 249.398 139.084 248.67V247.014C139.084 246.278 138.908 245.73 138.556 245.37C138.204 245.01 137.664 244.83 136.936 244.83H136V250.866ZM144.16 252.15C143.712 252.15 143.312 252.05 142.96 251.85C142.608 251.65 142.332 251.366 142.132 250.998C141.932 250.63 141.832 250.19 141.832 249.678V246.126H143.068V249.594C143.068 250.106 143.196 250.486 143.452 250.734C143.708 250.974 144.064 251.094 144.52 251.094C145.024 251.094 145.428 250.926 145.732 250.59C146.044 250.246 146.2 249.754 146.2 249.114V246.126H147.436V252.042H146.224V251.154H146.032C145.92 251.394 145.72 251.622 145.432 251.838C145.144 252.046 144.72 252.15 144.16 252.15ZM152.012 252.21C151.444 252.21 150.928 252.09 150.464 251.85C150.008 251.61 149.644 251.262 149.372 250.806C149.108 250.35 148.976 249.802 148.976 249.162V249.006C148.976 248.366 149.108 247.822 149.372 247.374C149.644 246.918 150.008 246.57 150.464 246.33C150.928 246.082 151.444 245.958 152.012 245.958C152.58 245.958 153.064 246.062 153.464 246.27C153.864 246.478 154.184 246.754 154.424 247.098C154.672 247.442 154.832 247.822 154.904 248.238L153.704 248.49C153.664 248.226 153.58 247.986 153.452 247.77C153.324 247.554 153.144 247.382 152.912 247.254C152.68 247.126 152.388 247.062 152.036 247.062C151.692 247.062 151.38 247.142 151.1 247.302C150.828 247.454 150.612 247.678 150.452 247.974C150.292 248.262 150.212 248.614 150.212 249.03V249.138C150.212 249.554 150.292 249.91 150.452 250.206C150.612 250.502 150.828 250.726 151.1 250.878C151.38 251.03 151.692 251.106 152.036 251.106C152.556 251.106 152.952 250.974 153.224 250.71C153.496 250.438 153.668 250.094 153.74 249.678L154.94 249.954C154.844 250.362 154.672 250.738 154.424 251.082C154.184 251.426 153.864 251.702 153.464 251.91C153.064 252.11 152.58 252.21 152.012 252.21ZM156.365 252.042V243.642H157.601V248.43H157.793L160.121 246.126H161.765L158.777 248.994L161.861 252.042H160.229L157.793 249.582H157.601V252.042H156.365ZM165.685 252.042V250.89H166.813V244.794H165.685V243.642H169.045C170.165 243.642 171.021 243.926 171.613 244.494C172.213 245.062 172.513 245.918 172.513 247.062V248.634C172.513 249.778 172.213 250.634 171.613 251.202C171.021 251.762 170.165 252.042 169.045 252.042H165.685ZM168.121 250.866H169.057C169.785 250.866 170.325 250.682 170.677 250.314C171.029 249.946 171.205 249.398 171.205 248.67V247.014C171.205 246.278 171.029 245.73 170.677 245.37C170.325 245.01 169.785 244.83 169.057 244.83H168.121V250.866ZM173.384 252.042V250.89H174.512V244.794H173.384V243.642H177.644C178.148 243.642 178.588 243.73 178.964 243.906C179.34 244.074 179.632 244.318 179.84 244.638C180.056 244.95 180.164 245.322 180.164 245.754V245.874C180.164 246.258 180.092 246.574 179.948 246.822C179.804 247.07 179.628 247.262 179.42 247.398C179.22 247.534 179.028 247.63 178.844 247.686V247.878C179.028 247.926 179.224 248.022 179.432 248.166C179.648 248.302 179.828 248.494 179.972 248.742C180.124 248.99 180.2 249.314 180.2 249.714V249.834C180.2 250.298 180.092 250.694 179.876 251.022C179.66 251.35 179.36 251.602 178.976 251.778C178.6 251.954 178.164 252.042 177.668 252.042H173.384ZM175.82 250.866H177.512C177.944 250.866 178.284 250.762 178.532 250.554C178.78 250.346 178.904 250.058 178.904 249.69V249.582C178.904 249.214 178.78 248.926 178.532 248.718C178.292 248.51 177.952 248.406 177.512 248.406H175.82V250.866ZM175.82 247.218H177.512C177.92 247.218 178.248 247.118 178.496 246.918C178.744 246.71 178.868 246.43 178.868 246.078V245.958C178.868 245.606 178.744 245.33 178.496 245.13C178.256 244.922 177.928 244.818 177.512 244.818H175.82V247.218Z" fill="#777777"/>
<path d="M76.5224 290.474H78.1184L81.4184 299.042H79.8104L79.0064 296.774H75.5864L74.7824 299.042H73.2344L76.5224 290.474ZM75.9944 295.634H78.6104L77.3264 291.95H77.2904L75.9944 295.634ZM82.0423 292.838H83.3383V293.75L83.3623 293.774C83.5703 293.43 83.8423 293.162 84.1783 292.97C84.5143 292.77 84.8863 292.67 85.2943 292.67C85.9743 292.67 86.5103 292.846 86.9023 293.198C87.2943 293.55 87.4903 294.078 87.4903 294.782V299.042H86.1223V295.142C86.1063 294.654 86.0023 294.302 85.8103 294.086C85.6183 293.862 85.3183 293.75 84.9103 293.75C84.6783 293.75 84.4703 293.794 84.2863 293.882C84.1023 293.962 83.9463 294.078 83.8183 294.23C83.6903 294.374 83.5903 294.546 83.5183 294.746C83.4463 294.946 83.4103 295.158 83.4103 295.382V299.042H82.0423V292.838ZM94.7769 299.042H93.4809V298.202H93.4569C93.2729 298.562 93.0049 298.822 92.6529 298.982C92.3009 299.134 91.9289 299.21 91.5369 299.21C91.0489 299.21 90.6209 299.126 90.2529 298.958C89.8929 298.782 89.5929 298.546 89.3529 298.25C89.1129 297.954 88.9329 297.606 88.8129 297.206C88.6929 296.798 88.6329 296.362 88.6329 295.898C88.6329 295.338 88.7089 294.854 88.8609 294.446C89.0129 294.038 89.2129 293.702 89.4609 293.438C89.7169 293.174 90.0049 292.982 90.3249 292.862C90.6529 292.734 90.9849 292.67 91.3209 292.67C91.5129 292.67 91.7089 292.69 91.9089 292.73C92.1089 292.762 92.3009 292.818 92.4849 292.898C92.6689 292.978 92.8369 293.082 92.9889 293.21C93.1489 293.33 93.2809 293.474 93.3849 293.642H93.4089V290.474H94.7769V299.042ZM90.0009 296.006C90.0009 296.27 90.0329 296.53 90.0969 296.786C90.1689 297.042 90.2729 297.27 90.4089 297.47C90.5529 297.67 90.7329 297.83 90.9489 297.95C91.1649 298.07 91.4209 298.13 91.7169 298.13C92.0209 298.13 92.2809 298.066 92.4969 297.938C92.7209 297.81 92.9009 297.642 93.0369 297.434C93.1809 297.226 93.2849 296.994 93.3489 296.738C93.4209 296.474 93.4569 296.206 93.4569 295.934C93.4569 295.246 93.3009 294.71 92.9889 294.326C92.6849 293.942 92.2689 293.75 91.7409 293.75C91.4209 293.75 91.1489 293.818 90.9249 293.954C90.7089 294.082 90.5289 294.254 90.3849 294.47C90.2489 294.678 90.1489 294.918 90.0849 295.19C90.0289 295.454 90.0009 295.726 90.0009 296.006ZM99.6087 292.838H100.905V293.702H100.941C101.045 293.55 101.157 293.41 101.277 293.282C101.397 293.154 101.529 293.046 101.673 292.958C101.825 292.87 101.997 292.802 102.189 292.754C102.381 292.698 102.601 292.67 102.849 292.67C103.225 292.67 103.573 292.754 103.893 292.922C104.221 293.09 104.453 293.35 104.589 293.702C104.821 293.382 105.089 293.13 105.393 292.946C105.697 292.762 106.077 292.67 106.533 292.67C107.189 292.67 107.697 292.83 108.057 293.15C108.425 293.47 108.609 294.006 108.609 294.758V299.042H107.241V295.418C107.241 295.17 107.233 294.946 107.217 294.746C107.201 294.538 107.153 294.362 107.073 294.218C107.001 294.066 106.889 293.95 106.737 293.87C106.585 293.79 106.377 293.75 106.113 293.75C105.649 293.75 105.313 293.894 105.105 294.182C104.897 294.47 104.793 294.878 104.793 295.406V299.042H103.425V295.058C103.425 294.626 103.345 294.302 103.185 294.086C103.033 293.862 102.749 293.75 102.333 293.75C102.157 293.75 101.985 293.786 101.817 293.858C101.657 293.93 101.513 294.034 101.385 294.17C101.265 294.306 101.165 294.474 101.085 294.674C101.013 294.874 100.977 295.102 100.977 295.358V299.042H99.6087V292.838ZM115.246 297.662C115.246 297.83 115.266 297.95 115.306 298.022C115.354 298.094 115.442 298.13 115.57 298.13C115.61 298.13 115.658 298.13 115.714 298.13C115.77 298.13 115.834 298.122 115.906 298.106V299.054C115.858 299.07 115.794 299.086 115.714 299.102C115.642 299.126 115.566 299.146 115.486 299.162C115.406 299.178 115.326 299.19 115.246 299.198C115.166 299.206 115.098 299.21 115.042 299.21C114.762 299.21 114.53 299.154 114.346 299.042C114.162 298.93 114.042 298.734 113.986 298.454C113.714 298.718 113.378 298.91 112.978 299.03C112.586 299.15 112.206 299.21 111.838 299.21C111.558 299.21 111.29 299.17 111.034 299.09C110.778 299.018 110.55 298.91 110.35 298.766C110.158 298.614 110.002 298.426 109.882 298.202C109.77 297.97 109.714 297.702 109.714 297.398C109.714 297.014 109.782 296.702 109.918 296.462C110.062 296.222 110.246 296.034 110.47 295.898C110.702 295.762 110.958 295.666 111.238 295.61C111.526 295.546 111.814 295.498 112.102 295.466C112.35 295.418 112.586 295.386 112.81 295.37C113.034 295.346 113.23 295.31 113.398 295.262C113.574 295.214 113.71 295.142 113.806 295.046C113.91 294.942 113.962 294.79 113.962 294.59C113.962 294.414 113.918 294.27 113.83 294.158C113.75 294.046 113.646 293.962 113.518 293.906C113.398 293.842 113.262 293.802 113.11 293.786C112.958 293.762 112.814 293.75 112.678 293.75C112.294 293.75 111.978 293.83 111.73 293.99C111.482 294.15 111.342 294.398 111.31 294.734H109.942C109.966 294.334 110.062 294.002 110.23 293.738C110.398 293.474 110.61 293.262 110.866 293.102C111.13 292.942 111.426 292.83 111.754 292.766C112.082 292.702 112.418 292.67 112.762 292.67C113.066 292.67 113.366 292.702 113.662 292.766C113.958 292.83 114.222 292.934 114.454 293.078C114.694 293.222 114.886 293.41 115.03 293.642C115.174 293.866 115.246 294.142 115.246 294.47V297.662ZM113.878 295.934C113.67 296.07 113.414 296.154 113.11 296.186C112.806 296.21 112.502 296.25 112.198 296.306C112.054 296.33 111.914 296.366 111.778 296.414C111.642 296.454 111.522 296.514 111.418 296.594C111.314 296.666 111.23 296.766 111.166 296.894C111.11 297.014 111.082 297.162 111.082 297.338C111.082 297.49 111.126 297.618 111.214 297.722C111.302 297.826 111.406 297.91 111.526 297.974C111.654 298.03 111.79 298.07 111.934 298.094C112.086 298.118 112.222 298.13 112.342 298.13C112.494 298.13 112.658 298.11 112.834 298.07C113.01 298.03 113.174 297.962 113.326 297.866C113.486 297.77 113.618 297.65 113.722 297.506C113.826 297.354 113.878 297.17 113.878 296.954V295.934ZM116.718 292.838H118.014V293.75L118.038 293.774C118.246 293.43 118.518 293.162 118.854 292.97C119.19 292.77 119.562 292.67 119.97 292.67C120.65 292.67 121.186 292.846 121.578 293.198C121.97 293.55 122.166 294.078 122.166 294.782V299.042H120.798V295.142C120.782 294.654 120.678 294.302 120.486 294.086C120.294 293.862 119.994 293.75 119.586 293.75C119.354 293.75 119.146 293.794 118.962 293.882C118.778 293.962 118.622 294.078 118.494 294.23C118.366 294.374 118.266 294.546 118.194 294.746C118.122 294.946 118.086 295.158 118.086 295.382V299.042H116.718V292.838ZM122.925 292.838H124.425L126.045 297.47H126.069L127.641 292.838H129.069L126.657 299.378C126.545 299.658 126.433 299.926 126.321 300.182C126.217 300.438 126.085 300.662 125.925 300.854C125.773 301.054 125.581 301.21 125.349 301.322C125.117 301.442 124.821 301.502 124.461 301.502C124.141 301.502 123.825 301.478 123.513 301.43V300.278C123.625 300.294 123.733 300.31 123.837 300.326C123.941 300.35 124.049 300.362 124.161 300.362C124.321 300.362 124.453 300.342 124.557 300.302C124.661 300.262 124.745 300.202 124.809 300.122C124.881 300.05 124.941 299.962 124.989 299.858C125.037 299.754 125.081 299.634 125.121 299.498L125.277 299.018L122.925 292.838ZM133.171 292.838H134.467V293.702H134.503C134.607 293.55 134.719 293.41 134.839 293.282C134.959 293.154 135.091 293.046 135.235 292.958C135.387 292.87 135.559 292.802 135.751 292.754C135.943 292.698 136.163 292.67 136.411 292.67C136.787 292.67 137.135 292.754 137.455 292.922C137.783 293.09 138.015 293.35 138.151 293.702C138.383 293.382 138.651 293.13 138.955 292.946C139.259 292.762 139.639 292.67 140.095 292.67C140.751 292.67 141.259 292.83 141.619 293.15C141.987 293.47 142.171 294.006 142.171 294.758V299.042H140.803V295.418C140.803 295.17 140.795 294.946 140.779 294.746C140.763 294.538 140.715 294.362 140.635 294.218C140.563 294.066 140.451 293.95 140.299 293.87C140.147 293.79 139.939 293.75 139.675 293.75C139.211 293.75 138.875 293.894 138.667 294.182C138.459 294.47 138.355 294.878 138.355 295.406V299.042H136.987V295.058C136.987 294.626 136.907 294.302 136.747 294.086C136.595 293.862 136.311 293.75 135.895 293.75C135.719 293.75 135.547 293.786 135.379 293.858C135.219 293.93 135.075 294.034 134.947 294.17C134.827 294.306 134.727 294.474 134.647 294.674C134.575 294.874 134.539 295.102 134.539 295.358V299.042H133.171V292.838ZM146.457 299.21C145.961 299.21 145.517 299.13 145.125 298.97C144.741 298.802 144.413 298.574 144.141 298.286C143.877 297.998 143.673 297.654 143.529 297.254C143.393 296.854 143.325 296.414 143.325 295.934C143.325 295.462 143.393 295.026 143.529 294.626C143.673 294.226 143.877 293.882 144.141 293.594C144.413 293.306 144.741 293.082 145.125 292.922C145.517 292.754 145.961 292.67 146.457 292.67C146.953 292.67 147.393 292.754 147.777 292.922C148.169 293.082 148.497 293.306 148.761 293.594C149.033 293.882 149.237 294.226 149.373 294.626C149.517 295.026 149.589 295.462 149.589 295.934C149.589 296.414 149.517 296.854 149.373 297.254C149.237 297.654 149.033 297.998 148.761 298.286C148.497 298.574 148.169 298.802 147.777 298.97C147.393 299.13 146.953 299.21 146.457 299.21ZM146.457 298.13C146.761 298.13 147.025 298.066 147.249 297.938C147.473 297.81 147.657 297.642 147.801 297.434C147.945 297.226 148.049 296.994 148.113 296.738C148.185 296.474 148.221 296.206 148.221 295.934C148.221 295.67 148.185 295.406 148.113 295.142C148.049 294.878 147.945 294.646 147.801 294.446C147.657 294.238 147.473 294.07 147.249 293.942C147.025 293.814 146.761 293.75 146.457 293.75C146.153 293.75 145.889 293.814 145.665 293.942C145.441 294.07 145.257 294.238 145.113 294.446C144.969 294.646 144.861 294.878 144.789 295.142C144.725 295.406 144.693 295.67 144.693 295.934C144.693 296.206 144.725 296.474 144.789 296.738C144.861 296.994 144.969 297.226 145.113 297.434C145.257 297.642 145.441 297.81 145.665 297.938C145.889 298.066 146.153 298.13 146.457 298.13ZM150.726 292.838H152.01V294.038H152.034C152.074 293.87 152.15 293.706 152.262 293.546C152.382 293.386 152.522 293.242 152.682 293.114C152.85 292.978 153.034 292.87 153.234 292.79C153.434 292.71 153.638 292.67 153.846 292.67C154.006 292.67 154.114 292.674 154.17 292.682C154.234 292.69 154.298 292.698 154.362 292.706V294.026C154.266 294.01 154.166 293.998 154.062 293.99C153.966 293.974 153.87 293.966 153.774 293.966C153.542 293.966 153.322 294.014 153.114 294.11C152.914 294.198 152.738 294.334 152.586 294.518C152.434 294.694 152.314 294.914 152.226 295.178C152.138 295.442 152.094 295.746 152.094 296.09V299.042H150.726V292.838ZM158.994 295.394C158.978 295.178 158.93 294.97 158.85 294.77C158.778 294.57 158.674 294.398 158.538 294.254C158.41 294.102 158.25 293.982 158.058 293.894C157.874 293.798 157.666 293.75 157.434 293.75C157.194 293.75 156.974 293.794 156.774 293.882C156.582 293.962 156.414 294.078 156.27 294.23C156.134 294.374 156.022 294.546 155.934 294.746C155.854 294.946 155.81 295.162 155.802 295.394H158.994ZM155.802 296.294C155.802 296.534 155.834 296.766 155.898 296.99C155.97 297.214 156.074 297.41 156.21 297.578C156.346 297.746 156.518 297.882 156.726 297.986C156.934 298.082 157.182 298.13 157.47 298.13C157.87 298.13 158.19 298.046 158.43 297.878C158.678 297.702 158.862 297.442 158.982 297.098H160.278C160.206 297.434 160.082 297.734 159.906 297.998C159.73 298.262 159.518 298.486 159.27 298.67C159.022 298.846 158.742 298.978 158.43 299.066C158.126 299.162 157.806 299.21 157.47 299.21C156.982 299.21 156.55 299.13 156.174 298.97C155.798 298.81 155.478 298.586 155.214 298.298C154.958 298.01 154.762 297.666 154.626 297.266C154.498 296.866 154.434 296.426 154.434 295.946C154.434 295.506 154.502 295.09 154.638 294.698C154.782 294.298 154.982 293.95 155.238 293.654C155.502 293.35 155.818 293.11 156.186 292.934C156.554 292.758 156.97 292.67 157.434 292.67C157.922 292.67 158.358 292.774 158.742 292.982C159.134 293.182 159.458 293.45 159.714 293.786C159.97 294.122 160.154 294.51 160.266 294.95C160.386 295.382 160.418 295.83 160.362 296.294H155.802Z" fill="#343434"/>
<defs>
<filter id="filter0_d_1128_2675" x="27" y="71.042" width="90" height="90" filterUnits="userSpaceOnUse" color-interpolation-filters="sRGB">
<feFlood flood-opacity="0" result="BackgroundImageFix"/>
<feColorMatrix in="SourceAlpha" type="matrix" values="0 0 0 0 0 0 0 0 0 0 0 0 0 0 0 0 0 0 127 0" result="hardAlpha"/>
<feMorphology radius="1" operator="dilate" in="SourceAlpha" result="effect1_dropShadow_1128_2675"/>
<feOffset dx="2" dy="3"/>
<feGaussianBlur stdDeviation="10"/>
<feComposite in2="hardAlpha" operator="out"/>
<feColorMatrix type="matrix" values="0 0 0 0 0 0 0 0 0 0 0 0 0 0 0 0 0 0 0.08 0"/>
<feBlend mode="normal" in2="BackgroundImageFix" result="effect1_dropShadow_1128_2675"/>
<feBlend mode="normal" in="SourceGraphic" in2="effect1_dropShadow_1128_2675" result="shape"/>
</filter>
<filter id="filter1_d_1128_2675" x="114" y="71.042" width="90" height="90" filterUnits="userSpaceOnUse" color-interpolation-filters="sRGB">
<feFlood flood-opacity="0" result="BackgroundImageFix"/>
<feColorMatrix in="SourceAlpha" type="matrix" values="0 0 0 0 0 0 0 0 0 0 0 0 0 0 0 0 0 0 127 0" result="hardAlpha"/>
<feMorphology radius="1" operator="dilate" in="SourceAlpha" result="effect1_dropShadow_1128_2675"/>
<feOffset dx="2" dy="3"/>
<feGaussianBlur stdDeviation="10"/>
<feComposite in2="hardAlpha" operator="out"/>
<feColorMatrix type="matrix" values="0 0 0 0 0 0 0 0 0 0 0 0 0 0 0 0 0 0 0.08 0"/>
<feBlend mode="normal" in2="BackgroundImageFix" result="effect1_dropShadow_1128_2675"/>
<feBlend mode="normal" in="SourceGraphic" in2="effect1_dropShadow_1128_2675" result="shape"/>
</filter>
<filter id="filter2_d_1128_2675" x="27" y="166.042" width="90" height="90" filterUnits="userSpaceOnUse" color-interpolation-filters="sRGB">
<feFlood flood-opacity="0" result="BackgroundImageFix"/>
<feColorMatrix in="SourceAlpha" type="matrix" values="0 0 0 0 0 0 0 0 0 0 0 0 0 0 0 0 0 0 127 0" result="hardAlpha"/>
<feMorphology radius="1" operator="dilate" in="SourceAlpha" result="effect1_dropShadow_1128_2675"/>
<feOffset dx="2" dy="3"/>
<feGaussianBlur stdDeviation="10"/>
<feComposite in2="hardAlpha" operator="out"/>
<feColorMatrix type="matrix" values="0 0 0 0 0 0 0 0 0 0 0 0 0 0 0 0 0 0 0.08 0"/>
<feBlend mode="normal" in2="BackgroundImageFix" result="effect1_dropShadow_1128_2675"/>
<feBlend mode="normal" in="SourceGraphic" in2="effect1_dropShadow_1128_2675" result="shape"/>
</filter>
<filter id="filter3_d_1128_2675" x="114" y="166.042" width="90" height="90" filterUnits="userSpaceOnUse" color-interpolation-filters="sRGB">
<feFlood flood-opacity="0" result="BackgroundImageFix"/>
<feColorMatrix in="SourceAlpha" type="matrix" values="0 0 0 0 0 0 0 0 0 0 0 0 0 0 0 0 0 0 127 0" result="hardAlpha"/>
<feMorphology radius="1" operator="dilate" in="SourceAlpha" result="effect1_dropShadow_1128_2675"/>
<feOffset dx="2" dy="3"/>
<feGaussianBlur stdDeviation="10"/>
<feComposite in2="hardAlpha" operator="out"/>
<feColorMatrix type="matrix" values="0 0 0 0 0 0 0 0 0 0 0 0 0 0 0 0 0 0 0.08 0"/>
<feBlend mode="normal" in2="BackgroundImageFix" result="effect1_dropShadow_1128_2675"/>
<feBlend mode="normal" in="SourceGraphic" in2="effect1_dropShadow_1128_2675" result="shape"/>
</filter>
<radialGradient id="paint0_radial_1128_2675" cx="0" cy="0" r="1" gradientUnits="userSpaceOnUse" gradientTransform="translate(117 68.5) rotate(90) scale(237.5 201.951)">
<stop stop-color="#A3B1F5"/>
<stop offset="1" stop-color="#E8EBFD"/>
</radialGradient>
<clipPath id="clip0_1128_2675">
<rect width="24" height="24" fill="white" transform="translate(58 101.042)"/>
</clipPath>
<clipPath id="clip1_1128_2675">
<rect width="17" height="24" fill="white" transform="translate(61.5 196.042)"/>
</clipPath>
<clipPath id="clip2_1128_2675">
<rect width="24" height="24" fill="white" transform="translate(145 196.042)"/>
</clipPath>
</defs>
</svg>
