<svg width="359" height="361" viewBox="0 0 359 361" fill="none" xmlns="http://www.w3.org/2000/svg">
<rect y="0.0421143" width="359" height="360" rx="41.4202" fill="url(#paint0_radial_1_3364)"/>
<g clip-path="url(#clip0_1_3364)">
<rect x="6.75" y="64.3253" width="348.62" height="289.942" rx="36.818" fill="white"/>
<path d="M181.645 292.644C229.024 292.644 267.432 331.052 267.433 378.431C267.433 425.81 229.024 464.219 181.645 464.219C134.266 464.219 95.8574 425.81 95.8574 378.431C95.8576 331.052 134.266 292.644 181.645 292.644Z" stroke="#D5F6E3" stroke-width="1.57408"/>
<circle cx="181.653" cy="378.426" r="170.788" stroke="#D5F6E3" stroke-width="1.57408"/>
<circle cx="181.653" cy="378.428" r="255.788" stroke="#D5F6E3" stroke-width="1.57408"/>
<g filter="url(#filter0_d_1_3364)">
<rect x="63" y="172" width="64" height="64" rx="16" fill="white"/>
<rect x="63.7534" y="172.753" width="62.4931" height="62.4931" rx="15.2466" stroke="white" stroke-width="1.50689"/>
<g clip-path="url(#clip1_1_3364)">
<path d="M95 220.001C103.837 220.001 111 212.838 111 204.001C111 195.165 103.837 188.001 95 188.001C86.1634 188.001 79 195.165 79 204.001C79 212.838 86.1634 220.001 95 220.001Z" fill="#13AA52"/>
<path d="M99.2807 202.049C98.2701 197.589 95.8817 196.122 95.6245 195.562C95.3432 195.166 95.0582 194.463 95.0582 194.463C95.0535 194.451 95.046 194.43 95.0373 194.41C95.0082 194.805 94.9932 194.958 94.6195 195.357C94.0407 195.809 91.0714 198.301 90.8298 203.368C90.6045 208.095 94.2439 210.911 94.736 211.27L94.792 211.31V211.306C94.7951 211.33 94.9482 212.431 95.0557 213.598H95.4414C95.5318 212.773 95.6675 211.954 95.8476 211.144L95.8789 211.124C96.099 210.966 96.3089 210.794 96.5073 210.61L96.5298 210.589C97.576 209.623 99.457 207.387 99.4385 203.823C99.4346 203.228 99.3819 202.635 99.2807 202.049ZM95.0148 208.601C95.0148 208.601 95.0148 201.973 95.2335 201.974C95.4042 201.974 95.6251 210.524 95.6251 210.524C95.3214 210.488 95.0148 209.117 95.0148 208.601Z" fill="white"/>
</g>
</g>
<g filter="url(#filter1_d_1_3364)">
<rect x="162" y="259" width="64" height="64" rx="16" fill="white"/>
<rect x="162.337" y="259.337" width="63.3268" height="63.3268" rx="15.6634" stroke="white" stroke-width="0.673201"/>
<g clip-path="url(#clip2_1_3364)">
<path fill-rule="evenodd" clip-rule="evenodd" d="M207.47 299.929C205.73 299.881 204.38 300.059 203.248 300.535C202.922 300.666 202.399 300.666 202.356 301.076C202.531 301.248 202.552 301.53 202.704 301.768C202.965 302.201 203.423 302.784 203.836 303.087L205.229 304.082C206.077 304.601 207.035 304.904 207.862 305.423C208.341 305.726 208.819 306.115 209.298 306.44C209.542 306.613 209.69 306.895 209.995 307.002V306.937C209.842 306.743 209.799 306.462 209.647 306.244L208.993 305.618C208.363 304.774 207.579 304.038 206.73 303.433C206.033 302.957 204.51 302.309 204.228 301.509L204.185 301.46C204.663 301.412 205.229 301.244 205.686 301.114C206.427 300.92 207.101 300.963 207.862 300.768L208.907 300.465V300.271C208.515 299.882 208.232 299.363 207.819 298.995C206.709 298.044 205.49 297.113 204.228 296.335C203.553 295.903 202.682 295.621 201.964 295.254C201.702 295.124 201.268 295.059 201.116 294.843C200.723 294.368 200.506 293.74 200.223 293.177L198.439 289.414C198.047 288.571 197.807 287.727 197.329 286.949C195.087 283.272 192.649 281.044 188.906 278.859C188.101 278.405 187.143 278.21 186.125 277.972L184.493 277.885C184.144 277.734 183.797 277.323 183.492 277.128C182.251 276.349 179.052 274.662 178.137 276.885C177.55 278.291 179.008 279.675 179.503 280.389C179.874 280.887 180.352 281.449 180.614 282.011C180.76 282.379 180.809 282.768 180.962 283.158C181.309 284.109 181.636 285.169 182.093 286.057C182.337 286.511 182.593 286.987 182.898 287.398C183.072 287.64 183.377 287.744 183.442 288.133C183.137 288.566 183.116 289.214 182.942 289.756C182.158 292.2 182.463 295.228 183.573 297.027C183.922 297.568 184.743 298.758 185.859 298.303C186.838 297.914 186.619 296.681 186.902 295.6C186.968 295.34 186.924 295.167 187.055 294.994V295.042L187.947 296.837C188.622 297.897 189.797 299 190.776 299.736C191.298 300.125 191.712 300.796 192.365 301.034V300.968H192.322C192.191 300.774 191.995 300.687 191.821 300.536C191.429 300.147 190.994 299.671 190.689 299.238C189.775 298.027 188.971 296.686 188.252 295.302C187.903 294.632 187.598 293.896 187.317 293.226C187.185 292.966 187.185 292.576 186.968 292.447C186.641 292.922 186.163 293.334 185.922 293.918C185.509 294.848 185.466 295.994 185.314 297.184C185.226 297.206 185.265 297.184 185.226 297.232C184.53 297.06 184.29 296.345 184.029 295.74C183.377 294.204 183.267 291.739 183.833 289.965C183.985 289.511 184.639 288.083 184.378 287.651C184.246 287.24 183.812 287.002 183.572 286.678C183.289 286.266 182.985 285.748 182.789 285.294C182.267 284.082 182.006 282.741 181.44 281.53C181.178 280.968 180.722 280.383 180.351 279.865C179.938 279.281 179.482 278.869 179.155 278.178C179.046 277.935 178.894 277.55 179.068 277.291C179.111 277.118 179.199 277.048 179.372 277.009C179.655 276.767 180.461 277.074 180.744 277.203C181.548 277.528 182.223 277.831 182.898 278.284C183.203 278.501 183.529 278.912 183.921 279.02H184.379C185.075 279.171 185.858 279.069 186.51 279.263C187.664 279.631 188.708 280.171 189.645 280.756C192.495 282.551 194.846 285.103 196.435 288.153C196.696 288.651 196.804 289.105 197.044 289.624C197.502 290.684 198.068 291.765 198.524 292.804C198.981 293.82 199.417 294.859 200.069 295.703C200.396 296.157 201.701 296.395 202.289 296.633C202.724 296.827 203.398 297.001 203.791 297.239C204.53 297.693 205.27 298.212 205.967 298.709C206.314 298.968 207.403 299.509 207.468 299.941L207.47 299.929ZM185.276 281.134C184.975 281.131 184.676 281.167 184.384 281.242V281.29H184.427C184.601 281.636 184.906 281.874 185.124 282.177L185.625 283.216L185.668 283.167C185.973 282.951 186.125 282.605 186.125 282.086C185.995 281.935 185.973 281.783 185.864 281.632C185.734 281.416 185.451 281.307 185.276 281.135V281.134Z" fill="#857F07"/>
</g>
</g>
<g filter="url(#filter2_d_1_3364)">
<rect x="262" y="109" width="64" height="64" rx="16" fill="white"/>
<rect x="262.428" y="109.428" width="63.1432" height="63.1432" rx="15.5716" stroke="white" stroke-width="0.856801"/>
<path d="M306.433 143.648C306.278 143.178 305.872 142.851 305.347 142.773C305.099 142.736 304.816 142.752 304.48 142.821C303.895 142.942 303.461 142.988 303.144 142.996C304.34 140.978 305.312 138.676 305.872 136.509C306.777 133.005 306.293 131.409 305.728 130.687C304.232 128.775 302.05 127.749 299.418 127.717C298.013 127.7 296.78 127.977 296.137 128.177C295.539 128.071 294.895 128.012 294.219 128.001C292.953 127.981 291.834 128.257 290.878 128.824C290.349 128.645 289.499 128.393 288.518 128.232C286.211 127.853 284.351 128.149 282.991 129.109C281.344 130.273 280.58 132.294 280.722 135.118C280.766 136.014 281.268 138.741 282.057 141.328C282.511 142.814 282.995 144.049 283.495 144.997C284.205 146.342 284.965 147.134 285.817 147.419C286.295 147.578 287.164 147.689 288.077 146.929C288.192 147.069 288.347 147.208 288.552 147.338C288.812 147.502 289.13 147.636 289.448 147.715C290.594 148.002 291.667 147.93 292.582 147.529C292.588 147.692 292.592 147.847 292.596 147.982C292.602 148.199 292.608 148.413 292.616 148.613C292.67 149.964 292.762 151.014 293.035 151.749C293.05 151.79 293.07 151.851 293.091 151.917C293.227 152.332 293.454 153.029 294.032 153.574C294.63 154.139 295.354 154.312 296.017 154.312C296.35 154.312 296.667 154.269 296.945 154.209C297.937 153.997 299.064 153.673 299.879 152.512C300.649 151.415 301.024 149.763 301.092 147.16C301.1 147.086 301.109 147.016 301.116 146.949L301.132 146.811L301.314 146.827L301.361 146.83C302.371 146.876 303.606 146.662 304.365 146.31C304.965 146.032 306.886 145.017 306.433 143.648Z" fill="black"/>
<path d="M304.696 143.914C301.692 144.534 301.486 143.517 301.486 143.517C304.657 138.81 305.983 132.836 304.839 131.374C301.718 127.386 296.314 129.272 296.224 129.321L296.195 129.326C295.601 129.203 294.937 129.129 294.191 129.117C292.831 129.095 291.8 129.474 291.018 130.067C291.018 130.067 281.378 126.096 281.827 135.061C281.922 136.969 284.561 149.493 287.707 145.71C288.858 144.327 289.969 143.157 289.969 143.157C290.521 143.524 291.182 143.711 291.875 143.644L291.928 143.598C291.912 143.77 291.919 143.938 291.95 144.137C291.139 145.042 291.377 145.201 289.757 145.535C288.117 145.873 289.08 146.475 289.709 146.632C290.472 146.822 292.236 147.093 293.428 145.424L293.38 145.614C293.698 145.869 293.921 147.269 293.884 148.539C293.846 149.808 293.821 150.68 294.071 151.361C294.322 152.042 294.571 153.573 296.702 153.117C298.482 152.735 299.404 151.747 299.533 150.098C299.624 148.925 299.83 149.099 299.843 148.051L300.008 147.554C300.199 145.965 300.038 145.452 301.135 145.691L301.402 145.714C302.209 145.751 303.265 145.585 303.886 145.296C305.221 144.677 306.013 143.642 304.696 143.914H304.696Z" fill="#336791"/>
<path d="M291.588 135.914C291.317 135.876 291.072 135.911 290.948 136.005C290.878 136.058 290.857 136.119 290.851 136.161C290.835 136.273 290.914 136.396 290.962 136.46C291.098 136.64 291.296 136.764 291.493 136.791C291.521 136.795 291.55 136.797 291.578 136.797C291.906 136.797 292.204 136.542 292.23 136.353C292.263 136.117 291.92 135.96 291.588 135.914ZM300.556 135.921C300.53 135.736 300.201 135.684 299.889 135.727C299.577 135.77 299.275 135.911 299.3 136.097C299.32 136.241 299.58 136.487 299.888 136.487C299.914 136.487 299.941 136.485 299.967 136.481C300.173 136.453 300.324 136.322 300.395 136.247C300.505 136.132 300.568 136.004 300.556 135.921Z" fill="white"/>
<path d="M305.705 143.84C305.591 143.493 305.222 143.382 304.609 143.508C302.791 143.884 302.139 143.624 301.925 143.466C303.339 141.313 304.502 138.709 305.129 136.281C305.427 135.13 305.591 134.062 305.604 133.191C305.619 132.235 305.456 131.532 305.12 131.103C303.767 129.374 301.78 128.446 299.375 128.42C297.721 128.402 296.324 128.825 296.054 128.944C295.483 128.802 294.862 128.715 294.185 128.704C292.943 128.684 291.871 128.981 290.982 129.587C290.596 129.443 289.599 129.101 288.38 128.904C286.271 128.565 284.596 128.822 283.401 129.669C281.974 130.68 281.315 132.486 281.443 135.039C281.486 135.897 281.975 138.539 282.747 141.069C283.764 144.398 284.869 146.283 286.031 146.671C286.167 146.717 286.324 146.748 286.497 146.748C286.921 146.748 287.441 146.557 287.982 145.907C288.642 145.115 289.324 144.343 290.028 143.591C290.485 143.836 290.987 143.973 291.501 143.987C291.502 144 291.503 144.014 291.504 144.027C291.416 144.133 291.329 144.24 291.245 144.348C290.889 144.8 290.815 144.894 289.67 145.129C289.344 145.197 288.479 145.375 288.466 145.981C288.452 146.644 289.489 146.922 289.607 146.952C290.018 147.055 290.415 147.106 290.793 147.106C291.712 147.106 292.522 146.803 293.168 146.219C293.148 148.581 293.247 150.909 293.531 151.618C293.763 152.198 294.33 153.617 296.123 153.617C296.386 153.617 296.675 153.587 296.994 153.518C298.865 153.117 299.677 152.29 299.991 150.467C300.16 149.493 300.448 147.167 300.584 145.919C300.87 146.008 301.239 146.049 301.638 146.049C302.469 146.049 303.429 145.872 304.031 145.593C304.706 145.279 305.926 144.509 305.705 143.84ZM301.25 135.407C301.244 135.776 301.193 136.11 301.139 136.459C301.081 136.835 301.022 137.223 301.007 137.694C300.992 138.153 301.049 138.629 301.104 139.091C301.216 140.022 301.331 140.981 300.887 141.927C300.813 141.796 300.747 141.661 300.69 141.522C300.634 141.388 300.514 141.173 300.348 140.875C299.702 139.716 298.188 137.001 298.963 135.894C299.194 135.564 299.78 135.225 301.25 135.407ZM299.468 129.166C301.623 129.214 303.327 130.02 304.534 131.562C305.46 132.745 304.441 138.128 301.49 142.771C301.46 142.733 301.43 142.696 301.4 142.658L301.363 142.612C302.125 141.352 301.976 140.106 301.844 139.002C301.789 138.548 301.738 138.12 301.751 137.718C301.764 137.292 301.821 136.926 301.875 136.573C301.942 136.137 302.01 135.686 301.991 135.155C302.005 135.099 302.011 135.033 302.004 134.955C301.956 134.445 301.374 132.92 300.188 131.54C299.539 130.785 298.593 129.94 297.302 129.37C297.857 129.255 298.617 129.147 299.468 129.166ZM287.409 145.431C286.813 146.147 286.402 146.01 286.266 145.965C285.385 145.671 284.361 143.807 283.459 140.851C282.679 138.294 282.223 135.722 282.186 135.001C282.072 132.721 282.625 131.131 283.83 130.277C285.79 128.887 289.012 129.719 290.307 130.141C290.288 130.16 290.269 130.177 290.251 130.195C288.126 132.341 288.176 136.008 288.181 136.232C288.181 136.318 288.188 136.441 288.198 136.609C288.235 137.226 288.303 138.373 288.121 139.673C287.952 140.881 288.325 142.063 289.142 142.916C289.226 143.004 289.315 143.087 289.407 143.166C289.043 143.556 288.252 144.418 287.409 145.431ZM289.68 142.401C289.021 141.713 288.721 140.757 288.858 139.776C289.05 138.403 288.98 137.207 288.941 136.565C288.936 136.475 288.931 136.396 288.929 136.334C289.239 136.059 290.678 135.288 291.703 135.523C292.171 135.63 292.457 135.949 292.575 136.497C293.189 139.336 292.656 140.519 292.229 141.47C292.14 141.666 292.057 141.851 291.986 142.043L291.931 142.191C291.791 142.565 291.661 142.913 291.581 143.244C290.88 143.242 290.198 142.942 289.68 142.401V142.401ZM289.788 146.23C289.583 146.178 289.399 146.09 289.291 146.016C289.381 145.974 289.542 145.916 289.82 145.858C291.167 145.581 291.375 145.385 291.83 144.809C291.934 144.676 292.052 144.526 292.215 144.344L292.215 144.343C292.459 144.071 292.57 144.117 292.772 144.201C292.936 144.269 293.096 144.474 293.16 144.7C293.191 144.806 293.225 145.009 293.113 145.166C292.164 146.495 290.781 146.478 289.788 146.23ZM296.838 152.79C295.19 153.143 294.606 152.303 294.222 151.341C293.974 150.721 293.852 147.922 293.938 144.831C293.939 144.79 293.933 144.751 293.922 144.713C293.912 144.639 293.897 144.567 293.876 144.495C293.747 144.045 293.434 143.669 293.057 143.513C292.908 143.451 292.634 143.338 292.304 143.422C292.374 143.132 292.496 142.805 292.628 142.451L292.684 142.302C292.746 142.134 292.825 141.96 292.907 141.776C293.355 140.781 293.968 139.418 293.303 136.34C293.054 135.187 292.221 134.624 290.959 134.755C290.202 134.833 289.51 135.139 289.165 135.314C289.091 135.351 289.023 135.388 288.959 135.423C289.056 134.261 289.42 132.09 290.782 130.717C291.639 129.852 292.781 129.425 294.172 129.448C296.914 129.493 298.672 130.9 299.664 132.072C300.519 133.082 300.982 134.1 301.166 134.649C299.777 134.508 298.832 134.782 298.353 135.467C297.311 136.957 298.923 139.848 299.698 141.237C299.84 141.492 299.963 141.712 300.001 141.806C300.254 142.417 300.58 142.826 300.819 143.123C300.892 143.215 300.963 143.303 301.017 143.381C300.596 143.502 299.84 143.782 299.909 145.183C299.854 145.887 299.459 149.178 299.258 150.341C298.993 151.877 298.428 152.45 296.838 152.79V152.79ZM303.717 144.918C303.287 145.118 302.567 145.268 301.883 145.3C301.127 145.335 300.742 145.215 300.652 145.141C300.61 144.268 300.934 144.177 301.278 144.08C301.332 144.065 301.385 144.05 301.436 144.033C301.468 144.058 301.502 144.084 301.54 144.109C302.148 144.51 303.231 144.553 304.76 144.237L304.777 144.234C304.57 144.427 304.218 144.686 303.717 144.918Z" fill="white"/>
</g>
<rect x="9" y="145" width="344" height="328" fill="url(#paint1_linear_1_3364)"/>
</g>
<path d="M145.125 39.2899C144.034 39.2899 143.068 39.0966 142.226 38.7101C141.383 38.3235 140.721 37.7574 140.238 37.0118C139.768 36.2525 139.533 35.3343 139.533 34.2574V33.7396H141.749V34.2574C141.749 35.2791 142.053 36.0454 142.661 36.5562C143.282 37.0671 144.103 37.3225 145.125 37.3225C146.161 37.3225 146.941 37.1085 147.465 36.6805C147.99 36.2387 148.252 35.6726 148.252 34.9822C148.252 34.5266 148.128 34.1538 147.88 33.8639C147.631 33.5739 147.279 33.3461 146.823 33.1805C146.368 33.001 145.822 32.8353 145.187 32.6834L144.421 32.497C143.496 32.2761 142.688 32.0069 141.998 31.6893C141.321 31.358 140.797 30.9231 140.424 30.3846C140.051 29.8461 139.865 29.1558 139.865 28.3136C139.865 27.4576 140.072 26.7258 140.486 26.1183C140.914 25.5108 141.501 25.0414 142.246 24.71C142.992 24.3787 143.869 24.213 144.877 24.213C145.884 24.213 146.782 24.3856 147.569 24.7307C148.37 25.0759 148.998 25.5867 149.454 26.2633C149.909 26.9398 150.137 27.7889 150.137 28.8106V29.5562H147.921V28.8106C147.921 28.1893 147.79 27.6854 147.527 27.2988C147.279 26.9122 146.927 26.6292 146.471 26.4497C146.016 26.2702 145.484 26.1804 144.877 26.1804C143.993 26.1804 143.303 26.3668 142.806 26.7396C142.322 27.0986 142.081 27.6025 142.081 28.2514C142.081 28.6933 142.184 29.0591 142.391 29.3491C142.612 29.6252 142.93 29.853 143.344 30.0325C143.758 30.212 144.276 30.3708 144.897 30.5089L145.664 30.6952C146.602 30.9023 147.431 31.1716 148.149 31.5029C148.867 31.8205 149.433 32.2554 149.847 32.8077C150.261 33.3599 150.468 34.071 150.468 34.9408C150.468 35.8106 150.247 36.57 149.806 37.2189C149.378 37.8678 148.763 38.3787 147.962 38.7515C147.162 39.1105 146.216 39.2899 145.125 39.2899ZM157.663 39.2899C156.641 39.2899 155.73 39.0828 154.929 38.6686C154.142 38.2406 153.52 37.6331 153.065 36.8461C152.609 36.0592 152.381 35.1272 152.381 34.0503V33.7396C152.381 32.6627 152.609 31.7377 153.065 30.9645C153.52 30.1775 154.142 29.57 154.929 29.142C155.73 28.714 156.641 28.5 157.663 28.5C158.684 28.5 159.595 28.714 160.396 29.142C161.197 29.57 161.825 30.1775 162.281 30.9645C162.736 31.7377 162.964 32.6627 162.964 33.7396V34.0503C162.964 35.1272 162.736 36.0592 162.281 36.8461C161.825 37.6331 161.197 38.2406 160.396 38.6686C159.595 39.0828 158.684 39.2899 157.663 39.2899ZM157.663 37.3846C158.601 37.3846 159.361 37.0878 159.941 36.4941C160.534 35.8866 160.831 35.0513 160.831 33.9882V33.8018C160.831 32.7386 160.541 31.9102 159.961 31.3165C159.381 30.7091 158.615 30.4053 157.663 30.4053C156.737 30.4053 155.978 30.7091 155.384 31.3165C154.805 31.9102 154.515 32.7386 154.515 33.8018V33.9882C154.515 35.0513 154.805 35.8866 155.384 36.4941C155.978 37.0878 156.737 37.3846 157.663 37.3846ZM169.534 39.1864C168.761 39.1864 168.071 39.0138 167.463 38.6686C166.856 38.3235 166.379 37.8333 166.034 37.1982C165.689 36.5631 165.516 35.8037 165.516 34.9201V28.7899H167.65V34.7751C167.65 35.6588 167.871 36.3146 168.312 36.7426C168.754 37.1568 169.369 37.3639 170.156 37.3639C171.025 37.3639 171.723 37.074 172.247 36.4941C172.786 35.9004 173.055 35.0513 173.055 33.9467V28.7899H175.188V39H173.096V37.4675H172.765C172.572 37.8817 172.227 38.2751 171.73 38.6479C171.232 39.0069 170.501 39.1864 169.534 39.1864ZM178.341 39V28.7899H180.433V29.9911H180.764C180.93 29.5631 181.192 29.2524 181.551 29.0591C181.924 28.852 182.38 28.7485 182.918 28.7485H184.14V30.6745H182.835C182.145 30.6745 181.579 30.8678 181.137 31.2544C180.695 31.6272 180.475 32.2071 180.475 32.9941V39H178.341ZM190.729 39.2899C189.749 39.2899 188.858 39.0828 188.057 38.6686C187.27 38.2544 186.642 37.6538 186.173 36.8669C185.717 36.0799 185.489 35.1341 185.489 34.0296V33.7603C185.489 32.6558 185.717 31.7169 186.173 30.9438C186.642 30.1568 187.27 29.5562 188.057 29.142C188.858 28.714 189.749 28.5 190.729 28.5C191.709 28.5 192.545 28.6795 193.235 29.0384C193.925 29.3974 194.477 29.8737 194.892 30.4674C195.32 31.0611 195.596 31.7169 195.72 32.4349L193.649 32.8698C193.58 32.4142 193.435 32 193.214 31.6272C192.993 31.2544 192.683 30.9576 192.282 30.7367C191.882 30.5158 191.378 30.4053 190.77 30.4053C190.177 30.4053 189.638 30.5434 189.155 30.8195C188.686 31.0818 188.313 31.4684 188.037 31.9793C187.761 32.4763 187.622 33.0838 187.622 33.8018V33.9882C187.622 34.7061 187.761 35.3205 188.037 35.8314C188.313 36.3422 188.686 36.7288 189.155 36.9911C189.638 37.2534 190.177 37.3846 190.77 37.3846C191.668 37.3846 192.351 37.1568 192.821 36.7012C193.29 36.2317 193.587 35.6381 193.711 34.9201L195.782 35.3964C195.617 36.1006 195.32 36.7495 194.892 37.3432C194.477 37.9369 193.925 38.4132 193.235 38.7722C192.545 39.1174 191.709 39.2899 190.729 39.2899ZM202.923 39.2899C201.887 39.2899 200.983 39.0759 200.21 38.6479C199.437 38.2061 198.829 37.5917 198.387 36.8047C197.959 36.0039 197.745 35.0789 197.745 34.0296V33.7811C197.745 32.7179 197.959 31.7929 198.387 31.0059C198.815 30.2051 199.409 29.5907 200.169 29.1627C200.942 28.7209 201.832 28.5 202.84 28.5C203.82 28.5 204.676 28.7209 205.408 29.1627C206.154 29.5907 206.734 30.1913 207.148 30.9645C207.562 31.7377 207.769 32.642 207.769 33.6775V34.4852H199.92C199.948 35.3826 200.244 36.1006 200.811 36.639C201.39 37.1637 202.108 37.426 202.964 37.426C203.765 37.426 204.366 37.2465 204.766 36.8876C205.18 36.5286 205.498 36.1144 205.719 35.645L207.479 36.5562C207.286 36.9428 207.003 37.3501 206.63 37.7781C206.271 38.2061 205.795 38.5651 205.201 38.855C204.607 39.145 203.848 39.2899 202.923 39.2899ZM199.941 32.8491H205.595C205.539 32.0759 205.263 31.4753 204.766 31.0473C204.269 30.6055 203.62 30.3846 202.819 30.3846C202.019 30.3846 201.363 30.6055 200.852 31.0473C200.355 31.4753 200.051 32.0759 199.941 32.8491ZM214.52 39.2899C213.223 39.2899 212.146 39 211.29 38.4201C210.434 37.8402 209.909 36.9635 209.716 35.7899L211.704 35.3136C211.814 35.8797 212.001 36.3284 212.263 36.6598C212.525 36.9911 212.85 37.2258 213.236 37.3639C213.637 37.502 214.065 37.571 214.52 37.571C215.197 37.571 215.715 37.4398 216.074 37.1775C216.446 36.9152 216.633 36.5769 216.633 36.1627C216.633 35.7485 216.46 35.4448 216.115 35.2515C215.77 35.0582 215.259 34.8994 214.582 34.7751L213.878 34.6509C213.188 34.5266 212.56 34.3471 211.994 34.1124C211.428 33.8777 210.979 33.5532 210.648 33.139C210.316 32.7248 210.151 32.1933 210.151 31.5444C210.151 30.5779 210.509 29.8323 211.227 29.3077C211.945 28.7692 212.898 28.5 214.085 28.5C215.231 28.5 216.17 28.7623 216.902 29.287C217.648 29.7978 218.131 30.495 218.352 31.3787L216.364 31.9379C216.239 31.3165 215.977 30.8816 215.577 30.6331C215.176 30.3708 214.679 30.2396 214.085 30.2396C213.506 30.2396 213.05 30.3501 212.719 30.571C212.387 30.7781 212.222 31.0749 212.222 31.4615C212.222 31.8757 212.38 32.1795 212.698 32.3728C213.029 32.5661 213.471 32.711 214.023 32.8077L214.748 32.9319C215.48 33.0562 216.15 33.2288 216.757 33.4497C217.365 33.6706 217.841 33.9882 218.186 34.4024C218.545 34.8166 218.725 35.3688 218.725 36.0592C218.725 37.0809 218.345 37.8748 217.585 38.4408C216.826 39.0069 215.804 39.2899 214.52 39.2899Z" fill="#363636"/>
<defs>
<filter id="filter0_d_1_3364" x="44.9173" y="153.917" width="100.165" height="100.165" filterUnits="userSpaceOnUse" color-interpolation-filters="sRGB">
<feFlood flood-opacity="0" result="BackgroundImageFix"/>
<feColorMatrix in="SourceAlpha" type="matrix" values="0 0 0 0 0 0 0 0 0 0 0 0 0 0 0 0 0 0 127 0" result="hardAlpha"/>
<feOffset/>
<feGaussianBlur stdDeviation="9.04135"/>
<feComposite in2="hardAlpha" operator="out"/>
<feColorMatrix type="matrix" values="0 0 0 0 0 0 0 0 0 0 0 0 0 0 0 0 0 0 0.08 0"/>
<feBlend mode="normal" in2="BackgroundImageFix" result="effect1_dropShadow_1_3364"/>
<feBlend mode="normal" in="SourceGraphic" in2="effect1_dropShadow_1_3364" result="shape"/>
</filter>
<filter id="filter1_d_1_3364" x="153.922" y="250.922" width="80.1568" height="80.1568" filterUnits="userSpaceOnUse" color-interpolation-filters="sRGB">
<feFlood flood-opacity="0" result="BackgroundImageFix"/>
<feColorMatrix in="SourceAlpha" type="matrix" values="0 0 0 0 0 0 0 0 0 0 0 0 0 0 0 0 0 0 127 0" result="hardAlpha"/>
<feOffset/>
<feGaussianBlur stdDeviation="4.03921"/>
<feComposite in2="hardAlpha" operator="out"/>
<feColorMatrix type="matrix" values="0 0 0 0 0 0 0 0 0 0 0 0 0 0 0 0 0 0 0.08 0"/>
<feBlend mode="normal" in2="BackgroundImageFix" result="effect1_dropShadow_1_3364"/>
<feBlend mode="normal" in="SourceGraphic" in2="effect1_dropShadow_1_3364" result="shape"/>
</filter>
<filter id="filter2_d_1_3364" x="251.718" y="98.7184" width="84.5632" height="84.5632" filterUnits="userSpaceOnUse" color-interpolation-filters="sRGB">
<feFlood flood-opacity="0" result="BackgroundImageFix"/>
<feColorMatrix in="SourceAlpha" type="matrix" values="0 0 0 0 0 0 0 0 0 0 0 0 0 0 0 0 0 0 127 0" result="hardAlpha"/>
<feOffset/>
<feGaussianBlur stdDeviation="5.14081"/>
<feComposite in2="hardAlpha" operator="out"/>
<feColorMatrix type="matrix" values="0 0 0 0 0 0 0 0 0 0 0 0 0 0 0 0 0 0 0.08 0"/>
<feBlend mode="normal" in2="BackgroundImageFix" result="effect1_dropShadow_1_3364"/>
<feBlend mode="normal" in="SourceGraphic" in2="effect1_dropShadow_1_3364" result="shape"/>
</filter>
<radialGradient id="paint0_radial_1_3364" cx="0" cy="0" r="1" gradientUnits="userSpaceOnUse" gradientTransform="translate(180 40.5001) rotate(90) scale(386 384.928)">
<stop stop-color="#E5F5FF" stop-opacity="0.7"/>
<stop offset="1" stop-color="#95DBFF" stop-opacity="0.5"/>
</radialGradient>
<linearGradient id="paint1_linear_1_3364" x1="181.575" y1="262.298" x2="181.575" y2="389.914" gradientUnits="userSpaceOnUse">
<stop stop-color="white" stop-opacity="0"/>
<stop offset="1" stop-color="white"/>
</linearGradient>
<clipPath id="clip0_1_3364">
<rect x="6.75" y="64.3253" width="348.62" height="289.942" rx="36.818" fill="white"/>
</clipPath>
<clipPath id="clip1_1_3364">
<rect width="32" height="32" fill="white" transform="translate(79 188)"/>
</clipPath>
<clipPath id="clip2_1_3364">
<rect width="32" height="32" fill="white" transform="translate(178 275)"/>
</clipPath>
</defs>
</svg>
