<svg width="501" height="216" viewBox="0 0 501 216" fill="none" xmlns="http://www.w3.org/2000/svg">
<rect x="146.414" y="22.9043" width="30.1528" height="35.6352" rx="5.57566" fill="#88D8FF"/>
<rect x="133.719" y="122.879" width="31.0666" height="22.8431" rx="5.57566" fill="#009FEE"/>
<g filter="url(#filter0_d_1122_6248)">
<rect x="119.102" y="70.8438" width="40.1636" height="40.1636" rx="7.80593" fill="#E5F6FF"/>
</g>
<g filter="url(#filter1_d_1122_6248)">
<rect x="119.102" y="159.428" width="39.6679" height="39.6679" rx="7.80593" fill="#E5F6FF"/>
</g>
<rect x="173.242" y="70.8438" width="40.1636" height="40.1636" rx="7.80593" fill="#E5F6FF"/>
<rect x="173.016" y="159.428" width="39.6679" height="39.6679" rx="7.80593" fill="#E5F6FF"/>
<rect x="186.773" y="35.1621" width="30.7608" height="23.3782" rx="5.57566" fill="#009FEE" fill-opacity="0.1"/>
<rect x="177.93" y="122.789" width="38.3763" height="22.8431" rx="5.57566" fill="#88D8FF"/>
<rect x="227.742" y="22.9043" width="30.1528" height="35.6352" rx="5.57566" fill="#5BC9FF"/>
<rect x="267.984" y="35.1621" width="30.7608" height="23.3782" rx="5.57566" fill="#009FEE"/>
<rect x="226.148" y="122.521" width="30.7608" height="23.3782" rx="5.57566" fill="#009FEE" fill-opacity="0.1"/>
<rect x="267.125" y="122.879" width="49.341" height="22.8431" rx="5.57566" fill="#009FEE"/>
<g filter="url(#filter2_d_1122_6248)">
<rect x="226.148" y="70.8438" width="40.1636" height="40.1636" rx="7.80593" fill="#E5F6FF"/>
</g>
<rect x="280.281" y="70.8438" width="40.1636" height="40.1636" rx="7.80593" fill="#E5F6FF"/>
<g filter="url(#filter3_d_1122_6248)">
<rect x="226.922" y="159.428" width="39.6679" height="39.6679" rx="7.80593" fill="#E5F6FF"/>
</g>
<rect x="280.828" y="159.428" width="39.6679" height="39.6679" rx="7.80593" fill="#E5F6FF"/>
<g filter="url(#filter4_ddd_1122_6248)">
<rect x="5.5" y="4" width="160" height="40" rx="8" fill="white"/>
<path d="M49.4158 16.834H47.6241C47.3073 16.834 47.0035 16.9598 46.7795 17.1838C46.5555 17.4078 46.4297 17.7116 46.4297 18.0284V29.9729C46.4297 30.2897 46.5555 30.5935 46.7795 30.8175C47.0035 31.0415 47.3073 31.1673 47.6241 31.1673H49.4158C49.7326 31.1673 50.0364 31.0415 50.2604 30.8175C50.4844 30.5935 50.6102 30.2897 50.6102 29.9729V18.0284C50.6102 17.7116 50.4844 17.4078 50.2604 17.1838C50.0364 16.9598 49.7326 16.834 49.4158 16.834ZM49.4158 29.9729H47.6241V18.0284H49.4158V29.9729ZM54.7908 16.834H52.9991C52.6823 16.834 52.3785 16.9598 52.1545 17.1838C51.9305 17.4078 51.8047 17.7116 51.8047 18.0284V29.9729C51.8047 30.2897 51.9305 30.5935 52.1545 30.8175C52.3785 31.0415 52.6823 31.1673 52.9991 31.1673H54.7908C55.1076 31.1673 55.4114 31.0415 55.6354 30.8175C55.8594 30.5935 55.9852 30.2897 55.9852 29.9729V18.0284C55.9852 17.7116 55.8594 17.4078 55.6354 17.1838C55.4114 16.9598 55.1076 16.834 54.7908 16.834ZM54.7908 29.9729H52.9991V18.0284H54.7908V29.9729ZM61.9575 24.0007C61.9575 24.159 61.8945 24.311 61.7825 24.423C61.6705 24.535 61.5186 24.5979 61.3602 24.5979H60.1658V25.7923C60.1658 25.9507 60.1029 26.1026 59.9909 26.2146C59.8789 26.3266 59.727 26.3895 59.5686 26.3895C59.4102 26.3895 59.2583 26.3266 59.1463 26.2146C59.0343 26.1026 58.9714 25.9507 58.9714 25.7923V24.5979H57.7769C57.6185 24.5979 57.4666 24.535 57.3546 24.423C57.2426 24.311 57.1797 24.159 57.1797 24.0007C57.1797 23.8423 57.2426 23.6904 57.3546 23.5784C57.4666 23.4664 57.6185 23.4034 57.7769 23.4034H58.9714V22.209C58.9714 22.0506 59.0343 21.8987 59.1463 21.7867C59.2583 21.6747 59.4102 21.6118 59.5686 21.6118C59.727 21.6118 59.8789 21.6747 59.9909 21.7867C60.1029 21.8987 60.1658 22.0506 60.1658 22.209V23.4034H61.3602C61.5186 23.4034 61.6705 23.4664 61.7825 23.5784C61.8945 23.6904 61.9575 23.8423 61.9575 24.0007Z" fill="#001F2E"/>
<path d="M69.0827 25.692C69.0827 26.1293 69.1574 26.5027 69.3067 26.812C69.456 27.1213 69.664 27.3773 69.9307 27.58C70.1974 27.772 70.5014 27.916 70.8427 28.012C71.1947 28.0973 71.5734 28.14 71.9787 28.14C72.416 28.14 72.7894 28.092 73.0987 27.996C73.408 27.8893 73.6587 27.756 73.8507 27.596C74.0427 27.436 74.1814 27.2547 74.2667 27.052C74.352 26.8387 74.3947 26.6253 74.3947 26.412C74.3947 25.9747 74.2934 25.6547 74.0907 25.452C73.8987 25.2387 73.6854 25.0893 73.4507 25.004C73.0454 24.8547 72.5707 24.716 72.0267 24.588C71.4934 24.4493 70.832 24.2733 70.0427 24.06C69.552 23.932 69.1414 23.7667 68.8107 23.564C68.4907 23.3507 68.2347 23.116 68.0427 22.86C67.8507 22.604 67.712 22.332 67.6267 22.044C67.552 21.756 67.5147 21.4627 67.5147 21.164C67.5147 20.588 67.632 20.092 67.8667 19.676C68.112 19.2493 68.432 18.8973 68.8267 18.62C69.2214 18.3427 69.6694 18.14 70.1707 18.012C70.672 17.8733 71.1787 17.804 71.6907 17.804C72.288 17.804 72.848 17.884 73.3707 18.044C73.904 18.1933 74.368 18.4227 74.7627 18.732C75.168 19.0413 75.488 19.4253 75.7227 19.884C75.9574 20.332 76.0747 20.8547 76.0747 21.452H74.0747C74.0214 20.716 73.7707 20.1987 73.3227 19.9C72.8747 19.5907 72.304 19.436 71.6107 19.436C71.376 19.436 71.136 19.4627 70.8907 19.516C70.6454 19.5587 70.4214 19.6387 70.2187 19.756C70.016 19.8627 69.8454 20.012 69.7067 20.204C69.5787 20.396 69.5147 20.636 69.5147 20.924C69.5147 21.3293 69.6374 21.6493 69.8827 21.884C70.1387 22.108 70.4694 22.2787 70.8747 22.396C70.9174 22.4067 71.0827 22.4547 71.3707 22.54C71.6694 22.6147 72 22.7 72.3627 22.796C72.7254 22.892 73.0774 22.988 73.4187 23.084C73.7707 23.1693 74.0214 23.2333 74.1707 23.276C74.544 23.3933 74.8694 23.5533 75.1467 23.756C75.424 23.9587 75.6534 24.1933 75.8347 24.46C76.0267 24.716 76.1654 24.9933 76.2507 25.292C76.3467 25.5907 76.3947 25.8893 76.3947 26.188C76.3947 26.828 76.2614 27.3773 75.9947 27.836C75.7387 28.284 75.3974 28.652 74.9707 28.94C74.544 29.228 74.0587 29.436 73.5147 29.564C72.9707 29.7027 72.416 29.772 71.8507 29.772C71.2 29.772 70.5867 29.692 70.0107 29.532C69.4347 29.372 68.9334 29.1267 68.5067 28.796C68.08 28.4653 67.7387 28.044 67.4827 27.532C67.2267 27.0093 67.0934 26.396 67.0827 25.692H69.0827ZM83.4737 23.996C83.399 23.484 83.191 23.1 82.8497 22.844C82.519 22.5773 82.0977 22.444 81.5857 22.444C81.351 22.444 81.1004 22.4867 80.8337 22.572C80.567 22.6467 80.3217 22.796 80.0977 23.02C79.8737 23.2333 79.687 23.5373 79.5377 23.932C79.3884 24.316 79.3137 24.8227 79.3137 25.452C79.3137 25.7933 79.351 26.1347 79.4257 26.476C79.511 26.8173 79.639 27.1213 79.8097 27.388C79.991 27.6547 80.2204 27.8733 80.4977 28.044C80.775 28.204 81.111 28.284 81.5057 28.284C82.039 28.284 82.4764 28.1187 82.8177 27.788C83.1697 27.4573 83.3884 26.9933 83.4737 26.396H85.2977C85.127 27.4733 84.7164 28.3 84.0657 28.876C83.4257 29.4413 82.5724 29.724 81.5057 29.724C80.855 29.724 80.279 29.6173 79.7777 29.404C79.287 29.18 78.871 28.8813 78.5297 28.508C78.1884 28.124 77.927 27.6707 77.7457 27.148C77.575 26.6253 77.4897 26.06 77.4897 25.452C77.4897 24.8333 77.575 24.252 77.7457 23.708C77.9164 23.164 78.1724 22.6947 78.5137 22.3C78.855 21.8947 79.2764 21.58 79.7777 21.356C80.2897 21.1213 80.887 21.004 81.5697 21.004C82.0497 21.004 82.503 21.068 82.9297 21.196C83.367 21.3133 83.751 21.4947 84.0817 21.74C84.423 21.9853 84.7004 22.2947 84.9137 22.668C85.127 23.0413 85.255 23.484 85.2977 23.996H83.4737ZM86.7803 18.076H88.6043V22.316H88.6363C88.8603 21.9427 89.191 21.6333 89.6283 21.388C90.0763 21.132 90.5723 21.004 91.1163 21.004C92.023 21.004 92.7376 21.2387 93.2603 21.708C93.783 22.1773 94.0443 22.8813 94.0443 23.82V29.5H92.2203V24.3C92.199 23.6493 92.0603 23.18 91.8043 22.892C91.5483 22.5933 91.1483 22.444 90.6043 22.444C90.295 22.444 90.0176 22.5027 89.7723 22.62C89.527 22.7267 89.319 22.8813 89.1483 23.084C88.9776 23.276 88.8443 23.5053 88.7483 23.772C88.6523 24.0387 88.6043 24.3213 88.6043 24.62V29.5H86.7803V18.076ZM101.648 24.636C101.626 24.348 101.562 24.0707 101.456 23.804C101.36 23.5373 101.221 23.308 101.04 23.116C100.869 22.9133 100.656 22.7533 100.4 22.636C100.154 22.508 99.8771 22.444 99.5678 22.444C99.2478 22.444 98.9545 22.5027 98.6878 22.62C98.4318 22.7267 98.2078 22.8813 98.0158 23.084C97.8345 23.276 97.6851 23.5053 97.5678 23.772C97.4611 24.0387 97.4025 24.3267 97.3918 24.636H101.648ZM97.3918 25.836C97.3918 26.156 97.4345 26.4653 97.5198 26.764C97.6158 27.0627 97.7545 27.324 97.9358 27.548C98.1171 27.772 98.3465 27.9533 98.6238 28.092C98.9011 28.22 99.2318 28.284 99.6158 28.284C100.149 28.284 100.576 28.172 100.896 27.948C101.226 27.7133 101.472 27.3667 101.632 26.908H103.36C103.264 27.356 103.098 27.756 102.864 28.108C102.629 28.46 102.346 28.7587 102.016 29.004C101.685 29.2387 101.312 29.4147 100.896 29.532C100.49 29.66 100.064 29.724 99.6158 29.724C98.9651 29.724 98.3891 29.6173 97.8878 29.404C97.3865 29.1907 96.9598 28.892 96.6078 28.508C96.2665 28.124 96.0051 27.6653 95.8238 27.132C95.6531 26.5987 95.5678 26.012 95.5678 25.372C95.5678 24.7853 95.6585 24.2307 95.8398 23.708C96.0318 23.1747 96.2985 22.7107 96.6398 22.316C96.9918 21.9107 97.4131 21.5907 97.9038 21.356C98.3945 21.1213 98.9491 21.004 99.5678 21.004C100.218 21.004 100.8 21.1427 101.312 21.42C101.834 21.6867 102.266 22.044 102.608 22.492C102.949 22.94 103.194 23.4573 103.344 24.044C103.504 24.62 103.546 25.2173 103.472 25.836H97.3918ZM104.858 21.228H106.586V22.38H106.634C106.773 22.1773 106.922 21.9907 107.082 21.82C107.242 21.6493 107.418 21.5053 107.61 21.388C107.813 21.2707 108.042 21.18 108.298 21.116C108.554 21.0413 108.848 21.004 109.178 21.004C109.68 21.004 110.144 21.116 110.57 21.34C111.008 21.564 111.317 21.9107 111.498 22.38C111.808 21.9533 112.165 21.6173 112.57 21.372C112.976 21.1267 113.482 21.004 114.09 21.004C114.965 21.004 115.642 21.2173 116.122 21.644C116.613 22.0707 116.858 22.7853 116.858 23.788V29.5H115.034V24.668C115.034 24.3373 115.024 24.0387 115.002 23.772C114.981 23.4947 114.917 23.26 114.81 23.068C114.714 22.8653 114.565 22.7107 114.362 22.604C114.16 22.4973 113.882 22.444 113.53 22.444C112.912 22.444 112.464 22.636 112.186 23.02C111.909 23.404 111.77 23.948 111.77 24.652V29.5H109.946V24.188C109.946 23.612 109.84 23.18 109.626 22.892C109.424 22.5933 109.045 22.444 108.49 22.444C108.256 22.444 108.026 22.492 107.802 22.588C107.589 22.684 107.397 22.8227 107.226 23.004C107.066 23.1853 106.933 23.4093 106.826 23.676C106.73 23.9427 106.682 24.2467 106.682 24.588V29.5H104.858V21.228ZM125.708 27.66C125.708 27.884 125.735 28.044 125.788 28.14C125.852 28.236 125.97 28.284 126.14 28.284C126.194 28.284 126.258 28.284 126.332 28.284C126.407 28.284 126.492 28.2733 126.588 28.252V29.516C126.524 29.5373 126.439 29.5587 126.332 29.58C126.236 29.612 126.135 29.6387 126.028 29.66C125.922 29.6813 125.815 29.6973 125.708 29.708C125.602 29.7187 125.511 29.724 125.436 29.724C125.063 29.724 124.754 29.6493 124.508 29.5C124.263 29.3507 124.103 29.0893 124.028 28.716C123.666 29.068 123.218 29.324 122.684 29.484C122.162 29.644 121.655 29.724 121.164 29.724C120.791 29.724 120.434 29.6707 120.092 29.564C119.751 29.468 119.447 29.324 119.18 29.132C118.924 28.9293 118.716 28.6787 118.556 28.38C118.407 28.0707 118.332 27.7133 118.332 27.308C118.332 26.796 118.423 26.38 118.604 26.06C118.796 25.74 119.042 25.4893 119.34 25.308C119.65 25.1267 119.991 24.9987 120.364 24.924C120.748 24.8387 121.132 24.7747 121.516 24.732C121.847 24.668 122.162 24.6253 122.46 24.604C122.759 24.572 123.02 24.524 123.244 24.46C123.479 24.396 123.66 24.3 123.788 24.172C123.927 24.0333 123.996 23.8307 123.996 23.564C123.996 23.3293 123.938 23.1373 123.82 22.988C123.714 22.8387 123.575 22.7267 123.404 22.652C123.244 22.5667 123.063 22.5133 122.86 22.492C122.658 22.46 122.466 22.444 122.284 22.444C121.772 22.444 121.351 22.5507 121.02 22.764C120.69 22.9773 120.503 23.308 120.46 23.756H118.636C118.668 23.2227 118.796 22.78 119.02 22.428C119.244 22.076 119.527 21.7933 119.868 21.58C120.22 21.3667 120.615 21.2173 121.052 21.132C121.49 21.0467 121.938 21.004 122.396 21.004C122.802 21.004 123.202 21.0467 123.596 21.132C123.991 21.2173 124.343 21.356 124.652 21.548C124.972 21.74 125.228 21.9907 125.42 22.3C125.612 22.5987 125.708 22.9667 125.708 23.404V27.66ZM123.884 25.356C123.607 25.5373 123.266 25.6493 122.86 25.692C122.455 25.724 122.05 25.7773 121.644 25.852C121.452 25.884 121.266 25.932 121.084 25.996C120.903 26.0493 120.743 26.1293 120.604 26.236C120.466 26.332 120.354 26.4653 120.268 26.636C120.194 26.796 120.156 26.9933 120.156 27.228C120.156 27.4307 120.215 27.6013 120.332 27.74C120.45 27.8787 120.588 27.9907 120.748 28.076C120.919 28.1507 121.1 28.204 121.292 28.236C121.495 28.268 121.676 28.284 121.836 28.284C122.039 28.284 122.258 28.2573 122.492 28.204C122.727 28.1507 122.946 28.06 123.148 27.932C123.362 27.804 123.538 27.644 123.676 27.452C123.815 27.2493 123.884 27.004 123.884 26.716V25.356Z" fill="#001F2E"/>
</g>
<g filter="url(#filter5_ddd_1122_6248)">
<rect x="298.5" y="170" width="197" height="40" rx="8" fill="white"/>
<path d="M323.428 187.708C323.343 187.377 323.225 187.073 323.076 186.796C322.927 186.519 322.735 186.279 322.5 186.076C322.265 185.873 321.988 185.719 321.668 185.612C321.359 185.495 320.996 185.436 320.58 185.436C319.972 185.436 319.444 185.559 318.996 185.804C318.559 186.049 318.201 186.38 317.924 186.796C317.647 187.201 317.439 187.665 317.3 188.188C317.172 188.711 317.108 189.244 317.108 189.788C317.108 190.332 317.172 190.865 317.3 191.388C317.439 191.911 317.647 192.38 317.924 192.796C318.201 193.201 318.559 193.527 318.996 193.772C319.444 194.017 319.972 194.14 320.58 194.14C321.028 194.14 321.423 194.065 321.764 193.916C322.105 193.756 322.399 193.543 322.644 193.276C322.889 192.999 323.081 192.679 323.22 192.316C323.359 191.953 323.449 191.564 323.492 191.148H325.444C325.401 191.831 325.252 192.455 324.996 193.02C324.751 193.585 324.415 194.076 323.988 194.492C323.561 194.897 323.06 195.212 322.484 195.436C321.908 195.66 321.273 195.772 320.58 195.772C319.727 195.772 318.959 195.617 318.276 195.308C317.604 194.988 317.033 194.556 316.564 194.012C316.095 193.468 315.732 192.833 315.476 192.108C315.231 191.383 315.108 190.609 315.108 189.788C315.108 188.977 315.231 188.209 315.476 187.484C315.732 186.759 316.095 186.124 316.564 185.58C317.033 185.036 317.604 184.604 318.276 184.284C318.959 183.964 319.727 183.804 320.58 183.804C321.22 183.804 321.823 183.895 322.388 184.076C322.953 184.247 323.449 184.503 323.876 184.844C324.313 185.175 324.665 185.58 324.932 186.06C325.199 186.54 325.364 187.089 325.428 187.708H323.428ZM330.799 195.724C330.138 195.724 329.546 195.617 329.023 195.404C328.511 195.18 328.074 194.876 327.711 194.492C327.359 194.108 327.087 193.649 326.895 193.116C326.714 192.583 326.623 191.996 326.623 191.356C326.623 190.727 326.714 190.145 326.895 189.612C327.087 189.079 327.359 188.62 327.711 188.236C328.074 187.852 328.511 187.553 329.023 187.34C329.546 187.116 330.138 187.004 330.799 187.004C331.46 187.004 332.047 187.116 332.559 187.34C333.082 187.553 333.519 187.852 333.871 188.236C334.234 188.62 334.506 189.079 334.687 189.612C334.879 190.145 334.975 190.727 334.975 191.356C334.975 191.996 334.879 192.583 334.687 193.116C334.506 193.649 334.234 194.108 333.871 194.492C333.519 194.876 333.082 195.18 332.559 195.404C332.047 195.617 331.46 195.724 330.799 195.724ZM330.799 194.284C331.204 194.284 331.556 194.199 331.855 194.028C332.154 193.857 332.399 193.633 332.591 193.356C332.783 193.079 332.922 192.769 333.007 192.428C333.103 192.076 333.151 191.719 333.151 191.356C333.151 191.004 333.103 190.652 333.007 190.3C332.922 189.948 332.783 189.639 332.591 189.372C332.399 189.095 332.154 188.871 331.855 188.7C331.556 188.529 331.204 188.444 330.799 188.444C330.394 188.444 330.042 188.529 329.743 188.7C329.444 188.871 329.199 189.095 329.007 189.372C328.815 189.639 328.671 189.948 328.575 190.3C328.49 190.652 328.447 191.004 328.447 191.356C328.447 191.719 328.49 192.076 328.575 192.428C328.671 192.769 328.815 193.079 329.007 193.356C329.199 193.633 329.444 193.857 329.743 194.028C330.042 194.199 330.394 194.284 330.799 194.284ZM336.491 187.228H338.219V188.444L338.251 188.476C338.529 188.017 338.891 187.66 339.339 187.404C339.787 187.137 340.283 187.004 340.827 187.004C341.734 187.004 342.449 187.239 342.971 187.708C343.494 188.177 343.755 188.881 343.755 189.82V195.5H341.931V190.3C341.91 189.649 341.771 189.18 341.515 188.892C341.259 188.593 340.859 188.444 340.315 188.444C340.006 188.444 339.729 188.503 339.483 188.62C339.238 188.727 339.03 188.881 338.859 189.084C338.689 189.276 338.555 189.505 338.459 189.772C338.363 190.039 338.315 190.321 338.315 190.62V195.5H336.491V187.228ZM345.679 187.228H347.407V188.444L347.439 188.476C347.716 188.017 348.079 187.66 348.527 187.404C348.975 187.137 349.471 187.004 350.015 187.004C350.921 187.004 351.636 187.239 352.159 187.708C352.681 188.177 352.943 188.881 352.943 189.82V195.5H351.119V190.3C351.097 189.649 350.959 189.18 350.703 188.892C350.447 188.593 350.047 188.444 349.503 188.444C349.193 188.444 348.916 188.503 348.671 188.62C348.425 188.727 348.217 188.881 348.047 189.084C347.876 189.276 347.743 189.505 347.647 189.772C347.551 190.039 347.503 190.321 347.503 190.62V195.5H345.679V187.228ZM360.546 190.636C360.525 190.348 360.461 190.071 360.354 189.804C360.258 189.537 360.12 189.308 359.938 189.116C359.768 188.913 359.554 188.753 359.298 188.636C359.053 188.508 358.776 188.444 358.466 188.444C358.146 188.444 357.853 188.503 357.586 188.62C357.33 188.727 357.106 188.881 356.914 189.084C356.733 189.276 356.584 189.505 356.466 189.772C356.36 190.039 356.301 190.327 356.29 190.636H360.546ZM356.29 191.836C356.29 192.156 356.333 192.465 356.418 192.764C356.514 193.063 356.653 193.324 356.834 193.548C357.016 193.772 357.245 193.953 357.522 194.092C357.8 194.22 358.13 194.284 358.514 194.284C359.048 194.284 359.474 194.172 359.794 193.948C360.125 193.713 360.37 193.367 360.53 192.908H362.258C362.162 193.356 361.997 193.756 361.762 194.108C361.528 194.46 361.245 194.759 360.914 195.004C360.584 195.239 360.21 195.415 359.794 195.532C359.389 195.66 358.962 195.724 358.514 195.724C357.864 195.724 357.288 195.617 356.786 195.404C356.285 195.191 355.858 194.892 355.506 194.508C355.165 194.124 354.904 193.665 354.722 193.132C354.552 192.599 354.466 192.012 354.466 191.372C354.466 190.785 354.557 190.231 354.738 189.708C354.93 189.175 355.197 188.711 355.538 188.316C355.89 187.911 356.312 187.591 356.802 187.356C357.293 187.121 357.848 187.004 358.466 187.004C359.117 187.004 359.698 187.143 360.21 187.42C360.733 187.687 361.165 188.044 361.506 188.492C361.848 188.94 362.093 189.457 362.242 190.044C362.402 190.62 362.445 191.217 362.37 191.836H356.29ZM369.341 189.996C369.266 189.484 369.058 189.1 368.717 188.844C368.386 188.577 367.965 188.444 367.453 188.444C367.218 188.444 366.968 188.487 366.701 188.572C366.434 188.647 366.189 188.796 365.965 189.02C365.741 189.233 365.554 189.537 365.405 189.932C365.256 190.316 365.181 190.823 365.181 191.452C365.181 191.793 365.218 192.135 365.293 192.476C365.378 192.817 365.506 193.121 365.677 193.388C365.858 193.655 366.088 193.873 366.365 194.044C366.642 194.204 366.978 194.284 367.373 194.284C367.906 194.284 368.344 194.119 368.685 193.788C369.037 193.457 369.256 192.993 369.341 192.396H371.165C370.994 193.473 370.584 194.3 369.933 194.876C369.293 195.441 368.44 195.724 367.373 195.724C366.722 195.724 366.146 195.617 365.645 195.404C365.154 195.18 364.738 194.881 364.397 194.508C364.056 194.124 363.794 193.671 363.613 193.148C363.442 192.625 363.357 192.06 363.357 191.452C363.357 190.833 363.442 190.252 363.613 189.708C363.784 189.164 364.04 188.695 364.381 188.3C364.722 187.895 365.144 187.58 365.645 187.356C366.157 187.121 366.754 187.004 367.437 187.004C367.917 187.004 368.37 187.068 368.797 187.196C369.234 187.313 369.618 187.495 369.949 187.74C370.29 187.985 370.568 188.295 370.781 188.668C370.994 189.041 371.122 189.484 371.165 189.996H369.341ZM371.816 187.228H373.192V184.748H375.016V187.228H376.664V188.588H375.016V193.004C375.016 193.196 375.021 193.361 375.032 193.5C375.053 193.639 375.09 193.756 375.144 193.852C375.208 193.948 375.298 194.023 375.416 194.076C375.533 194.119 375.693 194.14 375.896 194.14C376.024 194.14 376.152 194.14 376.28 194.14C376.408 194.129 376.536 194.108 376.664 194.076V195.484C376.461 195.505 376.264 195.527 376.072 195.548C375.88 195.569 375.682 195.58 375.48 195.58C375 195.58 374.61 195.537 374.312 195.452C374.024 195.356 373.794 195.223 373.624 195.052C373.464 194.871 373.352 194.647 373.288 194.38C373.234 194.113 373.202 193.809 373.192 193.468V188.588H371.816V187.228ZM378.024 184.076H379.848V185.804H378.024V184.076ZM378.024 187.228H379.848V195.5H378.024V187.228ZM381.835 187.228H383.563V188.444L383.595 188.476C383.872 188.017 384.235 187.66 384.683 187.404C385.131 187.137 385.627 187.004 386.171 187.004C387.078 187.004 387.792 187.239 388.315 187.708C388.838 188.177 389.099 188.881 389.099 189.82V195.5H387.275V190.3C387.254 189.649 387.115 189.18 386.859 188.892C386.603 188.593 386.203 188.444 385.659 188.444C385.35 188.444 385.072 188.503 384.827 188.62C384.582 188.727 384.374 188.881 384.203 189.084C384.032 189.276 383.899 189.505 383.803 189.772C383.707 190.039 383.659 190.321 383.659 190.62V195.5H381.835V187.228ZM398.671 195.068C398.671 196.316 398.319 197.244 397.615 197.852C396.921 198.471 395.919 198.78 394.607 198.78C394.191 198.78 393.769 198.737 393.343 198.652C392.927 198.567 392.543 198.423 392.191 198.22C391.849 198.017 391.561 197.751 391.327 197.42C391.092 197.089 390.953 196.684 390.911 196.204H392.735C392.788 196.46 392.879 196.668 393.007 196.828C393.135 196.988 393.284 197.111 393.455 197.196C393.636 197.292 393.833 197.351 394.047 197.372C394.26 197.404 394.484 197.42 394.719 197.42C395.455 197.42 395.993 197.239 396.335 196.876C396.676 196.513 396.847 195.991 396.847 195.308V194.044H396.815C396.559 194.503 396.207 194.86 395.759 195.116C395.321 195.372 394.847 195.5 394.335 195.5C393.673 195.5 393.108 195.388 392.639 195.164C392.18 194.929 391.796 194.615 391.487 194.22C391.188 193.815 390.969 193.351 390.831 192.828C390.692 192.305 390.623 191.745 390.623 191.148C390.623 190.593 390.708 190.065 390.879 189.564C391.049 189.063 391.295 188.625 391.615 188.252C391.935 187.868 392.324 187.564 392.783 187.34C393.252 187.116 393.78 187.004 394.367 187.004C394.889 187.004 395.369 187.116 395.807 187.34C396.244 187.553 396.58 187.895 396.815 188.364H396.847V187.228H398.671V195.068ZM394.623 194.06C395.028 194.06 395.369 193.98 395.647 193.82C395.935 193.649 396.164 193.431 396.335 193.164C396.516 192.887 396.644 192.577 396.719 192.236C396.804 191.884 396.847 191.532 396.847 191.18C396.847 190.828 396.804 190.487 396.719 190.156C396.633 189.825 396.5 189.532 396.319 189.276C396.148 189.02 395.919 188.817 395.631 188.668C395.353 188.519 395.017 188.444 394.623 188.444C394.217 188.444 393.876 188.529 393.599 188.7C393.321 188.871 393.097 189.095 392.927 189.372C392.756 189.639 392.633 189.948 392.559 190.3C392.484 190.641 392.447 190.983 392.447 191.324C392.447 191.665 392.489 192.001 392.575 192.332C392.66 192.652 392.788 192.94 392.959 193.196C393.14 193.452 393.364 193.66 393.631 193.82C393.908 193.98 394.239 194.06 394.623 194.06ZM405.216 184.076H409.952C410.827 184.076 411.584 184.225 412.224 184.524C412.864 184.823 413.387 185.233 413.792 185.756C414.197 186.268 414.496 186.871 414.688 187.564C414.891 188.257 414.992 188.999 414.992 189.788C414.992 190.577 414.891 191.319 414.688 192.012C414.496 192.705 414.197 193.313 413.792 193.836C413.387 194.348 412.864 194.753 412.224 195.052C411.584 195.351 410.827 195.5 409.952 195.5H405.216V184.076ZM407.216 193.868H409.184C409.963 193.868 410.597 193.767 411.088 193.564C411.589 193.351 411.979 193.063 412.256 192.7C412.544 192.327 412.736 191.895 412.832 191.404C412.939 190.903 412.992 190.364 412.992 189.788C412.992 189.212 412.939 188.679 412.832 188.188C412.736 187.687 412.544 187.255 412.256 186.892C411.979 186.519 411.589 186.231 411.088 186.028C410.597 185.815 409.963 185.708 409.184 185.708H407.216V193.868ZM423.435 193.66C423.435 193.884 423.462 194.044 423.515 194.14C423.579 194.236 423.696 194.284 423.867 194.284C423.92 194.284 423.984 194.284 424.059 194.284C424.134 194.284 424.219 194.273 424.315 194.252V195.516C424.251 195.537 424.166 195.559 424.059 195.58C423.963 195.612 423.862 195.639 423.755 195.66C423.648 195.681 423.542 195.697 423.435 195.708C423.328 195.719 423.238 195.724 423.163 195.724C422.79 195.724 422.48 195.649 422.235 195.5C421.99 195.351 421.83 195.089 421.755 194.716C421.392 195.068 420.944 195.324 420.411 195.484C419.888 195.644 419.382 195.724 418.891 195.724C418.518 195.724 418.16 195.671 417.819 195.564C417.478 195.468 417.174 195.324 416.907 195.132C416.651 194.929 416.443 194.679 416.283 194.38C416.134 194.071 416.059 193.713 416.059 193.308C416.059 192.796 416.15 192.38 416.331 192.06C416.523 191.74 416.768 191.489 417.067 191.308C417.376 191.127 417.718 190.999 418.091 190.924C418.475 190.839 418.859 190.775 419.243 190.732C419.574 190.668 419.888 190.625 420.187 190.604C420.486 190.572 420.747 190.524 420.971 190.46C421.206 190.396 421.387 190.3 421.515 190.172C421.654 190.033 421.723 189.831 421.723 189.564C421.723 189.329 421.664 189.137 421.547 188.988C421.44 188.839 421.302 188.727 421.131 188.652C420.971 188.567 420.79 188.513 420.587 188.492C420.384 188.46 420.192 188.444 420.011 188.444C419.499 188.444 419.078 188.551 418.747 188.764C418.416 188.977 418.23 189.308 418.187 189.756H416.363C416.395 189.223 416.523 188.78 416.747 188.428C416.971 188.076 417.254 187.793 417.595 187.58C417.947 187.367 418.342 187.217 418.779 187.132C419.216 187.047 419.664 187.004 420.123 187.004C420.528 187.004 420.928 187.047 421.323 187.132C421.718 187.217 422.07 187.356 422.379 187.548C422.699 187.74 422.955 187.991 423.147 188.3C423.339 188.599 423.435 188.967 423.435 189.404V193.66ZM421.611 191.356C421.334 191.537 420.992 191.649 420.587 191.692C420.182 191.724 419.776 191.777 419.371 191.852C419.179 191.884 418.992 191.932 418.811 191.996C418.63 192.049 418.47 192.129 418.331 192.236C418.192 192.332 418.08 192.465 417.995 192.636C417.92 192.796 417.883 192.993 417.883 193.228C417.883 193.431 417.942 193.601 418.059 193.74C418.176 193.879 418.315 193.991 418.475 194.076C418.646 194.151 418.827 194.204 419.019 194.236C419.222 194.268 419.403 194.284 419.563 194.284C419.766 194.284 419.984 194.257 420.219 194.204C420.454 194.151 420.672 194.06 420.875 193.932C421.088 193.804 421.264 193.644 421.403 193.452C421.542 193.249 421.611 193.004 421.611 192.716V191.356ZM424.566 187.228H425.942V184.748H427.766V187.228H429.414V188.588H427.766V193.004C427.766 193.196 427.771 193.361 427.782 193.5C427.803 193.639 427.84 193.756 427.894 193.852C427.958 193.948 428.048 194.023 428.166 194.076C428.283 194.119 428.443 194.14 428.646 194.14C428.774 194.14 428.902 194.14 429.03 194.14C429.158 194.129 429.286 194.108 429.414 194.076V195.484C429.211 195.505 429.014 195.527 428.822 195.548C428.63 195.569 428.432 195.58 428.23 195.58C427.75 195.58 427.36 195.537 427.062 195.452C426.774 195.356 426.544 195.223 426.374 195.052C426.214 194.871 426.102 194.647 426.038 194.38C425.984 194.113 425.952 193.809 425.942 193.468V188.588H424.566V187.228ZM437.654 193.66C437.654 193.884 437.68 194.044 437.734 194.14C437.798 194.236 437.915 194.284 438.086 194.284C438.139 194.284 438.203 194.284 438.278 194.284C438.352 194.284 438.438 194.273 438.534 194.252V195.516C438.47 195.537 438.384 195.559 438.278 195.58C438.182 195.612 438.08 195.639 437.974 195.66C437.867 195.681 437.76 195.697 437.654 195.708C437.547 195.719 437.456 195.724 437.382 195.724C437.008 195.724 436.699 195.649 436.454 195.5C436.208 195.351 436.048 195.089 435.974 194.716C435.611 195.068 435.163 195.324 434.63 195.484C434.107 195.644 433.6 195.724 433.11 195.724C432.736 195.724 432.379 195.671 432.038 195.564C431.696 195.468 431.392 195.324 431.126 195.132C430.87 194.929 430.662 194.679 430.502 194.38C430.352 194.071 430.278 193.713 430.278 193.308C430.278 192.796 430.368 192.38 430.55 192.06C430.742 191.74 430.987 191.489 431.286 191.308C431.595 191.127 431.936 190.999 432.31 190.924C432.694 190.839 433.078 190.775 433.462 190.732C433.792 190.668 434.107 190.625 434.406 190.604C434.704 190.572 434.966 190.524 435.19 190.46C435.424 190.396 435.606 190.3 435.734 190.172C435.872 190.033 435.942 189.831 435.942 189.564C435.942 189.329 435.883 189.137 435.766 188.988C435.659 188.839 435.52 188.727 435.35 188.652C435.19 188.567 435.008 188.513 434.806 188.492C434.603 188.46 434.411 188.444 434.23 188.444C433.718 188.444 433.296 188.551 432.966 188.764C432.635 188.977 432.448 189.308 432.406 189.756H430.582C430.614 189.223 430.742 188.78 430.966 188.428C431.19 188.076 431.472 187.793 431.814 187.58C432.166 187.367 432.56 187.217 432.998 187.132C433.435 187.047 433.883 187.004 434.342 187.004C434.747 187.004 435.147 187.047 435.542 187.132C435.936 187.217 436.288 187.356 436.598 187.548C436.918 187.74 437.174 187.991 437.366 188.3C437.558 188.599 437.654 188.967 437.654 189.404V193.66ZM435.83 191.356C435.552 191.537 435.211 191.649 434.806 191.692C434.4 191.724 433.995 191.777 433.59 191.852C433.398 191.884 433.211 191.932 433.03 191.996C432.848 192.049 432.688 192.129 432.55 192.236C432.411 192.332 432.299 192.465 432.214 192.636C432.139 192.796 432.102 192.993 432.102 193.228C432.102 193.431 432.16 193.601 432.278 193.74C432.395 193.879 432.534 193.991 432.694 194.076C432.864 194.151 433.046 194.204 433.238 194.236C433.44 194.268 433.622 194.284 433.782 194.284C433.984 194.284 434.203 194.257 434.438 194.204C434.672 194.151 434.891 194.06 435.094 193.932C435.307 193.804 435.483 193.644 435.622 193.452C435.76 193.249 435.83 193.004 435.83 192.716V191.356ZM444.325 184.076H446.325V193.772H452.133V195.5H444.325V184.076ZM460.185 193.66C460.185 193.884 460.212 194.044 460.265 194.14C460.329 194.236 460.446 194.284 460.617 194.284C460.67 194.284 460.734 194.284 460.809 194.284C460.884 194.284 460.969 194.273 461.065 194.252V195.516C461.001 195.537 460.916 195.559 460.809 195.58C460.713 195.612 460.612 195.639 460.505 195.66C460.398 195.681 460.292 195.697 460.185 195.708C460.078 195.719 459.988 195.724 459.913 195.724C459.54 195.724 459.23 195.649 458.985 195.5C458.74 195.351 458.58 195.089 458.505 194.716C458.142 195.068 457.694 195.324 457.161 195.484C456.638 195.644 456.132 195.724 455.641 195.724C455.268 195.724 454.91 195.671 454.569 195.564C454.228 195.468 453.924 195.324 453.657 195.132C453.401 194.929 453.193 194.679 453.033 194.38C452.884 194.071 452.809 193.713 452.809 193.308C452.809 192.796 452.9 192.38 453.081 192.06C453.273 191.74 453.518 191.489 453.817 191.308C454.126 191.127 454.468 190.999 454.841 190.924C455.225 190.839 455.609 190.775 455.993 190.732C456.324 190.668 456.638 190.625 456.937 190.604C457.236 190.572 457.497 190.524 457.721 190.46C457.956 190.396 458.137 190.3 458.265 190.172C458.404 190.033 458.473 189.831 458.473 189.564C458.473 189.329 458.414 189.137 458.297 188.988C458.19 188.839 458.052 188.727 457.881 188.652C457.721 188.567 457.54 188.513 457.337 188.492C457.134 188.46 456.942 188.444 456.761 188.444C456.249 188.444 455.828 188.551 455.497 188.764C455.166 188.977 454.98 189.308 454.937 189.756H453.113C453.145 189.223 453.273 188.78 453.497 188.428C453.721 188.076 454.004 187.793 454.345 187.58C454.697 187.367 455.092 187.217 455.529 187.132C455.966 187.047 456.414 187.004 456.873 187.004C457.278 187.004 457.678 187.047 458.073 187.132C458.468 187.217 458.82 187.356 459.129 187.548C459.449 187.74 459.705 187.991 459.897 188.3C460.089 188.599 460.185 188.967 460.185 189.404V193.66ZM458.361 191.356C458.084 191.537 457.742 191.649 457.337 191.692C456.932 191.724 456.526 191.777 456.121 191.852C455.929 191.884 455.742 191.932 455.561 191.996C455.38 192.049 455.22 192.129 455.081 192.236C454.942 192.332 454.83 192.465 454.745 192.636C454.67 192.796 454.633 192.993 454.633 193.228C454.633 193.431 454.692 193.601 454.809 193.74C454.926 193.879 455.065 193.991 455.225 194.076C455.396 194.151 455.577 194.204 455.769 194.236C455.972 194.268 456.153 194.284 456.313 194.284C456.516 194.284 456.734 194.257 456.969 194.204C457.204 194.151 457.422 194.06 457.625 193.932C457.838 193.804 458.014 193.644 458.153 193.452C458.292 193.249 458.361 193.004 458.361 192.716V191.356ZM462.196 184.076H464.02V190.572L467.316 187.228H469.556L466.388 190.268L469.86 195.5H467.636L465.108 191.484L464.02 192.54V195.5H462.196V184.076ZM476.421 190.636C476.4 190.348 476.336 190.071 476.229 189.804C476.133 189.537 475.995 189.308 475.813 189.116C475.643 188.913 475.429 188.753 475.173 188.636C474.928 188.508 474.651 188.444 474.341 188.444C474.021 188.444 473.728 188.503 473.461 188.62C473.205 188.727 472.981 188.881 472.789 189.084C472.608 189.276 472.459 189.505 472.341 189.772C472.235 190.039 472.176 190.327 472.165 190.636H476.421ZM472.165 191.836C472.165 192.156 472.208 192.465 472.293 192.764C472.389 193.063 472.528 193.324 472.709 193.548C472.891 193.772 473.12 193.953 473.397 194.092C473.675 194.22 474.005 194.284 474.389 194.284C474.923 194.284 475.349 194.172 475.669 193.948C476 193.713 476.245 193.367 476.405 192.908H478.133C478.037 193.356 477.872 193.756 477.637 194.108C477.403 194.46 477.12 194.759 476.789 195.004C476.459 195.239 476.085 195.415 475.669 195.532C475.264 195.66 474.837 195.724 474.389 195.724C473.739 195.724 473.163 195.617 472.661 195.404C472.16 195.191 471.733 194.892 471.381 194.508C471.04 194.124 470.779 193.665 470.597 193.132C470.427 192.599 470.341 192.012 470.341 191.372C470.341 190.785 470.432 190.231 470.613 189.708C470.805 189.175 471.072 188.711 471.413 188.316C471.765 187.911 472.187 187.591 472.677 187.356C473.168 187.121 473.723 187.004 474.341 187.004C474.992 187.004 475.573 187.143 476.085 187.42C476.608 187.687 477.04 188.044 477.381 188.492C477.723 188.94 477.968 189.457 478.117 190.044C478.277 190.62 478.32 191.217 478.245 191.836H472.165Z" fill="#001F2E"/>
</g>
<defs>
<filter id="filter0_d_1122_6248" x="107.95" y="58.5773" width="62.4667" height="62.4667" filterUnits="userSpaceOnUse" color-interpolation-filters="sRGB">
<feFlood flood-opacity="0" result="BackgroundImageFix"/>
<feColorMatrix in="SourceAlpha" type="matrix" values="0 0 0 0 0 0 0 0 0 0 0 0 0 0 0 0 0 0 127 0" result="hardAlpha"/>
<feOffset dy="-1.11513"/>
<feGaussianBlur stdDeviation="5.57566"/>
<feComposite in2="hardAlpha" operator="out"/>
<feColorMatrix type="matrix" values="0 0 0 0 0 0 0 0 0 0.623529 0 0 0 0 0.933333 0 0 0 0.33 0"/>
<feBlend mode="normal" in2="BackgroundImageFix" result="effect1_dropShadow_1122_6248"/>
<feBlend mode="normal" in="SourceGraphic" in2="effect1_dropShadow_1122_6248" result="shape"/>
</filter>
<filter id="filter1_d_1122_6248" x="107.95" y="147.161" width="61.9667" height="61.9706" filterUnits="userSpaceOnUse" color-interpolation-filters="sRGB">
<feFlood flood-opacity="0" result="BackgroundImageFix"/>
<feColorMatrix in="SourceAlpha" type="matrix" values="0 0 0 0 0 0 0 0 0 0 0 0 0 0 0 0 0 0 127 0" result="hardAlpha"/>
<feOffset dy="-1.11513"/>
<feGaussianBlur stdDeviation="5.57566"/>
<feComposite in2="hardAlpha" operator="out"/>
<feColorMatrix type="matrix" values="0 0 0 0 0 0 0 0 0 0.623529 0 0 0 0 0.933333 0 0 0 0.33 0"/>
<feBlend mode="normal" in2="BackgroundImageFix" result="effect1_dropShadow_1122_6248"/>
<feBlend mode="normal" in="SourceGraphic" in2="effect1_dropShadow_1122_6248" result="shape"/>
</filter>
<filter id="filter2_d_1122_6248" x="214.997" y="58.5773" width="62.4667" height="62.4667" filterUnits="userSpaceOnUse" color-interpolation-filters="sRGB">
<feFlood flood-opacity="0" result="BackgroundImageFix"/>
<feColorMatrix in="SourceAlpha" type="matrix" values="0 0 0 0 0 0 0 0 0 0 0 0 0 0 0 0 0 0 127 0" result="hardAlpha"/>
<feOffset dy="-1.11513"/>
<feGaussianBlur stdDeviation="5.57566"/>
<feComposite in2="hardAlpha" operator="out"/>
<feColorMatrix type="matrix" values="0 0 0 0 0 0 0 0 0 0.623529 0 0 0 0 0.933333 0 0 0 0.33 0"/>
<feBlend mode="normal" in2="BackgroundImageFix" result="effect1_dropShadow_1122_6248"/>
<feBlend mode="normal" in="SourceGraphic" in2="effect1_dropShadow_1122_6248" result="shape"/>
</filter>
<filter id="filter3_d_1122_6248" x="215.771" y="147.161" width="61.9667" height="61.9706" filterUnits="userSpaceOnUse" color-interpolation-filters="sRGB">
<feFlood flood-opacity="0" result="BackgroundImageFix"/>
<feColorMatrix in="SourceAlpha" type="matrix" values="0 0 0 0 0 0 0 0 0 0 0 0 0 0 0 0 0 0 127 0" result="hardAlpha"/>
<feOffset dy="-1.11513"/>
<feGaussianBlur stdDeviation="5.57566"/>
<feComposite in2="hardAlpha" operator="out"/>
<feColorMatrix type="matrix" values="0 0 0 0 0 0 0 0 0 0.623529 0 0 0 0 0.933333 0 0 0 0.33 0"/>
<feBlend mode="normal" in2="BackgroundImageFix" result="effect1_dropShadow_1122_6248"/>
<feBlend mode="normal" in="SourceGraphic" in2="effect1_dropShadow_1122_6248" result="shape"/>
</filter>
<filter id="filter4_ddd_1122_6248" x="0.5" y="0" width="170" height="50" filterUnits="userSpaceOnUse" color-interpolation-filters="sRGB">
<feFlood flood-opacity="0" result="BackgroundImageFix"/>
<feColorMatrix in="SourceAlpha" type="matrix" values="0 0 0 0 0 0 0 0 0 0 0 0 0 0 0 0 0 0 127 0" result="hardAlpha"/>
<feOffset dy="1"/>
<feGaussianBlur stdDeviation="1"/>
<feComposite in2="hardAlpha" operator="out"/>
<feColorMatrix type="matrix" values="0 0 0 0 0 0 0 0 0 0 0 0 0 0 0 0 0 0 0.03 0"/>
<feBlend mode="normal" in2="BackgroundImageFix" result="effect1_dropShadow_1122_6248"/>
<feColorMatrix in="SourceAlpha" type="matrix" values="0 0 0 0 0 0 0 0 0 0 0 0 0 0 0 0 0 0 127 0" result="hardAlpha"/>
<feMorphology radius="1" operator="erode" in="SourceAlpha" result="effect2_dropShadow_1122_6248"/>
<feOffset dy="1"/>
<feGaussianBlur stdDeviation="3"/>
<feComposite in2="hardAlpha" operator="out"/>
<feColorMatrix type="matrix" values="0 0 0 0 0 0 0 0 0 0 0 0 0 0 0 0 0 0 0.02 0"/>
<feBlend mode="normal" in2="effect1_dropShadow_1122_6248" result="effect2_dropShadow_1122_6248"/>
<feColorMatrix in="SourceAlpha" type="matrix" values="0 0 0 0 0 0 0 0 0 0 0 0 0 0 0 0 0 0 127 0" result="hardAlpha"/>
<feOffset dy="2"/>
<feGaussianBlur stdDeviation="2"/>
<feComposite in2="hardAlpha" operator="out"/>
<feColorMatrix type="matrix" values="0 0 0 0 0 0 0 0 0 0 0 0 0 0 0 0 0 0 0.02 0"/>
<feBlend mode="normal" in2="effect2_dropShadow_1122_6248" result="effect3_dropShadow_1122_6248"/>
<feBlend mode="normal" in="SourceGraphic" in2="effect3_dropShadow_1122_6248" result="shape"/>
</filter>
<filter id="filter5_ddd_1122_6248" x="293.5" y="166" width="207" height="50" filterUnits="userSpaceOnUse" color-interpolation-filters="sRGB">
<feFlood flood-opacity="0" result="BackgroundImageFix"/>
<feColorMatrix in="SourceAlpha" type="matrix" values="0 0 0 0 0 0 0 0 0 0 0 0 0 0 0 0 0 0 127 0" result="hardAlpha"/>
<feOffset dy="1"/>
<feGaussianBlur stdDeviation="1"/>
<feComposite in2="hardAlpha" operator="out"/>
<feColorMatrix type="matrix" values="0 0 0 0 0 0 0 0 0 0 0 0 0 0 0 0 0 0 0.03 0"/>
<feBlend mode="normal" in2="BackgroundImageFix" result="effect1_dropShadow_1122_6248"/>
<feColorMatrix in="SourceAlpha" type="matrix" values="0 0 0 0 0 0 0 0 0 0 0 0 0 0 0 0 0 0 127 0" result="hardAlpha"/>
<feMorphology radius="1" operator="erode" in="SourceAlpha" result="effect2_dropShadow_1122_6248"/>
<feOffset dy="1"/>
<feGaussianBlur stdDeviation="3"/>
<feComposite in2="hardAlpha" operator="out"/>
<feColorMatrix type="matrix" values="0 0 0 0 0 0 0 0 0 0 0 0 0 0 0 0 0 0 0.02 0"/>
<feBlend mode="normal" in2="effect1_dropShadow_1122_6248" result="effect2_dropShadow_1122_6248"/>
<feColorMatrix in="SourceAlpha" type="matrix" values="0 0 0 0 0 0 0 0 0 0 0 0 0 0 0 0 0 0 127 0" result="hardAlpha"/>
<feOffset dy="2"/>
<feGaussianBlur stdDeviation="2"/>
<feComposite in2="hardAlpha" operator="out"/>
<feColorMatrix type="matrix" values="0 0 0 0 0 0 0 0 0 0 0 0 0 0 0 0 0 0 0.02 0"/>
<feBlend mode="normal" in2="effect2_dropShadow_1122_6248" result="effect3_dropShadow_1122_6248"/>
<feBlend mode="normal" in="SourceGraphic" in2="effect3_dropShadow_1122_6248" result="shape"/>
</filter>
</defs>
</svg>
